G75*
%MOIN*%
%OFA0B0*%
%FSLAX25Y25*%
%IPPOS*%
%LPD*%
%AMOC8*
5,1,8,0,0,1.08239X$1,22.5*
%
%ADD10C,0.03937*%
%ADD11C,0.00600*%
D10*
X0008771Y0034515D02*
X0012395Y0036356D01*
X0015808Y0038479D01*
X0024233Y0036008D01*
X0057872Y0045942D01*
X0096039Y0044369D01*
X0102228Y0041358D01*
X0111939Y0036882D01*
X0113708Y0036619D01*
X0118598Y0036712D01*
X0123467Y0034261D01*
X0137856Y0032202D01*
X0150764Y0031709D01*
X0154718Y0029078D01*
X0155374Y0028375D01*
X0165572Y0031988D01*
X0249621Y0041106D01*
X0256961Y0039781D01*
X0263107Y0045413D01*
X0266976Y0044210D01*
X0274740Y0044884D01*
X0290606Y0039964D01*
X0303067Y0041028D01*
X0312641Y0038948D01*
X0312727Y0038873D01*
X0314885Y0039146D01*
X0321861Y0039222D01*
X0324928Y0040062D01*
X0325434Y0040653D01*
X0326727Y0041670D01*
X0326816Y0041423D01*
X0328650Y0041907D01*
X0334188Y0047312D01*
X0345873Y0053438D01*
X0356817Y0053095D01*
X0364536Y0050442D01*
X0374524Y0043791D01*
X0375053Y0045778D01*
X0374453Y0048832D01*
X0375660Y0052207D01*
X0383539Y0056997D01*
X0380720Y0066120D01*
X0381549Y0070766D01*
X0380875Y0072851D01*
X0379966Y0072669D01*
X0381604Y0079242D01*
X0383858Y0080773D01*
X0384381Y0081953D01*
X0383416Y0083909D01*
X0386748Y0088278D01*
X0389604Y0094445D01*
X0387502Y0099819D01*
X0380446Y0105537D01*
X0378569Y0106249D01*
X0371360Y0107004D01*
X0362601Y0114024D01*
X0357615Y0122753D01*
X0345403Y0134756D01*
X0329386Y0138745D01*
X0321403Y0139159D01*
X0319932Y0139754D01*
X0316855Y0140261D01*
X0313816Y0139426D01*
X0298738Y0142801D01*
X0297589Y0143605D01*
X0297283Y0144690D01*
X0294231Y0147799D01*
X0290741Y0147881D01*
X0289356Y0148861D01*
X0287404Y0150934D01*
X0234996Y0157775D01*
X0233808Y0158022D01*
X0233356Y0158114D01*
X0233111Y0158155D01*
X0219625Y0159863D01*
X0217100Y0161211D01*
X0180388Y0168653D01*
X0173902Y0167110D01*
X0173800Y0167465D01*
X0172369Y0168838D01*
X0161872Y0168833D01*
X0146164Y0160869D01*
X0144207Y0160760D01*
X0142243Y0159516D01*
X0142114Y0159493D01*
X0140845Y0159522D01*
X0139613Y0159608D01*
X0136073Y0159324D01*
X0132653Y0157929D01*
X0122497Y0158481D01*
X0121550Y0157432D01*
X0121042Y0157535D01*
X0116351Y0157047D01*
X0112905Y0157205D01*
X0111724Y0156454D01*
X0110748Y0155651D01*
X0109904Y0154996D01*
X0109901Y0154998D01*
X0109233Y0154928D01*
X0105124Y0155142D01*
X0102678Y0154062D01*
X0100895Y0153682D01*
X0098510Y0145476D01*
X0068930Y0121202D01*
X0064241Y0119516D01*
X0054807Y0105464D01*
X0053750Y0101595D01*
X0054562Y0097178D01*
X0053395Y0095981D01*
X0047110Y0076876D01*
X0034112Y0062660D01*
X0025812Y0056845D01*
X0023608Y0056254D01*
X0017317Y0055950D01*
X0006765Y0048892D01*
X0008422Y0046661D01*
X0010658Y0046355D01*
X0011316Y0044610D01*
X0010956Y0041106D01*
X0008771Y0034515D01*
D11*
X0235483Y0099786D02*
X0235483Y0100354D01*
X0236050Y0100921D01*
X0237751Y0100921D01*
X0237751Y0099786D01*
X0237184Y0099219D01*
X0236050Y0099219D01*
X0235483Y0099786D01*
X0236617Y0102055D02*
X0237751Y0100921D01*
X0236617Y0102055D02*
X0235483Y0102622D01*
X0240300Y0102622D02*
X0240300Y0099219D01*
X0239166Y0099219D02*
X0241435Y0099219D01*
X0242849Y0099786D02*
X0243416Y0099219D01*
X0244551Y0099219D01*
X0245118Y0099786D01*
X0242849Y0102055D01*
X0242849Y0099786D01*
X0241435Y0101488D02*
X0240300Y0102622D01*
X0242849Y0102055D02*
X0243416Y0102622D01*
X0244551Y0102622D01*
X0245118Y0102055D01*
X0245118Y0099786D01*
X0246532Y0099219D02*
X0248801Y0099219D01*
X0246532Y0101488D01*
X0246532Y0102055D01*
X0247099Y0102622D01*
X0248234Y0102622D01*
X0248801Y0102055D01*
X0253899Y0100921D02*
X0253899Y0100354D01*
X0256167Y0100354D01*
X0256167Y0100921D02*
X0256167Y0099786D01*
X0255600Y0099219D01*
X0254466Y0099219D01*
X0253899Y0100921D02*
X0254466Y0101488D01*
X0255600Y0101488D01*
X0256167Y0100921D01*
X0257535Y0101488D02*
X0258102Y0101488D01*
X0259236Y0100354D01*
X0259236Y0101488D02*
X0259236Y0099219D01*
X0260558Y0099219D02*
X0261692Y0099219D01*
X0261125Y0099219D02*
X0261125Y0101488D01*
X0261692Y0101488D01*
X0261125Y0102622D02*
X0261125Y0103189D01*
X0263106Y0100921D02*
X0263106Y0099219D01*
X0264808Y0099219D01*
X0265375Y0099786D01*
X0264808Y0100354D01*
X0263106Y0100354D01*
X0263106Y0100921D02*
X0263674Y0101488D01*
X0264808Y0101488D01*
X0266790Y0102622D02*
X0269058Y0102622D01*
X0269058Y0099219D01*
X0269058Y0100921D02*
X0267924Y0100921D01*
X0274109Y0101488D02*
X0274676Y0101488D01*
X0275811Y0100354D01*
X0275811Y0101488D02*
X0275811Y0099219D01*
X0277225Y0100354D02*
X0279494Y0100354D01*
X0279494Y0100921D02*
X0279494Y0099786D01*
X0278927Y0099219D01*
X0277792Y0099219D01*
X0277225Y0100354D02*
X0277225Y0100921D01*
X0277792Y0101488D01*
X0278927Y0101488D01*
X0279494Y0100921D01*
X0280862Y0101488D02*
X0282563Y0100354D01*
X0280862Y0099219D01*
X0282563Y0099219D02*
X0282563Y0102622D01*
X0283978Y0100921D02*
X0283978Y0099219D01*
X0285679Y0099219D01*
X0286246Y0099786D01*
X0285679Y0100354D01*
X0283978Y0100354D01*
X0283978Y0100921D02*
X0284545Y0101488D01*
X0285679Y0101488D01*
X0287661Y0102622D02*
X0287661Y0099219D01*
X0289929Y0099219D02*
X0289929Y0102622D01*
X0288795Y0101488D01*
X0287661Y0102622D01*
X0324753Y0075404D02*
X0324753Y0072001D01*
X0325887Y0072001D02*
X0323618Y0072001D01*
X0321590Y0069404D02*
X0321590Y0066001D01*
X0320456Y0067135D01*
X0319321Y0066001D01*
X0319321Y0069404D01*
X0317907Y0068269D02*
X0317340Y0068269D01*
X0317340Y0066001D01*
X0317907Y0066001D02*
X0316773Y0066001D01*
X0315451Y0066001D02*
X0314317Y0066001D01*
X0314884Y0066001D02*
X0314884Y0069404D01*
X0315451Y0069404D01*
X0317340Y0069404D02*
X0317340Y0069971D01*
X0312996Y0069404D02*
X0312429Y0069404D01*
X0312429Y0066001D01*
X0312996Y0066001D02*
X0311862Y0066001D01*
X0326688Y0066001D02*
X0328956Y0068269D01*
X0328956Y0068836D01*
X0328389Y0069404D01*
X0327822Y0068836D01*
X0327822Y0068269D01*
X0328956Y0067135D01*
X0328956Y0066568D01*
X0328389Y0066001D01*
X0327822Y0066001D01*
X0326688Y0067135D01*
X0331458Y0063971D02*
X0331458Y0063404D01*
X0331458Y0062269D02*
X0331458Y0060001D01*
X0330891Y0060001D02*
X0332026Y0060001D01*
X0333440Y0061135D02*
X0335709Y0061135D01*
X0335709Y0061702D02*
X0335142Y0062269D01*
X0334007Y0062269D01*
X0333440Y0061702D01*
X0333440Y0061135D01*
X0334007Y0060001D02*
X0335142Y0060001D01*
X0335709Y0060568D01*
X0335709Y0061702D01*
X0337123Y0061702D02*
X0337123Y0060568D01*
X0337690Y0060001D01*
X0339392Y0060001D01*
X0339392Y0058866D02*
X0339392Y0062269D01*
X0337690Y0062269D01*
X0337123Y0061702D01*
X0340713Y0060001D02*
X0341847Y0060001D01*
X0341280Y0060001D02*
X0341280Y0062269D01*
X0341847Y0062269D01*
X0341280Y0063404D02*
X0341280Y0063971D01*
X0340006Y0066001D02*
X0338304Y0066001D01*
X0337737Y0066568D01*
X0337737Y0068836D01*
X0338304Y0069404D01*
X0340006Y0069404D01*
X0340006Y0066001D01*
X0336323Y0066568D02*
X0335755Y0066001D01*
X0334621Y0066001D01*
X0334054Y0066568D01*
X0334054Y0068836D02*
X0334621Y0069404D01*
X0335755Y0069404D01*
X0336323Y0068836D01*
X0336323Y0066568D01*
X0335755Y0072001D02*
X0336323Y0072568D01*
X0336323Y0073702D01*
X0335755Y0074269D01*
X0334621Y0074269D01*
X0334054Y0073702D01*
X0334054Y0073135D01*
X0336323Y0073135D01*
X0335755Y0072001D02*
X0334621Y0072001D01*
X0332639Y0072001D02*
X0332639Y0074269D01*
X0331505Y0074269D02*
X0330938Y0074269D01*
X0331505Y0074269D02*
X0332639Y0073135D01*
X0325887Y0074269D02*
X0324753Y0075404D01*
X0337737Y0073702D02*
X0338304Y0074269D01*
X0340006Y0074269D01*
X0340006Y0075404D02*
X0340006Y0072001D01*
X0338304Y0072001D01*
X0337737Y0072568D01*
X0337737Y0073702D01*
X0341420Y0073702D02*
X0341420Y0072001D01*
X0342555Y0072001D02*
X0342555Y0073702D01*
X0341987Y0074269D01*
X0341420Y0073702D01*
X0342555Y0073702D02*
X0343122Y0074269D01*
X0343689Y0074269D01*
X0343689Y0072001D01*
X0345103Y0072001D02*
X0345103Y0074269D01*
X0347372Y0074269D02*
X0347372Y0072568D01*
X0346805Y0072001D01*
X0345103Y0072001D01*
X0348787Y0072001D02*
X0348787Y0075404D01*
X0351055Y0075404D02*
X0348787Y0072001D01*
X0351055Y0072001D02*
X0351055Y0075404D01*
X0356153Y0073702D02*
X0356153Y0072001D01*
X0356153Y0073702D02*
X0356720Y0074269D01*
X0358421Y0074269D01*
X0358421Y0072001D01*
X0359836Y0072001D02*
X0361537Y0072001D01*
X0362105Y0072568D01*
X0361537Y0073135D01*
X0359836Y0073135D01*
X0359836Y0073702D02*
X0359836Y0072001D01*
X0359836Y0073702D02*
X0360403Y0074269D01*
X0361537Y0074269D01*
X0363519Y0074269D02*
X0363519Y0072568D01*
X0364086Y0072001D01*
X0364653Y0072568D01*
X0365221Y0072001D01*
X0365788Y0072568D01*
X0365788Y0074269D01*
X0367676Y0074269D02*
X0367676Y0072001D01*
X0368243Y0072001D02*
X0367109Y0072001D01*
X0369658Y0072001D02*
X0371359Y0072001D01*
X0371926Y0072568D01*
X0371359Y0073135D01*
X0369658Y0073135D01*
X0369658Y0073702D02*
X0369658Y0072001D01*
X0369658Y0073702D02*
X0370225Y0074269D01*
X0371359Y0074269D01*
X0373341Y0075404D02*
X0375609Y0075404D01*
X0374475Y0075404D02*
X0374475Y0072001D01*
X0373341Y0069404D02*
X0373341Y0066001D01*
X0375042Y0066001D01*
X0375609Y0066568D01*
X0375609Y0067702D01*
X0375042Y0068269D01*
X0373341Y0068269D01*
X0371926Y0067702D02*
X0371359Y0068269D01*
X0370225Y0068269D01*
X0369658Y0067702D01*
X0369658Y0067135D01*
X0371926Y0067135D01*
X0371926Y0066568D02*
X0371926Y0067702D01*
X0371926Y0066568D02*
X0371359Y0066001D01*
X0370225Y0066001D01*
X0368243Y0066001D02*
X0366542Y0066001D01*
X0365975Y0066568D01*
X0366542Y0067135D01*
X0367676Y0067135D01*
X0368243Y0067702D01*
X0367676Y0068269D01*
X0365975Y0068269D01*
X0364560Y0068269D02*
X0363993Y0068269D01*
X0363993Y0066001D01*
X0364560Y0066001D02*
X0363426Y0066001D01*
X0362105Y0066568D02*
X0361537Y0066001D01*
X0359836Y0066001D01*
X0359836Y0065433D02*
X0359836Y0068269D01*
X0361537Y0068269D01*
X0362105Y0067702D01*
X0362105Y0066568D01*
X0360970Y0064866D02*
X0360403Y0064866D01*
X0359836Y0065433D01*
X0358421Y0066001D02*
X0358421Y0068269D01*
X0356720Y0068269D01*
X0356153Y0067702D01*
X0356153Y0066001D01*
X0354738Y0063404D02*
X0354738Y0060001D01*
X0353037Y0060001D01*
X0352470Y0060568D01*
X0352470Y0061702D01*
X0353037Y0062269D01*
X0354738Y0062269D01*
X0356153Y0061702D02*
X0356153Y0060001D01*
X0357854Y0060001D01*
X0358421Y0060568D01*
X0357854Y0061135D01*
X0356153Y0061135D01*
X0356153Y0061702D02*
X0356720Y0062269D01*
X0357854Y0062269D01*
X0360310Y0063404D02*
X0360310Y0060001D01*
X0360877Y0060001D02*
X0359743Y0060001D01*
X0362291Y0060001D02*
X0362291Y0061702D01*
X0362859Y0062269D01*
X0364560Y0062269D01*
X0364560Y0060001D01*
X0365975Y0061135D02*
X0368243Y0061135D01*
X0368243Y0061702D02*
X0367676Y0062269D01*
X0366542Y0062269D01*
X0365975Y0061702D01*
X0365975Y0061135D01*
X0366542Y0060001D02*
X0367676Y0060001D01*
X0368243Y0060568D01*
X0368243Y0061702D01*
X0369658Y0061702D02*
X0369658Y0060568D01*
X0370225Y0060001D01*
X0371926Y0060001D01*
X0371926Y0058866D02*
X0371926Y0062269D01*
X0370225Y0062269D01*
X0369658Y0061702D01*
X0373341Y0060568D02*
X0373341Y0062836D01*
X0373908Y0063404D01*
X0375042Y0063404D01*
X0375609Y0062836D01*
X0375609Y0060568D01*
X0375042Y0060001D01*
X0373908Y0060001D01*
X0373341Y0060568D01*
X0360877Y0063404D02*
X0360310Y0063404D01*
X0351055Y0066001D02*
X0349354Y0066001D01*
X0348787Y0066568D01*
X0348787Y0067702D01*
X0349354Y0068269D01*
X0351055Y0068269D01*
X0351055Y0069404D02*
X0351055Y0066001D01*
X0349214Y0063404D02*
X0346945Y0063404D01*
X0348079Y0063404D02*
X0348079Y0060001D01*
X0350488Y0060001D02*
X0351055Y0060001D01*
X0351055Y0060568D01*
X0350488Y0060568D01*
X0350488Y0060001D01*
X0345530Y0060568D02*
X0344963Y0061135D01*
X0343262Y0061135D01*
X0343262Y0061702D02*
X0343262Y0060001D01*
X0344963Y0060001D01*
X0345530Y0060568D01*
X0344963Y0062269D02*
X0343829Y0062269D01*
X0343262Y0061702D01*
X0345671Y0064866D02*
X0345103Y0065433D01*
X0345103Y0068269D01*
X0347372Y0068269D02*
X0347372Y0066568D01*
X0346805Y0066001D01*
X0345103Y0066001D01*
X0345671Y0064866D02*
X0346238Y0064866D01*
X0332026Y0062269D02*
X0331458Y0062269D01*
X0363993Y0069404D02*
X0363993Y0069971D01*
X0367676Y0074269D02*
X0368243Y0074269D01*
X0367676Y0075404D02*
X0367676Y0075971D01*
M02*
