G75*
%MOIN*%
%OFA0B0*%
%FSLAX25Y25*%
%IPPOS*%
%LPD*%
%AMOC8*
5,1,8,0,0,1.08239X$1,22.5*
%
%ADD10C,0.03937*%
%ADD11C,0.06900*%
%ADD12OC8,0.07800*%
%ADD13C,0.07800*%
%ADD14C,0.05600*%
%ADD15C,0.05600*%
%ADD16C,0.20085*%
%ADD17C,0.12211*%
%ADD18R,0.07800X0.07800*%
%ADD19OC8,0.12211*%
%ADD20OC8,0.06700*%
%ADD21C,0.06699*%
%ADD22C,0.06700*%
%ADD23OC8,0.05600*%
%ADD24C,0.05400*%
%ADD25C,0.05400*%
D10*
X0008771Y0034515D02*
X0012395Y0036356D01*
X0015808Y0038479D01*
X0024233Y0036008D01*
X0057872Y0045942D01*
X0096039Y0044369D01*
X0102228Y0041358D01*
X0111939Y0036882D01*
X0113708Y0036619D01*
X0118598Y0036712D01*
X0123467Y0034261D01*
X0137856Y0032202D01*
X0150764Y0031709D01*
X0154718Y0029078D01*
X0155374Y0028375D01*
X0165572Y0031988D01*
X0249621Y0041106D01*
X0256961Y0039781D01*
X0263107Y0045413D01*
X0266976Y0044210D01*
X0274740Y0044884D01*
X0290606Y0039964D01*
X0303067Y0041028D01*
X0312641Y0038948D01*
X0312727Y0038873D01*
X0314885Y0039146D01*
X0321861Y0039222D01*
X0324928Y0040062D01*
X0325434Y0040653D01*
X0326727Y0041670D01*
X0326816Y0041423D01*
X0328650Y0041907D01*
X0334188Y0047312D01*
X0345873Y0053438D01*
X0356817Y0053095D01*
X0364536Y0050442D01*
X0374524Y0043791D01*
X0375053Y0045778D01*
X0374453Y0048832D01*
X0375660Y0052207D01*
X0383539Y0056997D01*
X0380720Y0066120D01*
X0381549Y0070766D01*
X0380875Y0072851D01*
X0379966Y0072669D01*
X0381604Y0079242D01*
X0383858Y0080773D01*
X0384381Y0081953D01*
X0383416Y0083909D01*
X0386748Y0088278D01*
X0389604Y0094445D01*
X0387502Y0099819D01*
X0380446Y0105537D01*
X0378569Y0106249D01*
X0371360Y0107004D01*
X0362601Y0114024D01*
X0357615Y0122753D01*
X0345403Y0134756D01*
X0329386Y0138745D01*
X0321403Y0139159D01*
X0319932Y0139754D01*
X0316855Y0140261D01*
X0313816Y0139426D01*
X0298738Y0142801D01*
X0297589Y0143605D01*
X0297283Y0144690D01*
X0294231Y0147799D01*
X0290741Y0147881D01*
X0289356Y0148861D01*
X0287404Y0150934D01*
X0234996Y0157775D01*
X0233808Y0158022D01*
X0233356Y0158114D01*
X0233111Y0158155D01*
X0219625Y0159863D01*
X0217100Y0161211D01*
X0180388Y0168653D01*
X0173902Y0167110D01*
X0173800Y0167465D01*
X0172369Y0168838D01*
X0161872Y0168833D01*
X0146164Y0160869D01*
X0144207Y0160760D01*
X0142243Y0159516D01*
X0142114Y0159493D01*
X0140845Y0159522D01*
X0139613Y0159608D01*
X0136073Y0159324D01*
X0132653Y0157929D01*
X0122497Y0158481D01*
X0121550Y0157432D01*
X0121042Y0157535D01*
X0116351Y0157047D01*
X0112905Y0157205D01*
X0111724Y0156454D01*
X0110748Y0155651D01*
X0109904Y0154996D01*
X0109901Y0154998D01*
X0109233Y0154928D01*
X0105124Y0155142D01*
X0102678Y0154062D01*
X0100895Y0153682D01*
X0098510Y0145476D01*
X0068930Y0121202D01*
X0064241Y0119516D01*
X0054807Y0105464D01*
X0053750Y0101595D01*
X0054562Y0097178D01*
X0053395Y0095981D01*
X0047110Y0076876D01*
X0034112Y0062660D01*
X0025812Y0056845D01*
X0023608Y0056254D01*
X0017317Y0055950D01*
X0006765Y0048892D01*
X0008422Y0046661D01*
X0010658Y0046355D01*
X0011316Y0044610D01*
X0010956Y0041106D01*
X0008771Y0034515D01*
D11*
X0100555Y0066000D03*
X0110555Y0066000D03*
X0173547Y0069149D03*
X0173547Y0059149D03*
X0192919Y0067306D03*
X0202919Y0067306D03*
X0218788Y0067458D03*
X0228788Y0067458D03*
X0173941Y0133165D03*
X0173941Y0143165D03*
D12*
X0225231Y0136142D03*
X0235231Y0136142D03*
X0236231Y0126142D03*
X0226231Y0126142D03*
X0226231Y0146142D03*
X0236231Y0146142D03*
D13*
X0249453Y0139228D03*
X0249610Y0125055D03*
X0289610Y0125055D03*
X0289453Y0139228D03*
X0198950Y0095855D03*
X0158950Y0095855D03*
X0150870Y0095855D03*
X0110870Y0095855D03*
X0086146Y0088992D03*
X0077526Y0092737D03*
X0059726Y0092737D03*
X0086146Y0078992D03*
X0077526Y0067137D03*
X0059726Y0067137D03*
X0055831Y0056764D03*
X0065831Y0055764D03*
X0075831Y0056764D03*
X0085831Y0055764D03*
X0095831Y0056764D03*
X0105831Y0055764D03*
X0123002Y0073070D03*
X0133002Y0073070D03*
X0143312Y0072645D03*
X0153312Y0072645D03*
X0165552Y0069784D03*
X0165552Y0059784D03*
X0238508Y0071748D03*
X0238508Y0081748D03*
X0276599Y0058436D03*
X0286599Y0058436D03*
X0300078Y0066393D03*
X0300078Y0076393D03*
X0166343Y0127417D03*
X0156343Y0127417D03*
X0147957Y0122929D03*
X0137878Y0123086D03*
X0127878Y0123086D03*
X0118035Y0123086D03*
X0108035Y0123086D03*
X0147957Y0132929D03*
X0041922Y0056396D03*
X0032525Y0052975D03*
X0021151Y0051001D03*
X0024571Y0041604D03*
D14*
X0097989Y0078649D02*
X0097989Y0083849D01*
X0107989Y0083849D02*
X0107989Y0078649D01*
X0117989Y0078649D02*
X0117989Y0083849D01*
X0127989Y0083849D02*
X0127989Y0078649D01*
X0137989Y0078649D02*
X0137989Y0083849D01*
X0147989Y0083849D02*
X0147989Y0078649D01*
X0157989Y0078649D02*
X0157989Y0083849D01*
X0167989Y0083849D02*
X0167989Y0078649D01*
X0177989Y0078649D02*
X0177989Y0083849D01*
X0187989Y0083849D02*
X0187989Y0078649D01*
X0197989Y0078649D02*
X0197989Y0083849D01*
X0207989Y0083849D02*
X0207989Y0078649D01*
X0217989Y0078649D02*
X0217989Y0083849D01*
X0227989Y0083849D02*
X0227989Y0078649D01*
X0227989Y0108649D02*
X0227989Y0113849D01*
X0217989Y0113849D02*
X0217989Y0108649D01*
X0207989Y0108649D02*
X0207989Y0113849D01*
X0197989Y0113849D02*
X0197989Y0108649D01*
X0187989Y0108649D02*
X0187989Y0113849D01*
X0177989Y0113849D02*
X0177989Y0108649D01*
X0167989Y0108649D02*
X0167989Y0113849D01*
X0157989Y0113849D02*
X0157989Y0108649D01*
X0147989Y0108649D02*
X0147989Y0113849D01*
X0137989Y0113849D02*
X0137989Y0108649D01*
X0127989Y0108649D02*
X0127989Y0113849D01*
X0117989Y0113849D02*
X0117989Y0108649D01*
X0107989Y0108649D02*
X0107989Y0113849D01*
X0097989Y0113849D02*
X0097989Y0108649D01*
X0314585Y0095295D02*
X0314585Y0090095D01*
X0324585Y0090095D02*
X0324585Y0095295D01*
X0324607Y0095284D02*
X0324607Y0090084D01*
X0334585Y0090095D02*
X0334585Y0095295D01*
X0334607Y0095284D02*
X0334607Y0090084D01*
X0344607Y0090084D02*
X0344607Y0095284D01*
D15*
X0226503Y0052629D03*
X0207503Y0052629D03*
D16*
X0182587Y0046787D03*
X0250297Y0053506D03*
X0313107Y0054916D03*
X0362429Y0083336D03*
X0315184Y0124896D03*
X0158444Y0151744D03*
X0115002Y0142794D03*
X0075449Y0109150D03*
D17*
X0075449Y0109150D03*
X0115002Y0142794D03*
X0158444Y0151744D03*
X0315184Y0124896D03*
X0362429Y0083336D03*
X0313107Y0054916D03*
X0250297Y0053506D03*
X0182587Y0046787D03*
D18*
X0261853Y0112741D03*
X0271695Y0112741D03*
X0281538Y0112741D03*
D19*
X0289018Y0085182D03*
X0254373Y0085182D03*
D20*
X0303075Y0100764D03*
X0214042Y0122408D03*
X0214042Y0132408D03*
X0214042Y0142408D03*
X0214042Y0152408D03*
X0184042Y0152408D03*
X0184042Y0142408D03*
X0184042Y0132408D03*
X0184042Y0122408D03*
D21*
X0335704Y0113790D03*
X0343578Y0113790D03*
D22*
X0303075Y0110764D03*
D23*
X0166067Y0052890D03*
X0166067Y0042890D03*
X0119217Y0055882D03*
X0119217Y0065882D03*
D24*
X0127681Y0061744D02*
X0127681Y0056744D01*
X0127681Y0042744D02*
X0127681Y0037744D01*
X0157996Y0037744D02*
X0157996Y0042744D01*
X0157996Y0056744D02*
X0157996Y0061744D01*
D25*
X0148839Y0064244D03*
X0142839Y0064244D03*
X0145791Y0059244D03*
X0139886Y0059244D03*
X0136839Y0064244D03*
M02*
