G75*
%MOIN*%
%OFA0B0*%
%FSLAX25Y25*%
%IPPOS*%
%LPD*%
%AMOC8*
5,1,8,0,0,1.08239X$1,22.5*
%
%ADD10C,0.03937*%
%ADD11C,0.19685*%
D10*
X0008771Y0034515D02*
X0012395Y0036356D01*
X0015808Y0038479D01*
X0024233Y0036008D01*
X0057872Y0045942D01*
X0096039Y0044369D01*
X0102228Y0041358D01*
X0111939Y0036882D01*
X0113708Y0036619D01*
X0118598Y0036712D01*
X0123467Y0034261D01*
X0137856Y0032202D01*
X0150764Y0031709D01*
X0154718Y0029078D01*
X0155374Y0028375D01*
X0165572Y0031988D01*
X0249621Y0041106D01*
X0256961Y0039781D01*
X0263107Y0045413D01*
X0266976Y0044210D01*
X0274740Y0044884D01*
X0290606Y0039964D01*
X0303067Y0041028D01*
X0312641Y0038948D01*
X0312727Y0038873D01*
X0314885Y0039146D01*
X0321861Y0039222D01*
X0324928Y0040062D01*
X0325434Y0040653D01*
X0326727Y0041670D01*
X0326816Y0041423D01*
X0328650Y0041907D01*
X0334188Y0047312D01*
X0345873Y0053438D01*
X0356817Y0053095D01*
X0364536Y0050442D01*
X0374524Y0043791D01*
X0375053Y0045778D01*
X0374453Y0048832D01*
X0375660Y0052207D01*
X0383539Y0056997D01*
X0380720Y0066120D01*
X0381549Y0070766D01*
X0380875Y0072851D01*
X0379966Y0072669D01*
X0381604Y0079242D01*
X0383858Y0080773D01*
X0384381Y0081953D01*
X0383416Y0083909D01*
X0386748Y0088278D01*
X0389604Y0094445D01*
X0387502Y0099819D01*
X0380446Y0105537D01*
X0378569Y0106249D01*
X0371360Y0107004D01*
X0362601Y0114024D01*
X0357615Y0122753D01*
X0345403Y0134756D01*
X0329386Y0138745D01*
X0321403Y0139159D01*
X0319932Y0139754D01*
X0316855Y0140261D01*
X0313816Y0139426D01*
X0298738Y0142801D01*
X0297589Y0143605D01*
X0297283Y0144690D01*
X0294231Y0147799D01*
X0290741Y0147881D01*
X0289356Y0148861D01*
X0287404Y0150934D01*
X0234996Y0157775D01*
X0233808Y0158022D01*
X0233356Y0158114D01*
X0233111Y0158155D01*
X0219625Y0159863D01*
X0217100Y0161211D01*
X0180388Y0168653D01*
X0173902Y0167110D01*
X0173800Y0167465D01*
X0172369Y0168838D01*
X0161872Y0168833D01*
X0146164Y0160869D01*
X0144207Y0160760D01*
X0142243Y0159516D01*
X0142114Y0159493D01*
X0140845Y0159522D01*
X0139613Y0159608D01*
X0136073Y0159324D01*
X0132653Y0157929D01*
X0122497Y0158481D01*
X0121550Y0157432D01*
X0121042Y0157535D01*
X0116351Y0157047D01*
X0112905Y0157205D01*
X0111724Y0156454D01*
X0110748Y0155651D01*
X0109904Y0154996D01*
X0109901Y0154998D01*
X0109233Y0154928D01*
X0105124Y0155142D01*
X0102678Y0154062D01*
X0100895Y0153682D01*
X0098510Y0145476D01*
X0068930Y0121202D01*
X0064241Y0119516D01*
X0054807Y0105464D01*
X0053750Y0101595D01*
X0054562Y0097178D01*
X0053395Y0095981D01*
X0047110Y0076876D01*
X0034112Y0062660D01*
X0025812Y0056845D01*
X0023608Y0056254D01*
X0017317Y0055950D01*
X0006765Y0048892D01*
X0008422Y0046661D01*
X0010658Y0046355D01*
X0011316Y0044610D01*
X0010956Y0041106D01*
X0008771Y0034515D01*
D11*
X0075449Y0109150D03*
X0115002Y0142794D03*
X0158444Y0151744D03*
X0315184Y0124896D03*
X0362429Y0083336D03*
X0313107Y0054916D03*
X0250297Y0053506D03*
X0182587Y0046787D03*
M02*
