%
M48
M72
T01C0.01300
T02C0.01400
T03C0.02500
T04C0.02756
T05C0.03200
T06C0.03543
T07C0.03937
T08C0.04000
T09C0.07874
%
T01
X140083Y46709
X226697Y97496
X212917Y105764
X194413Y99464
X195594Y127023
X187327Y127023
X192839Y133716
X198744Y137653
X202681Y132929
X173547Y127417
X262917Y148677
X264492Y132929
T02
X214098Y101827
T03
X136839Y64244
X139886Y59244
X142839Y64244
X148839Y64244
X145791Y59244
T04
X100555Y66000
X110555Y66000
X127681Y59244
X157996Y59244
X173547Y59149
X173547Y69149
X192919Y67306
X202919Y67306
X218788Y67458
X228788Y67458
X157996Y40244
X127681Y40244
X173941Y133165
X173941Y143165
X335704Y113790
X343578Y113790
T05
X24571Y41604
X21151Y51001
X97989Y81249
X107989Y81249
X117989Y81249
X127989Y81249
X137989Y81249
X147989Y81249
X157989Y81249
X167989Y81249
X177989Y81249
X187989Y81249
X197989Y81249
X207989Y81249
X217989Y81249
X227989Y81249
X226503Y52629
X207503Y52629
X166067Y52890
X166067Y42890
X119217Y55882
X119217Y65882
X117989Y111249
X127989Y111249
X137989Y111249
X147989Y111249
X157989Y111249
X167989Y111249
X177989Y111249
X187989Y111249
X197989Y111249
X207989Y111249
X217989Y111249
X227989Y111249
X214042Y122408
X214042Y132408
X214042Y142408
X214042Y152408
X184042Y152408
X184042Y142408
X184042Y132408
X184042Y122408
X166343Y127417
X156343Y127417
X107989Y111249
X97989Y111249
X303075Y110764
X303075Y100764
X314585Y92695
X324585Y92695
X324607Y92684
X334585Y92695
X334607Y92684
X344607Y92684
T06
X32525Y52975
X41922Y56396
X86146Y78992
X86146Y88992
X110870Y95855
X150870Y95855
X158950Y95855
X198950Y95855
X238508Y81748
X238508Y71748
X276599Y58436
X286599Y58436
X300078Y66393
X300078Y76393
X289610Y125055
X289453Y139228
X249610Y125055
X249453Y139228
X147957Y132929
X147957Y122929
X137878Y123086
X127878Y123086
X118035Y123086
X108035Y123086
X123002Y73070
X133002Y73070
X143312Y72645
X153312Y72645
X165552Y69784
X165552Y59784
T07
X261853Y112741
X271695Y112741
X281538Y112741
T08
X55831Y56764
X65831Y55764
X75831Y56764
X85831Y55764
X95831Y56764
X105831Y55764
X77526Y67137
X59726Y67137
X59726Y92737
X77526Y92737
X226231Y146142
X236231Y146142
X235231Y136142
X225231Y136142
X226231Y126142
X236231Y126142
T09
X75449Y109150
X115002Y142794
X158444Y151744
X254373Y85182
X289018Y85182
X313107Y54916
X362429Y83336
X315184Y124896
X250297Y53506
X182587Y46787
M30
