G75*
%MOIN*%
%OFA0B0*%
%FSLAX25Y25*%
%IPPOS*%
%LPD*%
%AMOC8*
5,1,8,0,0,1.08239X$1,22.5*
%
%ADD10C,0.03937*%
%ADD11C,0.00800*%
%ADD12C,0.00600*%
%ADD13C,0.00200*%
%ADD14C,0.01600*%
%ADD15C,0.00100*%
%ADD16C,0.01000*%
%ADD17C,0.00500*%
%ADD18C,0.00050*%
%ADD19C,0.00400*%
%ADD20C,0.02000*%
%ADD21C,0.00700*%
D10*
X0008771Y0034515D02*
X0012395Y0036356D01*
X0015808Y0038479D01*
X0024233Y0036008D01*
X0057872Y0045942D01*
X0096039Y0044369D01*
X0102228Y0041358D01*
X0111939Y0036882D01*
X0113708Y0036619D01*
X0118598Y0036712D01*
X0123467Y0034261D01*
X0137856Y0032202D01*
X0150764Y0031709D01*
X0154718Y0029078D01*
X0155374Y0028375D01*
X0165572Y0031988D01*
X0249621Y0041106D01*
X0256961Y0039781D01*
X0263107Y0045413D01*
X0266976Y0044210D01*
X0274740Y0044884D01*
X0290606Y0039964D01*
X0303067Y0041028D01*
X0312641Y0038948D01*
X0312727Y0038873D01*
X0314885Y0039146D01*
X0321861Y0039222D01*
X0324928Y0040062D01*
X0325434Y0040653D01*
X0326727Y0041670D01*
X0326816Y0041423D01*
X0328650Y0041907D01*
X0334188Y0047312D01*
X0345873Y0053438D01*
X0356817Y0053095D01*
X0364536Y0050442D01*
X0374524Y0043791D01*
X0375053Y0045778D01*
X0374453Y0048832D01*
X0375660Y0052207D01*
X0383539Y0056997D01*
X0380720Y0066120D01*
X0381549Y0070766D01*
X0380875Y0072851D01*
X0379966Y0072669D01*
X0381604Y0079242D01*
X0383858Y0080773D01*
X0384381Y0081953D01*
X0383416Y0083909D01*
X0386748Y0088278D01*
X0389604Y0094445D01*
X0387502Y0099819D01*
X0380446Y0105537D01*
X0378569Y0106249D01*
X0371360Y0107004D01*
X0362601Y0114024D01*
X0357615Y0122753D01*
X0345403Y0134756D01*
X0329386Y0138745D01*
X0321403Y0139159D01*
X0319932Y0139754D01*
X0316855Y0140261D01*
X0313816Y0139426D01*
X0298738Y0142801D01*
X0297589Y0143605D01*
X0297283Y0144690D01*
X0294231Y0147799D01*
X0290741Y0147881D01*
X0289356Y0148861D01*
X0287404Y0150934D01*
X0234996Y0157775D01*
X0233808Y0158022D01*
X0233356Y0158114D01*
X0233111Y0158155D01*
X0219625Y0159863D01*
X0217100Y0161211D01*
X0180388Y0168653D01*
X0173902Y0167110D01*
X0173800Y0167465D01*
X0172369Y0168838D01*
X0161872Y0168833D01*
X0146164Y0160869D01*
X0144207Y0160760D01*
X0142243Y0159516D01*
X0142114Y0159493D01*
X0140845Y0159522D01*
X0139613Y0159608D01*
X0136073Y0159324D01*
X0132653Y0157929D01*
X0122497Y0158481D01*
X0121550Y0157432D01*
X0121042Y0157535D01*
X0116351Y0157047D01*
X0112905Y0157205D01*
X0111724Y0156454D01*
X0110748Y0155651D01*
X0109904Y0154996D01*
X0109901Y0154998D01*
X0109233Y0154928D01*
X0105124Y0155142D01*
X0102678Y0154062D01*
X0100895Y0153682D01*
X0098510Y0145476D01*
X0068930Y0121202D01*
X0064241Y0119516D01*
X0054807Y0105464D01*
X0053750Y0101595D01*
X0054562Y0097178D01*
X0053395Y0095981D01*
X0047110Y0076876D01*
X0034112Y0062660D01*
X0025812Y0056845D01*
X0023608Y0056254D01*
X0017317Y0055950D01*
X0006765Y0048892D01*
X0008422Y0046661D01*
X0010658Y0046355D01*
X0011316Y0044610D01*
X0010956Y0041106D01*
X0008771Y0034515D01*
D11*
X0038249Y0051866D02*
X0037223Y0054685D01*
X0036284Y0054343D01*
X0037223Y0054685D02*
X0038163Y0055027D01*
X0037223Y0054685D02*
X0036197Y0057505D01*
X0050831Y0058764D02*
X0050831Y0053764D01*
X0053331Y0051264D01*
X0058331Y0051264D01*
X0060831Y0053764D01*
X0060831Y0058764D01*
X0063331Y0061264D01*
X0068331Y0061264D01*
X0070831Y0058764D01*
X0070831Y0053764D01*
X0068331Y0051264D01*
X0063331Y0051264D01*
X0060831Y0053764D01*
X0060831Y0058764D02*
X0058331Y0061264D01*
X0053331Y0061264D01*
X0050831Y0058764D01*
X0064579Y0067937D02*
X0072626Y0067937D01*
X0080626Y0071437D02*
X0080626Y0088437D01*
X0083146Y0083992D02*
X0086146Y0083992D01*
X0086146Y0082992D01*
X0086146Y0083992D02*
X0086146Y0084992D01*
X0086146Y0083992D02*
X0089146Y0083992D01*
X0092989Y0084249D02*
X0093989Y0084249D01*
X0092989Y0084249D02*
X0092989Y0091249D01*
X0093129Y0091251D01*
X0093269Y0091257D01*
X0093409Y0091267D01*
X0093549Y0091280D01*
X0093688Y0091298D01*
X0093827Y0091320D01*
X0093964Y0091345D01*
X0094102Y0091374D01*
X0094238Y0091407D01*
X0094373Y0091444D01*
X0094507Y0091485D01*
X0094640Y0091530D01*
X0094772Y0091578D01*
X0094902Y0091630D01*
X0095031Y0091685D01*
X0095158Y0091744D01*
X0095284Y0091807D01*
X0095408Y0091873D01*
X0095529Y0091942D01*
X0095649Y0092015D01*
X0095767Y0092092D01*
X0095882Y0092171D01*
X0095996Y0092254D01*
X0096106Y0092340D01*
X0096215Y0092429D01*
X0096321Y0092521D01*
X0096424Y0092616D01*
X0096525Y0092713D01*
X0096622Y0092814D01*
X0096717Y0092917D01*
X0096809Y0093023D01*
X0096898Y0093132D01*
X0096984Y0093242D01*
X0097067Y0093356D01*
X0097146Y0093471D01*
X0097223Y0093589D01*
X0097296Y0093709D01*
X0097365Y0093830D01*
X0097431Y0093954D01*
X0097494Y0094080D01*
X0097553Y0094207D01*
X0097608Y0094336D01*
X0097660Y0094466D01*
X0097708Y0094598D01*
X0097753Y0094731D01*
X0097794Y0094865D01*
X0097831Y0095000D01*
X0097864Y0095136D01*
X0097893Y0095274D01*
X0097918Y0095411D01*
X0097940Y0095550D01*
X0097958Y0095689D01*
X0097971Y0095829D01*
X0097981Y0095969D01*
X0097987Y0096109D01*
X0097989Y0096249D01*
X0097987Y0096389D01*
X0097981Y0096529D01*
X0097971Y0096669D01*
X0097958Y0096809D01*
X0097940Y0096948D01*
X0097918Y0097087D01*
X0097893Y0097224D01*
X0097864Y0097362D01*
X0097831Y0097498D01*
X0097794Y0097633D01*
X0097753Y0097767D01*
X0097708Y0097900D01*
X0097660Y0098032D01*
X0097608Y0098162D01*
X0097553Y0098291D01*
X0097494Y0098418D01*
X0097431Y0098544D01*
X0097365Y0098668D01*
X0097296Y0098789D01*
X0097223Y0098909D01*
X0097146Y0099027D01*
X0097067Y0099142D01*
X0096984Y0099256D01*
X0096898Y0099366D01*
X0096809Y0099475D01*
X0096717Y0099581D01*
X0096622Y0099684D01*
X0096525Y0099785D01*
X0096424Y0099882D01*
X0096321Y0099977D01*
X0096215Y0100069D01*
X0096106Y0100158D01*
X0095996Y0100244D01*
X0095882Y0100327D01*
X0095767Y0100406D01*
X0095649Y0100483D01*
X0095529Y0100556D01*
X0095408Y0100625D01*
X0095284Y0100691D01*
X0095158Y0100754D01*
X0095031Y0100813D01*
X0094902Y0100868D01*
X0094772Y0100920D01*
X0094640Y0100968D01*
X0094507Y0101013D01*
X0094373Y0101054D01*
X0094238Y0101091D01*
X0094102Y0101124D01*
X0093964Y0101153D01*
X0093827Y0101178D01*
X0093688Y0101200D01*
X0093549Y0101218D01*
X0093409Y0101231D01*
X0093269Y0101241D01*
X0093129Y0101247D01*
X0092989Y0101249D01*
X0092989Y0108249D01*
X0093989Y0108249D01*
X0113035Y0120086D02*
X0113035Y0123086D01*
X0114035Y0123086D01*
X0113035Y0123086D02*
X0112035Y0123086D01*
X0113035Y0123086D02*
X0113035Y0126086D01*
X0131878Y0123086D02*
X0132878Y0123086D01*
X0133878Y0123086D01*
X0132878Y0123086D02*
X0132878Y0120086D01*
X0132878Y0123086D02*
X0132878Y0126086D01*
X0144957Y0127929D02*
X0147957Y0127929D01*
X0147957Y0128929D01*
X0147957Y0127929D02*
X0147957Y0126929D01*
X0147957Y0127929D02*
X0150957Y0127929D01*
X0171441Y0138165D02*
X0176441Y0138165D01*
X0219913Y0143642D02*
X0219913Y0148642D01*
X0221231Y0148642D02*
X0223731Y0151142D01*
X0238731Y0151142D01*
X0241231Y0148642D01*
X0241231Y0143642D01*
X0238731Y0141142D01*
X0223731Y0141142D01*
X0221231Y0138642D01*
X0221231Y0133642D01*
X0223731Y0131142D01*
X0238731Y0131142D01*
X0241231Y0128642D01*
X0241231Y0123642D01*
X0238731Y0121142D01*
X0223731Y0121142D01*
X0221231Y0123642D01*
X0221231Y0128642D01*
X0223731Y0131142D01*
X0238731Y0131142D02*
X0241231Y0133642D01*
X0241231Y0138642D01*
X0238731Y0141142D01*
X0223731Y0141142D02*
X0221231Y0143642D01*
X0221231Y0148642D01*
X0209042Y0157408D02*
X0203042Y0157408D01*
X0257051Y0143953D02*
X0257051Y0134504D01*
X0281854Y0134504D01*
X0281854Y0143953D01*
X0257051Y0143953D01*
X0257209Y0129779D02*
X0282012Y0129779D01*
X0282012Y0120331D01*
X0257209Y0120331D01*
X0257209Y0129779D01*
X0232989Y0108249D02*
X0231989Y0108249D01*
X0232989Y0108249D02*
X0232989Y0084249D01*
X0231989Y0084249D01*
X0238508Y0077748D02*
X0238508Y0076748D01*
X0238508Y0075748D01*
X0238508Y0076748D02*
X0235508Y0076748D01*
X0238508Y0076748D02*
X0241508Y0076748D01*
X0223788Y0069958D02*
X0223788Y0064958D01*
X0197919Y0064806D02*
X0197919Y0069806D01*
X0176047Y0064149D02*
X0171047Y0064149D01*
X0168552Y0064784D02*
X0165552Y0064784D01*
X0165552Y0063784D01*
X0165552Y0064784D02*
X0165552Y0065784D01*
X0165552Y0064784D02*
X0162552Y0064784D01*
X0148312Y0069645D02*
X0148312Y0072645D01*
X0147312Y0072645D01*
X0148312Y0072645D02*
X0149312Y0072645D01*
X0148312Y0072645D02*
X0148312Y0075645D01*
X0129002Y0073070D02*
X0128002Y0073070D01*
X0127002Y0073070D01*
X0128002Y0073070D02*
X0128002Y0070070D01*
X0128002Y0073070D02*
X0128002Y0076070D01*
X0105555Y0068500D02*
X0105555Y0063500D01*
X0103331Y0061264D02*
X0108331Y0061264D01*
X0110831Y0058764D01*
X0110831Y0053764D01*
X0108331Y0051264D01*
X0103331Y0051264D01*
X0100831Y0053764D01*
X0100831Y0058764D01*
X0103331Y0061264D01*
X0100831Y0058764D02*
X0098331Y0061264D01*
X0093331Y0061264D01*
X0090831Y0058764D01*
X0090831Y0053764D01*
X0088331Y0051264D01*
X0083331Y0051264D01*
X0080831Y0053764D01*
X0080831Y0058764D01*
X0083331Y0061264D01*
X0088331Y0061264D01*
X0090831Y0058764D01*
X0080831Y0058764D02*
X0078331Y0061264D01*
X0073331Y0061264D01*
X0070831Y0058764D01*
X0070831Y0053764D02*
X0073331Y0051264D01*
X0078331Y0051264D01*
X0080831Y0053764D01*
X0090831Y0053764D02*
X0093331Y0051264D01*
X0098331Y0051264D01*
X0100831Y0053764D01*
X0056626Y0071437D02*
X0056626Y0088437D01*
X0064697Y0091937D02*
X0072626Y0091937D01*
X0061626Y0079937D02*
X0061628Y0080109D01*
X0061634Y0080280D01*
X0061645Y0080452D01*
X0061660Y0080623D01*
X0061679Y0080794D01*
X0061702Y0080964D01*
X0061729Y0081134D01*
X0061761Y0081303D01*
X0061796Y0081471D01*
X0061836Y0081638D01*
X0061880Y0081804D01*
X0061927Y0081969D01*
X0061979Y0082133D01*
X0062035Y0082295D01*
X0062095Y0082456D01*
X0062159Y0082616D01*
X0062227Y0082774D01*
X0062298Y0082930D01*
X0062373Y0083084D01*
X0062453Y0083237D01*
X0062535Y0083387D01*
X0062622Y0083536D01*
X0062712Y0083682D01*
X0062806Y0083826D01*
X0062903Y0083968D01*
X0063004Y0084107D01*
X0063108Y0084244D01*
X0063215Y0084378D01*
X0063326Y0084509D01*
X0063439Y0084638D01*
X0063556Y0084764D01*
X0063676Y0084887D01*
X0063799Y0085007D01*
X0063925Y0085124D01*
X0064054Y0085237D01*
X0064185Y0085348D01*
X0064319Y0085455D01*
X0064456Y0085559D01*
X0064595Y0085660D01*
X0064737Y0085757D01*
X0064881Y0085851D01*
X0065027Y0085941D01*
X0065176Y0086028D01*
X0065326Y0086110D01*
X0065479Y0086190D01*
X0065633Y0086265D01*
X0065789Y0086336D01*
X0065947Y0086404D01*
X0066107Y0086468D01*
X0066268Y0086528D01*
X0066430Y0086584D01*
X0066594Y0086636D01*
X0066759Y0086683D01*
X0066925Y0086727D01*
X0067092Y0086767D01*
X0067260Y0086802D01*
X0067429Y0086834D01*
X0067599Y0086861D01*
X0067769Y0086884D01*
X0067940Y0086903D01*
X0068111Y0086918D01*
X0068283Y0086929D01*
X0068454Y0086935D01*
X0068626Y0086937D01*
X0068798Y0086935D01*
X0068969Y0086929D01*
X0069141Y0086918D01*
X0069312Y0086903D01*
X0069483Y0086884D01*
X0069653Y0086861D01*
X0069823Y0086834D01*
X0069992Y0086802D01*
X0070160Y0086767D01*
X0070327Y0086727D01*
X0070493Y0086683D01*
X0070658Y0086636D01*
X0070822Y0086584D01*
X0070984Y0086528D01*
X0071145Y0086468D01*
X0071305Y0086404D01*
X0071463Y0086336D01*
X0071619Y0086265D01*
X0071773Y0086190D01*
X0071926Y0086110D01*
X0072076Y0086028D01*
X0072225Y0085941D01*
X0072371Y0085851D01*
X0072515Y0085757D01*
X0072657Y0085660D01*
X0072796Y0085559D01*
X0072933Y0085455D01*
X0073067Y0085348D01*
X0073198Y0085237D01*
X0073327Y0085124D01*
X0073453Y0085007D01*
X0073576Y0084887D01*
X0073696Y0084764D01*
X0073813Y0084638D01*
X0073926Y0084509D01*
X0074037Y0084378D01*
X0074144Y0084244D01*
X0074248Y0084107D01*
X0074349Y0083968D01*
X0074446Y0083826D01*
X0074540Y0083682D01*
X0074630Y0083536D01*
X0074717Y0083387D01*
X0074799Y0083237D01*
X0074879Y0083084D01*
X0074954Y0082930D01*
X0075025Y0082774D01*
X0075093Y0082616D01*
X0075157Y0082456D01*
X0075217Y0082295D01*
X0075273Y0082133D01*
X0075325Y0081969D01*
X0075372Y0081804D01*
X0075416Y0081638D01*
X0075456Y0081471D01*
X0075491Y0081303D01*
X0075523Y0081134D01*
X0075550Y0080964D01*
X0075573Y0080794D01*
X0075592Y0080623D01*
X0075607Y0080452D01*
X0075618Y0080280D01*
X0075624Y0080109D01*
X0075626Y0079937D01*
X0075624Y0079765D01*
X0075618Y0079594D01*
X0075607Y0079422D01*
X0075592Y0079251D01*
X0075573Y0079080D01*
X0075550Y0078910D01*
X0075523Y0078740D01*
X0075491Y0078571D01*
X0075456Y0078403D01*
X0075416Y0078236D01*
X0075372Y0078070D01*
X0075325Y0077905D01*
X0075273Y0077741D01*
X0075217Y0077579D01*
X0075157Y0077418D01*
X0075093Y0077258D01*
X0075025Y0077100D01*
X0074954Y0076944D01*
X0074879Y0076790D01*
X0074799Y0076637D01*
X0074717Y0076487D01*
X0074630Y0076338D01*
X0074540Y0076192D01*
X0074446Y0076048D01*
X0074349Y0075906D01*
X0074248Y0075767D01*
X0074144Y0075630D01*
X0074037Y0075496D01*
X0073926Y0075365D01*
X0073813Y0075236D01*
X0073696Y0075110D01*
X0073576Y0074987D01*
X0073453Y0074867D01*
X0073327Y0074750D01*
X0073198Y0074637D01*
X0073067Y0074526D01*
X0072933Y0074419D01*
X0072796Y0074315D01*
X0072657Y0074214D01*
X0072515Y0074117D01*
X0072371Y0074023D01*
X0072225Y0073933D01*
X0072076Y0073846D01*
X0071926Y0073764D01*
X0071773Y0073684D01*
X0071619Y0073609D01*
X0071463Y0073538D01*
X0071305Y0073470D01*
X0071145Y0073406D01*
X0070984Y0073346D01*
X0070822Y0073290D01*
X0070658Y0073238D01*
X0070493Y0073191D01*
X0070327Y0073147D01*
X0070160Y0073107D01*
X0069992Y0073072D01*
X0069823Y0073040D01*
X0069653Y0073013D01*
X0069483Y0072990D01*
X0069312Y0072971D01*
X0069141Y0072956D01*
X0068969Y0072945D01*
X0068798Y0072939D01*
X0068626Y0072937D01*
X0068454Y0072939D01*
X0068283Y0072945D01*
X0068111Y0072956D01*
X0067940Y0072971D01*
X0067769Y0072990D01*
X0067599Y0073013D01*
X0067429Y0073040D01*
X0067260Y0073072D01*
X0067092Y0073107D01*
X0066925Y0073147D01*
X0066759Y0073191D01*
X0066594Y0073238D01*
X0066430Y0073290D01*
X0066268Y0073346D01*
X0066107Y0073406D01*
X0065947Y0073470D01*
X0065789Y0073538D01*
X0065633Y0073609D01*
X0065479Y0073684D01*
X0065326Y0073764D01*
X0065176Y0073846D01*
X0065027Y0073933D01*
X0064881Y0074023D01*
X0064737Y0074117D01*
X0064595Y0074214D01*
X0064456Y0074315D01*
X0064319Y0074419D01*
X0064185Y0074526D01*
X0064054Y0074637D01*
X0063925Y0074750D01*
X0063799Y0074867D01*
X0063676Y0074987D01*
X0063556Y0075110D01*
X0063439Y0075236D01*
X0063326Y0075365D01*
X0063215Y0075496D01*
X0063108Y0075630D01*
X0063004Y0075767D01*
X0062903Y0075906D01*
X0062806Y0076048D01*
X0062712Y0076192D01*
X0062622Y0076338D01*
X0062535Y0076487D01*
X0062453Y0076637D01*
X0062373Y0076790D01*
X0062298Y0076944D01*
X0062227Y0077100D01*
X0062159Y0077258D01*
X0062095Y0077418D01*
X0062035Y0077579D01*
X0061979Y0077741D01*
X0061927Y0077905D01*
X0061880Y0078070D01*
X0061836Y0078236D01*
X0061796Y0078403D01*
X0061761Y0078571D01*
X0061729Y0078740D01*
X0061702Y0078910D01*
X0061679Y0079080D01*
X0061660Y0079251D01*
X0061645Y0079422D01*
X0061634Y0079594D01*
X0061628Y0079765D01*
X0061626Y0079937D01*
X0118468Y0091131D02*
X0118468Y0100580D01*
X0143271Y0100580D01*
X0143271Y0091131D01*
X0118468Y0091131D01*
X0166549Y0091131D02*
X0191352Y0091131D01*
X0191352Y0100580D01*
X0166549Y0100580D01*
X0166549Y0091131D01*
X0280599Y0058436D02*
X0281599Y0058436D01*
X0282599Y0058436D01*
X0281599Y0058436D02*
X0281599Y0061436D01*
X0281599Y0058436D02*
X0281599Y0055436D01*
X0297078Y0071393D02*
X0300078Y0071393D01*
X0300078Y0070393D01*
X0300078Y0071393D02*
X0300078Y0072393D01*
X0300078Y0071393D02*
X0303078Y0071393D01*
X0328027Y0107097D02*
X0335704Y0107097D01*
X0335704Y0109066D01*
X0343578Y0109066D01*
X0343578Y0107097D01*
X0351255Y0107097D01*
X0351255Y0124814D01*
X0328027Y0124814D01*
X0328027Y0107097D01*
D12*
X0340213Y0102092D02*
X0340780Y0101525D01*
X0341347Y0101525D01*
X0341915Y0102092D01*
X0341915Y0104928D01*
X0342482Y0104928D02*
X0341347Y0104928D01*
X0343896Y0104928D02*
X0345598Y0104928D01*
X0346165Y0104361D01*
X0346165Y0103226D01*
X0345598Y0102659D01*
X0343896Y0102659D01*
X0343896Y0101525D02*
X0343896Y0104928D01*
X0347579Y0104361D02*
X0348147Y0104928D01*
X0349281Y0104928D01*
X0349848Y0104361D01*
X0349848Y0103794D01*
X0349281Y0103226D01*
X0349848Y0102659D01*
X0349848Y0102092D01*
X0349281Y0101525D01*
X0348147Y0101525D01*
X0347579Y0102092D01*
X0348714Y0103226D02*
X0349281Y0103226D01*
X0309075Y0111264D02*
X0308075Y0111264D01*
X0308075Y0110264D01*
X0308075Y0111264D02*
X0307075Y0111264D01*
X0308075Y0111264D02*
X0308075Y0112264D01*
X0293075Y0105764D02*
X0293078Y0106009D01*
X0293087Y0106255D01*
X0293102Y0106500D01*
X0293123Y0106744D01*
X0293150Y0106988D01*
X0293183Y0107231D01*
X0293222Y0107474D01*
X0293267Y0107715D01*
X0293318Y0107955D01*
X0293375Y0108194D01*
X0293437Y0108431D01*
X0293506Y0108667D01*
X0293580Y0108901D01*
X0293660Y0109133D01*
X0293745Y0109363D01*
X0293836Y0109591D01*
X0293933Y0109816D01*
X0294035Y0110040D01*
X0294143Y0110260D01*
X0294256Y0110478D01*
X0294374Y0110693D01*
X0294498Y0110905D01*
X0294626Y0111114D01*
X0294760Y0111320D01*
X0294899Y0111522D01*
X0295043Y0111721D01*
X0295192Y0111916D01*
X0295345Y0112108D01*
X0295503Y0112296D01*
X0295665Y0112480D01*
X0295833Y0112659D01*
X0296004Y0112835D01*
X0296180Y0113006D01*
X0296359Y0113174D01*
X0296543Y0113336D01*
X0296731Y0113494D01*
X0296923Y0113647D01*
X0297118Y0113796D01*
X0297317Y0113940D01*
X0297519Y0114079D01*
X0297725Y0114213D01*
X0297934Y0114341D01*
X0298146Y0114465D01*
X0298361Y0114583D01*
X0298579Y0114696D01*
X0298799Y0114804D01*
X0299023Y0114906D01*
X0299248Y0115003D01*
X0299476Y0115094D01*
X0299706Y0115179D01*
X0299938Y0115259D01*
X0300172Y0115333D01*
X0300408Y0115402D01*
X0300645Y0115464D01*
X0300884Y0115521D01*
X0301124Y0115572D01*
X0301365Y0115617D01*
X0301608Y0115656D01*
X0301851Y0115689D01*
X0302095Y0115716D01*
X0302339Y0115737D01*
X0302584Y0115752D01*
X0302830Y0115761D01*
X0303075Y0115764D01*
X0303320Y0115761D01*
X0303566Y0115752D01*
X0303811Y0115737D01*
X0304055Y0115716D01*
X0304299Y0115689D01*
X0304542Y0115656D01*
X0304785Y0115617D01*
X0305026Y0115572D01*
X0305266Y0115521D01*
X0305505Y0115464D01*
X0305742Y0115402D01*
X0305978Y0115333D01*
X0306212Y0115259D01*
X0306444Y0115179D01*
X0306674Y0115094D01*
X0306902Y0115003D01*
X0307127Y0114906D01*
X0307351Y0114804D01*
X0307571Y0114696D01*
X0307789Y0114583D01*
X0308004Y0114465D01*
X0308216Y0114341D01*
X0308425Y0114213D01*
X0308631Y0114079D01*
X0308833Y0113940D01*
X0309032Y0113796D01*
X0309227Y0113647D01*
X0309419Y0113494D01*
X0309607Y0113336D01*
X0309791Y0113174D01*
X0309970Y0113006D01*
X0310146Y0112835D01*
X0310317Y0112659D01*
X0310485Y0112480D01*
X0310647Y0112296D01*
X0310805Y0112108D01*
X0310958Y0111916D01*
X0311107Y0111721D01*
X0311251Y0111522D01*
X0311390Y0111320D01*
X0311524Y0111114D01*
X0311652Y0110905D01*
X0311776Y0110693D01*
X0311894Y0110478D01*
X0312007Y0110260D01*
X0312115Y0110040D01*
X0312217Y0109816D01*
X0312314Y0109591D01*
X0312405Y0109363D01*
X0312490Y0109133D01*
X0312570Y0108901D01*
X0312644Y0108667D01*
X0312713Y0108431D01*
X0312775Y0108194D01*
X0312832Y0107955D01*
X0312883Y0107715D01*
X0312928Y0107474D01*
X0312967Y0107231D01*
X0313000Y0106988D01*
X0313027Y0106744D01*
X0313048Y0106500D01*
X0313063Y0106255D01*
X0313072Y0106009D01*
X0313075Y0105764D01*
X0313072Y0105519D01*
X0313063Y0105273D01*
X0313048Y0105028D01*
X0313027Y0104784D01*
X0313000Y0104540D01*
X0312967Y0104297D01*
X0312928Y0104054D01*
X0312883Y0103813D01*
X0312832Y0103573D01*
X0312775Y0103334D01*
X0312713Y0103097D01*
X0312644Y0102861D01*
X0312570Y0102627D01*
X0312490Y0102395D01*
X0312405Y0102165D01*
X0312314Y0101937D01*
X0312217Y0101712D01*
X0312115Y0101488D01*
X0312007Y0101268D01*
X0311894Y0101050D01*
X0311776Y0100835D01*
X0311652Y0100623D01*
X0311524Y0100414D01*
X0311390Y0100208D01*
X0311251Y0100006D01*
X0311107Y0099807D01*
X0310958Y0099612D01*
X0310805Y0099420D01*
X0310647Y0099232D01*
X0310485Y0099048D01*
X0310317Y0098869D01*
X0310146Y0098693D01*
X0309970Y0098522D01*
X0309791Y0098354D01*
X0309607Y0098192D01*
X0309419Y0098034D01*
X0309227Y0097881D01*
X0309032Y0097732D01*
X0308833Y0097588D01*
X0308631Y0097449D01*
X0308425Y0097315D01*
X0308216Y0097187D01*
X0308004Y0097063D01*
X0307789Y0096945D01*
X0307571Y0096832D01*
X0307351Y0096724D01*
X0307127Y0096622D01*
X0306902Y0096525D01*
X0306674Y0096434D01*
X0306444Y0096349D01*
X0306212Y0096269D01*
X0305978Y0096195D01*
X0305742Y0096126D01*
X0305505Y0096064D01*
X0305266Y0096007D01*
X0305026Y0095956D01*
X0304785Y0095911D01*
X0304542Y0095872D01*
X0304299Y0095839D01*
X0304055Y0095812D01*
X0303811Y0095791D01*
X0303566Y0095776D01*
X0303320Y0095767D01*
X0303075Y0095764D01*
X0302830Y0095767D01*
X0302584Y0095776D01*
X0302339Y0095791D01*
X0302095Y0095812D01*
X0301851Y0095839D01*
X0301608Y0095872D01*
X0301365Y0095911D01*
X0301124Y0095956D01*
X0300884Y0096007D01*
X0300645Y0096064D01*
X0300408Y0096126D01*
X0300172Y0096195D01*
X0299938Y0096269D01*
X0299706Y0096349D01*
X0299476Y0096434D01*
X0299248Y0096525D01*
X0299023Y0096622D01*
X0298799Y0096724D01*
X0298579Y0096832D01*
X0298361Y0096945D01*
X0298146Y0097063D01*
X0297934Y0097187D01*
X0297725Y0097315D01*
X0297519Y0097449D01*
X0297317Y0097588D01*
X0297118Y0097732D01*
X0296923Y0097881D01*
X0296731Y0098034D01*
X0296543Y0098192D01*
X0296359Y0098354D01*
X0296180Y0098522D01*
X0296004Y0098693D01*
X0295833Y0098869D01*
X0295665Y0099048D01*
X0295503Y0099232D01*
X0295345Y0099420D01*
X0295192Y0099612D01*
X0295043Y0099807D01*
X0294899Y0100006D01*
X0294760Y0100208D01*
X0294626Y0100414D01*
X0294498Y0100623D01*
X0294374Y0100835D01*
X0294256Y0101050D01*
X0294143Y0101268D01*
X0294035Y0101488D01*
X0293933Y0101712D01*
X0293836Y0101937D01*
X0293745Y0102165D01*
X0293660Y0102395D01*
X0293580Y0102627D01*
X0293506Y0102861D01*
X0293437Y0103097D01*
X0293375Y0103334D01*
X0293318Y0103573D01*
X0293267Y0103813D01*
X0293222Y0104054D01*
X0293183Y0104297D01*
X0293150Y0104540D01*
X0293123Y0104784D01*
X0293102Y0105028D01*
X0293087Y0105273D01*
X0293078Y0105519D01*
X0293075Y0105764D01*
X0254687Y0116142D02*
X0252419Y0116142D01*
X0253553Y0116142D02*
X0253553Y0119545D01*
X0252419Y0118410D01*
X0251004Y0117843D02*
X0250437Y0117276D01*
X0248736Y0117276D01*
X0249870Y0117276D02*
X0251004Y0116142D01*
X0251004Y0117843D02*
X0251004Y0118977D01*
X0250437Y0119545D01*
X0248736Y0119545D01*
X0248736Y0116142D01*
X0219042Y0117408D02*
X0209042Y0117408D01*
X0189042Y0117408D01*
X0179042Y0117408D01*
X0179042Y0157408D01*
X0189042Y0157408D01*
X0195042Y0157408D01*
X0195044Y0157282D01*
X0195050Y0157157D01*
X0195060Y0157032D01*
X0195074Y0156907D01*
X0195091Y0156782D01*
X0195113Y0156658D01*
X0195138Y0156535D01*
X0195168Y0156413D01*
X0195201Y0156292D01*
X0195238Y0156172D01*
X0195278Y0156053D01*
X0195323Y0155936D01*
X0195371Y0155819D01*
X0195423Y0155705D01*
X0195478Y0155592D01*
X0195537Y0155481D01*
X0195599Y0155372D01*
X0195665Y0155265D01*
X0195734Y0155160D01*
X0195806Y0155057D01*
X0195881Y0154956D01*
X0195960Y0154858D01*
X0196042Y0154763D01*
X0196126Y0154670D01*
X0196214Y0154580D01*
X0196304Y0154492D01*
X0196397Y0154408D01*
X0196492Y0154326D01*
X0196590Y0154247D01*
X0196691Y0154172D01*
X0196794Y0154100D01*
X0196899Y0154031D01*
X0197006Y0153965D01*
X0197115Y0153903D01*
X0197226Y0153844D01*
X0197339Y0153789D01*
X0197453Y0153737D01*
X0197570Y0153689D01*
X0197687Y0153644D01*
X0197806Y0153604D01*
X0197926Y0153567D01*
X0198047Y0153534D01*
X0198169Y0153504D01*
X0198292Y0153479D01*
X0198416Y0153457D01*
X0198541Y0153440D01*
X0198666Y0153426D01*
X0198791Y0153416D01*
X0198916Y0153410D01*
X0199042Y0153408D01*
X0199168Y0153410D01*
X0199293Y0153416D01*
X0199418Y0153426D01*
X0199543Y0153440D01*
X0199668Y0153457D01*
X0199792Y0153479D01*
X0199915Y0153504D01*
X0200037Y0153534D01*
X0200158Y0153567D01*
X0200278Y0153604D01*
X0200397Y0153644D01*
X0200514Y0153689D01*
X0200631Y0153737D01*
X0200745Y0153789D01*
X0200858Y0153844D01*
X0200969Y0153903D01*
X0201078Y0153965D01*
X0201185Y0154031D01*
X0201290Y0154100D01*
X0201393Y0154172D01*
X0201494Y0154247D01*
X0201592Y0154326D01*
X0201687Y0154408D01*
X0201780Y0154492D01*
X0201870Y0154580D01*
X0201958Y0154670D01*
X0202042Y0154763D01*
X0202124Y0154858D01*
X0202203Y0154956D01*
X0202278Y0155057D01*
X0202350Y0155160D01*
X0202419Y0155265D01*
X0202485Y0155372D01*
X0202547Y0155481D01*
X0202606Y0155592D01*
X0202661Y0155705D01*
X0202713Y0155819D01*
X0202761Y0155936D01*
X0202806Y0156053D01*
X0202846Y0156172D01*
X0202883Y0156292D01*
X0202916Y0156413D01*
X0202946Y0156535D01*
X0202971Y0156658D01*
X0202993Y0156782D01*
X0203010Y0156907D01*
X0203024Y0157032D01*
X0203034Y0157157D01*
X0203040Y0157282D01*
X0203042Y0157408D01*
X0209042Y0157408D02*
X0209042Y0117408D01*
X0219042Y0117408D02*
X0219042Y0157408D01*
X0209042Y0157408D01*
X0222279Y0152944D02*
X0222846Y0152377D01*
X0223413Y0152377D01*
X0223981Y0152944D01*
X0223981Y0155780D01*
X0224548Y0155780D02*
X0223413Y0155780D01*
X0225962Y0154646D02*
X0227097Y0155780D01*
X0227097Y0152377D01*
X0228231Y0152377D02*
X0225962Y0152377D01*
X0189042Y0157408D02*
X0189042Y0117408D01*
X0164539Y0137178D02*
X0162270Y0137178D01*
X0163405Y0137178D02*
X0163405Y0140581D01*
X0162270Y0139446D01*
X0160856Y0140014D02*
X0160856Y0137745D01*
X0160289Y0137178D01*
X0158587Y0137178D01*
X0158587Y0140581D01*
X0160289Y0140581D01*
X0160856Y0140014D01*
X0151584Y0140545D02*
X0151016Y0139978D01*
X0151584Y0139411D01*
X0151584Y0138843D01*
X0151016Y0138276D01*
X0149882Y0138276D01*
X0149315Y0138843D01*
X0147900Y0138276D02*
X0146766Y0139411D01*
X0147333Y0139411D02*
X0145632Y0139411D01*
X0145632Y0138276D02*
X0145632Y0141679D01*
X0147333Y0141679D01*
X0147900Y0141112D01*
X0147900Y0139978D01*
X0147333Y0139411D01*
X0149315Y0141112D02*
X0149882Y0141679D01*
X0151016Y0141679D01*
X0151584Y0141112D01*
X0151584Y0140545D01*
X0151016Y0139978D02*
X0150449Y0139978D01*
X0142763Y0138334D02*
X0142763Y0137200D01*
X0142196Y0136632D01*
X0139927Y0138901D01*
X0142196Y0138901D01*
X0142763Y0138334D01*
X0142196Y0136632D02*
X0139927Y0136632D01*
X0139360Y0137200D01*
X0139360Y0138334D01*
X0139927Y0138901D01*
X0139927Y0135218D02*
X0139360Y0134651D01*
X0139360Y0133516D01*
X0139927Y0132949D01*
X0139927Y0131535D02*
X0139360Y0130968D01*
X0139360Y0129833D01*
X0139927Y0129266D01*
X0139927Y0131535D02*
X0140494Y0131535D01*
X0142763Y0129266D01*
X0142763Y0131535D01*
X0142763Y0132949D02*
X0140494Y0135218D01*
X0139927Y0135218D01*
X0142763Y0135218D02*
X0142763Y0132949D01*
X0136626Y0131555D02*
X0134358Y0131555D01*
X0134358Y0129854D01*
X0135492Y0130421D01*
X0136059Y0130421D01*
X0136626Y0129854D01*
X0136626Y0128720D01*
X0136059Y0128152D01*
X0134925Y0128152D01*
X0134358Y0128720D01*
X0132943Y0128152D02*
X0130675Y0128152D01*
X0131809Y0128152D02*
X0131809Y0131555D01*
X0130675Y0130421D01*
X0129260Y0129854D02*
X0128693Y0129287D01*
X0126991Y0129287D01*
X0126991Y0128152D02*
X0126991Y0131555D01*
X0128693Y0131555D01*
X0129260Y0130988D01*
X0129260Y0129854D01*
X0128126Y0129287D02*
X0129260Y0128152D01*
X0129265Y0133390D02*
X0126997Y0133390D01*
X0128131Y0133390D02*
X0128131Y0136793D01*
X0126997Y0135659D01*
X0130680Y0136793D02*
X0130680Y0133390D01*
X0132949Y0133390D02*
X0132949Y0136793D01*
X0131814Y0135659D01*
X0130680Y0136793D01*
X0102672Y0127120D02*
X0100404Y0124851D01*
X0100971Y0124284D01*
X0102105Y0124284D01*
X0102672Y0124851D01*
X0102672Y0127120D01*
X0102105Y0127687D01*
X0100971Y0127687D01*
X0100404Y0127120D01*
X0100404Y0124851D01*
X0098989Y0124284D02*
X0096721Y0124284D01*
X0097855Y0124284D02*
X0097855Y0127687D01*
X0096721Y0126553D01*
X0095306Y0127120D02*
X0095306Y0125986D01*
X0094739Y0125418D01*
X0093037Y0125418D01*
X0093037Y0124284D02*
X0093037Y0127687D01*
X0094739Y0127687D01*
X0095306Y0127120D01*
X0094172Y0125418D02*
X0095306Y0124284D01*
X0097930Y0122628D02*
X0097930Y0119225D01*
X0096796Y0119225D02*
X0099065Y0119225D01*
X0100479Y0119225D02*
X0100479Y0122628D01*
X0101613Y0121494D01*
X0102748Y0122628D01*
X0102748Y0119225D01*
X0097930Y0122628D02*
X0096796Y0121494D01*
X0086472Y0102927D02*
X0085337Y0101225D01*
X0084203Y0102927D01*
X0083069Y0101225D02*
X0086472Y0101225D01*
X0085905Y0099811D02*
X0086472Y0099243D01*
X0086472Y0098109D01*
X0085905Y0097542D01*
X0083636Y0099811D01*
X0085905Y0099811D01*
X0087688Y0100159D02*
X0088255Y0099025D01*
X0089389Y0097891D01*
X0089389Y0099592D01*
X0089957Y0100159D01*
X0090524Y0100159D01*
X0091091Y0099592D01*
X0091091Y0098458D01*
X0090524Y0097891D01*
X0089389Y0097891D01*
X0089389Y0096476D02*
X0089957Y0095909D01*
X0089957Y0094208D01*
X0091091Y0094208D02*
X0087688Y0094208D01*
X0087688Y0095909D01*
X0088255Y0096476D01*
X0089389Y0096476D01*
X0089957Y0095342D02*
X0091091Y0096476D01*
X0086472Y0096127D02*
X0086472Y0093859D01*
X0086472Y0094993D02*
X0083069Y0094993D01*
X0084203Y0093859D01*
X0083636Y0097542D02*
X0083069Y0098109D01*
X0083069Y0099243D01*
X0083636Y0099811D01*
X0083636Y0097542D02*
X0085905Y0097542D01*
X0054485Y0075730D02*
X0054485Y0073461D01*
X0054485Y0074596D02*
X0051082Y0074596D01*
X0052216Y0073461D01*
X0051649Y0072047D02*
X0051082Y0071480D01*
X0051082Y0070345D01*
X0051649Y0069778D01*
X0052216Y0069778D01*
X0052783Y0070345D01*
X0052783Y0071480D01*
X0053350Y0072047D01*
X0053917Y0072047D01*
X0054485Y0071480D01*
X0054485Y0070345D01*
X0053917Y0069778D01*
X0049306Y0067929D02*
X0047174Y0067153D01*
X0048191Y0069333D01*
X0049355Y0066136D01*
X0050137Y0064979D02*
X0049071Y0064591D01*
X0048732Y0063864D01*
X0047403Y0063380D02*
X0046676Y0063719D01*
X0045610Y0063331D01*
X0045271Y0062604D01*
X0044295Y0064294D02*
X0043131Y0067492D01*
X0044730Y0068074D01*
X0045457Y0067735D01*
X0045845Y0066669D01*
X0045506Y0065942D01*
X0043907Y0065360D01*
X0044973Y0065748D02*
X0046427Y0065070D01*
X0047403Y0063380D02*
X0047597Y0062847D01*
X0046241Y0059939D01*
X0048373Y0060715D01*
X0049702Y0061199D02*
X0051058Y0064107D01*
X0050864Y0064640D01*
X0050137Y0064979D01*
X0052193Y0065124D02*
X0052532Y0065851D01*
X0053598Y0066238D01*
X0054325Y0065899D01*
X0052969Y0062992D01*
X0053696Y0062653D01*
X0054762Y0063041D01*
X0055101Y0063768D01*
X0054325Y0065899D01*
X0052193Y0065124D02*
X0052969Y0062992D01*
X0051834Y0061975D02*
X0049702Y0061199D01*
X0038019Y0047633D02*
X0037002Y0045453D01*
X0039134Y0046228D01*
X0039182Y0044436D02*
X0038019Y0047633D01*
X0035285Y0046035D02*
X0034558Y0046374D01*
X0032959Y0045792D01*
X0034123Y0042594D01*
X0035721Y0043176D01*
X0036060Y0043903D01*
X0035285Y0046035D01*
X0082272Y0062780D02*
X0082272Y0066183D01*
X0084540Y0066183D01*
X0085955Y0066183D02*
X0088223Y0066183D01*
X0087089Y0066183D02*
X0087089Y0062780D01*
X0089638Y0062780D02*
X0089638Y0066183D01*
X0091339Y0066183D01*
X0091906Y0065616D01*
X0091906Y0063347D01*
X0091339Y0062780D01*
X0089638Y0062780D01*
X0093321Y0062780D02*
X0094455Y0062780D01*
X0093888Y0062780D02*
X0093888Y0066183D01*
X0093321Y0066183D02*
X0094455Y0066183D01*
X0083406Y0064482D02*
X0082272Y0064482D01*
X0106232Y0070794D02*
X0106799Y0070227D01*
X0107933Y0070227D01*
X0108500Y0070794D01*
X0109915Y0070794D02*
X0110482Y0070227D01*
X0111616Y0070227D01*
X0112183Y0070794D01*
X0112183Y0071928D01*
X0111616Y0072495D01*
X0111049Y0072495D01*
X0109915Y0071928D01*
X0109915Y0073629D01*
X0112183Y0073629D01*
X0108500Y0073062D02*
X0107933Y0073629D01*
X0106799Y0073629D01*
X0106232Y0073062D01*
X0106232Y0070794D01*
X0119949Y0068640D02*
X0119949Y0065237D01*
X0119949Y0066371D02*
X0121651Y0066371D01*
X0122218Y0066938D01*
X0122218Y0068072D01*
X0121651Y0068640D01*
X0119949Y0068640D01*
X0121084Y0066371D02*
X0122218Y0065237D01*
X0123633Y0065237D02*
X0125901Y0065237D01*
X0124767Y0065237D02*
X0124767Y0068640D01*
X0123633Y0067505D01*
X0127316Y0068072D02*
X0127883Y0068640D01*
X0129017Y0068640D01*
X0129584Y0068072D01*
X0129584Y0067505D01*
X0129017Y0066938D01*
X0129584Y0066371D01*
X0129584Y0065804D01*
X0129017Y0065237D01*
X0127883Y0065237D01*
X0127316Y0065804D01*
X0128450Y0066938D02*
X0129017Y0066938D01*
X0148304Y0065989D02*
X0150005Y0065989D01*
X0150572Y0066556D01*
X0150572Y0067690D01*
X0150005Y0068257D01*
X0148304Y0068257D01*
X0148304Y0064855D01*
X0149438Y0065989D02*
X0150572Y0064855D01*
X0151987Y0064855D02*
X0154255Y0064855D01*
X0153121Y0064855D02*
X0153121Y0068257D01*
X0151987Y0067123D01*
X0155670Y0067690D02*
X0156237Y0068257D01*
X0157371Y0068257D01*
X0157939Y0067690D01*
X0157939Y0067123D01*
X0155670Y0064855D01*
X0157939Y0064855D01*
X0157944Y0055203D02*
X0157944Y0052268D01*
X0160146Y0052268D01*
X0159412Y0053735D01*
X0159412Y0054469D01*
X0160146Y0055203D01*
X0161614Y0055203D01*
X0162348Y0054469D01*
X0162348Y0053002D01*
X0161614Y0052268D01*
X0161614Y0050599D02*
X0158678Y0050599D01*
X0157944Y0049865D01*
X0157944Y0047664D01*
X0162348Y0047664D01*
X0162348Y0049865D01*
X0161614Y0050599D01*
X0180046Y0054746D02*
X0180046Y0056448D01*
X0180613Y0057015D01*
X0181747Y0057015D01*
X0182314Y0056448D01*
X0182314Y0054746D01*
X0182314Y0055880D02*
X0183449Y0057015D01*
X0183449Y0058429D02*
X0183449Y0060698D01*
X0183449Y0059564D02*
X0180046Y0059564D01*
X0181180Y0058429D01*
X0185144Y0058822D02*
X0185711Y0058254D01*
X0185144Y0058822D02*
X0185144Y0059956D01*
X0185711Y0060523D01*
X0186278Y0060523D01*
X0188546Y0058254D01*
X0188546Y0060523D01*
X0183449Y0062112D02*
X0183449Y0064381D01*
X0183449Y0063247D02*
X0180046Y0063247D01*
X0181180Y0062112D01*
X0181167Y0065797D02*
X0180033Y0066931D01*
X0183436Y0066931D01*
X0183436Y0065797D02*
X0183436Y0068065D01*
X0183436Y0069480D02*
X0180033Y0069480D01*
X0181734Y0070047D02*
X0183436Y0071748D01*
X0182869Y0073163D02*
X0183436Y0073730D01*
X0183436Y0074864D01*
X0182869Y0075431D01*
X0181734Y0075431D01*
X0181167Y0074864D01*
X0181167Y0074297D01*
X0181734Y0073163D01*
X0180033Y0073163D01*
X0180033Y0075431D01*
X0180033Y0071748D02*
X0182301Y0069480D01*
X0195184Y0071663D02*
X0195184Y0073931D01*
X0195751Y0074499D01*
X0196885Y0074499D01*
X0197452Y0073931D01*
X0198867Y0073931D02*
X0198867Y0073364D01*
X0199434Y0072797D01*
X0200568Y0072797D01*
X0201136Y0072230D01*
X0201136Y0071663D01*
X0200568Y0071096D01*
X0199434Y0071096D01*
X0198867Y0071663D01*
X0198867Y0072230D01*
X0199434Y0072797D01*
X0200568Y0072797D02*
X0201136Y0073364D01*
X0201136Y0073931D01*
X0200568Y0074499D01*
X0199434Y0074499D01*
X0198867Y0073931D01*
X0197452Y0071663D02*
X0196885Y0071096D01*
X0195751Y0071096D01*
X0195184Y0071663D01*
X0205503Y0059629D02*
X0228503Y0059629D01*
X0219503Y0056129D02*
X0219503Y0052629D01*
X0222003Y0052629D01*
X0219503Y0052629D02*
X0219503Y0049129D01*
X0218003Y0049129D02*
X0218003Y0056129D01*
X0216003Y0056129D01*
X0216003Y0049129D01*
X0218003Y0049129D01*
X0214503Y0049129D02*
X0214503Y0052629D01*
X0212003Y0052629D01*
X0214503Y0052629D02*
X0214503Y0056129D01*
X0205503Y0059629D02*
X0205333Y0059627D01*
X0205162Y0059621D01*
X0204992Y0059610D01*
X0204822Y0059596D01*
X0204653Y0059577D01*
X0204484Y0059554D01*
X0204315Y0059528D01*
X0204148Y0059497D01*
X0203981Y0059462D01*
X0203815Y0059422D01*
X0203650Y0059379D01*
X0203486Y0059332D01*
X0203324Y0059281D01*
X0203162Y0059226D01*
X0203002Y0059167D01*
X0202844Y0059104D01*
X0202687Y0059038D01*
X0202532Y0058967D01*
X0202378Y0058893D01*
X0202227Y0058815D01*
X0202077Y0058733D01*
X0201929Y0058648D01*
X0201784Y0058559D01*
X0201641Y0058467D01*
X0201500Y0058371D01*
X0201361Y0058272D01*
X0201225Y0058169D01*
X0201091Y0058064D01*
X0200960Y0057955D01*
X0200832Y0057842D01*
X0200706Y0057727D01*
X0200583Y0057609D01*
X0200464Y0057488D01*
X0200347Y0057363D01*
X0200233Y0057236D01*
X0200122Y0057107D01*
X0200015Y0056974D01*
X0199911Y0056839D01*
X0199810Y0056702D01*
X0199712Y0056562D01*
X0199618Y0056420D01*
X0199528Y0056276D01*
X0199441Y0056129D01*
X0199357Y0055980D01*
X0199278Y0055830D01*
X0199202Y0055677D01*
X0199129Y0055523D01*
X0199061Y0055367D01*
X0198996Y0055209D01*
X0198935Y0055050D01*
X0198878Y0054889D01*
X0198825Y0054727D01*
X0198776Y0054564D01*
X0198731Y0054400D01*
X0198690Y0054234D01*
X0198652Y0054068D01*
X0198619Y0053900D01*
X0198591Y0053732D01*
X0198566Y0053564D01*
X0198545Y0053395D01*
X0198528Y0053225D01*
X0198516Y0053055D01*
X0198508Y0052885D01*
X0198504Y0052714D01*
X0198504Y0052544D01*
X0198508Y0052373D01*
X0198516Y0052203D01*
X0198528Y0052033D01*
X0198545Y0051863D01*
X0198566Y0051694D01*
X0198591Y0051526D01*
X0198619Y0051358D01*
X0198652Y0051190D01*
X0198690Y0051024D01*
X0198731Y0050858D01*
X0198776Y0050694D01*
X0198825Y0050531D01*
X0198878Y0050369D01*
X0198935Y0050208D01*
X0198996Y0050049D01*
X0199061Y0049891D01*
X0199129Y0049735D01*
X0199202Y0049581D01*
X0199278Y0049428D01*
X0199357Y0049278D01*
X0199441Y0049129D01*
X0199528Y0048982D01*
X0199618Y0048838D01*
X0199712Y0048696D01*
X0199810Y0048556D01*
X0199911Y0048419D01*
X0200015Y0048284D01*
X0200122Y0048151D01*
X0200233Y0048022D01*
X0200347Y0047895D01*
X0200464Y0047770D01*
X0200583Y0047649D01*
X0200706Y0047531D01*
X0200832Y0047416D01*
X0200960Y0047303D01*
X0201091Y0047194D01*
X0201225Y0047089D01*
X0201361Y0046986D01*
X0201500Y0046887D01*
X0201641Y0046791D01*
X0201784Y0046699D01*
X0201929Y0046610D01*
X0202077Y0046525D01*
X0202227Y0046443D01*
X0202378Y0046365D01*
X0202532Y0046291D01*
X0202687Y0046220D01*
X0202844Y0046154D01*
X0203002Y0046091D01*
X0203162Y0046032D01*
X0203324Y0045977D01*
X0203486Y0045926D01*
X0203650Y0045879D01*
X0203815Y0045836D01*
X0203981Y0045796D01*
X0204148Y0045761D01*
X0204315Y0045730D01*
X0204484Y0045704D01*
X0204653Y0045681D01*
X0204822Y0045662D01*
X0204992Y0045648D01*
X0205162Y0045637D01*
X0205333Y0045631D01*
X0205503Y0045629D01*
X0228503Y0045629D01*
X0228673Y0045631D01*
X0228844Y0045637D01*
X0229014Y0045648D01*
X0229184Y0045662D01*
X0229353Y0045681D01*
X0229522Y0045704D01*
X0229691Y0045730D01*
X0229858Y0045761D01*
X0230025Y0045796D01*
X0230191Y0045836D01*
X0230356Y0045879D01*
X0230520Y0045926D01*
X0230682Y0045977D01*
X0230844Y0046032D01*
X0231004Y0046091D01*
X0231162Y0046154D01*
X0231319Y0046220D01*
X0231474Y0046291D01*
X0231628Y0046365D01*
X0231779Y0046443D01*
X0231929Y0046525D01*
X0232077Y0046610D01*
X0232222Y0046699D01*
X0232365Y0046791D01*
X0232506Y0046887D01*
X0232645Y0046986D01*
X0232781Y0047089D01*
X0232915Y0047194D01*
X0233046Y0047303D01*
X0233174Y0047416D01*
X0233300Y0047531D01*
X0233423Y0047649D01*
X0233542Y0047770D01*
X0233659Y0047895D01*
X0233773Y0048022D01*
X0233884Y0048151D01*
X0233991Y0048284D01*
X0234095Y0048419D01*
X0234196Y0048556D01*
X0234294Y0048696D01*
X0234388Y0048838D01*
X0234478Y0048982D01*
X0234565Y0049129D01*
X0234649Y0049278D01*
X0234728Y0049428D01*
X0234804Y0049581D01*
X0234877Y0049735D01*
X0234945Y0049891D01*
X0235010Y0050049D01*
X0235071Y0050208D01*
X0235128Y0050369D01*
X0235181Y0050531D01*
X0235230Y0050694D01*
X0235275Y0050858D01*
X0235316Y0051024D01*
X0235354Y0051190D01*
X0235387Y0051358D01*
X0235415Y0051526D01*
X0235440Y0051694D01*
X0235461Y0051863D01*
X0235478Y0052033D01*
X0235490Y0052203D01*
X0235498Y0052373D01*
X0235502Y0052544D01*
X0235502Y0052714D01*
X0235498Y0052885D01*
X0235490Y0053055D01*
X0235478Y0053225D01*
X0235461Y0053395D01*
X0235440Y0053564D01*
X0235415Y0053732D01*
X0235387Y0053900D01*
X0235354Y0054068D01*
X0235316Y0054234D01*
X0235275Y0054400D01*
X0235230Y0054564D01*
X0235181Y0054727D01*
X0235128Y0054889D01*
X0235071Y0055050D01*
X0235010Y0055209D01*
X0234945Y0055367D01*
X0234877Y0055523D01*
X0234804Y0055677D01*
X0234728Y0055830D01*
X0234649Y0055980D01*
X0234565Y0056129D01*
X0234478Y0056276D01*
X0234388Y0056420D01*
X0234294Y0056562D01*
X0234196Y0056702D01*
X0234095Y0056839D01*
X0233991Y0056974D01*
X0233884Y0057107D01*
X0233773Y0057236D01*
X0233659Y0057363D01*
X0233542Y0057488D01*
X0233423Y0057609D01*
X0233300Y0057727D01*
X0233174Y0057842D01*
X0233046Y0057955D01*
X0232915Y0058064D01*
X0232781Y0058169D01*
X0232645Y0058272D01*
X0232506Y0058371D01*
X0232365Y0058467D01*
X0232222Y0058559D01*
X0232077Y0058648D01*
X0231929Y0058733D01*
X0231779Y0058815D01*
X0231628Y0058893D01*
X0231474Y0058967D01*
X0231319Y0059038D01*
X0231162Y0059104D01*
X0231004Y0059167D01*
X0230844Y0059226D01*
X0230682Y0059281D01*
X0230520Y0059332D01*
X0230356Y0059379D01*
X0230191Y0059422D01*
X0230025Y0059462D01*
X0229858Y0059497D01*
X0229691Y0059528D01*
X0229522Y0059554D01*
X0229353Y0059577D01*
X0229184Y0059596D01*
X0229014Y0059610D01*
X0228844Y0059621D01*
X0228673Y0059627D01*
X0228503Y0059629D01*
X0243297Y0068336D02*
X0244431Y0067201D01*
X0243297Y0068336D02*
X0246700Y0068336D01*
X0246700Y0069470D02*
X0246700Y0067201D01*
X0246700Y0070884D02*
X0243297Y0070884D01*
X0244431Y0072019D01*
X0243297Y0073153D01*
X0246700Y0073153D01*
X0246814Y0076256D02*
X0243411Y0076256D01*
X0243411Y0077958D01*
X0243978Y0078525D01*
X0245113Y0078525D01*
X0245680Y0077958D01*
X0245680Y0076256D01*
X0245680Y0077391D02*
X0246814Y0078525D01*
X0246247Y0079940D02*
X0245680Y0079940D01*
X0245113Y0080507D01*
X0245113Y0081641D01*
X0245680Y0082208D01*
X0246247Y0082208D01*
X0246814Y0081641D01*
X0246814Y0080507D01*
X0246247Y0079940D01*
X0245113Y0080507D02*
X0244546Y0079940D01*
X0243978Y0079940D01*
X0243411Y0080507D01*
X0243411Y0081641D01*
X0243978Y0082208D01*
X0244546Y0082208D01*
X0245113Y0081641D01*
X0228186Y0074125D02*
X0225918Y0071857D01*
X0226485Y0071289D01*
X0227619Y0071289D01*
X0228186Y0071857D01*
X0228186Y0074125D01*
X0227619Y0074692D01*
X0226485Y0074692D01*
X0225918Y0074125D01*
X0225918Y0071857D01*
X0224503Y0071289D02*
X0222235Y0071289D01*
X0223369Y0071289D02*
X0223369Y0074692D01*
X0222235Y0073558D01*
X0220820Y0074125D02*
X0220253Y0074692D01*
X0219119Y0074692D01*
X0218552Y0074125D01*
X0218552Y0071857D01*
X0219119Y0071289D01*
X0220253Y0071289D01*
X0220820Y0071857D01*
X0188546Y0056273D02*
X0187979Y0056840D01*
X0188546Y0056273D02*
X0188546Y0055138D01*
X0187979Y0054571D01*
X0185711Y0054571D01*
X0185144Y0055138D01*
X0185144Y0056273D01*
X0185711Y0056840D01*
X0183449Y0054746D02*
X0180046Y0054746D01*
X0193751Y0041837D02*
X0193751Y0041270D01*
X0194885Y0040136D01*
X0194885Y0038434D01*
X0194885Y0040136D02*
X0196019Y0041270D01*
X0196019Y0041837D01*
X0197434Y0041270D02*
X0198001Y0041837D01*
X0199135Y0041837D01*
X0199702Y0041270D01*
X0199702Y0040703D01*
X0197434Y0038434D01*
X0199702Y0038434D01*
X0275258Y0049685D02*
X0275258Y0053088D01*
X0276959Y0053088D01*
X0277526Y0052521D01*
X0277526Y0051387D01*
X0276959Y0050820D01*
X0275258Y0050820D01*
X0276392Y0050820D02*
X0277526Y0049685D01*
X0278941Y0050253D02*
X0279508Y0049685D01*
X0280642Y0049685D01*
X0281210Y0050253D01*
X0281210Y0051387D01*
X0280642Y0051954D01*
X0280075Y0051954D01*
X0278941Y0051387D01*
X0278941Y0053088D01*
X0281210Y0053088D01*
X0283198Y0052111D02*
X0284332Y0053245D01*
X0284332Y0049843D01*
X0283198Y0049843D02*
X0285467Y0049843D01*
X0286881Y0049843D02*
X0286881Y0053245D01*
X0288016Y0052111D01*
X0289150Y0053245D01*
X0289150Y0049843D01*
X0305349Y0064005D02*
X0308752Y0064005D01*
X0308752Y0062871D02*
X0308752Y0065139D01*
X0308752Y0066554D02*
X0305349Y0066554D01*
X0306484Y0067688D01*
X0305349Y0068823D01*
X0308752Y0068823D01*
X0308378Y0070746D02*
X0304975Y0070746D01*
X0304975Y0072448D01*
X0305543Y0073015D01*
X0306677Y0073015D01*
X0307244Y0072448D01*
X0307244Y0070746D01*
X0307244Y0071880D02*
X0308378Y0073015D01*
X0308378Y0074429D02*
X0308378Y0076698D01*
X0308378Y0075564D02*
X0304975Y0075564D01*
X0306110Y0074429D01*
X0306677Y0078112D02*
X0306677Y0079814D01*
X0307244Y0080381D01*
X0307811Y0080381D01*
X0308378Y0079814D01*
X0308378Y0078680D01*
X0307811Y0078112D01*
X0306677Y0078112D01*
X0305543Y0079247D01*
X0304975Y0080381D01*
X0305349Y0064005D02*
X0306484Y0062871D01*
X0284366Y0145201D02*
X0284366Y0148604D01*
X0283232Y0147470D01*
X0282097Y0148604D01*
X0282097Y0145201D01*
X0280683Y0145201D02*
X0278414Y0145201D01*
X0279548Y0145201D02*
X0279548Y0148604D01*
X0278414Y0147470D01*
X0275825Y0147107D02*
X0273556Y0147107D01*
X0275258Y0148808D01*
X0275258Y0145405D01*
X0272142Y0145405D02*
X0269873Y0145405D01*
X0271007Y0145405D02*
X0271007Y0148808D01*
X0269873Y0147674D01*
X0268458Y0148241D02*
X0268458Y0147107D01*
X0267891Y0146540D01*
X0266190Y0146540D01*
X0267324Y0146540D02*
X0268458Y0145405D01*
X0266190Y0145405D02*
X0266190Y0148808D01*
X0267891Y0148808D01*
X0268458Y0148241D01*
X0175347Y0148463D02*
X0175347Y0149598D01*
X0174780Y0150165D01*
X0175347Y0151579D02*
X0175347Y0153848D01*
X0175347Y0152714D02*
X0171945Y0152714D01*
X0173079Y0151579D01*
X0172512Y0150165D02*
X0171945Y0149598D01*
X0171945Y0148463D01*
X0172512Y0147896D01*
X0174780Y0147896D01*
X0175347Y0148463D01*
X0174780Y0155263D02*
X0175347Y0155830D01*
X0175347Y0156964D01*
X0174780Y0157531D01*
X0174213Y0157531D01*
X0173646Y0156964D01*
X0173646Y0156397D01*
X0173646Y0156964D02*
X0173079Y0157531D01*
X0172512Y0157531D01*
X0171945Y0156964D01*
X0171945Y0155830D01*
X0172512Y0155263D01*
X0117640Y0050867D02*
X0116173Y0050867D01*
X0115439Y0050133D01*
X0113770Y0050133D02*
X0113037Y0050867D01*
X0110835Y0050867D01*
X0110835Y0046464D01*
X0113037Y0046464D01*
X0113770Y0047198D01*
X0113770Y0050133D01*
X0117640Y0050867D02*
X0118374Y0050133D01*
X0118374Y0049399D01*
X0115439Y0046464D01*
X0118374Y0046464D01*
D13*
X0100961Y0094818D02*
X0099126Y0094818D01*
X0099126Y0096286D02*
X0100961Y0096286D01*
X0101328Y0095919D01*
X0101328Y0095185D01*
X0100961Y0094818D01*
X0101328Y0097028D02*
X0101328Y0098496D01*
X0101328Y0097762D02*
X0099126Y0097762D01*
X0099860Y0097028D01*
D14*
X0205503Y0061629D02*
X0228503Y0061629D01*
X0228722Y0061626D01*
X0228941Y0061618D01*
X0229160Y0061605D01*
X0229378Y0061586D01*
X0229596Y0061562D01*
X0229813Y0061533D01*
X0230030Y0061499D01*
X0230245Y0061459D01*
X0230460Y0061414D01*
X0230673Y0061363D01*
X0230885Y0061308D01*
X0231096Y0061247D01*
X0231305Y0061182D01*
X0231512Y0061111D01*
X0231718Y0061035D01*
X0231922Y0060954D01*
X0232124Y0060869D01*
X0232323Y0060778D01*
X0232520Y0060683D01*
X0232715Y0060582D01*
X0232908Y0060477D01*
X0233098Y0060368D01*
X0233285Y0060254D01*
X0233469Y0060135D01*
X0233650Y0060012D01*
X0233828Y0059884D01*
X0234004Y0059752D01*
X0234175Y0059616D01*
X0234344Y0059476D01*
X0234509Y0059332D01*
X0234670Y0059184D01*
X0234828Y0059032D01*
X0234982Y0058876D01*
X0235132Y0058716D01*
X0235279Y0058553D01*
X0235421Y0058386D01*
X0235559Y0058216D01*
X0235693Y0058042D01*
X0235823Y0057866D01*
X0235948Y0057686D01*
X0236069Y0057503D01*
X0236185Y0057317D01*
X0236297Y0057129D01*
X0236404Y0056938D01*
X0236507Y0056744D01*
X0236605Y0056548D01*
X0236698Y0056350D01*
X0236786Y0056149D01*
X0236869Y0055946D01*
X0236948Y0055741D01*
X0237021Y0055535D01*
X0237089Y0055327D01*
X0237152Y0055117D01*
X0237210Y0054905D01*
X0237263Y0054693D01*
X0237311Y0054479D01*
X0237353Y0054264D01*
X0237390Y0054048D01*
X0237422Y0053831D01*
X0237449Y0053613D01*
X0237470Y0053395D01*
X0237486Y0053177D01*
X0237497Y0052958D01*
X0237502Y0052739D01*
X0237502Y0052519D01*
X0237497Y0052300D01*
X0237486Y0052081D01*
X0237470Y0051863D01*
X0237449Y0051645D01*
X0237422Y0051427D01*
X0237390Y0051210D01*
X0237353Y0050994D01*
X0237311Y0050779D01*
X0237263Y0050565D01*
X0237210Y0050353D01*
X0237152Y0050141D01*
X0237089Y0049931D01*
X0237021Y0049723D01*
X0236948Y0049517D01*
X0236869Y0049312D01*
X0236786Y0049109D01*
X0236698Y0048908D01*
X0236605Y0048710D01*
X0236507Y0048514D01*
X0236404Y0048320D01*
X0236297Y0048129D01*
X0236185Y0047941D01*
X0236069Y0047755D01*
X0235948Y0047572D01*
X0235823Y0047392D01*
X0235693Y0047216D01*
X0235559Y0047042D01*
X0235421Y0046872D01*
X0235279Y0046705D01*
X0235132Y0046542D01*
X0234982Y0046382D01*
X0234828Y0046226D01*
X0234670Y0046074D01*
X0234509Y0045926D01*
X0234344Y0045782D01*
X0234175Y0045642D01*
X0234004Y0045506D01*
X0233828Y0045374D01*
X0233650Y0045246D01*
X0233469Y0045123D01*
X0233285Y0045004D01*
X0233098Y0044890D01*
X0232908Y0044781D01*
X0232715Y0044676D01*
X0232520Y0044575D01*
X0232323Y0044480D01*
X0232124Y0044389D01*
X0231922Y0044304D01*
X0231718Y0044223D01*
X0231512Y0044147D01*
X0231305Y0044076D01*
X0231096Y0044011D01*
X0230885Y0043950D01*
X0230673Y0043895D01*
X0230460Y0043844D01*
X0230245Y0043799D01*
X0230030Y0043759D01*
X0229813Y0043725D01*
X0229596Y0043696D01*
X0229378Y0043672D01*
X0229160Y0043653D01*
X0228941Y0043640D01*
X0228722Y0043632D01*
X0228503Y0043629D01*
X0205503Y0043629D01*
X0205284Y0043632D01*
X0205065Y0043640D01*
X0204846Y0043653D01*
X0204628Y0043672D01*
X0204410Y0043696D01*
X0204193Y0043725D01*
X0203976Y0043759D01*
X0203761Y0043799D01*
X0203546Y0043844D01*
X0203333Y0043895D01*
X0203121Y0043950D01*
X0202910Y0044011D01*
X0202701Y0044076D01*
X0202494Y0044147D01*
X0202288Y0044223D01*
X0202084Y0044304D01*
X0201882Y0044389D01*
X0201683Y0044480D01*
X0201486Y0044575D01*
X0201291Y0044676D01*
X0201098Y0044781D01*
X0200908Y0044890D01*
X0200721Y0045004D01*
X0200537Y0045123D01*
X0200356Y0045246D01*
X0200178Y0045374D01*
X0200002Y0045506D01*
X0199831Y0045642D01*
X0199662Y0045782D01*
X0199497Y0045926D01*
X0199336Y0046074D01*
X0199178Y0046226D01*
X0199024Y0046382D01*
X0198874Y0046542D01*
X0198727Y0046705D01*
X0198585Y0046872D01*
X0198447Y0047042D01*
X0198313Y0047216D01*
X0198183Y0047392D01*
X0198058Y0047572D01*
X0197937Y0047755D01*
X0197821Y0047941D01*
X0197709Y0048129D01*
X0197602Y0048320D01*
X0197499Y0048514D01*
X0197401Y0048710D01*
X0197308Y0048908D01*
X0197220Y0049109D01*
X0197137Y0049312D01*
X0197058Y0049517D01*
X0196985Y0049723D01*
X0196917Y0049931D01*
X0196854Y0050141D01*
X0196796Y0050353D01*
X0196743Y0050565D01*
X0196695Y0050779D01*
X0196653Y0050994D01*
X0196616Y0051210D01*
X0196584Y0051427D01*
X0196557Y0051645D01*
X0196536Y0051863D01*
X0196520Y0052081D01*
X0196509Y0052300D01*
X0196504Y0052519D01*
X0196504Y0052739D01*
X0196509Y0052958D01*
X0196520Y0053177D01*
X0196536Y0053395D01*
X0196557Y0053613D01*
X0196584Y0053831D01*
X0196616Y0054048D01*
X0196653Y0054264D01*
X0196695Y0054479D01*
X0196743Y0054693D01*
X0196796Y0054905D01*
X0196854Y0055117D01*
X0196917Y0055327D01*
X0196985Y0055535D01*
X0197058Y0055741D01*
X0197137Y0055946D01*
X0197220Y0056149D01*
X0197308Y0056350D01*
X0197401Y0056548D01*
X0197499Y0056744D01*
X0197602Y0056938D01*
X0197709Y0057129D01*
X0197821Y0057317D01*
X0197937Y0057503D01*
X0198058Y0057686D01*
X0198183Y0057866D01*
X0198313Y0058042D01*
X0198447Y0058216D01*
X0198585Y0058386D01*
X0198727Y0058553D01*
X0198874Y0058716D01*
X0199024Y0058876D01*
X0199178Y0059032D01*
X0199336Y0059184D01*
X0199497Y0059332D01*
X0199662Y0059476D01*
X0199831Y0059616D01*
X0200002Y0059752D01*
X0200178Y0059884D01*
X0200356Y0060012D01*
X0200537Y0060135D01*
X0200721Y0060254D01*
X0200908Y0060368D01*
X0201098Y0060477D01*
X0201291Y0060582D01*
X0201486Y0060683D01*
X0201683Y0060778D01*
X0201882Y0060869D01*
X0202084Y0060954D01*
X0202288Y0061035D01*
X0202494Y0061111D01*
X0202701Y0061182D01*
X0202910Y0061247D01*
X0203121Y0061308D01*
X0203333Y0061363D01*
X0203546Y0061414D01*
X0203761Y0061459D01*
X0203976Y0061499D01*
X0204193Y0061533D01*
X0204410Y0061562D01*
X0204628Y0061586D01*
X0204846Y0061605D01*
X0205065Y0061618D01*
X0205284Y0061626D01*
X0205503Y0061629D01*
D15*
X0168654Y0131652D02*
X0167873Y0131206D01*
X0167780Y0131363D01*
X0167683Y0131517D01*
X0167582Y0131669D01*
X0167477Y0131818D01*
X0167369Y0131965D01*
X0167258Y0132110D01*
X0167143Y0132251D01*
X0167024Y0132390D01*
X0166902Y0132525D01*
X0166777Y0132658D01*
X0166649Y0132788D01*
X0166518Y0132914D01*
X0166384Y0133038D01*
X0166247Y0133158D01*
X0166107Y0133275D01*
X0165964Y0133388D01*
X0165818Y0133498D01*
X0165670Y0133604D01*
X0165519Y0133707D01*
X0165366Y0133806D01*
X0165211Y0133901D01*
X0165053Y0133992D01*
X0164893Y0134080D01*
X0164731Y0134164D01*
X0164568Y0134244D01*
X0164402Y0134320D01*
X0164234Y0134391D01*
X0164065Y0134459D01*
X0163894Y0134523D01*
X0163722Y0134582D01*
X0163548Y0134638D01*
X0163373Y0134689D01*
X0163197Y0134736D01*
X0163020Y0134778D01*
X0162841Y0134817D01*
X0162662Y0134851D01*
X0162482Y0134881D01*
X0162302Y0134906D01*
X0162121Y0134927D01*
X0161939Y0134943D01*
X0161757Y0134956D01*
X0161575Y0134963D01*
X0161393Y0134967D01*
X0161392Y0135866D01*
X0161393Y0135867D01*
X0161597Y0135863D01*
X0161801Y0135855D01*
X0162005Y0135841D01*
X0162209Y0135823D01*
X0162412Y0135799D01*
X0162614Y0135771D01*
X0162816Y0135738D01*
X0163016Y0135700D01*
X0163216Y0135657D01*
X0163415Y0135609D01*
X0163612Y0135557D01*
X0163808Y0135499D01*
X0164003Y0135437D01*
X0164196Y0135371D01*
X0164388Y0135299D01*
X0164577Y0135223D01*
X0164765Y0135143D01*
X0164951Y0135058D01*
X0165135Y0134968D01*
X0165316Y0134875D01*
X0165495Y0134776D01*
X0165672Y0134674D01*
X0165846Y0134567D01*
X0166018Y0134456D01*
X0166187Y0134341D01*
X0166353Y0134222D01*
X0166516Y0134099D01*
X0166676Y0133972D01*
X0166833Y0133841D01*
X0166987Y0133706D01*
X0167137Y0133568D01*
X0167284Y0133426D01*
X0167428Y0133281D01*
X0167568Y0133132D01*
X0167704Y0132980D01*
X0167837Y0132824D01*
X0167965Y0132666D01*
X0168090Y0132504D01*
X0168211Y0132339D01*
X0168328Y0132172D01*
X0168441Y0132001D01*
X0168550Y0131828D01*
X0168655Y0131653D01*
X0168573Y0131606D01*
X0168470Y0131780D01*
X0168362Y0131951D01*
X0168250Y0132119D01*
X0168135Y0132285D01*
X0168015Y0132448D01*
X0167891Y0132607D01*
X0167764Y0132764D01*
X0167633Y0132918D01*
X0167498Y0133068D01*
X0167360Y0133216D01*
X0167218Y0133359D01*
X0167072Y0133500D01*
X0166924Y0133636D01*
X0166772Y0133769D01*
X0166616Y0133899D01*
X0166458Y0134024D01*
X0166297Y0134146D01*
X0166133Y0134264D01*
X0165966Y0134378D01*
X0165796Y0134487D01*
X0165624Y0134593D01*
X0165449Y0134694D01*
X0165272Y0134792D01*
X0165093Y0134884D01*
X0164911Y0134973D01*
X0164727Y0135057D01*
X0164542Y0135137D01*
X0164354Y0135212D01*
X0164165Y0135282D01*
X0163974Y0135348D01*
X0163781Y0135409D01*
X0163587Y0135466D01*
X0163392Y0135518D01*
X0163196Y0135565D01*
X0162998Y0135607D01*
X0162800Y0135645D01*
X0162600Y0135678D01*
X0162400Y0135706D01*
X0162199Y0135729D01*
X0161998Y0135747D01*
X0161797Y0135761D01*
X0161595Y0135769D01*
X0161393Y0135773D01*
X0161393Y0135679D01*
X0161592Y0135675D01*
X0161792Y0135667D01*
X0161991Y0135654D01*
X0162190Y0135635D01*
X0162389Y0135613D01*
X0162586Y0135585D01*
X0162784Y0135552D01*
X0162980Y0135515D01*
X0163175Y0135473D01*
X0163369Y0135427D01*
X0163562Y0135375D01*
X0163754Y0135319D01*
X0163944Y0135259D01*
X0164133Y0135194D01*
X0164320Y0135124D01*
X0164506Y0135050D01*
X0164689Y0134971D01*
X0164871Y0134888D01*
X0165051Y0134800D01*
X0165228Y0134709D01*
X0165403Y0134613D01*
X0165576Y0134512D01*
X0165746Y0134408D01*
X0165914Y0134299D01*
X0166079Y0134187D01*
X0166241Y0134071D01*
X0166400Y0133950D01*
X0166557Y0133826D01*
X0166710Y0133698D01*
X0166861Y0133567D01*
X0167008Y0133431D01*
X0167151Y0133293D01*
X0167292Y0133151D01*
X0167429Y0133005D01*
X0167562Y0132856D01*
X0167692Y0132704D01*
X0167818Y0132549D01*
X0167940Y0132391D01*
X0168058Y0132230D01*
X0168172Y0132067D01*
X0168283Y0131900D01*
X0168389Y0131731D01*
X0168491Y0131560D01*
X0168410Y0131513D01*
X0168309Y0131683D01*
X0168204Y0131850D01*
X0168094Y0132014D01*
X0167981Y0132176D01*
X0167864Y0132335D01*
X0167744Y0132491D01*
X0167619Y0132645D01*
X0167491Y0132795D01*
X0167359Y0132942D01*
X0167224Y0133086D01*
X0167085Y0133226D01*
X0166943Y0133363D01*
X0166798Y0133497D01*
X0166649Y0133627D01*
X0166497Y0133753D01*
X0166343Y0133876D01*
X0166185Y0133995D01*
X0166025Y0134110D01*
X0165862Y0134221D01*
X0165696Y0134328D01*
X0165528Y0134432D01*
X0165357Y0134531D01*
X0165184Y0134626D01*
X0165008Y0134716D01*
X0164831Y0134803D01*
X0164651Y0134885D01*
X0164470Y0134963D01*
X0164287Y0135036D01*
X0164102Y0135105D01*
X0163915Y0135169D01*
X0163727Y0135229D01*
X0163537Y0135285D01*
X0163347Y0135335D01*
X0163155Y0135382D01*
X0162962Y0135423D01*
X0162768Y0135460D01*
X0162573Y0135492D01*
X0162377Y0135519D01*
X0162181Y0135542D01*
X0161984Y0135560D01*
X0161787Y0135573D01*
X0161590Y0135581D01*
X0161393Y0135585D01*
X0161393Y0135491D01*
X0161588Y0135487D01*
X0161783Y0135479D01*
X0161978Y0135466D01*
X0162172Y0135448D01*
X0162366Y0135426D01*
X0162559Y0135399D01*
X0162752Y0135367D01*
X0162943Y0135331D01*
X0163134Y0135290D01*
X0163324Y0135244D01*
X0163512Y0135194D01*
X0163700Y0135139D01*
X0163886Y0135080D01*
X0164070Y0135017D01*
X0164253Y0134948D01*
X0164434Y0134876D01*
X0164613Y0134799D01*
X0164791Y0134718D01*
X0164966Y0134632D01*
X0165140Y0134543D01*
X0165311Y0134449D01*
X0165479Y0134351D01*
X0165646Y0134249D01*
X0165810Y0134143D01*
X0165971Y0134033D01*
X0166129Y0133919D01*
X0166285Y0133802D01*
X0166438Y0133680D01*
X0166588Y0133555D01*
X0166735Y0133427D01*
X0166878Y0133295D01*
X0167019Y0133159D01*
X0167156Y0133020D01*
X0167290Y0132878D01*
X0167420Y0132733D01*
X0167547Y0132585D01*
X0167670Y0132433D01*
X0167789Y0132279D01*
X0167905Y0132122D01*
X0168016Y0131962D01*
X0168124Y0131799D01*
X0168228Y0131634D01*
X0168328Y0131466D01*
X0168247Y0131420D01*
X0168148Y0131585D01*
X0168045Y0131749D01*
X0167938Y0131909D01*
X0167828Y0132067D01*
X0167714Y0132223D01*
X0167596Y0132375D01*
X0167474Y0132525D01*
X0167349Y0132671D01*
X0167220Y0132815D01*
X0167088Y0132955D01*
X0166953Y0133093D01*
X0166814Y0133227D01*
X0166672Y0133357D01*
X0166527Y0133484D01*
X0166379Y0133608D01*
X0166228Y0133727D01*
X0166074Y0133844D01*
X0165917Y0133956D01*
X0165758Y0134065D01*
X0165596Y0134169D01*
X0165431Y0134270D01*
X0165265Y0134367D01*
X0165095Y0134460D01*
X0164924Y0134548D01*
X0164751Y0134633D01*
X0164575Y0134713D01*
X0164398Y0134789D01*
X0164219Y0134861D01*
X0164038Y0134928D01*
X0163856Y0134991D01*
X0163672Y0135049D01*
X0163487Y0135103D01*
X0163301Y0135153D01*
X0163113Y0135198D01*
X0162925Y0135239D01*
X0162736Y0135275D01*
X0162545Y0135306D01*
X0162354Y0135333D01*
X0162163Y0135355D01*
X0161971Y0135372D01*
X0161778Y0135385D01*
X0161586Y0135393D01*
X0161393Y0135397D01*
X0161393Y0135303D01*
X0161583Y0135299D01*
X0161774Y0135291D01*
X0161964Y0135279D01*
X0162154Y0135261D01*
X0162343Y0135239D01*
X0162531Y0135213D01*
X0162719Y0135182D01*
X0162907Y0135146D01*
X0163093Y0135106D01*
X0163278Y0135062D01*
X0163462Y0135013D01*
X0163645Y0134959D01*
X0163827Y0134902D01*
X0164007Y0134839D01*
X0164185Y0134773D01*
X0164362Y0134702D01*
X0164537Y0134627D01*
X0164711Y0134548D01*
X0164882Y0134464D01*
X0165051Y0134377D01*
X0165218Y0134285D01*
X0165383Y0134189D01*
X0165546Y0134090D01*
X0165706Y0133986D01*
X0165863Y0133879D01*
X0166018Y0133768D01*
X0166170Y0133653D01*
X0166319Y0133535D01*
X0166465Y0133413D01*
X0166609Y0133287D01*
X0166749Y0133158D01*
X0166886Y0133026D01*
X0167020Y0132890D01*
X0167151Y0132752D01*
X0167278Y0132610D01*
X0167402Y0132465D01*
X0167522Y0132317D01*
X0167638Y0132166D01*
X0167751Y0132013D01*
X0167860Y0131857D01*
X0167966Y0131698D01*
X0168067Y0131537D01*
X0168165Y0131373D01*
X0168083Y0131326D01*
X0167987Y0131488D01*
X0167887Y0131647D01*
X0167783Y0131804D01*
X0167675Y0131959D01*
X0167563Y0132110D01*
X0167448Y0132259D01*
X0167329Y0132405D01*
X0167207Y0132548D01*
X0167081Y0132688D01*
X0166952Y0132825D01*
X0166820Y0132959D01*
X0166684Y0133090D01*
X0166546Y0133217D01*
X0166404Y0133341D01*
X0166260Y0133462D01*
X0166112Y0133579D01*
X0165962Y0133692D01*
X0165809Y0133802D01*
X0165653Y0133908D01*
X0165495Y0134010D01*
X0165335Y0134109D01*
X0165172Y0134203D01*
X0165007Y0134294D01*
X0164840Y0134380D01*
X0164671Y0134463D01*
X0164500Y0134541D01*
X0164327Y0134615D01*
X0164152Y0134685D01*
X0163975Y0134751D01*
X0163797Y0134812D01*
X0163618Y0134869D01*
X0163437Y0134922D01*
X0163255Y0134971D01*
X0163072Y0135015D01*
X0162888Y0135054D01*
X0162703Y0135089D01*
X0162518Y0135120D01*
X0162331Y0135146D01*
X0162144Y0135168D01*
X0161957Y0135185D01*
X0161769Y0135197D01*
X0161581Y0135205D01*
X0161393Y0135209D01*
X0161393Y0135115D01*
X0161579Y0135111D01*
X0161764Y0135103D01*
X0161950Y0135091D01*
X0162135Y0135074D01*
X0162320Y0135053D01*
X0162504Y0135027D01*
X0162687Y0134997D01*
X0162870Y0134962D01*
X0163052Y0134923D01*
X0163233Y0134879D01*
X0163412Y0134832D01*
X0163591Y0134779D01*
X0163768Y0134723D01*
X0163944Y0134662D01*
X0164118Y0134597D01*
X0164291Y0134528D01*
X0164462Y0134455D01*
X0164631Y0134378D01*
X0164798Y0134296D01*
X0164963Y0134211D01*
X0165126Y0134121D01*
X0165287Y0134028D01*
X0165445Y0133931D01*
X0165601Y0133830D01*
X0165755Y0133725D01*
X0165906Y0133617D01*
X0166055Y0133505D01*
X0166200Y0133389D01*
X0166343Y0133270D01*
X0166483Y0133148D01*
X0166620Y0133022D01*
X0166754Y0132893D01*
X0166884Y0132760D01*
X0167012Y0132625D01*
X0167136Y0132487D01*
X0167257Y0132345D01*
X0167374Y0132201D01*
X0167488Y0132054D01*
X0167598Y0131904D01*
X0167705Y0131752D01*
X0167807Y0131597D01*
X0167906Y0131439D01*
X0168002Y0131280D01*
X0167920Y0131233D01*
X0167826Y0131391D01*
X0167728Y0131546D01*
X0167627Y0131699D01*
X0167521Y0131850D01*
X0167412Y0131998D01*
X0167300Y0132143D01*
X0167184Y0132285D01*
X0167065Y0132425D01*
X0166942Y0132562D01*
X0166816Y0132695D01*
X0166687Y0132826D01*
X0166555Y0132954D01*
X0166420Y0133078D01*
X0166282Y0133199D01*
X0166141Y0133316D01*
X0165997Y0133430D01*
X0165850Y0133541D01*
X0165701Y0133648D01*
X0165549Y0133752D01*
X0165395Y0133851D01*
X0165239Y0133947D01*
X0165080Y0134039D01*
X0164919Y0134128D01*
X0164756Y0134212D01*
X0164591Y0134293D01*
X0164424Y0134369D01*
X0164255Y0134441D01*
X0164084Y0134510D01*
X0163912Y0134574D01*
X0163739Y0134634D01*
X0163564Y0134690D01*
X0163387Y0134741D01*
X0163210Y0134788D01*
X0163031Y0134831D01*
X0162852Y0134870D01*
X0162671Y0134904D01*
X0162490Y0134934D01*
X0162308Y0134959D01*
X0162126Y0134981D01*
X0161943Y0134997D01*
X0161760Y0135010D01*
X0161576Y0135017D01*
X0161393Y0135021D01*
X0161392Y0118968D02*
X0161392Y0119868D01*
X0161392Y0119867D02*
X0161575Y0119871D01*
X0161758Y0119878D01*
X0161941Y0119891D01*
X0162124Y0119908D01*
X0162306Y0119929D01*
X0162487Y0119954D01*
X0162668Y0119984D01*
X0162848Y0120019D01*
X0163027Y0120057D01*
X0163205Y0120100D01*
X0163382Y0120148D01*
X0163557Y0120199D01*
X0163732Y0120255D01*
X0163905Y0120315D01*
X0164076Y0120380D01*
X0164246Y0120448D01*
X0164415Y0120520D01*
X0164581Y0120597D01*
X0164745Y0120678D01*
X0164908Y0120762D01*
X0165068Y0120851D01*
X0165227Y0120943D01*
X0165383Y0121039D01*
X0165536Y0121139D01*
X0165687Y0121243D01*
X0165836Y0121350D01*
X0165982Y0121461D01*
X0166125Y0121575D01*
X0166265Y0121693D01*
X0166402Y0121814D01*
X0166537Y0121938D01*
X0166668Y0122066D01*
X0166797Y0122197D01*
X0166922Y0122331D01*
X0167043Y0122467D01*
X0167162Y0122607D01*
X0167277Y0122750D01*
X0167388Y0122895D01*
X0167496Y0123043D01*
X0167600Y0123194D01*
X0167701Y0123347D01*
X0167798Y0123502D01*
X0167891Y0123660D01*
X0167980Y0123820D01*
X0168774Y0123397D01*
X0168674Y0123217D01*
X0168570Y0123040D01*
X0168462Y0122866D01*
X0168349Y0122694D01*
X0168232Y0122526D01*
X0168111Y0122360D01*
X0167987Y0122197D01*
X0167858Y0122037D01*
X0167725Y0121880D01*
X0167589Y0121727D01*
X0167449Y0121577D01*
X0167305Y0121430D01*
X0167158Y0121287D01*
X0167007Y0121147D01*
X0166853Y0121012D01*
X0166696Y0120880D01*
X0166536Y0120752D01*
X0166372Y0120627D01*
X0166206Y0120507D01*
X0166036Y0120391D01*
X0165864Y0120279D01*
X0165690Y0120171D01*
X0165512Y0120068D01*
X0165333Y0119969D01*
X0165150Y0119874D01*
X0164966Y0119784D01*
X0164780Y0119698D01*
X0164591Y0119617D01*
X0164401Y0119540D01*
X0164208Y0119468D01*
X0164014Y0119401D01*
X0163819Y0119338D01*
X0163622Y0119280D01*
X0163424Y0119227D01*
X0163224Y0119179D01*
X0163023Y0119136D01*
X0162822Y0119098D01*
X0162619Y0119064D01*
X0162416Y0119036D01*
X0162212Y0119012D01*
X0162007Y0118993D01*
X0161803Y0118980D01*
X0161598Y0118971D01*
X0161392Y0118967D01*
X0161392Y0119061D01*
X0161595Y0119065D01*
X0161798Y0119073D01*
X0162001Y0119087D01*
X0162203Y0119105D01*
X0162404Y0119129D01*
X0162605Y0119157D01*
X0162806Y0119190D01*
X0163005Y0119228D01*
X0163203Y0119271D01*
X0163401Y0119319D01*
X0163597Y0119371D01*
X0163792Y0119428D01*
X0163985Y0119490D01*
X0164177Y0119557D01*
X0164367Y0119628D01*
X0164555Y0119703D01*
X0164741Y0119784D01*
X0164926Y0119869D01*
X0165108Y0119958D01*
X0165288Y0120052D01*
X0165466Y0120150D01*
X0165641Y0120252D01*
X0165814Y0120358D01*
X0165984Y0120469D01*
X0166152Y0120584D01*
X0166316Y0120703D01*
X0166478Y0120826D01*
X0166636Y0120952D01*
X0166792Y0121083D01*
X0166944Y0121217D01*
X0167093Y0121355D01*
X0167239Y0121496D01*
X0167381Y0121641D01*
X0167519Y0121790D01*
X0167654Y0121941D01*
X0167785Y0122096D01*
X0167912Y0122254D01*
X0168036Y0122416D01*
X0168155Y0122580D01*
X0168271Y0122747D01*
X0168382Y0122916D01*
X0168490Y0123089D01*
X0168593Y0123264D01*
X0168691Y0123441D01*
X0168608Y0123485D01*
X0168511Y0123310D01*
X0168409Y0123137D01*
X0168303Y0122967D01*
X0168193Y0122799D01*
X0168079Y0122634D01*
X0167960Y0122472D01*
X0167838Y0122312D01*
X0167712Y0122156D01*
X0167583Y0122003D01*
X0167449Y0121853D01*
X0167313Y0121706D01*
X0167172Y0121563D01*
X0167028Y0121423D01*
X0166881Y0121287D01*
X0166730Y0121154D01*
X0166577Y0121025D01*
X0166420Y0120900D01*
X0166260Y0120778D01*
X0166097Y0120661D01*
X0165932Y0120547D01*
X0165764Y0120438D01*
X0165593Y0120332D01*
X0165420Y0120231D01*
X0165244Y0120134D01*
X0165066Y0120042D01*
X0164886Y0119954D01*
X0164703Y0119870D01*
X0164519Y0119790D01*
X0164333Y0119715D01*
X0164145Y0119645D01*
X0163955Y0119579D01*
X0163764Y0119518D01*
X0163572Y0119462D01*
X0163378Y0119410D01*
X0163183Y0119363D01*
X0162987Y0119320D01*
X0162789Y0119283D01*
X0162591Y0119250D01*
X0162393Y0119222D01*
X0162193Y0119199D01*
X0161994Y0119181D01*
X0161793Y0119167D01*
X0161593Y0119159D01*
X0161392Y0119155D01*
X0161392Y0119249D01*
X0161591Y0119253D01*
X0161789Y0119261D01*
X0161987Y0119274D01*
X0162184Y0119293D01*
X0162381Y0119315D01*
X0162578Y0119343D01*
X0162773Y0119375D01*
X0162968Y0119413D01*
X0163162Y0119454D01*
X0163355Y0119501D01*
X0163547Y0119552D01*
X0163737Y0119608D01*
X0163926Y0119668D01*
X0164113Y0119733D01*
X0164299Y0119803D01*
X0164483Y0119877D01*
X0164665Y0119956D01*
X0164845Y0120039D01*
X0165024Y0120126D01*
X0165200Y0120217D01*
X0165373Y0120313D01*
X0165545Y0120413D01*
X0165713Y0120517D01*
X0165880Y0120625D01*
X0166043Y0120738D01*
X0166204Y0120854D01*
X0166362Y0120974D01*
X0166517Y0121098D01*
X0166669Y0121225D01*
X0166818Y0121356D01*
X0166963Y0121491D01*
X0167106Y0121629D01*
X0167244Y0121771D01*
X0167380Y0121916D01*
X0167512Y0122064D01*
X0167640Y0122216D01*
X0167764Y0122370D01*
X0167885Y0122527D01*
X0168002Y0122688D01*
X0168115Y0122851D01*
X0168223Y0123017D01*
X0168328Y0123185D01*
X0168429Y0123356D01*
X0168525Y0123529D01*
X0168443Y0123574D01*
X0168347Y0123402D01*
X0168248Y0123233D01*
X0168144Y0123067D01*
X0168036Y0122903D01*
X0167925Y0122742D01*
X0167809Y0122583D01*
X0167690Y0122428D01*
X0167567Y0122275D01*
X0167440Y0122126D01*
X0167310Y0121979D01*
X0167176Y0121836D01*
X0167039Y0121696D01*
X0166898Y0121559D01*
X0166755Y0121426D01*
X0166608Y0121296D01*
X0166457Y0121170D01*
X0166304Y0121048D01*
X0166148Y0120929D01*
X0165989Y0120814D01*
X0165827Y0120704D01*
X0165663Y0120597D01*
X0165496Y0120494D01*
X0165327Y0120395D01*
X0165155Y0120300D01*
X0164981Y0120210D01*
X0164805Y0120123D01*
X0164627Y0120042D01*
X0164447Y0119964D01*
X0164265Y0119891D01*
X0164082Y0119822D01*
X0163896Y0119758D01*
X0163710Y0119698D01*
X0163522Y0119643D01*
X0163332Y0119592D01*
X0163142Y0119546D01*
X0162950Y0119505D01*
X0162757Y0119468D01*
X0162564Y0119436D01*
X0162370Y0119409D01*
X0162175Y0119386D01*
X0161980Y0119368D01*
X0161784Y0119355D01*
X0161588Y0119347D01*
X0161392Y0119343D01*
X0161392Y0119437D01*
X0161586Y0119441D01*
X0161780Y0119449D01*
X0161973Y0119462D01*
X0162166Y0119480D01*
X0162358Y0119502D01*
X0162550Y0119529D01*
X0162741Y0119561D01*
X0162932Y0119597D01*
X0163121Y0119638D01*
X0163309Y0119683D01*
X0163496Y0119733D01*
X0163682Y0119788D01*
X0163867Y0119847D01*
X0164050Y0119910D01*
X0164231Y0119978D01*
X0164411Y0120051D01*
X0164589Y0120127D01*
X0164765Y0120208D01*
X0164939Y0120294D01*
X0165111Y0120383D01*
X0165281Y0120477D01*
X0165448Y0120574D01*
X0165613Y0120676D01*
X0165775Y0120782D01*
X0165935Y0120891D01*
X0166092Y0121005D01*
X0166246Y0121122D01*
X0166398Y0121243D01*
X0166546Y0121367D01*
X0166691Y0121495D01*
X0166834Y0121627D01*
X0166973Y0121762D01*
X0167108Y0121900D01*
X0167240Y0122042D01*
X0167369Y0122187D01*
X0167494Y0122335D01*
X0167616Y0122486D01*
X0167734Y0122639D01*
X0167848Y0122796D01*
X0167958Y0122955D01*
X0168064Y0123117D01*
X0168167Y0123282D01*
X0168265Y0123449D01*
X0168360Y0123618D01*
X0168277Y0123662D01*
X0168183Y0123495D01*
X0168086Y0123330D01*
X0167985Y0123167D01*
X0167880Y0123007D01*
X0167771Y0122850D01*
X0167658Y0122695D01*
X0167542Y0122543D01*
X0167422Y0122394D01*
X0167298Y0122248D01*
X0167171Y0122105D01*
X0167040Y0121965D01*
X0166906Y0121829D01*
X0166769Y0121695D01*
X0166628Y0121565D01*
X0166485Y0121438D01*
X0166338Y0121315D01*
X0166188Y0121196D01*
X0166036Y0121080D01*
X0165881Y0120968D01*
X0165723Y0120860D01*
X0165562Y0120755D01*
X0165399Y0120655D01*
X0165234Y0120558D01*
X0165067Y0120466D01*
X0164897Y0120378D01*
X0164725Y0120293D01*
X0164551Y0120213D01*
X0164375Y0120138D01*
X0164197Y0120066D01*
X0164018Y0119999D01*
X0163837Y0119936D01*
X0163655Y0119878D01*
X0163471Y0119824D01*
X0163286Y0119774D01*
X0163100Y0119730D01*
X0162913Y0119689D01*
X0162725Y0119653D01*
X0162536Y0119622D01*
X0162347Y0119595D01*
X0162157Y0119573D01*
X0161966Y0119556D01*
X0161775Y0119543D01*
X0161584Y0119535D01*
X0161392Y0119531D01*
X0161392Y0119625D01*
X0161581Y0119629D01*
X0161770Y0119637D01*
X0161959Y0119649D01*
X0162147Y0119667D01*
X0162335Y0119689D01*
X0162522Y0119715D01*
X0162709Y0119746D01*
X0162895Y0119781D01*
X0163080Y0119821D01*
X0163264Y0119866D01*
X0163446Y0119915D01*
X0163628Y0119968D01*
X0163808Y0120025D01*
X0163986Y0120087D01*
X0164164Y0120154D01*
X0164339Y0120224D01*
X0164513Y0120299D01*
X0164685Y0120378D01*
X0164854Y0120462D01*
X0165022Y0120549D01*
X0165188Y0120640D01*
X0165351Y0120736D01*
X0165512Y0120835D01*
X0165671Y0120938D01*
X0165827Y0121045D01*
X0165980Y0121156D01*
X0166131Y0121270D01*
X0166278Y0121388D01*
X0166423Y0121510D01*
X0166565Y0121635D01*
X0166704Y0121763D01*
X0166839Y0121895D01*
X0166972Y0122030D01*
X0167101Y0122168D01*
X0167227Y0122310D01*
X0167349Y0122454D01*
X0167468Y0122601D01*
X0167583Y0122751D01*
X0167694Y0122904D01*
X0167802Y0123060D01*
X0167906Y0123218D01*
X0168006Y0123378D01*
X0168102Y0123541D01*
X0168194Y0123706D01*
X0168111Y0123751D01*
X0168020Y0123587D01*
X0167925Y0123426D01*
X0167826Y0123268D01*
X0167724Y0123112D01*
X0167617Y0122958D01*
X0167507Y0122807D01*
X0167393Y0122659D01*
X0167276Y0122513D01*
X0167155Y0122371D01*
X0167031Y0122231D01*
X0166904Y0122095D01*
X0166773Y0121961D01*
X0166639Y0121831D01*
X0166502Y0121704D01*
X0166362Y0121581D01*
X0166219Y0121461D01*
X0166073Y0121344D01*
X0165924Y0121231D01*
X0165772Y0121122D01*
X0165618Y0121016D01*
X0165462Y0120914D01*
X0165303Y0120816D01*
X0165141Y0120722D01*
X0164978Y0120632D01*
X0164812Y0120545D01*
X0164644Y0120463D01*
X0164475Y0120385D01*
X0164303Y0120311D01*
X0164130Y0120242D01*
X0163955Y0120176D01*
X0163778Y0120115D01*
X0163600Y0120058D01*
X0163421Y0120005D01*
X0163241Y0119957D01*
X0163059Y0119913D01*
X0162876Y0119873D01*
X0162693Y0119838D01*
X0162509Y0119808D01*
X0162324Y0119782D01*
X0162138Y0119760D01*
X0161952Y0119743D01*
X0161766Y0119731D01*
X0161579Y0119723D01*
X0161392Y0119719D01*
X0161392Y0119813D01*
X0161577Y0119817D01*
X0161761Y0119825D01*
X0161945Y0119837D01*
X0162129Y0119854D01*
X0162312Y0119875D01*
X0162495Y0119901D01*
X0162677Y0119931D01*
X0162858Y0119966D01*
X0163038Y0120005D01*
X0163218Y0120048D01*
X0163396Y0120096D01*
X0163573Y0120148D01*
X0163749Y0120204D01*
X0163923Y0120264D01*
X0164096Y0120329D01*
X0164267Y0120398D01*
X0164436Y0120471D01*
X0164604Y0120548D01*
X0164770Y0120629D01*
X0164933Y0120715D01*
X0165095Y0120804D01*
X0165254Y0120897D01*
X0165411Y0120994D01*
X0165566Y0121094D01*
X0165718Y0121199D01*
X0165868Y0121307D01*
X0166015Y0121418D01*
X0166159Y0121533D01*
X0166300Y0121652D01*
X0166439Y0121774D01*
X0166574Y0121899D01*
X0166706Y0122028D01*
X0166836Y0122160D01*
X0166962Y0122294D01*
X0167084Y0122432D01*
X0167203Y0122573D01*
X0167319Y0122717D01*
X0167432Y0122863D01*
X0167540Y0123012D01*
X0167645Y0123164D01*
X0167747Y0123318D01*
X0167844Y0123475D01*
X0167938Y0123634D01*
X0168028Y0123795D01*
X0154883Y0121969D02*
X0155575Y0122546D01*
X0155574Y0122545D02*
X0155693Y0122408D01*
X0155814Y0122274D01*
X0155939Y0122143D01*
X0156067Y0122015D01*
X0156198Y0121891D01*
X0156332Y0121769D01*
X0156469Y0121650D01*
X0156608Y0121535D01*
X0156751Y0121424D01*
X0156896Y0121315D01*
X0157043Y0121210D01*
X0157193Y0121109D01*
X0157345Y0121012D01*
X0157500Y0120918D01*
X0157657Y0120827D01*
X0157816Y0120741D01*
X0157977Y0120658D01*
X0158140Y0120580D01*
X0158305Y0120505D01*
X0158471Y0120434D01*
X0158639Y0120367D01*
X0158809Y0120305D01*
X0158980Y0120246D01*
X0159153Y0120191D01*
X0159326Y0120141D01*
X0159501Y0120095D01*
X0159677Y0120053D01*
X0159854Y0120015D01*
X0160032Y0119982D01*
X0160211Y0119952D01*
X0160390Y0119927D01*
X0160570Y0119907D01*
X0160750Y0119890D01*
X0160930Y0119878D01*
X0161111Y0119871D01*
X0161292Y0119867D01*
X0161293Y0118968D01*
X0161292Y0118967D01*
X0161089Y0118971D01*
X0160887Y0118979D01*
X0160684Y0118993D01*
X0160482Y0119011D01*
X0160281Y0119034D01*
X0160080Y0119062D01*
X0159880Y0119095D01*
X0159680Y0119132D01*
X0159482Y0119174D01*
X0159284Y0119221D01*
X0159088Y0119273D01*
X0158894Y0119330D01*
X0158700Y0119391D01*
X0158508Y0119456D01*
X0158318Y0119527D01*
X0158129Y0119602D01*
X0157943Y0119681D01*
X0157758Y0119765D01*
X0157575Y0119853D01*
X0157395Y0119946D01*
X0157217Y0120042D01*
X0157041Y0120144D01*
X0156868Y0120249D01*
X0156697Y0120358D01*
X0156529Y0120472D01*
X0156363Y0120589D01*
X0156201Y0120711D01*
X0156041Y0120836D01*
X0155885Y0120965D01*
X0155732Y0121098D01*
X0155582Y0121235D01*
X0155435Y0121375D01*
X0155292Y0121518D01*
X0155152Y0121665D01*
X0155015Y0121815D01*
X0154883Y0121969D01*
X0154955Y0122029D01*
X0155086Y0121877D01*
X0155221Y0121729D01*
X0155359Y0121584D01*
X0155501Y0121442D01*
X0155646Y0121303D01*
X0155794Y0121168D01*
X0155946Y0121037D01*
X0156101Y0120909D01*
X0156258Y0120785D01*
X0156419Y0120665D01*
X0156582Y0120549D01*
X0156749Y0120437D01*
X0156917Y0120329D01*
X0157089Y0120224D01*
X0157263Y0120124D01*
X0157439Y0120029D01*
X0157617Y0119937D01*
X0157798Y0119850D01*
X0157981Y0119767D01*
X0158165Y0119688D01*
X0158351Y0119614D01*
X0158540Y0119545D01*
X0158729Y0119480D01*
X0158921Y0119420D01*
X0159113Y0119364D01*
X0159307Y0119313D01*
X0159502Y0119266D01*
X0159698Y0119224D01*
X0159895Y0119187D01*
X0160093Y0119155D01*
X0160292Y0119127D01*
X0160491Y0119104D01*
X0160691Y0119086D01*
X0160891Y0119073D01*
X0161092Y0119065D01*
X0161292Y0119061D01*
X0161292Y0119155D01*
X0161094Y0119159D01*
X0160896Y0119167D01*
X0160698Y0119180D01*
X0160500Y0119198D01*
X0160303Y0119221D01*
X0160107Y0119248D01*
X0159911Y0119280D01*
X0159717Y0119316D01*
X0159523Y0119358D01*
X0159330Y0119404D01*
X0159138Y0119454D01*
X0158948Y0119510D01*
X0158759Y0119569D01*
X0158571Y0119634D01*
X0158385Y0119702D01*
X0158201Y0119775D01*
X0158018Y0119853D01*
X0157838Y0119935D01*
X0157659Y0120021D01*
X0157483Y0120112D01*
X0157309Y0120206D01*
X0157137Y0120305D01*
X0156967Y0120408D01*
X0156800Y0120515D01*
X0156636Y0120626D01*
X0156475Y0120741D01*
X0156316Y0120860D01*
X0156160Y0120982D01*
X0156007Y0121108D01*
X0155857Y0121238D01*
X0155710Y0121372D01*
X0155567Y0121509D01*
X0155427Y0121649D01*
X0155290Y0121792D01*
X0155157Y0121939D01*
X0155027Y0122089D01*
X0155099Y0122149D01*
X0155228Y0122001D01*
X0155359Y0121856D01*
X0155494Y0121714D01*
X0155633Y0121576D01*
X0155775Y0121440D01*
X0155920Y0121308D01*
X0156068Y0121180D01*
X0156219Y0121055D01*
X0156373Y0120934D01*
X0156530Y0120817D01*
X0156690Y0120703D01*
X0156852Y0120594D01*
X0157017Y0120488D01*
X0157185Y0120386D01*
X0157355Y0120288D01*
X0157527Y0120195D01*
X0157701Y0120105D01*
X0157878Y0120020D01*
X0158056Y0119939D01*
X0158236Y0119862D01*
X0158419Y0119790D01*
X0158602Y0119722D01*
X0158788Y0119659D01*
X0158975Y0119600D01*
X0159163Y0119545D01*
X0159352Y0119495D01*
X0159543Y0119450D01*
X0159735Y0119409D01*
X0159927Y0119372D01*
X0160121Y0119341D01*
X0160315Y0119314D01*
X0160510Y0119292D01*
X0160705Y0119274D01*
X0160900Y0119261D01*
X0161096Y0119253D01*
X0161292Y0119249D01*
X0161292Y0119343D01*
X0161098Y0119347D01*
X0160905Y0119355D01*
X0160712Y0119368D01*
X0160519Y0119385D01*
X0160326Y0119407D01*
X0160134Y0119434D01*
X0159943Y0119465D01*
X0159753Y0119501D01*
X0159563Y0119541D01*
X0159375Y0119586D01*
X0159188Y0119636D01*
X0159002Y0119690D01*
X0158817Y0119748D01*
X0158634Y0119811D01*
X0158452Y0119878D01*
X0158272Y0119949D01*
X0158094Y0120025D01*
X0157917Y0120105D01*
X0157743Y0120189D01*
X0157571Y0120278D01*
X0157401Y0120370D01*
X0157233Y0120467D01*
X0157067Y0120568D01*
X0156904Y0120672D01*
X0156744Y0120780D01*
X0156586Y0120893D01*
X0156431Y0121009D01*
X0156278Y0121128D01*
X0156129Y0121252D01*
X0155982Y0121378D01*
X0155839Y0121509D01*
X0155699Y0121642D01*
X0155562Y0121779D01*
X0155429Y0121920D01*
X0155298Y0122063D01*
X0155172Y0122210D01*
X0155244Y0122270D01*
X0155369Y0122125D01*
X0155498Y0121983D01*
X0155630Y0121845D01*
X0155765Y0121709D01*
X0155904Y0121577D01*
X0156045Y0121448D01*
X0156190Y0121323D01*
X0156337Y0121201D01*
X0156488Y0121083D01*
X0156641Y0120968D01*
X0156797Y0120858D01*
X0156956Y0120750D01*
X0157117Y0120647D01*
X0157281Y0120548D01*
X0157447Y0120452D01*
X0157615Y0120361D01*
X0157785Y0120274D01*
X0157957Y0120190D01*
X0158132Y0120111D01*
X0158308Y0120036D01*
X0158486Y0119966D01*
X0158665Y0119899D01*
X0158846Y0119837D01*
X0159029Y0119780D01*
X0159213Y0119726D01*
X0159398Y0119677D01*
X0159584Y0119633D01*
X0159771Y0119593D01*
X0159959Y0119558D01*
X0160148Y0119527D01*
X0160338Y0119500D01*
X0160528Y0119479D01*
X0160718Y0119461D01*
X0160909Y0119449D01*
X0161101Y0119441D01*
X0161292Y0119437D01*
X0161292Y0119531D01*
X0161103Y0119535D01*
X0160914Y0119543D01*
X0160725Y0119555D01*
X0160537Y0119572D01*
X0160349Y0119594D01*
X0160162Y0119620D01*
X0159975Y0119650D01*
X0159789Y0119685D01*
X0159604Y0119725D01*
X0159420Y0119769D01*
X0159238Y0119817D01*
X0159056Y0119870D01*
X0158876Y0119927D01*
X0158697Y0119988D01*
X0158519Y0120054D01*
X0158343Y0120123D01*
X0158169Y0120197D01*
X0157997Y0120275D01*
X0157827Y0120358D01*
X0157659Y0120444D01*
X0157493Y0120534D01*
X0157329Y0120629D01*
X0157167Y0120727D01*
X0157008Y0120829D01*
X0156851Y0120935D01*
X0156697Y0121044D01*
X0156545Y0121158D01*
X0156397Y0121274D01*
X0156251Y0121395D01*
X0156108Y0121518D01*
X0155968Y0121646D01*
X0155831Y0121776D01*
X0155697Y0121910D01*
X0155567Y0122047D01*
X0155440Y0122187D01*
X0155316Y0122330D01*
X0155388Y0122390D01*
X0155511Y0122249D01*
X0155636Y0122111D01*
X0155765Y0121975D01*
X0155897Y0121843D01*
X0156032Y0121714D01*
X0156171Y0121589D01*
X0156312Y0121466D01*
X0156456Y0121347D01*
X0156603Y0121232D01*
X0156752Y0121120D01*
X0156905Y0121012D01*
X0157060Y0120907D01*
X0157217Y0120807D01*
X0157377Y0120710D01*
X0157538Y0120616D01*
X0157703Y0120527D01*
X0157869Y0120442D01*
X0158037Y0120361D01*
X0158207Y0120283D01*
X0158379Y0120210D01*
X0158553Y0120141D01*
X0158728Y0120077D01*
X0158905Y0120016D01*
X0159083Y0119960D01*
X0159262Y0119908D01*
X0159443Y0119860D01*
X0159625Y0119817D01*
X0159807Y0119778D01*
X0159991Y0119743D01*
X0160175Y0119713D01*
X0160360Y0119687D01*
X0160546Y0119666D01*
X0160732Y0119649D01*
X0160919Y0119637D01*
X0161105Y0119629D01*
X0161292Y0119625D01*
X0161292Y0119719D01*
X0161108Y0119723D01*
X0160923Y0119730D01*
X0160739Y0119743D01*
X0160555Y0119759D01*
X0160372Y0119780D01*
X0160189Y0119806D01*
X0160007Y0119836D01*
X0159826Y0119870D01*
X0159645Y0119908D01*
X0159466Y0119951D01*
X0159287Y0119998D01*
X0159110Y0120050D01*
X0158934Y0120105D01*
X0158759Y0120165D01*
X0158586Y0120229D01*
X0158415Y0120297D01*
X0158245Y0120369D01*
X0158077Y0120446D01*
X0157911Y0120526D01*
X0157747Y0120610D01*
X0157584Y0120698D01*
X0157424Y0120790D01*
X0157267Y0120886D01*
X0157111Y0120986D01*
X0156958Y0121089D01*
X0156808Y0121196D01*
X0156660Y0121306D01*
X0156515Y0121420D01*
X0156373Y0121538D01*
X0156233Y0121659D01*
X0156097Y0121783D01*
X0155963Y0121910D01*
X0155833Y0122041D01*
X0155705Y0122174D01*
X0155581Y0122311D01*
X0155461Y0122450D01*
X0155533Y0122511D01*
X0155652Y0122373D01*
X0155775Y0122238D01*
X0155900Y0122106D01*
X0156029Y0121977D01*
X0156161Y0121851D01*
X0156296Y0121729D01*
X0156434Y0121609D01*
X0156574Y0121493D01*
X0156718Y0121381D01*
X0156864Y0121272D01*
X0157012Y0121166D01*
X0157163Y0121064D01*
X0157317Y0120966D01*
X0157472Y0120871D01*
X0157630Y0120780D01*
X0157791Y0120693D01*
X0157953Y0120610D01*
X0158117Y0120531D01*
X0158283Y0120456D01*
X0158451Y0120384D01*
X0158620Y0120317D01*
X0158791Y0120254D01*
X0158963Y0120195D01*
X0159137Y0120140D01*
X0159312Y0120089D01*
X0159488Y0120042D01*
X0159666Y0120000D01*
X0159844Y0119962D01*
X0160023Y0119928D01*
X0160203Y0119899D01*
X0160383Y0119874D01*
X0160564Y0119853D01*
X0160746Y0119836D01*
X0160928Y0119824D01*
X0161110Y0119817D01*
X0161292Y0119813D01*
X0161293Y0135866D02*
X0161293Y0134966D01*
X0161292Y0134967D02*
X0161108Y0134963D01*
X0160923Y0134955D01*
X0160739Y0134943D01*
X0160556Y0134926D01*
X0160372Y0134904D01*
X0160190Y0134879D01*
X0160008Y0134848D01*
X0159827Y0134813D01*
X0159646Y0134774D01*
X0159467Y0134730D01*
X0159289Y0134682D01*
X0159112Y0134630D01*
X0158936Y0134573D01*
X0158762Y0134513D01*
X0158590Y0134447D01*
X0158419Y0134378D01*
X0158249Y0134305D01*
X0158082Y0134227D01*
X0157917Y0134145D01*
X0157753Y0134060D01*
X0157592Y0133970D01*
X0157433Y0133876D01*
X0157276Y0133779D01*
X0157122Y0133678D01*
X0156970Y0133573D01*
X0156821Y0133464D01*
X0156675Y0133352D01*
X0156531Y0133236D01*
X0156391Y0133117D01*
X0156253Y0132994D01*
X0156118Y0132868D01*
X0155986Y0132739D01*
X0155858Y0132606D01*
X0155733Y0132471D01*
X0155611Y0132332D01*
X0154924Y0132913D01*
X0155060Y0133069D01*
X0155201Y0133221D01*
X0155345Y0133370D01*
X0155492Y0133515D01*
X0155643Y0133656D01*
X0155797Y0133793D01*
X0155955Y0133927D01*
X0156116Y0134057D01*
X0156280Y0134183D01*
X0156447Y0134305D01*
X0156617Y0134423D01*
X0156790Y0134536D01*
X0156966Y0134645D01*
X0157144Y0134750D01*
X0157325Y0134851D01*
X0157508Y0134947D01*
X0157693Y0135039D01*
X0157881Y0135126D01*
X0158071Y0135208D01*
X0158262Y0135286D01*
X0158456Y0135359D01*
X0158651Y0135427D01*
X0158848Y0135491D01*
X0159046Y0135549D01*
X0159246Y0135603D01*
X0159447Y0135652D01*
X0159649Y0135696D01*
X0159852Y0135735D01*
X0160056Y0135769D01*
X0160261Y0135798D01*
X0160466Y0135822D01*
X0160672Y0135840D01*
X0160879Y0135854D01*
X0161085Y0135863D01*
X0161292Y0135867D01*
X0161292Y0135773D01*
X0161088Y0135769D01*
X0160883Y0135760D01*
X0160679Y0135747D01*
X0160476Y0135728D01*
X0160273Y0135704D01*
X0160070Y0135676D01*
X0159868Y0135642D01*
X0159668Y0135604D01*
X0159468Y0135560D01*
X0159269Y0135512D01*
X0159072Y0135459D01*
X0158875Y0135401D01*
X0158681Y0135338D01*
X0158488Y0135270D01*
X0158296Y0135198D01*
X0158107Y0135121D01*
X0157919Y0135040D01*
X0157734Y0134954D01*
X0157551Y0134863D01*
X0157369Y0134768D01*
X0157191Y0134669D01*
X0157015Y0134565D01*
X0156841Y0134457D01*
X0156670Y0134345D01*
X0156502Y0134228D01*
X0156337Y0134108D01*
X0156174Y0133983D01*
X0156015Y0133855D01*
X0155859Y0133723D01*
X0155707Y0133587D01*
X0155557Y0133447D01*
X0155412Y0133304D01*
X0155269Y0133157D01*
X0155131Y0133006D01*
X0154996Y0132853D01*
X0155067Y0132792D01*
X0155201Y0132944D01*
X0155338Y0133093D01*
X0155479Y0133238D01*
X0155623Y0133379D01*
X0155770Y0133518D01*
X0155921Y0133652D01*
X0156075Y0133783D01*
X0156233Y0133910D01*
X0156393Y0134033D01*
X0156557Y0134152D01*
X0156723Y0134267D01*
X0156892Y0134378D01*
X0157063Y0134485D01*
X0157238Y0134587D01*
X0157414Y0134686D01*
X0157593Y0134780D01*
X0157775Y0134869D01*
X0157958Y0134954D01*
X0158143Y0135035D01*
X0158331Y0135111D01*
X0158520Y0135182D01*
X0158711Y0135249D01*
X0158903Y0135311D01*
X0159097Y0135368D01*
X0159292Y0135421D01*
X0159489Y0135468D01*
X0159686Y0135511D01*
X0159885Y0135549D01*
X0160084Y0135583D01*
X0160284Y0135611D01*
X0160485Y0135634D01*
X0160686Y0135653D01*
X0160888Y0135667D01*
X0161090Y0135675D01*
X0161292Y0135679D01*
X0161292Y0135585D01*
X0161092Y0135581D01*
X0160893Y0135573D01*
X0160693Y0135559D01*
X0160494Y0135541D01*
X0160296Y0135518D01*
X0160098Y0135490D01*
X0159901Y0135457D01*
X0159705Y0135419D01*
X0159509Y0135377D01*
X0159315Y0135330D01*
X0159122Y0135278D01*
X0158931Y0135221D01*
X0158740Y0135160D01*
X0158552Y0135094D01*
X0158365Y0135023D01*
X0158180Y0134948D01*
X0157996Y0134868D01*
X0157815Y0134784D01*
X0157636Y0134696D01*
X0157459Y0134603D01*
X0157284Y0134506D01*
X0157112Y0134404D01*
X0156943Y0134299D01*
X0156775Y0134189D01*
X0156611Y0134075D01*
X0156450Y0133958D01*
X0156291Y0133836D01*
X0156136Y0133711D01*
X0155983Y0133581D01*
X0155834Y0133448D01*
X0155688Y0133312D01*
X0155546Y0133172D01*
X0155407Y0133028D01*
X0155271Y0132881D01*
X0155139Y0132731D01*
X0155211Y0132671D01*
X0155341Y0132819D01*
X0155475Y0132964D01*
X0155613Y0133106D01*
X0155754Y0133244D01*
X0155898Y0133379D01*
X0156045Y0133511D01*
X0156196Y0133638D01*
X0156350Y0133762D01*
X0156506Y0133883D01*
X0156666Y0133999D01*
X0156828Y0134111D01*
X0156993Y0134220D01*
X0157161Y0134324D01*
X0157331Y0134424D01*
X0157504Y0134520D01*
X0157679Y0134612D01*
X0157856Y0134700D01*
X0158035Y0134783D01*
X0158216Y0134861D01*
X0158399Y0134936D01*
X0158584Y0135005D01*
X0158770Y0135070D01*
X0158958Y0135131D01*
X0159148Y0135187D01*
X0159338Y0135238D01*
X0159530Y0135285D01*
X0159723Y0135327D01*
X0159917Y0135364D01*
X0160112Y0135397D01*
X0160308Y0135424D01*
X0160504Y0135447D01*
X0160700Y0135465D01*
X0160897Y0135479D01*
X0161095Y0135487D01*
X0161292Y0135491D01*
X0161292Y0135397D01*
X0161097Y0135393D01*
X0160902Y0135385D01*
X0160707Y0135372D01*
X0160513Y0135354D01*
X0160319Y0135331D01*
X0160126Y0135304D01*
X0159933Y0135272D01*
X0159742Y0135235D01*
X0159551Y0135193D01*
X0159361Y0135147D01*
X0159173Y0135097D01*
X0158986Y0135041D01*
X0158800Y0134981D01*
X0158616Y0134917D01*
X0158433Y0134848D01*
X0158252Y0134775D01*
X0158073Y0134697D01*
X0157896Y0134615D01*
X0157721Y0134528D01*
X0157549Y0134438D01*
X0157378Y0134343D01*
X0157210Y0134244D01*
X0157044Y0134141D01*
X0156881Y0134034D01*
X0156720Y0133923D01*
X0156563Y0133808D01*
X0156408Y0133689D01*
X0156256Y0133566D01*
X0156107Y0133440D01*
X0155961Y0133310D01*
X0155819Y0133177D01*
X0155680Y0133040D01*
X0155544Y0132900D01*
X0155412Y0132756D01*
X0155283Y0132610D01*
X0155355Y0132549D01*
X0155482Y0132694D01*
X0155613Y0132836D01*
X0155747Y0132974D01*
X0155884Y0133109D01*
X0156025Y0133241D01*
X0156169Y0133369D01*
X0156316Y0133494D01*
X0156466Y0133615D01*
X0156619Y0133732D01*
X0156775Y0133846D01*
X0156934Y0133956D01*
X0157095Y0134062D01*
X0157259Y0134163D01*
X0157425Y0134261D01*
X0157593Y0134355D01*
X0157764Y0134445D01*
X0157937Y0134530D01*
X0158112Y0134611D01*
X0158289Y0134688D01*
X0158467Y0134760D01*
X0158648Y0134829D01*
X0158830Y0134892D01*
X0159013Y0134951D01*
X0159198Y0135006D01*
X0159384Y0135056D01*
X0159572Y0135102D01*
X0159760Y0135143D01*
X0159950Y0135179D01*
X0160140Y0135211D01*
X0160331Y0135238D01*
X0160522Y0135260D01*
X0160714Y0135278D01*
X0160907Y0135291D01*
X0161099Y0135299D01*
X0161292Y0135303D01*
X0161292Y0135209D01*
X0161102Y0135205D01*
X0160911Y0135197D01*
X0160721Y0135184D01*
X0160532Y0135167D01*
X0160342Y0135145D01*
X0160154Y0135118D01*
X0159966Y0135087D01*
X0159779Y0135051D01*
X0159593Y0135010D01*
X0159408Y0134965D01*
X0159224Y0134916D01*
X0159041Y0134861D01*
X0158860Y0134803D01*
X0158680Y0134740D01*
X0158502Y0134673D01*
X0158325Y0134601D01*
X0158150Y0134525D01*
X0157978Y0134445D01*
X0157807Y0134361D01*
X0157638Y0134272D01*
X0157472Y0134180D01*
X0157307Y0134083D01*
X0157146Y0133983D01*
X0156986Y0133878D01*
X0156830Y0133770D01*
X0156676Y0133657D01*
X0156525Y0133541D01*
X0156376Y0133422D01*
X0156231Y0133299D01*
X0156089Y0133172D01*
X0155950Y0133042D01*
X0155814Y0132908D01*
X0155681Y0132772D01*
X0155552Y0132632D01*
X0155426Y0132488D01*
X0155498Y0132428D01*
X0155622Y0132569D01*
X0155750Y0132707D01*
X0155881Y0132842D01*
X0156015Y0132974D01*
X0156152Y0133103D01*
X0156293Y0133228D01*
X0156437Y0133350D01*
X0156583Y0133468D01*
X0156732Y0133582D01*
X0156884Y0133693D01*
X0157039Y0133800D01*
X0157196Y0133903D01*
X0157356Y0134003D01*
X0157518Y0134098D01*
X0157683Y0134190D01*
X0157849Y0134277D01*
X0158018Y0134360D01*
X0158189Y0134440D01*
X0158361Y0134515D01*
X0158536Y0134585D01*
X0158712Y0134652D01*
X0158889Y0134714D01*
X0159069Y0134772D01*
X0159249Y0134825D01*
X0159431Y0134874D01*
X0159613Y0134918D01*
X0159797Y0134958D01*
X0159982Y0134994D01*
X0160168Y0135025D01*
X0160354Y0135051D01*
X0160541Y0135073D01*
X0160728Y0135090D01*
X0160916Y0135103D01*
X0161104Y0135111D01*
X0161292Y0135115D01*
X0161292Y0135021D01*
X0161106Y0135017D01*
X0160921Y0135009D01*
X0160735Y0134997D01*
X0160550Y0134980D01*
X0160366Y0134958D01*
X0160182Y0134932D01*
X0159998Y0134901D01*
X0159816Y0134866D01*
X0159634Y0134827D01*
X0159454Y0134783D01*
X0159274Y0134734D01*
X0159096Y0134682D01*
X0158919Y0134625D01*
X0158744Y0134563D01*
X0158570Y0134498D01*
X0158398Y0134428D01*
X0158227Y0134354D01*
X0158059Y0134276D01*
X0157892Y0134193D01*
X0157728Y0134107D01*
X0157565Y0134017D01*
X0157405Y0133922D01*
X0157247Y0133824D01*
X0157092Y0133722D01*
X0156939Y0133617D01*
X0156789Y0133507D01*
X0156641Y0133394D01*
X0156497Y0133277D01*
X0156355Y0133157D01*
X0156216Y0133034D01*
X0156080Y0132907D01*
X0155948Y0132777D01*
X0155819Y0132643D01*
X0155692Y0132507D01*
X0155570Y0132367D01*
X0014938Y0043366D02*
X0015784Y0043674D01*
X0015850Y0043503D01*
X0015920Y0043333D01*
X0015994Y0043166D01*
X0016072Y0043000D01*
X0016154Y0042836D01*
X0016240Y0042675D01*
X0016330Y0042515D01*
X0016424Y0042358D01*
X0016521Y0042203D01*
X0016623Y0042050D01*
X0016728Y0041900D01*
X0016836Y0041753D01*
X0016948Y0041608D01*
X0017064Y0041466D01*
X0017183Y0041327D01*
X0017306Y0041190D01*
X0017431Y0041057D01*
X0017560Y0040927D01*
X0017692Y0040800D01*
X0017827Y0040676D01*
X0017965Y0040556D01*
X0018106Y0040438D01*
X0018250Y0040325D01*
X0018396Y0040215D01*
X0018545Y0040108D01*
X0018697Y0040005D01*
X0018851Y0039906D01*
X0019007Y0039811D01*
X0019166Y0039719D01*
X0019327Y0039631D01*
X0019489Y0039548D01*
X0019654Y0039468D01*
X0019821Y0039392D01*
X0019990Y0039320D01*
X0020160Y0039253D01*
X0020332Y0039189D01*
X0020505Y0039130D01*
X0020680Y0039075D01*
X0020856Y0039024D01*
X0021033Y0038978D01*
X0021211Y0038935D01*
X0021391Y0038898D01*
X0021571Y0038864D01*
X0021751Y0038835D01*
X0021626Y0037944D01*
X0021625Y0037944D01*
X0021422Y0037976D01*
X0021221Y0038014D01*
X0021020Y0038056D01*
X0020820Y0038103D01*
X0020621Y0038155D01*
X0020424Y0038212D01*
X0020228Y0038274D01*
X0020034Y0038340D01*
X0019841Y0038411D01*
X0019650Y0038487D01*
X0019461Y0038567D01*
X0019275Y0038652D01*
X0019090Y0038741D01*
X0018907Y0038835D01*
X0018727Y0038933D01*
X0018549Y0039036D01*
X0018374Y0039143D01*
X0018201Y0039254D01*
X0018031Y0039369D01*
X0017864Y0039489D01*
X0017700Y0039612D01*
X0017539Y0039739D01*
X0017381Y0039871D01*
X0017227Y0040006D01*
X0017075Y0040144D01*
X0016928Y0040287D01*
X0016783Y0040433D01*
X0016642Y0040582D01*
X0016505Y0040735D01*
X0016372Y0040891D01*
X0016242Y0041050D01*
X0016117Y0041212D01*
X0015995Y0041378D01*
X0015877Y0041546D01*
X0015764Y0041717D01*
X0015654Y0041891D01*
X0015549Y0042067D01*
X0015449Y0042246D01*
X0015352Y0042427D01*
X0015260Y0042611D01*
X0015173Y0042797D01*
X0015090Y0042984D01*
X0015012Y0043174D01*
X0014938Y0043366D01*
X0015026Y0043398D01*
X0015099Y0043208D01*
X0015177Y0043021D01*
X0015259Y0042835D01*
X0015345Y0042652D01*
X0015436Y0042470D01*
X0015531Y0042291D01*
X0015631Y0042114D01*
X0015735Y0041940D01*
X0015843Y0041768D01*
X0015955Y0041599D01*
X0016071Y0041432D01*
X0016192Y0041269D01*
X0016316Y0041108D01*
X0016444Y0040951D01*
X0016576Y0040797D01*
X0016712Y0040646D01*
X0016851Y0040498D01*
X0016994Y0040354D01*
X0017140Y0040213D01*
X0017289Y0040076D01*
X0017442Y0039942D01*
X0017598Y0039812D01*
X0017758Y0039686D01*
X0017920Y0039564D01*
X0018085Y0039446D01*
X0018253Y0039332D01*
X0018424Y0039223D01*
X0018597Y0039117D01*
X0018773Y0039015D01*
X0018951Y0038918D01*
X0019132Y0038825D01*
X0019314Y0038737D01*
X0019499Y0038653D01*
X0019686Y0038574D01*
X0019875Y0038499D01*
X0020065Y0038429D01*
X0020257Y0038363D01*
X0020451Y0038302D01*
X0020646Y0038246D01*
X0020842Y0038195D01*
X0021040Y0038148D01*
X0021238Y0038106D01*
X0021438Y0038069D01*
X0021638Y0038037D01*
X0021651Y0038130D01*
X0021453Y0038162D01*
X0021256Y0038198D01*
X0021060Y0038240D01*
X0020864Y0038286D01*
X0020670Y0038337D01*
X0020477Y0038392D01*
X0020286Y0038453D01*
X0020096Y0038517D01*
X0019908Y0038587D01*
X0019721Y0038661D01*
X0019537Y0038739D01*
X0019354Y0038822D01*
X0019173Y0038910D01*
X0018995Y0039001D01*
X0018819Y0039097D01*
X0018645Y0039198D01*
X0018473Y0039302D01*
X0018305Y0039411D01*
X0018139Y0039524D01*
X0017975Y0039640D01*
X0017815Y0039761D01*
X0017658Y0039885D01*
X0017503Y0040014D01*
X0017352Y0040146D01*
X0017204Y0040281D01*
X0017060Y0040420D01*
X0016918Y0040563D01*
X0016781Y0040709D01*
X0016647Y0040858D01*
X0016516Y0041011D01*
X0016390Y0041167D01*
X0016267Y0041325D01*
X0016148Y0041487D01*
X0016033Y0041651D01*
X0015922Y0041819D01*
X0015815Y0041988D01*
X0015712Y0042161D01*
X0015614Y0042336D01*
X0015520Y0042513D01*
X0015430Y0042692D01*
X0015344Y0042874D01*
X0015263Y0043057D01*
X0015187Y0043243D01*
X0015115Y0043430D01*
X0015203Y0043462D01*
X0015274Y0043277D01*
X0015350Y0043094D01*
X0015430Y0042912D01*
X0015515Y0042733D01*
X0015603Y0042555D01*
X0015697Y0042380D01*
X0015794Y0042208D01*
X0015895Y0042037D01*
X0016001Y0041869D01*
X0016111Y0041704D01*
X0016224Y0041541D01*
X0016342Y0041382D01*
X0016463Y0041225D01*
X0016589Y0041071D01*
X0016718Y0040920D01*
X0016850Y0040773D01*
X0016986Y0040628D01*
X0017126Y0040487D01*
X0017269Y0040350D01*
X0017415Y0040216D01*
X0017564Y0040085D01*
X0017717Y0039958D01*
X0017872Y0039835D01*
X0018031Y0039716D01*
X0018192Y0039601D01*
X0018356Y0039489D01*
X0018523Y0039382D01*
X0018693Y0039279D01*
X0018864Y0039180D01*
X0019039Y0039085D01*
X0019215Y0038994D01*
X0019394Y0038908D01*
X0019574Y0038825D01*
X0019757Y0038748D01*
X0019941Y0038675D01*
X0020127Y0038606D01*
X0020315Y0038542D01*
X0020504Y0038482D01*
X0020695Y0038427D01*
X0020887Y0038377D01*
X0021080Y0038332D01*
X0021274Y0038291D01*
X0021469Y0038255D01*
X0021665Y0038223D01*
X0021678Y0038316D01*
X0021484Y0038347D01*
X0021292Y0038383D01*
X0021100Y0038423D01*
X0020909Y0038469D01*
X0020719Y0038518D01*
X0020531Y0038573D01*
X0020344Y0038631D01*
X0020158Y0038695D01*
X0019974Y0038763D01*
X0019792Y0038835D01*
X0019612Y0038912D01*
X0019433Y0038993D01*
X0019257Y0039078D01*
X0019082Y0039168D01*
X0018910Y0039262D01*
X0018740Y0039360D01*
X0018573Y0039462D01*
X0018408Y0039568D01*
X0018246Y0039678D01*
X0018087Y0039792D01*
X0017930Y0039910D01*
X0017776Y0040031D01*
X0017625Y0040157D01*
X0017478Y0040286D01*
X0017333Y0040418D01*
X0017192Y0040554D01*
X0017054Y0040693D01*
X0016919Y0040836D01*
X0016788Y0040982D01*
X0016661Y0041131D01*
X0016537Y0041283D01*
X0016417Y0041438D01*
X0016301Y0041596D01*
X0016189Y0041757D01*
X0016080Y0041920D01*
X0015976Y0042086D01*
X0015875Y0042254D01*
X0015779Y0042425D01*
X0015687Y0042598D01*
X0015599Y0042774D01*
X0015516Y0042951D01*
X0015437Y0043130D01*
X0015362Y0043311D01*
X0015291Y0043494D01*
X0015380Y0043527D01*
X0015449Y0043346D01*
X0015523Y0043167D01*
X0015601Y0042989D01*
X0015684Y0042814D01*
X0015771Y0042641D01*
X0015862Y0042470D01*
X0015957Y0042301D01*
X0016056Y0042135D01*
X0016159Y0041971D01*
X0016267Y0041809D01*
X0016378Y0041651D01*
X0016492Y0041495D01*
X0016611Y0041341D01*
X0016733Y0041191D01*
X0016859Y0041044D01*
X0016989Y0040900D01*
X0017122Y0040759D01*
X0017258Y0040621D01*
X0017397Y0040487D01*
X0017540Y0040356D01*
X0017686Y0040228D01*
X0017835Y0040104D01*
X0017987Y0039984D01*
X0018142Y0039868D01*
X0018300Y0039755D01*
X0018460Y0039646D01*
X0018623Y0039541D01*
X0018788Y0039441D01*
X0018956Y0039344D01*
X0019126Y0039251D01*
X0019298Y0039162D01*
X0019473Y0039078D01*
X0019649Y0038998D01*
X0019828Y0038922D01*
X0020008Y0038851D01*
X0020189Y0038783D01*
X0020373Y0038721D01*
X0020558Y0038663D01*
X0020744Y0038609D01*
X0020931Y0038560D01*
X0021120Y0038515D01*
X0021309Y0038475D01*
X0021500Y0038440D01*
X0021691Y0038409D01*
X0021704Y0038502D01*
X0021515Y0038533D01*
X0021327Y0038568D01*
X0021140Y0038607D01*
X0020953Y0038651D01*
X0020768Y0038700D01*
X0020584Y0038753D01*
X0020402Y0038810D01*
X0020221Y0038872D01*
X0020041Y0038938D01*
X0019863Y0039009D01*
X0019687Y0039084D01*
X0019513Y0039163D01*
X0019340Y0039247D01*
X0019170Y0039334D01*
X0019002Y0039426D01*
X0018836Y0039521D01*
X0018673Y0039621D01*
X0018512Y0039725D01*
X0018353Y0039832D01*
X0018198Y0039944D01*
X0018045Y0040059D01*
X0017894Y0040177D01*
X0017747Y0040300D01*
X0017603Y0040426D01*
X0017462Y0040555D01*
X0017324Y0040688D01*
X0017189Y0040824D01*
X0017058Y0040963D01*
X0016930Y0041106D01*
X0016806Y0041251D01*
X0016685Y0041400D01*
X0016568Y0041551D01*
X0016454Y0041705D01*
X0016344Y0041862D01*
X0016239Y0042021D01*
X0016137Y0042183D01*
X0016039Y0042348D01*
X0015945Y0042515D01*
X0015855Y0042684D01*
X0015769Y0042855D01*
X0015687Y0043028D01*
X0015610Y0043203D01*
X0015537Y0043380D01*
X0015468Y0043559D01*
X0015556Y0043591D01*
X0015624Y0043414D01*
X0015696Y0043240D01*
X0015773Y0043067D01*
X0015854Y0042895D01*
X0015938Y0042726D01*
X0016027Y0042559D01*
X0016120Y0042395D01*
X0016217Y0042232D01*
X0016318Y0042072D01*
X0016422Y0041915D01*
X0016531Y0041760D01*
X0016643Y0041607D01*
X0016759Y0041458D01*
X0016878Y0041311D01*
X0017001Y0041167D01*
X0017127Y0041027D01*
X0017257Y0040889D01*
X0017390Y0040755D01*
X0017526Y0040624D01*
X0017666Y0040496D01*
X0017808Y0040371D01*
X0017954Y0040250D01*
X0018102Y0040133D01*
X0018253Y0040019D01*
X0018407Y0039909D01*
X0018563Y0039803D01*
X0018723Y0039701D01*
X0018884Y0039602D01*
X0019048Y0039508D01*
X0019214Y0039417D01*
X0019382Y0039331D01*
X0019552Y0039248D01*
X0019724Y0039170D01*
X0019898Y0039096D01*
X0020074Y0039026D01*
X0020252Y0038961D01*
X0020431Y0038900D01*
X0020611Y0038843D01*
X0020793Y0038791D01*
X0020976Y0038743D01*
X0021160Y0038699D01*
X0021345Y0038660D01*
X0021531Y0038625D01*
X0021717Y0038595D01*
X0021731Y0038688D01*
X0021546Y0038718D01*
X0021363Y0038752D01*
X0021180Y0038791D01*
X0020998Y0038834D01*
X0020817Y0038881D01*
X0020638Y0038933D01*
X0020460Y0038989D01*
X0020283Y0039050D01*
X0020108Y0039114D01*
X0019934Y0039183D01*
X0019762Y0039256D01*
X0019592Y0039334D01*
X0019424Y0039415D01*
X0019258Y0039500D01*
X0019094Y0039590D01*
X0018932Y0039683D01*
X0018772Y0039781D01*
X0018615Y0039882D01*
X0018461Y0039987D01*
X0018309Y0040095D01*
X0018159Y0040208D01*
X0018013Y0040323D01*
X0017869Y0040443D01*
X0017728Y0040566D01*
X0017591Y0040692D01*
X0017456Y0040822D01*
X0017325Y0040954D01*
X0017197Y0041090D01*
X0017072Y0041229D01*
X0016950Y0041371D01*
X0016832Y0041516D01*
X0016718Y0041664D01*
X0016607Y0041814D01*
X0016500Y0041967D01*
X0016397Y0042123D01*
X0016297Y0042281D01*
X0016202Y0042442D01*
X0016110Y0042604D01*
X0016022Y0042769D01*
X0015938Y0042936D01*
X0015859Y0043105D01*
X0015783Y0043276D01*
X0015712Y0043449D01*
X0015645Y0043623D01*
X0015733Y0043655D01*
X0015799Y0043483D01*
X0015870Y0043312D01*
X0015944Y0043144D01*
X0016023Y0042977D01*
X0016106Y0042812D01*
X0016192Y0042649D01*
X0016283Y0042488D01*
X0016378Y0042330D01*
X0016476Y0042174D01*
X0016578Y0042020D01*
X0016684Y0041869D01*
X0016793Y0041720D01*
X0016906Y0041574D01*
X0017023Y0041431D01*
X0017143Y0041291D01*
X0017266Y0041154D01*
X0017392Y0041020D01*
X0017522Y0040888D01*
X0017655Y0040760D01*
X0017791Y0040636D01*
X0017930Y0040514D01*
X0018072Y0040396D01*
X0018217Y0040282D01*
X0018364Y0040171D01*
X0018514Y0040064D01*
X0018667Y0039960D01*
X0018822Y0039860D01*
X0018980Y0039764D01*
X0019139Y0039672D01*
X0019301Y0039584D01*
X0019465Y0039499D01*
X0019632Y0039419D01*
X0019800Y0039343D01*
X0019969Y0039270D01*
X0020141Y0039202D01*
X0020314Y0039138D01*
X0020488Y0039079D01*
X0020664Y0039023D01*
X0020842Y0038972D01*
X0021020Y0038925D01*
X0021200Y0038883D01*
X0021380Y0038845D01*
X0021562Y0038811D01*
X0021744Y0038782D01*
X0029342Y0040881D02*
X0028655Y0041462D01*
X0028770Y0041603D01*
X0028882Y0041747D01*
X0028990Y0041894D01*
X0029095Y0042043D01*
X0029196Y0042195D01*
X0029293Y0042349D01*
X0029387Y0042505D01*
X0029477Y0042664D01*
X0029563Y0042825D01*
X0029645Y0042988D01*
X0029723Y0043153D01*
X0029797Y0043319D01*
X0029867Y0043488D01*
X0029933Y0043658D01*
X0029995Y0043829D01*
X0030052Y0044002D01*
X0030106Y0044176D01*
X0030155Y0044352D01*
X0030200Y0044529D01*
X0030240Y0044706D01*
X0030277Y0044885D01*
X0030309Y0045064D01*
X0030337Y0045245D01*
X0030360Y0045425D01*
X0030379Y0045607D01*
X0030394Y0045789D01*
X0030404Y0045971D01*
X0030410Y0046153D01*
X0030411Y0046335D01*
X0030408Y0046517D01*
X0030401Y0046700D01*
X0030389Y0046882D01*
X0030373Y0047063D01*
X0030352Y0047244D01*
X0030327Y0047425D01*
X0030298Y0047605D01*
X0030264Y0047784D01*
X0030226Y0047962D01*
X0030184Y0048140D01*
X0030137Y0048316D01*
X0030087Y0048491D01*
X0030032Y0048665D01*
X0029973Y0048837D01*
X0030818Y0049145D01*
X0030885Y0048952D01*
X0030946Y0048757D01*
X0031003Y0048561D01*
X0031056Y0048363D01*
X0031103Y0048165D01*
X0031146Y0047965D01*
X0031184Y0047764D01*
X0031216Y0047562D01*
X0031245Y0047360D01*
X0031268Y0047157D01*
X0031286Y0046953D01*
X0031299Y0046750D01*
X0031307Y0046545D01*
X0031311Y0046341D01*
X0031309Y0046137D01*
X0031303Y0045933D01*
X0031292Y0045729D01*
X0031275Y0045525D01*
X0031254Y0045322D01*
X0031228Y0045119D01*
X0031197Y0044917D01*
X0031161Y0044716D01*
X0031120Y0044516D01*
X0031074Y0044317D01*
X0031024Y0044118D01*
X0030969Y0043922D01*
X0030909Y0043726D01*
X0030844Y0043533D01*
X0030775Y0043340D01*
X0030701Y0043150D01*
X0030623Y0042961D01*
X0030539Y0042775D01*
X0030452Y0042590D01*
X0030360Y0042407D01*
X0030264Y0042227D01*
X0030163Y0042049D01*
X0030058Y0041874D01*
X0029949Y0041701D01*
X0029835Y0041531D01*
X0029718Y0041364D01*
X0029597Y0041200D01*
X0029471Y0041038D01*
X0029342Y0040880D01*
X0029270Y0040941D01*
X0029398Y0041097D01*
X0029522Y0041257D01*
X0029642Y0041419D01*
X0029758Y0041585D01*
X0029870Y0041753D01*
X0029978Y0041924D01*
X0030082Y0042097D01*
X0030181Y0042273D01*
X0030277Y0042451D01*
X0030368Y0042631D01*
X0030454Y0042814D01*
X0030536Y0042999D01*
X0030614Y0043185D01*
X0030687Y0043373D01*
X0030756Y0043564D01*
X0030819Y0043755D01*
X0030879Y0043948D01*
X0030933Y0044143D01*
X0030983Y0044339D01*
X0031028Y0044536D01*
X0031068Y0044734D01*
X0031104Y0044932D01*
X0031135Y0045132D01*
X0031161Y0045333D01*
X0031182Y0045533D01*
X0031198Y0045735D01*
X0031209Y0045937D01*
X0031215Y0046138D01*
X0031217Y0046341D01*
X0031214Y0046543D01*
X0031205Y0046744D01*
X0031192Y0046946D01*
X0031174Y0047147D01*
X0031151Y0047348D01*
X0031124Y0047548D01*
X0031091Y0047747D01*
X0031054Y0047946D01*
X0031012Y0048144D01*
X0030965Y0048340D01*
X0030913Y0048535D01*
X0030857Y0048729D01*
X0030796Y0048922D01*
X0030730Y0049113D01*
X0030642Y0049081D01*
X0030707Y0048892D01*
X0030767Y0048702D01*
X0030823Y0048510D01*
X0030874Y0048317D01*
X0030920Y0048122D01*
X0030962Y0047927D01*
X0030999Y0047731D01*
X0031031Y0047534D01*
X0031058Y0047336D01*
X0031081Y0047137D01*
X0031098Y0046938D01*
X0031111Y0046739D01*
X0031120Y0046540D01*
X0031123Y0046340D01*
X0031121Y0046140D01*
X0031115Y0045941D01*
X0031104Y0045741D01*
X0031088Y0045542D01*
X0031067Y0045343D01*
X0031042Y0045145D01*
X0031011Y0044948D01*
X0030976Y0044751D01*
X0030936Y0044556D01*
X0030892Y0044361D01*
X0030842Y0044167D01*
X0030789Y0043975D01*
X0030730Y0043784D01*
X0030667Y0043594D01*
X0030599Y0043407D01*
X0030527Y0043220D01*
X0030450Y0043036D01*
X0030369Y0042853D01*
X0030283Y0042673D01*
X0030193Y0042495D01*
X0030099Y0042319D01*
X0030001Y0042145D01*
X0029898Y0041973D01*
X0029792Y0041804D01*
X0029681Y0041638D01*
X0029566Y0041475D01*
X0029447Y0041314D01*
X0029325Y0041156D01*
X0029199Y0041002D01*
X0029127Y0041062D01*
X0029252Y0041215D01*
X0029373Y0041371D01*
X0029490Y0041530D01*
X0029604Y0041692D01*
X0029713Y0041856D01*
X0029818Y0042023D01*
X0029920Y0042192D01*
X0030017Y0042364D01*
X0030110Y0042538D01*
X0030199Y0042715D01*
X0030284Y0042893D01*
X0030364Y0043073D01*
X0030440Y0043256D01*
X0030511Y0043440D01*
X0030578Y0043625D01*
X0030640Y0043813D01*
X0030698Y0044002D01*
X0030752Y0044192D01*
X0030800Y0044383D01*
X0030844Y0044575D01*
X0030884Y0044769D01*
X0030919Y0044963D01*
X0030949Y0045158D01*
X0030974Y0045354D01*
X0030994Y0045551D01*
X0031010Y0045747D01*
X0031021Y0045944D01*
X0031027Y0046142D01*
X0031029Y0046339D01*
X0031026Y0046537D01*
X0031018Y0046734D01*
X0031005Y0046931D01*
X0030987Y0047128D01*
X0030965Y0047324D01*
X0030938Y0047519D01*
X0030906Y0047714D01*
X0030870Y0047908D01*
X0030828Y0048101D01*
X0030783Y0048293D01*
X0030732Y0048484D01*
X0030677Y0048674D01*
X0030617Y0048862D01*
X0030553Y0049049D01*
X0030465Y0049017D01*
X0030528Y0048832D01*
X0030587Y0048646D01*
X0030642Y0048459D01*
X0030691Y0048270D01*
X0030737Y0048080D01*
X0030777Y0047889D01*
X0030813Y0047698D01*
X0030845Y0047505D01*
X0030872Y0047312D01*
X0030894Y0047118D01*
X0030911Y0046923D01*
X0030924Y0046729D01*
X0030932Y0046534D01*
X0030935Y0046339D01*
X0030933Y0046143D01*
X0030927Y0045948D01*
X0030916Y0045754D01*
X0030901Y0045559D01*
X0030880Y0045365D01*
X0030855Y0045171D01*
X0030826Y0044979D01*
X0030792Y0044787D01*
X0030753Y0044595D01*
X0030709Y0044405D01*
X0030661Y0044216D01*
X0030608Y0044028D01*
X0030551Y0043842D01*
X0030489Y0043656D01*
X0030423Y0043473D01*
X0030353Y0043291D01*
X0030278Y0043111D01*
X0030198Y0042932D01*
X0030115Y0042756D01*
X0030027Y0042582D01*
X0029935Y0042410D01*
X0029839Y0042240D01*
X0029739Y0042073D01*
X0029634Y0041908D01*
X0029526Y0041745D01*
X0029414Y0041585D01*
X0029298Y0041428D01*
X0029179Y0041274D01*
X0029055Y0041123D01*
X0028983Y0041184D01*
X0029105Y0041333D01*
X0029224Y0041486D01*
X0029338Y0041641D01*
X0029449Y0041799D01*
X0029556Y0041959D01*
X0029659Y0042122D01*
X0029758Y0042288D01*
X0029853Y0042455D01*
X0029944Y0042625D01*
X0030030Y0042798D01*
X0030113Y0042972D01*
X0030191Y0043148D01*
X0030265Y0043326D01*
X0030335Y0043506D01*
X0030401Y0043687D01*
X0030461Y0043870D01*
X0030518Y0044055D01*
X0030570Y0044240D01*
X0030618Y0044427D01*
X0030661Y0044615D01*
X0030699Y0044804D01*
X0030733Y0044994D01*
X0030762Y0045185D01*
X0030787Y0045376D01*
X0030807Y0045568D01*
X0030823Y0045760D01*
X0030833Y0045952D01*
X0030839Y0046145D01*
X0030841Y0046338D01*
X0030838Y0046531D01*
X0030830Y0046723D01*
X0030817Y0046916D01*
X0030800Y0047108D01*
X0030778Y0047300D01*
X0030752Y0047491D01*
X0030721Y0047681D01*
X0030685Y0047870D01*
X0030645Y0048059D01*
X0030600Y0048247D01*
X0030551Y0048433D01*
X0030497Y0048618D01*
X0030439Y0048802D01*
X0030377Y0048984D01*
X0030288Y0048952D01*
X0030350Y0048772D01*
X0030408Y0048590D01*
X0030461Y0048407D01*
X0030509Y0048223D01*
X0030554Y0048038D01*
X0030593Y0047852D01*
X0030628Y0047664D01*
X0030659Y0047476D01*
X0030685Y0047287D01*
X0030707Y0047098D01*
X0030724Y0046908D01*
X0030736Y0046718D01*
X0030744Y0046528D01*
X0030747Y0046337D01*
X0030745Y0046147D01*
X0030739Y0045956D01*
X0030729Y0045766D01*
X0030714Y0045576D01*
X0030694Y0045387D01*
X0030669Y0045198D01*
X0030640Y0045009D01*
X0030607Y0044822D01*
X0030569Y0044635D01*
X0030526Y0044449D01*
X0030479Y0044265D01*
X0030428Y0044081D01*
X0030372Y0043899D01*
X0030312Y0043718D01*
X0030247Y0043539D01*
X0030178Y0043361D01*
X0030105Y0043186D01*
X0030028Y0043011D01*
X0029946Y0042839D01*
X0029860Y0042669D01*
X0029771Y0042501D01*
X0029677Y0042335D01*
X0029579Y0042172D01*
X0029477Y0042011D01*
X0029372Y0041852D01*
X0029262Y0041696D01*
X0029149Y0041543D01*
X0029032Y0041392D01*
X0028912Y0041245D01*
X0028840Y0041305D01*
X0028959Y0041451D01*
X0029074Y0041600D01*
X0029186Y0041751D01*
X0029294Y0041905D01*
X0029399Y0042062D01*
X0029499Y0042221D01*
X0029596Y0042383D01*
X0029688Y0042547D01*
X0029777Y0042713D01*
X0029862Y0042881D01*
X0029942Y0043051D01*
X0030019Y0043223D01*
X0030091Y0043397D01*
X0030159Y0043572D01*
X0030223Y0043749D01*
X0030283Y0043928D01*
X0030338Y0044108D01*
X0030389Y0044289D01*
X0030435Y0044472D01*
X0030477Y0044655D01*
X0030515Y0044840D01*
X0030548Y0045025D01*
X0030576Y0045211D01*
X0030600Y0045398D01*
X0030620Y0045585D01*
X0030635Y0045772D01*
X0030646Y0045960D01*
X0030651Y0046148D01*
X0030653Y0046337D01*
X0030650Y0046525D01*
X0030642Y0046713D01*
X0030630Y0046901D01*
X0030613Y0047088D01*
X0030592Y0047275D01*
X0030566Y0047462D01*
X0030536Y0047648D01*
X0030501Y0047833D01*
X0030462Y0048017D01*
X0030418Y0048200D01*
X0030370Y0048382D01*
X0030318Y0048563D01*
X0030261Y0048742D01*
X0030200Y0048920D01*
X0030112Y0048888D01*
X0030172Y0048712D01*
X0030228Y0048535D01*
X0030280Y0048356D01*
X0030327Y0048177D01*
X0030370Y0047996D01*
X0030409Y0047814D01*
X0030443Y0047631D01*
X0030473Y0047447D01*
X0030499Y0047263D01*
X0030520Y0047079D01*
X0030536Y0046893D01*
X0030548Y0046708D01*
X0030556Y0046522D01*
X0030559Y0046336D01*
X0030558Y0046150D01*
X0030552Y0045964D01*
X0030541Y0045779D01*
X0030526Y0045593D01*
X0030507Y0045408D01*
X0030483Y0045224D01*
X0030455Y0045040D01*
X0030422Y0044857D01*
X0030385Y0044675D01*
X0030344Y0044494D01*
X0030298Y0044314D01*
X0030248Y0044134D01*
X0030193Y0043957D01*
X0030134Y0043780D01*
X0030071Y0043605D01*
X0030004Y0043432D01*
X0029933Y0043260D01*
X0029857Y0043090D01*
X0029777Y0042922D01*
X0029694Y0042756D01*
X0029606Y0042592D01*
X0029515Y0042430D01*
X0029419Y0042271D01*
X0029320Y0042114D01*
X0029217Y0041959D01*
X0029110Y0041807D01*
X0029000Y0041657D01*
X0028886Y0041510D01*
X0028768Y0041366D01*
X0028696Y0041427D01*
X0028813Y0041569D01*
X0028925Y0041714D01*
X0029034Y0041862D01*
X0029140Y0042012D01*
X0029241Y0042165D01*
X0029339Y0042321D01*
X0029434Y0042478D01*
X0029524Y0042638D01*
X0029611Y0042800D01*
X0029693Y0042964D01*
X0029772Y0043130D01*
X0029846Y0043298D01*
X0029917Y0043467D01*
X0029983Y0043638D01*
X0030046Y0043811D01*
X0030104Y0043985D01*
X0030157Y0044161D01*
X0030207Y0044338D01*
X0030252Y0044516D01*
X0030293Y0044695D01*
X0030330Y0044875D01*
X0030362Y0045056D01*
X0030390Y0045237D01*
X0030414Y0045419D01*
X0030433Y0045602D01*
X0030447Y0045785D01*
X0030458Y0045968D01*
X0030464Y0046152D01*
X0030465Y0046335D01*
X0030462Y0046519D01*
X0030454Y0046703D01*
X0030443Y0046886D01*
X0030426Y0047069D01*
X0030406Y0047251D01*
X0030380Y0047433D01*
X0030351Y0047614D01*
X0030317Y0047795D01*
X0030279Y0047974D01*
X0030236Y0048153D01*
X0030189Y0048331D01*
X0030138Y0048507D01*
X0030083Y0048682D01*
X0030023Y0048856D01*
X0030784Y0049239D02*
X0029938Y0048932D01*
X0029872Y0049104D01*
X0029802Y0049275D01*
X0029727Y0049443D01*
X0029648Y0049610D01*
X0029565Y0049775D01*
X0029478Y0049938D01*
X0029388Y0050098D01*
X0029293Y0050257D01*
X0029194Y0050413D01*
X0029092Y0050566D01*
X0028986Y0050717D01*
X0028876Y0050866D01*
X0028763Y0051011D01*
X0028646Y0051154D01*
X0028526Y0051294D01*
X0028402Y0051431D01*
X0028275Y0051565D01*
X0028145Y0051695D01*
X0028012Y0051823D01*
X0027876Y0051947D01*
X0027736Y0052068D01*
X0027594Y0052185D01*
X0027449Y0052299D01*
X0027301Y0052410D01*
X0027150Y0052516D01*
X0026997Y0052619D01*
X0026842Y0052718D01*
X0026684Y0052814D01*
X0026523Y0052905D01*
X0026361Y0052993D01*
X0026196Y0053076D01*
X0026030Y0053156D01*
X0025862Y0053231D01*
X0025691Y0053302D01*
X0025520Y0053369D01*
X0025830Y0054213D01*
X0025831Y0054214D01*
X0026024Y0054139D01*
X0026214Y0054059D01*
X0026403Y0053975D01*
X0026590Y0053886D01*
X0026774Y0053792D01*
X0026957Y0053694D01*
X0027136Y0053592D01*
X0027313Y0053485D01*
X0027488Y0053374D01*
X0027659Y0053258D01*
X0027828Y0053139D01*
X0027994Y0053015D01*
X0028157Y0052888D01*
X0028316Y0052756D01*
X0028473Y0052621D01*
X0028626Y0052481D01*
X0028775Y0052338D01*
X0028921Y0052192D01*
X0029063Y0052042D01*
X0029202Y0051888D01*
X0029337Y0051731D01*
X0029468Y0051571D01*
X0029595Y0051408D01*
X0029718Y0051242D01*
X0029836Y0051072D01*
X0029951Y0050900D01*
X0030061Y0050725D01*
X0030167Y0050548D01*
X0030269Y0050368D01*
X0030366Y0050185D01*
X0030459Y0050000D01*
X0030547Y0049813D01*
X0030631Y0049624D01*
X0030710Y0049433D01*
X0030784Y0049240D01*
X0030696Y0049208D01*
X0030622Y0049399D01*
X0030544Y0049588D01*
X0030462Y0049775D01*
X0030374Y0049960D01*
X0030283Y0050142D01*
X0030187Y0050323D01*
X0030086Y0050501D01*
X0029981Y0050676D01*
X0029872Y0050849D01*
X0029759Y0051020D01*
X0029641Y0051187D01*
X0029520Y0051351D01*
X0029394Y0051513D01*
X0029265Y0051671D01*
X0029131Y0051826D01*
X0028994Y0051978D01*
X0028854Y0052126D01*
X0028709Y0052271D01*
X0028562Y0052413D01*
X0028410Y0052550D01*
X0028256Y0052684D01*
X0028098Y0052814D01*
X0027937Y0052940D01*
X0027773Y0053063D01*
X0027606Y0053181D01*
X0027437Y0053295D01*
X0027264Y0053405D01*
X0027089Y0053510D01*
X0026911Y0053612D01*
X0026731Y0053709D01*
X0026549Y0053801D01*
X0026364Y0053889D01*
X0026178Y0053973D01*
X0025989Y0054051D01*
X0025798Y0054126D01*
X0025766Y0054037D01*
X0025954Y0053964D01*
X0026141Y0053886D01*
X0026325Y0053804D01*
X0026508Y0053717D01*
X0026688Y0053625D01*
X0026866Y0053529D01*
X0027042Y0053429D01*
X0027215Y0053325D01*
X0027385Y0053216D01*
X0027553Y0053103D01*
X0027718Y0052987D01*
X0027880Y0052866D01*
X0028039Y0052741D01*
X0028195Y0052612D01*
X0028348Y0052480D01*
X0028497Y0052344D01*
X0028644Y0052204D01*
X0028786Y0052061D01*
X0028925Y0051914D01*
X0029061Y0051764D01*
X0029193Y0051611D01*
X0029320Y0051454D01*
X0029445Y0051295D01*
X0029565Y0051132D01*
X0029681Y0050967D01*
X0029793Y0050798D01*
X0029901Y0050627D01*
X0030005Y0050454D01*
X0030104Y0050278D01*
X0030199Y0050099D01*
X0030290Y0049919D01*
X0030376Y0049736D01*
X0030458Y0049551D01*
X0030535Y0049364D01*
X0030608Y0049176D01*
X0030519Y0049143D01*
X0030447Y0049330D01*
X0030371Y0049515D01*
X0030290Y0049697D01*
X0030205Y0049878D01*
X0030115Y0050057D01*
X0030021Y0050233D01*
X0029923Y0050407D01*
X0029821Y0050579D01*
X0029714Y0050747D01*
X0029603Y0050914D01*
X0029488Y0051077D01*
X0029370Y0051238D01*
X0029247Y0051396D01*
X0029120Y0051550D01*
X0028990Y0051702D01*
X0028856Y0051850D01*
X0028719Y0051995D01*
X0028578Y0052137D01*
X0028433Y0052275D01*
X0028286Y0052410D01*
X0028135Y0052540D01*
X0027980Y0052668D01*
X0027823Y0052791D01*
X0027663Y0052910D01*
X0027500Y0053026D01*
X0027334Y0053137D01*
X0027166Y0053245D01*
X0026994Y0053348D01*
X0026821Y0053447D01*
X0026645Y0053542D01*
X0026467Y0053632D01*
X0026286Y0053718D01*
X0026104Y0053800D01*
X0025920Y0053877D01*
X0025733Y0053949D01*
X0025701Y0053861D01*
X0025885Y0053789D01*
X0026067Y0053713D01*
X0026247Y0053633D01*
X0026426Y0053548D01*
X0026602Y0053458D01*
X0026776Y0053365D01*
X0026947Y0053267D01*
X0027116Y0053165D01*
X0027283Y0053059D01*
X0027447Y0052948D01*
X0027608Y0052834D01*
X0027766Y0052716D01*
X0027922Y0052594D01*
X0028074Y0052469D01*
X0028223Y0052339D01*
X0028369Y0052206D01*
X0028512Y0052070D01*
X0028651Y0051930D01*
X0028787Y0051787D01*
X0028920Y0051640D01*
X0029048Y0051490D01*
X0029173Y0051337D01*
X0029295Y0051181D01*
X0029412Y0051023D01*
X0029525Y0050861D01*
X0029635Y0050697D01*
X0029740Y0050530D01*
X0029842Y0050360D01*
X0029939Y0050188D01*
X0030032Y0050014D01*
X0030120Y0049837D01*
X0030205Y0049659D01*
X0030284Y0049478D01*
X0030360Y0049296D01*
X0030431Y0049111D01*
X0030343Y0049079D01*
X0030272Y0049261D01*
X0030198Y0049442D01*
X0030119Y0049620D01*
X0030036Y0049797D01*
X0029948Y0049971D01*
X0029856Y0050143D01*
X0029760Y0050313D01*
X0029660Y0050481D01*
X0029556Y0050646D01*
X0029448Y0050808D01*
X0029336Y0050968D01*
X0029220Y0051125D01*
X0029100Y0051279D01*
X0028976Y0051430D01*
X0028849Y0051578D01*
X0028718Y0051723D01*
X0028584Y0051864D01*
X0028446Y0052003D01*
X0028305Y0052138D01*
X0028161Y0052269D01*
X0028013Y0052397D01*
X0027863Y0052521D01*
X0027709Y0052641D01*
X0027553Y0052758D01*
X0027394Y0052871D01*
X0027232Y0052980D01*
X0027067Y0053085D01*
X0026900Y0053185D01*
X0026730Y0053282D01*
X0026559Y0053375D01*
X0026384Y0053463D01*
X0026208Y0053547D01*
X0026030Y0053627D01*
X0025850Y0053702D01*
X0025668Y0053773D01*
X0025636Y0053685D01*
X0025815Y0053615D01*
X0025993Y0053540D01*
X0026169Y0053461D01*
X0026343Y0053378D01*
X0026515Y0053291D01*
X0026685Y0053200D01*
X0026853Y0053104D01*
X0027018Y0053005D01*
X0027180Y0052901D01*
X0027340Y0052793D01*
X0027498Y0052682D01*
X0027652Y0052567D01*
X0027804Y0052448D01*
X0027953Y0052325D01*
X0028098Y0052199D01*
X0028241Y0052069D01*
X0028380Y0051936D01*
X0028516Y0051799D01*
X0028649Y0051659D01*
X0028778Y0051516D01*
X0028904Y0051370D01*
X0029026Y0051220D01*
X0029145Y0051068D01*
X0029259Y0050913D01*
X0029370Y0050755D01*
X0029477Y0050595D01*
X0029580Y0050432D01*
X0029679Y0050266D01*
X0029774Y0050098D01*
X0029864Y0049928D01*
X0029951Y0049756D01*
X0030033Y0049581D01*
X0030111Y0049405D01*
X0030185Y0049227D01*
X0030254Y0049047D01*
X0030166Y0049015D01*
X0030097Y0049193D01*
X0030025Y0049369D01*
X0029948Y0049543D01*
X0029866Y0049715D01*
X0029781Y0049885D01*
X0029691Y0050053D01*
X0029597Y0050219D01*
X0029500Y0050383D01*
X0029398Y0050544D01*
X0029292Y0050702D01*
X0029183Y0050858D01*
X0029070Y0051011D01*
X0028953Y0051162D01*
X0028832Y0051309D01*
X0028708Y0051454D01*
X0028580Y0051595D01*
X0028449Y0051733D01*
X0028315Y0051868D01*
X0028177Y0052000D01*
X0028036Y0052128D01*
X0027892Y0052253D01*
X0027745Y0052374D01*
X0027595Y0052492D01*
X0027443Y0052606D01*
X0027287Y0052716D01*
X0027129Y0052822D01*
X0026968Y0052925D01*
X0026805Y0053023D01*
X0026640Y0053117D01*
X0026472Y0053208D01*
X0026302Y0053294D01*
X0026130Y0053376D01*
X0025956Y0053454D01*
X0025781Y0053527D01*
X0025603Y0053597D01*
X0025571Y0053508D01*
X0025746Y0053440D01*
X0025920Y0053367D01*
X0026091Y0053290D01*
X0026261Y0053209D01*
X0026429Y0053124D01*
X0026595Y0053035D01*
X0026758Y0052942D01*
X0026919Y0052844D01*
X0027078Y0052743D01*
X0027234Y0052638D01*
X0027388Y0052530D01*
X0027538Y0052417D01*
X0027686Y0052301D01*
X0027832Y0052181D01*
X0027974Y0052058D01*
X0028113Y0051931D01*
X0028249Y0051801D01*
X0028382Y0051668D01*
X0028511Y0051531D01*
X0028637Y0051392D01*
X0028760Y0051249D01*
X0028879Y0051103D01*
X0028995Y0050955D01*
X0029106Y0050803D01*
X0029215Y0050650D01*
X0029319Y0050493D01*
X0029419Y0050334D01*
X0029516Y0050172D01*
X0029608Y0050009D01*
X0029697Y0049842D01*
X0029781Y0049674D01*
X0029862Y0049504D01*
X0029938Y0049332D01*
X0030010Y0049158D01*
X0030078Y0048983D01*
X0029989Y0048951D01*
X0029922Y0049124D01*
X0029851Y0049296D01*
X0029776Y0049466D01*
X0029697Y0049634D01*
X0029613Y0049800D01*
X0029526Y0049964D01*
X0029434Y0050125D01*
X0029339Y0050285D01*
X0029240Y0050442D01*
X0029137Y0050597D01*
X0029030Y0050749D01*
X0028919Y0050898D01*
X0028805Y0051045D01*
X0028688Y0051189D01*
X0028567Y0051330D01*
X0028442Y0051468D01*
X0028314Y0051602D01*
X0028183Y0051734D01*
X0028049Y0051862D01*
X0027911Y0051988D01*
X0027771Y0052109D01*
X0027628Y0052228D01*
X0027481Y0052342D01*
X0027332Y0052453D01*
X0027181Y0052561D01*
X0027027Y0052665D01*
X0026870Y0052764D01*
X0026711Y0052860D01*
X0026549Y0052953D01*
X0026386Y0053041D01*
X0026220Y0053125D01*
X0026052Y0053205D01*
X0025883Y0053281D01*
X0025711Y0053353D01*
X0025538Y0053420D01*
X0015533Y0050509D02*
X0016311Y0050056D01*
X0016310Y0050057D02*
X0016222Y0049899D01*
X0016138Y0049738D01*
X0016058Y0049576D01*
X0015981Y0049412D01*
X0015908Y0049247D01*
X0015840Y0049079D01*
X0015775Y0048910D01*
X0015715Y0048740D01*
X0015659Y0048568D01*
X0015606Y0048394D01*
X0015558Y0048220D01*
X0015515Y0048044D01*
X0015475Y0047868D01*
X0015440Y0047690D01*
X0015408Y0047512D01*
X0015382Y0047333D01*
X0015359Y0047154D01*
X0015341Y0046974D01*
X0015327Y0046793D01*
X0015317Y0046613D01*
X0015312Y0046432D01*
X0015311Y0046251D01*
X0015315Y0046070D01*
X0015322Y0045889D01*
X0015334Y0045709D01*
X0015351Y0045528D01*
X0015372Y0045349D01*
X0015397Y0045169D01*
X0015426Y0044991D01*
X0015459Y0044813D01*
X0015497Y0044636D01*
X0015539Y0044460D01*
X0015586Y0044285D01*
X0015636Y0044111D01*
X0015691Y0043939D01*
X0015749Y0043768D01*
X0014904Y0043460D01*
X0014838Y0043652D01*
X0014776Y0043845D01*
X0014720Y0044040D01*
X0014668Y0044236D01*
X0014620Y0044433D01*
X0014578Y0044632D01*
X0014540Y0044831D01*
X0014507Y0045031D01*
X0014479Y0045232D01*
X0014456Y0045433D01*
X0014437Y0045635D01*
X0014424Y0045838D01*
X0014415Y0046040D01*
X0014411Y0046243D01*
X0014412Y0046446D01*
X0014418Y0046649D01*
X0014429Y0046851D01*
X0014444Y0047054D01*
X0014465Y0047255D01*
X0014490Y0047457D01*
X0014520Y0047657D01*
X0014555Y0047857D01*
X0014595Y0048056D01*
X0014639Y0048254D01*
X0014688Y0048451D01*
X0014742Y0048646D01*
X0014801Y0048840D01*
X0014864Y0049033D01*
X0014932Y0049224D01*
X0015004Y0049414D01*
X0015081Y0049602D01*
X0015163Y0049787D01*
X0015249Y0049971D01*
X0015339Y0050153D01*
X0015433Y0050332D01*
X0015532Y0050509D01*
X0015614Y0050462D01*
X0015516Y0050287D01*
X0015422Y0050109D01*
X0015333Y0049930D01*
X0015248Y0049748D01*
X0015168Y0049564D01*
X0015092Y0049379D01*
X0015020Y0049192D01*
X0014953Y0049003D01*
X0014891Y0048812D01*
X0014833Y0048620D01*
X0014779Y0048427D01*
X0014731Y0048232D01*
X0014687Y0048036D01*
X0014648Y0047840D01*
X0014613Y0047642D01*
X0014583Y0047444D01*
X0014558Y0047245D01*
X0014538Y0047045D01*
X0014523Y0046845D01*
X0014512Y0046645D01*
X0014506Y0046445D01*
X0014505Y0046244D01*
X0014509Y0046043D01*
X0014518Y0045843D01*
X0014531Y0045643D01*
X0014549Y0045443D01*
X0014572Y0045244D01*
X0014600Y0045045D01*
X0014633Y0044848D01*
X0014670Y0044650D01*
X0014712Y0044454D01*
X0014759Y0044259D01*
X0014810Y0044065D01*
X0014866Y0043873D01*
X0014927Y0043682D01*
X0014992Y0043492D01*
X0015080Y0043524D01*
X0015016Y0043712D01*
X0014956Y0043901D01*
X0014901Y0044091D01*
X0014850Y0044283D01*
X0014804Y0044476D01*
X0014762Y0044669D01*
X0014725Y0044864D01*
X0014693Y0045060D01*
X0014666Y0045256D01*
X0014643Y0045453D01*
X0014625Y0045651D01*
X0014612Y0045848D01*
X0014603Y0046047D01*
X0014599Y0046245D01*
X0014600Y0046443D01*
X0014606Y0046641D01*
X0014616Y0046839D01*
X0014632Y0047037D01*
X0014652Y0047234D01*
X0014676Y0047431D01*
X0014706Y0047627D01*
X0014740Y0047822D01*
X0014779Y0048017D01*
X0014822Y0048210D01*
X0014870Y0048402D01*
X0014923Y0048594D01*
X0014980Y0048783D01*
X0015042Y0048972D01*
X0015108Y0049159D01*
X0015179Y0049344D01*
X0015254Y0049527D01*
X0015334Y0049709D01*
X0015418Y0049889D01*
X0015506Y0050066D01*
X0015598Y0050242D01*
X0015695Y0050415D01*
X0015776Y0050367D01*
X0015681Y0050196D01*
X0015589Y0050023D01*
X0015502Y0049847D01*
X0015419Y0049670D01*
X0015341Y0049490D01*
X0015266Y0049309D01*
X0015196Y0049126D01*
X0015131Y0048941D01*
X0015070Y0048755D01*
X0015013Y0048567D01*
X0014961Y0048378D01*
X0014914Y0048188D01*
X0014871Y0047997D01*
X0014832Y0047805D01*
X0014799Y0047612D01*
X0014769Y0047418D01*
X0014745Y0047224D01*
X0014725Y0047029D01*
X0014710Y0046833D01*
X0014700Y0046637D01*
X0014694Y0046442D01*
X0014693Y0046246D01*
X0014697Y0046050D01*
X0014705Y0045854D01*
X0014718Y0045658D01*
X0014736Y0045463D01*
X0014759Y0045268D01*
X0014786Y0045074D01*
X0014818Y0044881D01*
X0014854Y0044688D01*
X0014895Y0044497D01*
X0014941Y0044306D01*
X0014991Y0044117D01*
X0015046Y0043929D01*
X0015105Y0043742D01*
X0015169Y0043556D01*
X0015257Y0043589D01*
X0015194Y0043772D01*
X0015136Y0043956D01*
X0015081Y0044142D01*
X0015032Y0044330D01*
X0014987Y0044518D01*
X0014946Y0044707D01*
X0014910Y0044898D01*
X0014879Y0045089D01*
X0014852Y0045281D01*
X0014830Y0045473D01*
X0014812Y0045666D01*
X0014799Y0045859D01*
X0014791Y0046053D01*
X0014787Y0046246D01*
X0014788Y0046440D01*
X0014794Y0046634D01*
X0014804Y0046827D01*
X0014819Y0047020D01*
X0014838Y0047213D01*
X0014863Y0047405D01*
X0014891Y0047597D01*
X0014925Y0047787D01*
X0014963Y0047977D01*
X0015005Y0048166D01*
X0015052Y0048354D01*
X0015103Y0048541D01*
X0015159Y0048726D01*
X0015220Y0048911D01*
X0015284Y0049093D01*
X0015354Y0049274D01*
X0015427Y0049453D01*
X0015505Y0049631D01*
X0015587Y0049806D01*
X0015673Y0049980D01*
X0015763Y0050151D01*
X0015857Y0050320D01*
X0015939Y0050273D01*
X0015845Y0050106D01*
X0015756Y0049936D01*
X0015671Y0049765D01*
X0015590Y0049592D01*
X0015513Y0049416D01*
X0015441Y0049239D01*
X0015372Y0049060D01*
X0015309Y0048880D01*
X0015249Y0048698D01*
X0015194Y0048515D01*
X0015143Y0048330D01*
X0015096Y0048144D01*
X0015054Y0047958D01*
X0015017Y0047770D01*
X0014984Y0047581D01*
X0014956Y0047392D01*
X0014932Y0047202D01*
X0014913Y0047012D01*
X0014898Y0046821D01*
X0014888Y0046630D01*
X0014882Y0046439D01*
X0014881Y0046247D01*
X0014885Y0046056D01*
X0014893Y0045865D01*
X0014906Y0045674D01*
X0014923Y0045483D01*
X0014945Y0045293D01*
X0014972Y0045103D01*
X0015003Y0044914D01*
X0015038Y0044726D01*
X0015078Y0044539D01*
X0015123Y0044353D01*
X0015172Y0044168D01*
X0015225Y0043984D01*
X0015283Y0043802D01*
X0015345Y0043621D01*
X0015434Y0043653D01*
X0015372Y0043832D01*
X0015315Y0044012D01*
X0015262Y0044194D01*
X0015214Y0044376D01*
X0015170Y0044560D01*
X0015130Y0044745D01*
X0015095Y0044931D01*
X0015065Y0045118D01*
X0015038Y0045305D01*
X0015017Y0045493D01*
X0015000Y0045681D01*
X0014987Y0045870D01*
X0014979Y0046059D01*
X0014975Y0046248D01*
X0014976Y0046437D01*
X0014982Y0046626D01*
X0014992Y0046815D01*
X0015006Y0047003D01*
X0015025Y0047192D01*
X0015049Y0047379D01*
X0015077Y0047566D01*
X0015109Y0047753D01*
X0015146Y0047938D01*
X0015188Y0048123D01*
X0015234Y0048306D01*
X0015284Y0048488D01*
X0015338Y0048669D01*
X0015397Y0048849D01*
X0015461Y0049027D01*
X0015528Y0049204D01*
X0015600Y0049379D01*
X0015676Y0049552D01*
X0015756Y0049724D01*
X0015840Y0049893D01*
X0015928Y0050060D01*
X0016020Y0050226D01*
X0016101Y0050178D01*
X0016010Y0050015D01*
X0015923Y0049850D01*
X0015840Y0049683D01*
X0015761Y0049513D01*
X0015686Y0049342D01*
X0015615Y0049169D01*
X0015549Y0048995D01*
X0015486Y0048819D01*
X0015428Y0048641D01*
X0015374Y0048462D01*
X0015324Y0048282D01*
X0015279Y0048101D01*
X0015238Y0047918D01*
X0015202Y0047735D01*
X0015170Y0047551D01*
X0015142Y0047366D01*
X0015119Y0047181D01*
X0015100Y0046995D01*
X0015085Y0046809D01*
X0015076Y0046622D01*
X0015070Y0046436D01*
X0015069Y0046249D01*
X0015073Y0046062D01*
X0015081Y0045875D01*
X0015093Y0045689D01*
X0015110Y0045503D01*
X0015132Y0045317D01*
X0015157Y0045132D01*
X0015188Y0044948D01*
X0015222Y0044764D01*
X0015262Y0044582D01*
X0015305Y0044400D01*
X0015353Y0044219D01*
X0015405Y0044040D01*
X0015461Y0043862D01*
X0015522Y0043685D01*
X0015610Y0043717D01*
X0015550Y0043892D01*
X0015495Y0044068D01*
X0015443Y0044245D01*
X0015396Y0044423D01*
X0015353Y0044603D01*
X0015315Y0044783D01*
X0015280Y0044965D01*
X0015250Y0045147D01*
X0015225Y0045329D01*
X0015204Y0045513D01*
X0015187Y0045696D01*
X0015175Y0045881D01*
X0015167Y0046065D01*
X0015163Y0046250D01*
X0015164Y0046434D01*
X0015169Y0046619D01*
X0015179Y0046803D01*
X0015193Y0046987D01*
X0015212Y0047170D01*
X0015235Y0047354D01*
X0015262Y0047536D01*
X0015294Y0047718D01*
X0015330Y0047899D01*
X0015371Y0048079D01*
X0015415Y0048258D01*
X0015464Y0048436D01*
X0015518Y0048613D01*
X0015575Y0048788D01*
X0015637Y0048962D01*
X0015703Y0049134D01*
X0015772Y0049305D01*
X0015846Y0049474D01*
X0015925Y0049641D01*
X0016007Y0049807D01*
X0016092Y0049970D01*
X0016182Y0050131D01*
X0016264Y0050084D01*
X0016175Y0049925D01*
X0016090Y0049763D01*
X0016009Y0049600D01*
X0015932Y0049435D01*
X0015859Y0049268D01*
X0015790Y0049099D01*
X0015725Y0048929D01*
X0015664Y0048757D01*
X0015607Y0048584D01*
X0015555Y0048410D01*
X0015506Y0048234D01*
X0015462Y0048057D01*
X0015422Y0047879D01*
X0015387Y0047700D01*
X0015355Y0047521D01*
X0015328Y0047341D01*
X0015305Y0047160D01*
X0015287Y0046978D01*
X0015273Y0046797D01*
X0015263Y0046615D01*
X0015258Y0046433D01*
X0015257Y0046250D01*
X0015261Y0046068D01*
X0015268Y0045886D01*
X0015281Y0045704D01*
X0015297Y0045523D01*
X0015318Y0045342D01*
X0015343Y0045161D01*
X0015373Y0044981D01*
X0015407Y0044802D01*
X0015445Y0044624D01*
X0015487Y0044447D01*
X0015534Y0044270D01*
X0015585Y0044095D01*
X0015639Y0043922D01*
X0015699Y0043749D01*
D16*
X0015948Y0050384D02*
X0017828Y0051068D01*
X0023842Y0053257D02*
X0025533Y0053873D01*
X0155143Y0122317D02*
X0155143Y0124317D01*
X0155143Y0130717D02*
X0155143Y0132517D01*
D17*
X0139662Y0097163D02*
X0138761Y0097163D01*
X0138311Y0096712D01*
X0138311Y0096262D01*
X0138761Y0095811D01*
X0140112Y0095811D01*
X0140112Y0094911D02*
X0140112Y0096712D01*
X0139662Y0097163D01*
X0140112Y0094911D02*
X0139662Y0094460D01*
X0138761Y0094460D01*
X0138311Y0094911D01*
X0137166Y0094460D02*
X0136265Y0095361D01*
X0136716Y0095361D02*
X0135364Y0095361D01*
X0135364Y0094460D02*
X0135364Y0097163D01*
X0136716Y0097163D01*
X0137166Y0096712D01*
X0137166Y0095811D01*
X0136716Y0095361D01*
X0125983Y0094405D02*
X0125983Y0097108D01*
X0125082Y0096207D01*
X0124181Y0097108D01*
X0124181Y0094405D01*
X0123036Y0094405D02*
X0121234Y0094405D01*
X0122135Y0094405D02*
X0122135Y0097108D01*
X0121234Y0096207D01*
X0170200Y0096407D02*
X0171101Y0097308D01*
X0171101Y0094605D01*
X0170200Y0094605D02*
X0172002Y0094605D01*
X0173147Y0094605D02*
X0173147Y0097308D01*
X0174047Y0096407D01*
X0174948Y0097308D01*
X0174948Y0094605D01*
X0184023Y0094550D02*
X0184023Y0097252D01*
X0185374Y0097252D01*
X0185825Y0096802D01*
X0185825Y0095901D01*
X0185374Y0095451D01*
X0184023Y0095451D01*
X0184924Y0095451D02*
X0185825Y0094550D01*
X0186970Y0094550D02*
X0186970Y0095000D01*
X0188771Y0096802D01*
X0188771Y0097252D01*
X0186970Y0097252D01*
X0157996Y0063854D02*
X0127681Y0063854D01*
X0127681Y0027634D01*
X0157996Y0027634D01*
X0157996Y0063854D01*
X0316337Y0086195D02*
X0332833Y0086195D01*
X0330113Y0092195D02*
X0329058Y0092195D01*
X0329079Y0093184D02*
X0330135Y0093184D01*
X0325061Y0097062D02*
X0325168Y0097287D01*
X0325280Y0097510D01*
X0325397Y0097730D01*
X0325519Y0097947D01*
X0325647Y0098162D01*
X0325780Y0098373D01*
X0325917Y0098581D01*
X0326060Y0098785D01*
X0326207Y0098987D01*
X0326359Y0099184D01*
X0342855Y0099184D01*
X0340135Y0093184D02*
X0339079Y0093184D01*
X0344109Y0097156D02*
X0344005Y0097371D01*
X0343896Y0097584D01*
X0343782Y0097794D01*
X0343663Y0098001D01*
X0343540Y0098206D01*
X0343412Y0098408D01*
X0343279Y0098607D01*
X0343142Y0098802D01*
X0343001Y0098995D01*
X0342855Y0099184D01*
X0344107Y0088212D02*
X0343995Y0087982D01*
X0343878Y0087755D01*
X0343756Y0087531D01*
X0343628Y0087310D01*
X0343494Y0087093D01*
X0343356Y0086878D01*
X0343212Y0086667D01*
X0343063Y0086460D01*
X0342909Y0086256D01*
X0342751Y0086056D01*
X0342587Y0085860D01*
X0342419Y0085668D01*
X0342246Y0085480D01*
X0342068Y0085296D01*
X0341887Y0085117D01*
X0341700Y0084942D01*
X0341510Y0084772D01*
X0341316Y0084607D01*
X0341117Y0084446D01*
X0340915Y0084290D01*
X0340709Y0084139D01*
X0340499Y0083993D01*
X0340286Y0083853D01*
X0340070Y0083717D01*
X0339850Y0083587D01*
X0339627Y0083462D01*
X0339402Y0083343D01*
X0339173Y0083229D01*
X0338942Y0083121D01*
X0338708Y0083018D01*
X0338472Y0082921D01*
X0338233Y0082830D01*
X0337993Y0082745D01*
X0337750Y0082665D01*
X0337505Y0082592D01*
X0337259Y0082524D01*
X0337011Y0082463D01*
X0336762Y0082408D01*
X0336512Y0082358D01*
X0336260Y0082315D01*
X0336007Y0082278D01*
X0335754Y0082247D01*
X0335500Y0082222D01*
X0335245Y0082203D01*
X0334990Y0082191D01*
X0334735Y0082185D01*
X0334479Y0082185D01*
X0334224Y0082191D01*
X0333969Y0082203D01*
X0333714Y0082222D01*
X0333460Y0082247D01*
X0333207Y0082278D01*
X0332954Y0082315D01*
X0332702Y0082358D01*
X0332452Y0082408D01*
X0332203Y0082463D01*
X0331955Y0082524D01*
X0331709Y0082592D01*
X0331464Y0082665D01*
X0331221Y0082745D01*
X0330981Y0082830D01*
X0330742Y0082921D01*
X0330506Y0083018D01*
X0330272Y0083121D01*
X0330041Y0083229D01*
X0329812Y0083343D01*
X0329587Y0083462D01*
X0329364Y0083587D01*
X0329144Y0083717D01*
X0328928Y0083853D01*
X0328715Y0083993D01*
X0328505Y0084139D01*
X0328299Y0084290D01*
X0328097Y0084446D01*
X0327898Y0084607D01*
X0327704Y0084772D01*
X0327514Y0084942D01*
X0327327Y0085117D01*
X0327146Y0085296D01*
X0326968Y0085480D01*
X0326795Y0085668D01*
X0326627Y0085860D01*
X0326463Y0086056D01*
X0326305Y0086256D01*
X0326151Y0086460D01*
X0326002Y0086667D01*
X0325858Y0086878D01*
X0325720Y0087093D01*
X0325586Y0087310D01*
X0325458Y0087531D01*
X0325336Y0087755D01*
X0325219Y0087982D01*
X0325107Y0088212D01*
X0320113Y0092195D02*
X0319058Y0092195D01*
D18*
X0314891Y0088106D02*
X0315298Y0088297D01*
X0315297Y0088297D02*
X0315398Y0088091D01*
X0315502Y0087888D01*
X0315612Y0087687D01*
X0315726Y0087488D01*
X0315844Y0087292D01*
X0315966Y0087099D01*
X0316093Y0086909D01*
X0316224Y0086721D01*
X0316359Y0086536D01*
X0316498Y0086355D01*
X0316145Y0086077D01*
X0316145Y0086076D01*
X0315999Y0086266D01*
X0315858Y0086459D01*
X0315721Y0086655D01*
X0315589Y0086854D01*
X0315461Y0087056D01*
X0315338Y0087260D01*
X0315219Y0087468D01*
X0315104Y0087678D01*
X0314995Y0087890D01*
X0314890Y0088105D01*
X0314933Y0088125D01*
X0315037Y0087911D01*
X0315146Y0087700D01*
X0315260Y0087491D01*
X0315378Y0087284D01*
X0315501Y0087080D01*
X0315628Y0086879D01*
X0315760Y0086681D01*
X0315896Y0086486D01*
X0316037Y0086294D01*
X0316182Y0086105D01*
X0316219Y0086134D01*
X0316075Y0086322D01*
X0315935Y0086513D01*
X0315799Y0086708D01*
X0315668Y0086905D01*
X0315541Y0087105D01*
X0315419Y0087308D01*
X0315301Y0087513D01*
X0315188Y0087722D01*
X0315079Y0087932D01*
X0314975Y0088145D01*
X0315018Y0088165D01*
X0315121Y0087953D01*
X0315229Y0087744D01*
X0315342Y0087536D01*
X0315459Y0087332D01*
X0315581Y0087130D01*
X0315707Y0086931D01*
X0315838Y0086734D01*
X0315973Y0086541D01*
X0316112Y0086351D01*
X0316256Y0086163D01*
X0316293Y0086192D01*
X0316150Y0086379D01*
X0316011Y0086568D01*
X0315877Y0086761D01*
X0315747Y0086956D01*
X0315621Y0087154D01*
X0315500Y0087356D01*
X0315383Y0087559D01*
X0315271Y0087765D01*
X0315163Y0087974D01*
X0315060Y0088185D01*
X0315103Y0088205D01*
X0315205Y0087995D01*
X0315312Y0087787D01*
X0315424Y0087582D01*
X0315540Y0087379D01*
X0315661Y0087179D01*
X0315786Y0086982D01*
X0315915Y0086787D01*
X0316049Y0086596D01*
X0316187Y0086407D01*
X0316329Y0086222D01*
X0316366Y0086251D01*
X0316225Y0086435D01*
X0316087Y0086623D01*
X0315954Y0086814D01*
X0315825Y0087007D01*
X0315701Y0087204D01*
X0315581Y0087403D01*
X0315465Y0087605D01*
X0315354Y0087809D01*
X0315247Y0088016D01*
X0315145Y0088225D01*
X0315188Y0088245D01*
X0315289Y0088037D01*
X0315395Y0087831D01*
X0315506Y0087628D01*
X0315621Y0087427D01*
X0315741Y0087229D01*
X0315865Y0087033D01*
X0315993Y0086840D01*
X0316126Y0086650D01*
X0316262Y0086463D01*
X0316403Y0086280D01*
X0316440Y0086309D01*
X0316300Y0086492D01*
X0316164Y0086678D01*
X0316032Y0086867D01*
X0315904Y0087059D01*
X0315781Y0087253D01*
X0315662Y0087451D01*
X0315547Y0087651D01*
X0315437Y0087853D01*
X0315331Y0088058D01*
X0315230Y0088265D01*
X0315273Y0088285D01*
X0315373Y0088079D01*
X0315479Y0087875D01*
X0315588Y0087674D01*
X0315702Y0087475D01*
X0315821Y0087278D01*
X0315944Y0087084D01*
X0316071Y0086893D01*
X0316202Y0086705D01*
X0316338Y0086520D01*
X0316477Y0086338D01*
X0334277Y0097285D02*
X0333870Y0097093D01*
X0333871Y0097094D02*
X0333760Y0097320D01*
X0333644Y0097544D01*
X0333522Y0097765D01*
X0333395Y0097982D01*
X0333263Y0098197D01*
X0333125Y0098408D01*
X0332983Y0098616D01*
X0332835Y0098820D01*
X0332682Y0099021D01*
X0332525Y0099217D01*
X0332362Y0099410D01*
X0332195Y0099599D01*
X0332024Y0099783D01*
X0331847Y0099964D01*
X0331667Y0100140D01*
X0331482Y0100311D01*
X0331293Y0100478D01*
X0331100Y0100640D01*
X0330904Y0100798D01*
X0330703Y0100950D01*
X0330499Y0101098D01*
X0330291Y0101240D01*
X0330079Y0101378D01*
X0329865Y0101510D01*
X0329647Y0101637D01*
X0329426Y0101758D01*
X0329202Y0101874D01*
X0328976Y0101985D01*
X0328747Y0102089D01*
X0328515Y0102189D01*
X0328281Y0102282D01*
X0328045Y0102370D01*
X0327806Y0102452D01*
X0327566Y0102528D01*
X0327324Y0102598D01*
X0327080Y0102662D01*
X0326835Y0102721D01*
X0326588Y0102773D01*
X0326341Y0102819D01*
X0326092Y0102859D01*
X0325842Y0102893D01*
X0325592Y0102921D01*
X0325340Y0102942D01*
X0325089Y0102958D01*
X0324837Y0102967D01*
X0324585Y0102970D01*
X0324333Y0102967D01*
X0324081Y0102958D01*
X0323830Y0102942D01*
X0323578Y0102921D01*
X0323328Y0102893D01*
X0323078Y0102859D01*
X0322829Y0102819D01*
X0322582Y0102773D01*
X0322335Y0102721D01*
X0322090Y0102662D01*
X0321846Y0102598D01*
X0321604Y0102528D01*
X0321364Y0102452D01*
X0321125Y0102370D01*
X0320889Y0102282D01*
X0320655Y0102189D01*
X0320423Y0102089D01*
X0320194Y0101985D01*
X0319968Y0101874D01*
X0319744Y0101758D01*
X0319523Y0101637D01*
X0319305Y0101510D01*
X0319091Y0101378D01*
X0318879Y0101240D01*
X0318671Y0101098D01*
X0318467Y0100950D01*
X0318266Y0100798D01*
X0318070Y0100640D01*
X0317877Y0100478D01*
X0317688Y0100311D01*
X0317503Y0100140D01*
X0317323Y0099964D01*
X0317146Y0099783D01*
X0316975Y0099599D01*
X0316808Y0099410D01*
X0316645Y0099217D01*
X0316488Y0099021D01*
X0316335Y0098820D01*
X0316187Y0098616D01*
X0316045Y0098408D01*
X0315907Y0098197D01*
X0315775Y0097982D01*
X0315648Y0097765D01*
X0315526Y0097544D01*
X0315410Y0097320D01*
X0315299Y0097094D01*
X0314893Y0097285D01*
X0314892Y0097285D01*
X0315008Y0097522D01*
X0315129Y0097755D01*
X0315256Y0097986D01*
X0315388Y0098213D01*
X0315527Y0098437D01*
X0315670Y0098657D01*
X0315819Y0098874D01*
X0315973Y0099088D01*
X0316133Y0099297D01*
X0316297Y0099502D01*
X0316467Y0099703D01*
X0316641Y0099900D01*
X0316820Y0100093D01*
X0317004Y0100281D01*
X0317192Y0100465D01*
X0317385Y0100644D01*
X0317582Y0100818D01*
X0317784Y0100988D01*
X0317989Y0101152D01*
X0318199Y0101311D01*
X0318412Y0101465D01*
X0318629Y0101614D01*
X0318849Y0101758D01*
X0319074Y0101895D01*
X0319301Y0102028D01*
X0319531Y0102155D01*
X0319765Y0102276D01*
X0320001Y0102391D01*
X0320241Y0102501D01*
X0320482Y0102604D01*
X0320727Y0102702D01*
X0320973Y0102794D01*
X0321222Y0102879D01*
X0321473Y0102959D01*
X0321726Y0103032D01*
X0321980Y0103099D01*
X0322236Y0103160D01*
X0322494Y0103214D01*
X0322752Y0103262D01*
X0323012Y0103304D01*
X0323273Y0103339D01*
X0323534Y0103368D01*
X0323796Y0103391D01*
X0324059Y0103407D01*
X0324322Y0103417D01*
X0324585Y0103420D01*
X0324848Y0103417D01*
X0325111Y0103407D01*
X0325374Y0103391D01*
X0325636Y0103368D01*
X0325897Y0103339D01*
X0326158Y0103304D01*
X0326418Y0103262D01*
X0326676Y0103214D01*
X0326934Y0103160D01*
X0327190Y0103099D01*
X0327444Y0103032D01*
X0327697Y0102959D01*
X0327948Y0102879D01*
X0328197Y0102794D01*
X0328443Y0102702D01*
X0328688Y0102604D01*
X0328929Y0102501D01*
X0329169Y0102391D01*
X0329405Y0102276D01*
X0329639Y0102155D01*
X0329869Y0102028D01*
X0330096Y0101895D01*
X0330321Y0101758D01*
X0330541Y0101614D01*
X0330758Y0101465D01*
X0330971Y0101311D01*
X0331181Y0101152D01*
X0331386Y0100988D01*
X0331588Y0100818D01*
X0331785Y0100644D01*
X0331978Y0100465D01*
X0332166Y0100281D01*
X0332350Y0100093D01*
X0332529Y0099900D01*
X0332703Y0099703D01*
X0332873Y0099502D01*
X0333037Y0099297D01*
X0333197Y0099088D01*
X0333351Y0098874D01*
X0333500Y0098657D01*
X0333643Y0098437D01*
X0333782Y0098213D01*
X0333914Y0097986D01*
X0334041Y0097755D01*
X0334162Y0097522D01*
X0334278Y0097285D01*
X0334235Y0097265D01*
X0334120Y0097501D01*
X0334000Y0097733D01*
X0333873Y0097963D01*
X0333741Y0098189D01*
X0333604Y0098412D01*
X0333461Y0098631D01*
X0333312Y0098847D01*
X0333159Y0099060D01*
X0333000Y0099268D01*
X0332836Y0099472D01*
X0332668Y0099673D01*
X0332494Y0099869D01*
X0332316Y0100061D01*
X0332133Y0100248D01*
X0331945Y0100431D01*
X0331753Y0100609D01*
X0331557Y0100783D01*
X0331356Y0100951D01*
X0331152Y0101115D01*
X0330943Y0101274D01*
X0330731Y0101427D01*
X0330515Y0101575D01*
X0330295Y0101718D01*
X0330072Y0101855D01*
X0329846Y0101987D01*
X0329616Y0102113D01*
X0329384Y0102234D01*
X0329148Y0102349D01*
X0328910Y0102458D01*
X0328669Y0102561D01*
X0328426Y0102658D01*
X0328181Y0102749D01*
X0327933Y0102835D01*
X0327683Y0102914D01*
X0327432Y0102987D01*
X0327178Y0103053D01*
X0326923Y0103114D01*
X0326667Y0103168D01*
X0326410Y0103216D01*
X0326151Y0103258D01*
X0325891Y0103293D01*
X0325631Y0103322D01*
X0325370Y0103344D01*
X0325109Y0103360D01*
X0324847Y0103370D01*
X0324585Y0103373D01*
X0324323Y0103370D01*
X0324061Y0103360D01*
X0323800Y0103344D01*
X0323539Y0103322D01*
X0323279Y0103293D01*
X0323019Y0103258D01*
X0322760Y0103216D01*
X0322503Y0103168D01*
X0322247Y0103114D01*
X0321992Y0103053D01*
X0321738Y0102987D01*
X0321487Y0102914D01*
X0321237Y0102835D01*
X0320989Y0102749D01*
X0320744Y0102658D01*
X0320501Y0102561D01*
X0320260Y0102458D01*
X0320022Y0102349D01*
X0319786Y0102234D01*
X0319554Y0102113D01*
X0319324Y0101987D01*
X0319098Y0101855D01*
X0318875Y0101718D01*
X0318655Y0101575D01*
X0318439Y0101427D01*
X0318227Y0101274D01*
X0318018Y0101115D01*
X0317814Y0100951D01*
X0317613Y0100783D01*
X0317417Y0100609D01*
X0317225Y0100431D01*
X0317037Y0100248D01*
X0316854Y0100061D01*
X0316676Y0099869D01*
X0316502Y0099673D01*
X0316334Y0099472D01*
X0316170Y0099268D01*
X0316011Y0099060D01*
X0315858Y0098847D01*
X0315709Y0098631D01*
X0315566Y0098412D01*
X0315429Y0098189D01*
X0315297Y0097963D01*
X0315170Y0097733D01*
X0315050Y0097501D01*
X0314935Y0097265D01*
X0314977Y0097245D01*
X0315092Y0097480D01*
X0315212Y0097711D01*
X0315338Y0097940D01*
X0315469Y0098165D01*
X0315606Y0098387D01*
X0315748Y0098605D01*
X0315896Y0098820D01*
X0316049Y0099032D01*
X0316207Y0099239D01*
X0316370Y0099443D01*
X0316538Y0099642D01*
X0316711Y0099837D01*
X0316888Y0100028D01*
X0317071Y0100215D01*
X0317257Y0100397D01*
X0317448Y0100575D01*
X0317644Y0100747D01*
X0317843Y0100915D01*
X0318047Y0101078D01*
X0318255Y0101236D01*
X0318466Y0101389D01*
X0318681Y0101536D01*
X0318900Y0101678D01*
X0319122Y0101815D01*
X0319347Y0101946D01*
X0319576Y0102072D01*
X0319807Y0102192D01*
X0320042Y0102306D01*
X0320279Y0102415D01*
X0320519Y0102518D01*
X0320761Y0102614D01*
X0321005Y0102705D01*
X0321252Y0102790D01*
X0321500Y0102869D01*
X0321751Y0102941D01*
X0322003Y0103008D01*
X0322257Y0103068D01*
X0322512Y0103122D01*
X0322768Y0103170D01*
X0323026Y0103211D01*
X0323284Y0103246D01*
X0323543Y0103275D01*
X0323803Y0103297D01*
X0324064Y0103313D01*
X0324324Y0103323D01*
X0324585Y0103326D01*
X0324846Y0103323D01*
X0325106Y0103313D01*
X0325367Y0103297D01*
X0325627Y0103275D01*
X0325886Y0103246D01*
X0326144Y0103211D01*
X0326402Y0103170D01*
X0326658Y0103122D01*
X0326913Y0103068D01*
X0327167Y0103008D01*
X0327419Y0102941D01*
X0327670Y0102869D01*
X0327918Y0102790D01*
X0328165Y0102705D01*
X0328409Y0102614D01*
X0328651Y0102518D01*
X0328891Y0102415D01*
X0329128Y0102306D01*
X0329363Y0102192D01*
X0329594Y0102072D01*
X0329823Y0101946D01*
X0330048Y0101815D01*
X0330270Y0101678D01*
X0330489Y0101536D01*
X0330704Y0101389D01*
X0330915Y0101236D01*
X0331123Y0101078D01*
X0331327Y0100915D01*
X0331526Y0100747D01*
X0331722Y0100575D01*
X0331913Y0100397D01*
X0332099Y0100215D01*
X0332282Y0100028D01*
X0332459Y0099837D01*
X0332632Y0099642D01*
X0332800Y0099443D01*
X0332963Y0099239D01*
X0333121Y0099032D01*
X0333274Y0098820D01*
X0333422Y0098605D01*
X0333564Y0098387D01*
X0333701Y0098165D01*
X0333832Y0097940D01*
X0333958Y0097711D01*
X0334078Y0097480D01*
X0334193Y0097245D01*
X0334150Y0097225D01*
X0334036Y0097459D01*
X0333917Y0097689D01*
X0333791Y0097917D01*
X0333660Y0098141D01*
X0333524Y0098362D01*
X0333382Y0098579D01*
X0333236Y0098793D01*
X0333083Y0099004D01*
X0332926Y0099210D01*
X0332764Y0099413D01*
X0332596Y0099611D01*
X0332424Y0099806D01*
X0332248Y0099996D01*
X0332066Y0100182D01*
X0331880Y0100363D01*
X0331690Y0100540D01*
X0331495Y0100712D01*
X0331297Y0100879D01*
X0331094Y0101041D01*
X0330887Y0101198D01*
X0330677Y0101350D01*
X0330463Y0101497D01*
X0330245Y0101638D01*
X0330024Y0101775D01*
X0329800Y0101905D01*
X0329572Y0102030D01*
X0329342Y0102150D01*
X0329108Y0102264D01*
X0328872Y0102372D01*
X0328633Y0102474D01*
X0328392Y0102570D01*
X0328149Y0102661D01*
X0327903Y0102745D01*
X0327656Y0102824D01*
X0327407Y0102896D01*
X0327155Y0102962D01*
X0326903Y0103022D01*
X0326649Y0103076D01*
X0326394Y0103123D01*
X0326137Y0103165D01*
X0325880Y0103199D01*
X0325622Y0103228D01*
X0325363Y0103250D01*
X0325104Y0103266D01*
X0324845Y0103276D01*
X0324585Y0103279D01*
X0324325Y0103276D01*
X0324066Y0103266D01*
X0323807Y0103250D01*
X0323548Y0103228D01*
X0323290Y0103199D01*
X0323033Y0103165D01*
X0322776Y0103123D01*
X0322521Y0103076D01*
X0322267Y0103022D01*
X0322015Y0102962D01*
X0321763Y0102896D01*
X0321514Y0102824D01*
X0321267Y0102745D01*
X0321021Y0102661D01*
X0320778Y0102570D01*
X0320537Y0102474D01*
X0320298Y0102372D01*
X0320062Y0102264D01*
X0319828Y0102150D01*
X0319598Y0102030D01*
X0319370Y0101905D01*
X0319146Y0101775D01*
X0318925Y0101638D01*
X0318707Y0101497D01*
X0318493Y0101350D01*
X0318283Y0101198D01*
X0318076Y0101041D01*
X0317873Y0100879D01*
X0317675Y0100712D01*
X0317480Y0100540D01*
X0317290Y0100363D01*
X0317104Y0100182D01*
X0316922Y0099996D01*
X0316746Y0099806D01*
X0316574Y0099611D01*
X0316406Y0099413D01*
X0316244Y0099210D01*
X0316087Y0099004D01*
X0315934Y0098793D01*
X0315788Y0098579D01*
X0315646Y0098362D01*
X0315510Y0098141D01*
X0315379Y0097917D01*
X0315253Y0097689D01*
X0315134Y0097459D01*
X0315020Y0097225D01*
X0315062Y0097205D01*
X0315176Y0097438D01*
X0315295Y0097667D01*
X0315420Y0097893D01*
X0315550Y0098117D01*
X0315686Y0098337D01*
X0315827Y0098553D01*
X0315973Y0098766D01*
X0316124Y0098976D01*
X0316281Y0099181D01*
X0316443Y0099383D01*
X0316609Y0099581D01*
X0316780Y0099774D01*
X0316956Y0099964D01*
X0317137Y0100149D01*
X0317322Y0100329D01*
X0317512Y0100505D01*
X0317705Y0100676D01*
X0317903Y0100842D01*
X0318105Y0101004D01*
X0318311Y0101160D01*
X0318520Y0101312D01*
X0318733Y0101458D01*
X0318950Y0101599D01*
X0319170Y0101734D01*
X0319394Y0101864D01*
X0319620Y0101989D01*
X0319850Y0102108D01*
X0320082Y0102221D01*
X0320317Y0102329D01*
X0320555Y0102431D01*
X0320795Y0102527D01*
X0321037Y0102617D01*
X0321281Y0102701D01*
X0321528Y0102779D01*
X0321776Y0102851D01*
X0322026Y0102917D01*
X0322277Y0102976D01*
X0322530Y0103030D01*
X0322784Y0103077D01*
X0323040Y0103118D01*
X0323296Y0103153D01*
X0323553Y0103181D01*
X0323810Y0103203D01*
X0324068Y0103219D01*
X0324327Y0103229D01*
X0324585Y0103232D01*
X0324843Y0103229D01*
X0325102Y0103219D01*
X0325360Y0103203D01*
X0325617Y0103181D01*
X0325874Y0103153D01*
X0326130Y0103118D01*
X0326386Y0103077D01*
X0326640Y0103030D01*
X0326893Y0102976D01*
X0327144Y0102917D01*
X0327394Y0102851D01*
X0327642Y0102779D01*
X0327889Y0102701D01*
X0328133Y0102617D01*
X0328375Y0102527D01*
X0328615Y0102431D01*
X0328853Y0102329D01*
X0329088Y0102221D01*
X0329320Y0102108D01*
X0329550Y0101989D01*
X0329776Y0101864D01*
X0330000Y0101734D01*
X0330220Y0101599D01*
X0330437Y0101458D01*
X0330650Y0101312D01*
X0330859Y0101160D01*
X0331065Y0101004D01*
X0331267Y0100842D01*
X0331465Y0100676D01*
X0331658Y0100505D01*
X0331848Y0100329D01*
X0332033Y0100149D01*
X0332214Y0099964D01*
X0332390Y0099774D01*
X0332561Y0099581D01*
X0332727Y0099383D01*
X0332889Y0099181D01*
X0333046Y0098976D01*
X0333197Y0098766D01*
X0333343Y0098553D01*
X0333484Y0098337D01*
X0333620Y0098117D01*
X0333750Y0097893D01*
X0333875Y0097667D01*
X0333994Y0097438D01*
X0334108Y0097205D01*
X0334065Y0097185D01*
X0333952Y0097417D01*
X0333834Y0097645D01*
X0333709Y0097870D01*
X0333580Y0098093D01*
X0333445Y0098312D01*
X0333304Y0098527D01*
X0333159Y0098739D01*
X0333008Y0098948D01*
X0332852Y0099153D01*
X0332691Y0099353D01*
X0332525Y0099550D01*
X0332355Y0099743D01*
X0332179Y0099931D01*
X0332000Y0100115D01*
X0331815Y0100295D01*
X0331627Y0100470D01*
X0331434Y0100641D01*
X0331237Y0100806D01*
X0331036Y0100967D01*
X0330831Y0101123D01*
X0330623Y0101273D01*
X0330410Y0101419D01*
X0330195Y0101559D01*
X0329976Y0101694D01*
X0329753Y0101824D01*
X0329528Y0101948D01*
X0329299Y0102066D01*
X0329068Y0102179D01*
X0328834Y0102286D01*
X0328597Y0102387D01*
X0328358Y0102483D01*
X0328117Y0102572D01*
X0327874Y0102656D01*
X0327629Y0102734D01*
X0327381Y0102805D01*
X0327133Y0102871D01*
X0326882Y0102930D01*
X0326630Y0102984D01*
X0326378Y0103031D01*
X0326123Y0103072D01*
X0325868Y0103106D01*
X0325613Y0103135D01*
X0325356Y0103157D01*
X0325099Y0103172D01*
X0324842Y0103182D01*
X0324585Y0103185D01*
X0324328Y0103182D01*
X0324071Y0103172D01*
X0323814Y0103157D01*
X0323557Y0103135D01*
X0323302Y0103106D01*
X0323047Y0103072D01*
X0322792Y0103031D01*
X0322540Y0102984D01*
X0322288Y0102930D01*
X0322037Y0102871D01*
X0321789Y0102805D01*
X0321541Y0102734D01*
X0321296Y0102656D01*
X0321053Y0102572D01*
X0320812Y0102483D01*
X0320573Y0102387D01*
X0320336Y0102286D01*
X0320102Y0102179D01*
X0319871Y0102066D01*
X0319642Y0101948D01*
X0319417Y0101824D01*
X0319194Y0101694D01*
X0318975Y0101559D01*
X0318760Y0101419D01*
X0318547Y0101273D01*
X0318339Y0101123D01*
X0318134Y0100967D01*
X0317933Y0100806D01*
X0317736Y0100641D01*
X0317543Y0100470D01*
X0317355Y0100295D01*
X0317170Y0100115D01*
X0316991Y0099931D01*
X0316815Y0099743D01*
X0316645Y0099550D01*
X0316479Y0099353D01*
X0316318Y0099153D01*
X0316162Y0098948D01*
X0316011Y0098739D01*
X0315866Y0098527D01*
X0315725Y0098312D01*
X0315590Y0098093D01*
X0315461Y0097870D01*
X0315336Y0097645D01*
X0315218Y0097417D01*
X0315105Y0097185D01*
X0315147Y0097165D01*
X0315260Y0097396D01*
X0315378Y0097623D01*
X0315501Y0097847D01*
X0315631Y0098068D01*
X0315765Y0098287D01*
X0315905Y0098501D01*
X0316050Y0098712D01*
X0316200Y0098920D01*
X0316355Y0099124D01*
X0316515Y0099324D01*
X0316680Y0099520D01*
X0316850Y0099711D01*
X0317025Y0099899D01*
X0317204Y0100082D01*
X0317387Y0100261D01*
X0317575Y0100435D01*
X0317767Y0100605D01*
X0317963Y0100770D01*
X0318163Y0100930D01*
X0318367Y0101085D01*
X0318575Y0101235D01*
X0318786Y0101380D01*
X0319001Y0101519D01*
X0319219Y0101654D01*
X0319440Y0101783D01*
X0319665Y0101906D01*
X0319892Y0102024D01*
X0320122Y0102136D01*
X0320355Y0102243D01*
X0320591Y0102344D01*
X0320828Y0102439D01*
X0321069Y0102528D01*
X0321311Y0102611D01*
X0321555Y0102689D01*
X0321801Y0102760D01*
X0322049Y0102825D01*
X0322298Y0102885D01*
X0322549Y0102938D01*
X0322801Y0102984D01*
X0323053Y0103025D01*
X0323307Y0103060D01*
X0323562Y0103088D01*
X0323817Y0103110D01*
X0324073Y0103125D01*
X0324329Y0103135D01*
X0324585Y0103138D01*
X0324841Y0103135D01*
X0325097Y0103125D01*
X0325353Y0103110D01*
X0325608Y0103088D01*
X0325863Y0103060D01*
X0326117Y0103025D01*
X0326369Y0102984D01*
X0326621Y0102938D01*
X0326872Y0102885D01*
X0327121Y0102825D01*
X0327369Y0102760D01*
X0327615Y0102689D01*
X0327859Y0102611D01*
X0328101Y0102528D01*
X0328342Y0102439D01*
X0328579Y0102344D01*
X0328815Y0102243D01*
X0329048Y0102136D01*
X0329278Y0102024D01*
X0329505Y0101906D01*
X0329730Y0101783D01*
X0329951Y0101654D01*
X0330169Y0101519D01*
X0330384Y0101380D01*
X0330595Y0101235D01*
X0330803Y0101085D01*
X0331007Y0100930D01*
X0331207Y0100770D01*
X0331403Y0100605D01*
X0331595Y0100435D01*
X0331783Y0100261D01*
X0331966Y0100082D01*
X0332145Y0099899D01*
X0332320Y0099711D01*
X0332490Y0099520D01*
X0332655Y0099324D01*
X0332815Y0099124D01*
X0332970Y0098920D01*
X0333120Y0098712D01*
X0333265Y0098501D01*
X0333405Y0098287D01*
X0333539Y0098068D01*
X0333669Y0097847D01*
X0333792Y0097623D01*
X0333910Y0097396D01*
X0334023Y0097165D01*
X0333980Y0097145D01*
X0333868Y0097374D01*
X0333751Y0097601D01*
X0333628Y0097824D01*
X0333499Y0098044D01*
X0333365Y0098261D01*
X0333226Y0098475D01*
X0333082Y0098685D01*
X0332932Y0098892D01*
X0332778Y0099095D01*
X0332618Y0099294D01*
X0332454Y0099489D01*
X0332285Y0099680D01*
X0332111Y0099867D01*
X0331933Y0100049D01*
X0331750Y0100227D01*
X0331564Y0100401D01*
X0331372Y0100569D01*
X0331177Y0100734D01*
X0330978Y0100893D01*
X0330775Y0101047D01*
X0330568Y0101197D01*
X0330358Y0101341D01*
X0330144Y0101480D01*
X0329927Y0101613D01*
X0329707Y0101742D01*
X0329483Y0101865D01*
X0329257Y0101982D01*
X0329028Y0102094D01*
X0328796Y0102200D01*
X0328561Y0102300D01*
X0328325Y0102395D01*
X0328086Y0102484D01*
X0327844Y0102567D01*
X0327601Y0102644D01*
X0327356Y0102715D01*
X0327110Y0102780D01*
X0326862Y0102839D01*
X0326612Y0102891D01*
X0326361Y0102938D01*
X0326110Y0102979D01*
X0325857Y0103013D01*
X0325603Y0103041D01*
X0325349Y0103063D01*
X0325095Y0103078D01*
X0324840Y0103088D01*
X0324585Y0103091D01*
X0324330Y0103088D01*
X0324075Y0103078D01*
X0323821Y0103063D01*
X0323567Y0103041D01*
X0323313Y0103013D01*
X0323060Y0102979D01*
X0322809Y0102938D01*
X0322558Y0102891D01*
X0322308Y0102839D01*
X0322060Y0102780D01*
X0321814Y0102715D01*
X0321569Y0102644D01*
X0321326Y0102567D01*
X0321084Y0102484D01*
X0320845Y0102395D01*
X0320609Y0102300D01*
X0320374Y0102200D01*
X0320142Y0102094D01*
X0319913Y0101982D01*
X0319687Y0101865D01*
X0319463Y0101742D01*
X0319243Y0101613D01*
X0319026Y0101480D01*
X0318812Y0101341D01*
X0318602Y0101197D01*
X0318395Y0101047D01*
X0318192Y0100893D01*
X0317993Y0100734D01*
X0317798Y0100569D01*
X0317606Y0100401D01*
X0317420Y0100227D01*
X0317237Y0100049D01*
X0317059Y0099867D01*
X0316885Y0099680D01*
X0316716Y0099489D01*
X0316552Y0099294D01*
X0316392Y0099095D01*
X0316238Y0098892D01*
X0316088Y0098685D01*
X0315944Y0098475D01*
X0315805Y0098261D01*
X0315671Y0098044D01*
X0315542Y0097824D01*
X0315419Y0097601D01*
X0315302Y0097374D01*
X0315190Y0097145D01*
X0315232Y0097125D01*
X0315344Y0097353D01*
X0315461Y0097579D01*
X0315583Y0097801D01*
X0315711Y0098020D01*
X0315845Y0098236D01*
X0315983Y0098449D01*
X0316127Y0098658D01*
X0316276Y0098864D01*
X0316429Y0099066D01*
X0316588Y0099264D01*
X0316752Y0099458D01*
X0316920Y0099648D01*
X0317093Y0099834D01*
X0317270Y0100016D01*
X0317452Y0100193D01*
X0317638Y0100366D01*
X0317828Y0100534D01*
X0318023Y0100697D01*
X0318221Y0100856D01*
X0318423Y0101009D01*
X0318629Y0101158D01*
X0318838Y0101302D01*
X0319051Y0101440D01*
X0319267Y0101573D01*
X0319486Y0101701D01*
X0319709Y0101823D01*
X0319934Y0101940D01*
X0320162Y0102051D01*
X0320393Y0102157D01*
X0320627Y0102257D01*
X0320862Y0102351D01*
X0321100Y0102440D01*
X0321340Y0102522D01*
X0321582Y0102599D01*
X0321826Y0102670D01*
X0322072Y0102734D01*
X0322319Y0102793D01*
X0322567Y0102845D01*
X0322817Y0102892D01*
X0323067Y0102932D01*
X0323319Y0102966D01*
X0323571Y0102994D01*
X0323824Y0103016D01*
X0324077Y0103032D01*
X0324331Y0103041D01*
X0324585Y0103044D01*
X0324839Y0103041D01*
X0325093Y0103032D01*
X0325346Y0103016D01*
X0325599Y0102994D01*
X0325851Y0102966D01*
X0326103Y0102932D01*
X0326353Y0102892D01*
X0326603Y0102845D01*
X0326851Y0102793D01*
X0327098Y0102734D01*
X0327344Y0102670D01*
X0327588Y0102599D01*
X0327830Y0102522D01*
X0328070Y0102440D01*
X0328308Y0102351D01*
X0328543Y0102257D01*
X0328777Y0102157D01*
X0329008Y0102051D01*
X0329236Y0101940D01*
X0329461Y0101823D01*
X0329684Y0101701D01*
X0329903Y0101573D01*
X0330119Y0101440D01*
X0330332Y0101302D01*
X0330541Y0101158D01*
X0330747Y0101009D01*
X0330949Y0100856D01*
X0331147Y0100697D01*
X0331342Y0100534D01*
X0331532Y0100366D01*
X0331718Y0100193D01*
X0331900Y0100016D01*
X0332077Y0099834D01*
X0332250Y0099648D01*
X0332418Y0099458D01*
X0332582Y0099264D01*
X0332741Y0099066D01*
X0332894Y0098864D01*
X0333043Y0098658D01*
X0333187Y0098449D01*
X0333325Y0098236D01*
X0333459Y0098020D01*
X0333587Y0097801D01*
X0333709Y0097579D01*
X0333826Y0097353D01*
X0333938Y0097125D01*
X0333895Y0097105D01*
X0333784Y0097332D01*
X0333668Y0097557D01*
X0333546Y0097778D01*
X0333418Y0097996D01*
X0333286Y0098211D01*
X0333148Y0098423D01*
X0333005Y0098631D01*
X0332857Y0098836D01*
X0332703Y0099037D01*
X0332545Y0099234D01*
X0332383Y0099428D01*
X0332215Y0099617D01*
X0332043Y0099802D01*
X0331867Y0099983D01*
X0331686Y0100159D01*
X0331500Y0100331D01*
X0331311Y0100498D01*
X0331118Y0100661D01*
X0330920Y0100819D01*
X0330719Y0100972D01*
X0330514Y0101120D01*
X0330306Y0101263D01*
X0330094Y0101400D01*
X0329879Y0101533D01*
X0329660Y0101660D01*
X0329439Y0101782D01*
X0329215Y0101898D01*
X0328987Y0102009D01*
X0328758Y0102114D01*
X0328525Y0102214D01*
X0328291Y0102307D01*
X0328054Y0102395D01*
X0327815Y0102478D01*
X0327574Y0102554D01*
X0327331Y0102624D01*
X0327087Y0102689D01*
X0326841Y0102747D01*
X0326594Y0102799D01*
X0326345Y0102845D01*
X0326096Y0102886D01*
X0325845Y0102920D01*
X0325594Y0102947D01*
X0325342Y0102969D01*
X0325090Y0102985D01*
X0324838Y0102994D01*
X0324585Y0102997D01*
X0324332Y0102994D01*
X0324080Y0102985D01*
X0323828Y0102969D01*
X0323576Y0102947D01*
X0323325Y0102920D01*
X0323074Y0102886D01*
X0322825Y0102845D01*
X0322576Y0102799D01*
X0322329Y0102747D01*
X0322083Y0102689D01*
X0321839Y0102624D01*
X0321596Y0102554D01*
X0321355Y0102478D01*
X0321116Y0102395D01*
X0320879Y0102307D01*
X0320645Y0102214D01*
X0320412Y0102114D01*
X0320183Y0102009D01*
X0319955Y0101898D01*
X0319731Y0101782D01*
X0319510Y0101660D01*
X0319291Y0101533D01*
X0319076Y0101400D01*
X0318864Y0101263D01*
X0318656Y0101120D01*
X0318451Y0100972D01*
X0318250Y0100819D01*
X0318052Y0100661D01*
X0317859Y0100498D01*
X0317670Y0100331D01*
X0317484Y0100159D01*
X0317303Y0099983D01*
X0317127Y0099802D01*
X0316955Y0099617D01*
X0316787Y0099428D01*
X0316625Y0099234D01*
X0316467Y0099037D01*
X0316313Y0098836D01*
X0316165Y0098631D01*
X0316022Y0098423D01*
X0315884Y0098211D01*
X0315752Y0097996D01*
X0315624Y0097778D01*
X0315502Y0097557D01*
X0315386Y0097332D01*
X0315275Y0097105D01*
X0333025Y0086077D02*
X0332671Y0086355D01*
X0332672Y0086355D02*
X0332817Y0086544D01*
X0332958Y0086738D01*
X0333094Y0086934D01*
X0333226Y0087133D01*
X0333353Y0087336D01*
X0333475Y0087541D01*
X0333593Y0087749D01*
X0333706Y0087960D01*
X0333813Y0088174D01*
X0333916Y0088390D01*
X0334325Y0088202D01*
X0334218Y0087976D01*
X0334105Y0087753D01*
X0333988Y0087533D01*
X0333865Y0087316D01*
X0333737Y0087101D01*
X0333604Y0086890D01*
X0333467Y0086681D01*
X0333324Y0086476D01*
X0333177Y0086274D01*
X0333025Y0086076D01*
X0332988Y0086105D01*
X0333139Y0086303D01*
X0333286Y0086503D01*
X0333428Y0086708D01*
X0333565Y0086915D01*
X0333697Y0087126D01*
X0333824Y0087339D01*
X0333946Y0087556D01*
X0334064Y0087775D01*
X0334176Y0087997D01*
X0334282Y0088222D01*
X0334240Y0088241D01*
X0334133Y0088018D01*
X0334022Y0087797D01*
X0333905Y0087578D01*
X0333783Y0087363D01*
X0333657Y0087150D01*
X0333525Y0086941D01*
X0333389Y0086734D01*
X0333248Y0086531D01*
X0333102Y0086331D01*
X0332951Y0086134D01*
X0332914Y0086163D01*
X0333064Y0086359D01*
X0333209Y0086558D01*
X0333350Y0086760D01*
X0333486Y0086966D01*
X0333617Y0087175D01*
X0333743Y0087386D01*
X0333864Y0087601D01*
X0333980Y0087818D01*
X0334091Y0088038D01*
X0334197Y0088261D01*
X0334154Y0088280D01*
X0334049Y0088059D01*
X0333938Y0087840D01*
X0333823Y0087624D01*
X0333702Y0087410D01*
X0333577Y0087199D01*
X0333446Y0086991D01*
X0333311Y0086787D01*
X0333171Y0086585D01*
X0333027Y0086387D01*
X0332877Y0086192D01*
X0332841Y0086222D01*
X0332989Y0086415D01*
X0333133Y0086613D01*
X0333272Y0086813D01*
X0333407Y0087017D01*
X0333537Y0087224D01*
X0333661Y0087433D01*
X0333781Y0087646D01*
X0333897Y0087861D01*
X0334007Y0088079D01*
X0334111Y0088300D01*
X0334069Y0088320D01*
X0333964Y0088100D01*
X0333855Y0087883D01*
X0333740Y0087669D01*
X0333621Y0087457D01*
X0333496Y0087248D01*
X0333367Y0087042D01*
X0333233Y0086840D01*
X0333095Y0086640D01*
X0332951Y0086444D01*
X0332804Y0086251D01*
X0332767Y0086280D01*
X0332914Y0086472D01*
X0333056Y0086667D01*
X0333194Y0086866D01*
X0333328Y0087068D01*
X0333456Y0087273D01*
X0333580Y0087481D01*
X0333699Y0087691D01*
X0333813Y0087905D01*
X0333922Y0088121D01*
X0334026Y0088339D01*
X0333983Y0088359D01*
X0333880Y0088141D01*
X0333771Y0087926D01*
X0333658Y0087714D01*
X0333539Y0087504D01*
X0333416Y0087297D01*
X0333288Y0087093D01*
X0333156Y0086892D01*
X0333018Y0086695D01*
X0332876Y0086500D01*
X0332730Y0086309D01*
X0332693Y0086338D01*
X0332839Y0086528D01*
X0332980Y0086722D01*
X0333117Y0086919D01*
X0333249Y0087119D01*
X0333376Y0087322D01*
X0333499Y0087528D01*
X0333617Y0087736D01*
X0333730Y0087948D01*
X0333838Y0088162D01*
X0333941Y0088378D01*
D19*
X0299962Y0116475D02*
X0297560Y0116475D01*
X0298761Y0116475D02*
X0298761Y0120079D01*
X0297560Y0118877D01*
X0296279Y0119478D02*
X0295679Y0120079D01*
X0294478Y0120079D01*
X0293877Y0119478D01*
X0293877Y0117076D01*
X0294478Y0116475D01*
X0295679Y0116475D01*
X0296279Y0117076D01*
D20*
X0166067Y0048390D02*
X0166067Y0047390D01*
X0119217Y0060382D02*
X0119217Y0061382D01*
D21*
X0128689Y0070078D02*
X0129673Y0069094D01*
X0130657Y0069094D01*
X0131641Y0070078D01*
X0131641Y0074999D01*
X0130657Y0074999D02*
X0132625Y0074999D01*
X0134766Y0074015D02*
X0135750Y0074999D01*
X0137718Y0074999D01*
X0138702Y0074015D01*
X0138702Y0073031D01*
X0134766Y0069094D01*
X0138702Y0069094D01*
M02*
