%
M48
M72
T01C0.01300
T02C0.01400
T03C0.02500
T04C0.02756
T05C0.03200
T06C0.03543
T07C0.03937
T08C0.04000
T09C0.07874
%
T01
X262917Y148677
X275909Y86079
X221185Y104583
X203862Y99464
X195594Y127023
X192839Y133716
X198744Y138047
X202681Y133323
X173154Y127811
X278665Y113244
X140083Y46709
T02
X239689Y102614
T03
X139886Y59244
X142839Y64244
X148839Y64244
X145791Y59244
X136839Y64244
T04
X91657Y67575
X111343Y67575
X127681Y59244
X157996Y59244
X186933Y60882
X187801Y70850
X207486Y70850
X216190Y71001
X235875Y71001
X174335Y154583
X174335Y134897
X127681Y40244
X157996Y40244
X186933Y41197
T05
X24571Y41604
X21151Y51001
X113737Y112430
X123737Y112430
X133737Y112430
X143737Y112430
X153737Y112430
X163737Y112430
X173737Y112430
X183737Y112430
X193737Y112430
X203737Y112430
X213737Y112430
X223737Y112430
X233737Y112430
X243737Y112430
X214042Y123195
X214042Y133195
X214042Y143195
X214042Y153195
X184042Y153195
X184042Y143195
X184042Y133195
X167917Y127417
X157917Y127417
X184042Y123195
X338508Y122181
X338508Y112181
X326773Y100660
X306618Y103283
X306618Y93283
X326773Y90660
X326773Y80660
X221385Y50661
X202385Y50661
X165673Y49346
X165673Y39346
X120004Y55882
X120004Y65882
X123737Y82430
X113737Y82430
X133737Y82430
X143737Y82430
X153737Y82430
X163737Y82430
X173737Y82430
X183737Y82430
X193737Y82430
X203737Y82430
X213737Y82430
X223737Y82430
X233737Y82430
X243737Y82430
T06
X34100Y53763
X43497Y57183
X102681Y81354
X102681Y91354
X102615Y102378
X102615Y112378
X117878Y122693
X127878Y122693
X136933Y122693
X149138Y123323
X149138Y133323
X136933Y132693
X249846Y141984
X250004Y131748
X290004Y131748
X289846Y141984
X276303Y58362
X286850Y58460
X286850Y68460
X276303Y68362
X297322Y72692
X297322Y82692
X175394Y71359
X163549Y72251
X153549Y72251
X143632Y71889
X133632Y71889
X175394Y61359
T07
X263034Y122977
X272877Y122977
X282719Y122977
T08
X55831Y56764
X65831Y55764
X75831Y56764
X85831Y55764
X95831Y56764
X105831Y55764
X82646Y66352
X57046Y66352
X57046Y84152
X226231Y146142
X236231Y146142
X235231Y136142
X225231Y136142
X226231Y126142
X236231Y126142
X348744Y119701
X348744Y109701
X338946Y101543
X338946Y91543
X82646Y84152
T09
X79780Y110331
X114609Y140432
X157263Y148595
X255554Y95418
X290199Y95418
X316758Y121746
X356129Y80974
X251085Y57836
X322950Y59247
M30
