G75*
%MOIN*%
%OFA0B0*%
%FSLAX25Y25*%
%IPPOS*%
%LPD*%
%AMOC8*
5,1,8,0,0,1.08239X$1,22.5*
%
%ADD10C,0.03937*%
%ADD11C,0.00600*%
%ADD12C,0.01000*%
%ADD13C,0.01600*%
D10*
X0010938Y0035616D02*
X0012395Y0036356D01*
X0015428Y0038243D01*
X0016238Y0038353D02*
X0023951Y0036090D01*
X0024515Y0036091D02*
X0057713Y0045895D01*
X0058038Y0045935D02*
X0095830Y0044378D01*
X0096227Y0044278D02*
X0102228Y0041358D01*
X0111809Y0036942D01*
X0112081Y0036861D02*
X0113708Y0036619D01*
X0118351Y0036707D01*
X0118819Y0036601D02*
X0123321Y0034334D01*
X0123629Y0034238D02*
X0137805Y0032210D01*
X0137908Y0032200D02*
X0151907Y0031666D01*
X0152600Y0031348D02*
X0154926Y0028854D01*
X0154927Y0028854D02*
X0154970Y0028811D01*
X0155015Y0028770D01*
X0155063Y0028732D01*
X0155113Y0028697D01*
X0155166Y0028666D01*
X0155220Y0028637D01*
X0155275Y0028612D01*
X0155333Y0028590D01*
X0155391Y0028572D01*
X0155450Y0028558D01*
X0155510Y0028547D01*
X0155571Y0028540D01*
X0155632Y0028536D01*
X0155693Y0028537D01*
X0155754Y0028541D01*
X0155815Y0028548D01*
X0155875Y0028560D01*
X0155934Y0028575D01*
X0155992Y0028593D01*
X0155992Y0028594D02*
X0165462Y0031949D01*
X0165688Y0032001D02*
X0249477Y0041090D01*
X0249763Y0041080D02*
X0256474Y0039869D01*
X0257327Y0040115D02*
X0262684Y0045024D01*
X0263656Y0045242D02*
X0266788Y0044269D01*
X0267172Y0044227D02*
X0274544Y0044867D01*
X0274927Y0044825D02*
X0290420Y0040022D01*
X0290801Y0039981D02*
X0302917Y0041015D01*
X0303214Y0040996D02*
X0312530Y0038973D01*
X0312727Y0038873D02*
X0314828Y0039139D01*
X0314942Y0039147D02*
X0321732Y0039221D01*
X0321986Y0039256D02*
X0324632Y0039981D01*
X0325128Y0040295D02*
X0325370Y0040578D01*
X0325512Y0040714D02*
X0326727Y0041670D01*
X0326726Y0041670D02*
X0326739Y0041640D01*
X0326755Y0041611D01*
X0326775Y0041585D01*
X0326797Y0041561D01*
X0326822Y0041539D01*
X0326849Y0041521D01*
X0326878Y0041506D01*
X0326909Y0041494D01*
X0326940Y0041486D01*
X0326973Y0041481D01*
X0327006Y0041480D01*
X0327038Y0041483D01*
X0327071Y0041490D01*
X0328395Y0041840D01*
X0328838Y0042091D02*
X0334083Y0047210D01*
X0334318Y0047380D02*
X0345641Y0053316D01*
X0346136Y0053430D02*
X0356666Y0053100D01*
X0356959Y0053046D02*
X0364414Y0050483D01*
X0364644Y0050370D02*
X0373362Y0044565D01*
X0373363Y0044565D02*
X0373415Y0044532D01*
X0373469Y0044503D01*
X0373524Y0044477D01*
X0373581Y0044455D01*
X0373639Y0044436D01*
X0373699Y0044421D01*
X0373759Y0044410D01*
X0373820Y0044402D01*
X0373881Y0044398D01*
X0373942Y0044397D01*
X0374003Y0044401D01*
X0374064Y0044408D01*
X0374124Y0044419D01*
X0374184Y0044433D01*
X0374242Y0044451D01*
X0374299Y0044473D01*
X0374355Y0044498D01*
X0374409Y0044527D01*
X0374462Y0044558D01*
X0374512Y0044593D01*
X0374560Y0044631D01*
X0374606Y0044672D01*
X0374649Y0044715D01*
X0374689Y0044761D01*
X0374727Y0044810D01*
X0374761Y0044861D01*
X0374792Y0044913D01*
X0374820Y0044968D01*
X0374845Y0045024D01*
X0374866Y0045081D01*
X0374883Y0045140D01*
X0374993Y0045555D01*
X0375008Y0046005D02*
X0374506Y0048562D01*
X0374546Y0049091D02*
X0375540Y0051873D01*
X0375963Y0052391D02*
X0382873Y0056592D01*
X0382924Y0056624D01*
X0382972Y0056660D01*
X0383018Y0056699D01*
X0383062Y0056740D01*
X0383103Y0056784D01*
X0383142Y0056830D01*
X0383178Y0056879D01*
X0383210Y0056929D01*
X0383240Y0056982D01*
X0383266Y0057036D01*
X0383289Y0057091D01*
X0383309Y0057148D01*
X0383325Y0057206D01*
X0383338Y0057265D01*
X0383347Y0057325D01*
X0383352Y0057385D01*
X0383354Y0057445D01*
X0383352Y0057505D01*
X0383347Y0057565D01*
X0383338Y0057624D01*
X0383325Y0057683D01*
X0383309Y0057741D01*
X0383309Y0057742D02*
X0380792Y0065888D01*
X0380763Y0066359D02*
X0381702Y0071624D01*
X0381701Y0071623D02*
X0381711Y0071686D01*
X0381716Y0071748D01*
X0381717Y0071811D01*
X0381714Y0071873D01*
X0381708Y0071936D01*
X0381697Y0071998D01*
X0381683Y0072059D01*
X0381665Y0072119D01*
X0381643Y0072177D01*
X0381617Y0072235D01*
X0381588Y0072290D01*
X0381555Y0072344D01*
X0381520Y0072395D01*
X0381481Y0072445D01*
X0381439Y0072491D01*
X0381394Y0072535D01*
X0381346Y0072576D01*
X0381296Y0072614D01*
X0381244Y0072649D01*
X0381190Y0072680D01*
X0381134Y0072708D01*
X0381076Y0072732D01*
X0381017Y0072753D01*
X0380956Y0072770D01*
X0380895Y0072783D01*
X0380833Y0072792D01*
X0380770Y0072798D01*
X0380708Y0072799D01*
X0380645Y0072796D01*
X0380583Y0072790D01*
X0380521Y0072780D01*
X0380521Y0072779D02*
X0380486Y0072774D01*
X0380450Y0072772D01*
X0380414Y0072774D01*
X0380378Y0072780D01*
X0380343Y0072789D01*
X0380309Y0072801D01*
X0380277Y0072817D01*
X0380246Y0072836D01*
X0380217Y0072858D01*
X0380191Y0072883D01*
X0380168Y0072911D01*
X0380147Y0072940D01*
X0380129Y0072972D01*
X0380115Y0073005D01*
X0380104Y0073039D01*
X0380096Y0073074D01*
X0380093Y0073110D01*
X0380092Y0073146D01*
X0380096Y0073182D01*
X0380103Y0073218D01*
X0381512Y0078872D01*
X0381920Y0079457D02*
X0383965Y0080846D01*
X0384015Y0080882D01*
X0384063Y0080922D01*
X0384109Y0080964D01*
X0384151Y0081010D01*
X0384191Y0081058D01*
X0384228Y0081108D01*
X0384262Y0081160D01*
X0384292Y0081215D01*
X0384319Y0081271D01*
X0384342Y0081329D01*
X0384361Y0081388D01*
X0384377Y0081448D01*
X0384389Y0081509D01*
X0384398Y0081571D01*
X0384402Y0081633D01*
X0384403Y0081695D01*
X0384399Y0081757D01*
X0384392Y0081819D01*
X0384381Y0081880D01*
X0384366Y0081941D01*
X0384348Y0082000D01*
X0384326Y0082058D01*
X0384300Y0082115D01*
X0383690Y0083353D01*
X0383665Y0083409D01*
X0383642Y0083467D01*
X0383624Y0083525D01*
X0383609Y0083585D01*
X0383598Y0083646D01*
X0383591Y0083707D01*
X0383587Y0083769D01*
X0383588Y0083830D01*
X0383592Y0083892D01*
X0383600Y0083953D01*
X0383611Y0084013D01*
X0383626Y0084073D01*
X0383645Y0084132D01*
X0383668Y0084189D01*
X0383694Y0084245D01*
X0383723Y0084299D01*
X0383756Y0084351D01*
X0383792Y0084401D01*
X0383792Y0084402D02*
X0386748Y0088278D01*
X0389425Y0094058D01*
X0389449Y0094843D02*
X0387598Y0099573D01*
X0387297Y0099985D02*
X0379945Y0105943D01*
X0379419Y0106160D02*
X0371652Y0106974D01*
X0371131Y0107188D02*
X0362749Y0113905D01*
X0362506Y0114189D02*
X0357684Y0122633D01*
X0357516Y0122850D02*
X0345598Y0134565D01*
X0345139Y0134822D02*
X0329479Y0138722D01*
X0329289Y0138750D02*
X0321570Y0139150D01*
X0321247Y0139222D02*
X0319932Y0139754D01*
X0317071Y0140226D01*
X0316643Y0140203D02*
X0314057Y0139492D01*
X0313573Y0139481D02*
X0298931Y0142758D01*
X0298575Y0142914D02*
X0297882Y0143400D01*
X0297493Y0143948D02*
X0296622Y0147036D01*
X0296621Y0147036D02*
X0296603Y0147094D01*
X0296582Y0147151D01*
X0296557Y0147206D01*
X0296528Y0147259D01*
X0296497Y0147311D01*
X0296462Y0147361D01*
X0296425Y0147408D01*
X0296384Y0147454D01*
X0296341Y0147496D01*
X0296296Y0147536D01*
X0296248Y0147573D01*
X0296198Y0147607D01*
X0296146Y0147639D01*
X0296092Y0147666D01*
X0296037Y0147691D01*
X0295980Y0147712D01*
X0295922Y0147730D01*
X0295863Y0147744D01*
X0295803Y0147755D01*
X0295743Y0147761D01*
X0295683Y0147765D01*
X0291046Y0147874D01*
X0290492Y0148057D02*
X0289356Y0148861D01*
X0287648Y0150674D01*
X0287050Y0150980D02*
X0234996Y0157775D01*
X0233808Y0158022D01*
X0233356Y0158114D01*
X0233111Y0158155D01*
X0219808Y0159840D01*
X0219463Y0159950D02*
X0217229Y0161142D01*
X0216957Y0161240D02*
X0180604Y0168610D01*
X0180174Y0168602D02*
X0174831Y0167331D01*
X0174832Y0167331D02*
X0174772Y0167319D01*
X0174711Y0167310D01*
X0174651Y0167305D01*
X0174590Y0167304D01*
X0174529Y0167307D01*
X0174468Y0167313D01*
X0174408Y0167323D01*
X0174349Y0167336D01*
X0174290Y0167353D01*
X0174233Y0167374D01*
X0174177Y0167398D01*
X0174122Y0167426D01*
X0174070Y0167456D01*
X0174019Y0167490D01*
X0173970Y0167527D01*
X0173924Y0167567D01*
X0173881Y0167609D01*
X0173840Y0167655D01*
X0173801Y0167702D01*
X0173766Y0167752D01*
X0173734Y0167804D01*
X0173705Y0167857D01*
X0173680Y0167913D01*
X0173658Y0167970D01*
X0173639Y0168028D01*
X0173639Y0168027D02*
X0173614Y0168114D01*
X0173613Y0168114D02*
X0173594Y0168173D01*
X0173572Y0168230D01*
X0173546Y0168286D01*
X0173517Y0168340D01*
X0173484Y0168392D01*
X0173449Y0168442D01*
X0173410Y0168490D01*
X0173369Y0168536D01*
X0173324Y0168578D01*
X0173278Y0168618D01*
X0173228Y0168655D01*
X0173177Y0168689D01*
X0173124Y0168720D01*
X0173069Y0168747D01*
X0173012Y0168771D01*
X0172954Y0168791D01*
X0172895Y0168808D01*
X0172835Y0168821D01*
X0172774Y0168831D01*
X0172713Y0168836D01*
X0172652Y0168838D01*
X0162111Y0168833D01*
X0161659Y0168725D02*
X0146351Y0160964D01*
X0145955Y0160858D02*
X0144207Y0160760D01*
X0142460Y0159653D01*
X0141901Y0159498D02*
X0140845Y0159522D01*
X0139613Y0159608D01*
X0136227Y0159336D01*
X0135930Y0159265D02*
X0132861Y0158014D01*
X0132429Y0157941D02*
X0122974Y0158455D01*
X0122177Y0158127D02*
X0121550Y0157432D01*
X0121193Y0157505D01*
X0120890Y0157519D02*
X0116351Y0157047D01*
X0113221Y0157191D01*
X0112639Y0157036D02*
X0111724Y0156454D01*
X0110759Y0155660D01*
X0110737Y0155642D02*
X0109907Y0154999D01*
X0109907Y0154998D02*
X0109904Y0154997D01*
X0109900Y0154997D01*
X0109901Y0154998D02*
X0109233Y0154928D01*
X0105362Y0155130D01*
X0104906Y0155046D02*
X0102773Y0154104D01*
X0102577Y0154041D02*
X0101480Y0153807D01*
X0101421Y0153793D01*
X0101364Y0153775D01*
X0101308Y0153754D01*
X0101253Y0153730D01*
X0101200Y0153702D01*
X0101149Y0153671D01*
X0101100Y0153638D01*
X0101052Y0153601D01*
X0101007Y0153561D01*
X0100965Y0153519D01*
X0100924Y0153475D01*
X0100887Y0153428D01*
X0100853Y0153379D01*
X0100821Y0153328D01*
X0100793Y0153275D01*
X0100768Y0153221D01*
X0100746Y0153165D01*
X0100728Y0153108D01*
X0098596Y0145773D01*
X0098270Y0145280D02*
X0069063Y0121311D01*
X0068767Y0121143D02*
X0064550Y0119627D01*
X0064058Y0119243D02*
X0054898Y0105600D01*
X0054764Y0105306D02*
X0053811Y0101814D01*
X0053792Y0101370D02*
X0054468Y0097687D01*
X0054201Y0096808D02*
X0053556Y0096147D01*
X0053322Y0095761D02*
X0047177Y0077080D01*
X0046965Y0076717D02*
X0034186Y0062741D01*
X0034022Y0062597D02*
X0025306Y0056490D01*
X0024781Y0056311D02*
X0017594Y0055963D01*
X0017087Y0055796D02*
X0006467Y0048693D01*
X0006417Y0048657D01*
X0006369Y0048618D01*
X0006323Y0048576D01*
X0006280Y0048531D01*
X0006240Y0048484D01*
X0006203Y0048435D01*
X0006169Y0048383D01*
X0006139Y0048329D01*
X0006111Y0048273D01*
X0006088Y0048216D01*
X0006068Y0048157D01*
X0006051Y0048098D01*
X0006038Y0048037D01*
X0006029Y0047976D01*
X0006024Y0047914D01*
X0006023Y0047852D01*
X0006026Y0047790D01*
X0006032Y0047729D01*
X0006042Y0047667D01*
X0006056Y0047607D01*
X0006074Y0047548D01*
X0006095Y0047490D01*
X0006120Y0047433D01*
X0006148Y0047378D01*
X0006180Y0047325D01*
X0006215Y0047273D01*
X0006253Y0047224D01*
X0006294Y0047178D01*
X0006337Y0047134D01*
X0006384Y0047093D01*
X0006433Y0047055D01*
X0006484Y0047020D01*
X0006537Y0046988D01*
X0006592Y0046960D01*
X0006649Y0046935D01*
X0006707Y0046913D01*
X0006766Y0046896D01*
X0006826Y0046882D01*
X0006887Y0046871D01*
X0010068Y0046436D01*
X0010126Y0046426D01*
X0010185Y0046413D01*
X0010242Y0046396D01*
X0010298Y0046376D01*
X0010353Y0046352D01*
X0010406Y0046325D01*
X0010458Y0046296D01*
X0010508Y0046263D01*
X0010555Y0046227D01*
X0010601Y0046188D01*
X0010644Y0046147D01*
X0010685Y0046103D01*
X0010723Y0046057D01*
X0010758Y0046009D01*
X0010790Y0045959D01*
X0010819Y0045907D01*
X0010845Y0045853D01*
X0010868Y0045798D01*
X0011232Y0044830D01*
X0011292Y0044375D02*
X0010967Y0041214D01*
X0010921Y0041002D02*
X0009536Y0036822D01*
X0009518Y0036762D01*
X0009504Y0036702D01*
X0009494Y0036640D01*
X0009488Y0036579D01*
X0009485Y0036517D01*
X0009486Y0036454D01*
X0009492Y0036393D01*
X0009501Y0036331D01*
X0009513Y0036270D01*
X0009530Y0036210D01*
X0009550Y0036152D01*
X0009574Y0036094D01*
X0009601Y0036039D01*
X0009632Y0035985D01*
X0009666Y0035933D01*
X0009704Y0035883D01*
X0009744Y0035836D01*
X0009787Y0035791D01*
X0009833Y0035749D01*
X0009881Y0035710D01*
X0009932Y0035674D01*
X0009985Y0035641D01*
X0010039Y0035612D01*
X0010096Y0035586D01*
X0010154Y0035564D01*
X0010213Y0035545D01*
X0010273Y0035530D01*
X0010334Y0035518D01*
X0010396Y0035511D01*
X0010458Y0035507D01*
X0010520Y0035508D01*
X0010582Y0035512D01*
X0010644Y0035520D01*
X0010705Y0035531D01*
X0010765Y0035547D01*
X0010824Y0035566D01*
X0010882Y0035589D01*
X0010938Y0035615D01*
X0015428Y0038243D02*
X0015480Y0038273D01*
X0015533Y0038300D01*
X0015589Y0038324D01*
X0015645Y0038344D01*
X0015703Y0038361D01*
X0015762Y0038375D01*
X0015821Y0038385D01*
X0015881Y0038391D01*
X0015941Y0038394D01*
X0016001Y0038393D01*
X0016061Y0038388D01*
X0016120Y0038380D01*
X0016179Y0038369D01*
X0016238Y0038354D01*
X0010921Y0041002D02*
X0010937Y0041054D01*
X0010950Y0041107D01*
X0010960Y0041161D01*
X0010967Y0041215D01*
X0011292Y0044376D02*
X0011296Y0044434D01*
X0011297Y0044491D01*
X0011294Y0044549D01*
X0011289Y0044607D01*
X0011280Y0044664D01*
X0011267Y0044720D01*
X0011252Y0044776D01*
X0011233Y0044831D01*
X0023950Y0036090D02*
X0024006Y0036076D01*
X0024062Y0036065D01*
X0024119Y0036056D01*
X0024176Y0036052D01*
X0024233Y0036050D01*
X0024290Y0036052D01*
X0024347Y0036057D01*
X0024404Y0036065D01*
X0024460Y0036076D01*
X0024515Y0036091D01*
X0057713Y0045895D02*
X0057766Y0045909D01*
X0057819Y0045920D01*
X0057873Y0045928D01*
X0057928Y0045934D01*
X0057982Y0045936D01*
X0058037Y0045935D01*
X0025306Y0056490D02*
X0025253Y0056456D01*
X0025199Y0056425D01*
X0025143Y0056397D01*
X0025085Y0056373D01*
X0025026Y0056353D01*
X0024966Y0056337D01*
X0024904Y0056324D01*
X0024843Y0056315D01*
X0024780Y0056310D01*
X0017595Y0055964D02*
X0017535Y0055959D01*
X0017475Y0055951D01*
X0017416Y0055939D01*
X0017358Y0055924D01*
X0017301Y0055905D01*
X0017245Y0055882D01*
X0017191Y0055857D01*
X0017138Y0055828D01*
X0017087Y0055796D01*
X0034022Y0062597D02*
X0034066Y0062630D01*
X0034108Y0062665D01*
X0034148Y0062702D01*
X0034186Y0062741D01*
X0046965Y0076717D02*
X0047004Y0076763D01*
X0047041Y0076811D01*
X0047075Y0076861D01*
X0047105Y0076913D01*
X0047132Y0076967D01*
X0047156Y0077023D01*
X0047177Y0077080D01*
X0053322Y0095761D02*
X0053341Y0095815D01*
X0053364Y0095867D01*
X0053389Y0095918D01*
X0053417Y0095968D01*
X0053448Y0096015D01*
X0053481Y0096061D01*
X0053517Y0096105D01*
X0053556Y0096147D01*
X0054201Y0096808D02*
X0054241Y0096852D01*
X0054279Y0096898D01*
X0054314Y0096946D01*
X0054346Y0096997D01*
X0054375Y0097049D01*
X0054400Y0097103D01*
X0054423Y0097158D01*
X0054442Y0097215D01*
X0054457Y0097272D01*
X0054470Y0097331D01*
X0054478Y0097390D01*
X0054483Y0097449D01*
X0054485Y0097509D01*
X0054483Y0097568D01*
X0054478Y0097628D01*
X0054469Y0097687D01*
X0053791Y0101370D02*
X0053783Y0101426D01*
X0053777Y0101481D01*
X0053775Y0101537D01*
X0053776Y0101593D01*
X0053780Y0101649D01*
X0053787Y0101705D01*
X0053797Y0101760D01*
X0053810Y0101814D01*
X0054764Y0105305D02*
X0054780Y0105357D01*
X0054798Y0105408D01*
X0054820Y0105458D01*
X0054843Y0105506D01*
X0054870Y0105554D01*
X0054899Y0105599D01*
X0064058Y0119243D02*
X0064091Y0119290D01*
X0064127Y0119335D01*
X0064166Y0119378D01*
X0064207Y0119418D01*
X0064251Y0119456D01*
X0064296Y0119492D01*
X0064343Y0119525D01*
X0064393Y0119555D01*
X0064444Y0119582D01*
X0064496Y0119606D01*
X0064550Y0119627D01*
X0068767Y0121143D02*
X0068820Y0121164D01*
X0068872Y0121188D01*
X0068923Y0121214D01*
X0068971Y0121244D01*
X0069018Y0121276D01*
X0069063Y0121311D01*
X0098270Y0145280D02*
X0098316Y0145319D01*
X0098358Y0145362D01*
X0098399Y0145406D01*
X0098436Y0145453D01*
X0098471Y0145502D01*
X0098502Y0145553D01*
X0098531Y0145606D01*
X0098556Y0145661D01*
X0098578Y0145717D01*
X0098596Y0145774D01*
X0102577Y0154041D02*
X0102627Y0154053D01*
X0102677Y0154068D01*
X0102725Y0154085D01*
X0102773Y0154104D01*
X0104906Y0155046D02*
X0104960Y0155068D01*
X0105015Y0155087D01*
X0105072Y0155102D01*
X0105129Y0155115D01*
X0105187Y0155123D01*
X0105245Y0155129D01*
X0105304Y0155131D01*
X0105362Y0155130D01*
X0110737Y0155643D02*
X0110759Y0155661D01*
X0112638Y0157036D02*
X0112691Y0157067D01*
X0112746Y0157095D01*
X0112802Y0157120D01*
X0112859Y0157141D01*
X0112918Y0157158D01*
X0112977Y0157172D01*
X0113038Y0157183D01*
X0113099Y0157189D01*
X0113160Y0157192D01*
X0113221Y0157191D01*
X0120890Y0157520D02*
X0120950Y0157524D01*
X0121011Y0157525D01*
X0121072Y0157522D01*
X0121132Y0157515D01*
X0121192Y0157505D01*
X0122177Y0158127D02*
X0122219Y0158170D01*
X0122262Y0158210D01*
X0122308Y0158248D01*
X0122356Y0158283D01*
X0122406Y0158315D01*
X0122458Y0158344D01*
X0122511Y0158370D01*
X0122566Y0158392D01*
X0122622Y0158412D01*
X0122680Y0158428D01*
X0122738Y0158440D01*
X0122796Y0158449D01*
X0122856Y0158455D01*
X0122915Y0158457D01*
X0122974Y0158456D01*
X0132430Y0157941D02*
X0132485Y0157940D01*
X0132540Y0157942D01*
X0132595Y0157946D01*
X0132650Y0157954D01*
X0132704Y0157964D01*
X0132757Y0157978D01*
X0132810Y0157995D01*
X0132862Y0158014D01*
X0135929Y0159266D02*
X0135987Y0159287D01*
X0136046Y0159305D01*
X0136105Y0159319D01*
X0136166Y0159330D01*
X0136227Y0159337D01*
X0141902Y0159498D02*
X0141961Y0159499D01*
X0142019Y0159502D01*
X0142078Y0159510D01*
X0142136Y0159520D01*
X0142193Y0159534D01*
X0142249Y0159552D01*
X0142304Y0159573D01*
X0142358Y0159596D01*
X0142410Y0159623D01*
X0142460Y0159653D01*
X0145955Y0160858D02*
X0146013Y0160863D01*
X0146072Y0160871D01*
X0146130Y0160883D01*
X0146187Y0160898D01*
X0146243Y0160917D01*
X0146298Y0160939D01*
X0146351Y0160964D01*
X0161659Y0168725D02*
X0161712Y0168750D01*
X0161766Y0168772D01*
X0161822Y0168790D01*
X0161878Y0168806D01*
X0161936Y0168818D01*
X0161994Y0168826D01*
X0162052Y0168831D01*
X0162111Y0168833D01*
X0180174Y0168603D02*
X0180235Y0168615D01*
X0180296Y0168624D01*
X0180358Y0168629D01*
X0180420Y0168630D01*
X0180482Y0168627D01*
X0180544Y0168620D01*
X0180605Y0168610D01*
X0216957Y0161240D02*
X0217013Y0161227D01*
X0217069Y0161210D01*
X0217123Y0161191D01*
X0217177Y0161168D01*
X0217229Y0161142D01*
X0219462Y0159950D02*
X0219517Y0159923D01*
X0219573Y0159899D01*
X0219630Y0159879D01*
X0219688Y0159862D01*
X0219747Y0159849D01*
X0219807Y0159840D01*
X0287049Y0150980D02*
X0287111Y0150970D01*
X0287172Y0150956D01*
X0287232Y0150938D01*
X0287290Y0150917D01*
X0287347Y0150892D01*
X0287403Y0150864D01*
X0287456Y0150832D01*
X0287508Y0150797D01*
X0287557Y0150759D01*
X0287604Y0150718D01*
X0287648Y0150674D01*
X0290491Y0148058D02*
X0290541Y0148025D01*
X0290592Y0147995D01*
X0290645Y0147968D01*
X0290699Y0147945D01*
X0290755Y0147925D01*
X0290812Y0147908D01*
X0290869Y0147894D01*
X0290927Y0147884D01*
X0290986Y0147877D01*
X0291045Y0147874D01*
X0297493Y0143948D02*
X0297511Y0143888D01*
X0297534Y0143830D01*
X0297560Y0143774D01*
X0297589Y0143719D01*
X0297622Y0143666D01*
X0297658Y0143615D01*
X0297697Y0143566D01*
X0297739Y0143521D01*
X0297784Y0143477D01*
X0297832Y0143437D01*
X0297882Y0143400D01*
X0298576Y0142915D02*
X0298622Y0142884D01*
X0298670Y0142856D01*
X0298720Y0142831D01*
X0298771Y0142808D01*
X0298823Y0142789D01*
X0298877Y0142772D01*
X0298931Y0142758D01*
X0313574Y0139480D02*
X0313634Y0139469D01*
X0313694Y0139461D01*
X0313755Y0139457D01*
X0313816Y0139456D01*
X0313877Y0139460D01*
X0313938Y0139467D01*
X0313998Y0139477D01*
X0314057Y0139492D01*
X0316643Y0140203D02*
X0316703Y0140218D01*
X0316764Y0140229D01*
X0316825Y0140236D01*
X0316886Y0140239D01*
X0316948Y0140238D01*
X0317010Y0140234D01*
X0317071Y0140226D01*
X0321247Y0139222D02*
X0321299Y0139203D01*
X0321352Y0139186D01*
X0321406Y0139173D01*
X0321460Y0139162D01*
X0321515Y0139155D01*
X0321570Y0139150D01*
X0329290Y0138751D02*
X0329338Y0138747D01*
X0329385Y0138741D01*
X0329433Y0138733D01*
X0329480Y0138722D01*
X0345139Y0134822D02*
X0345196Y0134806D01*
X0345252Y0134787D01*
X0345306Y0134764D01*
X0345360Y0134739D01*
X0345411Y0134710D01*
X0345461Y0134678D01*
X0345509Y0134643D01*
X0345555Y0134605D01*
X0345598Y0134565D01*
X0357516Y0122850D02*
X0357554Y0122811D01*
X0357590Y0122769D01*
X0357624Y0122725D01*
X0357655Y0122680D01*
X0357683Y0122633D01*
X0362507Y0114189D02*
X0362539Y0114136D01*
X0362576Y0114084D01*
X0362615Y0114035D01*
X0362657Y0113989D01*
X0362702Y0113945D01*
X0362750Y0113905D01*
X0371131Y0107188D02*
X0371176Y0107153D01*
X0371224Y0107121D01*
X0371273Y0107092D01*
X0371324Y0107066D01*
X0371376Y0107043D01*
X0371429Y0107023D01*
X0371484Y0107006D01*
X0371539Y0106992D01*
X0371595Y0106981D01*
X0371652Y0106973D01*
X0379419Y0106161D02*
X0379476Y0106153D01*
X0379533Y0106142D01*
X0379589Y0106128D01*
X0379644Y0106110D01*
X0379698Y0106090D01*
X0379750Y0106066D01*
X0379801Y0106040D01*
X0379851Y0106010D01*
X0379899Y0105978D01*
X0379945Y0105943D01*
X0387297Y0099985D02*
X0387340Y0099948D01*
X0387381Y0099908D01*
X0387420Y0099865D01*
X0387457Y0099821D01*
X0387491Y0099775D01*
X0387522Y0099727D01*
X0387550Y0099677D01*
X0387576Y0099625D01*
X0387598Y0099572D01*
X0389449Y0094842D02*
X0389470Y0094784D01*
X0389487Y0094724D01*
X0389501Y0094664D01*
X0389510Y0094602D01*
X0389516Y0094541D01*
X0389518Y0094479D01*
X0389516Y0094417D01*
X0389510Y0094355D01*
X0389501Y0094294D01*
X0389488Y0094233D01*
X0389470Y0094173D01*
X0389450Y0094115D01*
X0389425Y0094058D01*
X0381920Y0079457D02*
X0381871Y0079422D01*
X0381824Y0079383D01*
X0381779Y0079342D01*
X0381737Y0079298D01*
X0381698Y0079251D01*
X0381662Y0079202D01*
X0381629Y0079151D01*
X0381599Y0079098D01*
X0381572Y0079044D01*
X0381548Y0078988D01*
X0381528Y0078930D01*
X0381512Y0078872D01*
X0380763Y0066359D02*
X0380754Y0066300D01*
X0380749Y0066240D01*
X0380747Y0066181D01*
X0380749Y0066121D01*
X0380754Y0066062D01*
X0380763Y0066003D01*
X0380776Y0065945D01*
X0380792Y0065888D01*
X0375963Y0052390D02*
X0375911Y0052357D01*
X0375861Y0052320D01*
X0375814Y0052280D01*
X0375769Y0052237D01*
X0375727Y0052192D01*
X0375688Y0052144D01*
X0375652Y0052093D01*
X0375619Y0052041D01*
X0375589Y0051986D01*
X0375563Y0051930D01*
X0375540Y0051873D01*
X0374545Y0049091D02*
X0374527Y0049034D01*
X0374512Y0048976D01*
X0374500Y0048918D01*
X0374492Y0048858D01*
X0374488Y0048799D01*
X0374487Y0048739D01*
X0374490Y0048680D01*
X0374496Y0048620D01*
X0374506Y0048561D01*
X0375008Y0046005D02*
X0375018Y0045949D01*
X0375024Y0045892D01*
X0375027Y0045836D01*
X0375026Y0045779D01*
X0375023Y0045722D01*
X0375016Y0045666D01*
X0375006Y0045610D01*
X0374993Y0045555D01*
X0364643Y0050370D02*
X0364600Y0050398D01*
X0364555Y0050423D01*
X0364509Y0050445D01*
X0364462Y0050466D01*
X0364414Y0050484D01*
X0356959Y0053047D02*
X0356902Y0053064D01*
X0356844Y0053079D01*
X0356785Y0053090D01*
X0356725Y0053097D01*
X0356665Y0053101D01*
X0346136Y0053430D02*
X0346079Y0053430D01*
X0346022Y0053427D01*
X0345965Y0053420D01*
X0345909Y0053411D01*
X0345853Y0053398D01*
X0345799Y0053382D01*
X0345745Y0053363D01*
X0345692Y0053341D01*
X0345641Y0053316D01*
X0334318Y0047381D02*
X0334267Y0047352D01*
X0334218Y0047321D01*
X0334171Y0047287D01*
X0334126Y0047250D01*
X0334084Y0047211D01*
X0328838Y0042091D02*
X0328796Y0042053D01*
X0328752Y0042016D01*
X0328706Y0041983D01*
X0328658Y0041952D01*
X0328608Y0041923D01*
X0328557Y0041898D01*
X0328504Y0041876D01*
X0328450Y0041856D01*
X0328395Y0041840D01*
X0325512Y0040714D02*
X0325474Y0040683D01*
X0325438Y0040650D01*
X0325403Y0040615D01*
X0325370Y0040578D01*
X0325128Y0040295D02*
X0325088Y0040251D01*
X0325045Y0040209D01*
X0325000Y0040170D01*
X0324953Y0040134D01*
X0324903Y0040100D01*
X0324852Y0040070D01*
X0324799Y0040043D01*
X0324745Y0040019D01*
X0324689Y0039998D01*
X0324632Y0039980D01*
X0321985Y0039256D02*
X0321935Y0039244D01*
X0321885Y0039235D01*
X0321834Y0039227D01*
X0321783Y0039223D01*
X0321732Y0039221D01*
X0314942Y0039147D02*
X0314885Y0039145D01*
X0314828Y0039139D01*
X0312727Y0038874D02*
X0312698Y0038897D01*
X0312668Y0038918D01*
X0312635Y0038936D01*
X0312602Y0038951D01*
X0312567Y0038964D01*
X0312531Y0038973D01*
X0303214Y0040996D02*
X0303155Y0041007D01*
X0303096Y0041015D01*
X0303036Y0041018D01*
X0302977Y0041019D01*
X0302917Y0041015D01*
X0290801Y0039981D02*
X0290746Y0039977D01*
X0290691Y0039977D01*
X0290636Y0039980D01*
X0290581Y0039986D01*
X0290527Y0039995D01*
X0290473Y0040007D01*
X0290420Y0040022D01*
X0274927Y0044825D02*
X0274874Y0044840D01*
X0274820Y0044852D01*
X0274765Y0044861D01*
X0274710Y0044867D01*
X0274655Y0044870D01*
X0274600Y0044870D01*
X0274545Y0044866D01*
X0267171Y0044228D02*
X0267116Y0044224D01*
X0267061Y0044224D01*
X0267005Y0044227D01*
X0266950Y0044233D01*
X0266896Y0044242D01*
X0266842Y0044254D01*
X0266788Y0044269D01*
X0263656Y0045242D02*
X0263597Y0045258D01*
X0263537Y0045271D01*
X0263476Y0045280D01*
X0263415Y0045285D01*
X0263354Y0045287D01*
X0263292Y0045285D01*
X0263231Y0045279D01*
X0263171Y0045269D01*
X0263111Y0045256D01*
X0263052Y0045239D01*
X0262994Y0045218D01*
X0262938Y0045194D01*
X0262883Y0045166D01*
X0262830Y0045135D01*
X0262779Y0045101D01*
X0262730Y0045064D01*
X0262683Y0045024D01*
X0257327Y0040116D02*
X0257280Y0040076D01*
X0257231Y0040039D01*
X0257180Y0040005D01*
X0257127Y0039974D01*
X0257072Y0039946D01*
X0257016Y0039922D01*
X0256958Y0039901D01*
X0256899Y0039884D01*
X0256839Y0039871D01*
X0256779Y0039861D01*
X0256718Y0039855D01*
X0256656Y0039853D01*
X0256595Y0039855D01*
X0256534Y0039860D01*
X0256473Y0039869D01*
X0249763Y0041080D02*
X0249706Y0041089D01*
X0249649Y0041094D01*
X0249592Y0041096D01*
X0249534Y0041095D01*
X0249477Y0041090D01*
X0165688Y0032001D02*
X0165631Y0031993D01*
X0165574Y0031982D01*
X0165517Y0031967D01*
X0165462Y0031950D01*
X0152600Y0031348D02*
X0152558Y0031391D01*
X0152513Y0031431D01*
X0152466Y0031468D01*
X0152417Y0031503D01*
X0152365Y0031534D01*
X0152312Y0031562D01*
X0152258Y0031587D01*
X0152202Y0031609D01*
X0152144Y0031627D01*
X0152086Y0031642D01*
X0152027Y0031653D01*
X0151967Y0031661D01*
X0151907Y0031665D01*
X0137908Y0032201D02*
X0137856Y0032204D01*
X0137804Y0032210D01*
X0123629Y0034237D02*
X0123576Y0034246D01*
X0123523Y0034258D01*
X0123471Y0034273D01*
X0123420Y0034291D01*
X0123370Y0034311D01*
X0123321Y0034334D01*
X0118820Y0036601D02*
X0118765Y0036627D01*
X0118708Y0036649D01*
X0118651Y0036668D01*
X0118592Y0036683D01*
X0118532Y0036695D01*
X0118472Y0036703D01*
X0118412Y0036707D01*
X0118351Y0036708D01*
X0112080Y0036861D02*
X0112024Y0036871D01*
X0111969Y0036884D01*
X0111914Y0036900D01*
X0111861Y0036919D01*
X0111808Y0036942D01*
X0096227Y0044278D02*
X0096173Y0044302D01*
X0096118Y0044323D01*
X0096062Y0044341D01*
X0096005Y0044355D01*
X0095947Y0044366D01*
X0095889Y0044374D01*
X0095830Y0044378D01*
D11*
X0309499Y0066001D02*
X0310634Y0066001D01*
X0310067Y0066001D02*
X0310067Y0069404D01*
X0310634Y0069404D01*
X0312522Y0069404D02*
X0312522Y0066001D01*
X0313089Y0066001D02*
X0311955Y0066001D01*
X0314410Y0066001D02*
X0315545Y0066001D01*
X0314977Y0066001D02*
X0314977Y0068269D01*
X0315545Y0068269D01*
X0314977Y0069404D02*
X0314977Y0069971D01*
X0313089Y0069404D02*
X0312522Y0069404D01*
X0316959Y0069404D02*
X0316959Y0066001D01*
X0318093Y0067135D01*
X0319228Y0066001D01*
X0319228Y0069404D01*
X0321256Y0072001D02*
X0323525Y0072001D01*
X0322391Y0072001D02*
X0322391Y0075404D01*
X0323525Y0074269D01*
X0328576Y0074269D02*
X0329143Y0074269D01*
X0330277Y0073135D01*
X0330277Y0072001D02*
X0330277Y0074269D01*
X0331692Y0073702D02*
X0332259Y0074269D01*
X0333393Y0074269D01*
X0333960Y0073702D01*
X0333960Y0072568D01*
X0333393Y0072001D01*
X0332259Y0072001D01*
X0331692Y0073135D02*
X0333960Y0073135D01*
X0335375Y0073702D02*
X0335942Y0074269D01*
X0337644Y0074269D01*
X0337644Y0075404D02*
X0337644Y0072001D01*
X0335942Y0072001D01*
X0335375Y0072568D01*
X0335375Y0073702D01*
X0339058Y0073702D02*
X0339058Y0072001D01*
X0340192Y0072001D02*
X0340192Y0073702D01*
X0339625Y0074269D01*
X0339058Y0073702D01*
X0340192Y0073702D02*
X0340760Y0074269D01*
X0341327Y0074269D01*
X0341327Y0072001D01*
X0342741Y0072001D02*
X0342741Y0074269D01*
X0345010Y0074269D02*
X0345010Y0072568D01*
X0344443Y0072001D01*
X0342741Y0072001D01*
X0346424Y0072001D02*
X0346424Y0075404D01*
X0348693Y0075404D02*
X0346424Y0072001D01*
X0348693Y0072001D02*
X0348693Y0075404D01*
X0353791Y0073702D02*
X0353791Y0072001D01*
X0353791Y0073702D02*
X0354358Y0074269D01*
X0356059Y0074269D01*
X0356059Y0072001D01*
X0357474Y0072001D02*
X0359175Y0072001D01*
X0359742Y0072568D01*
X0359175Y0073135D01*
X0357474Y0073135D01*
X0357474Y0073702D02*
X0357474Y0072001D01*
X0357474Y0073702D02*
X0358041Y0074269D01*
X0359175Y0074269D01*
X0361157Y0074269D02*
X0361157Y0072568D01*
X0361724Y0072001D01*
X0362291Y0072568D01*
X0362858Y0072001D01*
X0363426Y0072568D01*
X0363426Y0074269D01*
X0365314Y0074269D02*
X0365314Y0072001D01*
X0365881Y0072001D02*
X0364747Y0072001D01*
X0367295Y0072001D02*
X0367295Y0073702D01*
X0367863Y0074269D01*
X0368997Y0074269D01*
X0368997Y0073135D02*
X0367295Y0073135D01*
X0367295Y0072001D02*
X0368997Y0072001D01*
X0369564Y0072568D01*
X0368997Y0073135D01*
X0370979Y0075404D02*
X0373247Y0075404D01*
X0372113Y0075404D02*
X0372113Y0072001D01*
X0370979Y0069404D02*
X0370979Y0066001D01*
X0372680Y0066001D01*
X0373247Y0066568D01*
X0373247Y0067702D01*
X0372680Y0068269D01*
X0370979Y0068269D01*
X0369564Y0067702D02*
X0368997Y0068269D01*
X0367863Y0068269D01*
X0367295Y0067702D01*
X0367295Y0067135D01*
X0369564Y0067135D01*
X0369564Y0066568D02*
X0369564Y0067702D01*
X0369564Y0066568D02*
X0368997Y0066001D01*
X0367863Y0066001D01*
X0365881Y0066001D02*
X0364180Y0066001D01*
X0363612Y0066568D01*
X0364180Y0067135D01*
X0365314Y0067135D01*
X0365881Y0067702D01*
X0365314Y0068269D01*
X0363612Y0068269D01*
X0362198Y0068269D02*
X0361631Y0068269D01*
X0361631Y0066001D01*
X0362198Y0066001D02*
X0361064Y0066001D01*
X0359742Y0066568D02*
X0359175Y0066001D01*
X0357474Y0066001D01*
X0357474Y0065433D02*
X0357474Y0068269D01*
X0359175Y0068269D01*
X0359742Y0067702D01*
X0359742Y0066568D01*
X0358608Y0064866D02*
X0358041Y0064866D01*
X0357474Y0065433D01*
X0356059Y0066001D02*
X0356059Y0068269D01*
X0354358Y0068269D01*
X0353791Y0067702D01*
X0353791Y0066001D01*
X0352376Y0063404D02*
X0352376Y0060001D01*
X0350675Y0060001D01*
X0350107Y0060568D01*
X0350107Y0061702D01*
X0350675Y0062269D01*
X0352376Y0062269D01*
X0353791Y0061702D02*
X0353791Y0060001D01*
X0355492Y0060001D01*
X0356059Y0060568D01*
X0355492Y0061135D01*
X0353791Y0061135D01*
X0353791Y0061702D02*
X0354358Y0062269D01*
X0355492Y0062269D01*
X0357948Y0063404D02*
X0357948Y0060001D01*
X0358515Y0060001D02*
X0357380Y0060001D01*
X0359929Y0060001D02*
X0359929Y0061702D01*
X0360496Y0062269D01*
X0362198Y0062269D01*
X0362198Y0060001D01*
X0363612Y0061135D02*
X0365881Y0061135D01*
X0365881Y0061702D02*
X0365314Y0062269D01*
X0364180Y0062269D01*
X0363612Y0061702D01*
X0363612Y0061135D01*
X0364180Y0060001D02*
X0365314Y0060001D01*
X0365881Y0060568D01*
X0365881Y0061702D01*
X0367295Y0061702D02*
X0367295Y0060568D01*
X0367863Y0060001D01*
X0369564Y0060001D01*
X0369564Y0058866D02*
X0369564Y0062269D01*
X0367863Y0062269D01*
X0367295Y0061702D01*
X0370979Y0060568D02*
X0370979Y0062836D01*
X0371546Y0063404D01*
X0372680Y0063404D01*
X0373247Y0062836D01*
X0373247Y0060568D01*
X0372680Y0060001D01*
X0371546Y0060001D01*
X0370979Y0060568D01*
X0358515Y0063404D02*
X0357948Y0063404D01*
X0361631Y0069404D02*
X0361631Y0069971D01*
X0365314Y0074269D02*
X0365881Y0074269D01*
X0365314Y0075404D02*
X0365314Y0075971D01*
X0348693Y0069404D02*
X0348693Y0066001D01*
X0346991Y0066001D01*
X0346424Y0066568D01*
X0346424Y0067702D01*
X0346991Y0068269D01*
X0348693Y0068269D01*
X0345010Y0068269D02*
X0345010Y0066568D01*
X0344443Y0066001D01*
X0342741Y0066001D01*
X0342741Y0065433D02*
X0343308Y0064866D01*
X0343876Y0064866D01*
X0342741Y0065433D02*
X0342741Y0068269D01*
X0337644Y0069404D02*
X0335942Y0069404D01*
X0335375Y0068836D01*
X0335375Y0066568D01*
X0335942Y0066001D01*
X0337644Y0066001D01*
X0337644Y0069404D01*
X0333960Y0068836D02*
X0333960Y0066568D01*
X0333393Y0066001D01*
X0332259Y0066001D01*
X0331692Y0066568D01*
X0331692Y0068836D02*
X0332259Y0069404D01*
X0333393Y0069404D01*
X0333960Y0068836D01*
X0331692Y0073135D02*
X0331692Y0073702D01*
X0326594Y0068836D02*
X0326594Y0068269D01*
X0324325Y0066001D01*
X0324325Y0067135D02*
X0325460Y0066001D01*
X0326027Y0066001D01*
X0326594Y0066568D01*
X0326594Y0067135D01*
X0325460Y0068269D01*
X0325460Y0068836D01*
X0326027Y0069404D01*
X0326594Y0068836D01*
X0329096Y0063971D02*
X0329096Y0063404D01*
X0329096Y0062269D02*
X0329096Y0060001D01*
X0329663Y0060001D02*
X0328529Y0060001D01*
X0329096Y0062269D02*
X0329663Y0062269D01*
X0331078Y0061702D02*
X0331078Y0061135D01*
X0333347Y0061135D01*
X0333347Y0061702D02*
X0332779Y0062269D01*
X0331645Y0062269D01*
X0331078Y0061702D01*
X0331645Y0060001D02*
X0332779Y0060001D01*
X0333347Y0060568D01*
X0333347Y0061702D01*
X0334761Y0061702D02*
X0334761Y0060568D01*
X0335328Y0060001D01*
X0337030Y0060001D01*
X0337030Y0058866D02*
X0337030Y0062269D01*
X0335328Y0062269D01*
X0334761Y0061702D01*
X0338351Y0060001D02*
X0339485Y0060001D01*
X0338918Y0060001D02*
X0338918Y0062269D01*
X0339485Y0062269D01*
X0338918Y0063404D02*
X0338918Y0063971D01*
X0340900Y0061702D02*
X0340900Y0060001D01*
X0342601Y0060001D01*
X0343168Y0060568D01*
X0342601Y0061135D01*
X0340900Y0061135D01*
X0340900Y0061702D02*
X0341467Y0062269D01*
X0342601Y0062269D01*
X0344583Y0063404D02*
X0346851Y0063404D01*
X0345717Y0063404D02*
X0345717Y0060001D01*
X0348126Y0060001D02*
X0348693Y0060001D01*
X0348693Y0060568D01*
X0348126Y0060568D01*
X0348126Y0060001D01*
D12*
X0247210Y0093120D02*
X0247210Y0098725D01*
X0245341Y0096857D01*
X0243473Y0098725D01*
X0243473Y0093120D01*
X0241132Y0094054D02*
X0240198Y0094988D01*
X0237396Y0094988D01*
X0237396Y0095922D02*
X0237396Y0093120D01*
X0240198Y0093120D01*
X0241132Y0094054D01*
X0238330Y0096857D02*
X0237396Y0095922D01*
X0238330Y0096857D02*
X0240198Y0096857D01*
X0235055Y0098725D02*
X0235055Y0093120D01*
X0235055Y0094988D02*
X0232253Y0096857D01*
X0229991Y0095922D02*
X0229057Y0096857D01*
X0227189Y0096857D01*
X0226254Y0095922D01*
X0226254Y0094988D01*
X0229991Y0094988D01*
X0229991Y0094054D02*
X0229991Y0095922D01*
X0229991Y0094054D02*
X0229057Y0093120D01*
X0227189Y0093120D01*
X0223914Y0093120D02*
X0223914Y0096857D01*
X0222046Y0096857D02*
X0221111Y0096857D01*
X0222046Y0096857D02*
X0223914Y0094988D01*
X0232253Y0093120D02*
X0235055Y0094988D01*
X0212772Y0095922D02*
X0210904Y0095922D01*
X0212772Y0093120D02*
X0212772Y0098725D01*
X0209036Y0098725D01*
X0205761Y0096857D02*
X0203893Y0096857D01*
X0202959Y0095922D01*
X0202959Y0093120D01*
X0205761Y0093120D01*
X0206695Y0094054D01*
X0205761Y0094988D01*
X0202959Y0094988D01*
X0200618Y0093120D02*
X0198750Y0093120D01*
X0199684Y0093120D02*
X0199684Y0096857D01*
X0200618Y0096857D01*
X0199684Y0098725D02*
X0199684Y0099659D01*
X0196566Y0096857D02*
X0196566Y0093120D01*
X0196566Y0094988D02*
X0194698Y0096857D01*
X0193764Y0096857D01*
X0191502Y0095922D02*
X0190568Y0096857D01*
X0188700Y0096857D01*
X0187766Y0095922D01*
X0187766Y0094988D01*
X0191502Y0094988D01*
X0191502Y0094054D02*
X0191502Y0095922D01*
X0191502Y0094054D02*
X0190568Y0093120D01*
X0188700Y0093120D01*
X0179348Y0093120D02*
X0175611Y0096857D01*
X0175611Y0097791D01*
X0176545Y0098725D01*
X0178414Y0098725D01*
X0179348Y0097791D01*
X0179348Y0093120D02*
X0175611Y0093120D01*
X0173271Y0094054D02*
X0169534Y0097791D01*
X0169534Y0094054D01*
X0170468Y0093120D01*
X0172336Y0093120D01*
X0173271Y0094054D01*
X0173271Y0097791D01*
X0172336Y0098725D01*
X0170468Y0098725D01*
X0169534Y0097791D01*
X0167193Y0096857D02*
X0165325Y0098725D01*
X0165325Y0093120D01*
X0167193Y0093120D02*
X0163457Y0093120D01*
X0161116Y0094054D02*
X0161116Y0095922D01*
X0158314Y0095922D01*
X0157380Y0094988D01*
X0157380Y0094054D01*
X0158314Y0093120D01*
X0160182Y0093120D01*
X0161116Y0094054D01*
X0161116Y0095922D02*
X0159248Y0097791D01*
X0157380Y0098725D01*
D13*
X0099926Y0151433D02*
X0099952Y0151562D01*
X0099981Y0151690D01*
X0100015Y0151817D01*
X0100052Y0151943D01*
X0100093Y0152068D01*
X0100138Y0152192D01*
X0100186Y0152315D01*
X0100238Y0152435D01*
X0100293Y0152555D01*
X0100352Y0152672D01*
X0100415Y0152788D01*
X0100481Y0152902D01*
X0100550Y0153014D01*
X0100623Y0153124D01*
X0100698Y0153231D01*
X0100777Y0153337D01*
X0100859Y0153439D01*
X0100944Y0153540D01*
X0101032Y0153638D01*
X0101123Y0153733D01*
X0101217Y0153825D01*
X0101313Y0153915D01*
X0101412Y0154002D01*
X0101514Y0154085D01*
X0101618Y0154166D01*
X0101724Y0154243D01*
X0101833Y0154318D01*
X0101943Y0154389D01*
X0102056Y0154457D01*
X0102171Y0154521D01*
X0102288Y0154582D01*
M02*
