%
M48
M72
T01C0.01400
T02C0.02756
T03C0.03150
T04C0.03200
T05C0.03543
T06C0.03937
T07C0.04000
T08C0.07480
T09C0.07874
%
T01
X113058Y33507
X169357Y64609
X169357Y70121
X209908Y74846
X224475Y72483
X252822Y71696
X263845Y73271
X275656Y73271
X279987Y95712
X250460Y97287
X251247Y103586
X244554Y113428
X195342Y96499
X211483Y48074
T02
X96716Y40200
X106716Y40200
X189123Y41900
X199123Y41900
X214992Y42051
X224992Y42051
X303609Y64216
X335105Y64216
X335105Y83901
X331775Y95959
X323901Y95959
X303609Y83901
X92977Y98579
X82977Y98579
T03
X131072Y36227
X137371Y36227
X143671Y36227
X140521Y31503
X134222Y31503
T04
X20775Y16198
X17355Y25595
X94193Y55843
X104193Y55843
X114193Y55843
X124193Y55843
X134193Y55843
X144193Y55843
X154193Y55843
X164193Y55843
X174193Y55843
X184193Y55843
X194193Y55843
X204193Y55843
X214193Y55843
X224193Y55843
X222707Y27223
X203707Y27223
X304239Y51224
X314082Y51105
X314239Y51224
X324082Y51105
X324239Y51224
X334082Y51105
X224193Y85843
X214193Y85843
X204193Y85843
X194193Y85843
X184193Y85843
X174193Y85843
X164193Y85843
X154193Y85843
X144193Y85843
X134193Y85843
X124193Y85843
X114193Y85843
X104193Y85843
X94193Y85843
X157309Y101209
X167309Y101209
X180246Y97002
X180246Y107002
X180246Y117002
X180246Y127002
X210246Y127002
X210246Y117002
X210246Y107002
X210246Y97002
T05
X31091Y30719
X40488Y34139
X82349Y56972
X82349Y66972
X106286Y70050
X146286Y70050
X155154Y70004
X195154Y70004
X234554Y79964
X244554Y79964
X244554Y91775
X234712Y91775
X234712Y101775
X244554Y101775
X148371Y96748
X138371Y96748
X126444Y95712
X118570Y95712
X108570Y95712
X126444Y105712
X234712Y56342
X234712Y46342
X272803Y33030
X282803Y33030
X296281Y40987
X296281Y50987
X168842Y44378
X161547Y39450
X168842Y34378
X152666Y45664
X142666Y45664
X131961Y45696
X121961Y45696
X113215Y45483
X113215Y17483
X161547Y11450
T06
X258057Y87335
X267899Y87335
X277742Y87335
T07
X62034Y30357
X52034Y31357
X72034Y31357
X82034Y30357
X92034Y31357
X102034Y30357
X72155Y41416
X54355Y41416
X54355Y67016
X72155Y67016
X257719Y116664
X267719Y115664
X277719Y116664
X277719Y106664
X267719Y105664
X257719Y106664
T08
X123001Y16148
X151742Y16148
T09
X178791Y21381
X249257Y26918
X307736Y25179
X358632Y57929
X285222Y59776
X250576Y59776
X301151Y101852
X227996Y116313
X160160Y124370
X115931Y115813
X67322Y84137
M30
