G75*
%MOIN*%
%OFA0B0*%
%FSLAX25Y25*%
%IPPOS*%
%LPD*%
%AMOC8*
5,1,8,0,0,1.08239X$1,22.5*
%
%ADD10C,0.03937*%
%ADD11C,0.01600*%
%ADD12C,0.00800*%
%ADD13C,0.00600*%
%ADD14C,0.00200*%
%ADD15C,0.00100*%
%ADD16C,0.01000*%
%ADD17C,0.00500*%
%ADD18C,0.00050*%
%ADD19C,0.00400*%
%ADD20C,0.02000*%
%ADD21C,0.00700*%
D10*
X0010938Y0035616D02*
X0012395Y0036356D01*
X0015428Y0038243D01*
X0016238Y0038353D02*
X0023951Y0036090D01*
X0024515Y0036091D02*
X0057713Y0045895D01*
X0058038Y0045935D02*
X0095830Y0044378D01*
X0096227Y0044278D02*
X0102228Y0041358D01*
X0111809Y0036942D01*
X0112081Y0036861D02*
X0113708Y0036619D01*
X0118351Y0036707D01*
X0118819Y0036601D02*
X0123321Y0034334D01*
X0123629Y0034238D02*
X0137805Y0032210D01*
X0137908Y0032200D02*
X0151907Y0031666D01*
X0152600Y0031348D02*
X0154926Y0028854D01*
X0154927Y0028854D02*
X0154970Y0028811D01*
X0155015Y0028770D01*
X0155063Y0028732D01*
X0155113Y0028697D01*
X0155166Y0028666D01*
X0155220Y0028637D01*
X0155275Y0028612D01*
X0155333Y0028590D01*
X0155391Y0028572D01*
X0155450Y0028558D01*
X0155510Y0028547D01*
X0155571Y0028540D01*
X0155632Y0028536D01*
X0155693Y0028537D01*
X0155754Y0028541D01*
X0155815Y0028548D01*
X0155875Y0028560D01*
X0155934Y0028575D01*
X0155992Y0028593D01*
X0155992Y0028594D02*
X0165462Y0031949D01*
X0165688Y0032001D02*
X0249477Y0041090D01*
X0249763Y0041080D02*
X0256474Y0039869D01*
X0257327Y0040115D02*
X0262684Y0045024D01*
X0263656Y0045242D02*
X0266788Y0044269D01*
X0267172Y0044227D02*
X0274544Y0044867D01*
X0274927Y0044825D02*
X0290420Y0040022D01*
X0290801Y0039981D02*
X0302917Y0041015D01*
X0303214Y0040996D02*
X0312530Y0038973D01*
X0312727Y0038873D02*
X0314828Y0039139D01*
X0314942Y0039147D02*
X0321732Y0039221D01*
X0321986Y0039256D02*
X0324632Y0039981D01*
X0325128Y0040295D02*
X0325370Y0040578D01*
X0325512Y0040714D02*
X0326727Y0041670D01*
X0326726Y0041670D02*
X0326739Y0041640D01*
X0326755Y0041611D01*
X0326775Y0041585D01*
X0326797Y0041561D01*
X0326822Y0041539D01*
X0326849Y0041521D01*
X0326878Y0041506D01*
X0326909Y0041494D01*
X0326940Y0041486D01*
X0326973Y0041481D01*
X0327006Y0041480D01*
X0327038Y0041483D01*
X0327071Y0041490D01*
X0328395Y0041840D01*
X0328838Y0042091D02*
X0334083Y0047210D01*
X0334318Y0047380D02*
X0345641Y0053316D01*
X0346136Y0053430D02*
X0356666Y0053100D01*
X0356959Y0053046D02*
X0364414Y0050483D01*
X0364644Y0050370D02*
X0373362Y0044565D01*
X0373363Y0044565D02*
X0373415Y0044532D01*
X0373469Y0044503D01*
X0373524Y0044477D01*
X0373581Y0044455D01*
X0373639Y0044436D01*
X0373699Y0044421D01*
X0373759Y0044410D01*
X0373820Y0044402D01*
X0373881Y0044398D01*
X0373942Y0044397D01*
X0374003Y0044401D01*
X0374064Y0044408D01*
X0374124Y0044419D01*
X0374184Y0044433D01*
X0374242Y0044451D01*
X0374299Y0044473D01*
X0374355Y0044498D01*
X0374409Y0044527D01*
X0374462Y0044558D01*
X0374512Y0044593D01*
X0374560Y0044631D01*
X0374606Y0044672D01*
X0374649Y0044715D01*
X0374689Y0044761D01*
X0374727Y0044810D01*
X0374761Y0044861D01*
X0374792Y0044913D01*
X0374820Y0044968D01*
X0374845Y0045024D01*
X0374866Y0045081D01*
X0374883Y0045140D01*
X0374993Y0045555D01*
X0375008Y0046005D02*
X0374506Y0048562D01*
X0374546Y0049091D02*
X0375540Y0051873D01*
X0375963Y0052391D02*
X0382873Y0056592D01*
X0382924Y0056624D01*
X0382972Y0056660D01*
X0383018Y0056699D01*
X0383062Y0056740D01*
X0383103Y0056784D01*
X0383142Y0056830D01*
X0383178Y0056879D01*
X0383210Y0056929D01*
X0383240Y0056982D01*
X0383266Y0057036D01*
X0383289Y0057091D01*
X0383309Y0057148D01*
X0383325Y0057206D01*
X0383338Y0057265D01*
X0383347Y0057325D01*
X0383352Y0057385D01*
X0383354Y0057445D01*
X0383352Y0057505D01*
X0383347Y0057565D01*
X0383338Y0057624D01*
X0383325Y0057683D01*
X0383309Y0057741D01*
X0383309Y0057742D02*
X0380792Y0065888D01*
X0380763Y0066359D02*
X0381702Y0071624D01*
X0381701Y0071623D02*
X0381711Y0071686D01*
X0381716Y0071748D01*
X0381717Y0071811D01*
X0381714Y0071873D01*
X0381708Y0071936D01*
X0381697Y0071998D01*
X0381683Y0072059D01*
X0381665Y0072119D01*
X0381643Y0072177D01*
X0381617Y0072235D01*
X0381588Y0072290D01*
X0381555Y0072344D01*
X0381520Y0072395D01*
X0381481Y0072445D01*
X0381439Y0072491D01*
X0381394Y0072535D01*
X0381346Y0072576D01*
X0381296Y0072614D01*
X0381244Y0072649D01*
X0381190Y0072680D01*
X0381134Y0072708D01*
X0381076Y0072732D01*
X0381017Y0072753D01*
X0380956Y0072770D01*
X0380895Y0072783D01*
X0380833Y0072792D01*
X0380770Y0072798D01*
X0380708Y0072799D01*
X0380645Y0072796D01*
X0380583Y0072790D01*
X0380521Y0072780D01*
X0380521Y0072779D02*
X0380486Y0072774D01*
X0380450Y0072772D01*
X0380414Y0072774D01*
X0380378Y0072780D01*
X0380343Y0072789D01*
X0380309Y0072801D01*
X0380277Y0072817D01*
X0380246Y0072836D01*
X0380217Y0072858D01*
X0380191Y0072883D01*
X0380168Y0072911D01*
X0380147Y0072940D01*
X0380129Y0072972D01*
X0380115Y0073005D01*
X0380104Y0073039D01*
X0380096Y0073074D01*
X0380093Y0073110D01*
X0380092Y0073146D01*
X0380096Y0073182D01*
X0380103Y0073218D01*
X0381512Y0078872D01*
X0381920Y0079457D02*
X0383965Y0080846D01*
X0384015Y0080882D01*
X0384063Y0080922D01*
X0384109Y0080964D01*
X0384151Y0081010D01*
X0384191Y0081058D01*
X0384228Y0081108D01*
X0384262Y0081160D01*
X0384292Y0081215D01*
X0384319Y0081271D01*
X0384342Y0081329D01*
X0384361Y0081388D01*
X0384377Y0081448D01*
X0384389Y0081509D01*
X0384398Y0081571D01*
X0384402Y0081633D01*
X0384403Y0081695D01*
X0384399Y0081757D01*
X0384392Y0081819D01*
X0384381Y0081880D01*
X0384366Y0081941D01*
X0384348Y0082000D01*
X0384326Y0082058D01*
X0384300Y0082115D01*
X0383690Y0083353D01*
X0383665Y0083409D01*
X0383642Y0083467D01*
X0383624Y0083525D01*
X0383609Y0083585D01*
X0383598Y0083646D01*
X0383591Y0083707D01*
X0383587Y0083769D01*
X0383588Y0083830D01*
X0383592Y0083892D01*
X0383600Y0083953D01*
X0383611Y0084013D01*
X0383626Y0084073D01*
X0383645Y0084132D01*
X0383668Y0084189D01*
X0383694Y0084245D01*
X0383723Y0084299D01*
X0383756Y0084351D01*
X0383792Y0084401D01*
X0383792Y0084402D02*
X0386748Y0088278D01*
X0389425Y0094058D01*
X0389449Y0094843D02*
X0387598Y0099573D01*
X0387297Y0099985D02*
X0379945Y0105943D01*
X0379419Y0106160D02*
X0371652Y0106974D01*
X0371131Y0107188D02*
X0362749Y0113905D01*
X0362506Y0114189D02*
X0357684Y0122633D01*
X0357516Y0122850D02*
X0345598Y0134565D01*
X0345139Y0134822D02*
X0329479Y0138722D01*
X0329289Y0138750D02*
X0321570Y0139150D01*
X0321247Y0139222D02*
X0319932Y0139754D01*
X0317071Y0140226D01*
X0316643Y0140203D02*
X0314057Y0139492D01*
X0313573Y0139481D02*
X0298931Y0142758D01*
X0298575Y0142914D02*
X0297882Y0143400D01*
X0297493Y0143948D02*
X0296622Y0147036D01*
X0296621Y0147036D02*
X0296603Y0147094D01*
X0296582Y0147151D01*
X0296557Y0147206D01*
X0296528Y0147259D01*
X0296497Y0147311D01*
X0296462Y0147361D01*
X0296425Y0147408D01*
X0296384Y0147454D01*
X0296341Y0147496D01*
X0296296Y0147536D01*
X0296248Y0147573D01*
X0296198Y0147607D01*
X0296146Y0147639D01*
X0296092Y0147666D01*
X0296037Y0147691D01*
X0295980Y0147712D01*
X0295922Y0147730D01*
X0295863Y0147744D01*
X0295803Y0147755D01*
X0295743Y0147761D01*
X0295683Y0147765D01*
X0291046Y0147874D01*
X0290492Y0148057D02*
X0289356Y0148861D01*
X0287648Y0150674D01*
X0287050Y0150980D02*
X0234996Y0157775D01*
X0233808Y0158022D01*
X0233356Y0158114D01*
X0233111Y0158155D01*
X0219808Y0159840D01*
X0219463Y0159950D02*
X0217229Y0161142D01*
X0216957Y0161240D02*
X0180604Y0168610D01*
X0180174Y0168602D02*
X0174831Y0167331D01*
X0174832Y0167331D02*
X0174772Y0167319D01*
X0174711Y0167310D01*
X0174651Y0167305D01*
X0174590Y0167304D01*
X0174529Y0167307D01*
X0174468Y0167313D01*
X0174408Y0167323D01*
X0174349Y0167336D01*
X0174290Y0167353D01*
X0174233Y0167374D01*
X0174177Y0167398D01*
X0174122Y0167426D01*
X0174070Y0167456D01*
X0174019Y0167490D01*
X0173970Y0167527D01*
X0173924Y0167567D01*
X0173881Y0167609D01*
X0173840Y0167655D01*
X0173801Y0167702D01*
X0173766Y0167752D01*
X0173734Y0167804D01*
X0173705Y0167857D01*
X0173680Y0167913D01*
X0173658Y0167970D01*
X0173639Y0168028D01*
X0173639Y0168027D02*
X0173614Y0168114D01*
X0173613Y0168114D02*
X0173594Y0168173D01*
X0173572Y0168230D01*
X0173546Y0168286D01*
X0173517Y0168340D01*
X0173484Y0168392D01*
X0173449Y0168442D01*
X0173410Y0168490D01*
X0173369Y0168536D01*
X0173324Y0168578D01*
X0173278Y0168618D01*
X0173228Y0168655D01*
X0173177Y0168689D01*
X0173124Y0168720D01*
X0173069Y0168747D01*
X0173012Y0168771D01*
X0172954Y0168791D01*
X0172895Y0168808D01*
X0172835Y0168821D01*
X0172774Y0168831D01*
X0172713Y0168836D01*
X0172652Y0168838D01*
X0162111Y0168833D01*
X0161659Y0168725D02*
X0146351Y0160964D01*
X0145955Y0160858D02*
X0144207Y0160760D01*
X0142460Y0159653D01*
X0141901Y0159498D02*
X0140845Y0159522D01*
X0139613Y0159608D01*
X0136227Y0159336D01*
X0135930Y0159265D02*
X0132861Y0158014D01*
X0132429Y0157941D02*
X0122974Y0158455D01*
X0122177Y0158127D02*
X0121550Y0157432D01*
X0121193Y0157505D01*
X0120890Y0157519D02*
X0116351Y0157047D01*
X0113221Y0157191D01*
X0112639Y0157036D02*
X0111724Y0156454D01*
X0110759Y0155660D01*
X0110737Y0155642D02*
X0109907Y0154999D01*
X0109907Y0154998D02*
X0109904Y0154997D01*
X0109900Y0154997D01*
X0109901Y0154998D02*
X0109233Y0154928D01*
X0105362Y0155130D01*
X0104906Y0155046D02*
X0102773Y0154104D01*
X0102577Y0154041D02*
X0101480Y0153807D01*
X0101421Y0153793D01*
X0101364Y0153775D01*
X0101308Y0153754D01*
X0101253Y0153730D01*
X0101200Y0153702D01*
X0101149Y0153671D01*
X0101100Y0153638D01*
X0101052Y0153601D01*
X0101007Y0153561D01*
X0100965Y0153519D01*
X0100924Y0153475D01*
X0100887Y0153428D01*
X0100853Y0153379D01*
X0100821Y0153328D01*
X0100793Y0153275D01*
X0100768Y0153221D01*
X0100746Y0153165D01*
X0100728Y0153108D01*
X0098596Y0145773D01*
X0098270Y0145280D02*
X0069063Y0121311D01*
X0068767Y0121143D02*
X0064550Y0119627D01*
X0064058Y0119243D02*
X0054898Y0105600D01*
X0054764Y0105306D02*
X0053811Y0101814D01*
X0053792Y0101370D02*
X0054468Y0097687D01*
X0054201Y0096808D02*
X0053556Y0096147D01*
X0053322Y0095761D02*
X0047177Y0077080D01*
X0046965Y0076717D02*
X0034186Y0062741D01*
X0034022Y0062597D02*
X0025306Y0056490D01*
X0024781Y0056311D02*
X0017594Y0055963D01*
X0017087Y0055796D02*
X0006467Y0048693D01*
X0006417Y0048657D01*
X0006369Y0048618D01*
X0006323Y0048576D01*
X0006280Y0048531D01*
X0006240Y0048484D01*
X0006203Y0048435D01*
X0006169Y0048383D01*
X0006139Y0048329D01*
X0006111Y0048273D01*
X0006088Y0048216D01*
X0006068Y0048157D01*
X0006051Y0048098D01*
X0006038Y0048037D01*
X0006029Y0047976D01*
X0006024Y0047914D01*
X0006023Y0047852D01*
X0006026Y0047790D01*
X0006032Y0047729D01*
X0006042Y0047667D01*
X0006056Y0047607D01*
X0006074Y0047548D01*
X0006095Y0047490D01*
X0006120Y0047433D01*
X0006148Y0047378D01*
X0006180Y0047325D01*
X0006215Y0047273D01*
X0006253Y0047224D01*
X0006294Y0047178D01*
X0006337Y0047134D01*
X0006384Y0047093D01*
X0006433Y0047055D01*
X0006484Y0047020D01*
X0006537Y0046988D01*
X0006592Y0046960D01*
X0006649Y0046935D01*
X0006707Y0046913D01*
X0006766Y0046896D01*
X0006826Y0046882D01*
X0006887Y0046871D01*
X0010068Y0046436D01*
X0010126Y0046426D01*
X0010185Y0046413D01*
X0010242Y0046396D01*
X0010298Y0046376D01*
X0010353Y0046352D01*
X0010406Y0046325D01*
X0010458Y0046296D01*
X0010508Y0046263D01*
X0010555Y0046227D01*
X0010601Y0046188D01*
X0010644Y0046147D01*
X0010685Y0046103D01*
X0010723Y0046057D01*
X0010758Y0046009D01*
X0010790Y0045959D01*
X0010819Y0045907D01*
X0010845Y0045853D01*
X0010868Y0045798D01*
X0011232Y0044830D01*
X0011292Y0044375D02*
X0010967Y0041214D01*
X0010921Y0041002D02*
X0009536Y0036822D01*
X0009518Y0036762D01*
X0009504Y0036702D01*
X0009494Y0036640D01*
X0009488Y0036579D01*
X0009485Y0036517D01*
X0009486Y0036454D01*
X0009492Y0036393D01*
X0009501Y0036331D01*
X0009513Y0036270D01*
X0009530Y0036210D01*
X0009550Y0036152D01*
X0009574Y0036094D01*
X0009601Y0036039D01*
X0009632Y0035985D01*
X0009666Y0035933D01*
X0009704Y0035883D01*
X0009744Y0035836D01*
X0009787Y0035791D01*
X0009833Y0035749D01*
X0009881Y0035710D01*
X0009932Y0035674D01*
X0009985Y0035641D01*
X0010039Y0035612D01*
X0010096Y0035586D01*
X0010154Y0035564D01*
X0010213Y0035545D01*
X0010273Y0035530D01*
X0010334Y0035518D01*
X0010396Y0035511D01*
X0010458Y0035507D01*
X0010520Y0035508D01*
X0010582Y0035512D01*
X0010644Y0035520D01*
X0010705Y0035531D01*
X0010765Y0035547D01*
X0010824Y0035566D01*
X0010882Y0035589D01*
X0010938Y0035615D01*
X0015428Y0038243D02*
X0015480Y0038273D01*
X0015533Y0038300D01*
X0015589Y0038324D01*
X0015645Y0038344D01*
X0015703Y0038361D01*
X0015762Y0038375D01*
X0015821Y0038385D01*
X0015881Y0038391D01*
X0015941Y0038394D01*
X0016001Y0038393D01*
X0016061Y0038388D01*
X0016120Y0038380D01*
X0016179Y0038369D01*
X0016238Y0038354D01*
X0010921Y0041002D02*
X0010937Y0041054D01*
X0010950Y0041107D01*
X0010960Y0041161D01*
X0010967Y0041215D01*
X0011292Y0044376D02*
X0011296Y0044434D01*
X0011297Y0044491D01*
X0011294Y0044549D01*
X0011289Y0044607D01*
X0011280Y0044664D01*
X0011267Y0044720D01*
X0011252Y0044776D01*
X0011233Y0044831D01*
X0023950Y0036090D02*
X0024006Y0036076D01*
X0024062Y0036065D01*
X0024119Y0036056D01*
X0024176Y0036052D01*
X0024233Y0036050D01*
X0024290Y0036052D01*
X0024347Y0036057D01*
X0024404Y0036065D01*
X0024460Y0036076D01*
X0024515Y0036091D01*
X0057713Y0045895D02*
X0057766Y0045909D01*
X0057819Y0045920D01*
X0057873Y0045928D01*
X0057928Y0045934D01*
X0057982Y0045936D01*
X0058037Y0045935D01*
X0025306Y0056490D02*
X0025253Y0056456D01*
X0025199Y0056425D01*
X0025143Y0056397D01*
X0025085Y0056373D01*
X0025026Y0056353D01*
X0024966Y0056337D01*
X0024904Y0056324D01*
X0024843Y0056315D01*
X0024780Y0056310D01*
X0017595Y0055964D02*
X0017535Y0055959D01*
X0017475Y0055951D01*
X0017416Y0055939D01*
X0017358Y0055924D01*
X0017301Y0055905D01*
X0017245Y0055882D01*
X0017191Y0055857D01*
X0017138Y0055828D01*
X0017087Y0055796D01*
X0034022Y0062597D02*
X0034066Y0062630D01*
X0034108Y0062665D01*
X0034148Y0062702D01*
X0034186Y0062741D01*
X0046965Y0076717D02*
X0047004Y0076763D01*
X0047041Y0076811D01*
X0047075Y0076861D01*
X0047105Y0076913D01*
X0047132Y0076967D01*
X0047156Y0077023D01*
X0047177Y0077080D01*
X0053322Y0095761D02*
X0053341Y0095815D01*
X0053364Y0095867D01*
X0053389Y0095918D01*
X0053417Y0095968D01*
X0053448Y0096015D01*
X0053481Y0096061D01*
X0053517Y0096105D01*
X0053556Y0096147D01*
X0054201Y0096808D02*
X0054241Y0096852D01*
X0054279Y0096898D01*
X0054314Y0096946D01*
X0054346Y0096997D01*
X0054375Y0097049D01*
X0054400Y0097103D01*
X0054423Y0097158D01*
X0054442Y0097215D01*
X0054457Y0097272D01*
X0054470Y0097331D01*
X0054478Y0097390D01*
X0054483Y0097449D01*
X0054485Y0097509D01*
X0054483Y0097568D01*
X0054478Y0097628D01*
X0054469Y0097687D01*
X0053791Y0101370D02*
X0053783Y0101426D01*
X0053777Y0101481D01*
X0053775Y0101537D01*
X0053776Y0101593D01*
X0053780Y0101649D01*
X0053787Y0101705D01*
X0053797Y0101760D01*
X0053810Y0101814D01*
X0054764Y0105305D02*
X0054780Y0105357D01*
X0054798Y0105408D01*
X0054820Y0105458D01*
X0054843Y0105506D01*
X0054870Y0105554D01*
X0054899Y0105599D01*
X0064058Y0119243D02*
X0064091Y0119290D01*
X0064127Y0119335D01*
X0064166Y0119378D01*
X0064207Y0119418D01*
X0064251Y0119456D01*
X0064296Y0119492D01*
X0064343Y0119525D01*
X0064393Y0119555D01*
X0064444Y0119582D01*
X0064496Y0119606D01*
X0064550Y0119627D01*
X0068767Y0121143D02*
X0068820Y0121164D01*
X0068872Y0121188D01*
X0068923Y0121214D01*
X0068971Y0121244D01*
X0069018Y0121276D01*
X0069063Y0121311D01*
X0098270Y0145280D02*
X0098316Y0145319D01*
X0098358Y0145362D01*
X0098399Y0145406D01*
X0098436Y0145453D01*
X0098471Y0145502D01*
X0098502Y0145553D01*
X0098531Y0145606D01*
X0098556Y0145661D01*
X0098578Y0145717D01*
X0098596Y0145774D01*
X0102577Y0154041D02*
X0102627Y0154053D01*
X0102677Y0154068D01*
X0102725Y0154085D01*
X0102773Y0154104D01*
X0104906Y0155046D02*
X0104960Y0155068D01*
X0105015Y0155087D01*
X0105072Y0155102D01*
X0105129Y0155115D01*
X0105187Y0155123D01*
X0105245Y0155129D01*
X0105304Y0155131D01*
X0105362Y0155130D01*
X0110737Y0155643D02*
X0110759Y0155661D01*
X0112638Y0157036D02*
X0112691Y0157067D01*
X0112746Y0157095D01*
X0112802Y0157120D01*
X0112859Y0157141D01*
X0112918Y0157158D01*
X0112977Y0157172D01*
X0113038Y0157183D01*
X0113099Y0157189D01*
X0113160Y0157192D01*
X0113221Y0157191D01*
X0120890Y0157520D02*
X0120950Y0157524D01*
X0121011Y0157525D01*
X0121072Y0157522D01*
X0121132Y0157515D01*
X0121192Y0157505D01*
X0122177Y0158127D02*
X0122219Y0158170D01*
X0122262Y0158210D01*
X0122308Y0158248D01*
X0122356Y0158283D01*
X0122406Y0158315D01*
X0122458Y0158344D01*
X0122511Y0158370D01*
X0122566Y0158392D01*
X0122622Y0158412D01*
X0122680Y0158428D01*
X0122738Y0158440D01*
X0122796Y0158449D01*
X0122856Y0158455D01*
X0122915Y0158457D01*
X0122974Y0158456D01*
X0132430Y0157941D02*
X0132485Y0157940D01*
X0132540Y0157942D01*
X0132595Y0157946D01*
X0132650Y0157954D01*
X0132704Y0157964D01*
X0132757Y0157978D01*
X0132810Y0157995D01*
X0132862Y0158014D01*
X0135929Y0159266D02*
X0135987Y0159287D01*
X0136046Y0159305D01*
X0136105Y0159319D01*
X0136166Y0159330D01*
X0136227Y0159337D01*
X0141902Y0159498D02*
X0141961Y0159499D01*
X0142019Y0159502D01*
X0142078Y0159510D01*
X0142136Y0159520D01*
X0142193Y0159534D01*
X0142249Y0159552D01*
X0142304Y0159573D01*
X0142358Y0159596D01*
X0142410Y0159623D01*
X0142460Y0159653D01*
X0145955Y0160858D02*
X0146013Y0160863D01*
X0146072Y0160871D01*
X0146130Y0160883D01*
X0146187Y0160898D01*
X0146243Y0160917D01*
X0146298Y0160939D01*
X0146351Y0160964D01*
X0161659Y0168725D02*
X0161712Y0168750D01*
X0161766Y0168772D01*
X0161822Y0168790D01*
X0161878Y0168806D01*
X0161936Y0168818D01*
X0161994Y0168826D01*
X0162052Y0168831D01*
X0162111Y0168833D01*
X0180174Y0168603D02*
X0180235Y0168615D01*
X0180296Y0168624D01*
X0180358Y0168629D01*
X0180420Y0168630D01*
X0180482Y0168627D01*
X0180544Y0168620D01*
X0180605Y0168610D01*
X0216957Y0161240D02*
X0217013Y0161227D01*
X0217069Y0161210D01*
X0217123Y0161191D01*
X0217177Y0161168D01*
X0217229Y0161142D01*
X0219462Y0159950D02*
X0219517Y0159923D01*
X0219573Y0159899D01*
X0219630Y0159879D01*
X0219688Y0159862D01*
X0219747Y0159849D01*
X0219807Y0159840D01*
X0287049Y0150980D02*
X0287111Y0150970D01*
X0287172Y0150956D01*
X0287232Y0150938D01*
X0287290Y0150917D01*
X0287347Y0150892D01*
X0287403Y0150864D01*
X0287456Y0150832D01*
X0287508Y0150797D01*
X0287557Y0150759D01*
X0287604Y0150718D01*
X0287648Y0150674D01*
X0290491Y0148058D02*
X0290541Y0148025D01*
X0290592Y0147995D01*
X0290645Y0147968D01*
X0290699Y0147945D01*
X0290755Y0147925D01*
X0290812Y0147908D01*
X0290869Y0147894D01*
X0290927Y0147884D01*
X0290986Y0147877D01*
X0291045Y0147874D01*
X0297493Y0143948D02*
X0297511Y0143888D01*
X0297534Y0143830D01*
X0297560Y0143774D01*
X0297589Y0143719D01*
X0297622Y0143666D01*
X0297658Y0143615D01*
X0297697Y0143566D01*
X0297739Y0143521D01*
X0297784Y0143477D01*
X0297832Y0143437D01*
X0297882Y0143400D01*
X0298576Y0142915D02*
X0298622Y0142884D01*
X0298670Y0142856D01*
X0298720Y0142831D01*
X0298771Y0142808D01*
X0298823Y0142789D01*
X0298877Y0142772D01*
X0298931Y0142758D01*
X0313574Y0139480D02*
X0313634Y0139469D01*
X0313694Y0139461D01*
X0313755Y0139457D01*
X0313816Y0139456D01*
X0313877Y0139460D01*
X0313938Y0139467D01*
X0313998Y0139477D01*
X0314057Y0139492D01*
X0316643Y0140203D02*
X0316703Y0140218D01*
X0316764Y0140229D01*
X0316825Y0140236D01*
X0316886Y0140239D01*
X0316948Y0140238D01*
X0317010Y0140234D01*
X0317071Y0140226D01*
X0321247Y0139222D02*
X0321299Y0139203D01*
X0321352Y0139186D01*
X0321406Y0139173D01*
X0321460Y0139162D01*
X0321515Y0139155D01*
X0321570Y0139150D01*
X0329290Y0138751D02*
X0329338Y0138747D01*
X0329385Y0138741D01*
X0329433Y0138733D01*
X0329480Y0138722D01*
X0345139Y0134822D02*
X0345196Y0134806D01*
X0345252Y0134787D01*
X0345306Y0134764D01*
X0345360Y0134739D01*
X0345411Y0134710D01*
X0345461Y0134678D01*
X0345509Y0134643D01*
X0345555Y0134605D01*
X0345598Y0134565D01*
X0357516Y0122850D02*
X0357554Y0122811D01*
X0357590Y0122769D01*
X0357624Y0122725D01*
X0357655Y0122680D01*
X0357683Y0122633D01*
X0362507Y0114189D02*
X0362539Y0114136D01*
X0362576Y0114084D01*
X0362615Y0114035D01*
X0362657Y0113989D01*
X0362702Y0113945D01*
X0362750Y0113905D01*
X0371131Y0107188D02*
X0371176Y0107153D01*
X0371224Y0107121D01*
X0371273Y0107092D01*
X0371324Y0107066D01*
X0371376Y0107043D01*
X0371429Y0107023D01*
X0371484Y0107006D01*
X0371539Y0106992D01*
X0371595Y0106981D01*
X0371652Y0106973D01*
X0379419Y0106161D02*
X0379476Y0106153D01*
X0379533Y0106142D01*
X0379589Y0106128D01*
X0379644Y0106110D01*
X0379698Y0106090D01*
X0379750Y0106066D01*
X0379801Y0106040D01*
X0379851Y0106010D01*
X0379899Y0105978D01*
X0379945Y0105943D01*
X0387297Y0099985D02*
X0387340Y0099948D01*
X0387381Y0099908D01*
X0387420Y0099865D01*
X0387457Y0099821D01*
X0387491Y0099775D01*
X0387522Y0099727D01*
X0387550Y0099677D01*
X0387576Y0099625D01*
X0387598Y0099572D01*
X0389449Y0094842D02*
X0389470Y0094784D01*
X0389487Y0094724D01*
X0389501Y0094664D01*
X0389510Y0094602D01*
X0389516Y0094541D01*
X0389518Y0094479D01*
X0389516Y0094417D01*
X0389510Y0094355D01*
X0389501Y0094294D01*
X0389488Y0094233D01*
X0389470Y0094173D01*
X0389450Y0094115D01*
X0389425Y0094058D01*
X0381920Y0079457D02*
X0381871Y0079422D01*
X0381824Y0079383D01*
X0381779Y0079342D01*
X0381737Y0079298D01*
X0381698Y0079251D01*
X0381662Y0079202D01*
X0381629Y0079151D01*
X0381599Y0079098D01*
X0381572Y0079044D01*
X0381548Y0078988D01*
X0381528Y0078930D01*
X0381512Y0078872D01*
X0380763Y0066359D02*
X0380754Y0066300D01*
X0380749Y0066240D01*
X0380747Y0066181D01*
X0380749Y0066121D01*
X0380754Y0066062D01*
X0380763Y0066003D01*
X0380776Y0065945D01*
X0380792Y0065888D01*
X0375963Y0052390D02*
X0375911Y0052357D01*
X0375861Y0052320D01*
X0375814Y0052280D01*
X0375769Y0052237D01*
X0375727Y0052192D01*
X0375688Y0052144D01*
X0375652Y0052093D01*
X0375619Y0052041D01*
X0375589Y0051986D01*
X0375563Y0051930D01*
X0375540Y0051873D01*
X0374545Y0049091D02*
X0374527Y0049034D01*
X0374512Y0048976D01*
X0374500Y0048918D01*
X0374492Y0048858D01*
X0374488Y0048799D01*
X0374487Y0048739D01*
X0374490Y0048680D01*
X0374496Y0048620D01*
X0374506Y0048561D01*
X0375008Y0046005D02*
X0375018Y0045949D01*
X0375024Y0045892D01*
X0375027Y0045836D01*
X0375026Y0045779D01*
X0375023Y0045722D01*
X0375016Y0045666D01*
X0375006Y0045610D01*
X0374993Y0045555D01*
X0364643Y0050370D02*
X0364600Y0050398D01*
X0364555Y0050423D01*
X0364509Y0050445D01*
X0364462Y0050466D01*
X0364414Y0050484D01*
X0356959Y0053047D02*
X0356902Y0053064D01*
X0356844Y0053079D01*
X0356785Y0053090D01*
X0356725Y0053097D01*
X0356665Y0053101D01*
X0346136Y0053430D02*
X0346079Y0053430D01*
X0346022Y0053427D01*
X0345965Y0053420D01*
X0345909Y0053411D01*
X0345853Y0053398D01*
X0345799Y0053382D01*
X0345745Y0053363D01*
X0345692Y0053341D01*
X0345641Y0053316D01*
X0334318Y0047381D02*
X0334267Y0047352D01*
X0334218Y0047321D01*
X0334171Y0047287D01*
X0334126Y0047250D01*
X0334084Y0047211D01*
X0328838Y0042091D02*
X0328796Y0042053D01*
X0328752Y0042016D01*
X0328706Y0041983D01*
X0328658Y0041952D01*
X0328608Y0041923D01*
X0328557Y0041898D01*
X0328504Y0041876D01*
X0328450Y0041856D01*
X0328395Y0041840D01*
X0325512Y0040714D02*
X0325474Y0040683D01*
X0325438Y0040650D01*
X0325403Y0040615D01*
X0325370Y0040578D01*
X0325128Y0040295D02*
X0325088Y0040251D01*
X0325045Y0040209D01*
X0325000Y0040170D01*
X0324953Y0040134D01*
X0324903Y0040100D01*
X0324852Y0040070D01*
X0324799Y0040043D01*
X0324745Y0040019D01*
X0324689Y0039998D01*
X0324632Y0039980D01*
X0321985Y0039256D02*
X0321935Y0039244D01*
X0321885Y0039235D01*
X0321834Y0039227D01*
X0321783Y0039223D01*
X0321732Y0039221D01*
X0314942Y0039147D02*
X0314885Y0039145D01*
X0314828Y0039139D01*
X0312727Y0038874D02*
X0312698Y0038897D01*
X0312668Y0038918D01*
X0312635Y0038936D01*
X0312602Y0038951D01*
X0312567Y0038964D01*
X0312531Y0038973D01*
X0303214Y0040996D02*
X0303155Y0041007D01*
X0303096Y0041015D01*
X0303036Y0041018D01*
X0302977Y0041019D01*
X0302917Y0041015D01*
X0290801Y0039981D02*
X0290746Y0039977D01*
X0290691Y0039977D01*
X0290636Y0039980D01*
X0290581Y0039986D01*
X0290527Y0039995D01*
X0290473Y0040007D01*
X0290420Y0040022D01*
X0274927Y0044825D02*
X0274874Y0044840D01*
X0274820Y0044852D01*
X0274765Y0044861D01*
X0274710Y0044867D01*
X0274655Y0044870D01*
X0274600Y0044870D01*
X0274545Y0044866D01*
X0267171Y0044228D02*
X0267116Y0044224D01*
X0267061Y0044224D01*
X0267005Y0044227D01*
X0266950Y0044233D01*
X0266896Y0044242D01*
X0266842Y0044254D01*
X0266788Y0044269D01*
X0263656Y0045242D02*
X0263597Y0045258D01*
X0263537Y0045271D01*
X0263476Y0045280D01*
X0263415Y0045285D01*
X0263354Y0045287D01*
X0263292Y0045285D01*
X0263231Y0045279D01*
X0263171Y0045269D01*
X0263111Y0045256D01*
X0263052Y0045239D01*
X0262994Y0045218D01*
X0262938Y0045194D01*
X0262883Y0045166D01*
X0262830Y0045135D01*
X0262779Y0045101D01*
X0262730Y0045064D01*
X0262683Y0045024D01*
X0257327Y0040116D02*
X0257280Y0040076D01*
X0257231Y0040039D01*
X0257180Y0040005D01*
X0257127Y0039974D01*
X0257072Y0039946D01*
X0257016Y0039922D01*
X0256958Y0039901D01*
X0256899Y0039884D01*
X0256839Y0039871D01*
X0256779Y0039861D01*
X0256718Y0039855D01*
X0256656Y0039853D01*
X0256595Y0039855D01*
X0256534Y0039860D01*
X0256473Y0039869D01*
X0249763Y0041080D02*
X0249706Y0041089D01*
X0249649Y0041094D01*
X0249592Y0041096D01*
X0249534Y0041095D01*
X0249477Y0041090D01*
X0165688Y0032001D02*
X0165631Y0031993D01*
X0165574Y0031982D01*
X0165517Y0031967D01*
X0165462Y0031950D01*
X0152600Y0031348D02*
X0152558Y0031391D01*
X0152513Y0031431D01*
X0152466Y0031468D01*
X0152417Y0031503D01*
X0152365Y0031534D01*
X0152312Y0031562D01*
X0152258Y0031587D01*
X0152202Y0031609D01*
X0152144Y0031627D01*
X0152086Y0031642D01*
X0152027Y0031653D01*
X0151967Y0031661D01*
X0151907Y0031665D01*
X0137908Y0032201D02*
X0137856Y0032204D01*
X0137804Y0032210D01*
X0123629Y0034237D02*
X0123576Y0034246D01*
X0123523Y0034258D01*
X0123471Y0034273D01*
X0123420Y0034291D01*
X0123370Y0034311D01*
X0123321Y0034334D01*
X0118820Y0036601D02*
X0118765Y0036627D01*
X0118708Y0036649D01*
X0118651Y0036668D01*
X0118592Y0036683D01*
X0118532Y0036695D01*
X0118472Y0036703D01*
X0118412Y0036707D01*
X0118351Y0036708D01*
X0112080Y0036861D02*
X0112024Y0036871D01*
X0111969Y0036884D01*
X0111914Y0036900D01*
X0111861Y0036919D01*
X0111808Y0036942D01*
X0096227Y0044278D02*
X0096173Y0044302D01*
X0096118Y0044323D01*
X0096062Y0044341D01*
X0096005Y0044355D01*
X0095947Y0044366D01*
X0095889Y0044374D01*
X0095830Y0044378D01*
D11*
X0170004Y0055764D02*
X0173941Y0055370D01*
X0171579Y0052220D02*
X0170004Y0055764D01*
X0177091Y0050646D01*
X0198811Y0043235D02*
X0198592Y0043238D01*
X0198373Y0043246D01*
X0198154Y0043259D01*
X0197936Y0043278D01*
X0197718Y0043302D01*
X0197501Y0043331D01*
X0197284Y0043365D01*
X0197069Y0043405D01*
X0196854Y0043450D01*
X0196641Y0043501D01*
X0196429Y0043556D01*
X0196218Y0043617D01*
X0196009Y0043682D01*
X0195802Y0043753D01*
X0195596Y0043829D01*
X0195392Y0043910D01*
X0195190Y0043995D01*
X0194991Y0044086D01*
X0194794Y0044181D01*
X0194599Y0044282D01*
X0194406Y0044387D01*
X0194216Y0044496D01*
X0194029Y0044610D01*
X0193845Y0044729D01*
X0193664Y0044852D01*
X0193486Y0044980D01*
X0193310Y0045112D01*
X0193139Y0045248D01*
X0192970Y0045388D01*
X0192805Y0045532D01*
X0192644Y0045680D01*
X0192486Y0045832D01*
X0192332Y0045988D01*
X0192182Y0046148D01*
X0192035Y0046311D01*
X0191893Y0046478D01*
X0191755Y0046648D01*
X0191621Y0046822D01*
X0191491Y0046998D01*
X0191366Y0047178D01*
X0191245Y0047361D01*
X0191129Y0047547D01*
X0191017Y0047735D01*
X0190910Y0047926D01*
X0190807Y0048120D01*
X0190709Y0048316D01*
X0190616Y0048514D01*
X0190528Y0048715D01*
X0190445Y0048918D01*
X0190366Y0049123D01*
X0190293Y0049329D01*
X0190225Y0049537D01*
X0190162Y0049747D01*
X0190104Y0049959D01*
X0190051Y0050171D01*
X0190003Y0050385D01*
X0189961Y0050600D01*
X0189924Y0050816D01*
X0189892Y0051033D01*
X0189865Y0051251D01*
X0189844Y0051469D01*
X0189828Y0051687D01*
X0189817Y0051906D01*
X0189812Y0052125D01*
X0189812Y0052345D01*
X0189817Y0052564D01*
X0189828Y0052783D01*
X0189844Y0053001D01*
X0189865Y0053219D01*
X0189892Y0053437D01*
X0189924Y0053654D01*
X0189961Y0053870D01*
X0190003Y0054085D01*
X0190051Y0054299D01*
X0190104Y0054511D01*
X0190162Y0054723D01*
X0190225Y0054933D01*
X0190293Y0055141D01*
X0190366Y0055347D01*
X0190445Y0055552D01*
X0190528Y0055755D01*
X0190616Y0055956D01*
X0190709Y0056154D01*
X0190807Y0056350D01*
X0190910Y0056544D01*
X0191017Y0056735D01*
X0191129Y0056923D01*
X0191245Y0057109D01*
X0191366Y0057292D01*
X0191491Y0057472D01*
X0191621Y0057648D01*
X0191755Y0057822D01*
X0191893Y0057992D01*
X0192035Y0058159D01*
X0192182Y0058322D01*
X0192332Y0058482D01*
X0192486Y0058638D01*
X0192644Y0058790D01*
X0192805Y0058938D01*
X0192970Y0059082D01*
X0193139Y0059222D01*
X0193310Y0059358D01*
X0193486Y0059490D01*
X0193664Y0059618D01*
X0193845Y0059741D01*
X0194029Y0059860D01*
X0194216Y0059974D01*
X0194406Y0060083D01*
X0194599Y0060188D01*
X0194794Y0060289D01*
X0194991Y0060384D01*
X0195190Y0060475D01*
X0195392Y0060560D01*
X0195596Y0060641D01*
X0195802Y0060717D01*
X0196009Y0060788D01*
X0196218Y0060853D01*
X0196429Y0060914D01*
X0196641Y0060969D01*
X0196854Y0061020D01*
X0197069Y0061065D01*
X0197284Y0061105D01*
X0197501Y0061139D01*
X0197718Y0061168D01*
X0197936Y0061192D01*
X0198154Y0061211D01*
X0198373Y0061224D01*
X0198592Y0061232D01*
X0198811Y0061235D01*
X0221811Y0061235D01*
X0222030Y0061232D01*
X0222249Y0061224D01*
X0222468Y0061211D01*
X0222686Y0061192D01*
X0222904Y0061168D01*
X0223121Y0061139D01*
X0223338Y0061105D01*
X0223553Y0061065D01*
X0223768Y0061020D01*
X0223981Y0060969D01*
X0224193Y0060914D01*
X0224404Y0060853D01*
X0224613Y0060788D01*
X0224820Y0060717D01*
X0225026Y0060641D01*
X0225230Y0060560D01*
X0225432Y0060475D01*
X0225631Y0060384D01*
X0225828Y0060289D01*
X0226023Y0060188D01*
X0226216Y0060083D01*
X0226406Y0059974D01*
X0226593Y0059860D01*
X0226777Y0059741D01*
X0226958Y0059618D01*
X0227136Y0059490D01*
X0227312Y0059358D01*
X0227483Y0059222D01*
X0227652Y0059082D01*
X0227817Y0058938D01*
X0227978Y0058790D01*
X0228136Y0058638D01*
X0228290Y0058482D01*
X0228440Y0058322D01*
X0228587Y0058159D01*
X0228729Y0057992D01*
X0228867Y0057822D01*
X0229001Y0057648D01*
X0229131Y0057472D01*
X0229256Y0057292D01*
X0229377Y0057109D01*
X0229493Y0056923D01*
X0229605Y0056735D01*
X0229712Y0056544D01*
X0229815Y0056350D01*
X0229913Y0056154D01*
X0230006Y0055956D01*
X0230094Y0055755D01*
X0230177Y0055552D01*
X0230256Y0055347D01*
X0230329Y0055141D01*
X0230397Y0054933D01*
X0230460Y0054723D01*
X0230518Y0054511D01*
X0230571Y0054299D01*
X0230619Y0054085D01*
X0230661Y0053870D01*
X0230698Y0053654D01*
X0230730Y0053437D01*
X0230757Y0053219D01*
X0230778Y0053001D01*
X0230794Y0052783D01*
X0230805Y0052564D01*
X0230810Y0052345D01*
X0230810Y0052125D01*
X0230805Y0051906D01*
X0230794Y0051687D01*
X0230778Y0051469D01*
X0230757Y0051251D01*
X0230730Y0051033D01*
X0230698Y0050816D01*
X0230661Y0050600D01*
X0230619Y0050385D01*
X0230571Y0050171D01*
X0230518Y0049959D01*
X0230460Y0049747D01*
X0230397Y0049537D01*
X0230329Y0049329D01*
X0230256Y0049123D01*
X0230177Y0048918D01*
X0230094Y0048715D01*
X0230006Y0048514D01*
X0229913Y0048316D01*
X0229815Y0048120D01*
X0229712Y0047926D01*
X0229605Y0047735D01*
X0229493Y0047547D01*
X0229377Y0047361D01*
X0229256Y0047178D01*
X0229131Y0046998D01*
X0229001Y0046822D01*
X0228867Y0046648D01*
X0228729Y0046478D01*
X0228587Y0046311D01*
X0228440Y0046148D01*
X0228290Y0045988D01*
X0228136Y0045832D01*
X0227978Y0045680D01*
X0227817Y0045532D01*
X0227652Y0045388D01*
X0227483Y0045248D01*
X0227312Y0045112D01*
X0227136Y0044980D01*
X0226958Y0044852D01*
X0226777Y0044729D01*
X0226593Y0044610D01*
X0226406Y0044496D01*
X0226216Y0044387D01*
X0226023Y0044282D01*
X0225828Y0044181D01*
X0225631Y0044086D01*
X0225432Y0043995D01*
X0225230Y0043910D01*
X0225026Y0043829D01*
X0224820Y0043753D01*
X0224613Y0043682D01*
X0224404Y0043617D01*
X0224193Y0043556D01*
X0223981Y0043501D01*
X0223768Y0043450D01*
X0223553Y0043405D01*
X0223338Y0043365D01*
X0223121Y0043331D01*
X0222904Y0043302D01*
X0222686Y0043278D01*
X0222468Y0043259D01*
X0222249Y0043246D01*
X0222030Y0043238D01*
X0221811Y0043235D01*
X0198811Y0043235D01*
X0099926Y0151433D02*
X0099952Y0151562D01*
X0099981Y0151690D01*
X0100015Y0151817D01*
X0100052Y0151943D01*
X0100093Y0152068D01*
X0100138Y0152192D01*
X0100186Y0152315D01*
X0100238Y0152435D01*
X0100293Y0152555D01*
X0100352Y0152672D01*
X0100415Y0152788D01*
X0100481Y0152902D01*
X0100550Y0153014D01*
X0100623Y0153124D01*
X0100698Y0153231D01*
X0100777Y0153337D01*
X0100859Y0153439D01*
X0100944Y0153540D01*
X0101032Y0153638D01*
X0101123Y0153733D01*
X0101217Y0153825D01*
X0101313Y0153915D01*
X0101412Y0154002D01*
X0101514Y0154085D01*
X0101618Y0154166D01*
X0101724Y0154243D01*
X0101833Y0154318D01*
X0101943Y0154389D01*
X0102056Y0154457D01*
X0102171Y0154521D01*
X0102288Y0154582D01*
D12*
X0147957Y0128929D02*
X0147957Y0127929D01*
X0147957Y0126929D01*
X0147957Y0127929D02*
X0144957Y0127929D01*
X0147957Y0127929D02*
X0150957Y0127929D01*
X0133878Y0123086D02*
X0132878Y0123086D01*
X0131878Y0123086D01*
X0132878Y0123086D02*
X0132878Y0126086D01*
X0132878Y0123086D02*
X0132878Y0120086D01*
X0114035Y0123086D02*
X0113035Y0123086D01*
X0112035Y0123086D01*
X0113035Y0123086D02*
X0113035Y0120086D01*
X0113035Y0123086D02*
X0113035Y0126086D01*
X0093989Y0108249D02*
X0092989Y0108249D01*
X0092989Y0101249D01*
X0093129Y0101247D01*
X0093269Y0101241D01*
X0093409Y0101231D01*
X0093549Y0101218D01*
X0093688Y0101200D01*
X0093827Y0101178D01*
X0093964Y0101153D01*
X0094102Y0101124D01*
X0094238Y0101091D01*
X0094373Y0101054D01*
X0094507Y0101013D01*
X0094640Y0100968D01*
X0094772Y0100920D01*
X0094902Y0100868D01*
X0095031Y0100813D01*
X0095158Y0100754D01*
X0095284Y0100691D01*
X0095408Y0100625D01*
X0095529Y0100556D01*
X0095649Y0100483D01*
X0095767Y0100406D01*
X0095882Y0100327D01*
X0095996Y0100244D01*
X0096106Y0100158D01*
X0096215Y0100069D01*
X0096321Y0099977D01*
X0096424Y0099882D01*
X0096525Y0099785D01*
X0096622Y0099684D01*
X0096717Y0099581D01*
X0096809Y0099475D01*
X0096898Y0099366D01*
X0096984Y0099256D01*
X0097067Y0099142D01*
X0097146Y0099027D01*
X0097223Y0098909D01*
X0097296Y0098789D01*
X0097365Y0098668D01*
X0097431Y0098544D01*
X0097494Y0098418D01*
X0097553Y0098291D01*
X0097608Y0098162D01*
X0097660Y0098032D01*
X0097708Y0097900D01*
X0097753Y0097767D01*
X0097794Y0097633D01*
X0097831Y0097498D01*
X0097864Y0097362D01*
X0097893Y0097224D01*
X0097918Y0097087D01*
X0097940Y0096948D01*
X0097958Y0096809D01*
X0097971Y0096669D01*
X0097981Y0096529D01*
X0097987Y0096389D01*
X0097989Y0096249D01*
X0097987Y0096109D01*
X0097981Y0095969D01*
X0097971Y0095829D01*
X0097958Y0095689D01*
X0097940Y0095550D01*
X0097918Y0095411D01*
X0097893Y0095274D01*
X0097864Y0095136D01*
X0097831Y0095000D01*
X0097794Y0094865D01*
X0097753Y0094731D01*
X0097708Y0094598D01*
X0097660Y0094466D01*
X0097608Y0094336D01*
X0097553Y0094207D01*
X0097494Y0094080D01*
X0097431Y0093954D01*
X0097365Y0093830D01*
X0097296Y0093709D01*
X0097223Y0093589D01*
X0097146Y0093471D01*
X0097067Y0093356D01*
X0096984Y0093242D01*
X0096898Y0093132D01*
X0096809Y0093023D01*
X0096717Y0092917D01*
X0096622Y0092814D01*
X0096525Y0092713D01*
X0096424Y0092616D01*
X0096321Y0092521D01*
X0096215Y0092429D01*
X0096106Y0092340D01*
X0095996Y0092254D01*
X0095882Y0092171D01*
X0095767Y0092092D01*
X0095649Y0092015D01*
X0095529Y0091942D01*
X0095408Y0091873D01*
X0095284Y0091807D01*
X0095158Y0091744D01*
X0095031Y0091685D01*
X0094902Y0091630D01*
X0094772Y0091578D01*
X0094640Y0091530D01*
X0094507Y0091485D01*
X0094373Y0091444D01*
X0094238Y0091407D01*
X0094102Y0091374D01*
X0093964Y0091345D01*
X0093827Y0091320D01*
X0093688Y0091298D01*
X0093549Y0091280D01*
X0093409Y0091267D01*
X0093269Y0091257D01*
X0093129Y0091251D01*
X0092989Y0091249D01*
X0092989Y0084249D01*
X0093989Y0084249D01*
X0089146Y0083992D02*
X0086146Y0083992D01*
X0086146Y0082992D01*
X0086146Y0083992D02*
X0083146Y0083992D01*
X0086146Y0083992D02*
X0086146Y0084992D01*
X0080626Y0088437D02*
X0080626Y0071437D01*
X0072626Y0067937D02*
X0064579Y0067937D01*
X0056626Y0071437D02*
X0056626Y0088437D01*
X0064697Y0091937D02*
X0072626Y0091937D01*
X0061626Y0079937D02*
X0061628Y0080109D01*
X0061634Y0080280D01*
X0061645Y0080452D01*
X0061660Y0080623D01*
X0061679Y0080794D01*
X0061702Y0080964D01*
X0061729Y0081134D01*
X0061761Y0081303D01*
X0061796Y0081471D01*
X0061836Y0081638D01*
X0061880Y0081804D01*
X0061927Y0081969D01*
X0061979Y0082133D01*
X0062035Y0082295D01*
X0062095Y0082456D01*
X0062159Y0082616D01*
X0062227Y0082774D01*
X0062298Y0082930D01*
X0062373Y0083084D01*
X0062453Y0083237D01*
X0062535Y0083387D01*
X0062622Y0083536D01*
X0062712Y0083682D01*
X0062806Y0083826D01*
X0062903Y0083968D01*
X0063004Y0084107D01*
X0063108Y0084244D01*
X0063215Y0084378D01*
X0063326Y0084509D01*
X0063439Y0084638D01*
X0063556Y0084764D01*
X0063676Y0084887D01*
X0063799Y0085007D01*
X0063925Y0085124D01*
X0064054Y0085237D01*
X0064185Y0085348D01*
X0064319Y0085455D01*
X0064456Y0085559D01*
X0064595Y0085660D01*
X0064737Y0085757D01*
X0064881Y0085851D01*
X0065027Y0085941D01*
X0065176Y0086028D01*
X0065326Y0086110D01*
X0065479Y0086190D01*
X0065633Y0086265D01*
X0065789Y0086336D01*
X0065947Y0086404D01*
X0066107Y0086468D01*
X0066268Y0086528D01*
X0066430Y0086584D01*
X0066594Y0086636D01*
X0066759Y0086683D01*
X0066925Y0086727D01*
X0067092Y0086767D01*
X0067260Y0086802D01*
X0067429Y0086834D01*
X0067599Y0086861D01*
X0067769Y0086884D01*
X0067940Y0086903D01*
X0068111Y0086918D01*
X0068283Y0086929D01*
X0068454Y0086935D01*
X0068626Y0086937D01*
X0068798Y0086935D01*
X0068969Y0086929D01*
X0069141Y0086918D01*
X0069312Y0086903D01*
X0069483Y0086884D01*
X0069653Y0086861D01*
X0069823Y0086834D01*
X0069992Y0086802D01*
X0070160Y0086767D01*
X0070327Y0086727D01*
X0070493Y0086683D01*
X0070658Y0086636D01*
X0070822Y0086584D01*
X0070984Y0086528D01*
X0071145Y0086468D01*
X0071305Y0086404D01*
X0071463Y0086336D01*
X0071619Y0086265D01*
X0071773Y0086190D01*
X0071926Y0086110D01*
X0072076Y0086028D01*
X0072225Y0085941D01*
X0072371Y0085851D01*
X0072515Y0085757D01*
X0072657Y0085660D01*
X0072796Y0085559D01*
X0072933Y0085455D01*
X0073067Y0085348D01*
X0073198Y0085237D01*
X0073327Y0085124D01*
X0073453Y0085007D01*
X0073576Y0084887D01*
X0073696Y0084764D01*
X0073813Y0084638D01*
X0073926Y0084509D01*
X0074037Y0084378D01*
X0074144Y0084244D01*
X0074248Y0084107D01*
X0074349Y0083968D01*
X0074446Y0083826D01*
X0074540Y0083682D01*
X0074630Y0083536D01*
X0074717Y0083387D01*
X0074799Y0083237D01*
X0074879Y0083084D01*
X0074954Y0082930D01*
X0075025Y0082774D01*
X0075093Y0082616D01*
X0075157Y0082456D01*
X0075217Y0082295D01*
X0075273Y0082133D01*
X0075325Y0081969D01*
X0075372Y0081804D01*
X0075416Y0081638D01*
X0075456Y0081471D01*
X0075491Y0081303D01*
X0075523Y0081134D01*
X0075550Y0080964D01*
X0075573Y0080794D01*
X0075592Y0080623D01*
X0075607Y0080452D01*
X0075618Y0080280D01*
X0075624Y0080109D01*
X0075626Y0079937D01*
X0075624Y0079765D01*
X0075618Y0079594D01*
X0075607Y0079422D01*
X0075592Y0079251D01*
X0075573Y0079080D01*
X0075550Y0078910D01*
X0075523Y0078740D01*
X0075491Y0078571D01*
X0075456Y0078403D01*
X0075416Y0078236D01*
X0075372Y0078070D01*
X0075325Y0077905D01*
X0075273Y0077741D01*
X0075217Y0077579D01*
X0075157Y0077418D01*
X0075093Y0077258D01*
X0075025Y0077100D01*
X0074954Y0076944D01*
X0074879Y0076790D01*
X0074799Y0076637D01*
X0074717Y0076487D01*
X0074630Y0076338D01*
X0074540Y0076192D01*
X0074446Y0076048D01*
X0074349Y0075906D01*
X0074248Y0075767D01*
X0074144Y0075630D01*
X0074037Y0075496D01*
X0073926Y0075365D01*
X0073813Y0075236D01*
X0073696Y0075110D01*
X0073576Y0074987D01*
X0073453Y0074867D01*
X0073327Y0074750D01*
X0073198Y0074637D01*
X0073067Y0074526D01*
X0072933Y0074419D01*
X0072796Y0074315D01*
X0072657Y0074214D01*
X0072515Y0074117D01*
X0072371Y0074023D01*
X0072225Y0073933D01*
X0072076Y0073846D01*
X0071926Y0073764D01*
X0071773Y0073684D01*
X0071619Y0073609D01*
X0071463Y0073538D01*
X0071305Y0073470D01*
X0071145Y0073406D01*
X0070984Y0073346D01*
X0070822Y0073290D01*
X0070658Y0073238D01*
X0070493Y0073191D01*
X0070327Y0073147D01*
X0070160Y0073107D01*
X0069992Y0073072D01*
X0069823Y0073040D01*
X0069653Y0073013D01*
X0069483Y0072990D01*
X0069312Y0072971D01*
X0069141Y0072956D01*
X0068969Y0072945D01*
X0068798Y0072939D01*
X0068626Y0072937D01*
X0068454Y0072939D01*
X0068283Y0072945D01*
X0068111Y0072956D01*
X0067940Y0072971D01*
X0067769Y0072990D01*
X0067599Y0073013D01*
X0067429Y0073040D01*
X0067260Y0073072D01*
X0067092Y0073107D01*
X0066925Y0073147D01*
X0066759Y0073191D01*
X0066594Y0073238D01*
X0066430Y0073290D01*
X0066268Y0073346D01*
X0066107Y0073406D01*
X0065947Y0073470D01*
X0065789Y0073538D01*
X0065633Y0073609D01*
X0065479Y0073684D01*
X0065326Y0073764D01*
X0065176Y0073846D01*
X0065027Y0073933D01*
X0064881Y0074023D01*
X0064737Y0074117D01*
X0064595Y0074214D01*
X0064456Y0074315D01*
X0064319Y0074419D01*
X0064185Y0074526D01*
X0064054Y0074637D01*
X0063925Y0074750D01*
X0063799Y0074867D01*
X0063676Y0074987D01*
X0063556Y0075110D01*
X0063439Y0075236D01*
X0063326Y0075365D01*
X0063215Y0075496D01*
X0063108Y0075630D01*
X0063004Y0075767D01*
X0062903Y0075906D01*
X0062806Y0076048D01*
X0062712Y0076192D01*
X0062622Y0076338D01*
X0062535Y0076487D01*
X0062453Y0076637D01*
X0062373Y0076790D01*
X0062298Y0076944D01*
X0062227Y0077100D01*
X0062159Y0077258D01*
X0062095Y0077418D01*
X0062035Y0077579D01*
X0061979Y0077741D01*
X0061927Y0077905D01*
X0061880Y0078070D01*
X0061836Y0078236D01*
X0061796Y0078403D01*
X0061761Y0078571D01*
X0061729Y0078740D01*
X0061702Y0078910D01*
X0061679Y0079080D01*
X0061660Y0079251D01*
X0061645Y0079422D01*
X0061634Y0079594D01*
X0061628Y0079765D01*
X0061626Y0079937D01*
X0063331Y0061264D02*
X0068331Y0061264D01*
X0070831Y0058764D01*
X0070831Y0053764D01*
X0068331Y0051264D01*
X0063331Y0051264D01*
X0060831Y0053764D01*
X0060831Y0058764D01*
X0063331Y0061264D01*
X0060831Y0058764D02*
X0058331Y0061264D01*
X0053331Y0061264D01*
X0050831Y0058764D01*
X0050831Y0053764D01*
X0053331Y0051264D01*
X0058331Y0051264D01*
X0060831Y0053764D01*
X0070831Y0053764D02*
X0073331Y0051264D01*
X0078331Y0051264D01*
X0080831Y0053764D01*
X0080831Y0058764D01*
X0083331Y0061264D01*
X0088331Y0061264D01*
X0090831Y0058764D01*
X0090831Y0053764D01*
X0088331Y0051264D01*
X0083331Y0051264D01*
X0080831Y0053764D01*
X0090831Y0053764D02*
X0093331Y0051264D01*
X0098331Y0051264D01*
X0100831Y0053764D01*
X0100831Y0058764D01*
X0103331Y0061264D01*
X0108331Y0061264D01*
X0110831Y0058764D01*
X0110831Y0053764D01*
X0108331Y0051264D01*
X0103331Y0051264D01*
X0100831Y0053764D01*
X0100831Y0058764D02*
X0098331Y0061264D01*
X0093331Y0061264D01*
X0090831Y0058764D01*
X0080831Y0058764D02*
X0078331Y0061264D01*
X0073331Y0061264D01*
X0070831Y0058764D01*
X0038163Y0055027D02*
X0037223Y0054685D01*
X0036284Y0054343D01*
X0037223Y0054685D02*
X0036197Y0057505D01*
X0037223Y0054685D02*
X0038249Y0051866D01*
X0105555Y0063500D02*
X0105555Y0068500D01*
X0127002Y0073070D02*
X0128002Y0073070D01*
X0129002Y0073070D01*
X0128002Y0073070D02*
X0128002Y0070070D01*
X0128002Y0073070D02*
X0128002Y0076070D01*
X0147312Y0072645D02*
X0148312Y0072645D01*
X0149312Y0072645D01*
X0148312Y0072645D02*
X0148312Y0075645D01*
X0148312Y0072645D02*
X0148312Y0069645D01*
X0162552Y0064784D02*
X0165552Y0064784D01*
X0165552Y0063784D01*
X0165552Y0064784D02*
X0165552Y0065784D01*
X0165552Y0064784D02*
X0168552Y0064784D01*
X0173016Y0064937D02*
X0178016Y0064937D01*
X0197919Y0064806D02*
X0197919Y0069806D01*
X0223788Y0069958D02*
X0223788Y0064958D01*
X0238508Y0075748D02*
X0238508Y0076748D01*
X0238508Y0077748D01*
X0238508Y0076748D02*
X0235508Y0076748D01*
X0238508Y0076748D02*
X0241508Y0076748D01*
X0232989Y0084249D02*
X0231989Y0084249D01*
X0232989Y0084249D02*
X0232989Y0108249D01*
X0231989Y0108249D01*
X0238731Y0121142D02*
X0223731Y0121142D01*
X0221231Y0123642D01*
X0221231Y0128642D01*
X0223731Y0131142D01*
X0238731Y0131142D01*
X0241231Y0128642D01*
X0241231Y0123642D01*
X0238731Y0121142D01*
X0257602Y0127023D02*
X0257602Y0136472D01*
X0282406Y0136472D01*
X0282406Y0127023D01*
X0257602Y0127023D01*
X0241231Y0133642D02*
X0238731Y0131142D01*
X0241231Y0133642D02*
X0241231Y0138642D01*
X0238731Y0141142D01*
X0223731Y0141142D01*
X0221231Y0138642D01*
X0221231Y0133642D01*
X0223731Y0131142D01*
X0223731Y0141142D02*
X0221231Y0143642D01*
X0221231Y0148642D01*
X0223731Y0151142D01*
X0238731Y0151142D01*
X0241231Y0148642D01*
X0241231Y0143642D01*
X0238731Y0141142D01*
X0257445Y0137260D02*
X0282248Y0137260D01*
X0282248Y0146709D01*
X0257445Y0146709D01*
X0257445Y0137260D01*
X0219913Y0143642D02*
X0219913Y0148642D01*
X0209042Y0157408D02*
X0203042Y0157408D01*
X0176441Y0138165D02*
X0171441Y0138165D01*
X0143271Y0100580D02*
X0118468Y0100580D01*
X0118468Y0091131D01*
X0143271Y0091131D01*
X0143271Y0100580D01*
X0280599Y0058436D02*
X0281599Y0058436D01*
X0282599Y0058436D01*
X0281599Y0058436D02*
X0281599Y0061436D01*
X0281599Y0058436D02*
X0281599Y0055436D01*
X0294322Y0077299D02*
X0297322Y0077299D01*
X0297322Y0076299D01*
X0297322Y0077299D02*
X0297322Y0078299D01*
X0297322Y0077299D02*
X0300322Y0077299D01*
X0332847Y0098524D02*
X0332847Y0116241D01*
X0340524Y0116241D01*
X0340524Y0114272D01*
X0348398Y0114272D01*
X0348398Y0116241D01*
X0356075Y0116241D01*
X0356075Y0098524D01*
X0332847Y0098524D01*
D13*
X0311043Y0102209D02*
X0310043Y0102209D01*
X0310043Y0101209D01*
X0310043Y0102209D02*
X0309043Y0102209D01*
X0310043Y0102209D02*
X0310043Y0103209D01*
X0295043Y0096709D02*
X0295046Y0096954D01*
X0295055Y0097200D01*
X0295070Y0097445D01*
X0295091Y0097689D01*
X0295118Y0097933D01*
X0295151Y0098176D01*
X0295190Y0098419D01*
X0295235Y0098660D01*
X0295286Y0098900D01*
X0295343Y0099139D01*
X0295405Y0099376D01*
X0295474Y0099612D01*
X0295548Y0099846D01*
X0295628Y0100078D01*
X0295713Y0100308D01*
X0295804Y0100536D01*
X0295901Y0100761D01*
X0296003Y0100985D01*
X0296111Y0101205D01*
X0296224Y0101423D01*
X0296342Y0101638D01*
X0296466Y0101850D01*
X0296594Y0102059D01*
X0296728Y0102265D01*
X0296867Y0102467D01*
X0297011Y0102666D01*
X0297160Y0102861D01*
X0297313Y0103053D01*
X0297471Y0103241D01*
X0297633Y0103425D01*
X0297801Y0103604D01*
X0297972Y0103780D01*
X0298148Y0103951D01*
X0298327Y0104119D01*
X0298511Y0104281D01*
X0298699Y0104439D01*
X0298891Y0104592D01*
X0299086Y0104741D01*
X0299285Y0104885D01*
X0299487Y0105024D01*
X0299693Y0105158D01*
X0299902Y0105286D01*
X0300114Y0105410D01*
X0300329Y0105528D01*
X0300547Y0105641D01*
X0300767Y0105749D01*
X0300991Y0105851D01*
X0301216Y0105948D01*
X0301444Y0106039D01*
X0301674Y0106124D01*
X0301906Y0106204D01*
X0302140Y0106278D01*
X0302376Y0106347D01*
X0302613Y0106409D01*
X0302852Y0106466D01*
X0303092Y0106517D01*
X0303333Y0106562D01*
X0303576Y0106601D01*
X0303819Y0106634D01*
X0304063Y0106661D01*
X0304307Y0106682D01*
X0304552Y0106697D01*
X0304798Y0106706D01*
X0305043Y0106709D01*
X0305288Y0106706D01*
X0305534Y0106697D01*
X0305779Y0106682D01*
X0306023Y0106661D01*
X0306267Y0106634D01*
X0306510Y0106601D01*
X0306753Y0106562D01*
X0306994Y0106517D01*
X0307234Y0106466D01*
X0307473Y0106409D01*
X0307710Y0106347D01*
X0307946Y0106278D01*
X0308180Y0106204D01*
X0308412Y0106124D01*
X0308642Y0106039D01*
X0308870Y0105948D01*
X0309095Y0105851D01*
X0309319Y0105749D01*
X0309539Y0105641D01*
X0309757Y0105528D01*
X0309972Y0105410D01*
X0310184Y0105286D01*
X0310393Y0105158D01*
X0310599Y0105024D01*
X0310801Y0104885D01*
X0311000Y0104741D01*
X0311195Y0104592D01*
X0311387Y0104439D01*
X0311575Y0104281D01*
X0311759Y0104119D01*
X0311938Y0103951D01*
X0312114Y0103780D01*
X0312285Y0103604D01*
X0312453Y0103425D01*
X0312615Y0103241D01*
X0312773Y0103053D01*
X0312926Y0102861D01*
X0313075Y0102666D01*
X0313219Y0102467D01*
X0313358Y0102265D01*
X0313492Y0102059D01*
X0313620Y0101850D01*
X0313744Y0101638D01*
X0313862Y0101423D01*
X0313975Y0101205D01*
X0314083Y0100985D01*
X0314185Y0100761D01*
X0314282Y0100536D01*
X0314373Y0100308D01*
X0314458Y0100078D01*
X0314538Y0099846D01*
X0314612Y0099612D01*
X0314681Y0099376D01*
X0314743Y0099139D01*
X0314800Y0098900D01*
X0314851Y0098660D01*
X0314896Y0098419D01*
X0314935Y0098176D01*
X0314968Y0097933D01*
X0314995Y0097689D01*
X0315016Y0097445D01*
X0315031Y0097200D01*
X0315040Y0096954D01*
X0315043Y0096709D01*
X0315040Y0096464D01*
X0315031Y0096218D01*
X0315016Y0095973D01*
X0314995Y0095729D01*
X0314968Y0095485D01*
X0314935Y0095242D01*
X0314896Y0094999D01*
X0314851Y0094758D01*
X0314800Y0094518D01*
X0314743Y0094279D01*
X0314681Y0094042D01*
X0314612Y0093806D01*
X0314538Y0093572D01*
X0314458Y0093340D01*
X0314373Y0093110D01*
X0314282Y0092882D01*
X0314185Y0092657D01*
X0314083Y0092433D01*
X0313975Y0092213D01*
X0313862Y0091995D01*
X0313744Y0091780D01*
X0313620Y0091568D01*
X0313492Y0091359D01*
X0313358Y0091153D01*
X0313219Y0090951D01*
X0313075Y0090752D01*
X0312926Y0090557D01*
X0312773Y0090365D01*
X0312615Y0090177D01*
X0312453Y0089993D01*
X0312285Y0089814D01*
X0312114Y0089638D01*
X0311938Y0089467D01*
X0311759Y0089299D01*
X0311575Y0089137D01*
X0311387Y0088979D01*
X0311195Y0088826D01*
X0311000Y0088677D01*
X0310801Y0088533D01*
X0310599Y0088394D01*
X0310393Y0088260D01*
X0310184Y0088132D01*
X0309972Y0088008D01*
X0309757Y0087890D01*
X0309539Y0087777D01*
X0309319Y0087669D01*
X0309095Y0087567D01*
X0308870Y0087470D01*
X0308642Y0087379D01*
X0308412Y0087294D01*
X0308180Y0087214D01*
X0307946Y0087140D01*
X0307710Y0087071D01*
X0307473Y0087009D01*
X0307234Y0086952D01*
X0306994Y0086901D01*
X0306753Y0086856D01*
X0306510Y0086817D01*
X0306267Y0086784D01*
X0306023Y0086757D01*
X0305779Y0086736D01*
X0305534Y0086721D01*
X0305288Y0086712D01*
X0305043Y0086709D01*
X0304798Y0086712D01*
X0304552Y0086721D01*
X0304307Y0086736D01*
X0304063Y0086757D01*
X0303819Y0086784D01*
X0303576Y0086817D01*
X0303333Y0086856D01*
X0303092Y0086901D01*
X0302852Y0086952D01*
X0302613Y0087009D01*
X0302376Y0087071D01*
X0302140Y0087140D01*
X0301906Y0087214D01*
X0301674Y0087294D01*
X0301444Y0087379D01*
X0301216Y0087470D01*
X0300991Y0087567D01*
X0300767Y0087669D01*
X0300547Y0087777D01*
X0300329Y0087890D01*
X0300114Y0088008D01*
X0299902Y0088132D01*
X0299693Y0088260D01*
X0299487Y0088394D01*
X0299285Y0088533D01*
X0299086Y0088677D01*
X0298891Y0088826D01*
X0298699Y0088979D01*
X0298511Y0089137D01*
X0298327Y0089299D01*
X0298148Y0089467D01*
X0297972Y0089638D01*
X0297801Y0089814D01*
X0297633Y0089993D01*
X0297471Y0090177D01*
X0297313Y0090365D01*
X0297160Y0090557D01*
X0297011Y0090752D01*
X0296867Y0090951D01*
X0296728Y0091153D01*
X0296594Y0091359D01*
X0296466Y0091568D01*
X0296342Y0091780D01*
X0296224Y0091995D01*
X0296111Y0092213D01*
X0296003Y0092433D01*
X0295901Y0092657D01*
X0295804Y0092882D01*
X0295713Y0093110D01*
X0295628Y0093340D01*
X0295548Y0093572D01*
X0295474Y0093806D01*
X0295405Y0094042D01*
X0295343Y0094279D01*
X0295286Y0094518D01*
X0295235Y0094758D01*
X0295190Y0094999D01*
X0295151Y0095242D01*
X0295118Y0095485D01*
X0295091Y0095729D01*
X0295070Y0095973D01*
X0295055Y0096218D01*
X0295046Y0096464D01*
X0295043Y0096709D01*
X0302613Y0085499D02*
X0303180Y0084365D01*
X0304315Y0083231D01*
X0304315Y0084932D01*
X0304882Y0085499D01*
X0305449Y0085499D01*
X0306016Y0084932D01*
X0306016Y0083798D01*
X0305449Y0083231D01*
X0304315Y0083231D01*
X0306016Y0081816D02*
X0306016Y0079547D01*
X0306016Y0080682D02*
X0302613Y0080682D01*
X0303748Y0079547D01*
X0304315Y0078133D02*
X0304882Y0077566D01*
X0304882Y0075864D01*
X0306016Y0075864D02*
X0302613Y0075864D01*
X0302613Y0077566D01*
X0303180Y0078133D01*
X0304315Y0078133D01*
X0304882Y0076999D02*
X0306016Y0078133D01*
X0305996Y0073941D02*
X0302593Y0073941D01*
X0303728Y0072806D01*
X0302593Y0071672D01*
X0305996Y0071672D01*
X0305996Y0070258D02*
X0305996Y0067989D01*
X0305996Y0069123D02*
X0302593Y0069123D01*
X0303728Y0067989D01*
X0289150Y0053245D02*
X0289150Y0049843D01*
X0286881Y0049843D02*
X0286881Y0053245D01*
X0288016Y0052111D01*
X0289150Y0053245D01*
X0284332Y0053245D02*
X0283198Y0052111D01*
X0284332Y0053245D02*
X0284332Y0049843D01*
X0283198Y0049843D02*
X0285467Y0049843D01*
X0281210Y0050253D02*
X0281210Y0051387D01*
X0280642Y0051954D01*
X0280075Y0051954D01*
X0278941Y0051387D01*
X0278941Y0053088D01*
X0281210Y0053088D01*
X0277526Y0052521D02*
X0277526Y0051387D01*
X0276959Y0050820D01*
X0275258Y0050820D01*
X0276392Y0050820D02*
X0277526Y0049685D01*
X0278941Y0050253D02*
X0279508Y0049685D01*
X0280642Y0049685D01*
X0281210Y0050253D01*
X0277526Y0052521D02*
X0276959Y0053088D01*
X0275258Y0053088D01*
X0275258Y0049685D01*
X0246700Y0067201D02*
X0246700Y0069470D01*
X0246700Y0068336D02*
X0243297Y0068336D01*
X0244431Y0067201D01*
X0243297Y0070884D02*
X0244431Y0072019D01*
X0243297Y0073153D01*
X0246700Y0073153D01*
X0246700Y0070884D02*
X0243297Y0070884D01*
X0243411Y0076256D02*
X0243411Y0077958D01*
X0243978Y0078525D01*
X0245113Y0078525D01*
X0245680Y0077958D01*
X0245680Y0076256D01*
X0246814Y0076256D02*
X0243411Y0076256D01*
X0245680Y0077391D02*
X0246814Y0078525D01*
X0246247Y0079940D02*
X0245680Y0079940D01*
X0245113Y0080507D01*
X0245113Y0081641D01*
X0245680Y0082208D01*
X0246247Y0082208D01*
X0246814Y0081641D01*
X0246814Y0080507D01*
X0246247Y0079940D01*
X0245113Y0080507D02*
X0244546Y0079940D01*
X0243978Y0079940D01*
X0243411Y0080507D01*
X0243411Y0081641D01*
X0243978Y0082208D01*
X0244546Y0082208D01*
X0245113Y0081641D01*
X0228186Y0074125D02*
X0225918Y0071857D01*
X0226485Y0071289D01*
X0227619Y0071289D01*
X0228186Y0071857D01*
X0228186Y0074125D01*
X0227619Y0074692D01*
X0226485Y0074692D01*
X0225918Y0074125D01*
X0225918Y0071857D01*
X0224503Y0071289D02*
X0222235Y0071289D01*
X0223369Y0071289D02*
X0223369Y0074692D01*
X0222235Y0073558D01*
X0220820Y0074125D02*
X0220253Y0074692D01*
X0219119Y0074692D01*
X0218552Y0074125D01*
X0218552Y0071857D01*
X0219119Y0071289D01*
X0220253Y0071289D01*
X0220820Y0071857D01*
X0201136Y0071663D02*
X0200568Y0071096D01*
X0199434Y0071096D01*
X0198867Y0071663D01*
X0198867Y0072230D01*
X0199434Y0072797D01*
X0200568Y0072797D01*
X0201136Y0072230D01*
X0201136Y0071663D01*
X0200568Y0072797D02*
X0201136Y0073364D01*
X0201136Y0073931D01*
X0200568Y0074499D01*
X0199434Y0074499D01*
X0198867Y0073931D01*
X0198867Y0073364D01*
X0199434Y0072797D01*
X0197452Y0071663D02*
X0196885Y0071096D01*
X0195751Y0071096D01*
X0195184Y0071663D01*
X0195184Y0073931D01*
X0195751Y0074499D01*
X0196885Y0074499D01*
X0197452Y0073931D01*
X0183035Y0064066D02*
X0183035Y0061798D01*
X0180766Y0064066D01*
X0180199Y0064066D01*
X0179632Y0063499D01*
X0179632Y0062365D01*
X0180199Y0061798D01*
X0180199Y0060383D02*
X0179632Y0059816D01*
X0179632Y0058682D01*
X0180199Y0058115D01*
X0182467Y0058115D01*
X0183035Y0058682D01*
X0183035Y0059816D01*
X0182467Y0060383D01*
X0181874Y0053751D02*
X0181874Y0051483D01*
X0181874Y0052617D02*
X0178471Y0052617D01*
X0179605Y0051483D01*
X0181874Y0050068D02*
X0181874Y0047799D01*
X0181874Y0048934D02*
X0178471Y0048934D01*
X0179605Y0047799D01*
X0179038Y0046385D02*
X0178471Y0045818D01*
X0178471Y0044116D01*
X0181874Y0044116D01*
X0180740Y0044116D02*
X0180740Y0045818D01*
X0180172Y0046385D01*
X0179038Y0046385D01*
X0180740Y0045251D02*
X0181874Y0046385D01*
X0183182Y0047432D02*
X0186585Y0047432D01*
X0185451Y0047432D02*
X0183182Y0049701D01*
X0183182Y0051116D02*
X0184884Y0051116D01*
X0184317Y0052250D01*
X0184317Y0052817D01*
X0184884Y0053384D01*
X0186018Y0053384D01*
X0186585Y0052817D01*
X0186585Y0051683D01*
X0186018Y0051116D01*
X0186585Y0049701D02*
X0184884Y0048000D01*
X0186585Y0046018D02*
X0186585Y0043749D01*
X0186585Y0044884D02*
X0183182Y0044884D01*
X0184317Y0043749D01*
X0187058Y0041444D02*
X0187058Y0040877D01*
X0188192Y0039742D01*
X0188192Y0038041D01*
X0188192Y0039742D02*
X0189326Y0040877D01*
X0189326Y0041444D01*
X0190741Y0040877D02*
X0191308Y0041444D01*
X0192442Y0041444D01*
X0193009Y0040877D01*
X0193009Y0040309D01*
X0190741Y0038041D01*
X0193009Y0038041D01*
X0198811Y0045235D02*
X0221811Y0045235D01*
X0212811Y0048735D02*
X0212811Y0052235D01*
X0215311Y0052235D01*
X0212811Y0052235D02*
X0212811Y0055735D01*
X0211311Y0055735D02*
X0211311Y0048735D01*
X0209311Y0048735D01*
X0209311Y0055735D01*
X0211311Y0055735D01*
X0207811Y0055735D02*
X0207811Y0052235D01*
X0205311Y0052235D01*
X0207811Y0052235D02*
X0207811Y0048735D01*
X0198811Y0045235D02*
X0198641Y0045237D01*
X0198470Y0045243D01*
X0198300Y0045254D01*
X0198130Y0045268D01*
X0197961Y0045287D01*
X0197792Y0045310D01*
X0197623Y0045336D01*
X0197456Y0045367D01*
X0197289Y0045402D01*
X0197123Y0045442D01*
X0196958Y0045485D01*
X0196794Y0045532D01*
X0196632Y0045583D01*
X0196470Y0045638D01*
X0196310Y0045697D01*
X0196152Y0045760D01*
X0195995Y0045826D01*
X0195840Y0045897D01*
X0195686Y0045971D01*
X0195535Y0046049D01*
X0195385Y0046131D01*
X0195237Y0046216D01*
X0195092Y0046305D01*
X0194949Y0046397D01*
X0194808Y0046493D01*
X0194669Y0046592D01*
X0194533Y0046695D01*
X0194399Y0046800D01*
X0194268Y0046909D01*
X0194140Y0047022D01*
X0194014Y0047137D01*
X0193891Y0047255D01*
X0193772Y0047376D01*
X0193655Y0047501D01*
X0193541Y0047628D01*
X0193430Y0047757D01*
X0193323Y0047890D01*
X0193219Y0048025D01*
X0193118Y0048162D01*
X0193020Y0048302D01*
X0192926Y0048444D01*
X0192836Y0048588D01*
X0192749Y0048735D01*
X0192665Y0048884D01*
X0192586Y0049034D01*
X0192510Y0049187D01*
X0192437Y0049341D01*
X0192369Y0049497D01*
X0192304Y0049655D01*
X0192243Y0049814D01*
X0192186Y0049975D01*
X0192133Y0050137D01*
X0192084Y0050300D01*
X0192039Y0050464D01*
X0191998Y0050630D01*
X0191960Y0050796D01*
X0191927Y0050964D01*
X0191899Y0051132D01*
X0191874Y0051300D01*
X0191853Y0051469D01*
X0191836Y0051639D01*
X0191824Y0051809D01*
X0191816Y0051979D01*
X0191812Y0052150D01*
X0191812Y0052320D01*
X0191816Y0052491D01*
X0191824Y0052661D01*
X0191836Y0052831D01*
X0191853Y0053001D01*
X0191874Y0053170D01*
X0191899Y0053338D01*
X0191927Y0053506D01*
X0191960Y0053674D01*
X0191998Y0053840D01*
X0192039Y0054006D01*
X0192084Y0054170D01*
X0192133Y0054333D01*
X0192186Y0054495D01*
X0192243Y0054656D01*
X0192304Y0054815D01*
X0192369Y0054973D01*
X0192437Y0055129D01*
X0192510Y0055283D01*
X0192586Y0055436D01*
X0192665Y0055586D01*
X0192749Y0055735D01*
X0192836Y0055882D01*
X0192926Y0056026D01*
X0193020Y0056168D01*
X0193118Y0056308D01*
X0193219Y0056445D01*
X0193323Y0056580D01*
X0193430Y0056713D01*
X0193541Y0056842D01*
X0193655Y0056969D01*
X0193772Y0057094D01*
X0193891Y0057215D01*
X0194014Y0057333D01*
X0194140Y0057448D01*
X0194268Y0057561D01*
X0194399Y0057670D01*
X0194533Y0057775D01*
X0194669Y0057878D01*
X0194808Y0057977D01*
X0194949Y0058073D01*
X0195092Y0058165D01*
X0195237Y0058254D01*
X0195385Y0058339D01*
X0195535Y0058421D01*
X0195686Y0058499D01*
X0195840Y0058573D01*
X0195995Y0058644D01*
X0196152Y0058710D01*
X0196310Y0058773D01*
X0196470Y0058832D01*
X0196632Y0058887D01*
X0196794Y0058938D01*
X0196958Y0058985D01*
X0197123Y0059028D01*
X0197289Y0059068D01*
X0197456Y0059103D01*
X0197623Y0059134D01*
X0197792Y0059160D01*
X0197961Y0059183D01*
X0198130Y0059202D01*
X0198300Y0059216D01*
X0198470Y0059227D01*
X0198641Y0059233D01*
X0198811Y0059235D01*
X0221811Y0059235D01*
X0221981Y0059233D01*
X0222152Y0059227D01*
X0222322Y0059216D01*
X0222492Y0059202D01*
X0222661Y0059183D01*
X0222830Y0059160D01*
X0222999Y0059134D01*
X0223166Y0059103D01*
X0223333Y0059068D01*
X0223499Y0059028D01*
X0223664Y0058985D01*
X0223828Y0058938D01*
X0223990Y0058887D01*
X0224152Y0058832D01*
X0224312Y0058773D01*
X0224470Y0058710D01*
X0224627Y0058644D01*
X0224782Y0058573D01*
X0224936Y0058499D01*
X0225087Y0058421D01*
X0225237Y0058339D01*
X0225385Y0058254D01*
X0225530Y0058165D01*
X0225673Y0058073D01*
X0225814Y0057977D01*
X0225953Y0057878D01*
X0226089Y0057775D01*
X0226223Y0057670D01*
X0226354Y0057561D01*
X0226482Y0057448D01*
X0226608Y0057333D01*
X0226731Y0057215D01*
X0226850Y0057094D01*
X0226967Y0056969D01*
X0227081Y0056842D01*
X0227192Y0056713D01*
X0227299Y0056580D01*
X0227403Y0056445D01*
X0227504Y0056308D01*
X0227602Y0056168D01*
X0227696Y0056026D01*
X0227786Y0055882D01*
X0227873Y0055735D01*
X0227957Y0055586D01*
X0228036Y0055436D01*
X0228112Y0055283D01*
X0228185Y0055129D01*
X0228253Y0054973D01*
X0228318Y0054815D01*
X0228379Y0054656D01*
X0228436Y0054495D01*
X0228489Y0054333D01*
X0228538Y0054170D01*
X0228583Y0054006D01*
X0228624Y0053840D01*
X0228662Y0053674D01*
X0228695Y0053506D01*
X0228723Y0053338D01*
X0228748Y0053170D01*
X0228769Y0053001D01*
X0228786Y0052831D01*
X0228798Y0052661D01*
X0228806Y0052491D01*
X0228810Y0052320D01*
X0228810Y0052150D01*
X0228806Y0051979D01*
X0228798Y0051809D01*
X0228786Y0051639D01*
X0228769Y0051469D01*
X0228748Y0051300D01*
X0228723Y0051132D01*
X0228695Y0050964D01*
X0228662Y0050796D01*
X0228624Y0050630D01*
X0228583Y0050464D01*
X0228538Y0050300D01*
X0228489Y0050137D01*
X0228436Y0049975D01*
X0228379Y0049814D01*
X0228318Y0049655D01*
X0228253Y0049497D01*
X0228185Y0049341D01*
X0228112Y0049187D01*
X0228036Y0049034D01*
X0227957Y0048884D01*
X0227873Y0048735D01*
X0227786Y0048588D01*
X0227696Y0048444D01*
X0227602Y0048302D01*
X0227504Y0048162D01*
X0227403Y0048025D01*
X0227299Y0047890D01*
X0227192Y0047757D01*
X0227081Y0047628D01*
X0226967Y0047501D01*
X0226850Y0047376D01*
X0226731Y0047255D01*
X0226608Y0047137D01*
X0226482Y0047022D01*
X0226354Y0046909D01*
X0226223Y0046800D01*
X0226089Y0046695D01*
X0225953Y0046592D01*
X0225814Y0046493D01*
X0225673Y0046397D01*
X0225530Y0046305D01*
X0225385Y0046216D01*
X0225237Y0046131D01*
X0225087Y0046049D01*
X0224936Y0045971D01*
X0224782Y0045897D01*
X0224627Y0045826D01*
X0224470Y0045760D01*
X0224312Y0045697D01*
X0224152Y0045638D01*
X0223990Y0045583D01*
X0223828Y0045532D01*
X0223664Y0045485D01*
X0223499Y0045442D01*
X0223333Y0045402D01*
X0223166Y0045367D01*
X0222999Y0045336D01*
X0222830Y0045310D01*
X0222661Y0045287D01*
X0222492Y0045268D01*
X0222322Y0045254D01*
X0222152Y0045243D01*
X0221981Y0045237D01*
X0221811Y0045235D01*
X0183182Y0051116D02*
X0183182Y0053384D01*
X0174606Y0045361D02*
X0175340Y0044627D01*
X0175340Y0043159D01*
X0174606Y0042425D01*
X0173138Y0042425D02*
X0172404Y0043893D01*
X0172404Y0044627D01*
X0173138Y0045361D01*
X0174606Y0045361D01*
X0173138Y0042425D02*
X0170936Y0042425D01*
X0170936Y0045361D01*
X0171670Y0040757D02*
X0170936Y0040023D01*
X0170936Y0037821D01*
X0175340Y0037821D01*
X0175340Y0040023D01*
X0174606Y0040757D01*
X0171670Y0040757D01*
X0122217Y0041870D02*
X0122217Y0044072D01*
X0121483Y0044806D01*
X0118548Y0044806D01*
X0117814Y0044072D01*
X0117814Y0041870D01*
X0122217Y0041870D01*
X0122217Y0046474D02*
X0119281Y0049410D01*
X0118548Y0049410D01*
X0117814Y0048676D01*
X0117814Y0047208D01*
X0118548Y0046474D01*
X0122217Y0046474D02*
X0122217Y0049410D01*
X0110991Y0049254D02*
X0109856Y0049254D01*
X0110424Y0049254D02*
X0110424Y0045851D01*
X0110991Y0045851D02*
X0109856Y0045851D01*
X0108442Y0046418D02*
X0108442Y0048687D01*
X0107875Y0049254D01*
X0106173Y0049254D01*
X0106173Y0045851D01*
X0107875Y0045851D01*
X0108442Y0046418D01*
X0104759Y0049254D02*
X0102490Y0049254D01*
X0103624Y0049254D02*
X0103624Y0045851D01*
X0099941Y0047552D02*
X0098807Y0047552D01*
X0098807Y0045851D02*
X0098807Y0049254D01*
X0101076Y0049254D01*
X0091485Y0065861D02*
X0088082Y0065861D01*
X0088082Y0067563D01*
X0088649Y0068130D01*
X0089783Y0068130D01*
X0090350Y0067563D01*
X0090350Y0065861D01*
X0090350Y0066995D02*
X0091485Y0068130D01*
X0090917Y0069544D02*
X0091485Y0070111D01*
X0091485Y0071246D01*
X0090917Y0071813D01*
X0090350Y0071813D01*
X0089783Y0071246D01*
X0089783Y0069544D01*
X0090917Y0069544D01*
X0089783Y0069544D02*
X0088649Y0070679D01*
X0088082Y0071813D01*
X0086865Y0070897D02*
X0086865Y0069763D01*
X0086298Y0069196D01*
X0084030Y0071464D01*
X0086298Y0071464D01*
X0086865Y0070897D01*
X0086298Y0069196D02*
X0084030Y0069196D01*
X0083462Y0069763D01*
X0083462Y0070897D01*
X0084030Y0071464D01*
X0083462Y0072879D02*
X0086865Y0072879D01*
X0085731Y0072879D02*
X0084597Y0074580D01*
X0085731Y0072879D02*
X0086865Y0074580D01*
X0086865Y0067781D02*
X0086865Y0065512D01*
X0086865Y0066647D02*
X0083462Y0066647D01*
X0084597Y0065512D01*
X0103476Y0071187D02*
X0103476Y0073456D01*
X0104043Y0074023D01*
X0105177Y0074023D01*
X0105744Y0073456D01*
X0107159Y0074023D02*
X0107159Y0072322D01*
X0108293Y0072889D01*
X0108860Y0072889D01*
X0109427Y0072322D01*
X0109427Y0071187D01*
X0108860Y0070620D01*
X0107726Y0070620D01*
X0107159Y0071187D01*
X0105744Y0071187D02*
X0105177Y0070620D01*
X0104043Y0070620D01*
X0103476Y0071187D01*
X0107159Y0074023D02*
X0109427Y0074023D01*
X0123099Y0068246D02*
X0124800Y0068246D01*
X0125368Y0067679D01*
X0125368Y0066544D01*
X0124800Y0065977D01*
X0123099Y0065977D01*
X0123099Y0064843D02*
X0123099Y0068246D01*
X0126782Y0067112D02*
X0127916Y0068246D01*
X0127916Y0064843D01*
X0126782Y0064843D02*
X0129051Y0064843D01*
X0130465Y0065410D02*
X0131032Y0064843D01*
X0132167Y0064843D01*
X0132734Y0065410D01*
X0132734Y0065977D01*
X0132167Y0066544D01*
X0131600Y0066544D01*
X0132167Y0066544D02*
X0132734Y0067112D01*
X0132734Y0067679D01*
X0132167Y0068246D01*
X0131032Y0068246D01*
X0130465Y0067679D01*
X0125368Y0064843D02*
X0124233Y0065977D01*
X0151727Y0066454D02*
X0153429Y0066454D01*
X0153996Y0067021D01*
X0153996Y0068156D01*
X0153429Y0068723D01*
X0151727Y0068723D01*
X0151727Y0065320D01*
X0152861Y0066454D02*
X0153996Y0065320D01*
X0155410Y0065320D02*
X0157679Y0065320D01*
X0156545Y0065320D02*
X0156545Y0068723D01*
X0155410Y0067588D01*
X0159093Y0068156D02*
X0159661Y0068723D01*
X0160795Y0068723D01*
X0161362Y0068156D01*
X0161362Y0067588D01*
X0159093Y0065320D01*
X0161362Y0065320D01*
X0055101Y0063768D02*
X0054762Y0063041D01*
X0053696Y0062653D01*
X0052969Y0062992D01*
X0054325Y0065899D01*
X0055101Y0063768D01*
X0054325Y0065899D02*
X0053598Y0066238D01*
X0052532Y0065851D01*
X0052193Y0065124D01*
X0052969Y0062992D01*
X0051834Y0061975D02*
X0049702Y0061199D01*
X0051058Y0064107D01*
X0050864Y0064640D01*
X0050137Y0064979D01*
X0049071Y0064591D01*
X0048732Y0063864D01*
X0047403Y0063380D02*
X0046676Y0063719D01*
X0045610Y0063331D01*
X0045271Y0062604D01*
X0044295Y0064294D02*
X0043131Y0067492D01*
X0044730Y0068074D01*
X0045457Y0067735D01*
X0045845Y0066669D01*
X0045506Y0065942D01*
X0043907Y0065360D01*
X0044973Y0065748D02*
X0046427Y0065070D01*
X0047403Y0063380D02*
X0047597Y0062847D01*
X0046241Y0059939D01*
X0048373Y0060715D01*
X0049355Y0066136D02*
X0048191Y0069333D01*
X0047174Y0067153D01*
X0049306Y0067929D01*
X0051649Y0069778D02*
X0052216Y0069778D01*
X0052783Y0070345D01*
X0052783Y0071480D01*
X0053350Y0072047D01*
X0053917Y0072047D01*
X0054485Y0071480D01*
X0054485Y0070345D01*
X0053917Y0069778D01*
X0051649Y0069778D02*
X0051082Y0070345D01*
X0051082Y0071480D01*
X0051649Y0072047D01*
X0052216Y0073461D02*
X0051082Y0074596D01*
X0054485Y0074596D01*
X0054485Y0075730D02*
X0054485Y0073461D01*
X0038019Y0047633D02*
X0037002Y0045453D01*
X0039134Y0046228D01*
X0039182Y0044436D02*
X0038019Y0047633D01*
X0035285Y0046035D02*
X0034558Y0046374D01*
X0032959Y0045792D01*
X0034123Y0042594D01*
X0035721Y0043176D01*
X0036060Y0043903D01*
X0035285Y0046035D01*
X0179042Y0117408D02*
X0189042Y0117408D01*
X0189042Y0157408D01*
X0195042Y0157408D01*
X0195044Y0157282D01*
X0195050Y0157157D01*
X0195060Y0157032D01*
X0195074Y0156907D01*
X0195091Y0156782D01*
X0195113Y0156658D01*
X0195138Y0156535D01*
X0195168Y0156413D01*
X0195201Y0156292D01*
X0195238Y0156172D01*
X0195278Y0156053D01*
X0195323Y0155936D01*
X0195371Y0155819D01*
X0195423Y0155705D01*
X0195478Y0155592D01*
X0195537Y0155481D01*
X0195599Y0155372D01*
X0195665Y0155265D01*
X0195734Y0155160D01*
X0195806Y0155057D01*
X0195881Y0154956D01*
X0195960Y0154858D01*
X0196042Y0154763D01*
X0196126Y0154670D01*
X0196214Y0154580D01*
X0196304Y0154492D01*
X0196397Y0154408D01*
X0196492Y0154326D01*
X0196590Y0154247D01*
X0196691Y0154172D01*
X0196794Y0154100D01*
X0196899Y0154031D01*
X0197006Y0153965D01*
X0197115Y0153903D01*
X0197226Y0153844D01*
X0197339Y0153789D01*
X0197453Y0153737D01*
X0197570Y0153689D01*
X0197687Y0153644D01*
X0197806Y0153604D01*
X0197926Y0153567D01*
X0198047Y0153534D01*
X0198169Y0153504D01*
X0198292Y0153479D01*
X0198416Y0153457D01*
X0198541Y0153440D01*
X0198666Y0153426D01*
X0198791Y0153416D01*
X0198916Y0153410D01*
X0199042Y0153408D01*
X0199168Y0153410D01*
X0199293Y0153416D01*
X0199418Y0153426D01*
X0199543Y0153440D01*
X0199668Y0153457D01*
X0199792Y0153479D01*
X0199915Y0153504D01*
X0200037Y0153534D01*
X0200158Y0153567D01*
X0200278Y0153604D01*
X0200397Y0153644D01*
X0200514Y0153689D01*
X0200631Y0153737D01*
X0200745Y0153789D01*
X0200858Y0153844D01*
X0200969Y0153903D01*
X0201078Y0153965D01*
X0201185Y0154031D01*
X0201290Y0154100D01*
X0201393Y0154172D01*
X0201494Y0154247D01*
X0201592Y0154326D01*
X0201687Y0154408D01*
X0201780Y0154492D01*
X0201870Y0154580D01*
X0201958Y0154670D01*
X0202042Y0154763D01*
X0202124Y0154858D01*
X0202203Y0154956D01*
X0202278Y0155057D01*
X0202350Y0155160D01*
X0202419Y0155265D01*
X0202485Y0155372D01*
X0202547Y0155481D01*
X0202606Y0155592D01*
X0202661Y0155705D01*
X0202713Y0155819D01*
X0202761Y0155936D01*
X0202806Y0156053D01*
X0202846Y0156172D01*
X0202883Y0156292D01*
X0202916Y0156413D01*
X0202946Y0156535D01*
X0202971Y0156658D01*
X0202993Y0156782D01*
X0203010Y0156907D01*
X0203024Y0157032D01*
X0203034Y0157157D01*
X0203040Y0157282D01*
X0203042Y0157408D01*
X0209042Y0157408D02*
X0209042Y0117408D01*
X0189042Y0117408D01*
X0179042Y0117408D02*
X0179042Y0157408D01*
X0189042Y0157408D01*
X0175347Y0156964D02*
X0175347Y0155830D01*
X0174780Y0155263D01*
X0175347Y0153848D02*
X0175347Y0151579D01*
X0175347Y0152714D02*
X0171945Y0152714D01*
X0173079Y0151579D01*
X0172512Y0150165D02*
X0171945Y0149598D01*
X0171945Y0148463D01*
X0172512Y0147896D01*
X0174780Y0147896D01*
X0175347Y0148463D01*
X0175347Y0149598D01*
X0174780Y0150165D01*
X0172512Y0155263D02*
X0171945Y0155830D01*
X0171945Y0156964D01*
X0172512Y0157531D01*
X0173079Y0157531D01*
X0173646Y0156964D01*
X0174213Y0157531D01*
X0174780Y0157531D01*
X0175347Y0156964D01*
X0173646Y0156964D02*
X0173646Y0156397D01*
X0142609Y0144256D02*
X0142609Y0143122D01*
X0142042Y0142555D01*
X0142609Y0141140D02*
X0141475Y0140006D01*
X0141475Y0140573D02*
X0141475Y0138872D01*
X0142609Y0138872D02*
X0139206Y0138872D01*
X0139206Y0140573D01*
X0139774Y0141140D01*
X0140908Y0141140D01*
X0141475Y0140573D01*
X0139774Y0142555D02*
X0139206Y0143122D01*
X0139206Y0144256D01*
X0139774Y0144824D01*
X0140341Y0144824D01*
X0140908Y0144256D01*
X0141475Y0144824D01*
X0142042Y0144824D01*
X0142609Y0144256D01*
X0140908Y0144256D02*
X0140908Y0143689D01*
X0139935Y0137352D02*
X0142204Y0135083D01*
X0142771Y0135651D01*
X0142771Y0136785D01*
X0142204Y0137352D01*
X0139935Y0137352D01*
X0139368Y0136785D01*
X0139368Y0135651D01*
X0139935Y0135083D01*
X0142204Y0135083D01*
X0142771Y0133669D02*
X0142771Y0131400D01*
X0140502Y0133669D01*
X0139935Y0133669D01*
X0139368Y0133102D01*
X0139368Y0131967D01*
X0139935Y0131400D01*
X0139935Y0129986D02*
X0139368Y0129419D01*
X0139368Y0128284D01*
X0139935Y0127717D01*
X0139935Y0129986D02*
X0140502Y0129986D01*
X0142771Y0127717D01*
X0142771Y0129986D01*
X0136626Y0129854D02*
X0136626Y0128720D01*
X0136059Y0128152D01*
X0134925Y0128152D01*
X0134358Y0128720D01*
X0134358Y0129854D02*
X0135492Y0130421D01*
X0136059Y0130421D01*
X0136626Y0129854D01*
X0136626Y0131555D02*
X0134358Y0131555D01*
X0134358Y0129854D01*
X0132943Y0128152D02*
X0130675Y0128152D01*
X0131809Y0128152D02*
X0131809Y0131555D01*
X0130675Y0130421D01*
X0129260Y0129854D02*
X0128693Y0129287D01*
X0126991Y0129287D01*
X0126991Y0128152D02*
X0126991Y0131555D01*
X0128693Y0131555D01*
X0129260Y0130988D01*
X0129260Y0129854D01*
X0128126Y0129287D02*
X0129260Y0128152D01*
X0129265Y0133390D02*
X0126997Y0133390D01*
X0128131Y0133390D02*
X0128131Y0136793D01*
X0126997Y0135659D01*
X0130680Y0136793D02*
X0130680Y0133390D01*
X0132949Y0133390D02*
X0132949Y0136793D01*
X0131814Y0135659D01*
X0130680Y0136793D01*
X0102672Y0127120D02*
X0100404Y0124851D01*
X0100971Y0124284D01*
X0102105Y0124284D01*
X0102672Y0124851D01*
X0102672Y0127120D01*
X0102105Y0127687D01*
X0100971Y0127687D01*
X0100404Y0127120D01*
X0100404Y0124851D01*
X0098989Y0124284D02*
X0096721Y0124284D01*
X0097855Y0124284D02*
X0097855Y0127687D01*
X0096721Y0126553D01*
X0095306Y0127120D02*
X0095306Y0125986D01*
X0094739Y0125418D01*
X0093037Y0125418D01*
X0093037Y0124284D02*
X0093037Y0127687D01*
X0094739Y0127687D01*
X0095306Y0127120D01*
X0094172Y0125418D02*
X0095306Y0124284D01*
X0097930Y0122628D02*
X0097930Y0119225D01*
X0096796Y0119225D02*
X0099065Y0119225D01*
X0100479Y0119225D02*
X0100479Y0122628D01*
X0101613Y0121494D01*
X0102748Y0122628D01*
X0102748Y0119225D01*
X0097930Y0122628D02*
X0096796Y0121494D01*
X0170005Y0122864D02*
X0170005Y0119461D01*
X0171706Y0119461D01*
X0172273Y0120028D01*
X0172273Y0122297D01*
X0171706Y0122864D01*
X0170005Y0122864D01*
X0173688Y0121730D02*
X0174822Y0122864D01*
X0174822Y0119461D01*
X0173688Y0119461D02*
X0175956Y0119461D01*
X0209042Y0117408D02*
X0219042Y0117408D01*
X0219042Y0157408D01*
X0209042Y0157408D01*
X0222279Y0152944D02*
X0222846Y0152377D01*
X0223413Y0152377D01*
X0223981Y0152944D01*
X0223981Y0155780D01*
X0224548Y0155780D02*
X0223413Y0155780D01*
X0225962Y0154646D02*
X0227097Y0155780D01*
X0227097Y0152377D01*
X0228231Y0152377D02*
X0225962Y0152377D01*
X0259497Y0144084D02*
X0259497Y0140681D01*
X0259497Y0141815D02*
X0261198Y0141815D01*
X0261765Y0142382D01*
X0261765Y0143517D01*
X0261198Y0144084D01*
X0259497Y0144084D01*
X0263180Y0142950D02*
X0264314Y0144084D01*
X0264314Y0140681D01*
X0263180Y0140681D02*
X0265449Y0140681D01*
X0266863Y0142382D02*
X0269132Y0142382D01*
X0268565Y0140681D02*
X0268565Y0144084D01*
X0266863Y0142382D01*
X0261765Y0140681D02*
X0260631Y0141815D01*
X0261461Y0133324D02*
X0262028Y0132757D01*
X0262028Y0131623D01*
X0261461Y0131055D01*
X0259759Y0131055D01*
X0259759Y0129921D02*
X0259759Y0133324D01*
X0261461Y0133324D01*
X0263442Y0132190D02*
X0264577Y0133324D01*
X0264577Y0129921D01*
X0265711Y0129921D02*
X0263442Y0129921D01*
X0262028Y0129921D02*
X0260893Y0131055D01*
X0274871Y0140871D02*
X0277139Y0140871D01*
X0276005Y0140871D02*
X0276005Y0144274D01*
X0274871Y0143139D01*
X0278554Y0144274D02*
X0278554Y0140871D01*
X0280823Y0140871D02*
X0280823Y0144274D01*
X0279688Y0143139D01*
X0278554Y0144274D01*
X0334574Y0121816D02*
X0335708Y0121816D01*
X0335141Y0121816D02*
X0335141Y0118980D01*
X0334574Y0118413D01*
X0334007Y0118413D01*
X0333440Y0118980D01*
X0337123Y0118413D02*
X0337123Y0121816D01*
X0338824Y0121816D01*
X0339392Y0121249D01*
X0339392Y0120115D01*
X0338824Y0119548D01*
X0337123Y0119548D01*
X0340806Y0118980D02*
X0341373Y0118413D01*
X0342508Y0118413D01*
X0343075Y0118980D01*
X0343075Y0119548D01*
X0342508Y0120115D01*
X0341940Y0120115D01*
X0342508Y0120115D02*
X0343075Y0120682D01*
X0343075Y0121249D01*
X0342508Y0121816D01*
X0341373Y0121816D01*
X0340806Y0121249D01*
D14*
X0101328Y0098496D02*
X0101328Y0097028D01*
X0101328Y0097762D02*
X0099126Y0097762D01*
X0099860Y0097028D01*
X0099126Y0096286D02*
X0100961Y0096286D01*
X0101328Y0095919D01*
X0101328Y0095185D01*
X0100961Y0094818D01*
X0099126Y0094818D01*
D15*
X0161392Y0118968D02*
X0161392Y0119868D01*
X0161392Y0119867D02*
X0161575Y0119871D01*
X0161758Y0119878D01*
X0161941Y0119891D01*
X0162124Y0119908D01*
X0162306Y0119929D01*
X0162487Y0119954D01*
X0162668Y0119984D01*
X0162848Y0120019D01*
X0163027Y0120057D01*
X0163205Y0120100D01*
X0163382Y0120148D01*
X0163557Y0120199D01*
X0163732Y0120255D01*
X0163905Y0120315D01*
X0164076Y0120380D01*
X0164246Y0120448D01*
X0164415Y0120520D01*
X0164581Y0120597D01*
X0164745Y0120678D01*
X0164908Y0120762D01*
X0165068Y0120851D01*
X0165227Y0120943D01*
X0165383Y0121039D01*
X0165536Y0121139D01*
X0165687Y0121243D01*
X0165836Y0121350D01*
X0165982Y0121461D01*
X0166125Y0121575D01*
X0166265Y0121693D01*
X0166402Y0121814D01*
X0166537Y0121938D01*
X0166668Y0122066D01*
X0166797Y0122197D01*
X0166922Y0122331D01*
X0167043Y0122467D01*
X0167162Y0122607D01*
X0167277Y0122750D01*
X0167388Y0122895D01*
X0167496Y0123043D01*
X0167600Y0123194D01*
X0167701Y0123347D01*
X0167798Y0123502D01*
X0167891Y0123660D01*
X0167980Y0123820D01*
X0168774Y0123397D01*
X0168674Y0123217D01*
X0168570Y0123040D01*
X0168462Y0122866D01*
X0168349Y0122694D01*
X0168232Y0122526D01*
X0168111Y0122360D01*
X0167987Y0122197D01*
X0167858Y0122037D01*
X0167725Y0121880D01*
X0167589Y0121727D01*
X0167449Y0121577D01*
X0167305Y0121430D01*
X0167158Y0121287D01*
X0167007Y0121147D01*
X0166853Y0121012D01*
X0166696Y0120880D01*
X0166536Y0120752D01*
X0166372Y0120627D01*
X0166206Y0120507D01*
X0166036Y0120391D01*
X0165864Y0120279D01*
X0165690Y0120171D01*
X0165512Y0120068D01*
X0165333Y0119969D01*
X0165150Y0119874D01*
X0164966Y0119784D01*
X0164780Y0119698D01*
X0164591Y0119617D01*
X0164401Y0119540D01*
X0164208Y0119468D01*
X0164014Y0119401D01*
X0163819Y0119338D01*
X0163622Y0119280D01*
X0163424Y0119227D01*
X0163224Y0119179D01*
X0163023Y0119136D01*
X0162822Y0119098D01*
X0162619Y0119064D01*
X0162416Y0119036D01*
X0162212Y0119012D01*
X0162007Y0118993D01*
X0161803Y0118980D01*
X0161598Y0118971D01*
X0161392Y0118967D01*
X0161392Y0119061D01*
X0161595Y0119065D01*
X0161798Y0119073D01*
X0162001Y0119087D01*
X0162203Y0119105D01*
X0162404Y0119129D01*
X0162605Y0119157D01*
X0162806Y0119190D01*
X0163005Y0119228D01*
X0163203Y0119271D01*
X0163401Y0119319D01*
X0163597Y0119371D01*
X0163792Y0119428D01*
X0163985Y0119490D01*
X0164177Y0119557D01*
X0164367Y0119628D01*
X0164555Y0119703D01*
X0164741Y0119784D01*
X0164926Y0119869D01*
X0165108Y0119958D01*
X0165288Y0120052D01*
X0165466Y0120150D01*
X0165641Y0120252D01*
X0165814Y0120358D01*
X0165984Y0120469D01*
X0166152Y0120584D01*
X0166316Y0120703D01*
X0166478Y0120826D01*
X0166636Y0120952D01*
X0166792Y0121083D01*
X0166944Y0121217D01*
X0167093Y0121355D01*
X0167239Y0121496D01*
X0167381Y0121641D01*
X0167519Y0121790D01*
X0167654Y0121941D01*
X0167785Y0122096D01*
X0167912Y0122254D01*
X0168036Y0122416D01*
X0168155Y0122580D01*
X0168271Y0122747D01*
X0168382Y0122916D01*
X0168490Y0123089D01*
X0168593Y0123264D01*
X0168691Y0123441D01*
X0168608Y0123485D01*
X0168511Y0123310D01*
X0168409Y0123137D01*
X0168303Y0122967D01*
X0168193Y0122799D01*
X0168079Y0122634D01*
X0167960Y0122472D01*
X0167838Y0122312D01*
X0167712Y0122156D01*
X0167583Y0122003D01*
X0167449Y0121853D01*
X0167313Y0121706D01*
X0167172Y0121563D01*
X0167028Y0121423D01*
X0166881Y0121287D01*
X0166730Y0121154D01*
X0166577Y0121025D01*
X0166420Y0120900D01*
X0166260Y0120778D01*
X0166097Y0120661D01*
X0165932Y0120547D01*
X0165764Y0120438D01*
X0165593Y0120332D01*
X0165420Y0120231D01*
X0165244Y0120134D01*
X0165066Y0120042D01*
X0164886Y0119954D01*
X0164703Y0119870D01*
X0164519Y0119790D01*
X0164333Y0119715D01*
X0164145Y0119645D01*
X0163955Y0119579D01*
X0163764Y0119518D01*
X0163572Y0119462D01*
X0163378Y0119410D01*
X0163183Y0119363D01*
X0162987Y0119320D01*
X0162789Y0119283D01*
X0162591Y0119250D01*
X0162393Y0119222D01*
X0162193Y0119199D01*
X0161994Y0119181D01*
X0161793Y0119167D01*
X0161593Y0119159D01*
X0161392Y0119155D01*
X0161392Y0119249D01*
X0161591Y0119253D01*
X0161789Y0119261D01*
X0161987Y0119274D01*
X0162184Y0119293D01*
X0162381Y0119315D01*
X0162578Y0119343D01*
X0162773Y0119375D01*
X0162968Y0119413D01*
X0163162Y0119454D01*
X0163355Y0119501D01*
X0163547Y0119552D01*
X0163737Y0119608D01*
X0163926Y0119668D01*
X0164113Y0119733D01*
X0164299Y0119803D01*
X0164483Y0119877D01*
X0164665Y0119956D01*
X0164845Y0120039D01*
X0165024Y0120126D01*
X0165200Y0120217D01*
X0165373Y0120313D01*
X0165545Y0120413D01*
X0165713Y0120517D01*
X0165880Y0120625D01*
X0166043Y0120738D01*
X0166204Y0120854D01*
X0166362Y0120974D01*
X0166517Y0121098D01*
X0166669Y0121225D01*
X0166818Y0121356D01*
X0166963Y0121491D01*
X0167106Y0121629D01*
X0167244Y0121771D01*
X0167380Y0121916D01*
X0167512Y0122064D01*
X0167640Y0122216D01*
X0167764Y0122370D01*
X0167885Y0122527D01*
X0168002Y0122688D01*
X0168115Y0122851D01*
X0168223Y0123017D01*
X0168328Y0123185D01*
X0168429Y0123356D01*
X0168525Y0123529D01*
X0168443Y0123574D01*
X0168347Y0123402D01*
X0168248Y0123233D01*
X0168144Y0123067D01*
X0168036Y0122903D01*
X0167925Y0122742D01*
X0167809Y0122583D01*
X0167690Y0122428D01*
X0167567Y0122275D01*
X0167440Y0122126D01*
X0167310Y0121979D01*
X0167176Y0121836D01*
X0167039Y0121696D01*
X0166898Y0121559D01*
X0166755Y0121426D01*
X0166608Y0121296D01*
X0166457Y0121170D01*
X0166304Y0121048D01*
X0166148Y0120929D01*
X0165989Y0120814D01*
X0165827Y0120704D01*
X0165663Y0120597D01*
X0165496Y0120494D01*
X0165327Y0120395D01*
X0165155Y0120300D01*
X0164981Y0120210D01*
X0164805Y0120123D01*
X0164627Y0120042D01*
X0164447Y0119964D01*
X0164265Y0119891D01*
X0164082Y0119822D01*
X0163896Y0119758D01*
X0163710Y0119698D01*
X0163522Y0119643D01*
X0163332Y0119592D01*
X0163142Y0119546D01*
X0162950Y0119505D01*
X0162757Y0119468D01*
X0162564Y0119436D01*
X0162370Y0119409D01*
X0162175Y0119386D01*
X0161980Y0119368D01*
X0161784Y0119355D01*
X0161588Y0119347D01*
X0161392Y0119343D01*
X0161392Y0119437D01*
X0161586Y0119441D01*
X0161780Y0119449D01*
X0161973Y0119462D01*
X0162166Y0119480D01*
X0162358Y0119502D01*
X0162550Y0119529D01*
X0162741Y0119561D01*
X0162932Y0119597D01*
X0163121Y0119638D01*
X0163309Y0119683D01*
X0163496Y0119733D01*
X0163682Y0119788D01*
X0163867Y0119847D01*
X0164050Y0119910D01*
X0164231Y0119978D01*
X0164411Y0120051D01*
X0164589Y0120127D01*
X0164765Y0120208D01*
X0164939Y0120294D01*
X0165111Y0120383D01*
X0165281Y0120477D01*
X0165448Y0120574D01*
X0165613Y0120676D01*
X0165775Y0120782D01*
X0165935Y0120891D01*
X0166092Y0121005D01*
X0166246Y0121122D01*
X0166398Y0121243D01*
X0166546Y0121367D01*
X0166691Y0121495D01*
X0166834Y0121627D01*
X0166973Y0121762D01*
X0167108Y0121900D01*
X0167240Y0122042D01*
X0167369Y0122187D01*
X0167494Y0122335D01*
X0167616Y0122486D01*
X0167734Y0122639D01*
X0167848Y0122796D01*
X0167958Y0122955D01*
X0168064Y0123117D01*
X0168167Y0123282D01*
X0168265Y0123449D01*
X0168360Y0123618D01*
X0168277Y0123662D01*
X0168183Y0123495D01*
X0168086Y0123330D01*
X0167985Y0123167D01*
X0167880Y0123007D01*
X0167771Y0122850D01*
X0167658Y0122695D01*
X0167542Y0122543D01*
X0167422Y0122394D01*
X0167298Y0122248D01*
X0167171Y0122105D01*
X0167040Y0121965D01*
X0166906Y0121829D01*
X0166769Y0121695D01*
X0166628Y0121565D01*
X0166485Y0121438D01*
X0166338Y0121315D01*
X0166188Y0121196D01*
X0166036Y0121080D01*
X0165881Y0120968D01*
X0165723Y0120860D01*
X0165562Y0120755D01*
X0165399Y0120655D01*
X0165234Y0120558D01*
X0165067Y0120466D01*
X0164897Y0120378D01*
X0164725Y0120293D01*
X0164551Y0120213D01*
X0164375Y0120138D01*
X0164197Y0120066D01*
X0164018Y0119999D01*
X0163837Y0119936D01*
X0163655Y0119878D01*
X0163471Y0119824D01*
X0163286Y0119774D01*
X0163100Y0119730D01*
X0162913Y0119689D01*
X0162725Y0119653D01*
X0162536Y0119622D01*
X0162347Y0119595D01*
X0162157Y0119573D01*
X0161966Y0119556D01*
X0161775Y0119543D01*
X0161584Y0119535D01*
X0161392Y0119531D01*
X0161392Y0119625D01*
X0161581Y0119629D01*
X0161770Y0119637D01*
X0161959Y0119649D01*
X0162147Y0119667D01*
X0162335Y0119689D01*
X0162522Y0119715D01*
X0162709Y0119746D01*
X0162895Y0119781D01*
X0163080Y0119821D01*
X0163264Y0119866D01*
X0163446Y0119915D01*
X0163628Y0119968D01*
X0163808Y0120025D01*
X0163986Y0120087D01*
X0164164Y0120154D01*
X0164339Y0120224D01*
X0164513Y0120299D01*
X0164685Y0120378D01*
X0164854Y0120462D01*
X0165022Y0120549D01*
X0165188Y0120640D01*
X0165351Y0120736D01*
X0165512Y0120835D01*
X0165671Y0120938D01*
X0165827Y0121045D01*
X0165980Y0121156D01*
X0166131Y0121270D01*
X0166278Y0121388D01*
X0166423Y0121510D01*
X0166565Y0121635D01*
X0166704Y0121763D01*
X0166839Y0121895D01*
X0166972Y0122030D01*
X0167101Y0122168D01*
X0167227Y0122310D01*
X0167349Y0122454D01*
X0167468Y0122601D01*
X0167583Y0122751D01*
X0167694Y0122904D01*
X0167802Y0123060D01*
X0167906Y0123218D01*
X0168006Y0123378D01*
X0168102Y0123541D01*
X0168194Y0123706D01*
X0168111Y0123751D01*
X0168020Y0123587D01*
X0167925Y0123426D01*
X0167826Y0123268D01*
X0167724Y0123112D01*
X0167617Y0122958D01*
X0167507Y0122807D01*
X0167393Y0122659D01*
X0167276Y0122513D01*
X0167155Y0122371D01*
X0167031Y0122231D01*
X0166904Y0122095D01*
X0166773Y0121961D01*
X0166639Y0121831D01*
X0166502Y0121704D01*
X0166362Y0121581D01*
X0166219Y0121461D01*
X0166073Y0121344D01*
X0165924Y0121231D01*
X0165772Y0121122D01*
X0165618Y0121016D01*
X0165462Y0120914D01*
X0165303Y0120816D01*
X0165141Y0120722D01*
X0164978Y0120632D01*
X0164812Y0120545D01*
X0164644Y0120463D01*
X0164475Y0120385D01*
X0164303Y0120311D01*
X0164130Y0120242D01*
X0163955Y0120176D01*
X0163778Y0120115D01*
X0163600Y0120058D01*
X0163421Y0120005D01*
X0163241Y0119957D01*
X0163059Y0119913D01*
X0162876Y0119873D01*
X0162693Y0119838D01*
X0162509Y0119808D01*
X0162324Y0119782D01*
X0162138Y0119760D01*
X0161952Y0119743D01*
X0161766Y0119731D01*
X0161579Y0119723D01*
X0161392Y0119719D01*
X0161392Y0119813D01*
X0161577Y0119817D01*
X0161761Y0119825D01*
X0161945Y0119837D01*
X0162129Y0119854D01*
X0162312Y0119875D01*
X0162495Y0119901D01*
X0162677Y0119931D01*
X0162858Y0119966D01*
X0163038Y0120005D01*
X0163218Y0120048D01*
X0163396Y0120096D01*
X0163573Y0120148D01*
X0163749Y0120204D01*
X0163923Y0120264D01*
X0164096Y0120329D01*
X0164267Y0120398D01*
X0164436Y0120471D01*
X0164604Y0120548D01*
X0164770Y0120629D01*
X0164933Y0120715D01*
X0165095Y0120804D01*
X0165254Y0120897D01*
X0165411Y0120994D01*
X0165566Y0121094D01*
X0165718Y0121199D01*
X0165868Y0121307D01*
X0166015Y0121418D01*
X0166159Y0121533D01*
X0166300Y0121652D01*
X0166439Y0121774D01*
X0166574Y0121899D01*
X0166706Y0122028D01*
X0166836Y0122160D01*
X0166962Y0122294D01*
X0167084Y0122432D01*
X0167203Y0122573D01*
X0167319Y0122717D01*
X0167432Y0122863D01*
X0167540Y0123012D01*
X0167645Y0123164D01*
X0167747Y0123318D01*
X0167844Y0123475D01*
X0167938Y0123634D01*
X0168028Y0123795D01*
X0168654Y0131652D02*
X0167873Y0131206D01*
X0167780Y0131363D01*
X0167683Y0131517D01*
X0167582Y0131669D01*
X0167477Y0131818D01*
X0167369Y0131965D01*
X0167258Y0132110D01*
X0167143Y0132251D01*
X0167024Y0132390D01*
X0166902Y0132525D01*
X0166777Y0132658D01*
X0166649Y0132788D01*
X0166518Y0132914D01*
X0166384Y0133038D01*
X0166247Y0133158D01*
X0166107Y0133275D01*
X0165964Y0133388D01*
X0165818Y0133498D01*
X0165670Y0133604D01*
X0165519Y0133707D01*
X0165366Y0133806D01*
X0165211Y0133901D01*
X0165053Y0133992D01*
X0164893Y0134080D01*
X0164731Y0134164D01*
X0164568Y0134244D01*
X0164402Y0134320D01*
X0164234Y0134391D01*
X0164065Y0134459D01*
X0163894Y0134523D01*
X0163722Y0134582D01*
X0163548Y0134638D01*
X0163373Y0134689D01*
X0163197Y0134736D01*
X0163020Y0134778D01*
X0162841Y0134817D01*
X0162662Y0134851D01*
X0162482Y0134881D01*
X0162302Y0134906D01*
X0162121Y0134927D01*
X0161939Y0134943D01*
X0161757Y0134956D01*
X0161575Y0134963D01*
X0161393Y0134967D01*
X0161392Y0135866D01*
X0161393Y0135867D01*
X0161597Y0135863D01*
X0161801Y0135855D01*
X0162005Y0135841D01*
X0162209Y0135823D01*
X0162412Y0135799D01*
X0162614Y0135771D01*
X0162816Y0135738D01*
X0163016Y0135700D01*
X0163216Y0135657D01*
X0163415Y0135609D01*
X0163612Y0135557D01*
X0163808Y0135499D01*
X0164003Y0135437D01*
X0164196Y0135371D01*
X0164388Y0135299D01*
X0164577Y0135223D01*
X0164765Y0135143D01*
X0164951Y0135058D01*
X0165135Y0134968D01*
X0165316Y0134875D01*
X0165495Y0134776D01*
X0165672Y0134674D01*
X0165846Y0134567D01*
X0166018Y0134456D01*
X0166187Y0134341D01*
X0166353Y0134222D01*
X0166516Y0134099D01*
X0166676Y0133972D01*
X0166833Y0133841D01*
X0166987Y0133706D01*
X0167137Y0133568D01*
X0167284Y0133426D01*
X0167428Y0133281D01*
X0167568Y0133132D01*
X0167704Y0132980D01*
X0167837Y0132824D01*
X0167965Y0132666D01*
X0168090Y0132504D01*
X0168211Y0132339D01*
X0168328Y0132172D01*
X0168441Y0132001D01*
X0168550Y0131828D01*
X0168655Y0131653D01*
X0168573Y0131606D01*
X0168470Y0131780D01*
X0168362Y0131951D01*
X0168250Y0132119D01*
X0168135Y0132285D01*
X0168015Y0132448D01*
X0167891Y0132607D01*
X0167764Y0132764D01*
X0167633Y0132918D01*
X0167498Y0133068D01*
X0167360Y0133216D01*
X0167218Y0133359D01*
X0167072Y0133500D01*
X0166924Y0133636D01*
X0166772Y0133769D01*
X0166616Y0133899D01*
X0166458Y0134024D01*
X0166297Y0134146D01*
X0166133Y0134264D01*
X0165966Y0134378D01*
X0165796Y0134487D01*
X0165624Y0134593D01*
X0165449Y0134694D01*
X0165272Y0134792D01*
X0165093Y0134884D01*
X0164911Y0134973D01*
X0164727Y0135057D01*
X0164542Y0135137D01*
X0164354Y0135212D01*
X0164165Y0135282D01*
X0163974Y0135348D01*
X0163781Y0135409D01*
X0163587Y0135466D01*
X0163392Y0135518D01*
X0163196Y0135565D01*
X0162998Y0135607D01*
X0162800Y0135645D01*
X0162600Y0135678D01*
X0162400Y0135706D01*
X0162199Y0135729D01*
X0161998Y0135747D01*
X0161797Y0135761D01*
X0161595Y0135769D01*
X0161393Y0135773D01*
X0161393Y0135679D01*
X0161592Y0135675D01*
X0161792Y0135667D01*
X0161991Y0135654D01*
X0162190Y0135635D01*
X0162389Y0135613D01*
X0162586Y0135585D01*
X0162784Y0135552D01*
X0162980Y0135515D01*
X0163175Y0135473D01*
X0163369Y0135427D01*
X0163562Y0135375D01*
X0163754Y0135319D01*
X0163944Y0135259D01*
X0164133Y0135194D01*
X0164320Y0135124D01*
X0164506Y0135050D01*
X0164689Y0134971D01*
X0164871Y0134888D01*
X0165051Y0134800D01*
X0165228Y0134709D01*
X0165403Y0134613D01*
X0165576Y0134512D01*
X0165746Y0134408D01*
X0165914Y0134299D01*
X0166079Y0134187D01*
X0166241Y0134071D01*
X0166400Y0133950D01*
X0166557Y0133826D01*
X0166710Y0133698D01*
X0166861Y0133567D01*
X0167008Y0133431D01*
X0167151Y0133293D01*
X0167292Y0133151D01*
X0167429Y0133005D01*
X0167562Y0132856D01*
X0167692Y0132704D01*
X0167818Y0132549D01*
X0167940Y0132391D01*
X0168058Y0132230D01*
X0168172Y0132067D01*
X0168283Y0131900D01*
X0168389Y0131731D01*
X0168491Y0131560D01*
X0168410Y0131513D01*
X0168309Y0131683D01*
X0168204Y0131850D01*
X0168094Y0132014D01*
X0167981Y0132176D01*
X0167864Y0132335D01*
X0167744Y0132491D01*
X0167619Y0132645D01*
X0167491Y0132795D01*
X0167359Y0132942D01*
X0167224Y0133086D01*
X0167085Y0133226D01*
X0166943Y0133363D01*
X0166798Y0133497D01*
X0166649Y0133627D01*
X0166497Y0133753D01*
X0166343Y0133876D01*
X0166185Y0133995D01*
X0166025Y0134110D01*
X0165862Y0134221D01*
X0165696Y0134328D01*
X0165528Y0134432D01*
X0165357Y0134531D01*
X0165184Y0134626D01*
X0165008Y0134716D01*
X0164831Y0134803D01*
X0164651Y0134885D01*
X0164470Y0134963D01*
X0164287Y0135036D01*
X0164102Y0135105D01*
X0163915Y0135169D01*
X0163727Y0135229D01*
X0163537Y0135285D01*
X0163347Y0135335D01*
X0163155Y0135382D01*
X0162962Y0135423D01*
X0162768Y0135460D01*
X0162573Y0135492D01*
X0162377Y0135519D01*
X0162181Y0135542D01*
X0161984Y0135560D01*
X0161787Y0135573D01*
X0161590Y0135581D01*
X0161393Y0135585D01*
X0161393Y0135491D01*
X0161588Y0135487D01*
X0161783Y0135479D01*
X0161978Y0135466D01*
X0162172Y0135448D01*
X0162366Y0135426D01*
X0162559Y0135399D01*
X0162752Y0135367D01*
X0162943Y0135331D01*
X0163134Y0135290D01*
X0163324Y0135244D01*
X0163512Y0135194D01*
X0163700Y0135139D01*
X0163886Y0135080D01*
X0164070Y0135017D01*
X0164253Y0134948D01*
X0164434Y0134876D01*
X0164613Y0134799D01*
X0164791Y0134718D01*
X0164966Y0134632D01*
X0165140Y0134543D01*
X0165311Y0134449D01*
X0165479Y0134351D01*
X0165646Y0134249D01*
X0165810Y0134143D01*
X0165971Y0134033D01*
X0166129Y0133919D01*
X0166285Y0133802D01*
X0166438Y0133680D01*
X0166588Y0133555D01*
X0166735Y0133427D01*
X0166878Y0133295D01*
X0167019Y0133159D01*
X0167156Y0133020D01*
X0167290Y0132878D01*
X0167420Y0132733D01*
X0167547Y0132585D01*
X0167670Y0132433D01*
X0167789Y0132279D01*
X0167905Y0132122D01*
X0168016Y0131962D01*
X0168124Y0131799D01*
X0168228Y0131634D01*
X0168328Y0131466D01*
X0168247Y0131420D01*
X0168148Y0131585D01*
X0168045Y0131749D01*
X0167938Y0131909D01*
X0167828Y0132067D01*
X0167714Y0132223D01*
X0167596Y0132375D01*
X0167474Y0132525D01*
X0167349Y0132671D01*
X0167220Y0132815D01*
X0167088Y0132955D01*
X0166953Y0133093D01*
X0166814Y0133227D01*
X0166672Y0133357D01*
X0166527Y0133484D01*
X0166379Y0133608D01*
X0166228Y0133727D01*
X0166074Y0133844D01*
X0165917Y0133956D01*
X0165758Y0134065D01*
X0165596Y0134169D01*
X0165431Y0134270D01*
X0165265Y0134367D01*
X0165095Y0134460D01*
X0164924Y0134548D01*
X0164751Y0134633D01*
X0164575Y0134713D01*
X0164398Y0134789D01*
X0164219Y0134861D01*
X0164038Y0134928D01*
X0163856Y0134991D01*
X0163672Y0135049D01*
X0163487Y0135103D01*
X0163301Y0135153D01*
X0163113Y0135198D01*
X0162925Y0135239D01*
X0162736Y0135275D01*
X0162545Y0135306D01*
X0162354Y0135333D01*
X0162163Y0135355D01*
X0161971Y0135372D01*
X0161778Y0135385D01*
X0161586Y0135393D01*
X0161393Y0135397D01*
X0161393Y0135303D01*
X0161583Y0135299D01*
X0161774Y0135291D01*
X0161964Y0135279D01*
X0162154Y0135261D01*
X0162343Y0135239D01*
X0162531Y0135213D01*
X0162719Y0135182D01*
X0162907Y0135146D01*
X0163093Y0135106D01*
X0163278Y0135062D01*
X0163462Y0135013D01*
X0163645Y0134959D01*
X0163827Y0134902D01*
X0164007Y0134839D01*
X0164185Y0134773D01*
X0164362Y0134702D01*
X0164537Y0134627D01*
X0164711Y0134548D01*
X0164882Y0134464D01*
X0165051Y0134377D01*
X0165218Y0134285D01*
X0165383Y0134189D01*
X0165546Y0134090D01*
X0165706Y0133986D01*
X0165863Y0133879D01*
X0166018Y0133768D01*
X0166170Y0133653D01*
X0166319Y0133535D01*
X0166465Y0133413D01*
X0166609Y0133287D01*
X0166749Y0133158D01*
X0166886Y0133026D01*
X0167020Y0132890D01*
X0167151Y0132752D01*
X0167278Y0132610D01*
X0167402Y0132465D01*
X0167522Y0132317D01*
X0167638Y0132166D01*
X0167751Y0132013D01*
X0167860Y0131857D01*
X0167966Y0131698D01*
X0168067Y0131537D01*
X0168165Y0131373D01*
X0168083Y0131326D01*
X0167987Y0131488D01*
X0167887Y0131647D01*
X0167783Y0131804D01*
X0167675Y0131959D01*
X0167563Y0132110D01*
X0167448Y0132259D01*
X0167329Y0132405D01*
X0167207Y0132548D01*
X0167081Y0132688D01*
X0166952Y0132825D01*
X0166820Y0132959D01*
X0166684Y0133090D01*
X0166546Y0133217D01*
X0166404Y0133341D01*
X0166260Y0133462D01*
X0166112Y0133579D01*
X0165962Y0133692D01*
X0165809Y0133802D01*
X0165653Y0133908D01*
X0165495Y0134010D01*
X0165335Y0134109D01*
X0165172Y0134203D01*
X0165007Y0134294D01*
X0164840Y0134380D01*
X0164671Y0134463D01*
X0164500Y0134541D01*
X0164327Y0134615D01*
X0164152Y0134685D01*
X0163975Y0134751D01*
X0163797Y0134812D01*
X0163618Y0134869D01*
X0163437Y0134922D01*
X0163255Y0134971D01*
X0163072Y0135015D01*
X0162888Y0135054D01*
X0162703Y0135089D01*
X0162518Y0135120D01*
X0162331Y0135146D01*
X0162144Y0135168D01*
X0161957Y0135185D01*
X0161769Y0135197D01*
X0161581Y0135205D01*
X0161393Y0135209D01*
X0161393Y0135115D01*
X0161579Y0135111D01*
X0161764Y0135103D01*
X0161950Y0135091D01*
X0162135Y0135074D01*
X0162320Y0135053D01*
X0162504Y0135027D01*
X0162687Y0134997D01*
X0162870Y0134962D01*
X0163052Y0134923D01*
X0163233Y0134879D01*
X0163412Y0134832D01*
X0163591Y0134779D01*
X0163768Y0134723D01*
X0163944Y0134662D01*
X0164118Y0134597D01*
X0164291Y0134528D01*
X0164462Y0134455D01*
X0164631Y0134378D01*
X0164798Y0134296D01*
X0164963Y0134211D01*
X0165126Y0134121D01*
X0165287Y0134028D01*
X0165445Y0133931D01*
X0165601Y0133830D01*
X0165755Y0133725D01*
X0165906Y0133617D01*
X0166055Y0133505D01*
X0166200Y0133389D01*
X0166343Y0133270D01*
X0166483Y0133148D01*
X0166620Y0133022D01*
X0166754Y0132893D01*
X0166884Y0132760D01*
X0167012Y0132625D01*
X0167136Y0132487D01*
X0167257Y0132345D01*
X0167374Y0132201D01*
X0167488Y0132054D01*
X0167598Y0131904D01*
X0167705Y0131752D01*
X0167807Y0131597D01*
X0167906Y0131439D01*
X0168002Y0131280D01*
X0167920Y0131233D01*
X0167826Y0131391D01*
X0167728Y0131546D01*
X0167627Y0131699D01*
X0167521Y0131850D01*
X0167412Y0131998D01*
X0167300Y0132143D01*
X0167184Y0132285D01*
X0167065Y0132425D01*
X0166942Y0132562D01*
X0166816Y0132695D01*
X0166687Y0132826D01*
X0166555Y0132954D01*
X0166420Y0133078D01*
X0166282Y0133199D01*
X0166141Y0133316D01*
X0165997Y0133430D01*
X0165850Y0133541D01*
X0165701Y0133648D01*
X0165549Y0133752D01*
X0165395Y0133851D01*
X0165239Y0133947D01*
X0165080Y0134039D01*
X0164919Y0134128D01*
X0164756Y0134212D01*
X0164591Y0134293D01*
X0164424Y0134369D01*
X0164255Y0134441D01*
X0164084Y0134510D01*
X0163912Y0134574D01*
X0163739Y0134634D01*
X0163564Y0134690D01*
X0163387Y0134741D01*
X0163210Y0134788D01*
X0163031Y0134831D01*
X0162852Y0134870D01*
X0162671Y0134904D01*
X0162490Y0134934D01*
X0162308Y0134959D01*
X0162126Y0134981D01*
X0161943Y0134997D01*
X0161760Y0135010D01*
X0161576Y0135017D01*
X0161393Y0135021D01*
X0161293Y0135866D02*
X0161293Y0134966D01*
X0161292Y0134967D02*
X0161108Y0134963D01*
X0160923Y0134955D01*
X0160739Y0134943D01*
X0160556Y0134926D01*
X0160372Y0134904D01*
X0160190Y0134879D01*
X0160008Y0134848D01*
X0159827Y0134813D01*
X0159646Y0134774D01*
X0159467Y0134730D01*
X0159289Y0134682D01*
X0159112Y0134630D01*
X0158936Y0134573D01*
X0158762Y0134513D01*
X0158590Y0134447D01*
X0158419Y0134378D01*
X0158249Y0134305D01*
X0158082Y0134227D01*
X0157917Y0134145D01*
X0157753Y0134060D01*
X0157592Y0133970D01*
X0157433Y0133876D01*
X0157276Y0133779D01*
X0157122Y0133678D01*
X0156970Y0133573D01*
X0156821Y0133464D01*
X0156675Y0133352D01*
X0156531Y0133236D01*
X0156391Y0133117D01*
X0156253Y0132994D01*
X0156118Y0132868D01*
X0155986Y0132739D01*
X0155858Y0132606D01*
X0155733Y0132471D01*
X0155611Y0132332D01*
X0154924Y0132913D01*
X0155060Y0133069D01*
X0155201Y0133221D01*
X0155345Y0133370D01*
X0155492Y0133515D01*
X0155643Y0133656D01*
X0155797Y0133793D01*
X0155955Y0133927D01*
X0156116Y0134057D01*
X0156280Y0134183D01*
X0156447Y0134305D01*
X0156617Y0134423D01*
X0156790Y0134536D01*
X0156966Y0134645D01*
X0157144Y0134750D01*
X0157325Y0134851D01*
X0157508Y0134947D01*
X0157693Y0135039D01*
X0157881Y0135126D01*
X0158071Y0135208D01*
X0158262Y0135286D01*
X0158456Y0135359D01*
X0158651Y0135427D01*
X0158848Y0135491D01*
X0159046Y0135549D01*
X0159246Y0135603D01*
X0159447Y0135652D01*
X0159649Y0135696D01*
X0159852Y0135735D01*
X0160056Y0135769D01*
X0160261Y0135798D01*
X0160466Y0135822D01*
X0160672Y0135840D01*
X0160879Y0135854D01*
X0161085Y0135863D01*
X0161292Y0135867D01*
X0161292Y0135773D01*
X0161088Y0135769D01*
X0160883Y0135760D01*
X0160679Y0135747D01*
X0160476Y0135728D01*
X0160273Y0135704D01*
X0160070Y0135676D01*
X0159868Y0135642D01*
X0159668Y0135604D01*
X0159468Y0135560D01*
X0159269Y0135512D01*
X0159072Y0135459D01*
X0158875Y0135401D01*
X0158681Y0135338D01*
X0158488Y0135270D01*
X0158296Y0135198D01*
X0158107Y0135121D01*
X0157919Y0135040D01*
X0157734Y0134954D01*
X0157551Y0134863D01*
X0157369Y0134768D01*
X0157191Y0134669D01*
X0157015Y0134565D01*
X0156841Y0134457D01*
X0156670Y0134345D01*
X0156502Y0134228D01*
X0156337Y0134108D01*
X0156174Y0133983D01*
X0156015Y0133855D01*
X0155859Y0133723D01*
X0155707Y0133587D01*
X0155557Y0133447D01*
X0155412Y0133304D01*
X0155269Y0133157D01*
X0155131Y0133006D01*
X0154996Y0132853D01*
X0155067Y0132792D01*
X0155201Y0132944D01*
X0155338Y0133093D01*
X0155479Y0133238D01*
X0155623Y0133379D01*
X0155770Y0133518D01*
X0155921Y0133652D01*
X0156075Y0133783D01*
X0156233Y0133910D01*
X0156393Y0134033D01*
X0156557Y0134152D01*
X0156723Y0134267D01*
X0156892Y0134378D01*
X0157063Y0134485D01*
X0157238Y0134587D01*
X0157414Y0134686D01*
X0157593Y0134780D01*
X0157775Y0134869D01*
X0157958Y0134954D01*
X0158143Y0135035D01*
X0158331Y0135111D01*
X0158520Y0135182D01*
X0158711Y0135249D01*
X0158903Y0135311D01*
X0159097Y0135368D01*
X0159292Y0135421D01*
X0159489Y0135468D01*
X0159686Y0135511D01*
X0159885Y0135549D01*
X0160084Y0135583D01*
X0160284Y0135611D01*
X0160485Y0135634D01*
X0160686Y0135653D01*
X0160888Y0135667D01*
X0161090Y0135675D01*
X0161292Y0135679D01*
X0161292Y0135585D01*
X0161092Y0135581D01*
X0160893Y0135573D01*
X0160693Y0135559D01*
X0160494Y0135541D01*
X0160296Y0135518D01*
X0160098Y0135490D01*
X0159901Y0135457D01*
X0159705Y0135419D01*
X0159509Y0135377D01*
X0159315Y0135330D01*
X0159122Y0135278D01*
X0158931Y0135221D01*
X0158740Y0135160D01*
X0158552Y0135094D01*
X0158365Y0135023D01*
X0158180Y0134948D01*
X0157996Y0134868D01*
X0157815Y0134784D01*
X0157636Y0134696D01*
X0157459Y0134603D01*
X0157284Y0134506D01*
X0157112Y0134404D01*
X0156943Y0134299D01*
X0156775Y0134189D01*
X0156611Y0134075D01*
X0156450Y0133958D01*
X0156291Y0133836D01*
X0156136Y0133711D01*
X0155983Y0133581D01*
X0155834Y0133448D01*
X0155688Y0133312D01*
X0155546Y0133172D01*
X0155407Y0133028D01*
X0155271Y0132881D01*
X0155139Y0132731D01*
X0155211Y0132671D01*
X0155341Y0132819D01*
X0155475Y0132964D01*
X0155613Y0133106D01*
X0155754Y0133244D01*
X0155898Y0133379D01*
X0156045Y0133511D01*
X0156196Y0133638D01*
X0156350Y0133762D01*
X0156506Y0133883D01*
X0156666Y0133999D01*
X0156828Y0134111D01*
X0156993Y0134220D01*
X0157161Y0134324D01*
X0157331Y0134424D01*
X0157504Y0134520D01*
X0157679Y0134612D01*
X0157856Y0134700D01*
X0158035Y0134783D01*
X0158216Y0134861D01*
X0158399Y0134936D01*
X0158584Y0135005D01*
X0158770Y0135070D01*
X0158958Y0135131D01*
X0159148Y0135187D01*
X0159338Y0135238D01*
X0159530Y0135285D01*
X0159723Y0135327D01*
X0159917Y0135364D01*
X0160112Y0135397D01*
X0160308Y0135424D01*
X0160504Y0135447D01*
X0160700Y0135465D01*
X0160897Y0135479D01*
X0161095Y0135487D01*
X0161292Y0135491D01*
X0161292Y0135397D01*
X0161097Y0135393D01*
X0160902Y0135385D01*
X0160707Y0135372D01*
X0160513Y0135354D01*
X0160319Y0135331D01*
X0160126Y0135304D01*
X0159933Y0135272D01*
X0159742Y0135235D01*
X0159551Y0135193D01*
X0159361Y0135147D01*
X0159173Y0135097D01*
X0158986Y0135041D01*
X0158800Y0134981D01*
X0158616Y0134917D01*
X0158433Y0134848D01*
X0158252Y0134775D01*
X0158073Y0134697D01*
X0157896Y0134615D01*
X0157721Y0134528D01*
X0157549Y0134438D01*
X0157378Y0134343D01*
X0157210Y0134244D01*
X0157044Y0134141D01*
X0156881Y0134034D01*
X0156720Y0133923D01*
X0156563Y0133808D01*
X0156408Y0133689D01*
X0156256Y0133566D01*
X0156107Y0133440D01*
X0155961Y0133310D01*
X0155819Y0133177D01*
X0155680Y0133040D01*
X0155544Y0132900D01*
X0155412Y0132756D01*
X0155283Y0132610D01*
X0155355Y0132549D01*
X0155482Y0132694D01*
X0155613Y0132836D01*
X0155747Y0132974D01*
X0155884Y0133109D01*
X0156025Y0133241D01*
X0156169Y0133369D01*
X0156316Y0133494D01*
X0156466Y0133615D01*
X0156619Y0133732D01*
X0156775Y0133846D01*
X0156934Y0133956D01*
X0157095Y0134062D01*
X0157259Y0134163D01*
X0157425Y0134261D01*
X0157593Y0134355D01*
X0157764Y0134445D01*
X0157937Y0134530D01*
X0158112Y0134611D01*
X0158289Y0134688D01*
X0158467Y0134760D01*
X0158648Y0134829D01*
X0158830Y0134892D01*
X0159013Y0134951D01*
X0159198Y0135006D01*
X0159384Y0135056D01*
X0159572Y0135102D01*
X0159760Y0135143D01*
X0159950Y0135179D01*
X0160140Y0135211D01*
X0160331Y0135238D01*
X0160522Y0135260D01*
X0160714Y0135278D01*
X0160907Y0135291D01*
X0161099Y0135299D01*
X0161292Y0135303D01*
X0161292Y0135209D01*
X0161102Y0135205D01*
X0160911Y0135197D01*
X0160721Y0135184D01*
X0160532Y0135167D01*
X0160342Y0135145D01*
X0160154Y0135118D01*
X0159966Y0135087D01*
X0159779Y0135051D01*
X0159593Y0135010D01*
X0159408Y0134965D01*
X0159224Y0134916D01*
X0159041Y0134861D01*
X0158860Y0134803D01*
X0158680Y0134740D01*
X0158502Y0134673D01*
X0158325Y0134601D01*
X0158150Y0134525D01*
X0157978Y0134445D01*
X0157807Y0134361D01*
X0157638Y0134272D01*
X0157472Y0134180D01*
X0157307Y0134083D01*
X0157146Y0133983D01*
X0156986Y0133878D01*
X0156830Y0133770D01*
X0156676Y0133657D01*
X0156525Y0133541D01*
X0156376Y0133422D01*
X0156231Y0133299D01*
X0156089Y0133172D01*
X0155950Y0133042D01*
X0155814Y0132908D01*
X0155681Y0132772D01*
X0155552Y0132632D01*
X0155426Y0132488D01*
X0155498Y0132428D01*
X0155622Y0132569D01*
X0155750Y0132707D01*
X0155881Y0132842D01*
X0156015Y0132974D01*
X0156152Y0133103D01*
X0156293Y0133228D01*
X0156437Y0133350D01*
X0156583Y0133468D01*
X0156732Y0133582D01*
X0156884Y0133693D01*
X0157039Y0133800D01*
X0157196Y0133903D01*
X0157356Y0134003D01*
X0157518Y0134098D01*
X0157683Y0134190D01*
X0157849Y0134277D01*
X0158018Y0134360D01*
X0158189Y0134440D01*
X0158361Y0134515D01*
X0158536Y0134585D01*
X0158712Y0134652D01*
X0158889Y0134714D01*
X0159069Y0134772D01*
X0159249Y0134825D01*
X0159431Y0134874D01*
X0159613Y0134918D01*
X0159797Y0134958D01*
X0159982Y0134994D01*
X0160168Y0135025D01*
X0160354Y0135051D01*
X0160541Y0135073D01*
X0160728Y0135090D01*
X0160916Y0135103D01*
X0161104Y0135111D01*
X0161292Y0135115D01*
X0161292Y0135021D01*
X0161106Y0135017D01*
X0160921Y0135009D01*
X0160735Y0134997D01*
X0160550Y0134980D01*
X0160366Y0134958D01*
X0160182Y0134932D01*
X0159998Y0134901D01*
X0159816Y0134866D01*
X0159634Y0134827D01*
X0159454Y0134783D01*
X0159274Y0134734D01*
X0159096Y0134682D01*
X0158919Y0134625D01*
X0158744Y0134563D01*
X0158570Y0134498D01*
X0158398Y0134428D01*
X0158227Y0134354D01*
X0158059Y0134276D01*
X0157892Y0134193D01*
X0157728Y0134107D01*
X0157565Y0134017D01*
X0157405Y0133922D01*
X0157247Y0133824D01*
X0157092Y0133722D01*
X0156939Y0133617D01*
X0156789Y0133507D01*
X0156641Y0133394D01*
X0156497Y0133277D01*
X0156355Y0133157D01*
X0156216Y0133034D01*
X0156080Y0132907D01*
X0155948Y0132777D01*
X0155819Y0132643D01*
X0155692Y0132507D01*
X0155570Y0132367D01*
X0154883Y0121969D02*
X0155575Y0122546D01*
X0155574Y0122545D02*
X0155693Y0122408D01*
X0155814Y0122274D01*
X0155939Y0122143D01*
X0156067Y0122015D01*
X0156198Y0121891D01*
X0156332Y0121769D01*
X0156469Y0121650D01*
X0156608Y0121535D01*
X0156751Y0121424D01*
X0156896Y0121315D01*
X0157043Y0121210D01*
X0157193Y0121109D01*
X0157345Y0121012D01*
X0157500Y0120918D01*
X0157657Y0120827D01*
X0157816Y0120741D01*
X0157977Y0120658D01*
X0158140Y0120580D01*
X0158305Y0120505D01*
X0158471Y0120434D01*
X0158639Y0120367D01*
X0158809Y0120305D01*
X0158980Y0120246D01*
X0159153Y0120191D01*
X0159326Y0120141D01*
X0159501Y0120095D01*
X0159677Y0120053D01*
X0159854Y0120015D01*
X0160032Y0119982D01*
X0160211Y0119952D01*
X0160390Y0119927D01*
X0160570Y0119907D01*
X0160750Y0119890D01*
X0160930Y0119878D01*
X0161111Y0119871D01*
X0161292Y0119867D01*
X0161293Y0118968D01*
X0161292Y0118967D01*
X0161089Y0118971D01*
X0160887Y0118979D01*
X0160684Y0118993D01*
X0160482Y0119011D01*
X0160281Y0119034D01*
X0160080Y0119062D01*
X0159880Y0119095D01*
X0159680Y0119132D01*
X0159482Y0119174D01*
X0159284Y0119221D01*
X0159088Y0119273D01*
X0158894Y0119330D01*
X0158700Y0119391D01*
X0158508Y0119456D01*
X0158318Y0119527D01*
X0158129Y0119602D01*
X0157943Y0119681D01*
X0157758Y0119765D01*
X0157575Y0119853D01*
X0157395Y0119946D01*
X0157217Y0120042D01*
X0157041Y0120144D01*
X0156868Y0120249D01*
X0156697Y0120358D01*
X0156529Y0120472D01*
X0156363Y0120589D01*
X0156201Y0120711D01*
X0156041Y0120836D01*
X0155885Y0120965D01*
X0155732Y0121098D01*
X0155582Y0121235D01*
X0155435Y0121375D01*
X0155292Y0121518D01*
X0155152Y0121665D01*
X0155015Y0121815D01*
X0154883Y0121969D01*
X0154955Y0122029D01*
X0155086Y0121877D01*
X0155221Y0121729D01*
X0155359Y0121584D01*
X0155501Y0121442D01*
X0155646Y0121303D01*
X0155794Y0121168D01*
X0155946Y0121037D01*
X0156101Y0120909D01*
X0156258Y0120785D01*
X0156419Y0120665D01*
X0156582Y0120549D01*
X0156749Y0120437D01*
X0156917Y0120329D01*
X0157089Y0120224D01*
X0157263Y0120124D01*
X0157439Y0120029D01*
X0157617Y0119937D01*
X0157798Y0119850D01*
X0157981Y0119767D01*
X0158165Y0119688D01*
X0158351Y0119614D01*
X0158540Y0119545D01*
X0158729Y0119480D01*
X0158921Y0119420D01*
X0159113Y0119364D01*
X0159307Y0119313D01*
X0159502Y0119266D01*
X0159698Y0119224D01*
X0159895Y0119187D01*
X0160093Y0119155D01*
X0160292Y0119127D01*
X0160491Y0119104D01*
X0160691Y0119086D01*
X0160891Y0119073D01*
X0161092Y0119065D01*
X0161292Y0119061D01*
X0161292Y0119155D01*
X0161094Y0119159D01*
X0160896Y0119167D01*
X0160698Y0119180D01*
X0160500Y0119198D01*
X0160303Y0119221D01*
X0160107Y0119248D01*
X0159911Y0119280D01*
X0159717Y0119316D01*
X0159523Y0119358D01*
X0159330Y0119404D01*
X0159138Y0119454D01*
X0158948Y0119510D01*
X0158759Y0119569D01*
X0158571Y0119634D01*
X0158385Y0119702D01*
X0158201Y0119775D01*
X0158018Y0119853D01*
X0157838Y0119935D01*
X0157659Y0120021D01*
X0157483Y0120112D01*
X0157309Y0120206D01*
X0157137Y0120305D01*
X0156967Y0120408D01*
X0156800Y0120515D01*
X0156636Y0120626D01*
X0156475Y0120741D01*
X0156316Y0120860D01*
X0156160Y0120982D01*
X0156007Y0121108D01*
X0155857Y0121238D01*
X0155710Y0121372D01*
X0155567Y0121509D01*
X0155427Y0121649D01*
X0155290Y0121792D01*
X0155157Y0121939D01*
X0155027Y0122089D01*
X0155099Y0122149D01*
X0155228Y0122001D01*
X0155359Y0121856D01*
X0155494Y0121714D01*
X0155633Y0121576D01*
X0155775Y0121440D01*
X0155920Y0121308D01*
X0156068Y0121180D01*
X0156219Y0121055D01*
X0156373Y0120934D01*
X0156530Y0120817D01*
X0156690Y0120703D01*
X0156852Y0120594D01*
X0157017Y0120488D01*
X0157185Y0120386D01*
X0157355Y0120288D01*
X0157527Y0120195D01*
X0157701Y0120105D01*
X0157878Y0120020D01*
X0158056Y0119939D01*
X0158236Y0119862D01*
X0158419Y0119790D01*
X0158602Y0119722D01*
X0158788Y0119659D01*
X0158975Y0119600D01*
X0159163Y0119545D01*
X0159352Y0119495D01*
X0159543Y0119450D01*
X0159735Y0119409D01*
X0159927Y0119372D01*
X0160121Y0119341D01*
X0160315Y0119314D01*
X0160510Y0119292D01*
X0160705Y0119274D01*
X0160900Y0119261D01*
X0161096Y0119253D01*
X0161292Y0119249D01*
X0161292Y0119343D01*
X0161098Y0119347D01*
X0160905Y0119355D01*
X0160712Y0119368D01*
X0160519Y0119385D01*
X0160326Y0119407D01*
X0160134Y0119434D01*
X0159943Y0119465D01*
X0159753Y0119501D01*
X0159563Y0119541D01*
X0159375Y0119586D01*
X0159188Y0119636D01*
X0159002Y0119690D01*
X0158817Y0119748D01*
X0158634Y0119811D01*
X0158452Y0119878D01*
X0158272Y0119949D01*
X0158094Y0120025D01*
X0157917Y0120105D01*
X0157743Y0120189D01*
X0157571Y0120278D01*
X0157401Y0120370D01*
X0157233Y0120467D01*
X0157067Y0120568D01*
X0156904Y0120672D01*
X0156744Y0120780D01*
X0156586Y0120893D01*
X0156431Y0121009D01*
X0156278Y0121128D01*
X0156129Y0121252D01*
X0155982Y0121378D01*
X0155839Y0121509D01*
X0155699Y0121642D01*
X0155562Y0121779D01*
X0155429Y0121920D01*
X0155298Y0122063D01*
X0155172Y0122210D01*
X0155244Y0122270D01*
X0155369Y0122125D01*
X0155498Y0121983D01*
X0155630Y0121845D01*
X0155765Y0121709D01*
X0155904Y0121577D01*
X0156045Y0121448D01*
X0156190Y0121323D01*
X0156337Y0121201D01*
X0156488Y0121083D01*
X0156641Y0120968D01*
X0156797Y0120858D01*
X0156956Y0120750D01*
X0157117Y0120647D01*
X0157281Y0120548D01*
X0157447Y0120452D01*
X0157615Y0120361D01*
X0157785Y0120274D01*
X0157957Y0120190D01*
X0158132Y0120111D01*
X0158308Y0120036D01*
X0158486Y0119966D01*
X0158665Y0119899D01*
X0158846Y0119837D01*
X0159029Y0119780D01*
X0159213Y0119726D01*
X0159398Y0119677D01*
X0159584Y0119633D01*
X0159771Y0119593D01*
X0159959Y0119558D01*
X0160148Y0119527D01*
X0160338Y0119500D01*
X0160528Y0119479D01*
X0160718Y0119461D01*
X0160909Y0119449D01*
X0161101Y0119441D01*
X0161292Y0119437D01*
X0161292Y0119531D01*
X0161103Y0119535D01*
X0160914Y0119543D01*
X0160725Y0119555D01*
X0160537Y0119572D01*
X0160349Y0119594D01*
X0160162Y0119620D01*
X0159975Y0119650D01*
X0159789Y0119685D01*
X0159604Y0119725D01*
X0159420Y0119769D01*
X0159238Y0119817D01*
X0159056Y0119870D01*
X0158876Y0119927D01*
X0158697Y0119988D01*
X0158519Y0120054D01*
X0158343Y0120123D01*
X0158169Y0120197D01*
X0157997Y0120275D01*
X0157827Y0120358D01*
X0157659Y0120444D01*
X0157493Y0120534D01*
X0157329Y0120629D01*
X0157167Y0120727D01*
X0157008Y0120829D01*
X0156851Y0120935D01*
X0156697Y0121044D01*
X0156545Y0121158D01*
X0156397Y0121274D01*
X0156251Y0121395D01*
X0156108Y0121518D01*
X0155968Y0121646D01*
X0155831Y0121776D01*
X0155697Y0121910D01*
X0155567Y0122047D01*
X0155440Y0122187D01*
X0155316Y0122330D01*
X0155388Y0122390D01*
X0155511Y0122249D01*
X0155636Y0122111D01*
X0155765Y0121975D01*
X0155897Y0121843D01*
X0156032Y0121714D01*
X0156171Y0121589D01*
X0156312Y0121466D01*
X0156456Y0121347D01*
X0156603Y0121232D01*
X0156752Y0121120D01*
X0156905Y0121012D01*
X0157060Y0120907D01*
X0157217Y0120807D01*
X0157377Y0120710D01*
X0157538Y0120616D01*
X0157703Y0120527D01*
X0157869Y0120442D01*
X0158037Y0120361D01*
X0158207Y0120283D01*
X0158379Y0120210D01*
X0158553Y0120141D01*
X0158728Y0120077D01*
X0158905Y0120016D01*
X0159083Y0119960D01*
X0159262Y0119908D01*
X0159443Y0119860D01*
X0159625Y0119817D01*
X0159807Y0119778D01*
X0159991Y0119743D01*
X0160175Y0119713D01*
X0160360Y0119687D01*
X0160546Y0119666D01*
X0160732Y0119649D01*
X0160919Y0119637D01*
X0161105Y0119629D01*
X0161292Y0119625D01*
X0161292Y0119719D01*
X0161108Y0119723D01*
X0160923Y0119730D01*
X0160739Y0119743D01*
X0160555Y0119759D01*
X0160372Y0119780D01*
X0160189Y0119806D01*
X0160007Y0119836D01*
X0159826Y0119870D01*
X0159645Y0119908D01*
X0159466Y0119951D01*
X0159287Y0119998D01*
X0159110Y0120050D01*
X0158934Y0120105D01*
X0158759Y0120165D01*
X0158586Y0120229D01*
X0158415Y0120297D01*
X0158245Y0120369D01*
X0158077Y0120446D01*
X0157911Y0120526D01*
X0157747Y0120610D01*
X0157584Y0120698D01*
X0157424Y0120790D01*
X0157267Y0120886D01*
X0157111Y0120986D01*
X0156958Y0121089D01*
X0156808Y0121196D01*
X0156660Y0121306D01*
X0156515Y0121420D01*
X0156373Y0121538D01*
X0156233Y0121659D01*
X0156097Y0121783D01*
X0155963Y0121910D01*
X0155833Y0122041D01*
X0155705Y0122174D01*
X0155581Y0122311D01*
X0155461Y0122450D01*
X0155533Y0122511D01*
X0155652Y0122373D01*
X0155775Y0122238D01*
X0155900Y0122106D01*
X0156029Y0121977D01*
X0156161Y0121851D01*
X0156296Y0121729D01*
X0156434Y0121609D01*
X0156574Y0121493D01*
X0156718Y0121381D01*
X0156864Y0121272D01*
X0157012Y0121166D01*
X0157163Y0121064D01*
X0157317Y0120966D01*
X0157472Y0120871D01*
X0157630Y0120780D01*
X0157791Y0120693D01*
X0157953Y0120610D01*
X0158117Y0120531D01*
X0158283Y0120456D01*
X0158451Y0120384D01*
X0158620Y0120317D01*
X0158791Y0120254D01*
X0158963Y0120195D01*
X0159137Y0120140D01*
X0159312Y0120089D01*
X0159488Y0120042D01*
X0159666Y0120000D01*
X0159844Y0119962D01*
X0160023Y0119928D01*
X0160203Y0119899D01*
X0160383Y0119874D01*
X0160564Y0119853D01*
X0160746Y0119836D01*
X0160928Y0119824D01*
X0161110Y0119817D01*
X0161292Y0119813D01*
X0014938Y0043366D02*
X0015784Y0043674D01*
X0015850Y0043503D01*
X0015920Y0043333D01*
X0015994Y0043166D01*
X0016072Y0043000D01*
X0016154Y0042836D01*
X0016240Y0042675D01*
X0016330Y0042515D01*
X0016424Y0042358D01*
X0016521Y0042203D01*
X0016623Y0042050D01*
X0016728Y0041900D01*
X0016836Y0041753D01*
X0016948Y0041608D01*
X0017064Y0041466D01*
X0017183Y0041327D01*
X0017306Y0041190D01*
X0017431Y0041057D01*
X0017560Y0040927D01*
X0017692Y0040800D01*
X0017827Y0040676D01*
X0017965Y0040556D01*
X0018106Y0040438D01*
X0018250Y0040325D01*
X0018396Y0040215D01*
X0018545Y0040108D01*
X0018697Y0040005D01*
X0018851Y0039906D01*
X0019007Y0039811D01*
X0019166Y0039719D01*
X0019327Y0039631D01*
X0019489Y0039548D01*
X0019654Y0039468D01*
X0019821Y0039392D01*
X0019990Y0039320D01*
X0020160Y0039253D01*
X0020332Y0039189D01*
X0020505Y0039130D01*
X0020680Y0039075D01*
X0020856Y0039024D01*
X0021033Y0038978D01*
X0021211Y0038935D01*
X0021391Y0038898D01*
X0021571Y0038864D01*
X0021751Y0038835D01*
X0021626Y0037944D01*
X0021625Y0037944D01*
X0021422Y0037976D01*
X0021221Y0038014D01*
X0021020Y0038056D01*
X0020820Y0038103D01*
X0020621Y0038155D01*
X0020424Y0038212D01*
X0020228Y0038274D01*
X0020034Y0038340D01*
X0019841Y0038411D01*
X0019650Y0038487D01*
X0019461Y0038567D01*
X0019275Y0038652D01*
X0019090Y0038741D01*
X0018907Y0038835D01*
X0018727Y0038933D01*
X0018549Y0039036D01*
X0018374Y0039143D01*
X0018201Y0039254D01*
X0018031Y0039369D01*
X0017864Y0039489D01*
X0017700Y0039612D01*
X0017539Y0039739D01*
X0017381Y0039871D01*
X0017227Y0040006D01*
X0017075Y0040144D01*
X0016928Y0040287D01*
X0016783Y0040433D01*
X0016642Y0040582D01*
X0016505Y0040735D01*
X0016372Y0040891D01*
X0016242Y0041050D01*
X0016117Y0041212D01*
X0015995Y0041378D01*
X0015877Y0041546D01*
X0015764Y0041717D01*
X0015654Y0041891D01*
X0015549Y0042067D01*
X0015449Y0042246D01*
X0015352Y0042427D01*
X0015260Y0042611D01*
X0015173Y0042797D01*
X0015090Y0042984D01*
X0015012Y0043174D01*
X0014938Y0043366D01*
X0015026Y0043398D01*
X0015099Y0043208D01*
X0015177Y0043021D01*
X0015259Y0042835D01*
X0015345Y0042652D01*
X0015436Y0042470D01*
X0015531Y0042291D01*
X0015631Y0042114D01*
X0015735Y0041940D01*
X0015843Y0041768D01*
X0015955Y0041599D01*
X0016071Y0041432D01*
X0016192Y0041269D01*
X0016316Y0041108D01*
X0016444Y0040951D01*
X0016576Y0040797D01*
X0016712Y0040646D01*
X0016851Y0040498D01*
X0016994Y0040354D01*
X0017140Y0040213D01*
X0017289Y0040076D01*
X0017442Y0039942D01*
X0017598Y0039812D01*
X0017758Y0039686D01*
X0017920Y0039564D01*
X0018085Y0039446D01*
X0018253Y0039332D01*
X0018424Y0039223D01*
X0018597Y0039117D01*
X0018773Y0039015D01*
X0018951Y0038918D01*
X0019132Y0038825D01*
X0019314Y0038737D01*
X0019499Y0038653D01*
X0019686Y0038574D01*
X0019875Y0038499D01*
X0020065Y0038429D01*
X0020257Y0038363D01*
X0020451Y0038302D01*
X0020646Y0038246D01*
X0020842Y0038195D01*
X0021040Y0038148D01*
X0021238Y0038106D01*
X0021438Y0038069D01*
X0021638Y0038037D01*
X0021651Y0038130D01*
X0021453Y0038162D01*
X0021256Y0038198D01*
X0021060Y0038240D01*
X0020864Y0038286D01*
X0020670Y0038337D01*
X0020477Y0038392D01*
X0020286Y0038453D01*
X0020096Y0038517D01*
X0019908Y0038587D01*
X0019721Y0038661D01*
X0019537Y0038739D01*
X0019354Y0038822D01*
X0019173Y0038910D01*
X0018995Y0039001D01*
X0018819Y0039097D01*
X0018645Y0039198D01*
X0018473Y0039302D01*
X0018305Y0039411D01*
X0018139Y0039524D01*
X0017975Y0039640D01*
X0017815Y0039761D01*
X0017658Y0039885D01*
X0017503Y0040014D01*
X0017352Y0040146D01*
X0017204Y0040281D01*
X0017060Y0040420D01*
X0016918Y0040563D01*
X0016781Y0040709D01*
X0016647Y0040858D01*
X0016516Y0041011D01*
X0016390Y0041167D01*
X0016267Y0041325D01*
X0016148Y0041487D01*
X0016033Y0041651D01*
X0015922Y0041819D01*
X0015815Y0041988D01*
X0015712Y0042161D01*
X0015614Y0042336D01*
X0015520Y0042513D01*
X0015430Y0042692D01*
X0015344Y0042874D01*
X0015263Y0043057D01*
X0015187Y0043243D01*
X0015115Y0043430D01*
X0015203Y0043462D01*
X0015274Y0043277D01*
X0015350Y0043094D01*
X0015430Y0042912D01*
X0015515Y0042733D01*
X0015603Y0042555D01*
X0015697Y0042380D01*
X0015794Y0042208D01*
X0015895Y0042037D01*
X0016001Y0041869D01*
X0016111Y0041704D01*
X0016224Y0041541D01*
X0016342Y0041382D01*
X0016463Y0041225D01*
X0016589Y0041071D01*
X0016718Y0040920D01*
X0016850Y0040773D01*
X0016986Y0040628D01*
X0017126Y0040487D01*
X0017269Y0040350D01*
X0017415Y0040216D01*
X0017564Y0040085D01*
X0017717Y0039958D01*
X0017872Y0039835D01*
X0018031Y0039716D01*
X0018192Y0039601D01*
X0018356Y0039489D01*
X0018523Y0039382D01*
X0018693Y0039279D01*
X0018864Y0039180D01*
X0019039Y0039085D01*
X0019215Y0038994D01*
X0019394Y0038908D01*
X0019574Y0038825D01*
X0019757Y0038748D01*
X0019941Y0038675D01*
X0020127Y0038606D01*
X0020315Y0038542D01*
X0020504Y0038482D01*
X0020695Y0038427D01*
X0020887Y0038377D01*
X0021080Y0038332D01*
X0021274Y0038291D01*
X0021469Y0038255D01*
X0021665Y0038223D01*
X0021678Y0038316D01*
X0021484Y0038347D01*
X0021292Y0038383D01*
X0021100Y0038423D01*
X0020909Y0038469D01*
X0020719Y0038518D01*
X0020531Y0038573D01*
X0020344Y0038631D01*
X0020158Y0038695D01*
X0019974Y0038763D01*
X0019792Y0038835D01*
X0019612Y0038912D01*
X0019433Y0038993D01*
X0019257Y0039078D01*
X0019082Y0039168D01*
X0018910Y0039262D01*
X0018740Y0039360D01*
X0018573Y0039462D01*
X0018408Y0039568D01*
X0018246Y0039678D01*
X0018087Y0039792D01*
X0017930Y0039910D01*
X0017776Y0040031D01*
X0017625Y0040157D01*
X0017478Y0040286D01*
X0017333Y0040418D01*
X0017192Y0040554D01*
X0017054Y0040693D01*
X0016919Y0040836D01*
X0016788Y0040982D01*
X0016661Y0041131D01*
X0016537Y0041283D01*
X0016417Y0041438D01*
X0016301Y0041596D01*
X0016189Y0041757D01*
X0016080Y0041920D01*
X0015976Y0042086D01*
X0015875Y0042254D01*
X0015779Y0042425D01*
X0015687Y0042598D01*
X0015599Y0042774D01*
X0015516Y0042951D01*
X0015437Y0043130D01*
X0015362Y0043311D01*
X0015291Y0043494D01*
X0015380Y0043527D01*
X0015449Y0043346D01*
X0015523Y0043167D01*
X0015601Y0042989D01*
X0015684Y0042814D01*
X0015771Y0042641D01*
X0015862Y0042470D01*
X0015957Y0042301D01*
X0016056Y0042135D01*
X0016159Y0041971D01*
X0016267Y0041809D01*
X0016378Y0041651D01*
X0016492Y0041495D01*
X0016611Y0041341D01*
X0016733Y0041191D01*
X0016859Y0041044D01*
X0016989Y0040900D01*
X0017122Y0040759D01*
X0017258Y0040621D01*
X0017397Y0040487D01*
X0017540Y0040356D01*
X0017686Y0040228D01*
X0017835Y0040104D01*
X0017987Y0039984D01*
X0018142Y0039868D01*
X0018300Y0039755D01*
X0018460Y0039646D01*
X0018623Y0039541D01*
X0018788Y0039441D01*
X0018956Y0039344D01*
X0019126Y0039251D01*
X0019298Y0039162D01*
X0019473Y0039078D01*
X0019649Y0038998D01*
X0019828Y0038922D01*
X0020008Y0038851D01*
X0020189Y0038783D01*
X0020373Y0038721D01*
X0020558Y0038663D01*
X0020744Y0038609D01*
X0020931Y0038560D01*
X0021120Y0038515D01*
X0021309Y0038475D01*
X0021500Y0038440D01*
X0021691Y0038409D01*
X0021704Y0038502D01*
X0021515Y0038533D01*
X0021327Y0038568D01*
X0021140Y0038607D01*
X0020953Y0038651D01*
X0020768Y0038700D01*
X0020584Y0038753D01*
X0020402Y0038810D01*
X0020221Y0038872D01*
X0020041Y0038938D01*
X0019863Y0039009D01*
X0019687Y0039084D01*
X0019513Y0039163D01*
X0019340Y0039247D01*
X0019170Y0039334D01*
X0019002Y0039426D01*
X0018836Y0039521D01*
X0018673Y0039621D01*
X0018512Y0039725D01*
X0018353Y0039832D01*
X0018198Y0039944D01*
X0018045Y0040059D01*
X0017894Y0040177D01*
X0017747Y0040300D01*
X0017603Y0040426D01*
X0017462Y0040555D01*
X0017324Y0040688D01*
X0017189Y0040824D01*
X0017058Y0040963D01*
X0016930Y0041106D01*
X0016806Y0041251D01*
X0016685Y0041400D01*
X0016568Y0041551D01*
X0016454Y0041705D01*
X0016344Y0041862D01*
X0016239Y0042021D01*
X0016137Y0042183D01*
X0016039Y0042348D01*
X0015945Y0042515D01*
X0015855Y0042684D01*
X0015769Y0042855D01*
X0015687Y0043028D01*
X0015610Y0043203D01*
X0015537Y0043380D01*
X0015468Y0043559D01*
X0015556Y0043591D01*
X0015624Y0043414D01*
X0015696Y0043240D01*
X0015773Y0043067D01*
X0015854Y0042895D01*
X0015938Y0042726D01*
X0016027Y0042559D01*
X0016120Y0042395D01*
X0016217Y0042232D01*
X0016318Y0042072D01*
X0016422Y0041915D01*
X0016531Y0041760D01*
X0016643Y0041607D01*
X0016759Y0041458D01*
X0016878Y0041311D01*
X0017001Y0041167D01*
X0017127Y0041027D01*
X0017257Y0040889D01*
X0017390Y0040755D01*
X0017526Y0040624D01*
X0017666Y0040496D01*
X0017808Y0040371D01*
X0017954Y0040250D01*
X0018102Y0040133D01*
X0018253Y0040019D01*
X0018407Y0039909D01*
X0018563Y0039803D01*
X0018723Y0039701D01*
X0018884Y0039602D01*
X0019048Y0039508D01*
X0019214Y0039417D01*
X0019382Y0039331D01*
X0019552Y0039248D01*
X0019724Y0039170D01*
X0019898Y0039096D01*
X0020074Y0039026D01*
X0020252Y0038961D01*
X0020431Y0038900D01*
X0020611Y0038843D01*
X0020793Y0038791D01*
X0020976Y0038743D01*
X0021160Y0038699D01*
X0021345Y0038660D01*
X0021531Y0038625D01*
X0021717Y0038595D01*
X0021731Y0038688D01*
X0021546Y0038718D01*
X0021363Y0038752D01*
X0021180Y0038791D01*
X0020998Y0038834D01*
X0020817Y0038881D01*
X0020638Y0038933D01*
X0020460Y0038989D01*
X0020283Y0039050D01*
X0020108Y0039114D01*
X0019934Y0039183D01*
X0019762Y0039256D01*
X0019592Y0039334D01*
X0019424Y0039415D01*
X0019258Y0039500D01*
X0019094Y0039590D01*
X0018932Y0039683D01*
X0018772Y0039781D01*
X0018615Y0039882D01*
X0018461Y0039987D01*
X0018309Y0040095D01*
X0018159Y0040208D01*
X0018013Y0040323D01*
X0017869Y0040443D01*
X0017728Y0040566D01*
X0017591Y0040692D01*
X0017456Y0040822D01*
X0017325Y0040954D01*
X0017197Y0041090D01*
X0017072Y0041229D01*
X0016950Y0041371D01*
X0016832Y0041516D01*
X0016718Y0041664D01*
X0016607Y0041814D01*
X0016500Y0041967D01*
X0016397Y0042123D01*
X0016297Y0042281D01*
X0016202Y0042442D01*
X0016110Y0042604D01*
X0016022Y0042769D01*
X0015938Y0042936D01*
X0015859Y0043105D01*
X0015783Y0043276D01*
X0015712Y0043449D01*
X0015645Y0043623D01*
X0015733Y0043655D01*
X0015799Y0043483D01*
X0015870Y0043312D01*
X0015944Y0043144D01*
X0016023Y0042977D01*
X0016106Y0042812D01*
X0016192Y0042649D01*
X0016283Y0042488D01*
X0016378Y0042330D01*
X0016476Y0042174D01*
X0016578Y0042020D01*
X0016684Y0041869D01*
X0016793Y0041720D01*
X0016906Y0041574D01*
X0017023Y0041431D01*
X0017143Y0041291D01*
X0017266Y0041154D01*
X0017392Y0041020D01*
X0017522Y0040888D01*
X0017655Y0040760D01*
X0017791Y0040636D01*
X0017930Y0040514D01*
X0018072Y0040396D01*
X0018217Y0040282D01*
X0018364Y0040171D01*
X0018514Y0040064D01*
X0018667Y0039960D01*
X0018822Y0039860D01*
X0018980Y0039764D01*
X0019139Y0039672D01*
X0019301Y0039584D01*
X0019465Y0039499D01*
X0019632Y0039419D01*
X0019800Y0039343D01*
X0019969Y0039270D01*
X0020141Y0039202D01*
X0020314Y0039138D01*
X0020488Y0039079D01*
X0020664Y0039023D01*
X0020842Y0038972D01*
X0021020Y0038925D01*
X0021200Y0038883D01*
X0021380Y0038845D01*
X0021562Y0038811D01*
X0021744Y0038782D01*
X0029342Y0040881D02*
X0028655Y0041462D01*
X0028770Y0041603D01*
X0028882Y0041747D01*
X0028990Y0041894D01*
X0029095Y0042043D01*
X0029196Y0042195D01*
X0029293Y0042349D01*
X0029387Y0042505D01*
X0029477Y0042664D01*
X0029563Y0042825D01*
X0029645Y0042988D01*
X0029723Y0043153D01*
X0029797Y0043319D01*
X0029867Y0043488D01*
X0029933Y0043658D01*
X0029995Y0043829D01*
X0030052Y0044002D01*
X0030106Y0044176D01*
X0030155Y0044352D01*
X0030200Y0044529D01*
X0030240Y0044706D01*
X0030277Y0044885D01*
X0030309Y0045064D01*
X0030337Y0045245D01*
X0030360Y0045425D01*
X0030379Y0045607D01*
X0030394Y0045789D01*
X0030404Y0045971D01*
X0030410Y0046153D01*
X0030411Y0046335D01*
X0030408Y0046517D01*
X0030401Y0046700D01*
X0030389Y0046882D01*
X0030373Y0047063D01*
X0030352Y0047244D01*
X0030327Y0047425D01*
X0030298Y0047605D01*
X0030264Y0047784D01*
X0030226Y0047962D01*
X0030184Y0048140D01*
X0030137Y0048316D01*
X0030087Y0048491D01*
X0030032Y0048665D01*
X0029973Y0048837D01*
X0030818Y0049145D01*
X0030885Y0048952D01*
X0030946Y0048757D01*
X0031003Y0048561D01*
X0031056Y0048363D01*
X0031103Y0048165D01*
X0031146Y0047965D01*
X0031184Y0047764D01*
X0031216Y0047562D01*
X0031245Y0047360D01*
X0031268Y0047157D01*
X0031286Y0046953D01*
X0031299Y0046750D01*
X0031307Y0046545D01*
X0031311Y0046341D01*
X0031309Y0046137D01*
X0031303Y0045933D01*
X0031292Y0045729D01*
X0031275Y0045525D01*
X0031254Y0045322D01*
X0031228Y0045119D01*
X0031197Y0044917D01*
X0031161Y0044716D01*
X0031120Y0044516D01*
X0031074Y0044317D01*
X0031024Y0044118D01*
X0030969Y0043922D01*
X0030909Y0043726D01*
X0030844Y0043533D01*
X0030775Y0043340D01*
X0030701Y0043150D01*
X0030623Y0042961D01*
X0030539Y0042775D01*
X0030452Y0042590D01*
X0030360Y0042407D01*
X0030264Y0042227D01*
X0030163Y0042049D01*
X0030058Y0041874D01*
X0029949Y0041701D01*
X0029835Y0041531D01*
X0029718Y0041364D01*
X0029597Y0041200D01*
X0029471Y0041038D01*
X0029342Y0040880D01*
X0029270Y0040941D01*
X0029398Y0041097D01*
X0029522Y0041257D01*
X0029642Y0041419D01*
X0029758Y0041585D01*
X0029870Y0041753D01*
X0029978Y0041924D01*
X0030082Y0042097D01*
X0030181Y0042273D01*
X0030277Y0042451D01*
X0030368Y0042631D01*
X0030454Y0042814D01*
X0030536Y0042999D01*
X0030614Y0043185D01*
X0030687Y0043373D01*
X0030756Y0043564D01*
X0030819Y0043755D01*
X0030879Y0043948D01*
X0030933Y0044143D01*
X0030983Y0044339D01*
X0031028Y0044536D01*
X0031068Y0044734D01*
X0031104Y0044932D01*
X0031135Y0045132D01*
X0031161Y0045333D01*
X0031182Y0045533D01*
X0031198Y0045735D01*
X0031209Y0045937D01*
X0031215Y0046138D01*
X0031217Y0046341D01*
X0031214Y0046543D01*
X0031205Y0046744D01*
X0031192Y0046946D01*
X0031174Y0047147D01*
X0031151Y0047348D01*
X0031124Y0047548D01*
X0031091Y0047747D01*
X0031054Y0047946D01*
X0031012Y0048144D01*
X0030965Y0048340D01*
X0030913Y0048535D01*
X0030857Y0048729D01*
X0030796Y0048922D01*
X0030730Y0049113D01*
X0030642Y0049081D01*
X0030707Y0048892D01*
X0030767Y0048702D01*
X0030823Y0048510D01*
X0030874Y0048317D01*
X0030920Y0048122D01*
X0030962Y0047927D01*
X0030999Y0047731D01*
X0031031Y0047534D01*
X0031058Y0047336D01*
X0031081Y0047137D01*
X0031098Y0046938D01*
X0031111Y0046739D01*
X0031120Y0046540D01*
X0031123Y0046340D01*
X0031121Y0046140D01*
X0031115Y0045941D01*
X0031104Y0045741D01*
X0031088Y0045542D01*
X0031067Y0045343D01*
X0031042Y0045145D01*
X0031011Y0044948D01*
X0030976Y0044751D01*
X0030936Y0044556D01*
X0030892Y0044361D01*
X0030842Y0044167D01*
X0030789Y0043975D01*
X0030730Y0043784D01*
X0030667Y0043594D01*
X0030599Y0043407D01*
X0030527Y0043220D01*
X0030450Y0043036D01*
X0030369Y0042853D01*
X0030283Y0042673D01*
X0030193Y0042495D01*
X0030099Y0042319D01*
X0030001Y0042145D01*
X0029898Y0041973D01*
X0029792Y0041804D01*
X0029681Y0041638D01*
X0029566Y0041475D01*
X0029447Y0041314D01*
X0029325Y0041156D01*
X0029199Y0041002D01*
X0029127Y0041062D01*
X0029252Y0041215D01*
X0029373Y0041371D01*
X0029490Y0041530D01*
X0029604Y0041692D01*
X0029713Y0041856D01*
X0029818Y0042023D01*
X0029920Y0042192D01*
X0030017Y0042364D01*
X0030110Y0042538D01*
X0030199Y0042715D01*
X0030284Y0042893D01*
X0030364Y0043073D01*
X0030440Y0043256D01*
X0030511Y0043440D01*
X0030578Y0043625D01*
X0030640Y0043813D01*
X0030698Y0044002D01*
X0030752Y0044192D01*
X0030800Y0044383D01*
X0030844Y0044575D01*
X0030884Y0044769D01*
X0030919Y0044963D01*
X0030949Y0045158D01*
X0030974Y0045354D01*
X0030994Y0045551D01*
X0031010Y0045747D01*
X0031021Y0045944D01*
X0031027Y0046142D01*
X0031029Y0046339D01*
X0031026Y0046537D01*
X0031018Y0046734D01*
X0031005Y0046931D01*
X0030987Y0047128D01*
X0030965Y0047324D01*
X0030938Y0047519D01*
X0030906Y0047714D01*
X0030870Y0047908D01*
X0030828Y0048101D01*
X0030783Y0048293D01*
X0030732Y0048484D01*
X0030677Y0048674D01*
X0030617Y0048862D01*
X0030553Y0049049D01*
X0030465Y0049017D01*
X0030528Y0048832D01*
X0030587Y0048646D01*
X0030642Y0048459D01*
X0030691Y0048270D01*
X0030737Y0048080D01*
X0030777Y0047889D01*
X0030813Y0047698D01*
X0030845Y0047505D01*
X0030872Y0047312D01*
X0030894Y0047118D01*
X0030911Y0046923D01*
X0030924Y0046729D01*
X0030932Y0046534D01*
X0030935Y0046339D01*
X0030933Y0046143D01*
X0030927Y0045948D01*
X0030916Y0045754D01*
X0030901Y0045559D01*
X0030880Y0045365D01*
X0030855Y0045171D01*
X0030826Y0044979D01*
X0030792Y0044787D01*
X0030753Y0044595D01*
X0030709Y0044405D01*
X0030661Y0044216D01*
X0030608Y0044028D01*
X0030551Y0043842D01*
X0030489Y0043656D01*
X0030423Y0043473D01*
X0030353Y0043291D01*
X0030278Y0043111D01*
X0030198Y0042932D01*
X0030115Y0042756D01*
X0030027Y0042582D01*
X0029935Y0042410D01*
X0029839Y0042240D01*
X0029739Y0042073D01*
X0029634Y0041908D01*
X0029526Y0041745D01*
X0029414Y0041585D01*
X0029298Y0041428D01*
X0029179Y0041274D01*
X0029055Y0041123D01*
X0028983Y0041184D01*
X0029105Y0041333D01*
X0029224Y0041486D01*
X0029338Y0041641D01*
X0029449Y0041799D01*
X0029556Y0041959D01*
X0029659Y0042122D01*
X0029758Y0042288D01*
X0029853Y0042455D01*
X0029944Y0042625D01*
X0030030Y0042798D01*
X0030113Y0042972D01*
X0030191Y0043148D01*
X0030265Y0043326D01*
X0030335Y0043506D01*
X0030401Y0043687D01*
X0030461Y0043870D01*
X0030518Y0044055D01*
X0030570Y0044240D01*
X0030618Y0044427D01*
X0030661Y0044615D01*
X0030699Y0044804D01*
X0030733Y0044994D01*
X0030762Y0045185D01*
X0030787Y0045376D01*
X0030807Y0045568D01*
X0030823Y0045760D01*
X0030833Y0045952D01*
X0030839Y0046145D01*
X0030841Y0046338D01*
X0030838Y0046531D01*
X0030830Y0046723D01*
X0030817Y0046916D01*
X0030800Y0047108D01*
X0030778Y0047300D01*
X0030752Y0047491D01*
X0030721Y0047681D01*
X0030685Y0047870D01*
X0030645Y0048059D01*
X0030600Y0048247D01*
X0030551Y0048433D01*
X0030497Y0048618D01*
X0030439Y0048802D01*
X0030377Y0048984D01*
X0030288Y0048952D01*
X0030350Y0048772D01*
X0030408Y0048590D01*
X0030461Y0048407D01*
X0030509Y0048223D01*
X0030554Y0048038D01*
X0030593Y0047852D01*
X0030628Y0047664D01*
X0030659Y0047476D01*
X0030685Y0047287D01*
X0030707Y0047098D01*
X0030724Y0046908D01*
X0030736Y0046718D01*
X0030744Y0046528D01*
X0030747Y0046337D01*
X0030745Y0046147D01*
X0030739Y0045956D01*
X0030729Y0045766D01*
X0030714Y0045576D01*
X0030694Y0045387D01*
X0030669Y0045198D01*
X0030640Y0045009D01*
X0030607Y0044822D01*
X0030569Y0044635D01*
X0030526Y0044449D01*
X0030479Y0044265D01*
X0030428Y0044081D01*
X0030372Y0043899D01*
X0030312Y0043718D01*
X0030247Y0043539D01*
X0030178Y0043361D01*
X0030105Y0043186D01*
X0030028Y0043011D01*
X0029946Y0042839D01*
X0029860Y0042669D01*
X0029771Y0042501D01*
X0029677Y0042335D01*
X0029579Y0042172D01*
X0029477Y0042011D01*
X0029372Y0041852D01*
X0029262Y0041696D01*
X0029149Y0041543D01*
X0029032Y0041392D01*
X0028912Y0041245D01*
X0028840Y0041305D01*
X0028959Y0041451D01*
X0029074Y0041600D01*
X0029186Y0041751D01*
X0029294Y0041905D01*
X0029399Y0042062D01*
X0029499Y0042221D01*
X0029596Y0042383D01*
X0029688Y0042547D01*
X0029777Y0042713D01*
X0029862Y0042881D01*
X0029942Y0043051D01*
X0030019Y0043223D01*
X0030091Y0043397D01*
X0030159Y0043572D01*
X0030223Y0043749D01*
X0030283Y0043928D01*
X0030338Y0044108D01*
X0030389Y0044289D01*
X0030435Y0044472D01*
X0030477Y0044655D01*
X0030515Y0044840D01*
X0030548Y0045025D01*
X0030576Y0045211D01*
X0030600Y0045398D01*
X0030620Y0045585D01*
X0030635Y0045772D01*
X0030646Y0045960D01*
X0030651Y0046148D01*
X0030653Y0046337D01*
X0030650Y0046525D01*
X0030642Y0046713D01*
X0030630Y0046901D01*
X0030613Y0047088D01*
X0030592Y0047275D01*
X0030566Y0047462D01*
X0030536Y0047648D01*
X0030501Y0047833D01*
X0030462Y0048017D01*
X0030418Y0048200D01*
X0030370Y0048382D01*
X0030318Y0048563D01*
X0030261Y0048742D01*
X0030200Y0048920D01*
X0030112Y0048888D01*
X0030172Y0048712D01*
X0030228Y0048535D01*
X0030280Y0048356D01*
X0030327Y0048177D01*
X0030370Y0047996D01*
X0030409Y0047814D01*
X0030443Y0047631D01*
X0030473Y0047447D01*
X0030499Y0047263D01*
X0030520Y0047079D01*
X0030536Y0046893D01*
X0030548Y0046708D01*
X0030556Y0046522D01*
X0030559Y0046336D01*
X0030558Y0046150D01*
X0030552Y0045964D01*
X0030541Y0045779D01*
X0030526Y0045593D01*
X0030507Y0045408D01*
X0030483Y0045224D01*
X0030455Y0045040D01*
X0030422Y0044857D01*
X0030385Y0044675D01*
X0030344Y0044494D01*
X0030298Y0044314D01*
X0030248Y0044134D01*
X0030193Y0043957D01*
X0030134Y0043780D01*
X0030071Y0043605D01*
X0030004Y0043432D01*
X0029933Y0043260D01*
X0029857Y0043090D01*
X0029777Y0042922D01*
X0029694Y0042756D01*
X0029606Y0042592D01*
X0029515Y0042430D01*
X0029419Y0042271D01*
X0029320Y0042114D01*
X0029217Y0041959D01*
X0029110Y0041807D01*
X0029000Y0041657D01*
X0028886Y0041510D01*
X0028768Y0041366D01*
X0028696Y0041427D01*
X0028813Y0041569D01*
X0028925Y0041714D01*
X0029034Y0041862D01*
X0029140Y0042012D01*
X0029241Y0042165D01*
X0029339Y0042321D01*
X0029434Y0042478D01*
X0029524Y0042638D01*
X0029611Y0042800D01*
X0029693Y0042964D01*
X0029772Y0043130D01*
X0029846Y0043298D01*
X0029917Y0043467D01*
X0029983Y0043638D01*
X0030046Y0043811D01*
X0030104Y0043985D01*
X0030157Y0044161D01*
X0030207Y0044338D01*
X0030252Y0044516D01*
X0030293Y0044695D01*
X0030330Y0044875D01*
X0030362Y0045056D01*
X0030390Y0045237D01*
X0030414Y0045419D01*
X0030433Y0045602D01*
X0030447Y0045785D01*
X0030458Y0045968D01*
X0030464Y0046152D01*
X0030465Y0046335D01*
X0030462Y0046519D01*
X0030454Y0046703D01*
X0030443Y0046886D01*
X0030426Y0047069D01*
X0030406Y0047251D01*
X0030380Y0047433D01*
X0030351Y0047614D01*
X0030317Y0047795D01*
X0030279Y0047974D01*
X0030236Y0048153D01*
X0030189Y0048331D01*
X0030138Y0048507D01*
X0030083Y0048682D01*
X0030023Y0048856D01*
X0030784Y0049239D02*
X0029938Y0048932D01*
X0029872Y0049104D01*
X0029802Y0049275D01*
X0029727Y0049443D01*
X0029648Y0049610D01*
X0029565Y0049775D01*
X0029478Y0049938D01*
X0029388Y0050098D01*
X0029293Y0050257D01*
X0029194Y0050413D01*
X0029092Y0050566D01*
X0028986Y0050717D01*
X0028876Y0050866D01*
X0028763Y0051011D01*
X0028646Y0051154D01*
X0028526Y0051294D01*
X0028402Y0051431D01*
X0028275Y0051565D01*
X0028145Y0051695D01*
X0028012Y0051823D01*
X0027876Y0051947D01*
X0027736Y0052068D01*
X0027594Y0052185D01*
X0027449Y0052299D01*
X0027301Y0052410D01*
X0027150Y0052516D01*
X0026997Y0052619D01*
X0026842Y0052718D01*
X0026684Y0052814D01*
X0026523Y0052905D01*
X0026361Y0052993D01*
X0026196Y0053076D01*
X0026030Y0053156D01*
X0025862Y0053231D01*
X0025691Y0053302D01*
X0025520Y0053369D01*
X0025830Y0054213D01*
X0025831Y0054214D01*
X0026024Y0054139D01*
X0026214Y0054059D01*
X0026403Y0053975D01*
X0026590Y0053886D01*
X0026774Y0053792D01*
X0026957Y0053694D01*
X0027136Y0053592D01*
X0027313Y0053485D01*
X0027488Y0053374D01*
X0027659Y0053258D01*
X0027828Y0053139D01*
X0027994Y0053015D01*
X0028157Y0052888D01*
X0028316Y0052756D01*
X0028473Y0052621D01*
X0028626Y0052481D01*
X0028775Y0052338D01*
X0028921Y0052192D01*
X0029063Y0052042D01*
X0029202Y0051888D01*
X0029337Y0051731D01*
X0029468Y0051571D01*
X0029595Y0051408D01*
X0029718Y0051242D01*
X0029836Y0051072D01*
X0029951Y0050900D01*
X0030061Y0050725D01*
X0030167Y0050548D01*
X0030269Y0050368D01*
X0030366Y0050185D01*
X0030459Y0050000D01*
X0030547Y0049813D01*
X0030631Y0049624D01*
X0030710Y0049433D01*
X0030784Y0049240D01*
X0030696Y0049208D01*
X0030622Y0049399D01*
X0030544Y0049588D01*
X0030462Y0049775D01*
X0030374Y0049960D01*
X0030283Y0050142D01*
X0030187Y0050323D01*
X0030086Y0050501D01*
X0029981Y0050676D01*
X0029872Y0050849D01*
X0029759Y0051020D01*
X0029641Y0051187D01*
X0029520Y0051351D01*
X0029394Y0051513D01*
X0029265Y0051671D01*
X0029131Y0051826D01*
X0028994Y0051978D01*
X0028854Y0052126D01*
X0028709Y0052271D01*
X0028562Y0052413D01*
X0028410Y0052550D01*
X0028256Y0052684D01*
X0028098Y0052814D01*
X0027937Y0052940D01*
X0027773Y0053063D01*
X0027606Y0053181D01*
X0027437Y0053295D01*
X0027264Y0053405D01*
X0027089Y0053510D01*
X0026911Y0053612D01*
X0026731Y0053709D01*
X0026549Y0053801D01*
X0026364Y0053889D01*
X0026178Y0053973D01*
X0025989Y0054051D01*
X0025798Y0054126D01*
X0025766Y0054037D01*
X0025954Y0053964D01*
X0026141Y0053886D01*
X0026325Y0053804D01*
X0026508Y0053717D01*
X0026688Y0053625D01*
X0026866Y0053529D01*
X0027042Y0053429D01*
X0027215Y0053325D01*
X0027385Y0053216D01*
X0027553Y0053103D01*
X0027718Y0052987D01*
X0027880Y0052866D01*
X0028039Y0052741D01*
X0028195Y0052612D01*
X0028348Y0052480D01*
X0028497Y0052344D01*
X0028644Y0052204D01*
X0028786Y0052061D01*
X0028925Y0051914D01*
X0029061Y0051764D01*
X0029193Y0051611D01*
X0029320Y0051454D01*
X0029445Y0051295D01*
X0029565Y0051132D01*
X0029681Y0050967D01*
X0029793Y0050798D01*
X0029901Y0050627D01*
X0030005Y0050454D01*
X0030104Y0050278D01*
X0030199Y0050099D01*
X0030290Y0049919D01*
X0030376Y0049736D01*
X0030458Y0049551D01*
X0030535Y0049364D01*
X0030608Y0049176D01*
X0030519Y0049143D01*
X0030447Y0049330D01*
X0030371Y0049515D01*
X0030290Y0049697D01*
X0030205Y0049878D01*
X0030115Y0050057D01*
X0030021Y0050233D01*
X0029923Y0050407D01*
X0029821Y0050579D01*
X0029714Y0050747D01*
X0029603Y0050914D01*
X0029488Y0051077D01*
X0029370Y0051238D01*
X0029247Y0051396D01*
X0029120Y0051550D01*
X0028990Y0051702D01*
X0028856Y0051850D01*
X0028719Y0051995D01*
X0028578Y0052137D01*
X0028433Y0052275D01*
X0028286Y0052410D01*
X0028135Y0052540D01*
X0027980Y0052668D01*
X0027823Y0052791D01*
X0027663Y0052910D01*
X0027500Y0053026D01*
X0027334Y0053137D01*
X0027166Y0053245D01*
X0026994Y0053348D01*
X0026821Y0053447D01*
X0026645Y0053542D01*
X0026467Y0053632D01*
X0026286Y0053718D01*
X0026104Y0053800D01*
X0025920Y0053877D01*
X0025733Y0053949D01*
X0025701Y0053861D01*
X0025885Y0053789D01*
X0026067Y0053713D01*
X0026247Y0053633D01*
X0026426Y0053548D01*
X0026602Y0053458D01*
X0026776Y0053365D01*
X0026947Y0053267D01*
X0027116Y0053165D01*
X0027283Y0053059D01*
X0027447Y0052948D01*
X0027608Y0052834D01*
X0027766Y0052716D01*
X0027922Y0052594D01*
X0028074Y0052469D01*
X0028223Y0052339D01*
X0028369Y0052206D01*
X0028512Y0052070D01*
X0028651Y0051930D01*
X0028787Y0051787D01*
X0028920Y0051640D01*
X0029048Y0051490D01*
X0029173Y0051337D01*
X0029295Y0051181D01*
X0029412Y0051023D01*
X0029525Y0050861D01*
X0029635Y0050697D01*
X0029740Y0050530D01*
X0029842Y0050360D01*
X0029939Y0050188D01*
X0030032Y0050014D01*
X0030120Y0049837D01*
X0030205Y0049659D01*
X0030284Y0049478D01*
X0030360Y0049296D01*
X0030431Y0049111D01*
X0030343Y0049079D01*
X0030272Y0049261D01*
X0030198Y0049442D01*
X0030119Y0049620D01*
X0030036Y0049797D01*
X0029948Y0049971D01*
X0029856Y0050143D01*
X0029760Y0050313D01*
X0029660Y0050481D01*
X0029556Y0050646D01*
X0029448Y0050808D01*
X0029336Y0050968D01*
X0029220Y0051125D01*
X0029100Y0051279D01*
X0028976Y0051430D01*
X0028849Y0051578D01*
X0028718Y0051723D01*
X0028584Y0051864D01*
X0028446Y0052003D01*
X0028305Y0052138D01*
X0028161Y0052269D01*
X0028013Y0052397D01*
X0027863Y0052521D01*
X0027709Y0052641D01*
X0027553Y0052758D01*
X0027394Y0052871D01*
X0027232Y0052980D01*
X0027067Y0053085D01*
X0026900Y0053185D01*
X0026730Y0053282D01*
X0026559Y0053375D01*
X0026384Y0053463D01*
X0026208Y0053547D01*
X0026030Y0053627D01*
X0025850Y0053702D01*
X0025668Y0053773D01*
X0025636Y0053685D01*
X0025815Y0053615D01*
X0025993Y0053540D01*
X0026169Y0053461D01*
X0026343Y0053378D01*
X0026515Y0053291D01*
X0026685Y0053200D01*
X0026853Y0053104D01*
X0027018Y0053005D01*
X0027180Y0052901D01*
X0027340Y0052793D01*
X0027498Y0052682D01*
X0027652Y0052567D01*
X0027804Y0052448D01*
X0027953Y0052325D01*
X0028098Y0052199D01*
X0028241Y0052069D01*
X0028380Y0051936D01*
X0028516Y0051799D01*
X0028649Y0051659D01*
X0028778Y0051516D01*
X0028904Y0051370D01*
X0029026Y0051220D01*
X0029145Y0051068D01*
X0029259Y0050913D01*
X0029370Y0050755D01*
X0029477Y0050595D01*
X0029580Y0050432D01*
X0029679Y0050266D01*
X0029774Y0050098D01*
X0029864Y0049928D01*
X0029951Y0049756D01*
X0030033Y0049581D01*
X0030111Y0049405D01*
X0030185Y0049227D01*
X0030254Y0049047D01*
X0030166Y0049015D01*
X0030097Y0049193D01*
X0030025Y0049369D01*
X0029948Y0049543D01*
X0029866Y0049715D01*
X0029781Y0049885D01*
X0029691Y0050053D01*
X0029597Y0050219D01*
X0029500Y0050383D01*
X0029398Y0050544D01*
X0029292Y0050702D01*
X0029183Y0050858D01*
X0029070Y0051011D01*
X0028953Y0051162D01*
X0028832Y0051309D01*
X0028708Y0051454D01*
X0028580Y0051595D01*
X0028449Y0051733D01*
X0028315Y0051868D01*
X0028177Y0052000D01*
X0028036Y0052128D01*
X0027892Y0052253D01*
X0027745Y0052374D01*
X0027595Y0052492D01*
X0027443Y0052606D01*
X0027287Y0052716D01*
X0027129Y0052822D01*
X0026968Y0052925D01*
X0026805Y0053023D01*
X0026640Y0053117D01*
X0026472Y0053208D01*
X0026302Y0053294D01*
X0026130Y0053376D01*
X0025956Y0053454D01*
X0025781Y0053527D01*
X0025603Y0053597D01*
X0025571Y0053508D01*
X0025746Y0053440D01*
X0025920Y0053367D01*
X0026091Y0053290D01*
X0026261Y0053209D01*
X0026429Y0053124D01*
X0026595Y0053035D01*
X0026758Y0052942D01*
X0026919Y0052844D01*
X0027078Y0052743D01*
X0027234Y0052638D01*
X0027388Y0052530D01*
X0027538Y0052417D01*
X0027686Y0052301D01*
X0027832Y0052181D01*
X0027974Y0052058D01*
X0028113Y0051931D01*
X0028249Y0051801D01*
X0028382Y0051668D01*
X0028511Y0051531D01*
X0028637Y0051392D01*
X0028760Y0051249D01*
X0028879Y0051103D01*
X0028995Y0050955D01*
X0029106Y0050803D01*
X0029215Y0050650D01*
X0029319Y0050493D01*
X0029419Y0050334D01*
X0029516Y0050172D01*
X0029608Y0050009D01*
X0029697Y0049842D01*
X0029781Y0049674D01*
X0029862Y0049504D01*
X0029938Y0049332D01*
X0030010Y0049158D01*
X0030078Y0048983D01*
X0029989Y0048951D01*
X0029922Y0049124D01*
X0029851Y0049296D01*
X0029776Y0049466D01*
X0029697Y0049634D01*
X0029613Y0049800D01*
X0029526Y0049964D01*
X0029434Y0050125D01*
X0029339Y0050285D01*
X0029240Y0050442D01*
X0029137Y0050597D01*
X0029030Y0050749D01*
X0028919Y0050898D01*
X0028805Y0051045D01*
X0028688Y0051189D01*
X0028567Y0051330D01*
X0028442Y0051468D01*
X0028314Y0051602D01*
X0028183Y0051734D01*
X0028049Y0051862D01*
X0027911Y0051988D01*
X0027771Y0052109D01*
X0027628Y0052228D01*
X0027481Y0052342D01*
X0027332Y0052453D01*
X0027181Y0052561D01*
X0027027Y0052665D01*
X0026870Y0052764D01*
X0026711Y0052860D01*
X0026549Y0052953D01*
X0026386Y0053041D01*
X0026220Y0053125D01*
X0026052Y0053205D01*
X0025883Y0053281D01*
X0025711Y0053353D01*
X0025538Y0053420D01*
X0015533Y0050509D02*
X0016311Y0050056D01*
X0016310Y0050057D02*
X0016222Y0049899D01*
X0016138Y0049738D01*
X0016058Y0049576D01*
X0015981Y0049412D01*
X0015908Y0049247D01*
X0015840Y0049079D01*
X0015775Y0048910D01*
X0015715Y0048740D01*
X0015659Y0048568D01*
X0015606Y0048394D01*
X0015558Y0048220D01*
X0015515Y0048044D01*
X0015475Y0047868D01*
X0015440Y0047690D01*
X0015408Y0047512D01*
X0015382Y0047333D01*
X0015359Y0047154D01*
X0015341Y0046974D01*
X0015327Y0046793D01*
X0015317Y0046613D01*
X0015312Y0046432D01*
X0015311Y0046251D01*
X0015315Y0046070D01*
X0015322Y0045889D01*
X0015334Y0045709D01*
X0015351Y0045528D01*
X0015372Y0045349D01*
X0015397Y0045169D01*
X0015426Y0044991D01*
X0015459Y0044813D01*
X0015497Y0044636D01*
X0015539Y0044460D01*
X0015586Y0044285D01*
X0015636Y0044111D01*
X0015691Y0043939D01*
X0015749Y0043768D01*
X0014904Y0043460D01*
X0014838Y0043652D01*
X0014776Y0043845D01*
X0014720Y0044040D01*
X0014668Y0044236D01*
X0014620Y0044433D01*
X0014578Y0044632D01*
X0014540Y0044831D01*
X0014507Y0045031D01*
X0014479Y0045232D01*
X0014456Y0045433D01*
X0014437Y0045635D01*
X0014424Y0045838D01*
X0014415Y0046040D01*
X0014411Y0046243D01*
X0014412Y0046446D01*
X0014418Y0046649D01*
X0014429Y0046851D01*
X0014444Y0047054D01*
X0014465Y0047255D01*
X0014490Y0047457D01*
X0014520Y0047657D01*
X0014555Y0047857D01*
X0014595Y0048056D01*
X0014639Y0048254D01*
X0014688Y0048451D01*
X0014742Y0048646D01*
X0014801Y0048840D01*
X0014864Y0049033D01*
X0014932Y0049224D01*
X0015004Y0049414D01*
X0015081Y0049602D01*
X0015163Y0049787D01*
X0015249Y0049971D01*
X0015339Y0050153D01*
X0015433Y0050332D01*
X0015532Y0050509D01*
X0015614Y0050462D01*
X0015516Y0050287D01*
X0015422Y0050109D01*
X0015333Y0049930D01*
X0015248Y0049748D01*
X0015168Y0049564D01*
X0015092Y0049379D01*
X0015020Y0049192D01*
X0014953Y0049003D01*
X0014891Y0048812D01*
X0014833Y0048620D01*
X0014779Y0048427D01*
X0014731Y0048232D01*
X0014687Y0048036D01*
X0014648Y0047840D01*
X0014613Y0047642D01*
X0014583Y0047444D01*
X0014558Y0047245D01*
X0014538Y0047045D01*
X0014523Y0046845D01*
X0014512Y0046645D01*
X0014506Y0046445D01*
X0014505Y0046244D01*
X0014509Y0046043D01*
X0014518Y0045843D01*
X0014531Y0045643D01*
X0014549Y0045443D01*
X0014572Y0045244D01*
X0014600Y0045045D01*
X0014633Y0044848D01*
X0014670Y0044650D01*
X0014712Y0044454D01*
X0014759Y0044259D01*
X0014810Y0044065D01*
X0014866Y0043873D01*
X0014927Y0043682D01*
X0014992Y0043492D01*
X0015080Y0043524D01*
X0015016Y0043712D01*
X0014956Y0043901D01*
X0014901Y0044091D01*
X0014850Y0044283D01*
X0014804Y0044476D01*
X0014762Y0044669D01*
X0014725Y0044864D01*
X0014693Y0045060D01*
X0014666Y0045256D01*
X0014643Y0045453D01*
X0014625Y0045651D01*
X0014612Y0045848D01*
X0014603Y0046047D01*
X0014599Y0046245D01*
X0014600Y0046443D01*
X0014606Y0046641D01*
X0014616Y0046839D01*
X0014632Y0047037D01*
X0014652Y0047234D01*
X0014676Y0047431D01*
X0014706Y0047627D01*
X0014740Y0047822D01*
X0014779Y0048017D01*
X0014822Y0048210D01*
X0014870Y0048402D01*
X0014923Y0048594D01*
X0014980Y0048783D01*
X0015042Y0048972D01*
X0015108Y0049159D01*
X0015179Y0049344D01*
X0015254Y0049527D01*
X0015334Y0049709D01*
X0015418Y0049889D01*
X0015506Y0050066D01*
X0015598Y0050242D01*
X0015695Y0050415D01*
X0015776Y0050367D01*
X0015681Y0050196D01*
X0015589Y0050023D01*
X0015502Y0049847D01*
X0015419Y0049670D01*
X0015341Y0049490D01*
X0015266Y0049309D01*
X0015196Y0049126D01*
X0015131Y0048941D01*
X0015070Y0048755D01*
X0015013Y0048567D01*
X0014961Y0048378D01*
X0014914Y0048188D01*
X0014871Y0047997D01*
X0014832Y0047805D01*
X0014799Y0047612D01*
X0014769Y0047418D01*
X0014745Y0047224D01*
X0014725Y0047029D01*
X0014710Y0046833D01*
X0014700Y0046637D01*
X0014694Y0046442D01*
X0014693Y0046246D01*
X0014697Y0046050D01*
X0014705Y0045854D01*
X0014718Y0045658D01*
X0014736Y0045463D01*
X0014759Y0045268D01*
X0014786Y0045074D01*
X0014818Y0044881D01*
X0014854Y0044688D01*
X0014895Y0044497D01*
X0014941Y0044306D01*
X0014991Y0044117D01*
X0015046Y0043929D01*
X0015105Y0043742D01*
X0015169Y0043556D01*
X0015257Y0043589D01*
X0015194Y0043772D01*
X0015136Y0043956D01*
X0015081Y0044142D01*
X0015032Y0044330D01*
X0014987Y0044518D01*
X0014946Y0044707D01*
X0014910Y0044898D01*
X0014879Y0045089D01*
X0014852Y0045281D01*
X0014830Y0045473D01*
X0014812Y0045666D01*
X0014799Y0045859D01*
X0014791Y0046053D01*
X0014787Y0046246D01*
X0014788Y0046440D01*
X0014794Y0046634D01*
X0014804Y0046827D01*
X0014819Y0047020D01*
X0014838Y0047213D01*
X0014863Y0047405D01*
X0014891Y0047597D01*
X0014925Y0047787D01*
X0014963Y0047977D01*
X0015005Y0048166D01*
X0015052Y0048354D01*
X0015103Y0048541D01*
X0015159Y0048726D01*
X0015220Y0048911D01*
X0015284Y0049093D01*
X0015354Y0049274D01*
X0015427Y0049453D01*
X0015505Y0049631D01*
X0015587Y0049806D01*
X0015673Y0049980D01*
X0015763Y0050151D01*
X0015857Y0050320D01*
X0015939Y0050273D01*
X0015845Y0050106D01*
X0015756Y0049936D01*
X0015671Y0049765D01*
X0015590Y0049592D01*
X0015513Y0049416D01*
X0015441Y0049239D01*
X0015372Y0049060D01*
X0015309Y0048880D01*
X0015249Y0048698D01*
X0015194Y0048515D01*
X0015143Y0048330D01*
X0015096Y0048144D01*
X0015054Y0047958D01*
X0015017Y0047770D01*
X0014984Y0047581D01*
X0014956Y0047392D01*
X0014932Y0047202D01*
X0014913Y0047012D01*
X0014898Y0046821D01*
X0014888Y0046630D01*
X0014882Y0046439D01*
X0014881Y0046247D01*
X0014885Y0046056D01*
X0014893Y0045865D01*
X0014906Y0045674D01*
X0014923Y0045483D01*
X0014945Y0045293D01*
X0014972Y0045103D01*
X0015003Y0044914D01*
X0015038Y0044726D01*
X0015078Y0044539D01*
X0015123Y0044353D01*
X0015172Y0044168D01*
X0015225Y0043984D01*
X0015283Y0043802D01*
X0015345Y0043621D01*
X0015434Y0043653D01*
X0015372Y0043832D01*
X0015315Y0044012D01*
X0015262Y0044194D01*
X0015214Y0044376D01*
X0015170Y0044560D01*
X0015130Y0044745D01*
X0015095Y0044931D01*
X0015065Y0045118D01*
X0015038Y0045305D01*
X0015017Y0045493D01*
X0015000Y0045681D01*
X0014987Y0045870D01*
X0014979Y0046059D01*
X0014975Y0046248D01*
X0014976Y0046437D01*
X0014982Y0046626D01*
X0014992Y0046815D01*
X0015006Y0047003D01*
X0015025Y0047192D01*
X0015049Y0047379D01*
X0015077Y0047566D01*
X0015109Y0047753D01*
X0015146Y0047938D01*
X0015188Y0048123D01*
X0015234Y0048306D01*
X0015284Y0048488D01*
X0015338Y0048669D01*
X0015397Y0048849D01*
X0015461Y0049027D01*
X0015528Y0049204D01*
X0015600Y0049379D01*
X0015676Y0049552D01*
X0015756Y0049724D01*
X0015840Y0049893D01*
X0015928Y0050060D01*
X0016020Y0050226D01*
X0016101Y0050178D01*
X0016010Y0050015D01*
X0015923Y0049850D01*
X0015840Y0049683D01*
X0015761Y0049513D01*
X0015686Y0049342D01*
X0015615Y0049169D01*
X0015549Y0048995D01*
X0015486Y0048819D01*
X0015428Y0048641D01*
X0015374Y0048462D01*
X0015324Y0048282D01*
X0015279Y0048101D01*
X0015238Y0047918D01*
X0015202Y0047735D01*
X0015170Y0047551D01*
X0015142Y0047366D01*
X0015119Y0047181D01*
X0015100Y0046995D01*
X0015085Y0046809D01*
X0015076Y0046622D01*
X0015070Y0046436D01*
X0015069Y0046249D01*
X0015073Y0046062D01*
X0015081Y0045875D01*
X0015093Y0045689D01*
X0015110Y0045503D01*
X0015132Y0045317D01*
X0015157Y0045132D01*
X0015188Y0044948D01*
X0015222Y0044764D01*
X0015262Y0044582D01*
X0015305Y0044400D01*
X0015353Y0044219D01*
X0015405Y0044040D01*
X0015461Y0043862D01*
X0015522Y0043685D01*
X0015610Y0043717D01*
X0015550Y0043892D01*
X0015495Y0044068D01*
X0015443Y0044245D01*
X0015396Y0044423D01*
X0015353Y0044603D01*
X0015315Y0044783D01*
X0015280Y0044965D01*
X0015250Y0045147D01*
X0015225Y0045329D01*
X0015204Y0045513D01*
X0015187Y0045696D01*
X0015175Y0045881D01*
X0015167Y0046065D01*
X0015163Y0046250D01*
X0015164Y0046434D01*
X0015169Y0046619D01*
X0015179Y0046803D01*
X0015193Y0046987D01*
X0015212Y0047170D01*
X0015235Y0047354D01*
X0015262Y0047536D01*
X0015294Y0047718D01*
X0015330Y0047899D01*
X0015371Y0048079D01*
X0015415Y0048258D01*
X0015464Y0048436D01*
X0015518Y0048613D01*
X0015575Y0048788D01*
X0015637Y0048962D01*
X0015703Y0049134D01*
X0015772Y0049305D01*
X0015846Y0049474D01*
X0015925Y0049641D01*
X0016007Y0049807D01*
X0016092Y0049970D01*
X0016182Y0050131D01*
X0016264Y0050084D01*
X0016175Y0049925D01*
X0016090Y0049763D01*
X0016009Y0049600D01*
X0015932Y0049435D01*
X0015859Y0049268D01*
X0015790Y0049099D01*
X0015725Y0048929D01*
X0015664Y0048757D01*
X0015607Y0048584D01*
X0015555Y0048410D01*
X0015506Y0048234D01*
X0015462Y0048057D01*
X0015422Y0047879D01*
X0015387Y0047700D01*
X0015355Y0047521D01*
X0015328Y0047341D01*
X0015305Y0047160D01*
X0015287Y0046978D01*
X0015273Y0046797D01*
X0015263Y0046615D01*
X0015258Y0046433D01*
X0015257Y0046250D01*
X0015261Y0046068D01*
X0015268Y0045886D01*
X0015281Y0045704D01*
X0015297Y0045523D01*
X0015318Y0045342D01*
X0015343Y0045161D01*
X0015373Y0044981D01*
X0015407Y0044802D01*
X0015445Y0044624D01*
X0015487Y0044447D01*
X0015534Y0044270D01*
X0015585Y0044095D01*
X0015639Y0043922D01*
X0015699Y0043749D01*
D16*
X0015948Y0050384D02*
X0017828Y0051068D01*
X0023842Y0053257D02*
X0025533Y0053873D01*
X0155143Y0122317D02*
X0155143Y0124317D01*
X0155143Y0130717D02*
X0155143Y0132517D01*
D17*
X0139662Y0097163D02*
X0138761Y0097163D01*
X0138311Y0096712D01*
X0138311Y0096262D01*
X0138761Y0095811D01*
X0140112Y0095811D01*
X0140112Y0094911D02*
X0140112Y0096712D01*
X0139662Y0097163D01*
X0140112Y0094911D02*
X0139662Y0094460D01*
X0138761Y0094460D01*
X0138311Y0094911D01*
X0137166Y0094460D02*
X0136265Y0095361D01*
X0136716Y0095361D02*
X0135364Y0095361D01*
X0135364Y0094460D02*
X0135364Y0097163D01*
X0136716Y0097163D01*
X0137166Y0096712D01*
X0137166Y0095811D01*
X0136716Y0095361D01*
X0125983Y0094405D02*
X0125983Y0097108D01*
X0125082Y0096207D01*
X0124181Y0097108D01*
X0124181Y0094405D01*
X0123036Y0094405D02*
X0121234Y0094405D01*
X0122135Y0094405D02*
X0122135Y0097108D01*
X0121234Y0096207D01*
X0127681Y0063854D02*
X0127681Y0027634D01*
X0157996Y0027634D01*
X0157996Y0063854D01*
X0127681Y0063854D01*
X0319487Y0080683D02*
X0335983Y0080683D01*
X0333262Y0086683D02*
X0332207Y0086683D01*
X0323262Y0086683D02*
X0322207Y0086683D01*
D18*
X0318041Y0082594D02*
X0318448Y0082785D01*
X0318447Y0082785D02*
X0318548Y0082579D01*
X0318652Y0082376D01*
X0318762Y0082175D01*
X0318876Y0081976D01*
X0318994Y0081780D01*
X0319116Y0081587D01*
X0319243Y0081397D01*
X0319374Y0081209D01*
X0319509Y0081024D01*
X0319648Y0080843D01*
X0319295Y0080565D01*
X0319295Y0080564D01*
X0319149Y0080754D01*
X0319008Y0080947D01*
X0318871Y0081143D01*
X0318739Y0081342D01*
X0318611Y0081544D01*
X0318488Y0081748D01*
X0318369Y0081956D01*
X0318254Y0082166D01*
X0318145Y0082378D01*
X0318040Y0082593D01*
X0318083Y0082613D01*
X0318187Y0082399D01*
X0318296Y0082188D01*
X0318410Y0081979D01*
X0318528Y0081772D01*
X0318651Y0081568D01*
X0318778Y0081367D01*
X0318910Y0081169D01*
X0319046Y0080974D01*
X0319187Y0080782D01*
X0319332Y0080593D01*
X0319369Y0080622D01*
X0319225Y0080810D01*
X0319085Y0081001D01*
X0318949Y0081196D01*
X0318818Y0081393D01*
X0318691Y0081593D01*
X0318569Y0081796D01*
X0318451Y0082001D01*
X0318338Y0082210D01*
X0318229Y0082420D01*
X0318125Y0082633D01*
X0318168Y0082653D01*
X0318271Y0082441D01*
X0318379Y0082232D01*
X0318492Y0082024D01*
X0318609Y0081820D01*
X0318731Y0081618D01*
X0318857Y0081419D01*
X0318988Y0081222D01*
X0319123Y0081029D01*
X0319262Y0080839D01*
X0319406Y0080651D01*
X0319443Y0080680D01*
X0319300Y0080867D01*
X0319161Y0081056D01*
X0319027Y0081249D01*
X0318897Y0081444D01*
X0318771Y0081642D01*
X0318650Y0081844D01*
X0318533Y0082047D01*
X0318421Y0082253D01*
X0318313Y0082462D01*
X0318210Y0082673D01*
X0318253Y0082693D01*
X0318355Y0082483D01*
X0318462Y0082275D01*
X0318574Y0082070D01*
X0318690Y0081867D01*
X0318811Y0081667D01*
X0318936Y0081470D01*
X0319065Y0081275D01*
X0319199Y0081084D01*
X0319337Y0080895D01*
X0319479Y0080710D01*
X0319516Y0080739D01*
X0319375Y0080923D01*
X0319237Y0081111D01*
X0319104Y0081302D01*
X0318975Y0081495D01*
X0318851Y0081692D01*
X0318731Y0081891D01*
X0318615Y0082093D01*
X0318504Y0082297D01*
X0318397Y0082504D01*
X0318295Y0082713D01*
X0318338Y0082733D01*
X0318439Y0082525D01*
X0318545Y0082319D01*
X0318656Y0082116D01*
X0318771Y0081915D01*
X0318891Y0081717D01*
X0319015Y0081521D01*
X0319143Y0081328D01*
X0319276Y0081138D01*
X0319412Y0080951D01*
X0319553Y0080768D01*
X0319590Y0080797D01*
X0319450Y0080980D01*
X0319314Y0081166D01*
X0319182Y0081355D01*
X0319054Y0081547D01*
X0318931Y0081741D01*
X0318812Y0081939D01*
X0318697Y0082139D01*
X0318587Y0082341D01*
X0318481Y0082546D01*
X0318380Y0082753D01*
X0318423Y0082773D01*
X0318523Y0082567D01*
X0318629Y0082363D01*
X0318738Y0082162D01*
X0318852Y0081963D01*
X0318971Y0081766D01*
X0319094Y0081572D01*
X0319221Y0081381D01*
X0319352Y0081193D01*
X0319488Y0081008D01*
X0319627Y0080826D01*
X0337427Y0091773D02*
X0337020Y0091581D01*
X0337021Y0091582D02*
X0336910Y0091808D01*
X0336794Y0092032D01*
X0336672Y0092253D01*
X0336545Y0092470D01*
X0336413Y0092685D01*
X0336275Y0092896D01*
X0336133Y0093104D01*
X0335985Y0093308D01*
X0335832Y0093509D01*
X0335675Y0093705D01*
X0335512Y0093898D01*
X0335345Y0094087D01*
X0335174Y0094271D01*
X0334997Y0094452D01*
X0334817Y0094628D01*
X0334632Y0094799D01*
X0334443Y0094966D01*
X0334250Y0095128D01*
X0334054Y0095286D01*
X0333853Y0095438D01*
X0333649Y0095586D01*
X0333441Y0095728D01*
X0333229Y0095866D01*
X0333015Y0095998D01*
X0332797Y0096125D01*
X0332576Y0096246D01*
X0332352Y0096362D01*
X0332126Y0096473D01*
X0331897Y0096577D01*
X0331665Y0096677D01*
X0331431Y0096770D01*
X0331195Y0096858D01*
X0330956Y0096940D01*
X0330716Y0097016D01*
X0330474Y0097086D01*
X0330230Y0097150D01*
X0329985Y0097209D01*
X0329738Y0097261D01*
X0329491Y0097307D01*
X0329242Y0097347D01*
X0328992Y0097381D01*
X0328742Y0097409D01*
X0328490Y0097430D01*
X0328239Y0097446D01*
X0327987Y0097455D01*
X0327735Y0097458D01*
X0327483Y0097455D01*
X0327231Y0097446D01*
X0326980Y0097430D01*
X0326728Y0097409D01*
X0326478Y0097381D01*
X0326228Y0097347D01*
X0325979Y0097307D01*
X0325732Y0097261D01*
X0325485Y0097209D01*
X0325240Y0097150D01*
X0324996Y0097086D01*
X0324754Y0097016D01*
X0324514Y0096940D01*
X0324275Y0096858D01*
X0324039Y0096770D01*
X0323805Y0096677D01*
X0323573Y0096577D01*
X0323344Y0096473D01*
X0323118Y0096362D01*
X0322894Y0096246D01*
X0322673Y0096125D01*
X0322455Y0095998D01*
X0322241Y0095866D01*
X0322029Y0095728D01*
X0321821Y0095586D01*
X0321617Y0095438D01*
X0321416Y0095286D01*
X0321220Y0095128D01*
X0321027Y0094966D01*
X0320838Y0094799D01*
X0320653Y0094628D01*
X0320473Y0094452D01*
X0320296Y0094271D01*
X0320125Y0094087D01*
X0319958Y0093898D01*
X0319795Y0093705D01*
X0319638Y0093509D01*
X0319485Y0093308D01*
X0319337Y0093104D01*
X0319195Y0092896D01*
X0319057Y0092685D01*
X0318925Y0092470D01*
X0318798Y0092253D01*
X0318676Y0092032D01*
X0318560Y0091808D01*
X0318449Y0091582D01*
X0318043Y0091773D01*
X0318042Y0091773D01*
X0318158Y0092010D01*
X0318279Y0092243D01*
X0318406Y0092474D01*
X0318538Y0092701D01*
X0318677Y0092925D01*
X0318820Y0093145D01*
X0318969Y0093362D01*
X0319123Y0093576D01*
X0319283Y0093785D01*
X0319447Y0093990D01*
X0319617Y0094191D01*
X0319791Y0094388D01*
X0319970Y0094581D01*
X0320154Y0094769D01*
X0320342Y0094953D01*
X0320535Y0095132D01*
X0320732Y0095306D01*
X0320934Y0095476D01*
X0321139Y0095640D01*
X0321349Y0095799D01*
X0321562Y0095953D01*
X0321779Y0096102D01*
X0321999Y0096246D01*
X0322224Y0096383D01*
X0322451Y0096516D01*
X0322681Y0096643D01*
X0322915Y0096764D01*
X0323151Y0096879D01*
X0323391Y0096989D01*
X0323632Y0097092D01*
X0323877Y0097190D01*
X0324123Y0097282D01*
X0324372Y0097367D01*
X0324623Y0097447D01*
X0324876Y0097520D01*
X0325130Y0097587D01*
X0325386Y0097648D01*
X0325644Y0097702D01*
X0325902Y0097750D01*
X0326162Y0097792D01*
X0326423Y0097827D01*
X0326684Y0097856D01*
X0326946Y0097879D01*
X0327209Y0097895D01*
X0327472Y0097905D01*
X0327735Y0097908D01*
X0327998Y0097905D01*
X0328261Y0097895D01*
X0328524Y0097879D01*
X0328786Y0097856D01*
X0329047Y0097827D01*
X0329308Y0097792D01*
X0329568Y0097750D01*
X0329826Y0097702D01*
X0330084Y0097648D01*
X0330340Y0097587D01*
X0330594Y0097520D01*
X0330847Y0097447D01*
X0331098Y0097367D01*
X0331347Y0097282D01*
X0331593Y0097190D01*
X0331838Y0097092D01*
X0332079Y0096989D01*
X0332319Y0096879D01*
X0332555Y0096764D01*
X0332789Y0096643D01*
X0333019Y0096516D01*
X0333246Y0096383D01*
X0333471Y0096246D01*
X0333691Y0096102D01*
X0333908Y0095953D01*
X0334121Y0095799D01*
X0334331Y0095640D01*
X0334536Y0095476D01*
X0334738Y0095306D01*
X0334935Y0095132D01*
X0335128Y0094953D01*
X0335316Y0094769D01*
X0335500Y0094581D01*
X0335679Y0094388D01*
X0335853Y0094191D01*
X0336023Y0093990D01*
X0336187Y0093785D01*
X0336347Y0093576D01*
X0336501Y0093362D01*
X0336650Y0093145D01*
X0336793Y0092925D01*
X0336932Y0092701D01*
X0337064Y0092474D01*
X0337191Y0092243D01*
X0337312Y0092010D01*
X0337428Y0091773D01*
X0337385Y0091753D01*
X0337270Y0091989D01*
X0337150Y0092221D01*
X0337023Y0092451D01*
X0336891Y0092677D01*
X0336754Y0092900D01*
X0336611Y0093119D01*
X0336462Y0093335D01*
X0336309Y0093548D01*
X0336150Y0093756D01*
X0335986Y0093960D01*
X0335818Y0094161D01*
X0335644Y0094357D01*
X0335466Y0094549D01*
X0335283Y0094736D01*
X0335095Y0094919D01*
X0334903Y0095097D01*
X0334707Y0095271D01*
X0334506Y0095439D01*
X0334302Y0095603D01*
X0334093Y0095762D01*
X0333881Y0095915D01*
X0333665Y0096063D01*
X0333445Y0096206D01*
X0333222Y0096343D01*
X0332996Y0096475D01*
X0332766Y0096601D01*
X0332534Y0096722D01*
X0332298Y0096837D01*
X0332060Y0096946D01*
X0331819Y0097049D01*
X0331576Y0097146D01*
X0331331Y0097237D01*
X0331083Y0097323D01*
X0330833Y0097402D01*
X0330582Y0097475D01*
X0330328Y0097541D01*
X0330073Y0097602D01*
X0329817Y0097656D01*
X0329560Y0097704D01*
X0329301Y0097746D01*
X0329041Y0097781D01*
X0328781Y0097810D01*
X0328520Y0097832D01*
X0328259Y0097848D01*
X0327997Y0097858D01*
X0327735Y0097861D01*
X0327473Y0097858D01*
X0327211Y0097848D01*
X0326950Y0097832D01*
X0326689Y0097810D01*
X0326429Y0097781D01*
X0326169Y0097746D01*
X0325910Y0097704D01*
X0325653Y0097656D01*
X0325397Y0097602D01*
X0325142Y0097541D01*
X0324888Y0097475D01*
X0324637Y0097402D01*
X0324387Y0097323D01*
X0324139Y0097237D01*
X0323894Y0097146D01*
X0323651Y0097049D01*
X0323410Y0096946D01*
X0323172Y0096837D01*
X0322936Y0096722D01*
X0322704Y0096601D01*
X0322474Y0096475D01*
X0322248Y0096343D01*
X0322025Y0096206D01*
X0321805Y0096063D01*
X0321589Y0095915D01*
X0321377Y0095762D01*
X0321168Y0095603D01*
X0320964Y0095439D01*
X0320763Y0095271D01*
X0320567Y0095097D01*
X0320375Y0094919D01*
X0320187Y0094736D01*
X0320004Y0094549D01*
X0319826Y0094357D01*
X0319652Y0094161D01*
X0319484Y0093960D01*
X0319320Y0093756D01*
X0319161Y0093548D01*
X0319008Y0093335D01*
X0318859Y0093119D01*
X0318716Y0092900D01*
X0318579Y0092677D01*
X0318447Y0092451D01*
X0318320Y0092221D01*
X0318200Y0091989D01*
X0318085Y0091753D01*
X0318127Y0091733D01*
X0318242Y0091968D01*
X0318362Y0092199D01*
X0318488Y0092428D01*
X0318619Y0092653D01*
X0318756Y0092875D01*
X0318898Y0093093D01*
X0319046Y0093308D01*
X0319199Y0093520D01*
X0319357Y0093727D01*
X0319520Y0093931D01*
X0319688Y0094130D01*
X0319861Y0094325D01*
X0320038Y0094516D01*
X0320221Y0094703D01*
X0320407Y0094885D01*
X0320598Y0095063D01*
X0320794Y0095235D01*
X0320993Y0095403D01*
X0321197Y0095566D01*
X0321405Y0095724D01*
X0321616Y0095877D01*
X0321831Y0096024D01*
X0322050Y0096166D01*
X0322272Y0096303D01*
X0322497Y0096434D01*
X0322726Y0096560D01*
X0322957Y0096680D01*
X0323192Y0096794D01*
X0323429Y0096903D01*
X0323669Y0097006D01*
X0323911Y0097102D01*
X0324155Y0097193D01*
X0324402Y0097278D01*
X0324650Y0097357D01*
X0324901Y0097429D01*
X0325153Y0097496D01*
X0325407Y0097556D01*
X0325662Y0097610D01*
X0325918Y0097658D01*
X0326176Y0097699D01*
X0326434Y0097734D01*
X0326693Y0097763D01*
X0326953Y0097785D01*
X0327214Y0097801D01*
X0327474Y0097811D01*
X0327735Y0097814D01*
X0327996Y0097811D01*
X0328256Y0097801D01*
X0328517Y0097785D01*
X0328777Y0097763D01*
X0329036Y0097734D01*
X0329294Y0097699D01*
X0329552Y0097658D01*
X0329808Y0097610D01*
X0330063Y0097556D01*
X0330317Y0097496D01*
X0330569Y0097429D01*
X0330820Y0097357D01*
X0331068Y0097278D01*
X0331315Y0097193D01*
X0331559Y0097102D01*
X0331801Y0097006D01*
X0332041Y0096903D01*
X0332278Y0096794D01*
X0332513Y0096680D01*
X0332744Y0096560D01*
X0332973Y0096434D01*
X0333198Y0096303D01*
X0333420Y0096166D01*
X0333639Y0096024D01*
X0333854Y0095877D01*
X0334065Y0095724D01*
X0334273Y0095566D01*
X0334477Y0095403D01*
X0334676Y0095235D01*
X0334872Y0095063D01*
X0335063Y0094885D01*
X0335249Y0094703D01*
X0335432Y0094516D01*
X0335609Y0094325D01*
X0335782Y0094130D01*
X0335950Y0093931D01*
X0336113Y0093727D01*
X0336271Y0093520D01*
X0336424Y0093308D01*
X0336572Y0093093D01*
X0336714Y0092875D01*
X0336851Y0092653D01*
X0336982Y0092428D01*
X0337108Y0092199D01*
X0337228Y0091968D01*
X0337343Y0091733D01*
X0337300Y0091713D01*
X0337186Y0091947D01*
X0337067Y0092177D01*
X0336941Y0092405D01*
X0336810Y0092629D01*
X0336674Y0092850D01*
X0336532Y0093067D01*
X0336386Y0093281D01*
X0336233Y0093492D01*
X0336076Y0093698D01*
X0335914Y0093901D01*
X0335746Y0094099D01*
X0335574Y0094294D01*
X0335398Y0094484D01*
X0335216Y0094670D01*
X0335030Y0094851D01*
X0334840Y0095028D01*
X0334645Y0095200D01*
X0334447Y0095367D01*
X0334244Y0095529D01*
X0334037Y0095686D01*
X0333827Y0095838D01*
X0333613Y0095985D01*
X0333395Y0096126D01*
X0333174Y0096263D01*
X0332950Y0096393D01*
X0332722Y0096518D01*
X0332492Y0096638D01*
X0332258Y0096752D01*
X0332022Y0096860D01*
X0331783Y0096962D01*
X0331542Y0097058D01*
X0331299Y0097149D01*
X0331053Y0097233D01*
X0330806Y0097312D01*
X0330557Y0097384D01*
X0330305Y0097450D01*
X0330053Y0097510D01*
X0329799Y0097564D01*
X0329544Y0097611D01*
X0329287Y0097653D01*
X0329030Y0097687D01*
X0328772Y0097716D01*
X0328513Y0097738D01*
X0328254Y0097754D01*
X0327995Y0097764D01*
X0327735Y0097767D01*
X0327475Y0097764D01*
X0327216Y0097754D01*
X0326957Y0097738D01*
X0326698Y0097716D01*
X0326440Y0097687D01*
X0326183Y0097653D01*
X0325926Y0097611D01*
X0325671Y0097564D01*
X0325417Y0097510D01*
X0325165Y0097450D01*
X0324913Y0097384D01*
X0324664Y0097312D01*
X0324417Y0097233D01*
X0324171Y0097149D01*
X0323928Y0097058D01*
X0323687Y0096962D01*
X0323448Y0096860D01*
X0323212Y0096752D01*
X0322978Y0096638D01*
X0322748Y0096518D01*
X0322520Y0096393D01*
X0322296Y0096263D01*
X0322075Y0096126D01*
X0321857Y0095985D01*
X0321643Y0095838D01*
X0321433Y0095686D01*
X0321226Y0095529D01*
X0321023Y0095367D01*
X0320825Y0095200D01*
X0320630Y0095028D01*
X0320440Y0094851D01*
X0320254Y0094670D01*
X0320072Y0094484D01*
X0319896Y0094294D01*
X0319724Y0094099D01*
X0319556Y0093901D01*
X0319394Y0093698D01*
X0319237Y0093492D01*
X0319084Y0093281D01*
X0318938Y0093067D01*
X0318796Y0092850D01*
X0318660Y0092629D01*
X0318529Y0092405D01*
X0318403Y0092177D01*
X0318284Y0091947D01*
X0318170Y0091713D01*
X0318212Y0091693D01*
X0318326Y0091926D01*
X0318445Y0092155D01*
X0318570Y0092381D01*
X0318700Y0092605D01*
X0318836Y0092825D01*
X0318977Y0093041D01*
X0319123Y0093254D01*
X0319274Y0093464D01*
X0319431Y0093669D01*
X0319593Y0093871D01*
X0319759Y0094069D01*
X0319930Y0094262D01*
X0320106Y0094452D01*
X0320287Y0094637D01*
X0320472Y0094817D01*
X0320662Y0094993D01*
X0320855Y0095164D01*
X0321053Y0095330D01*
X0321255Y0095492D01*
X0321461Y0095648D01*
X0321670Y0095800D01*
X0321883Y0095946D01*
X0322100Y0096087D01*
X0322320Y0096222D01*
X0322544Y0096352D01*
X0322770Y0096477D01*
X0323000Y0096596D01*
X0323232Y0096709D01*
X0323467Y0096817D01*
X0323705Y0096919D01*
X0323945Y0097015D01*
X0324187Y0097105D01*
X0324431Y0097189D01*
X0324678Y0097267D01*
X0324926Y0097339D01*
X0325176Y0097405D01*
X0325427Y0097464D01*
X0325680Y0097518D01*
X0325934Y0097565D01*
X0326190Y0097606D01*
X0326446Y0097641D01*
X0326703Y0097669D01*
X0326960Y0097691D01*
X0327218Y0097707D01*
X0327477Y0097717D01*
X0327735Y0097720D01*
X0327993Y0097717D01*
X0328252Y0097707D01*
X0328510Y0097691D01*
X0328767Y0097669D01*
X0329024Y0097641D01*
X0329280Y0097606D01*
X0329536Y0097565D01*
X0329790Y0097518D01*
X0330043Y0097464D01*
X0330294Y0097405D01*
X0330544Y0097339D01*
X0330792Y0097267D01*
X0331039Y0097189D01*
X0331283Y0097105D01*
X0331525Y0097015D01*
X0331765Y0096919D01*
X0332003Y0096817D01*
X0332238Y0096709D01*
X0332470Y0096596D01*
X0332700Y0096477D01*
X0332926Y0096352D01*
X0333150Y0096222D01*
X0333370Y0096087D01*
X0333587Y0095946D01*
X0333800Y0095800D01*
X0334009Y0095648D01*
X0334215Y0095492D01*
X0334417Y0095330D01*
X0334615Y0095164D01*
X0334808Y0094993D01*
X0334998Y0094817D01*
X0335183Y0094637D01*
X0335364Y0094452D01*
X0335540Y0094262D01*
X0335711Y0094069D01*
X0335877Y0093871D01*
X0336039Y0093669D01*
X0336196Y0093464D01*
X0336347Y0093254D01*
X0336493Y0093041D01*
X0336634Y0092825D01*
X0336770Y0092605D01*
X0336900Y0092381D01*
X0337025Y0092155D01*
X0337144Y0091926D01*
X0337258Y0091693D01*
X0337215Y0091673D01*
X0337102Y0091905D01*
X0336984Y0092133D01*
X0336859Y0092358D01*
X0336730Y0092581D01*
X0336595Y0092800D01*
X0336454Y0093015D01*
X0336309Y0093227D01*
X0336158Y0093436D01*
X0336002Y0093641D01*
X0335841Y0093841D01*
X0335675Y0094038D01*
X0335505Y0094231D01*
X0335329Y0094419D01*
X0335150Y0094603D01*
X0334965Y0094783D01*
X0334777Y0094958D01*
X0334584Y0095129D01*
X0334387Y0095294D01*
X0334186Y0095455D01*
X0333981Y0095611D01*
X0333773Y0095761D01*
X0333560Y0095907D01*
X0333345Y0096047D01*
X0333126Y0096182D01*
X0332903Y0096312D01*
X0332678Y0096436D01*
X0332449Y0096554D01*
X0332218Y0096667D01*
X0331984Y0096774D01*
X0331747Y0096875D01*
X0331508Y0096971D01*
X0331267Y0097060D01*
X0331024Y0097144D01*
X0330779Y0097222D01*
X0330531Y0097293D01*
X0330283Y0097359D01*
X0330032Y0097418D01*
X0329780Y0097472D01*
X0329528Y0097519D01*
X0329273Y0097560D01*
X0329018Y0097594D01*
X0328763Y0097623D01*
X0328506Y0097645D01*
X0328249Y0097660D01*
X0327992Y0097670D01*
X0327735Y0097673D01*
X0327478Y0097670D01*
X0327221Y0097660D01*
X0326964Y0097645D01*
X0326707Y0097623D01*
X0326452Y0097594D01*
X0326197Y0097560D01*
X0325942Y0097519D01*
X0325690Y0097472D01*
X0325438Y0097418D01*
X0325187Y0097359D01*
X0324939Y0097293D01*
X0324691Y0097222D01*
X0324446Y0097144D01*
X0324203Y0097060D01*
X0323962Y0096971D01*
X0323723Y0096875D01*
X0323486Y0096774D01*
X0323252Y0096667D01*
X0323021Y0096554D01*
X0322792Y0096436D01*
X0322567Y0096312D01*
X0322344Y0096182D01*
X0322125Y0096047D01*
X0321910Y0095907D01*
X0321697Y0095761D01*
X0321489Y0095611D01*
X0321284Y0095455D01*
X0321083Y0095294D01*
X0320886Y0095129D01*
X0320693Y0094958D01*
X0320505Y0094783D01*
X0320320Y0094603D01*
X0320141Y0094419D01*
X0319965Y0094231D01*
X0319795Y0094038D01*
X0319629Y0093841D01*
X0319468Y0093641D01*
X0319312Y0093436D01*
X0319161Y0093227D01*
X0319016Y0093015D01*
X0318875Y0092800D01*
X0318740Y0092581D01*
X0318611Y0092358D01*
X0318486Y0092133D01*
X0318368Y0091905D01*
X0318255Y0091673D01*
X0318297Y0091653D01*
X0318410Y0091884D01*
X0318528Y0092111D01*
X0318651Y0092335D01*
X0318781Y0092556D01*
X0318915Y0092775D01*
X0319055Y0092989D01*
X0319200Y0093200D01*
X0319350Y0093408D01*
X0319505Y0093612D01*
X0319665Y0093812D01*
X0319830Y0094008D01*
X0320000Y0094199D01*
X0320175Y0094387D01*
X0320354Y0094570D01*
X0320537Y0094749D01*
X0320725Y0094923D01*
X0320917Y0095093D01*
X0321113Y0095258D01*
X0321313Y0095418D01*
X0321517Y0095573D01*
X0321725Y0095723D01*
X0321936Y0095868D01*
X0322151Y0096007D01*
X0322369Y0096142D01*
X0322590Y0096271D01*
X0322815Y0096394D01*
X0323042Y0096512D01*
X0323272Y0096624D01*
X0323505Y0096731D01*
X0323741Y0096832D01*
X0323978Y0096927D01*
X0324219Y0097016D01*
X0324461Y0097099D01*
X0324705Y0097177D01*
X0324951Y0097248D01*
X0325199Y0097313D01*
X0325448Y0097373D01*
X0325699Y0097426D01*
X0325951Y0097472D01*
X0326203Y0097513D01*
X0326457Y0097548D01*
X0326712Y0097576D01*
X0326967Y0097598D01*
X0327223Y0097613D01*
X0327479Y0097623D01*
X0327735Y0097626D01*
X0327991Y0097623D01*
X0328247Y0097613D01*
X0328503Y0097598D01*
X0328758Y0097576D01*
X0329013Y0097548D01*
X0329267Y0097513D01*
X0329519Y0097472D01*
X0329771Y0097426D01*
X0330022Y0097373D01*
X0330271Y0097313D01*
X0330519Y0097248D01*
X0330765Y0097177D01*
X0331009Y0097099D01*
X0331251Y0097016D01*
X0331492Y0096927D01*
X0331729Y0096832D01*
X0331965Y0096731D01*
X0332198Y0096624D01*
X0332428Y0096512D01*
X0332655Y0096394D01*
X0332880Y0096271D01*
X0333101Y0096142D01*
X0333319Y0096007D01*
X0333534Y0095868D01*
X0333745Y0095723D01*
X0333953Y0095573D01*
X0334157Y0095418D01*
X0334357Y0095258D01*
X0334553Y0095093D01*
X0334745Y0094923D01*
X0334933Y0094749D01*
X0335116Y0094570D01*
X0335295Y0094387D01*
X0335470Y0094199D01*
X0335640Y0094008D01*
X0335805Y0093812D01*
X0335965Y0093612D01*
X0336120Y0093408D01*
X0336270Y0093200D01*
X0336415Y0092989D01*
X0336555Y0092775D01*
X0336689Y0092556D01*
X0336819Y0092335D01*
X0336942Y0092111D01*
X0337060Y0091884D01*
X0337173Y0091653D01*
X0337130Y0091633D01*
X0337018Y0091862D01*
X0336901Y0092089D01*
X0336778Y0092312D01*
X0336649Y0092532D01*
X0336515Y0092749D01*
X0336376Y0092963D01*
X0336232Y0093173D01*
X0336082Y0093380D01*
X0335928Y0093583D01*
X0335768Y0093782D01*
X0335604Y0093977D01*
X0335435Y0094168D01*
X0335261Y0094355D01*
X0335083Y0094537D01*
X0334900Y0094715D01*
X0334714Y0094889D01*
X0334522Y0095057D01*
X0334327Y0095222D01*
X0334128Y0095381D01*
X0333925Y0095535D01*
X0333718Y0095685D01*
X0333508Y0095829D01*
X0333294Y0095968D01*
X0333077Y0096101D01*
X0332857Y0096230D01*
X0332633Y0096353D01*
X0332407Y0096470D01*
X0332178Y0096582D01*
X0331946Y0096688D01*
X0331711Y0096788D01*
X0331475Y0096883D01*
X0331236Y0096972D01*
X0330994Y0097055D01*
X0330751Y0097132D01*
X0330506Y0097203D01*
X0330260Y0097268D01*
X0330012Y0097327D01*
X0329762Y0097379D01*
X0329511Y0097426D01*
X0329260Y0097467D01*
X0329007Y0097501D01*
X0328753Y0097529D01*
X0328499Y0097551D01*
X0328245Y0097566D01*
X0327990Y0097576D01*
X0327735Y0097579D01*
X0327480Y0097576D01*
X0327225Y0097566D01*
X0326971Y0097551D01*
X0326717Y0097529D01*
X0326463Y0097501D01*
X0326210Y0097467D01*
X0325959Y0097426D01*
X0325708Y0097379D01*
X0325458Y0097327D01*
X0325210Y0097268D01*
X0324964Y0097203D01*
X0324719Y0097132D01*
X0324476Y0097055D01*
X0324234Y0096972D01*
X0323995Y0096883D01*
X0323759Y0096788D01*
X0323524Y0096688D01*
X0323292Y0096582D01*
X0323063Y0096470D01*
X0322837Y0096353D01*
X0322613Y0096230D01*
X0322393Y0096101D01*
X0322176Y0095968D01*
X0321962Y0095829D01*
X0321752Y0095685D01*
X0321545Y0095535D01*
X0321342Y0095381D01*
X0321143Y0095222D01*
X0320948Y0095057D01*
X0320756Y0094889D01*
X0320570Y0094715D01*
X0320387Y0094537D01*
X0320209Y0094355D01*
X0320035Y0094168D01*
X0319866Y0093977D01*
X0319702Y0093782D01*
X0319542Y0093583D01*
X0319388Y0093380D01*
X0319238Y0093173D01*
X0319094Y0092963D01*
X0318955Y0092749D01*
X0318821Y0092532D01*
X0318692Y0092312D01*
X0318569Y0092089D01*
X0318452Y0091862D01*
X0318340Y0091633D01*
X0318382Y0091613D01*
X0318494Y0091841D01*
X0318611Y0092067D01*
X0318733Y0092289D01*
X0318861Y0092508D01*
X0318995Y0092724D01*
X0319133Y0092937D01*
X0319277Y0093146D01*
X0319426Y0093352D01*
X0319579Y0093554D01*
X0319738Y0093752D01*
X0319902Y0093946D01*
X0320070Y0094136D01*
X0320243Y0094322D01*
X0320420Y0094504D01*
X0320602Y0094681D01*
X0320788Y0094854D01*
X0320978Y0095022D01*
X0321173Y0095185D01*
X0321371Y0095344D01*
X0321573Y0095497D01*
X0321779Y0095646D01*
X0321988Y0095790D01*
X0322201Y0095928D01*
X0322417Y0096061D01*
X0322636Y0096189D01*
X0322859Y0096311D01*
X0323084Y0096428D01*
X0323312Y0096539D01*
X0323543Y0096645D01*
X0323777Y0096745D01*
X0324012Y0096839D01*
X0324250Y0096928D01*
X0324490Y0097010D01*
X0324732Y0097087D01*
X0324976Y0097158D01*
X0325222Y0097222D01*
X0325469Y0097281D01*
X0325717Y0097333D01*
X0325967Y0097380D01*
X0326217Y0097420D01*
X0326469Y0097454D01*
X0326721Y0097482D01*
X0326974Y0097504D01*
X0327227Y0097520D01*
X0327481Y0097529D01*
X0327735Y0097532D01*
X0327989Y0097529D01*
X0328243Y0097520D01*
X0328496Y0097504D01*
X0328749Y0097482D01*
X0329001Y0097454D01*
X0329253Y0097420D01*
X0329503Y0097380D01*
X0329753Y0097333D01*
X0330001Y0097281D01*
X0330248Y0097222D01*
X0330494Y0097158D01*
X0330738Y0097087D01*
X0330980Y0097010D01*
X0331220Y0096928D01*
X0331458Y0096839D01*
X0331693Y0096745D01*
X0331927Y0096645D01*
X0332158Y0096539D01*
X0332386Y0096428D01*
X0332611Y0096311D01*
X0332834Y0096189D01*
X0333053Y0096061D01*
X0333269Y0095928D01*
X0333482Y0095790D01*
X0333691Y0095646D01*
X0333897Y0095497D01*
X0334099Y0095344D01*
X0334297Y0095185D01*
X0334492Y0095022D01*
X0334682Y0094854D01*
X0334868Y0094681D01*
X0335050Y0094504D01*
X0335227Y0094322D01*
X0335400Y0094136D01*
X0335568Y0093946D01*
X0335732Y0093752D01*
X0335891Y0093554D01*
X0336044Y0093352D01*
X0336193Y0093146D01*
X0336337Y0092937D01*
X0336475Y0092724D01*
X0336609Y0092508D01*
X0336737Y0092289D01*
X0336859Y0092067D01*
X0336976Y0091841D01*
X0337088Y0091613D01*
X0337045Y0091593D01*
X0336934Y0091820D01*
X0336818Y0092045D01*
X0336696Y0092266D01*
X0336568Y0092484D01*
X0336436Y0092699D01*
X0336298Y0092911D01*
X0336155Y0093119D01*
X0336007Y0093324D01*
X0335853Y0093525D01*
X0335695Y0093722D01*
X0335533Y0093916D01*
X0335365Y0094105D01*
X0335193Y0094290D01*
X0335017Y0094471D01*
X0334836Y0094647D01*
X0334650Y0094819D01*
X0334461Y0094986D01*
X0334268Y0095149D01*
X0334070Y0095307D01*
X0333869Y0095460D01*
X0333664Y0095608D01*
X0333456Y0095751D01*
X0333244Y0095888D01*
X0333029Y0096021D01*
X0332810Y0096148D01*
X0332589Y0096270D01*
X0332365Y0096386D01*
X0332137Y0096497D01*
X0331908Y0096602D01*
X0331675Y0096702D01*
X0331441Y0096795D01*
X0331204Y0096883D01*
X0330965Y0096966D01*
X0330724Y0097042D01*
X0330481Y0097112D01*
X0330237Y0097177D01*
X0329991Y0097235D01*
X0329744Y0097287D01*
X0329495Y0097333D01*
X0329246Y0097374D01*
X0328995Y0097408D01*
X0328744Y0097435D01*
X0328492Y0097457D01*
X0328240Y0097473D01*
X0327988Y0097482D01*
X0327735Y0097485D01*
X0327482Y0097482D01*
X0327230Y0097473D01*
X0326978Y0097457D01*
X0326726Y0097435D01*
X0326475Y0097408D01*
X0326224Y0097374D01*
X0325975Y0097333D01*
X0325726Y0097287D01*
X0325479Y0097235D01*
X0325233Y0097177D01*
X0324989Y0097112D01*
X0324746Y0097042D01*
X0324505Y0096966D01*
X0324266Y0096883D01*
X0324029Y0096795D01*
X0323795Y0096702D01*
X0323562Y0096602D01*
X0323333Y0096497D01*
X0323105Y0096386D01*
X0322881Y0096270D01*
X0322660Y0096148D01*
X0322441Y0096021D01*
X0322226Y0095888D01*
X0322014Y0095751D01*
X0321806Y0095608D01*
X0321601Y0095460D01*
X0321400Y0095307D01*
X0321202Y0095149D01*
X0321009Y0094986D01*
X0320820Y0094819D01*
X0320634Y0094647D01*
X0320453Y0094471D01*
X0320277Y0094290D01*
X0320105Y0094105D01*
X0319937Y0093916D01*
X0319775Y0093722D01*
X0319617Y0093525D01*
X0319463Y0093324D01*
X0319315Y0093119D01*
X0319172Y0092911D01*
X0319034Y0092699D01*
X0318902Y0092484D01*
X0318774Y0092266D01*
X0318652Y0092045D01*
X0318536Y0091820D01*
X0318425Y0091593D01*
X0336175Y0080565D02*
X0335821Y0080843D01*
X0335822Y0080843D02*
X0335967Y0081032D01*
X0336108Y0081226D01*
X0336244Y0081422D01*
X0336376Y0081621D01*
X0336503Y0081824D01*
X0336625Y0082029D01*
X0336743Y0082237D01*
X0336856Y0082448D01*
X0336963Y0082662D01*
X0337066Y0082878D01*
X0337475Y0082690D01*
X0337368Y0082464D01*
X0337255Y0082241D01*
X0337138Y0082021D01*
X0337015Y0081804D01*
X0336887Y0081589D01*
X0336754Y0081378D01*
X0336617Y0081169D01*
X0336474Y0080964D01*
X0336327Y0080762D01*
X0336175Y0080564D01*
X0336138Y0080593D01*
X0336289Y0080791D01*
X0336436Y0080991D01*
X0336578Y0081196D01*
X0336715Y0081403D01*
X0336847Y0081614D01*
X0336974Y0081827D01*
X0337096Y0082044D01*
X0337214Y0082263D01*
X0337326Y0082485D01*
X0337432Y0082710D01*
X0337390Y0082729D01*
X0337283Y0082506D01*
X0337172Y0082285D01*
X0337055Y0082066D01*
X0336933Y0081851D01*
X0336807Y0081638D01*
X0336675Y0081429D01*
X0336539Y0081222D01*
X0336398Y0081019D01*
X0336252Y0080819D01*
X0336101Y0080622D01*
X0336064Y0080651D01*
X0336214Y0080847D01*
X0336359Y0081046D01*
X0336500Y0081248D01*
X0336636Y0081454D01*
X0336767Y0081663D01*
X0336893Y0081874D01*
X0337014Y0082089D01*
X0337130Y0082306D01*
X0337241Y0082526D01*
X0337347Y0082749D01*
X0337304Y0082768D01*
X0337199Y0082547D01*
X0337088Y0082328D01*
X0336973Y0082112D01*
X0336852Y0081898D01*
X0336727Y0081687D01*
X0336596Y0081479D01*
X0336461Y0081275D01*
X0336321Y0081073D01*
X0336177Y0080875D01*
X0336027Y0080680D01*
X0335991Y0080710D01*
X0336139Y0080903D01*
X0336283Y0081101D01*
X0336422Y0081301D01*
X0336557Y0081505D01*
X0336687Y0081712D01*
X0336811Y0081921D01*
X0336931Y0082134D01*
X0337047Y0082349D01*
X0337157Y0082567D01*
X0337261Y0082788D01*
X0337219Y0082808D01*
X0337114Y0082588D01*
X0337005Y0082371D01*
X0336890Y0082157D01*
X0336771Y0081945D01*
X0336646Y0081736D01*
X0336517Y0081530D01*
X0336383Y0081328D01*
X0336245Y0081128D01*
X0336101Y0080932D01*
X0335954Y0080739D01*
X0335917Y0080768D01*
X0336064Y0080960D01*
X0336206Y0081155D01*
X0336344Y0081354D01*
X0336478Y0081556D01*
X0336606Y0081761D01*
X0336730Y0081969D01*
X0336849Y0082179D01*
X0336963Y0082393D01*
X0337072Y0082609D01*
X0337176Y0082827D01*
X0337133Y0082847D01*
X0337030Y0082629D01*
X0336921Y0082414D01*
X0336808Y0082202D01*
X0336689Y0081992D01*
X0336566Y0081785D01*
X0336438Y0081581D01*
X0336306Y0081380D01*
X0336168Y0081183D01*
X0336026Y0080988D01*
X0335880Y0080797D01*
X0335843Y0080826D01*
X0335989Y0081016D01*
X0336130Y0081210D01*
X0336267Y0081407D01*
X0336399Y0081607D01*
X0336526Y0081810D01*
X0336649Y0082016D01*
X0336767Y0082224D01*
X0336880Y0082436D01*
X0336988Y0082650D01*
X0337091Y0082866D01*
D19*
X0301931Y0107420D02*
X0299529Y0107420D01*
X0300730Y0107420D02*
X0300730Y0111023D01*
X0299529Y0109822D01*
X0298248Y0110423D02*
X0297647Y0111023D01*
X0296446Y0111023D01*
X0295846Y0110423D01*
X0295846Y0108021D01*
X0296446Y0107420D01*
X0297647Y0107420D01*
X0298248Y0108021D01*
D20*
X0166067Y0048390D02*
X0166067Y0047390D01*
X0119217Y0060382D02*
X0119217Y0061382D01*
D21*
X0140893Y0042716D02*
X0142861Y0042716D01*
X0141877Y0042716D02*
X0141877Y0037795D01*
X0140893Y0036810D01*
X0139909Y0036810D01*
X0138925Y0037795D01*
X0145002Y0036810D02*
X0148939Y0040747D01*
X0148939Y0041731D01*
X0147955Y0042716D01*
X0145986Y0042716D01*
X0145002Y0041731D01*
X0145002Y0036810D02*
X0148939Y0036810D01*
M02*
