G75*
%MOIN*%
%OFA0B0*%
%FSLAX25Y25*%
%IPPOS*%
%LPD*%
%AMOC8*
5,1,8,0,0,1.08239X$1,22.5*
%
%ADD10C,0.03937*%
D10*
X0004974Y0009109D02*
X0008599Y0010950D01*
X0012012Y0013073D01*
X0020437Y0010601D01*
X0054076Y0020536D01*
X0092243Y0018963D01*
X0098431Y0015952D01*
X0108143Y0011476D01*
X0109912Y0011213D01*
X0114802Y0011306D01*
X0119671Y0008854D01*
X0134060Y0006796D01*
X0146967Y0006303D01*
X0150922Y0003671D01*
X0151577Y0002969D01*
X0161775Y0006582D01*
X0245825Y0015700D01*
X0253165Y0014374D01*
X0259311Y0020006D01*
X0263180Y0018804D01*
X0270943Y0019477D01*
X0286810Y0014558D01*
X0299270Y0015622D01*
X0308845Y0013542D01*
X0308930Y0013467D01*
X0311089Y0013740D01*
X0318065Y0013816D01*
X0321132Y0014655D01*
X0321638Y0015247D01*
X0322931Y0016264D01*
X0323020Y0016016D01*
X0324853Y0016501D01*
X0330392Y0021906D01*
X0342077Y0028031D01*
X0353020Y0027689D01*
X0360740Y0025035D01*
X0370728Y0018385D01*
X0371257Y0020372D01*
X0370657Y0023426D01*
X0371864Y0026800D01*
X0379743Y0031591D01*
X0376924Y0040714D01*
X0377752Y0045360D01*
X0377079Y0047445D01*
X0376169Y0047263D01*
X0377808Y0053836D01*
X0380062Y0055367D01*
X0380584Y0056546D01*
X0379620Y0058503D01*
X0382952Y0062872D01*
X0385808Y0069039D01*
X0383706Y0074413D01*
X0376649Y0080131D01*
X0374773Y0080843D01*
X0367564Y0081598D01*
X0358804Y0088618D01*
X0353819Y0097347D01*
X0341607Y0109350D01*
X0325589Y0113339D01*
X0317606Y0113753D01*
X0316135Y0114347D01*
X0313058Y0114855D01*
X0310020Y0114020D01*
X0294941Y0117395D01*
X0293793Y0118198D01*
X0293487Y0119284D01*
X0290434Y0122393D01*
X0286944Y0122475D01*
X0285560Y0123455D01*
X0283608Y0125527D01*
X0231200Y0132369D01*
X0230011Y0132615D01*
X0229560Y0132708D01*
X0229315Y0132749D01*
X0215829Y0134457D01*
X0213304Y0135804D01*
X0176592Y0143247D01*
X0170106Y0141704D01*
X0170004Y0142058D01*
X0168573Y0143432D01*
X0158076Y0143427D01*
X0142368Y0135463D01*
X0140410Y0135354D01*
X0138447Y0134109D01*
X0138318Y0134087D01*
X0137049Y0134116D01*
X0135817Y0134202D01*
X0132277Y0133918D01*
X0128857Y0132523D01*
X0118701Y0133075D01*
X0117754Y0132026D01*
X0117246Y0132129D01*
X0112555Y0131641D01*
X0109109Y0131799D01*
X0107928Y0131048D01*
X0106952Y0130245D01*
X0106108Y0129590D01*
X0106104Y0129591D01*
X0105437Y0129521D01*
X0101328Y0129736D01*
X0098882Y0128656D01*
X0097099Y0128276D01*
X0094714Y0120070D01*
X0065133Y0095796D01*
X0060444Y0094109D01*
X0051011Y0080057D01*
X0049954Y0076188D01*
X0050766Y0071772D01*
X0049598Y0070575D01*
X0043314Y0051470D01*
X0030316Y0037253D01*
X0022016Y0031439D01*
X0019812Y0030848D01*
X0013521Y0030544D01*
X0002969Y0023486D01*
X0004626Y0021255D01*
X0006861Y0020949D01*
X0007519Y0019204D01*
X0007160Y0015699D01*
X0004974Y0009109D01*
M02*
