G75*
%MOIN*%
%OFA0B0*%
%FSLAX25Y25*%
%IPPOS*%
%LPD*%
%AMOC8*
5,1,8,0,0,1.08239X$1,22.5*
%
%ADD10C,0.03937*%
%ADD11C,0.06500*%
%ADD12C,0.05543*%
%ADD13OC8,0.07400*%
%ADD14C,0.05150*%
%ADD15C,0.11220*%
%ADD16C,0.07400*%
%ADD17C,0.05200*%
%ADD18C,0.05200*%
%ADD19C,0.19685*%
%ADD20C,0.11811*%
%ADD21R,0.07400X0.07400*%
%ADD22OC8,0.11811*%
%ADD23OC8,0.06300*%
%ADD24C,0.06299*%
%ADD25C,0.04000*%
%ADD26C,0.02400*%
%ADD27C,0.03200*%
%ADD28C,0.01000*%
%ADD29C,0.01600*%
%ADD30C,0.02600*%
D10*
X0004974Y0009109D02*
X0008599Y0010950D01*
X0012012Y0013073D01*
X0020437Y0010601D01*
X0054076Y0020536D01*
X0092243Y0018963D01*
X0098431Y0015952D01*
X0108143Y0011476D01*
X0109912Y0011213D01*
X0114802Y0011306D01*
X0119671Y0008854D01*
X0134060Y0006796D01*
X0146967Y0006303D01*
X0150922Y0003671D01*
X0151577Y0002969D01*
X0161775Y0006582D01*
X0245825Y0015700D01*
X0253165Y0014374D01*
X0259311Y0020006D01*
X0263180Y0018804D01*
X0270943Y0019477D01*
X0286810Y0014558D01*
X0299270Y0015622D01*
X0308845Y0013542D01*
X0308930Y0013467D01*
X0311089Y0013740D01*
X0318065Y0013816D01*
X0321132Y0014655D01*
X0321638Y0015247D01*
X0322931Y0016264D01*
X0323020Y0016016D01*
X0324853Y0016501D01*
X0330392Y0021906D01*
X0342077Y0028031D01*
X0353020Y0027689D01*
X0360740Y0025035D01*
X0370728Y0018385D01*
X0371257Y0020372D01*
X0370657Y0023426D01*
X0371864Y0026800D01*
X0379743Y0031591D01*
X0376924Y0040714D01*
X0377752Y0045360D01*
X0377079Y0047445D01*
X0376169Y0047263D01*
X0377808Y0053836D01*
X0380062Y0055367D01*
X0380584Y0056546D01*
X0379620Y0058503D01*
X0382952Y0062872D01*
X0385808Y0069039D01*
X0383706Y0074413D01*
X0376649Y0080131D01*
X0374773Y0080843D01*
X0367564Y0081598D01*
X0358804Y0088618D01*
X0353819Y0097347D01*
X0341607Y0109350D01*
X0325589Y0113339D01*
X0317606Y0113753D01*
X0316135Y0114347D01*
X0313058Y0114855D01*
X0310020Y0114020D01*
X0294941Y0117395D01*
X0293793Y0118198D01*
X0293487Y0119284D01*
X0290434Y0122393D01*
X0286944Y0122475D01*
X0285560Y0123455D01*
X0283608Y0125527D01*
X0231200Y0132369D01*
X0230011Y0132615D01*
X0229560Y0132708D01*
X0229315Y0132749D01*
X0215829Y0134457D01*
X0213304Y0135804D01*
X0176592Y0143247D01*
X0170106Y0141704D01*
X0170004Y0142058D01*
X0168573Y0143432D01*
X0158076Y0143427D01*
X0142368Y0135463D01*
X0140410Y0135354D01*
X0138447Y0134109D01*
X0138318Y0134087D01*
X0137049Y0134116D01*
X0135817Y0134202D01*
X0132277Y0133918D01*
X0128857Y0132523D01*
X0118701Y0133075D01*
X0117754Y0132026D01*
X0117246Y0132129D01*
X0112555Y0131641D01*
X0109109Y0131799D01*
X0107928Y0131048D01*
X0106952Y0130245D01*
X0106108Y0129590D01*
X0106104Y0129591D01*
X0105437Y0129521D01*
X0101328Y0129736D01*
X0098882Y0128656D01*
X0097099Y0128276D01*
X0094714Y0120070D01*
X0065133Y0095796D01*
X0060444Y0094109D01*
X0051011Y0080057D01*
X0049954Y0076188D01*
X0050766Y0071772D01*
X0049598Y0070575D01*
X0043314Y0051470D01*
X0030316Y0037253D01*
X0022016Y0031439D01*
X0019812Y0030848D01*
X0013521Y0030544D01*
X0002969Y0023486D01*
X0004626Y0021255D01*
X0006861Y0020949D01*
X0007519Y0019204D01*
X0007160Y0015699D01*
X0004974Y0009109D01*
D11*
X0096716Y0040200D03*
X0106716Y0040200D03*
X0189123Y0041900D03*
X0199123Y0041900D03*
X0214992Y0042051D03*
X0224992Y0042051D03*
X0303609Y0064216D03*
X0335105Y0064216D03*
X0335105Y0083901D03*
X0303609Y0083901D03*
X0092977Y0098579D03*
X0082977Y0098579D03*
D12*
X0113215Y0045483D03*
X0161547Y0039450D03*
X0113215Y0017483D03*
X0161547Y0011450D03*
D13*
X0257719Y0106664D03*
X0267719Y0105664D03*
X0277719Y0106664D03*
X0277719Y0116664D03*
X0267719Y0115664D03*
X0257719Y0116664D03*
D14*
X0143671Y0036227D03*
X0137371Y0036227D03*
X0131072Y0036227D03*
X0134222Y0031503D03*
X0140521Y0031503D03*
D15*
X0151742Y0016148D03*
X0123001Y0016148D03*
D16*
X0102034Y0030357D03*
X0092034Y0031357D03*
X0082034Y0030357D03*
X0072034Y0031357D03*
X0062034Y0030357D03*
X0052034Y0031357D03*
X0040488Y0034139D03*
X0031091Y0030719D03*
X0017355Y0025595D03*
X0020775Y0016198D03*
X0054355Y0041416D03*
X0072155Y0041416D03*
X0082349Y0056972D03*
X0082349Y0066972D03*
X0072155Y0067016D03*
X0054355Y0067016D03*
X0106286Y0070050D03*
X0146286Y0070050D03*
X0155154Y0070004D03*
X0195154Y0070004D03*
X0234554Y0079964D03*
X0244554Y0079964D03*
X0244554Y0091775D03*
X0234712Y0091775D03*
X0234712Y0101775D03*
X0244554Y0101775D03*
X0167309Y0101209D03*
X0157309Y0101209D03*
X0148371Y0096748D03*
X0138371Y0096748D03*
X0126444Y0095712D03*
X0118570Y0095712D03*
X0108570Y0095712D03*
X0126444Y0105712D03*
X0234712Y0056342D03*
X0234712Y0046342D03*
X0272803Y0033030D03*
X0282803Y0033030D03*
X0296281Y0040987D03*
X0296281Y0050987D03*
X0168842Y0044378D03*
X0152666Y0045664D03*
X0142666Y0045664D03*
X0131961Y0045696D03*
X0121961Y0045696D03*
X0168842Y0034378D03*
D17*
X0164193Y0053243D02*
X0164193Y0058443D01*
X0174193Y0058443D02*
X0174193Y0053243D01*
X0184193Y0053243D02*
X0184193Y0058443D01*
X0194193Y0058443D02*
X0194193Y0053243D01*
X0204193Y0053243D02*
X0204193Y0058443D01*
X0214193Y0058443D02*
X0214193Y0053243D01*
X0224193Y0053243D02*
X0224193Y0058443D01*
X0224193Y0083243D02*
X0224193Y0088443D01*
X0214193Y0088443D02*
X0214193Y0083243D01*
X0204193Y0083243D02*
X0204193Y0088443D01*
X0194193Y0088443D02*
X0194193Y0083243D01*
X0184193Y0083243D02*
X0184193Y0088443D01*
X0174193Y0088443D02*
X0174193Y0083243D01*
X0164193Y0083243D02*
X0164193Y0088443D01*
X0154193Y0088443D02*
X0154193Y0083243D01*
X0144193Y0083243D02*
X0144193Y0088443D01*
X0134193Y0088443D02*
X0134193Y0083243D01*
X0124193Y0083243D02*
X0124193Y0088443D01*
X0114193Y0088443D02*
X0114193Y0083243D01*
X0104193Y0083243D02*
X0104193Y0088443D01*
X0094193Y0088443D02*
X0094193Y0083243D01*
X0094193Y0058443D02*
X0094193Y0053243D01*
X0104193Y0053243D02*
X0104193Y0058443D01*
X0114193Y0058443D02*
X0114193Y0053243D01*
X0124193Y0053243D02*
X0124193Y0058443D01*
X0134193Y0058443D02*
X0134193Y0053243D01*
X0144193Y0053243D02*
X0144193Y0058443D01*
X0154193Y0058443D02*
X0154193Y0053243D01*
X0304239Y0053824D02*
X0304239Y0048624D01*
X0314082Y0048505D02*
X0314082Y0053705D01*
X0314239Y0053824D02*
X0314239Y0048624D01*
X0324082Y0048505D02*
X0324082Y0053705D01*
X0324239Y0053824D02*
X0324239Y0048624D01*
X0334082Y0048505D02*
X0334082Y0053705D01*
D18*
X0222707Y0027223D03*
X0203707Y0027223D03*
D19*
X0178791Y0021381D03*
X0249257Y0026918D03*
X0307736Y0025179D03*
X0358632Y0057929D03*
X0301151Y0101852D03*
X0227996Y0116313D03*
X0160160Y0124370D03*
X0115931Y0115813D03*
X0067322Y0084137D03*
D20*
X0067322Y0084137D03*
X0115931Y0115813D03*
X0160160Y0124370D03*
X0227996Y0116313D03*
X0301151Y0101852D03*
X0358632Y0057929D03*
X0307736Y0025179D03*
X0249257Y0026918D03*
X0178791Y0021381D03*
D21*
X0258057Y0087335D03*
X0267899Y0087335D03*
X0277742Y0087335D03*
D22*
X0285222Y0059776D03*
X0250576Y0059776D03*
D23*
X0210246Y0097002D03*
X0210246Y0107002D03*
X0210246Y0117002D03*
X0210246Y0127002D03*
X0180246Y0127002D03*
X0180246Y0117002D03*
X0180246Y0107002D03*
X0180246Y0097002D03*
D24*
X0323901Y0095959D03*
X0331775Y0095959D03*
D25*
X0231562Y0035481D02*
X0224992Y0042051D01*
X0231562Y0035481D02*
X0231562Y0020121D01*
X0229594Y0018153D01*
X0197310Y0018153D01*
X0192979Y0022483D01*
X0192979Y0033901D01*
X0189123Y0037757D01*
X0189123Y0041900D01*
D26*
X0164193Y0049209D02*
X0147441Y0032457D01*
X0143671Y0036227D01*
X0147441Y0032457D02*
X0155514Y0024384D01*
X0155514Y0017483D01*
X0161547Y0011450D01*
X0155514Y0017483D02*
X0113215Y0017483D01*
X0125656Y0024846D02*
X0129594Y0028783D01*
X0129594Y0034748D01*
X0131072Y0036227D01*
X0121821Y0045555D02*
X0113287Y0045555D01*
X0113215Y0045483D01*
X0121821Y0045555D02*
X0121961Y0045696D01*
X0114193Y0055114D02*
X0104397Y0045318D01*
X0094160Y0045318D01*
X0091405Y0042562D01*
X0091405Y0031987D01*
X0092034Y0031357D01*
X0082034Y0030357D02*
X0081956Y0030436D01*
X0081956Y0038231D01*
X0092192Y0048468D01*
X0103216Y0048468D01*
X0104193Y0049445D01*
X0104193Y0055843D01*
X0114193Y0055843D02*
X0114193Y0055114D01*
X0164193Y0055843D02*
X0164193Y0049209D01*
X0169357Y0070121D02*
X0175656Y0076420D01*
X0201247Y0076420D01*
X0207153Y0070515D01*
X0222507Y0070515D01*
X0224475Y0072483D01*
X0244554Y0079964D02*
X0246523Y0079964D01*
X0250853Y0084294D01*
X0250853Y0091775D01*
X0255578Y0096499D01*
X0272742Y0096499D01*
X0277742Y0091499D01*
X0277742Y0087335D01*
X0267899Y0087335D02*
X0267899Y0075123D01*
X0274475Y0068546D01*
X0289042Y0068546D01*
X0299279Y0058310D01*
X0316877Y0058310D01*
X0324082Y0051105D01*
X0272803Y0033605D02*
X0272803Y0033030D01*
X0272803Y0033605D02*
X0264633Y0041775D01*
X0249279Y0041775D01*
X0234712Y0056342D01*
X0194193Y0085843D02*
X0194193Y0096499D01*
X0194193Y0103055D01*
X0180246Y0117002D01*
X0052034Y0031357D02*
X0049253Y0034139D01*
X0040488Y0034139D01*
X0031091Y0030719D02*
X0024392Y0025595D01*
X0017355Y0025595D01*
X0020775Y0016198D02*
X0031391Y0024846D01*
X0068964Y0024846D01*
X0072034Y0027916D01*
X0072034Y0028074D01*
X0075263Y0024846D01*
X0125656Y0024846D01*
X0072034Y0028074D02*
X0072034Y0031357D01*
D27*
X0082349Y0056972D02*
X0089200Y0063822D01*
X0089200Y0069570D01*
X0083924Y0074846D01*
X0083924Y0089526D01*
X0092977Y0098579D01*
X0118570Y0095712D02*
X0126444Y0095712D01*
X0126444Y0088094D01*
X0124193Y0085843D01*
X0124193Y0075050D01*
X0129193Y0070050D01*
X0146286Y0070050D01*
X0155154Y0070004D01*
X0164239Y0073271D02*
X0164239Y0055889D01*
X0164193Y0055843D01*
X0154193Y0055843D02*
X0154108Y0055843D01*
X0146129Y0063822D01*
X0089200Y0063822D01*
X0154193Y0083317D02*
X0164239Y0073271D01*
X0154193Y0083317D02*
X0154193Y0085843D01*
X0154193Y0090927D01*
X0148371Y0096748D01*
X0174193Y0100949D02*
X0180246Y0107002D01*
X0174193Y0100949D02*
X0174193Y0085843D01*
X0304239Y0051224D02*
X0313294Y0042168D01*
X0324869Y0042168D01*
X0333806Y0051105D01*
X0334082Y0051105D01*
D28*
X0214992Y0042051D02*
X0214481Y0042562D01*
X0210696Y0042562D01*
X0204003Y0049255D01*
X0189830Y0049255D01*
X0184193Y0054892D01*
X0184193Y0055843D01*
X0181168Y0046893D02*
X0174193Y0053868D01*
X0174193Y0055843D01*
X0181168Y0046893D02*
X0194130Y0046893D01*
X0199123Y0041900D01*
X0137371Y0036359D02*
X0133531Y0040200D01*
X0123294Y0040200D01*
X0122113Y0041381D01*
X0122113Y0045544D01*
X0121961Y0045696D01*
X0137371Y0036359D02*
X0137371Y0036227D01*
D29*
X0113058Y0033507D02*
X0106759Y0033507D01*
X0100066Y0040200D01*
X0096716Y0040200D01*
X0169357Y0051617D02*
X0169357Y0064609D01*
X0174752Y0070004D01*
X0195154Y0070004D01*
X0204397Y0067759D02*
X0264239Y0067759D01*
X0281168Y0050830D01*
X0296124Y0050830D01*
X0296281Y0050987D01*
X0296281Y0049102D01*
X0305184Y0040200D01*
X0307940Y0040200D01*
X0311483Y0036657D01*
X0337359Y0036657D01*
X0358632Y0057929D01*
X0307736Y0025179D02*
X0299885Y0033030D01*
X0282803Y0033030D01*
X0269727Y0046105D01*
X0253609Y0046105D01*
X0234712Y0065003D01*
X0209908Y0065003D01*
X0204193Y0059287D01*
X0204193Y0055843D01*
X0214193Y0055843D02*
X0221961Y0048074D01*
X0233137Y0048074D01*
X0234712Y0046499D01*
X0234712Y0046342D01*
X0234712Y0041464D01*
X0249257Y0026918D01*
X0222707Y0027223D02*
X0222507Y0027601D01*
X0215420Y0034688D01*
X0215420Y0041381D01*
X0214992Y0042051D01*
X0211483Y0047680D02*
X0211483Y0048074D01*
X0199672Y0041381D02*
X0199123Y0041900D01*
X0199672Y0041381D02*
X0199672Y0031538D01*
X0203609Y0027601D01*
X0203707Y0027223D01*
X0178791Y0021381D02*
X0178791Y0042184D01*
X0169357Y0051617D01*
X0194193Y0055843D02*
X0194193Y0057555D01*
X0204397Y0067759D01*
X0206759Y0074846D02*
X0200853Y0080751D01*
X0199279Y0082326D01*
X0199279Y0102011D01*
X0185893Y0115397D01*
X0185893Y0122090D01*
X0181168Y0126814D01*
X0180381Y0126814D01*
X0180246Y0127002D01*
X0196523Y0116578D02*
X0202034Y0122090D01*
X0213452Y0122090D01*
X0219357Y0127995D01*
X0235105Y0127995D01*
X0240223Y0122877D01*
X0260506Y0122877D01*
X0267719Y0115664D01*
X0251247Y0106735D02*
X0244554Y0113428D01*
X0234712Y0105161D02*
X0225777Y0114095D01*
X0227996Y0116313D01*
X0227602Y0108884D01*
X0225777Y0114095D02*
X0218964Y0107281D01*
X0218964Y0098074D01*
X0214193Y0093303D01*
X0214193Y0085843D01*
X0218570Y0089806D02*
X0218570Y0078389D01*
X0224475Y0072483D01*
X0209908Y0074846D02*
X0206759Y0074846D01*
X0218570Y0089806D02*
X0222507Y0093743D01*
X0232743Y0093743D01*
X0234712Y0091775D01*
X0244554Y0091775D01*
X0250460Y0097287D02*
X0250460Y0099649D01*
X0248097Y0099649D01*
X0245971Y0101775D01*
X0244554Y0101775D01*
X0250460Y0099649D02*
X0296586Y0099649D01*
X0301151Y0101852D01*
X0283924Y0092956D02*
X0281168Y0095712D01*
X0279987Y0095712D01*
X0283924Y0092956D02*
X0283924Y0081538D01*
X0275656Y0073271D01*
X0263845Y0073271D02*
X0260696Y0070121D01*
X0254397Y0070121D01*
X0252822Y0071696D01*
X0195342Y0096499D02*
X0194193Y0096499D01*
X0196523Y0110672D02*
X0210193Y0097002D01*
X0210246Y0097002D01*
X0234712Y0101775D02*
X0234712Y0105161D01*
X0251247Y0103586D02*
X0251247Y0106735D01*
X0196523Y0110672D02*
X0196523Y0116578D01*
X0160160Y0124370D02*
X0152762Y0116972D01*
X0147704Y0116972D01*
X0136444Y0105712D01*
X0126444Y0105712D01*
X0132743Y0099412D01*
X0132743Y0087292D01*
X0134193Y0085843D01*
X0115931Y0103072D02*
X0108570Y0095712D01*
X0104193Y0091335D01*
X0104193Y0085843D01*
X0099672Y0091322D02*
X0094193Y0085843D01*
X0094193Y0082143D01*
X0106286Y0070050D01*
X0067322Y0084137D02*
X0067322Y0090527D01*
X0081562Y0103979D01*
X0095342Y0103979D01*
X0099672Y0099649D01*
X0099672Y0091322D01*
X0115931Y0103072D02*
X0115931Y0115813D01*
X0138371Y0100554D02*
X0143371Y0105554D01*
X0153216Y0105554D01*
X0157309Y0101460D01*
X0157309Y0101209D01*
X0138371Y0100554D02*
X0138371Y0096748D01*
D30*
X0195342Y0096499D03*
X0244554Y0113428D03*
X0251247Y0103586D03*
X0250460Y0097287D03*
X0279987Y0095712D03*
X0275656Y0073271D03*
X0263845Y0073271D03*
X0252822Y0071696D03*
X0224475Y0072483D03*
X0209908Y0074846D03*
X0169357Y0070121D03*
X0169357Y0064609D03*
X0211483Y0048074D03*
X0113058Y0033507D03*
M02*
