G75*
%MOIN*%
%OFA0B0*%
%FSLAX25Y25*%
%IPPOS*%
%LPD*%
%AMOC8*
5,1,8,0,0,1.08239X$1,22.5*
%
%ADD10C,0.03937*%
%ADD11C,0.01600*%
%ADD12C,0.06500*%
%ADD13OC8,0.07400*%
%ADD14C,0.07400*%
%ADD15C,0.05200*%
%ADD16C,0.05200*%
%ADD17C,0.11811*%
%ADD18R,0.07400X0.07400*%
%ADD19OC8,0.11811*%
%ADD20OC8,0.06300*%
%ADD21C,0.06300*%
%ADD22OC8,0.05200*%
%ADD23C,0.05000*%
%ADD24C,0.05000*%
%ADD25C,0.01000*%
%ADD26C,0.03200*%
%ADD27C,0.02500*%
%ADD28OC8,0.02500*%
%ADD29C,0.01200*%
%ADD30C,0.02600*%
D10*
X0010938Y0035616D02*
X0012395Y0036356D01*
X0015428Y0038243D01*
X0016238Y0038353D02*
X0023951Y0036090D01*
X0024515Y0036091D02*
X0057713Y0045895D01*
X0058038Y0045935D02*
X0095830Y0044378D01*
X0096227Y0044278D02*
X0102228Y0041358D01*
X0111809Y0036942D01*
X0112081Y0036861D02*
X0113708Y0036619D01*
X0118351Y0036707D01*
X0118819Y0036601D02*
X0123321Y0034334D01*
X0123629Y0034238D02*
X0137805Y0032210D01*
X0137908Y0032200D02*
X0151907Y0031666D01*
X0152600Y0031348D02*
X0154926Y0028854D01*
X0154927Y0028854D02*
X0154970Y0028811D01*
X0155015Y0028770D01*
X0155063Y0028732D01*
X0155113Y0028697D01*
X0155166Y0028666D01*
X0155220Y0028637D01*
X0155275Y0028612D01*
X0155333Y0028590D01*
X0155391Y0028572D01*
X0155450Y0028558D01*
X0155510Y0028547D01*
X0155571Y0028540D01*
X0155632Y0028536D01*
X0155693Y0028537D01*
X0155754Y0028541D01*
X0155815Y0028548D01*
X0155875Y0028560D01*
X0155934Y0028575D01*
X0155992Y0028593D01*
X0155992Y0028594D02*
X0165462Y0031949D01*
X0165688Y0032001D02*
X0249477Y0041090D01*
X0249763Y0041080D02*
X0256474Y0039869D01*
X0257327Y0040115D02*
X0262684Y0045024D01*
X0263656Y0045242D02*
X0266788Y0044269D01*
X0267172Y0044227D02*
X0274544Y0044867D01*
X0274927Y0044825D02*
X0290420Y0040022D01*
X0290801Y0039981D02*
X0302917Y0041015D01*
X0303214Y0040996D02*
X0312530Y0038973D01*
X0312727Y0038873D02*
X0314828Y0039139D01*
X0314942Y0039147D02*
X0321732Y0039221D01*
X0321986Y0039256D02*
X0324632Y0039981D01*
X0325128Y0040295D02*
X0325370Y0040578D01*
X0325512Y0040714D02*
X0326727Y0041670D01*
X0326726Y0041670D02*
X0326739Y0041640D01*
X0326755Y0041611D01*
X0326775Y0041585D01*
X0326797Y0041561D01*
X0326822Y0041539D01*
X0326849Y0041521D01*
X0326878Y0041506D01*
X0326909Y0041494D01*
X0326940Y0041486D01*
X0326973Y0041481D01*
X0327006Y0041480D01*
X0327038Y0041483D01*
X0327071Y0041490D01*
X0328395Y0041840D01*
X0328838Y0042091D02*
X0334083Y0047210D01*
X0334318Y0047380D02*
X0345641Y0053316D01*
X0346136Y0053430D02*
X0356666Y0053100D01*
X0356959Y0053046D02*
X0364414Y0050483D01*
X0364644Y0050370D02*
X0373362Y0044565D01*
X0373363Y0044565D02*
X0373415Y0044532D01*
X0373469Y0044503D01*
X0373524Y0044477D01*
X0373581Y0044455D01*
X0373639Y0044436D01*
X0373699Y0044421D01*
X0373759Y0044410D01*
X0373820Y0044402D01*
X0373881Y0044398D01*
X0373942Y0044397D01*
X0374003Y0044401D01*
X0374064Y0044408D01*
X0374124Y0044419D01*
X0374184Y0044433D01*
X0374242Y0044451D01*
X0374299Y0044473D01*
X0374355Y0044498D01*
X0374409Y0044527D01*
X0374462Y0044558D01*
X0374512Y0044593D01*
X0374560Y0044631D01*
X0374606Y0044672D01*
X0374649Y0044715D01*
X0374689Y0044761D01*
X0374727Y0044810D01*
X0374761Y0044861D01*
X0374792Y0044913D01*
X0374820Y0044968D01*
X0374845Y0045024D01*
X0374866Y0045081D01*
X0374883Y0045140D01*
X0374993Y0045555D01*
X0375008Y0046005D02*
X0374506Y0048562D01*
X0374546Y0049091D02*
X0375540Y0051873D01*
X0375963Y0052391D02*
X0382873Y0056592D01*
X0382924Y0056624D01*
X0382972Y0056660D01*
X0383018Y0056699D01*
X0383062Y0056740D01*
X0383103Y0056784D01*
X0383142Y0056830D01*
X0383178Y0056879D01*
X0383210Y0056929D01*
X0383240Y0056982D01*
X0383266Y0057036D01*
X0383289Y0057091D01*
X0383309Y0057148D01*
X0383325Y0057206D01*
X0383338Y0057265D01*
X0383347Y0057325D01*
X0383352Y0057385D01*
X0383354Y0057445D01*
X0383352Y0057505D01*
X0383347Y0057565D01*
X0383338Y0057624D01*
X0383325Y0057683D01*
X0383309Y0057741D01*
X0383309Y0057742D02*
X0380792Y0065888D01*
X0380763Y0066359D02*
X0381702Y0071624D01*
X0381701Y0071623D02*
X0381711Y0071686D01*
X0381716Y0071748D01*
X0381717Y0071811D01*
X0381714Y0071873D01*
X0381708Y0071936D01*
X0381697Y0071998D01*
X0381683Y0072059D01*
X0381665Y0072119D01*
X0381643Y0072177D01*
X0381617Y0072235D01*
X0381588Y0072290D01*
X0381555Y0072344D01*
X0381520Y0072395D01*
X0381481Y0072445D01*
X0381439Y0072491D01*
X0381394Y0072535D01*
X0381346Y0072576D01*
X0381296Y0072614D01*
X0381244Y0072649D01*
X0381190Y0072680D01*
X0381134Y0072708D01*
X0381076Y0072732D01*
X0381017Y0072753D01*
X0380956Y0072770D01*
X0380895Y0072783D01*
X0380833Y0072792D01*
X0380770Y0072798D01*
X0380708Y0072799D01*
X0380645Y0072796D01*
X0380583Y0072790D01*
X0380521Y0072780D01*
X0380521Y0072779D02*
X0380486Y0072774D01*
X0380450Y0072772D01*
X0380414Y0072774D01*
X0380378Y0072780D01*
X0380343Y0072789D01*
X0380309Y0072801D01*
X0380277Y0072817D01*
X0380246Y0072836D01*
X0380217Y0072858D01*
X0380191Y0072883D01*
X0380168Y0072911D01*
X0380147Y0072940D01*
X0380129Y0072972D01*
X0380115Y0073005D01*
X0380104Y0073039D01*
X0380096Y0073074D01*
X0380093Y0073110D01*
X0380092Y0073146D01*
X0380096Y0073182D01*
X0380103Y0073218D01*
X0381512Y0078872D01*
X0381920Y0079457D02*
X0383965Y0080846D01*
X0384015Y0080882D01*
X0384063Y0080922D01*
X0384109Y0080964D01*
X0384151Y0081010D01*
X0384191Y0081058D01*
X0384228Y0081108D01*
X0384262Y0081160D01*
X0384292Y0081215D01*
X0384319Y0081271D01*
X0384342Y0081329D01*
X0384361Y0081388D01*
X0384377Y0081448D01*
X0384389Y0081509D01*
X0384398Y0081571D01*
X0384402Y0081633D01*
X0384403Y0081695D01*
X0384399Y0081757D01*
X0384392Y0081819D01*
X0384381Y0081880D01*
X0384366Y0081941D01*
X0384348Y0082000D01*
X0384326Y0082058D01*
X0384300Y0082115D01*
X0383690Y0083353D01*
X0383665Y0083409D01*
X0383642Y0083467D01*
X0383624Y0083525D01*
X0383609Y0083585D01*
X0383598Y0083646D01*
X0383591Y0083707D01*
X0383587Y0083769D01*
X0383588Y0083830D01*
X0383592Y0083892D01*
X0383600Y0083953D01*
X0383611Y0084013D01*
X0383626Y0084073D01*
X0383645Y0084132D01*
X0383668Y0084189D01*
X0383694Y0084245D01*
X0383723Y0084299D01*
X0383756Y0084351D01*
X0383792Y0084401D01*
X0383792Y0084402D02*
X0386748Y0088278D01*
X0389425Y0094058D01*
X0389449Y0094843D02*
X0387598Y0099573D01*
X0387297Y0099985D02*
X0379945Y0105943D01*
X0379419Y0106160D02*
X0371652Y0106974D01*
X0371131Y0107188D02*
X0362749Y0113905D01*
X0362506Y0114189D02*
X0357684Y0122633D01*
X0357516Y0122850D02*
X0345598Y0134565D01*
X0345139Y0134822D02*
X0329479Y0138722D01*
X0329289Y0138750D02*
X0321570Y0139150D01*
X0321247Y0139222D02*
X0319932Y0139754D01*
X0317071Y0140226D01*
X0316643Y0140203D02*
X0314057Y0139492D01*
X0313573Y0139481D02*
X0298931Y0142758D01*
X0298575Y0142914D02*
X0297882Y0143400D01*
X0297493Y0143948D02*
X0296622Y0147036D01*
X0296621Y0147036D02*
X0296603Y0147094D01*
X0296582Y0147151D01*
X0296557Y0147206D01*
X0296528Y0147259D01*
X0296497Y0147311D01*
X0296462Y0147361D01*
X0296425Y0147408D01*
X0296384Y0147454D01*
X0296341Y0147496D01*
X0296296Y0147536D01*
X0296248Y0147573D01*
X0296198Y0147607D01*
X0296146Y0147639D01*
X0296092Y0147666D01*
X0296037Y0147691D01*
X0295980Y0147712D01*
X0295922Y0147730D01*
X0295863Y0147744D01*
X0295803Y0147755D01*
X0295743Y0147761D01*
X0295683Y0147765D01*
X0291046Y0147874D01*
X0290492Y0148057D02*
X0289356Y0148861D01*
X0287648Y0150674D01*
X0287050Y0150980D02*
X0234996Y0157775D01*
X0233808Y0158022D01*
X0233356Y0158114D01*
X0233111Y0158155D01*
X0219808Y0159840D01*
X0219463Y0159950D02*
X0217229Y0161142D01*
X0216957Y0161240D02*
X0180604Y0168610D01*
X0180174Y0168602D02*
X0174831Y0167331D01*
X0174832Y0167331D02*
X0174772Y0167319D01*
X0174711Y0167310D01*
X0174651Y0167305D01*
X0174590Y0167304D01*
X0174529Y0167307D01*
X0174468Y0167313D01*
X0174408Y0167323D01*
X0174349Y0167336D01*
X0174290Y0167353D01*
X0174233Y0167374D01*
X0174177Y0167398D01*
X0174122Y0167426D01*
X0174070Y0167456D01*
X0174019Y0167490D01*
X0173970Y0167527D01*
X0173924Y0167567D01*
X0173881Y0167609D01*
X0173840Y0167655D01*
X0173801Y0167702D01*
X0173766Y0167752D01*
X0173734Y0167804D01*
X0173705Y0167857D01*
X0173680Y0167913D01*
X0173658Y0167970D01*
X0173639Y0168028D01*
X0173639Y0168027D02*
X0173614Y0168114D01*
X0173613Y0168114D02*
X0173594Y0168173D01*
X0173572Y0168230D01*
X0173546Y0168286D01*
X0173517Y0168340D01*
X0173484Y0168392D01*
X0173449Y0168442D01*
X0173410Y0168490D01*
X0173369Y0168536D01*
X0173324Y0168578D01*
X0173278Y0168618D01*
X0173228Y0168655D01*
X0173177Y0168689D01*
X0173124Y0168720D01*
X0173069Y0168747D01*
X0173012Y0168771D01*
X0172954Y0168791D01*
X0172895Y0168808D01*
X0172835Y0168821D01*
X0172774Y0168831D01*
X0172713Y0168836D01*
X0172652Y0168838D01*
X0162111Y0168833D01*
X0161659Y0168725D02*
X0146351Y0160964D01*
X0145955Y0160858D02*
X0144207Y0160760D01*
X0142460Y0159653D01*
X0141901Y0159498D02*
X0140845Y0159522D01*
X0139613Y0159608D01*
X0136227Y0159336D01*
X0135930Y0159265D02*
X0132861Y0158014D01*
X0132429Y0157941D02*
X0122974Y0158455D01*
X0122177Y0158127D02*
X0121550Y0157432D01*
X0121193Y0157505D01*
X0120890Y0157519D02*
X0116351Y0157047D01*
X0113221Y0157191D01*
X0112639Y0157036D02*
X0111724Y0156454D01*
X0110759Y0155660D01*
X0110737Y0155642D02*
X0109907Y0154999D01*
X0109907Y0154998D02*
X0109904Y0154997D01*
X0109900Y0154997D01*
X0109901Y0154998D02*
X0109233Y0154928D01*
X0105362Y0155130D01*
X0104906Y0155046D02*
X0102773Y0154104D01*
X0102577Y0154041D02*
X0101480Y0153807D01*
X0101421Y0153793D01*
X0101364Y0153775D01*
X0101308Y0153754D01*
X0101253Y0153730D01*
X0101200Y0153702D01*
X0101149Y0153671D01*
X0101100Y0153638D01*
X0101052Y0153601D01*
X0101007Y0153561D01*
X0100965Y0153519D01*
X0100924Y0153475D01*
X0100887Y0153428D01*
X0100853Y0153379D01*
X0100821Y0153328D01*
X0100793Y0153275D01*
X0100768Y0153221D01*
X0100746Y0153165D01*
X0100728Y0153108D01*
X0098596Y0145773D01*
X0098270Y0145280D02*
X0069063Y0121311D01*
X0068767Y0121143D02*
X0064550Y0119627D01*
X0064058Y0119243D02*
X0054898Y0105600D01*
X0054764Y0105306D02*
X0053811Y0101814D01*
X0053792Y0101370D02*
X0054468Y0097687D01*
X0054201Y0096808D02*
X0053556Y0096147D01*
X0053322Y0095761D02*
X0047177Y0077080D01*
X0046965Y0076717D02*
X0034186Y0062741D01*
X0034022Y0062597D02*
X0025306Y0056490D01*
X0024781Y0056311D02*
X0017594Y0055963D01*
X0017087Y0055796D02*
X0006467Y0048693D01*
X0006417Y0048657D01*
X0006369Y0048618D01*
X0006323Y0048576D01*
X0006280Y0048531D01*
X0006240Y0048484D01*
X0006203Y0048435D01*
X0006169Y0048383D01*
X0006139Y0048329D01*
X0006111Y0048273D01*
X0006088Y0048216D01*
X0006068Y0048157D01*
X0006051Y0048098D01*
X0006038Y0048037D01*
X0006029Y0047976D01*
X0006024Y0047914D01*
X0006023Y0047852D01*
X0006026Y0047790D01*
X0006032Y0047729D01*
X0006042Y0047667D01*
X0006056Y0047607D01*
X0006074Y0047548D01*
X0006095Y0047490D01*
X0006120Y0047433D01*
X0006148Y0047378D01*
X0006180Y0047325D01*
X0006215Y0047273D01*
X0006253Y0047224D01*
X0006294Y0047178D01*
X0006337Y0047134D01*
X0006384Y0047093D01*
X0006433Y0047055D01*
X0006484Y0047020D01*
X0006537Y0046988D01*
X0006592Y0046960D01*
X0006649Y0046935D01*
X0006707Y0046913D01*
X0006766Y0046896D01*
X0006826Y0046882D01*
X0006887Y0046871D01*
X0010068Y0046436D01*
X0010126Y0046426D01*
X0010185Y0046413D01*
X0010242Y0046396D01*
X0010298Y0046376D01*
X0010353Y0046352D01*
X0010406Y0046325D01*
X0010458Y0046296D01*
X0010508Y0046263D01*
X0010555Y0046227D01*
X0010601Y0046188D01*
X0010644Y0046147D01*
X0010685Y0046103D01*
X0010723Y0046057D01*
X0010758Y0046009D01*
X0010790Y0045959D01*
X0010819Y0045907D01*
X0010845Y0045853D01*
X0010868Y0045798D01*
X0011232Y0044830D01*
X0011292Y0044375D02*
X0010967Y0041214D01*
X0010921Y0041002D02*
X0009536Y0036822D01*
X0009518Y0036762D01*
X0009504Y0036702D01*
X0009494Y0036640D01*
X0009488Y0036579D01*
X0009485Y0036517D01*
X0009486Y0036454D01*
X0009492Y0036393D01*
X0009501Y0036331D01*
X0009513Y0036270D01*
X0009530Y0036210D01*
X0009550Y0036152D01*
X0009574Y0036094D01*
X0009601Y0036039D01*
X0009632Y0035985D01*
X0009666Y0035933D01*
X0009704Y0035883D01*
X0009744Y0035836D01*
X0009787Y0035791D01*
X0009833Y0035749D01*
X0009881Y0035710D01*
X0009932Y0035674D01*
X0009985Y0035641D01*
X0010039Y0035612D01*
X0010096Y0035586D01*
X0010154Y0035564D01*
X0010213Y0035545D01*
X0010273Y0035530D01*
X0010334Y0035518D01*
X0010396Y0035511D01*
X0010458Y0035507D01*
X0010520Y0035508D01*
X0010582Y0035512D01*
X0010644Y0035520D01*
X0010705Y0035531D01*
X0010765Y0035547D01*
X0010824Y0035566D01*
X0010882Y0035589D01*
X0010938Y0035615D01*
X0015428Y0038243D02*
X0015480Y0038273D01*
X0015533Y0038300D01*
X0015589Y0038324D01*
X0015645Y0038344D01*
X0015703Y0038361D01*
X0015762Y0038375D01*
X0015821Y0038385D01*
X0015881Y0038391D01*
X0015941Y0038394D01*
X0016001Y0038393D01*
X0016061Y0038388D01*
X0016120Y0038380D01*
X0016179Y0038369D01*
X0016238Y0038354D01*
X0010921Y0041002D02*
X0010937Y0041054D01*
X0010950Y0041107D01*
X0010960Y0041161D01*
X0010967Y0041215D01*
X0011292Y0044376D02*
X0011296Y0044434D01*
X0011297Y0044491D01*
X0011294Y0044549D01*
X0011289Y0044607D01*
X0011280Y0044664D01*
X0011267Y0044720D01*
X0011252Y0044776D01*
X0011233Y0044831D01*
X0023950Y0036090D02*
X0024006Y0036076D01*
X0024062Y0036065D01*
X0024119Y0036056D01*
X0024176Y0036052D01*
X0024233Y0036050D01*
X0024290Y0036052D01*
X0024347Y0036057D01*
X0024404Y0036065D01*
X0024460Y0036076D01*
X0024515Y0036091D01*
X0057713Y0045895D02*
X0057766Y0045909D01*
X0057819Y0045920D01*
X0057873Y0045928D01*
X0057928Y0045934D01*
X0057982Y0045936D01*
X0058037Y0045935D01*
X0025306Y0056490D02*
X0025253Y0056456D01*
X0025199Y0056425D01*
X0025143Y0056397D01*
X0025085Y0056373D01*
X0025026Y0056353D01*
X0024966Y0056337D01*
X0024904Y0056324D01*
X0024843Y0056315D01*
X0024780Y0056310D01*
X0017595Y0055964D02*
X0017535Y0055959D01*
X0017475Y0055951D01*
X0017416Y0055939D01*
X0017358Y0055924D01*
X0017301Y0055905D01*
X0017245Y0055882D01*
X0017191Y0055857D01*
X0017138Y0055828D01*
X0017087Y0055796D01*
X0034022Y0062597D02*
X0034066Y0062630D01*
X0034108Y0062665D01*
X0034148Y0062702D01*
X0034186Y0062741D01*
X0046965Y0076717D02*
X0047004Y0076763D01*
X0047041Y0076811D01*
X0047075Y0076861D01*
X0047105Y0076913D01*
X0047132Y0076967D01*
X0047156Y0077023D01*
X0047177Y0077080D01*
X0053322Y0095761D02*
X0053341Y0095815D01*
X0053364Y0095867D01*
X0053389Y0095918D01*
X0053417Y0095968D01*
X0053448Y0096015D01*
X0053481Y0096061D01*
X0053517Y0096105D01*
X0053556Y0096147D01*
X0054201Y0096808D02*
X0054241Y0096852D01*
X0054279Y0096898D01*
X0054314Y0096946D01*
X0054346Y0096997D01*
X0054375Y0097049D01*
X0054400Y0097103D01*
X0054423Y0097158D01*
X0054442Y0097215D01*
X0054457Y0097272D01*
X0054470Y0097331D01*
X0054478Y0097390D01*
X0054483Y0097449D01*
X0054485Y0097509D01*
X0054483Y0097568D01*
X0054478Y0097628D01*
X0054469Y0097687D01*
X0053791Y0101370D02*
X0053783Y0101426D01*
X0053777Y0101481D01*
X0053775Y0101537D01*
X0053776Y0101593D01*
X0053780Y0101649D01*
X0053787Y0101705D01*
X0053797Y0101760D01*
X0053810Y0101814D01*
X0054764Y0105305D02*
X0054780Y0105357D01*
X0054798Y0105408D01*
X0054820Y0105458D01*
X0054843Y0105506D01*
X0054870Y0105554D01*
X0054899Y0105599D01*
X0064058Y0119243D02*
X0064091Y0119290D01*
X0064127Y0119335D01*
X0064166Y0119378D01*
X0064207Y0119418D01*
X0064251Y0119456D01*
X0064296Y0119492D01*
X0064343Y0119525D01*
X0064393Y0119555D01*
X0064444Y0119582D01*
X0064496Y0119606D01*
X0064550Y0119627D01*
X0068767Y0121143D02*
X0068820Y0121164D01*
X0068872Y0121188D01*
X0068923Y0121214D01*
X0068971Y0121244D01*
X0069018Y0121276D01*
X0069063Y0121311D01*
X0098270Y0145280D02*
X0098316Y0145319D01*
X0098358Y0145362D01*
X0098399Y0145406D01*
X0098436Y0145453D01*
X0098471Y0145502D01*
X0098502Y0145553D01*
X0098531Y0145606D01*
X0098556Y0145661D01*
X0098578Y0145717D01*
X0098596Y0145774D01*
X0102577Y0154041D02*
X0102627Y0154053D01*
X0102677Y0154068D01*
X0102725Y0154085D01*
X0102773Y0154104D01*
X0104906Y0155046D02*
X0104960Y0155068D01*
X0105015Y0155087D01*
X0105072Y0155102D01*
X0105129Y0155115D01*
X0105187Y0155123D01*
X0105245Y0155129D01*
X0105304Y0155131D01*
X0105362Y0155130D01*
X0110737Y0155643D02*
X0110759Y0155661D01*
X0112638Y0157036D02*
X0112691Y0157067D01*
X0112746Y0157095D01*
X0112802Y0157120D01*
X0112859Y0157141D01*
X0112918Y0157158D01*
X0112977Y0157172D01*
X0113038Y0157183D01*
X0113099Y0157189D01*
X0113160Y0157192D01*
X0113221Y0157191D01*
X0120890Y0157520D02*
X0120950Y0157524D01*
X0121011Y0157525D01*
X0121072Y0157522D01*
X0121132Y0157515D01*
X0121192Y0157505D01*
X0122177Y0158127D02*
X0122219Y0158170D01*
X0122262Y0158210D01*
X0122308Y0158248D01*
X0122356Y0158283D01*
X0122406Y0158315D01*
X0122458Y0158344D01*
X0122511Y0158370D01*
X0122566Y0158392D01*
X0122622Y0158412D01*
X0122680Y0158428D01*
X0122738Y0158440D01*
X0122796Y0158449D01*
X0122856Y0158455D01*
X0122915Y0158457D01*
X0122974Y0158456D01*
X0132430Y0157941D02*
X0132485Y0157940D01*
X0132540Y0157942D01*
X0132595Y0157946D01*
X0132650Y0157954D01*
X0132704Y0157964D01*
X0132757Y0157978D01*
X0132810Y0157995D01*
X0132862Y0158014D01*
X0135929Y0159266D02*
X0135987Y0159287D01*
X0136046Y0159305D01*
X0136105Y0159319D01*
X0136166Y0159330D01*
X0136227Y0159337D01*
X0141902Y0159498D02*
X0141961Y0159499D01*
X0142019Y0159502D01*
X0142078Y0159510D01*
X0142136Y0159520D01*
X0142193Y0159534D01*
X0142249Y0159552D01*
X0142304Y0159573D01*
X0142358Y0159596D01*
X0142410Y0159623D01*
X0142460Y0159653D01*
X0145955Y0160858D02*
X0146013Y0160863D01*
X0146072Y0160871D01*
X0146130Y0160883D01*
X0146187Y0160898D01*
X0146243Y0160917D01*
X0146298Y0160939D01*
X0146351Y0160964D01*
X0161659Y0168725D02*
X0161712Y0168750D01*
X0161766Y0168772D01*
X0161822Y0168790D01*
X0161878Y0168806D01*
X0161936Y0168818D01*
X0161994Y0168826D01*
X0162052Y0168831D01*
X0162111Y0168833D01*
X0180174Y0168603D02*
X0180235Y0168615D01*
X0180296Y0168624D01*
X0180358Y0168629D01*
X0180420Y0168630D01*
X0180482Y0168627D01*
X0180544Y0168620D01*
X0180605Y0168610D01*
X0216957Y0161240D02*
X0217013Y0161227D01*
X0217069Y0161210D01*
X0217123Y0161191D01*
X0217177Y0161168D01*
X0217229Y0161142D01*
X0219462Y0159950D02*
X0219517Y0159923D01*
X0219573Y0159899D01*
X0219630Y0159879D01*
X0219688Y0159862D01*
X0219747Y0159849D01*
X0219807Y0159840D01*
X0287049Y0150980D02*
X0287111Y0150970D01*
X0287172Y0150956D01*
X0287232Y0150938D01*
X0287290Y0150917D01*
X0287347Y0150892D01*
X0287403Y0150864D01*
X0287456Y0150832D01*
X0287508Y0150797D01*
X0287557Y0150759D01*
X0287604Y0150718D01*
X0287648Y0150674D01*
X0290491Y0148058D02*
X0290541Y0148025D01*
X0290592Y0147995D01*
X0290645Y0147968D01*
X0290699Y0147945D01*
X0290755Y0147925D01*
X0290812Y0147908D01*
X0290869Y0147894D01*
X0290927Y0147884D01*
X0290986Y0147877D01*
X0291045Y0147874D01*
X0297493Y0143948D02*
X0297511Y0143888D01*
X0297534Y0143830D01*
X0297560Y0143774D01*
X0297589Y0143719D01*
X0297622Y0143666D01*
X0297658Y0143615D01*
X0297697Y0143566D01*
X0297739Y0143521D01*
X0297784Y0143477D01*
X0297832Y0143437D01*
X0297882Y0143400D01*
X0298576Y0142915D02*
X0298622Y0142884D01*
X0298670Y0142856D01*
X0298720Y0142831D01*
X0298771Y0142808D01*
X0298823Y0142789D01*
X0298877Y0142772D01*
X0298931Y0142758D01*
X0313574Y0139480D02*
X0313634Y0139469D01*
X0313694Y0139461D01*
X0313755Y0139457D01*
X0313816Y0139456D01*
X0313877Y0139460D01*
X0313938Y0139467D01*
X0313998Y0139477D01*
X0314057Y0139492D01*
X0316643Y0140203D02*
X0316703Y0140218D01*
X0316764Y0140229D01*
X0316825Y0140236D01*
X0316886Y0140239D01*
X0316948Y0140238D01*
X0317010Y0140234D01*
X0317071Y0140226D01*
X0321247Y0139222D02*
X0321299Y0139203D01*
X0321352Y0139186D01*
X0321406Y0139173D01*
X0321460Y0139162D01*
X0321515Y0139155D01*
X0321570Y0139150D01*
X0329290Y0138751D02*
X0329338Y0138747D01*
X0329385Y0138741D01*
X0329433Y0138733D01*
X0329480Y0138722D01*
X0345139Y0134822D02*
X0345196Y0134806D01*
X0345252Y0134787D01*
X0345306Y0134764D01*
X0345360Y0134739D01*
X0345411Y0134710D01*
X0345461Y0134678D01*
X0345509Y0134643D01*
X0345555Y0134605D01*
X0345598Y0134565D01*
X0357516Y0122850D02*
X0357554Y0122811D01*
X0357590Y0122769D01*
X0357624Y0122725D01*
X0357655Y0122680D01*
X0357683Y0122633D01*
X0362507Y0114189D02*
X0362539Y0114136D01*
X0362576Y0114084D01*
X0362615Y0114035D01*
X0362657Y0113989D01*
X0362702Y0113945D01*
X0362750Y0113905D01*
X0371131Y0107188D02*
X0371176Y0107153D01*
X0371224Y0107121D01*
X0371273Y0107092D01*
X0371324Y0107066D01*
X0371376Y0107043D01*
X0371429Y0107023D01*
X0371484Y0107006D01*
X0371539Y0106992D01*
X0371595Y0106981D01*
X0371652Y0106973D01*
X0379419Y0106161D02*
X0379476Y0106153D01*
X0379533Y0106142D01*
X0379589Y0106128D01*
X0379644Y0106110D01*
X0379698Y0106090D01*
X0379750Y0106066D01*
X0379801Y0106040D01*
X0379851Y0106010D01*
X0379899Y0105978D01*
X0379945Y0105943D01*
X0387297Y0099985D02*
X0387340Y0099948D01*
X0387381Y0099908D01*
X0387420Y0099865D01*
X0387457Y0099821D01*
X0387491Y0099775D01*
X0387522Y0099727D01*
X0387550Y0099677D01*
X0387576Y0099625D01*
X0387598Y0099572D01*
X0389449Y0094842D02*
X0389470Y0094784D01*
X0389487Y0094724D01*
X0389501Y0094664D01*
X0389510Y0094602D01*
X0389516Y0094541D01*
X0389518Y0094479D01*
X0389516Y0094417D01*
X0389510Y0094355D01*
X0389501Y0094294D01*
X0389488Y0094233D01*
X0389470Y0094173D01*
X0389450Y0094115D01*
X0389425Y0094058D01*
X0381920Y0079457D02*
X0381871Y0079422D01*
X0381824Y0079383D01*
X0381779Y0079342D01*
X0381737Y0079298D01*
X0381698Y0079251D01*
X0381662Y0079202D01*
X0381629Y0079151D01*
X0381599Y0079098D01*
X0381572Y0079044D01*
X0381548Y0078988D01*
X0381528Y0078930D01*
X0381512Y0078872D01*
X0380763Y0066359D02*
X0380754Y0066300D01*
X0380749Y0066240D01*
X0380747Y0066181D01*
X0380749Y0066121D01*
X0380754Y0066062D01*
X0380763Y0066003D01*
X0380776Y0065945D01*
X0380792Y0065888D01*
X0375963Y0052390D02*
X0375911Y0052357D01*
X0375861Y0052320D01*
X0375814Y0052280D01*
X0375769Y0052237D01*
X0375727Y0052192D01*
X0375688Y0052144D01*
X0375652Y0052093D01*
X0375619Y0052041D01*
X0375589Y0051986D01*
X0375563Y0051930D01*
X0375540Y0051873D01*
X0374545Y0049091D02*
X0374527Y0049034D01*
X0374512Y0048976D01*
X0374500Y0048918D01*
X0374492Y0048858D01*
X0374488Y0048799D01*
X0374487Y0048739D01*
X0374490Y0048680D01*
X0374496Y0048620D01*
X0374506Y0048561D01*
X0375008Y0046005D02*
X0375018Y0045949D01*
X0375024Y0045892D01*
X0375027Y0045836D01*
X0375026Y0045779D01*
X0375023Y0045722D01*
X0375016Y0045666D01*
X0375006Y0045610D01*
X0374993Y0045555D01*
X0364643Y0050370D02*
X0364600Y0050398D01*
X0364555Y0050423D01*
X0364509Y0050445D01*
X0364462Y0050466D01*
X0364414Y0050484D01*
X0356959Y0053047D02*
X0356902Y0053064D01*
X0356844Y0053079D01*
X0356785Y0053090D01*
X0356725Y0053097D01*
X0356665Y0053101D01*
X0346136Y0053430D02*
X0346079Y0053430D01*
X0346022Y0053427D01*
X0345965Y0053420D01*
X0345909Y0053411D01*
X0345853Y0053398D01*
X0345799Y0053382D01*
X0345745Y0053363D01*
X0345692Y0053341D01*
X0345641Y0053316D01*
X0334318Y0047381D02*
X0334267Y0047352D01*
X0334218Y0047321D01*
X0334171Y0047287D01*
X0334126Y0047250D01*
X0334084Y0047211D01*
X0328838Y0042091D02*
X0328796Y0042053D01*
X0328752Y0042016D01*
X0328706Y0041983D01*
X0328658Y0041952D01*
X0328608Y0041923D01*
X0328557Y0041898D01*
X0328504Y0041876D01*
X0328450Y0041856D01*
X0328395Y0041840D01*
X0325512Y0040714D02*
X0325474Y0040683D01*
X0325438Y0040650D01*
X0325403Y0040615D01*
X0325370Y0040578D01*
X0325128Y0040295D02*
X0325088Y0040251D01*
X0325045Y0040209D01*
X0325000Y0040170D01*
X0324953Y0040134D01*
X0324903Y0040100D01*
X0324852Y0040070D01*
X0324799Y0040043D01*
X0324745Y0040019D01*
X0324689Y0039998D01*
X0324632Y0039980D01*
X0321985Y0039256D02*
X0321935Y0039244D01*
X0321885Y0039235D01*
X0321834Y0039227D01*
X0321783Y0039223D01*
X0321732Y0039221D01*
X0314942Y0039147D02*
X0314885Y0039145D01*
X0314828Y0039139D01*
X0312727Y0038874D02*
X0312698Y0038897D01*
X0312668Y0038918D01*
X0312635Y0038936D01*
X0312602Y0038951D01*
X0312567Y0038964D01*
X0312531Y0038973D01*
X0303214Y0040996D02*
X0303155Y0041007D01*
X0303096Y0041015D01*
X0303036Y0041018D01*
X0302977Y0041019D01*
X0302917Y0041015D01*
X0290801Y0039981D02*
X0290746Y0039977D01*
X0290691Y0039977D01*
X0290636Y0039980D01*
X0290581Y0039986D01*
X0290527Y0039995D01*
X0290473Y0040007D01*
X0290420Y0040022D01*
X0274927Y0044825D02*
X0274874Y0044840D01*
X0274820Y0044852D01*
X0274765Y0044861D01*
X0274710Y0044867D01*
X0274655Y0044870D01*
X0274600Y0044870D01*
X0274545Y0044866D01*
X0267171Y0044228D02*
X0267116Y0044224D01*
X0267061Y0044224D01*
X0267005Y0044227D01*
X0266950Y0044233D01*
X0266896Y0044242D01*
X0266842Y0044254D01*
X0266788Y0044269D01*
X0263656Y0045242D02*
X0263597Y0045258D01*
X0263537Y0045271D01*
X0263476Y0045280D01*
X0263415Y0045285D01*
X0263354Y0045287D01*
X0263292Y0045285D01*
X0263231Y0045279D01*
X0263171Y0045269D01*
X0263111Y0045256D01*
X0263052Y0045239D01*
X0262994Y0045218D01*
X0262938Y0045194D01*
X0262883Y0045166D01*
X0262830Y0045135D01*
X0262779Y0045101D01*
X0262730Y0045064D01*
X0262683Y0045024D01*
X0257327Y0040116D02*
X0257280Y0040076D01*
X0257231Y0040039D01*
X0257180Y0040005D01*
X0257127Y0039974D01*
X0257072Y0039946D01*
X0257016Y0039922D01*
X0256958Y0039901D01*
X0256899Y0039884D01*
X0256839Y0039871D01*
X0256779Y0039861D01*
X0256718Y0039855D01*
X0256656Y0039853D01*
X0256595Y0039855D01*
X0256534Y0039860D01*
X0256473Y0039869D01*
X0249763Y0041080D02*
X0249706Y0041089D01*
X0249649Y0041094D01*
X0249592Y0041096D01*
X0249534Y0041095D01*
X0249477Y0041090D01*
X0165688Y0032001D02*
X0165631Y0031993D01*
X0165574Y0031982D01*
X0165517Y0031967D01*
X0165462Y0031950D01*
X0152600Y0031348D02*
X0152558Y0031391D01*
X0152513Y0031431D01*
X0152466Y0031468D01*
X0152417Y0031503D01*
X0152365Y0031534D01*
X0152312Y0031562D01*
X0152258Y0031587D01*
X0152202Y0031609D01*
X0152144Y0031627D01*
X0152086Y0031642D01*
X0152027Y0031653D01*
X0151967Y0031661D01*
X0151907Y0031665D01*
X0137908Y0032201D02*
X0137856Y0032204D01*
X0137804Y0032210D01*
X0123629Y0034237D02*
X0123576Y0034246D01*
X0123523Y0034258D01*
X0123471Y0034273D01*
X0123420Y0034291D01*
X0123370Y0034311D01*
X0123321Y0034334D01*
X0118820Y0036601D02*
X0118765Y0036627D01*
X0118708Y0036649D01*
X0118651Y0036668D01*
X0118592Y0036683D01*
X0118532Y0036695D01*
X0118472Y0036703D01*
X0118412Y0036707D01*
X0118351Y0036708D01*
X0112080Y0036861D02*
X0112024Y0036871D01*
X0111969Y0036884D01*
X0111914Y0036900D01*
X0111861Y0036919D01*
X0111808Y0036942D01*
X0096227Y0044278D02*
X0096173Y0044302D01*
X0096118Y0044323D01*
X0096062Y0044341D01*
X0096005Y0044355D01*
X0095947Y0044366D01*
X0095889Y0044374D01*
X0095830Y0044378D01*
D11*
X0275909Y0068362D02*
X0275909Y0086079D01*
X0275909Y0068362D02*
X0276303Y0068362D01*
X0102288Y0154582D02*
X0102171Y0154521D01*
X0102056Y0154457D01*
X0101943Y0154389D01*
X0101833Y0154318D01*
X0101724Y0154243D01*
X0101618Y0154166D01*
X0101514Y0154085D01*
X0101412Y0154002D01*
X0101313Y0153915D01*
X0101217Y0153825D01*
X0101123Y0153733D01*
X0101032Y0153638D01*
X0100944Y0153540D01*
X0100859Y0153439D01*
X0100777Y0153337D01*
X0100698Y0153231D01*
X0100623Y0153124D01*
X0100550Y0153014D01*
X0100481Y0152902D01*
X0100415Y0152788D01*
X0100352Y0152672D01*
X0100293Y0152555D01*
X0100238Y0152435D01*
X0100186Y0152315D01*
X0100138Y0152192D01*
X0100093Y0152068D01*
X0100052Y0151943D01*
X0100015Y0151817D01*
X0099981Y0151690D01*
X0099952Y0151562D01*
X0099926Y0151433D01*
D12*
X0174335Y0154583D03*
X0174335Y0134897D03*
X0187801Y0070850D03*
X0207486Y0070850D03*
X0216190Y0071001D03*
X0235875Y0071001D03*
X0186933Y0060882D03*
X0186933Y0041197D03*
X0111343Y0067575D03*
X0091657Y0067575D03*
D13*
X0226231Y0126142D03*
X0236231Y0126142D03*
X0235231Y0136142D03*
X0225231Y0136142D03*
X0226231Y0146142D03*
X0236231Y0146142D03*
D14*
X0249846Y0141984D03*
X0250004Y0131748D03*
X0290004Y0131748D03*
X0289846Y0141984D03*
X0348744Y0119701D03*
X0348744Y0109701D03*
X0338946Y0101543D03*
X0338946Y0091543D03*
X0297322Y0082692D03*
X0297322Y0072692D03*
X0286850Y0068460D03*
X0276303Y0068362D03*
X0276303Y0058362D03*
X0286850Y0058460D03*
X0175394Y0061359D03*
X0175394Y0071359D03*
X0163549Y0072251D03*
X0153549Y0072251D03*
X0143632Y0071889D03*
X0133632Y0071889D03*
X0105831Y0055764D03*
X0095831Y0056764D03*
X0085831Y0055764D03*
X0075831Y0056764D03*
X0065831Y0055764D03*
X0055831Y0056764D03*
X0043497Y0057183D03*
X0034100Y0053763D03*
X0021151Y0051001D03*
X0024571Y0041604D03*
X0057046Y0066352D03*
X0082646Y0066352D03*
X0102681Y0081354D03*
X0082646Y0084152D03*
X0102681Y0091354D03*
X0102615Y0102378D03*
X0102615Y0112378D03*
X0117878Y0122693D03*
X0127878Y0122693D03*
X0136933Y0122693D03*
X0149138Y0123323D03*
X0157917Y0127417D03*
X0167917Y0127417D03*
X0149138Y0133323D03*
X0136933Y0132693D03*
X0057046Y0084152D03*
D15*
X0113737Y0085030D02*
X0113737Y0079830D01*
X0123737Y0079830D02*
X0123737Y0085030D01*
X0133737Y0085030D02*
X0133737Y0079830D01*
X0143737Y0079830D02*
X0143737Y0085030D01*
X0153737Y0085030D02*
X0153737Y0079830D01*
X0163737Y0079830D02*
X0163737Y0085030D01*
X0173737Y0085030D02*
X0173737Y0079830D01*
X0183737Y0079830D02*
X0183737Y0085030D01*
X0193737Y0085030D02*
X0193737Y0079830D01*
X0203737Y0079830D02*
X0203737Y0085030D01*
X0213737Y0085030D02*
X0213737Y0079830D01*
X0223737Y0079830D02*
X0223737Y0085030D01*
X0233737Y0085030D02*
X0233737Y0079830D01*
X0243737Y0079830D02*
X0243737Y0085030D01*
X0243737Y0109830D02*
X0243737Y0115030D01*
X0233737Y0115030D02*
X0233737Y0109830D01*
X0223737Y0109830D02*
X0223737Y0115030D01*
X0213737Y0115030D02*
X0213737Y0109830D01*
X0203737Y0109830D02*
X0203737Y0115030D01*
X0193737Y0115030D02*
X0193737Y0109830D01*
X0183737Y0109830D02*
X0183737Y0115030D01*
X0173737Y0115030D02*
X0173737Y0109830D01*
X0163737Y0109830D02*
X0163737Y0115030D01*
X0153737Y0115030D02*
X0153737Y0109830D01*
X0143737Y0109830D02*
X0143737Y0115030D01*
X0133737Y0115030D02*
X0133737Y0109830D01*
X0123737Y0109830D02*
X0123737Y0115030D01*
X0113737Y0115030D02*
X0113737Y0109830D01*
X0324173Y0100660D02*
X0329373Y0100660D01*
X0329373Y0090660D02*
X0324173Y0090660D01*
X0324173Y0080660D02*
X0329373Y0080660D01*
D16*
X0221385Y0050661D03*
X0202385Y0050661D03*
D17*
X0251085Y0057836D03*
X0322950Y0059247D03*
X0356129Y0080974D03*
X0316758Y0121746D03*
X0157263Y0148595D03*
X0114609Y0140432D03*
X0079780Y0110331D03*
D18*
X0263034Y0122977D03*
X0272877Y0122977D03*
X0282719Y0122977D03*
D19*
X0290199Y0095418D03*
X0255554Y0095418D03*
D20*
X0306618Y0093283D03*
X0214042Y0123195D03*
X0214042Y0133195D03*
X0214042Y0143195D03*
X0214042Y0153195D03*
X0184042Y0153195D03*
X0184042Y0143195D03*
X0184042Y0133195D03*
X0184042Y0123195D03*
D21*
X0306618Y0103283D03*
D22*
X0338508Y0112181D03*
X0338508Y0122181D03*
X0165673Y0049346D03*
X0165673Y0039346D03*
X0120004Y0055882D03*
X0120004Y0065882D03*
D23*
X0127681Y0061744D02*
X0127681Y0056744D01*
X0127681Y0042744D02*
X0127681Y0037744D01*
X0157996Y0037744D02*
X0157996Y0042744D01*
X0157996Y0056744D02*
X0157996Y0061744D01*
D24*
X0148839Y0064244D03*
X0142839Y0064244D03*
X0145791Y0059244D03*
X0139886Y0059244D03*
X0136839Y0064244D03*
D25*
X0133099Y0062819D02*
X0131546Y0062819D01*
X0131527Y0062911D02*
X0131226Y0063639D01*
X0130788Y0064294D01*
X0130231Y0064851D01*
X0129576Y0065289D01*
X0128848Y0065590D01*
X0128075Y0065744D01*
X0127870Y0065744D01*
X0127870Y0059433D01*
X0127492Y0059433D01*
X0127492Y0059055D01*
X0123681Y0059055D01*
X0123681Y0058003D01*
X0121702Y0059982D01*
X0120304Y0059982D01*
X0120304Y0056182D01*
X0119704Y0056182D01*
X0119704Y0059982D01*
X0118306Y0059982D01*
X0115904Y0057580D01*
X0115904Y0056182D01*
X0119704Y0056182D01*
X0119704Y0055582D01*
X0115904Y0055582D01*
X0115904Y0054183D01*
X0118306Y0051782D01*
X0119704Y0051782D01*
X0119704Y0055582D01*
X0120304Y0055582D01*
X0120304Y0051782D01*
X0121702Y0051782D01*
X0124104Y0054183D01*
X0124104Y0054927D01*
X0124136Y0054849D01*
X0124574Y0054194D01*
X0125131Y0053637D01*
X0125786Y0053199D01*
X0126514Y0052898D01*
X0127287Y0052744D01*
X0127492Y0052744D01*
X0127492Y0059055D01*
X0127870Y0059055D01*
X0127870Y0052744D01*
X0128075Y0052744D01*
X0128848Y0052898D01*
X0129576Y0053199D01*
X0130231Y0053637D01*
X0130788Y0054194D01*
X0131226Y0054849D01*
X0131527Y0055577D01*
X0131681Y0056350D01*
X0131681Y0059055D01*
X0127870Y0059055D01*
X0127870Y0059433D01*
X0131681Y0059433D01*
X0131681Y0062138D01*
X0131527Y0062911D01*
X0131519Y0062931D02*
X0131519Y0067136D01*
X0130686Y0067481D02*
X0132597Y0066689D01*
X0133627Y0066689D01*
X0133448Y0066510D01*
X0132839Y0065040D01*
X0132839Y0063448D01*
X0133448Y0061978D01*
X0134573Y0060853D01*
X0135981Y0060270D01*
X0135886Y0060040D01*
X0135886Y0058448D01*
X0136495Y0056978D01*
X0137620Y0055853D01*
X0137786Y0055784D01*
X0137786Y0048301D01*
X0137751Y0048266D01*
X0137333Y0047256D01*
X0137333Y0046161D01*
X0137751Y0045151D01*
X0138525Y0044377D01*
X0139536Y0043959D01*
X0140630Y0043959D01*
X0141640Y0044377D01*
X0142414Y0045151D01*
X0142833Y0046161D01*
X0142833Y0047256D01*
X0142414Y0048266D01*
X0141986Y0048694D01*
X0141986Y0055784D01*
X0142152Y0055853D01*
X0142839Y0056540D01*
X0143526Y0055853D01*
X0144996Y0055244D01*
X0146587Y0055244D01*
X0148057Y0055853D01*
X0149182Y0056978D01*
X0149791Y0058448D01*
X0149791Y0060040D01*
X0149671Y0060331D01*
X0150005Y0060398D01*
X0150733Y0060699D01*
X0151388Y0061137D01*
X0151946Y0061694D01*
X0152383Y0062349D01*
X0152685Y0063077D01*
X0152839Y0063850D01*
X0152839Y0064119D01*
X0148964Y0064119D01*
X0148964Y0064369D01*
X0152839Y0064369D01*
X0152839Y0064638D01*
X0152685Y0065411D01*
X0152383Y0066139D01*
X0151946Y0066794D01*
X0151388Y0067351D01*
X0150733Y0067789D01*
X0150005Y0068090D01*
X0149233Y0068244D01*
X0148964Y0068244D01*
X0148964Y0064369D01*
X0148714Y0064369D01*
X0148714Y0068244D01*
X0148445Y0068244D01*
X0147672Y0068090D01*
X0146944Y0067789D01*
X0146766Y0067670D01*
X0148040Y0068944D01*
X0148665Y0070453D01*
X0149140Y0069306D01*
X0150603Y0067843D01*
X0152514Y0067051D01*
X0154583Y0067051D01*
X0156494Y0067843D01*
X0157957Y0069306D01*
X0158549Y0070734D01*
X0159140Y0069306D01*
X0160603Y0067843D01*
X0162514Y0067051D01*
X0164583Y0067051D01*
X0166411Y0067808D01*
X0170624Y0063431D01*
X0170194Y0062394D01*
X0170194Y0060325D01*
X0170986Y0058414D01*
X0172449Y0056951D01*
X0174360Y0056159D01*
X0176429Y0056159D01*
X0178340Y0056951D01*
X0179803Y0058414D01*
X0180594Y0060325D01*
X0180594Y0062394D01*
X0179803Y0064305D01*
X0178340Y0065768D01*
X0176911Y0066359D01*
X0178340Y0066951D01*
X0179803Y0068414D01*
X0180594Y0070325D01*
X0180594Y0072394D01*
X0179803Y0074305D01*
X0178340Y0075768D01*
X0176429Y0076559D01*
X0176264Y0076559D01*
X0177213Y0077508D01*
X0177837Y0079014D01*
X0177837Y0085846D01*
X0177615Y0086383D01*
X0190024Y0100539D01*
X0194996Y0105914D01*
X0196059Y0106354D01*
X0197213Y0107508D01*
X0197837Y0109014D01*
X0197837Y0115846D01*
X0197213Y0117352D01*
X0196059Y0118506D01*
X0194553Y0119130D01*
X0192921Y0119130D01*
X0191415Y0118506D01*
X0190261Y0117352D01*
X0189637Y0115846D01*
X0189637Y0109251D01*
X0185834Y0105140D01*
X0185796Y0105121D01*
X0185417Y0104689D01*
X0185026Y0104266D01*
X0185011Y0104226D01*
X0171473Y0088782D01*
X0171109Y0088418D01*
X0171069Y0088321D01*
X0170999Y0088242D01*
X0170922Y0088013D01*
X0170261Y0087352D01*
X0169637Y0085846D01*
X0169637Y0079014D01*
X0170261Y0077508D01*
X0171415Y0076354D01*
X0172640Y0075847D01*
X0172449Y0075768D01*
X0170986Y0074305D01*
X0170194Y0072394D01*
X0170194Y0070325D01*
X0170688Y0069133D01*
X0168729Y0071169D01*
X0168749Y0071217D01*
X0168749Y0073285D01*
X0167957Y0075197D01*
X0166494Y0076659D01*
X0166403Y0076697D01*
X0167213Y0077508D01*
X0167837Y0079014D01*
X0167837Y0085846D01*
X0167213Y0087352D01*
X0166059Y0088506D01*
X0164553Y0089130D01*
X0162921Y0089130D01*
X0161415Y0088506D01*
X0160261Y0087352D01*
X0159637Y0085846D01*
X0159637Y0079014D01*
X0160261Y0077508D01*
X0160961Y0076808D01*
X0160603Y0076659D01*
X0159140Y0075197D01*
X0158549Y0073768D01*
X0157957Y0075197D01*
X0156494Y0076659D01*
X0156403Y0076697D01*
X0157213Y0077508D01*
X0157837Y0079014D01*
X0157837Y0085846D01*
X0157213Y0087352D01*
X0156059Y0088506D01*
X0154553Y0089130D01*
X0152921Y0089130D01*
X0151415Y0088506D01*
X0150261Y0087352D01*
X0149637Y0085846D01*
X0149637Y0079014D01*
X0150261Y0077508D01*
X0150961Y0076808D01*
X0150603Y0076659D01*
X0149140Y0075197D01*
X0148515Y0073687D01*
X0148040Y0074835D01*
X0146577Y0076298D01*
X0146171Y0076466D01*
X0147213Y0077508D01*
X0147837Y0079014D01*
X0147837Y0085846D01*
X0147213Y0087352D01*
X0146059Y0088506D01*
X0144553Y0089130D01*
X0142921Y0089130D01*
X0141415Y0088506D01*
X0140261Y0087352D01*
X0139637Y0085846D01*
X0139637Y0079014D01*
X0140261Y0077508D01*
X0141241Y0076528D01*
X0140686Y0076298D01*
X0139223Y0074835D01*
X0138632Y0073406D01*
X0138040Y0074835D01*
X0136577Y0076298D01*
X0136171Y0076466D01*
X0137213Y0077508D01*
X0137837Y0079014D01*
X0137837Y0085846D01*
X0137213Y0087352D01*
X0136059Y0088506D01*
X0134553Y0089130D01*
X0132921Y0089130D01*
X0131415Y0088506D01*
X0130261Y0087352D01*
X0129637Y0085846D01*
X0129637Y0079014D01*
X0130261Y0077508D01*
X0131241Y0076528D01*
X0130686Y0076298D01*
X0129223Y0074835D01*
X0128432Y0072924D01*
X0128432Y0070855D01*
X0129223Y0068944D01*
X0130686Y0067481D01*
X0129109Y0069219D02*
X0122465Y0069219D01*
X0121919Y0069765D02*
X0121919Y0076145D01*
X0121415Y0076354D02*
X0122921Y0075730D01*
X0124553Y0075730D01*
X0126059Y0076354D01*
X0127213Y0077508D01*
X0127837Y0079014D01*
X0127837Y0085846D01*
X0127213Y0087352D01*
X0126059Y0088506D01*
X0124553Y0089130D01*
X0122921Y0089130D01*
X0121415Y0088506D01*
X0120261Y0087352D01*
X0119637Y0085846D01*
X0119637Y0079014D01*
X0120261Y0077508D01*
X0121415Y0076354D01*
X0119718Y0078819D02*
X0117756Y0078819D01*
X0117837Y0079014D02*
X0117837Y0085846D01*
X0117213Y0087352D01*
X0116059Y0088506D01*
X0114553Y0089130D01*
X0112921Y0089130D01*
X0111415Y0088506D01*
X0110261Y0087352D01*
X0109637Y0085846D01*
X0109637Y0079014D01*
X0110261Y0077508D01*
X0111415Y0076354D01*
X0112921Y0075730D01*
X0114553Y0075730D01*
X0116059Y0076354D01*
X0117213Y0077508D01*
X0117837Y0079014D01*
X0115519Y0076130D02*
X0115519Y0069904D01*
X0115369Y0070265D02*
X0116093Y0068519D01*
X0116093Y0067769D01*
X0118306Y0069982D01*
X0121702Y0069982D01*
X0124104Y0067580D01*
X0124104Y0064183D01*
X0121702Y0061782D01*
X0118306Y0061782D01*
X0115904Y0064183D01*
X0115904Y0066175D01*
X0115369Y0064884D01*
X0114033Y0063548D01*
X0112287Y0062825D01*
X0110398Y0062825D01*
X0108652Y0063548D01*
X0107316Y0064884D01*
X0106593Y0066630D01*
X0106593Y0068519D01*
X0107316Y0070265D01*
X0108652Y0071601D01*
X0110398Y0072325D01*
X0112287Y0072325D01*
X0114033Y0071601D01*
X0115369Y0070265D01*
X0115803Y0069219D02*
X0117543Y0069219D01*
X0118719Y0069982D02*
X0118719Y0117493D01*
X0118912Y0117493D02*
X0120824Y0118284D01*
X0122286Y0119747D01*
X0122878Y0121176D01*
X0123470Y0119747D01*
X0124087Y0119130D01*
X0122921Y0119130D01*
X0121415Y0118506D01*
X0120261Y0117352D01*
X0119637Y0115846D01*
X0119637Y0109014D01*
X0120261Y0107508D01*
X0121415Y0106354D01*
X0122921Y0105730D01*
X0124553Y0105730D01*
X0126059Y0106354D01*
X0127213Y0107508D01*
X0127837Y0109014D01*
X0127837Y0115846D01*
X0127213Y0117352D01*
X0127073Y0117493D01*
X0128912Y0117493D01*
X0130824Y0118284D01*
X0132286Y0119747D01*
X0132405Y0120035D01*
X0132525Y0119747D01*
X0133142Y0119130D01*
X0132921Y0119130D01*
X0131415Y0118506D01*
X0130261Y0117352D01*
X0129637Y0115846D01*
X0129637Y0109014D01*
X0130261Y0107508D01*
X0131415Y0106354D01*
X0132921Y0105730D01*
X0134553Y0105730D01*
X0136059Y0106354D01*
X0137213Y0107508D01*
X0137837Y0109014D01*
X0137837Y0115846D01*
X0137213Y0117352D01*
X0137073Y0117493D01*
X0137967Y0117493D01*
X0139879Y0118284D01*
X0141341Y0119747D01*
X0142133Y0121658D01*
X0142133Y0123727D01*
X0141341Y0125638D01*
X0139879Y0127101D01*
X0138450Y0127693D01*
X0139879Y0128284D01*
X0141341Y0129747D01*
X0142133Y0131658D01*
X0142133Y0133727D01*
X0141341Y0135638D01*
X0139879Y0137101D01*
X0137967Y0137893D01*
X0135899Y0137893D01*
X0133988Y0137101D01*
X0132525Y0135638D01*
X0131733Y0133727D01*
X0131733Y0131658D01*
X0132525Y0129747D01*
X0133988Y0128284D01*
X0135416Y0127693D01*
X0133988Y0127101D01*
X0132525Y0125638D01*
X0132405Y0125350D01*
X0132286Y0125638D01*
X0130824Y0127101D01*
X0128912Y0127893D01*
X0126844Y0127893D01*
X0124932Y0127101D01*
X0123470Y0125638D01*
X0122878Y0124210D01*
X0122286Y0125638D01*
X0120824Y0127101D01*
X0118912Y0127893D01*
X0116844Y0127893D01*
X0114932Y0127101D01*
X0113470Y0125638D01*
X0112678Y0123727D01*
X0112678Y0121658D01*
X0113470Y0119747D01*
X0114087Y0119130D01*
X0112921Y0119130D01*
X0111415Y0118506D01*
X0110261Y0117352D01*
X0109637Y0115846D01*
X0109637Y0109014D01*
X0110261Y0107508D01*
X0111415Y0106354D01*
X0112921Y0105730D01*
X0114553Y0105730D01*
X0116059Y0106354D01*
X0117213Y0107508D01*
X0117837Y0109014D01*
X0117837Y0115846D01*
X0117213Y0117352D01*
X0117073Y0117493D01*
X0118912Y0117493D01*
X0120206Y0117219D02*
X0117268Y0117219D01*
X0117837Y0114019D02*
X0119637Y0114019D01*
X0119637Y0110819D02*
X0117837Y0110819D01*
X0117259Y0107619D02*
X0120215Y0107619D01*
X0121919Y0106145D02*
X0121919Y0088715D01*
X0121327Y0088419D02*
X0116147Y0088419D01*
X0115519Y0088730D02*
X0115519Y0106130D01*
X0112319Y0105980D02*
X0112319Y0088880D01*
X0111327Y0088419D02*
X0107094Y0088419D01*
X0107089Y0088409D02*
X0107881Y0090320D01*
X0107881Y0092389D01*
X0107089Y0094300D01*
X0105627Y0095763D01*
X0103715Y0096554D01*
X0101647Y0096554D01*
X0099736Y0095763D01*
X0098273Y0094300D01*
X0097481Y0092389D01*
X0097481Y0090320D01*
X0098273Y0088409D01*
X0099736Y0086946D01*
X0101164Y0086354D01*
X0099736Y0085763D01*
X0098273Y0084300D01*
X0097481Y0082389D01*
X0097481Y0080320D01*
X0098273Y0078409D01*
X0099736Y0076946D01*
X0101647Y0076154D01*
X0103715Y0076154D01*
X0105627Y0076946D01*
X0107089Y0078409D01*
X0107881Y0080320D01*
X0107881Y0082389D01*
X0107089Y0084300D01*
X0105627Y0085763D01*
X0104198Y0086354D01*
X0105627Y0086946D01*
X0107089Y0088409D01*
X0105919Y0087238D02*
X0105919Y0085470D01*
X0106170Y0085219D02*
X0109637Y0085219D01*
X0109637Y0082019D02*
X0107881Y0082019D01*
X0107259Y0078819D02*
X0109718Y0078819D01*
X0112319Y0075980D02*
X0112319Y0072312D01*
X0109119Y0071795D02*
X0109119Y0135449D01*
X0108331Y0136237D02*
X0110414Y0134154D01*
X0113136Y0133026D01*
X0116082Y0133026D01*
X0118804Y0134154D01*
X0120887Y0136237D01*
X0122014Y0138959D01*
X0122014Y0141905D01*
X0120887Y0144627D01*
X0118804Y0146710D01*
X0116082Y0147837D01*
X0113136Y0147837D01*
X0110414Y0146710D01*
X0108331Y0144627D01*
X0107203Y0141905D01*
X0107203Y0138959D01*
X0108331Y0136237D01*
X0108255Y0136419D02*
X0092940Y0136419D01*
X0093119Y0136565D02*
X0093119Y0072111D01*
X0092602Y0072325D02*
X0090713Y0072325D01*
X0088967Y0071601D01*
X0087631Y0070265D01*
X0087118Y0069029D01*
X0087094Y0069077D01*
X0086613Y0069739D01*
X0086034Y0070318D01*
X0085372Y0070799D01*
X0084643Y0071171D01*
X0083864Y0071424D01*
X0083146Y0071537D01*
X0083146Y0066852D01*
X0082146Y0066852D01*
X0082146Y0065852D01*
X0077461Y0065852D01*
X0077574Y0065134D01*
X0077827Y0064356D01*
X0078199Y0063626D01*
X0078680Y0062964D01*
X0079259Y0062385D01*
X0079921Y0061904D01*
X0080650Y0061533D01*
X0081429Y0061280D01*
X0082146Y0061166D01*
X0082146Y0065852D01*
X0083146Y0065852D01*
X0083146Y0061166D01*
X0083864Y0061280D01*
X0084643Y0061533D01*
X0085372Y0061904D01*
X0086034Y0062385D01*
X0086613Y0062964D01*
X0087094Y0063626D01*
X0087465Y0064356D01*
X0087636Y0064879D01*
X0088967Y0063548D01*
X0090713Y0062825D01*
X0092602Y0062825D01*
X0094348Y0063548D01*
X0095684Y0064884D01*
X0096407Y0066630D01*
X0096407Y0068519D01*
X0095684Y0070265D01*
X0094348Y0071601D01*
X0092602Y0072325D01*
X0089919Y0071996D02*
X0089919Y0133939D01*
X0089041Y0133219D02*
X0112671Y0133219D01*
X0112319Y0133365D02*
X0112319Y0118880D01*
X0113191Y0120419D02*
X0073443Y0120419D01*
X0073919Y0120809D02*
X0073919Y0114943D01*
X0073502Y0114526D02*
X0072374Y0111804D01*
X0072374Y0108858D01*
X0073502Y0106136D01*
X0075585Y0104053D01*
X0078307Y0102925D01*
X0081253Y0102925D01*
X0083975Y0104053D01*
X0086058Y0106136D01*
X0087185Y0108858D01*
X0087185Y0111804D01*
X0086058Y0114526D01*
X0083975Y0116609D01*
X0081253Y0117736D01*
X0078307Y0117736D01*
X0075585Y0116609D01*
X0073502Y0114526D01*
X0073292Y0114019D02*
X0064728Y0114019D01*
X0064319Y0113409D02*
X0064319Y0060766D01*
X0064796Y0060964D02*
X0062885Y0060172D01*
X0061422Y0058709D01*
X0060963Y0057600D01*
X0060903Y0057981D01*
X0060650Y0058760D01*
X0060278Y0059489D01*
X0059797Y0060151D01*
X0059218Y0060730D01*
X0058556Y0061211D01*
X0058407Y0061287D01*
X0059992Y0061943D01*
X0061455Y0063406D01*
X0062246Y0065317D01*
X0062246Y0067386D01*
X0061455Y0069297D01*
X0059992Y0070760D01*
X0058081Y0071552D01*
X0056012Y0071552D01*
X0054101Y0070760D01*
X0052638Y0069297D01*
X0051846Y0067386D01*
X0051846Y0065317D01*
X0052638Y0063406D01*
X0054101Y0061943D01*
X0054472Y0061790D01*
X0053835Y0061583D01*
X0053105Y0061211D01*
X0052443Y0060730D01*
X0051864Y0060151D01*
X0051383Y0059489D01*
X0051012Y0058760D01*
X0050759Y0057981D01*
X0050645Y0057264D01*
X0055331Y0057264D01*
X0055331Y0056264D01*
X0050645Y0056264D01*
X0050759Y0055546D01*
X0051012Y0054768D01*
X0051383Y0054038D01*
X0051864Y0053376D01*
X0052443Y0052797D01*
X0053105Y0052316D01*
X0053835Y0051945D01*
X0054613Y0051692D01*
X0055331Y0051578D01*
X0055331Y0056264D01*
X0056331Y0056264D01*
X0056331Y0051578D01*
X0057048Y0051692D01*
X0057827Y0051945D01*
X0058556Y0052316D01*
X0059218Y0052797D01*
X0059797Y0053376D01*
X0060278Y0054038D01*
X0060631Y0054730D01*
X0060631Y0054729D01*
X0061422Y0052818D01*
X0062885Y0051355D01*
X0064796Y0050564D01*
X0066865Y0050564D01*
X0068776Y0051355D01*
X0070239Y0052818D01*
X0071031Y0054729D01*
X0071031Y0054764D01*
X0071422Y0053818D01*
X0072885Y0052355D01*
X0074796Y0051564D01*
X0076865Y0051564D01*
X0078776Y0052355D01*
X0080239Y0053818D01*
X0080631Y0054764D01*
X0080631Y0054729D01*
X0081422Y0052818D01*
X0082885Y0051355D01*
X0084796Y0050564D01*
X0086865Y0050564D01*
X0088776Y0051355D01*
X0090239Y0052818D01*
X0091031Y0054729D01*
X0091031Y0054764D01*
X0091422Y0053818D01*
X0092885Y0052355D01*
X0094796Y0051564D01*
X0096865Y0051564D01*
X0098776Y0052355D01*
X0100239Y0053818D01*
X0100631Y0054764D01*
X0100631Y0054729D01*
X0101422Y0052818D01*
X0102885Y0051355D01*
X0104796Y0050564D01*
X0106865Y0050564D01*
X0108776Y0051355D01*
X0110239Y0052818D01*
X0111031Y0054729D01*
X0111031Y0056798D01*
X0110239Y0058709D01*
X0108776Y0060172D01*
X0106865Y0060964D01*
X0104796Y0060964D01*
X0102885Y0060172D01*
X0101422Y0058709D01*
X0101031Y0057764D01*
X0101031Y0057798D01*
X0100239Y0059709D01*
X0098776Y0061172D01*
X0096865Y0061964D01*
X0094796Y0061964D01*
X0092885Y0061172D01*
X0091422Y0059709D01*
X0090631Y0057798D01*
X0090631Y0057764D01*
X0090239Y0058709D01*
X0088776Y0060172D01*
X0086865Y0060964D01*
X0084796Y0060964D01*
X0082885Y0060172D01*
X0081422Y0058709D01*
X0081031Y0057764D01*
X0081031Y0057798D01*
X0080239Y0059709D01*
X0078776Y0061172D01*
X0076865Y0061964D01*
X0074796Y0061964D01*
X0072885Y0061172D01*
X0071422Y0059709D01*
X0070631Y0057798D01*
X0070631Y0057764D01*
X0070239Y0058709D01*
X0068776Y0060172D01*
X0066865Y0060964D01*
X0064796Y0060964D01*
X0067519Y0060693D02*
X0067519Y0117009D01*
X0068103Y0117219D02*
X0077057Y0117219D01*
X0077119Y0117244D02*
X0077119Y0123435D01*
X0077343Y0123619D02*
X0112678Y0123619D01*
X0114650Y0126819D02*
X0081242Y0126819D01*
X0080319Y0126061D02*
X0080319Y0117736D01*
X0082503Y0117219D02*
X0100713Y0117219D01*
X0101581Y0117578D02*
X0099670Y0116787D01*
X0098207Y0115324D01*
X0097415Y0113413D01*
X0097415Y0111344D01*
X0098207Y0109433D01*
X0099670Y0107970D01*
X0101098Y0107378D01*
X0099670Y0106787D01*
X0098207Y0105324D01*
X0097415Y0103413D01*
X0097415Y0101344D01*
X0098207Y0099433D01*
X0099670Y0097970D01*
X0101581Y0097178D01*
X0103650Y0097178D01*
X0105561Y0097970D01*
X0107024Y0099433D01*
X0107815Y0101344D01*
X0107815Y0103413D01*
X0107024Y0105324D01*
X0105561Y0106787D01*
X0104132Y0107378D01*
X0105561Y0107970D01*
X0107024Y0109433D01*
X0107815Y0111344D01*
X0107815Y0113413D01*
X0107024Y0115324D01*
X0105561Y0116787D01*
X0103650Y0117578D01*
X0101581Y0117578D01*
X0102719Y0117578D02*
X0102719Y0147530D01*
X0102280Y0146019D02*
X0109723Y0146019D01*
X0109119Y0145415D02*
X0109119Y0151428D01*
X0109324Y0151450D02*
X0109482Y0151441D01*
X0109504Y0151433D01*
X0109504Y0151433D01*
X0109542Y0151438D01*
X0109741Y0151428D01*
X0109932Y0151496D01*
X0109946Y0151498D01*
X0110157Y0151471D01*
X0110548Y0151578D01*
X0110949Y0151620D01*
X0111012Y0151655D01*
X0111314Y0151699D01*
X0111822Y0152094D01*
X0112162Y0152278D01*
X0112335Y0152492D01*
X0112382Y0152529D01*
X0112431Y0152544D01*
X0112913Y0152941D01*
X0112913Y0152941D01*
X0112914Y0152941D01*
X0113408Y0153324D01*
X0113433Y0153368D01*
X0113496Y0153421D01*
X0113764Y0153641D01*
X0113841Y0153690D01*
X0115769Y0153602D01*
X0116024Y0153526D01*
X0116452Y0153570D01*
X0116881Y0153551D01*
X0117132Y0153641D01*
X0120563Y0153998D01*
X0120789Y0154022D01*
X0121039Y0153932D01*
X0121290Y0153945D01*
X0121535Y0153895D01*
X0121972Y0153980D01*
X0122418Y0154003D01*
X0122644Y0154111D01*
X0122889Y0154159D01*
X0123261Y0154405D01*
X0123664Y0154596D01*
X0123831Y0154782D01*
X0124040Y0154920D01*
X0124042Y0154924D01*
X0131695Y0154507D01*
X0132241Y0154478D01*
X0133243Y0154423D01*
X0133533Y0154541D01*
X0133701Y0154610D01*
X0134171Y0154802D01*
X0134810Y0155063D01*
X0136886Y0155910D01*
X0137193Y0155934D01*
X0139632Y0156130D01*
X0139999Y0156105D01*
X0140075Y0156071D01*
X0140684Y0156057D01*
X0141292Y0156014D01*
X0141371Y0156041D01*
X0141821Y0156030D01*
X0141916Y0156028D01*
X0142511Y0156014D01*
X0142588Y0156044D01*
X0143653Y0156340D01*
X0143734Y0156354D01*
X0143758Y0156369D01*
X0143758Y0156369D01*
X0144185Y0156640D01*
X0145301Y0157348D01*
X0145459Y0157356D01*
X0146148Y0157395D01*
X0147084Y0157447D01*
X0147920Y0157871D01*
X0148535Y0158183D01*
X0162612Y0165320D01*
X0162613Y0165320D01*
X0162702Y0165365D01*
X0162802Y0165365D01*
X0162802Y0165365D01*
X0171214Y0165369D01*
X0172271Y0164317D01*
X0172271Y0164317D01*
X0174505Y0163688D01*
X0174505Y0163688D01*
X0175634Y0163957D01*
X0175999Y0164043D01*
X0180306Y0165068D01*
X0180448Y0165102D01*
X0215914Y0157912D01*
X0216205Y0157757D01*
X0217221Y0157215D01*
X0217830Y0156890D01*
X0218330Y0156623D01*
X0218439Y0156565D01*
X0218556Y0156503D01*
X0218687Y0156486D01*
X0218971Y0156450D01*
X0219372Y0156399D01*
X0219592Y0156371D01*
X0232610Y0154722D01*
X0232723Y0154704D01*
X0233110Y0154624D01*
X0233747Y0154492D01*
X0233863Y0154425D01*
X0234419Y0154353D01*
X0234967Y0154239D01*
X0235099Y0154264D01*
X0260769Y0150913D01*
X0260289Y0150433D01*
X0259817Y0149294D01*
X0259817Y0148060D01*
X0260289Y0146921D01*
X0261392Y0145818D01*
X0261392Y0138150D01*
X0255204Y0131962D01*
X0255204Y0132782D01*
X0254412Y0134693D01*
X0252949Y0136156D01*
X0251157Y0136899D01*
X0252792Y0137576D01*
X0254255Y0139039D01*
X0255046Y0140950D01*
X0255046Y0143018D01*
X0254255Y0144930D01*
X0252792Y0146392D01*
X0250881Y0147184D01*
X0248812Y0147184D01*
X0246901Y0146392D01*
X0245438Y0144930D01*
X0244646Y0143018D01*
X0244646Y0140950D01*
X0245438Y0139039D01*
X0246901Y0137576D01*
X0248693Y0136833D01*
X0247058Y0136156D01*
X0245596Y0134693D01*
X0244804Y0132782D01*
X0244804Y0130714D01*
X0245596Y0128802D01*
X0247058Y0127340D01*
X0248970Y0126548D01*
X0251038Y0126548D01*
X0252949Y0127340D01*
X0253518Y0127908D01*
X0253518Y0114202D01*
X0253990Y0113063D01*
X0254862Y0112191D01*
X0256437Y0110616D01*
X0257576Y0110144D01*
X0279282Y0110144D01*
X0280421Y0110616D01*
X0281293Y0111488D01*
X0281765Y0112627D01*
X0281765Y0113861D01*
X0281293Y0115000D01*
X0280421Y0115872D01*
X0279282Y0116344D01*
X0259718Y0116344D01*
X0259718Y0117777D01*
X0267355Y0117777D01*
X0267955Y0118377D01*
X0268555Y0117777D01*
X0277198Y0117777D01*
X0277803Y0118383D01*
X0277819Y0118356D01*
X0278098Y0118077D01*
X0278440Y0117880D01*
X0278822Y0117777D01*
X0282235Y0117777D01*
X0282235Y0122493D01*
X0283203Y0122493D01*
X0283203Y0117777D01*
X0286617Y0117777D01*
X0286998Y0117880D01*
X0287340Y0118077D01*
X0287619Y0118356D01*
X0287817Y0118698D01*
X0287919Y0119080D01*
X0287919Y0122493D01*
X0283203Y0122493D01*
X0283203Y0123462D01*
X0282235Y0123462D01*
X0282235Y0128177D01*
X0278822Y0128177D01*
X0278440Y0128075D01*
X0278098Y0127878D01*
X0277819Y0127598D01*
X0277803Y0127572D01*
X0277198Y0128177D01*
X0268555Y0128177D01*
X0267955Y0127577D01*
X0267355Y0128177D01*
X0260188Y0128177D01*
X0266248Y0134238D01*
X0266248Y0134238D01*
X0267120Y0135110D01*
X0267592Y0136249D01*
X0267592Y0147719D01*
X0267120Y0148858D01*
X0265711Y0150268D01*
X0285727Y0147655D01*
X0286601Y0146727D01*
X0286790Y0146428D01*
X0286875Y0146367D01*
X0285438Y0144930D01*
X0284646Y0143018D01*
X0284646Y0140950D01*
X0285438Y0139039D01*
X0286901Y0137576D01*
X0288693Y0136833D01*
X0287058Y0136156D01*
X0285596Y0134693D01*
X0284804Y0132782D01*
X0284804Y0130714D01*
X0285596Y0128802D01*
X0286221Y0128177D01*
X0283203Y0128177D01*
X0283203Y0123462D01*
X0287919Y0123462D01*
X0287919Y0126875D01*
X0287886Y0126997D01*
X0288970Y0126548D01*
X0291038Y0126548D01*
X0292949Y0127340D01*
X0294412Y0128802D01*
X0295204Y0130714D01*
X0295204Y0132782D01*
X0294412Y0134693D01*
X0292949Y0136156D01*
X0291157Y0136899D01*
X0292792Y0137576D01*
X0294255Y0139039D01*
X0295046Y0140950D01*
X0295046Y0141302D01*
X0295259Y0141002D01*
X0295259Y0141002D01*
X0295259Y0141002D01*
X0295327Y0140954D01*
X0296021Y0140469D01*
X0296021Y0140469D01*
X0296587Y0140073D01*
X0297152Y0139677D01*
X0297311Y0139566D01*
X0297784Y0139460D01*
X0298779Y0139237D01*
X0298846Y0139222D01*
X0298846Y0139222D01*
X0312418Y0136185D01*
X0312816Y0136096D01*
X0313902Y0135853D01*
X0314311Y0135965D01*
X0315017Y0136159D01*
X0315641Y0136331D01*
X0317040Y0136715D01*
X0317187Y0136691D01*
X0318988Y0136394D01*
X0319307Y0136265D01*
X0319307Y0136265D01*
X0319947Y0136006D01*
X0319958Y0136002D01*
X0320586Y0135748D01*
X0320586Y0135748D01*
X0320642Y0135725D01*
X0321391Y0135686D01*
X0321806Y0135665D01*
X0328421Y0135322D01*
X0328872Y0135299D01*
X0343647Y0131619D01*
X0350995Y0124397D01*
X0349778Y0124901D01*
X0347710Y0124901D01*
X0345799Y0124109D01*
X0344336Y0122646D01*
X0343544Y0120735D01*
X0343544Y0118666D01*
X0344336Y0116755D01*
X0345799Y0115292D01*
X0347261Y0114686D01*
X0346748Y0114520D01*
X0346019Y0114148D01*
X0345357Y0113667D01*
X0344778Y0113088D01*
X0344297Y0112426D01*
X0343925Y0111697D01*
X0343672Y0110918D01*
X0343558Y0110201D01*
X0348244Y0110201D01*
X0348244Y0109201D01*
X0343558Y0109201D01*
X0343672Y0108483D01*
X0343925Y0107705D01*
X0344297Y0106975D01*
X0344778Y0106313D01*
X0345357Y0105734D01*
X0346019Y0105253D01*
X0346748Y0104882D01*
X0347526Y0104629D01*
X0348244Y0104515D01*
X0348244Y0109201D01*
X0349244Y0109201D01*
X0349244Y0110201D01*
X0353930Y0110201D01*
X0353816Y0110918D01*
X0353563Y0111697D01*
X0353192Y0112426D01*
X0352710Y0113088D01*
X0352132Y0113667D01*
X0351469Y0114148D01*
X0350740Y0114520D01*
X0350227Y0114686D01*
X0351690Y0115292D01*
X0353152Y0116755D01*
X0353944Y0118666D01*
X0353944Y0120735D01*
X0353411Y0122022D01*
X0354841Y0120616D01*
X0355014Y0120314D01*
X0355014Y0120314D01*
X0359152Y0113068D01*
X0359494Y0112469D01*
X0359494Y0112469D01*
X0359916Y0111730D01*
X0360042Y0111630D01*
X0360042Y0111630D01*
X0368423Y0104913D01*
X0368423Y0104913D01*
X0368879Y0104547D01*
X0369500Y0104050D01*
X0369620Y0104015D01*
X0370495Y0103655D01*
X0370605Y0103596D01*
X0378330Y0102787D01*
X0384606Y0097701D01*
X0384620Y0097667D01*
X0385835Y0094560D01*
X0383760Y0090080D01*
X0381452Y0087054D01*
X0381075Y0086559D01*
X0380616Y0085956D01*
X0380263Y0085493D01*
X0380017Y0082961D01*
X0380240Y0082509D01*
X0379401Y0081939D01*
X0379401Y0081939D01*
X0379289Y0081863D01*
X0378346Y0080511D01*
X0378313Y0080380D01*
X0378040Y0079285D01*
X0377979Y0079041D01*
X0376694Y0073883D01*
X0376499Y0073103D01*
X0376499Y0073103D01*
X0376760Y0072117D01*
X0376774Y0072023D01*
X0376794Y0071991D01*
X0377003Y0071201D01*
X0377930Y0070229D01*
X0377341Y0066930D01*
X0377158Y0065900D01*
X0377478Y0064864D01*
X0377497Y0064804D01*
X0379427Y0058556D01*
X0374750Y0055713D01*
X0374161Y0055355D01*
X0374016Y0055267D01*
X0373571Y0054996D01*
X0373504Y0054955D01*
X0372533Y0053764D01*
X0372274Y0053041D01*
X0372242Y0052950D01*
X0371512Y0050909D01*
X0371347Y0050448D01*
X0371239Y0050145D01*
X0367140Y0052875D01*
X0366566Y0053257D01*
X0366354Y0053398D01*
X0366194Y0053539D01*
X0366087Y0053576D01*
X0365992Y0053640D01*
X0365783Y0053681D01*
X0365542Y0053764D01*
X0364890Y0053988D01*
X0364890Y0053988D01*
X0358140Y0056308D01*
X0358087Y0056326D01*
X0357507Y0056526D01*
X0357464Y0056545D01*
X0357449Y0056546D01*
X0357435Y0056551D01*
X0357387Y0056548D01*
X0356659Y0056571D01*
X0356084Y0056589D01*
X0356084Y0056588D02*
X0346934Y0056875D01*
X0346244Y0056896D01*
X0345070Y0056933D01*
X0344641Y0056708D01*
X0343467Y0056093D01*
X0343419Y0056067D01*
X0333318Y0050773D01*
X0332707Y0050452D01*
X0332620Y0050407D01*
X0332249Y0050212D01*
X0332155Y0050174D01*
X0332129Y0050149D01*
X0332096Y0050132D01*
X0332031Y0050054D01*
X0331661Y0049692D01*
X0331441Y0049478D01*
X0326988Y0045132D01*
X0326453Y0045196D01*
X0326327Y0045161D01*
X0326196Y0045167D01*
X0325667Y0044975D01*
X0325125Y0044823D01*
X0325022Y0044742D01*
X0324899Y0044697D01*
X0324483Y0044318D01*
X0323407Y0043471D01*
X0323184Y0043358D01*
X0323021Y0043168D01*
X0322959Y0043119D01*
X0321377Y0042686D01*
X0315252Y0042619D01*
X0315077Y0042667D01*
X0314648Y0042612D01*
X0314215Y0042607D01*
X0314048Y0042536D01*
X0313708Y0042493D01*
X0313047Y0042410D01*
X0313014Y0042417D01*
X0312592Y0042508D01*
X0304624Y0044239D01*
X0304059Y0044362D01*
X0303359Y0044514D01*
X0303309Y0044530D01*
X0303292Y0044528D01*
X0303276Y0044532D01*
X0303224Y0044523D01*
X0302621Y0044471D01*
X0302273Y0044441D01*
X0291193Y0043495D01*
X0291193Y0043495D01*
X0290986Y0043478D01*
X0290788Y0043539D01*
X0276090Y0048096D01*
X0275954Y0048138D01*
X0275678Y0048224D01*
X0275295Y0048343D01*
X0275295Y0048343D01*
X0275117Y0048398D01*
X0274932Y0048382D01*
X0273803Y0048284D01*
X0273557Y0048263D01*
X0273557Y0048263D01*
X0267355Y0047725D01*
X0265100Y0048426D01*
X0264686Y0048554D01*
X0264273Y0048683D01*
X0264027Y0048759D01*
X0264027Y0048759D01*
X0263547Y0048908D01*
X0261220Y0048387D01*
X0261220Y0048387D01*
X0260849Y0048048D01*
X0260712Y0047922D01*
X0260341Y0047582D01*
X0259832Y0047116D01*
X0259832Y0047116D01*
X0255886Y0043499D01*
X0250160Y0044533D01*
X0249904Y0044579D01*
X0249789Y0044613D01*
X0249745Y0044608D01*
X0249700Y0044616D01*
X0249583Y0044591D01*
X0249085Y0044537D01*
X0248418Y0044464D01*
X0248417Y0044464D01*
X0190623Y0038195D01*
X0190996Y0038707D01*
X0191335Y0039373D01*
X0191566Y0040084D01*
X0191683Y0040823D01*
X0191683Y0041008D01*
X0187122Y0041008D01*
X0187122Y0041386D01*
X0186744Y0041386D01*
X0186744Y0045947D01*
X0186559Y0045947D01*
X0185821Y0045830D01*
X0185110Y0045599D01*
X0184444Y0045259D01*
X0183839Y0044820D01*
X0183310Y0044291D01*
X0182871Y0043686D01*
X0182531Y0043020D01*
X0182300Y0042309D01*
X0182183Y0041571D01*
X0182183Y0041386D01*
X0186744Y0041386D01*
X0186744Y0041008D01*
X0182183Y0041008D01*
X0182183Y0040823D01*
X0182300Y0040084D01*
X0182531Y0039373D01*
X0182871Y0038707D01*
X0183310Y0038102D01*
X0183839Y0037574D01*
X0183976Y0037474D01*
X0167850Y0035724D01*
X0169773Y0037648D01*
X0169773Y0039046D01*
X0165973Y0039046D01*
X0165973Y0039646D01*
X0169773Y0039646D01*
X0169773Y0041045D01*
X0167371Y0043446D01*
X0165973Y0043446D01*
X0165973Y0039646D01*
X0165373Y0039646D01*
X0165373Y0043446D01*
X0163975Y0043446D01*
X0161996Y0041467D01*
X0161996Y0043138D01*
X0161842Y0043911D01*
X0161541Y0044639D01*
X0161103Y0045294D01*
X0160546Y0045851D01*
X0159891Y0046289D01*
X0159163Y0046590D01*
X0158390Y0046744D01*
X0158185Y0046744D01*
X0158185Y0040433D01*
X0157807Y0040433D01*
X0157807Y0046744D01*
X0157602Y0046744D01*
X0156829Y0046590D01*
X0156101Y0046289D01*
X0155446Y0045851D01*
X0154889Y0045294D01*
X0154451Y0044639D01*
X0154150Y0043911D01*
X0153996Y0043138D01*
X0153996Y0040433D01*
X0157807Y0040433D01*
X0157807Y0040055D01*
X0153996Y0040055D01*
X0153996Y0037350D01*
X0154150Y0036577D01*
X0154451Y0035849D01*
X0154889Y0035194D01*
X0155446Y0034637D01*
X0156101Y0034199D01*
X0156829Y0033898D01*
X0157602Y0033744D01*
X0157807Y0033744D01*
X0157807Y0040055D01*
X0158185Y0040055D01*
X0158185Y0033744D01*
X0158390Y0033744D01*
X0159163Y0033898D01*
X0159891Y0034199D01*
X0160546Y0034637D01*
X0161103Y0035194D01*
X0161541Y0035849D01*
X0161842Y0036577D01*
X0161975Y0037246D01*
X0163975Y0035246D01*
X0164381Y0035246D01*
X0156359Y0032404D01*
X0154963Y0033900D01*
X0154533Y0034361D01*
X0152924Y0035098D01*
X0152924Y0035098D01*
X0152040Y0035132D01*
X0151350Y0035158D01*
X0138730Y0035640D01*
X0138730Y0035640D01*
X0138169Y0035661D01*
X0131534Y0036611D01*
X0131681Y0037350D01*
X0131681Y0040055D01*
X0127870Y0040055D01*
X0127870Y0040433D01*
X0127492Y0040433D01*
X0127492Y0040055D01*
X0123681Y0040055D01*
X0123681Y0038036D01*
X0120956Y0039408D01*
X0120379Y0039699D01*
X0119856Y0039962D01*
X0119763Y0040009D01*
X0119763Y0040009D01*
X0119391Y0040196D01*
X0118916Y0040187D01*
X0113931Y0040093D01*
X0112940Y0040240D01*
X0112634Y0040381D01*
X0103712Y0044493D01*
X0098365Y0047095D01*
X0098365Y0047095D01*
X0097873Y0047334D01*
X0097124Y0047699D01*
X0096905Y0047805D01*
X0096662Y0047815D01*
X0095795Y0047851D01*
X0095284Y0047872D01*
X0058870Y0049373D01*
X0058870Y0049373D01*
X0058301Y0049396D01*
X0057491Y0049429D01*
X0057441Y0049431D01*
X0057441Y0049431D01*
X0057214Y0049365D01*
X0029771Y0041260D01*
X0029771Y0042639D01*
X0028980Y0044550D01*
X0027517Y0046013D01*
X0025606Y0046804D01*
X0024308Y0046804D01*
X0025559Y0048056D01*
X0026351Y0049967D01*
X0026351Y0052035D01*
X0025994Y0052897D01*
X0026238Y0052909D01*
X0026238Y0052909D01*
X0026731Y0053254D01*
X0026731Y0053254D01*
X0027097Y0053510D01*
X0027296Y0053650D01*
X0027861Y0054046D01*
X0028900Y0054773D01*
X0028900Y0052728D01*
X0029691Y0050817D01*
X0031154Y0049354D01*
X0033065Y0048563D01*
X0035134Y0048563D01*
X0037045Y0049354D01*
X0038508Y0050817D01*
X0039300Y0052728D01*
X0039300Y0054113D01*
X0039530Y0053795D01*
X0040109Y0053217D01*
X0040771Y0052736D01*
X0041501Y0052364D01*
X0042279Y0052111D01*
X0043087Y0051983D01*
X0043906Y0051983D01*
X0044714Y0052111D01*
X0044909Y0052174D01*
X0043266Y0056688D01*
X0043991Y0056952D01*
X0045635Y0052436D01*
X0046222Y0052736D01*
X0046884Y0053217D01*
X0047463Y0053795D01*
X0047944Y0054458D01*
X0048316Y0055187D01*
X0048569Y0055965D01*
X0048697Y0056774D01*
X0048697Y0057592D01*
X0048569Y0058401D01*
X0048505Y0058595D01*
X0043991Y0056952D01*
X0043727Y0057678D01*
X0043002Y0057414D01*
X0041358Y0061930D01*
X0040771Y0061630D01*
X0040109Y0061149D01*
X0039530Y0060571D01*
X0039049Y0059908D01*
X0038678Y0059179D01*
X0038425Y0058401D01*
X0038297Y0057592D01*
X0038297Y0056920D01*
X0037045Y0058171D01*
X0035134Y0058963D01*
X0034880Y0058963D01*
X0036055Y0059785D01*
X0036281Y0059891D01*
X0036415Y0060038D01*
X0036577Y0060152D01*
X0036711Y0060362D01*
X0037196Y0060892D01*
X0037212Y0060909D01*
X0049060Y0073868D01*
X0049525Y0074377D01*
X0050172Y0075085D01*
X0050256Y0075341D01*
X0050406Y0075796D01*
X0050472Y0075996D01*
X0050688Y0076651D01*
X0050688Y0076651D01*
X0052386Y0081815D01*
X0052638Y0081206D01*
X0054101Y0079743D01*
X0056012Y0078952D01*
X0058081Y0078952D01*
X0059992Y0079743D01*
X0061455Y0081206D01*
X0062246Y0083117D01*
X0062246Y0085186D01*
X0061455Y0087097D01*
X0059992Y0088560D01*
X0058081Y0089352D01*
X0056012Y0089352D01*
X0054684Y0088802D01*
X0056439Y0094135D01*
X0056473Y0094171D01*
X0056521Y0094220D01*
X0057166Y0094881D01*
X0057443Y0095165D01*
X0058076Y0097245D01*
X0057880Y0098314D01*
X0057787Y0098820D01*
X0057305Y0101444D01*
X0058003Y0104002D01*
X0066486Y0116637D01*
X0070590Y0118113D01*
X0070667Y0118141D01*
X0070730Y0118192D01*
X0070730Y0118192D01*
X0071368Y0118716D01*
X0071797Y0119068D01*
X0099937Y0142161D01*
X0099937Y0142161D01*
X0100442Y0142575D01*
X0100494Y0142617D01*
X0100993Y0143027D01*
X0100993Y0143027D01*
X0100993Y0143027D01*
X0100993Y0143027D01*
X0101004Y0143036D01*
X0101025Y0143075D01*
X0101707Y0144108D01*
X0101734Y0144143D01*
X0103639Y0150694D01*
X0103752Y0150744D01*
X0103975Y0150792D01*
X0104182Y0150934D01*
X0104263Y0150970D01*
X0104805Y0151210D01*
X0104806Y0151210D01*
X0105676Y0151595D01*
X0105676Y0151595D01*
X0105769Y0151635D01*
X0105870Y0151630D01*
X0105870Y0151630D01*
X0108641Y0151485D01*
X0108909Y0151406D01*
X0109324Y0151450D01*
X0111314Y0151699D02*
X0111314Y0151699D01*
X0112275Y0152419D02*
X0150831Y0152419D01*
X0150719Y0152148D02*
X0150719Y0159290D01*
X0149790Y0158819D02*
X0172149Y0158819D01*
X0171644Y0158609D02*
X0170308Y0157273D01*
X0169585Y0155527D01*
X0169585Y0153638D01*
X0170308Y0151892D01*
X0171644Y0150556D01*
X0173390Y0149833D01*
X0175279Y0149833D01*
X0177025Y0150556D01*
X0178361Y0151892D01*
X0179085Y0153638D01*
X0179085Y0155527D01*
X0178361Y0157273D01*
X0177025Y0158609D01*
X0175279Y0159333D01*
X0173390Y0159333D01*
X0171644Y0158609D01*
X0173119Y0159220D02*
X0173119Y0164078D01*
X0171365Y0165219D02*
X0162414Y0165219D01*
X0163519Y0165365D02*
X0163519Y0152812D01*
X0163541Y0152790D02*
X0161458Y0154873D01*
X0158736Y0156000D01*
X0155790Y0156000D01*
X0153068Y0154873D01*
X0150985Y0152790D01*
X0149857Y0150068D01*
X0149857Y0147122D01*
X0150985Y0144400D01*
X0153068Y0142317D01*
X0155790Y0141189D01*
X0158736Y0141189D01*
X0161458Y0142317D01*
X0163541Y0144400D01*
X0164668Y0147122D01*
X0164668Y0150068D01*
X0163541Y0152790D01*
X0163695Y0152419D02*
X0170090Y0152419D01*
X0169919Y0152831D02*
X0169919Y0136679D01*
X0169933Y0136721D02*
X0169702Y0136010D01*
X0169585Y0135271D01*
X0169585Y0135086D01*
X0174146Y0135086D01*
X0174146Y0134708D01*
X0169585Y0134708D01*
X0169585Y0134524D01*
X0169702Y0133785D01*
X0169933Y0133074D01*
X0170272Y0132408D01*
X0170623Y0131925D01*
X0168952Y0132617D01*
X0166883Y0132617D01*
X0164972Y0131826D01*
X0163509Y0130363D01*
X0162917Y0128934D01*
X0162326Y0130363D01*
X0160863Y0131826D01*
X0158952Y0132617D01*
X0156883Y0132617D01*
X0154972Y0131826D01*
X0153562Y0130416D01*
X0154338Y0132288D01*
X0154338Y0134357D01*
X0153546Y0136268D01*
X0152083Y0137731D01*
X0150172Y0138523D01*
X0148103Y0138523D01*
X0146192Y0137731D01*
X0144729Y0136268D01*
X0143938Y0134357D01*
X0143938Y0132288D01*
X0144729Y0130377D01*
X0146192Y0128914D01*
X0147655Y0128308D01*
X0147142Y0128142D01*
X0146412Y0127770D01*
X0145750Y0127289D01*
X0145171Y0126710D01*
X0144690Y0126048D01*
X0144319Y0125319D01*
X0144319Y0131368D01*
X0145088Y0130019D02*
X0141454Y0130019D01*
X0141119Y0129525D02*
X0141119Y0125861D01*
X0140161Y0126819D02*
X0145280Y0126819D01*
X0144319Y0125319D02*
X0144066Y0124540D01*
X0143938Y0123732D01*
X0143938Y0123709D01*
X0148752Y0123709D01*
X0148752Y0122937D01*
X0143938Y0122937D01*
X0143938Y0122913D01*
X0144066Y0122105D01*
X0144319Y0121327D01*
X0144690Y0120597D01*
X0145171Y0119935D01*
X0145750Y0119356D01*
X0146412Y0118875D01*
X0147142Y0118504D01*
X0147920Y0118251D01*
X0148729Y0118123D01*
X0148752Y0118123D01*
X0148752Y0122937D01*
X0149524Y0122937D01*
X0149524Y0123709D01*
X0154272Y0123709D01*
X0154972Y0123009D01*
X0156883Y0122217D01*
X0158952Y0122217D01*
X0160863Y0123009D01*
X0162326Y0124472D01*
X0162917Y0125900D01*
X0163509Y0124472D01*
X0164972Y0123009D01*
X0166883Y0122217D01*
X0168952Y0122217D01*
X0170863Y0123009D01*
X0172326Y0124472D01*
X0172575Y0125074D01*
X0172607Y0125061D01*
X0173701Y0125061D01*
X0174711Y0125480D01*
X0175043Y0125811D01*
X0180081Y0125811D01*
X0179392Y0125122D01*
X0179392Y0123495D01*
X0183742Y0123495D01*
X0183742Y0122895D01*
X0179392Y0122895D01*
X0179392Y0121269D01*
X0181938Y0118723D01*
X0181415Y0118506D01*
X0180261Y0117352D01*
X0179637Y0115846D01*
X0179637Y0109014D01*
X0180261Y0107508D01*
X0181415Y0106354D01*
X0182921Y0105730D01*
X0184553Y0105730D01*
X0186059Y0106354D01*
X0187213Y0107508D01*
X0187837Y0109014D01*
X0187837Y0115846D01*
X0187213Y0117352D01*
X0186059Y0118506D01*
X0185964Y0118545D01*
X0185968Y0118545D01*
X0188692Y0121269D01*
X0188692Y0122895D01*
X0184342Y0122895D01*
X0184342Y0123495D01*
X0188692Y0123495D01*
X0188692Y0125122D01*
X0188003Y0125811D01*
X0193120Y0125811D01*
X0193263Y0125466D01*
X0194037Y0124692D01*
X0195047Y0124273D01*
X0196141Y0124273D01*
X0197152Y0124692D01*
X0197926Y0125466D01*
X0198344Y0126476D01*
X0198344Y0126945D01*
X0202020Y0130620D01*
X0202134Y0130573D01*
X0203228Y0130573D01*
X0204239Y0130991D01*
X0205012Y0131765D01*
X0205431Y0132776D01*
X0205431Y0133870D01*
X0205012Y0134880D01*
X0204239Y0135654D01*
X0203228Y0136073D01*
X0202134Y0136073D01*
X0201123Y0135654D01*
X0200350Y0134880D01*
X0200241Y0134617D01*
X0200082Y0134564D01*
X0199856Y0134114D01*
X0195516Y0129773D01*
X0195279Y0129773D01*
X0195242Y0129811D01*
X0187233Y0129811D01*
X0188692Y0131269D01*
X0188692Y0135122D01*
X0185968Y0137845D01*
X0182116Y0137845D01*
X0179392Y0135122D01*
X0179392Y0131269D01*
X0180851Y0129811D01*
X0175043Y0129811D01*
X0174711Y0130142D01*
X0174698Y0130147D01*
X0174708Y0130147D01*
X0175447Y0130264D01*
X0176158Y0130495D01*
X0176824Y0130835D01*
X0177429Y0131274D01*
X0177958Y0131803D01*
X0178397Y0132408D01*
X0178737Y0133074D01*
X0178968Y0133785D01*
X0179085Y0134524D01*
X0179085Y0134708D01*
X0174524Y0134708D01*
X0174524Y0135086D01*
X0179085Y0135086D01*
X0179085Y0135271D01*
X0178968Y0136010D01*
X0178737Y0136721D01*
X0178397Y0137387D01*
X0177958Y0137992D01*
X0177429Y0138521D01*
X0176824Y0138960D01*
X0176158Y0139299D01*
X0175447Y0139530D01*
X0174708Y0139647D01*
X0174524Y0139647D01*
X0174524Y0135087D01*
X0174146Y0135087D01*
X0174146Y0139647D01*
X0173961Y0139647D01*
X0173222Y0139530D01*
X0172511Y0139299D01*
X0171845Y0138960D01*
X0171240Y0138521D01*
X0170712Y0137992D01*
X0170272Y0137387D01*
X0169933Y0136721D01*
X0169834Y0136419D02*
X0153396Y0136419D01*
X0153919Y0135368D02*
X0153919Y0141964D01*
X0152566Y0142819D02*
X0121636Y0142819D01*
X0121919Y0142135D02*
X0121919Y0153970D01*
X0120563Y0153998D02*
X0120563Y0153998D01*
X0118719Y0153806D02*
X0118719Y0146745D01*
X0119495Y0146019D02*
X0150314Y0146019D01*
X0150719Y0145042D02*
X0150719Y0138296D01*
X0147519Y0138281D02*
X0147519Y0157667D01*
X0147084Y0157447D02*
X0147084Y0157447D01*
X0148535Y0158183D02*
X0148535Y0158183D01*
X0144319Y0156725D02*
X0144319Y0135277D01*
X0144880Y0136419D02*
X0140561Y0136419D01*
X0141119Y0135861D02*
X0141119Y0156027D01*
X0137919Y0155992D02*
X0137919Y0137893D01*
X0134719Y0137404D02*
X0134719Y0155025D01*
X0134810Y0155063D02*
X0134810Y0155063D01*
X0133533Y0154541D02*
X0133533Y0154541D01*
X0133243Y0154423D02*
X0133243Y0154423D01*
X0131519Y0154517D02*
X0131519Y0126406D01*
X0131106Y0126819D02*
X0133705Y0126819D01*
X0134719Y0127404D02*
X0134719Y0127981D01*
X0132412Y0130019D02*
X0085141Y0130019D01*
X0086719Y0131313D02*
X0086719Y0112930D01*
X0086268Y0114019D02*
X0097666Y0114019D01*
X0099519Y0116636D02*
X0099519Y0141817D01*
X0100739Y0142819D02*
X0107582Y0142819D01*
X0107203Y0139619D02*
X0096840Y0139619D01*
X0096319Y0139191D02*
X0096319Y0068733D01*
X0096118Y0069219D02*
X0106882Y0069219D01*
X0106846Y0066019D02*
X0096154Y0066019D01*
X0096319Y0066416D02*
X0096319Y0061964D01*
X0093119Y0061269D02*
X0093119Y0063039D01*
X0089919Y0063153D02*
X0089919Y0059029D01*
X0089329Y0059619D02*
X0091385Y0059619D01*
X0086719Y0060964D02*
X0086719Y0063110D01*
X0086467Y0062819D02*
X0117269Y0062819D01*
X0118719Y0061782D02*
X0118719Y0059982D01*
X0117943Y0059619D02*
X0109329Y0059619D01*
X0109119Y0059829D02*
X0109119Y0063354D01*
X0112319Y0062838D02*
X0112319Y0040526D01*
X0112551Y0040419D02*
X0127492Y0040419D01*
X0127492Y0040433D02*
X0123681Y0040433D01*
X0123681Y0043138D01*
X0123835Y0043911D01*
X0124136Y0044639D01*
X0124574Y0045294D01*
X0125131Y0045851D01*
X0125786Y0046289D01*
X0126514Y0046590D01*
X0127287Y0046744D01*
X0127492Y0046744D01*
X0127492Y0040433D01*
X0127870Y0040433D02*
X0127870Y0046744D01*
X0128075Y0046744D01*
X0128848Y0046590D01*
X0129576Y0046289D01*
X0130231Y0045851D01*
X0130788Y0045294D01*
X0131226Y0044639D01*
X0131527Y0043911D01*
X0131681Y0043138D01*
X0131681Y0040433D01*
X0127870Y0040433D01*
X0127870Y0040419D02*
X0157807Y0040419D01*
X0157119Y0040433D02*
X0157119Y0040055D01*
X0157807Y0037219D02*
X0158185Y0037219D01*
X0160319Y0034485D02*
X0160319Y0033807D01*
X0160917Y0034019D02*
X0159455Y0034019D01*
X0158185Y0034019D02*
X0157807Y0034019D01*
X0157119Y0033840D02*
X0157119Y0032673D01*
X0156537Y0034019D02*
X0154853Y0034019D01*
X0154533Y0034361D02*
X0154533Y0034361D01*
X0153919Y0034643D02*
X0153919Y0067051D01*
X0152433Y0066019D02*
X0168134Y0066019D01*
X0166719Y0067489D02*
X0166719Y0053446D01*
X0167371Y0053446D02*
X0163975Y0053446D01*
X0161573Y0051045D01*
X0161573Y0047648D01*
X0163975Y0045246D01*
X0167371Y0045246D01*
X0169773Y0047648D01*
X0169773Y0051045D01*
X0167371Y0053446D01*
X0167599Y0053219D02*
X0199145Y0053219D01*
X0198910Y0052983D02*
X0198285Y0051476D01*
X0198285Y0049845D01*
X0198910Y0048338D01*
X0200063Y0047185D01*
X0201570Y0046561D01*
X0203201Y0046561D01*
X0204708Y0047185D01*
X0205861Y0048338D01*
X0206485Y0049845D01*
X0206485Y0051476D01*
X0205861Y0052983D01*
X0204708Y0054136D01*
X0203201Y0054760D01*
X0201570Y0054760D01*
X0200063Y0054136D01*
X0198910Y0052983D01*
X0198719Y0052523D02*
X0198719Y0127319D01*
X0198344Y0126819D02*
X0211089Y0126819D01*
X0211519Y0127249D02*
X0211519Y0129142D01*
X0212116Y0128545D02*
X0215968Y0128545D01*
X0218692Y0131269D01*
X0218692Y0135122D01*
X0215968Y0137845D01*
X0212116Y0137845D01*
X0209392Y0135122D01*
X0209392Y0131269D01*
X0212116Y0128545D01*
X0212116Y0127845D02*
X0209392Y0125122D01*
X0209392Y0121269D01*
X0211938Y0118723D01*
X0211415Y0118506D01*
X0210261Y0117352D01*
X0209637Y0115846D01*
X0209637Y0109014D01*
X0210261Y0107508D01*
X0211415Y0106354D01*
X0212921Y0105730D01*
X0214553Y0105730D01*
X0216059Y0106354D01*
X0217213Y0107508D01*
X0217837Y0109014D01*
X0217837Y0115846D01*
X0217213Y0117352D01*
X0216059Y0118506D01*
X0215964Y0118545D01*
X0215968Y0118545D01*
X0218692Y0121269D01*
X0218692Y0125122D01*
X0215968Y0127845D01*
X0212116Y0127845D01*
X0214719Y0127845D02*
X0214719Y0128545D01*
X0216995Y0126819D02*
X0221031Y0126819D01*
X0221031Y0128296D02*
X0221031Y0123988D01*
X0224078Y0120942D01*
X0228385Y0120942D01*
X0231231Y0123788D01*
X0234078Y0120942D01*
X0235731Y0120942D01*
X0235731Y0125642D01*
X0236731Y0125642D01*
X0236731Y0120942D01*
X0238385Y0120942D01*
X0241431Y0123988D01*
X0241431Y0125642D01*
X0236731Y0125642D01*
X0236731Y0126642D01*
X0241431Y0126642D01*
X0241431Y0128296D01*
X0238385Y0131342D01*
X0237785Y0131342D01*
X0240431Y0133988D01*
X0240431Y0138296D01*
X0237785Y0140942D01*
X0238385Y0140942D01*
X0241431Y0143988D01*
X0241431Y0148296D01*
X0238385Y0151342D01*
X0234078Y0151342D01*
X0231231Y0148496D01*
X0228385Y0151342D01*
X0224078Y0151342D01*
X0221031Y0148296D01*
X0221031Y0143988D01*
X0223678Y0141342D01*
X0223078Y0141342D01*
X0220031Y0138296D01*
X0220031Y0133988D01*
X0223078Y0130942D01*
X0223678Y0130942D01*
X0221031Y0128296D01*
X0221119Y0128383D02*
X0221119Y0132900D01*
X0220801Y0133219D02*
X0218692Y0133219D01*
X0217919Y0135895D02*
X0217919Y0140496D01*
X0218692Y0141269D02*
X0215968Y0138545D01*
X0212116Y0138545D01*
X0209392Y0141269D01*
X0209392Y0145122D01*
X0212116Y0147845D01*
X0215968Y0147845D01*
X0218692Y0145122D01*
X0218692Y0141269D01*
X0218692Y0142819D02*
X0222201Y0142819D01*
X0221119Y0143901D02*
X0221119Y0139383D01*
X0221354Y0139619D02*
X0217041Y0139619D01*
X0214719Y0138545D02*
X0214719Y0137845D01*
X0217395Y0136419D02*
X0220031Y0136419D01*
X0211519Y0137249D02*
X0211519Y0139142D01*
X0211043Y0139619D02*
X0201062Y0139619D01*
X0201075Y0139605D02*
X0200302Y0140378D01*
X0199291Y0140797D01*
X0198197Y0140797D01*
X0197186Y0140378D01*
X0196855Y0140047D01*
X0196341Y0140047D01*
X0192760Y0136466D01*
X0192292Y0136466D01*
X0191281Y0136048D01*
X0190507Y0135274D01*
X0190089Y0134263D01*
X0190089Y0133169D01*
X0190507Y0132159D01*
X0191281Y0131385D01*
X0192292Y0130966D01*
X0193386Y0130966D01*
X0194396Y0131385D01*
X0195170Y0132159D01*
X0195589Y0133169D01*
X0195589Y0133638D01*
X0197526Y0135575D01*
X0198197Y0135297D01*
X0199291Y0135297D01*
X0200302Y0135716D01*
X0201075Y0136489D01*
X0201494Y0137500D01*
X0201494Y0138594D01*
X0201075Y0139605D01*
X0198719Y0140797D02*
X0198719Y0161398D01*
X0195657Y0162019D02*
X0156102Y0162019D01*
X0157119Y0162534D02*
X0157119Y0156000D01*
X0154869Y0155619D02*
X0136173Y0155619D01*
X0137193Y0155934D02*
X0137193Y0155934D01*
X0128319Y0154691D02*
X0128319Y0127893D01*
X0125119Y0127178D02*
X0125119Y0154865D01*
X0115519Y0153613D02*
X0115519Y0147837D01*
X0112319Y0147499D02*
X0112319Y0152473D01*
X0113496Y0153421D02*
X0113496Y0153421D01*
X0105919Y0151628D02*
X0105919Y0116428D01*
X0104517Y0117219D02*
X0110206Y0117219D01*
X0109637Y0114019D02*
X0107564Y0114019D01*
X0107598Y0110819D02*
X0109637Y0110819D01*
X0105919Y0108328D02*
X0105919Y0106428D01*
X0104713Y0107619D02*
X0110215Y0107619D01*
X0107398Y0104419D02*
X0185167Y0104419D01*
X0185919Y0105232D02*
X0185919Y0106296D01*
X0187259Y0107619D02*
X0188127Y0107619D01*
X0189119Y0108691D02*
X0189119Y0125811D01*
X0188692Y0123619D02*
X0209392Y0123619D01*
X0210243Y0120419D02*
X0187841Y0120419D01*
X0185919Y0122895D02*
X0185919Y0123495D01*
X0182719Y0123495D02*
X0182719Y0122895D01*
X0179519Y0122895D02*
X0179519Y0123495D01*
X0179392Y0123619D02*
X0171473Y0123619D01*
X0169919Y0122618D02*
X0169919Y0116547D01*
X0169937Y0116604D02*
X0169738Y0115990D01*
X0169637Y0115353D01*
X0169637Y0112730D01*
X0173437Y0112730D01*
X0173437Y0112130D01*
X0174037Y0112130D01*
X0174037Y0105730D01*
X0174060Y0105730D01*
X0174697Y0105831D01*
X0175311Y0106030D01*
X0175886Y0106323D01*
X0176408Y0106703D01*
X0176864Y0107159D01*
X0177244Y0107681D01*
X0177537Y0108256D01*
X0177736Y0108870D01*
X0177837Y0109507D01*
X0177837Y0112130D01*
X0174037Y0112130D01*
X0174037Y0112730D01*
X0177837Y0112730D01*
X0177837Y0115353D01*
X0177736Y0115990D01*
X0177537Y0116604D01*
X0177244Y0117179D01*
X0176864Y0117701D01*
X0176408Y0118157D01*
X0175886Y0118537D01*
X0175311Y0118830D01*
X0174697Y0119029D01*
X0174060Y0119130D01*
X0174037Y0119130D01*
X0174037Y0112730D01*
X0173437Y0112730D01*
X0173437Y0119130D01*
X0173414Y0119130D01*
X0172777Y0119029D01*
X0172163Y0118830D01*
X0171588Y0118537D01*
X0171066Y0118157D01*
X0170610Y0117701D01*
X0170230Y0117179D01*
X0169937Y0116604D01*
X0170259Y0117219D02*
X0167268Y0117219D01*
X0167213Y0117352D02*
X0166059Y0118506D01*
X0164553Y0119130D01*
X0162921Y0119130D01*
X0161415Y0118506D01*
X0160261Y0117352D01*
X0159637Y0115846D01*
X0159637Y0109014D01*
X0160261Y0107508D01*
X0161415Y0106354D01*
X0162921Y0105730D01*
X0164553Y0105730D01*
X0166059Y0106354D01*
X0167213Y0107508D01*
X0167837Y0109014D01*
X0167837Y0115846D01*
X0167213Y0117352D01*
X0166719Y0117846D02*
X0166719Y0122285D01*
X0164362Y0123619D02*
X0161473Y0123619D01*
X0160319Y0122783D02*
X0160319Y0117410D01*
X0160206Y0117219D02*
X0157268Y0117219D01*
X0157213Y0117352D02*
X0156059Y0118506D01*
X0154553Y0119130D01*
X0152921Y0119130D01*
X0151415Y0118506D01*
X0150261Y0117352D01*
X0149637Y0115846D01*
X0149637Y0109014D01*
X0150261Y0107508D01*
X0151415Y0106354D01*
X0152921Y0105730D01*
X0154553Y0105730D01*
X0156059Y0106354D01*
X0157213Y0107508D01*
X0157837Y0109014D01*
X0157837Y0115846D01*
X0157213Y0117352D01*
X0157119Y0117446D02*
X0157119Y0122217D01*
X0154338Y0122913D02*
X0154338Y0122937D01*
X0149524Y0122937D01*
X0149524Y0118123D01*
X0149547Y0118123D01*
X0150355Y0118251D01*
X0151134Y0118504D01*
X0151863Y0118875D01*
X0152525Y0119356D01*
X0153104Y0119935D01*
X0153585Y0120597D01*
X0153957Y0121327D01*
X0154210Y0122105D01*
X0154338Y0122913D01*
X0153919Y0122937D02*
X0153919Y0123709D01*
X0154362Y0123619D02*
X0149524Y0123619D01*
X0148752Y0123619D02*
X0142133Y0123619D01*
X0144319Y0123709D02*
X0144319Y0122937D01*
X0144319Y0121326D02*
X0144319Y0119130D01*
X0144553Y0119130D02*
X0142921Y0119130D01*
X0141415Y0118506D01*
X0140261Y0117352D01*
X0139637Y0115846D01*
X0139637Y0109014D01*
X0140261Y0107508D01*
X0141415Y0106354D01*
X0142921Y0105730D01*
X0144553Y0105730D01*
X0146059Y0106354D01*
X0147213Y0107508D01*
X0147837Y0109014D01*
X0147837Y0115846D01*
X0147213Y0117352D01*
X0146059Y0118506D01*
X0144553Y0119130D01*
X0144820Y0120419D02*
X0141620Y0120419D01*
X0141119Y0119525D02*
X0141119Y0118210D01*
X0140206Y0117219D02*
X0137268Y0117219D01*
X0137919Y0117493D02*
X0137919Y0074956D01*
X0137256Y0075619D02*
X0140007Y0075619D01*
X0141119Y0076477D02*
X0141119Y0076650D01*
X0139718Y0078819D02*
X0137756Y0078819D01*
X0137837Y0082019D02*
X0139637Y0082019D01*
X0139637Y0085219D02*
X0137837Y0085219D01*
X0136147Y0088419D02*
X0141327Y0088419D01*
X0141119Y0088210D02*
X0141119Y0106650D01*
X0140215Y0107619D02*
X0137259Y0107619D01*
X0134719Y0105799D02*
X0134719Y0089061D01*
X0131519Y0088549D02*
X0131519Y0106311D01*
X0130215Y0107619D02*
X0127259Y0107619D01*
X0125119Y0105965D02*
X0125119Y0088895D01*
X0126147Y0088419D02*
X0131327Y0088419D01*
X0129637Y0085219D02*
X0127837Y0085219D01*
X0127837Y0082019D02*
X0129637Y0082019D01*
X0129718Y0078819D02*
X0127756Y0078819D01*
X0125119Y0075965D02*
X0125119Y0064839D01*
X0125131Y0064851D02*
X0124574Y0064294D01*
X0124136Y0063639D01*
X0123835Y0062911D01*
X0123681Y0062138D01*
X0123681Y0059433D01*
X0127492Y0059433D01*
X0127492Y0065744D01*
X0127287Y0065744D01*
X0126514Y0065590D01*
X0125786Y0065289D01*
X0125131Y0064851D01*
X0124104Y0066019D02*
X0133244Y0066019D01*
X0128319Y0065695D02*
X0128319Y0117493D01*
X0127268Y0117219D02*
X0130206Y0117219D01*
X0131519Y0118549D02*
X0131519Y0118980D01*
X0129637Y0114019D02*
X0127837Y0114019D01*
X0127837Y0110819D02*
X0129637Y0110819D01*
X0137837Y0110819D02*
X0139637Y0110819D01*
X0139637Y0114019D02*
X0137837Y0114019D01*
X0147268Y0117219D02*
X0150206Y0117219D01*
X0150719Y0117810D02*
X0150719Y0118369D01*
X0149524Y0120419D02*
X0148752Y0120419D01*
X0147519Y0118381D02*
X0147519Y0116613D01*
X0147837Y0114019D02*
X0149637Y0114019D01*
X0149637Y0110819D02*
X0147837Y0110819D01*
X0147519Y0108247D02*
X0147519Y0086613D01*
X0147837Y0085219D02*
X0149637Y0085219D01*
X0149637Y0082019D02*
X0147837Y0082019D01*
X0147756Y0078819D02*
X0149718Y0078819D01*
X0150719Y0077050D02*
X0150719Y0076707D01*
X0149562Y0075619D02*
X0147256Y0075619D01*
X0147519Y0075356D02*
X0147519Y0078247D01*
X0157119Y0077414D02*
X0157119Y0076035D01*
X0157535Y0075619D02*
X0159562Y0075619D01*
X0160319Y0076375D02*
X0160319Y0077450D01*
X0159718Y0078819D02*
X0157756Y0078819D01*
X0157837Y0082019D02*
X0159637Y0082019D01*
X0159637Y0085219D02*
X0157837Y0085219D01*
X0157119Y0087446D02*
X0157119Y0107414D01*
X0157259Y0107619D02*
X0160215Y0107619D01*
X0160319Y0107450D02*
X0160319Y0087410D01*
X0161327Y0088419D02*
X0156147Y0088419D01*
X0153919Y0089130D02*
X0153919Y0105730D01*
X0150719Y0107050D02*
X0150719Y0087810D01*
X0151327Y0088419D02*
X0146147Y0088419D01*
X0144319Y0089130D02*
X0144319Y0105730D01*
X0147259Y0107619D02*
X0150215Y0107619D01*
X0157837Y0110819D02*
X0159637Y0110819D01*
X0159637Y0114019D02*
X0157837Y0114019D01*
X0153919Y0119130D02*
X0153919Y0121252D01*
X0153455Y0120419D02*
X0180243Y0120419D01*
X0179519Y0121142D02*
X0179519Y0097961D01*
X0179570Y0098019D02*
X0105610Y0098019D01*
X0105919Y0098328D02*
X0105919Y0095470D01*
X0106570Y0094819D02*
X0176765Y0094819D01*
X0176319Y0094310D02*
X0176319Y0106638D01*
X0177198Y0107619D02*
X0180215Y0107619D01*
X0182719Y0105814D02*
X0182719Y0101611D01*
X0182375Y0101219D02*
X0107763Y0101219D01*
X0102719Y0097178D02*
X0102719Y0096554D01*
X0099519Y0095546D02*
X0099519Y0098121D01*
X0099621Y0098019D02*
X0057934Y0098019D01*
X0057919Y0098101D02*
X0057919Y0103692D01*
X0058283Y0104419D02*
X0075219Y0104419D01*
X0073919Y0105719D02*
X0073919Y0061600D01*
X0077119Y0061858D02*
X0077119Y0103417D01*
X0080319Y0102925D02*
X0080319Y0088816D01*
X0079701Y0088560D02*
X0078238Y0087097D01*
X0077446Y0085186D01*
X0077446Y0083117D01*
X0078238Y0081206D01*
X0079701Y0079743D01*
X0081612Y0078952D01*
X0083681Y0078952D01*
X0085592Y0079743D01*
X0087055Y0081206D01*
X0087846Y0083117D01*
X0087846Y0085186D01*
X0087055Y0087097D01*
X0085592Y0088560D01*
X0083681Y0089352D01*
X0081612Y0089352D01*
X0079701Y0088560D01*
X0079559Y0088419D02*
X0060133Y0088419D01*
X0061119Y0087433D02*
X0061119Y0108643D01*
X0060432Y0107619D02*
X0072888Y0107619D01*
X0072374Y0110819D02*
X0062580Y0110819D01*
X0070590Y0118113D02*
X0070590Y0118113D01*
X0070667Y0118141D02*
X0070667Y0118141D01*
X0070719Y0118183D02*
X0070719Y0058011D01*
X0071385Y0059619D02*
X0069329Y0059619D01*
X0062332Y0059619D02*
X0060184Y0059619D01*
X0061119Y0057977D02*
X0061119Y0063070D01*
X0060867Y0062819D02*
X0078826Y0062819D01*
X0080319Y0061702D02*
X0080319Y0059516D01*
X0080277Y0059619D02*
X0082332Y0059619D01*
X0083519Y0060434D02*
X0083519Y0061225D01*
X0083146Y0062819D02*
X0082146Y0062819D01*
X0082146Y0066019D02*
X0062246Y0066019D01*
X0061487Y0069219D02*
X0078302Y0069219D01*
X0078199Y0069077D02*
X0077827Y0068348D01*
X0077574Y0067569D01*
X0077461Y0066852D01*
X0082146Y0066852D01*
X0082146Y0071537D01*
X0081429Y0071424D01*
X0080650Y0071171D01*
X0079921Y0070799D01*
X0079259Y0070318D01*
X0078680Y0069739D01*
X0078199Y0069077D01*
X0080319Y0071002D02*
X0080319Y0079487D01*
X0083519Y0078952D02*
X0083519Y0071478D01*
X0083146Y0069219D02*
X0082146Y0069219D01*
X0080319Y0066852D02*
X0080319Y0065852D01*
X0086719Y0069593D02*
X0086719Y0080870D01*
X0087391Y0082019D02*
X0097481Y0082019D01*
X0099192Y0085219D02*
X0087833Y0085219D01*
X0086719Y0087433D02*
X0086719Y0107732D01*
X0086672Y0107619D02*
X0100517Y0107619D01*
X0099519Y0108121D02*
X0099519Y0106636D01*
X0097832Y0104419D02*
X0084340Y0104419D01*
X0083519Y0103864D02*
X0083519Y0089352D01*
X0085733Y0088419D02*
X0098269Y0088419D01*
X0099519Y0087162D02*
X0099519Y0085546D01*
X0097481Y0091619D02*
X0055611Y0091619D01*
X0057919Y0089352D02*
X0057919Y0096728D01*
X0058076Y0097245D02*
X0058076Y0097245D01*
X0057443Y0095165D02*
X0057443Y0095165D01*
X0057166Y0094881D02*
X0057166Y0094881D01*
X0057105Y0094819D02*
X0098792Y0094819D01*
X0107881Y0091619D02*
X0173960Y0091619D01*
X0173119Y0090660D02*
X0173119Y0105777D01*
X0173414Y0105730D02*
X0173437Y0105730D01*
X0173437Y0112130D01*
X0169637Y0112130D01*
X0169637Y0109507D01*
X0169738Y0108870D01*
X0169937Y0108256D01*
X0170230Y0107681D01*
X0170610Y0107159D01*
X0171066Y0106703D01*
X0171588Y0106323D01*
X0172163Y0106030D01*
X0172777Y0105831D01*
X0173414Y0105730D01*
X0173437Y0107619D02*
X0174037Y0107619D01*
X0170276Y0107619D02*
X0167259Y0107619D01*
X0166719Y0107014D02*
X0166719Y0087846D01*
X0166147Y0088419D02*
X0171110Y0088419D01*
X0169919Y0086526D02*
X0169919Y0108313D01*
X0169637Y0110819D02*
X0167837Y0110819D01*
X0169919Y0112130D02*
X0169919Y0112730D01*
X0169637Y0114019D02*
X0167837Y0114019D01*
X0173119Y0112730D02*
X0173119Y0112130D01*
X0173437Y0110819D02*
X0174037Y0110819D01*
X0176319Y0112130D02*
X0176319Y0112730D01*
X0177837Y0114019D02*
X0179637Y0114019D01*
X0180206Y0117219D02*
X0177215Y0117219D01*
X0176319Y0118222D02*
X0176319Y0125811D01*
X0179519Y0125811D02*
X0179519Y0125249D01*
X0179519Y0129811D02*
X0179519Y0131142D01*
X0180643Y0130019D02*
X0174835Y0130019D01*
X0176319Y0129811D02*
X0176319Y0130577D01*
X0173154Y0127811D02*
X0194413Y0127811D01*
X0195201Y0127023D01*
X0195594Y0127023D01*
X0201500Y0132929D01*
X0202681Y0133323D01*
X0205431Y0133219D02*
X0209392Y0133219D01*
X0210689Y0136419D02*
X0201005Y0136419D01*
X0201919Y0135984D02*
X0201919Y0160749D01*
X0205119Y0160101D02*
X0205119Y0134623D01*
X0205119Y0132022D02*
X0205119Y0118895D01*
X0204553Y0119130D02*
X0202921Y0119130D01*
X0201415Y0118506D01*
X0200261Y0117352D01*
X0199637Y0115846D01*
X0199637Y0109014D01*
X0200261Y0107508D01*
X0201415Y0106354D01*
X0202921Y0105730D01*
X0204553Y0105730D01*
X0206059Y0106354D01*
X0207213Y0107508D01*
X0207837Y0109014D01*
X0207837Y0115846D01*
X0207213Y0117352D01*
X0206059Y0118506D01*
X0204553Y0119130D01*
X0201919Y0118715D02*
X0201919Y0130519D01*
X0201418Y0130019D02*
X0210643Y0130019D01*
X0217441Y0130019D02*
X0222754Y0130019D01*
X0217919Y0130496D02*
X0217919Y0125895D01*
X0218692Y0123619D02*
X0221401Y0123619D01*
X0221119Y0123900D02*
X0221119Y0118210D01*
X0221415Y0118506D02*
X0220261Y0117352D01*
X0219637Y0115846D01*
X0219637Y0109014D01*
X0220261Y0107508D01*
X0220495Y0107273D01*
X0219627Y0106914D01*
X0218854Y0106140D01*
X0218435Y0105130D01*
X0218435Y0104661D01*
X0216813Y0103039D01*
X0205002Y0103039D01*
X0204177Y0102214D01*
X0203315Y0102214D01*
X0202304Y0101796D01*
X0201531Y0101022D01*
X0201112Y0100011D01*
X0201112Y0098917D01*
X0201531Y0097907D01*
X0202304Y0097133D01*
X0203315Y0096714D01*
X0204409Y0096714D01*
X0205420Y0097133D01*
X0206194Y0097907D01*
X0206612Y0098917D01*
X0206612Y0098992D01*
X0206659Y0099039D01*
X0218470Y0099039D01*
X0221263Y0101833D01*
X0221732Y0101833D01*
X0222743Y0102251D01*
X0223516Y0103025D01*
X0223935Y0104035D01*
X0223935Y0105130D01*
X0223686Y0105730D01*
X0224553Y0105730D01*
X0226059Y0106354D01*
X0227213Y0107508D01*
X0227837Y0109014D01*
X0227837Y0115846D01*
X0227213Y0117352D01*
X0226059Y0118506D01*
X0224553Y0119130D01*
X0222921Y0119130D01*
X0221415Y0118506D01*
X0220206Y0117219D02*
X0217268Y0117219D01*
X0217837Y0114019D02*
X0219637Y0114019D01*
X0219637Y0110819D02*
X0217837Y0110819D01*
X0217259Y0107619D02*
X0220215Y0107619D01*
X0221185Y0104583D02*
X0217642Y0101039D01*
X0205831Y0101039D01*
X0204256Y0099464D01*
X0203862Y0099464D01*
X0201919Y0097519D02*
X0201919Y0088715D01*
X0201415Y0088506D02*
X0200261Y0087352D01*
X0199637Y0085846D01*
X0199637Y0079014D01*
X0200261Y0077508D01*
X0201415Y0076354D01*
X0202921Y0075730D01*
X0204553Y0075730D01*
X0206059Y0076354D01*
X0207213Y0077508D01*
X0207837Y0079014D01*
X0207837Y0085846D01*
X0207213Y0087352D01*
X0206059Y0088506D01*
X0204553Y0089130D01*
X0202921Y0089130D01*
X0201415Y0088506D01*
X0201327Y0088419D02*
X0196147Y0088419D01*
X0196059Y0088506D02*
X0194553Y0089130D01*
X0192921Y0089130D01*
X0191415Y0088506D01*
X0190261Y0087352D01*
X0189637Y0085846D01*
X0189637Y0079014D01*
X0190261Y0077508D01*
X0191415Y0076354D01*
X0192921Y0075730D01*
X0194553Y0075730D01*
X0196059Y0076354D01*
X0197213Y0077508D01*
X0197837Y0079014D01*
X0197837Y0085846D01*
X0197213Y0087352D01*
X0196059Y0088506D01*
X0195519Y0088730D02*
X0195519Y0106130D01*
X0197259Y0107619D02*
X0200215Y0107619D01*
X0201919Y0106145D02*
X0201919Y0101410D01*
X0201727Y0101219D02*
X0190653Y0101219D01*
X0189119Y0099507D02*
X0189119Y0075416D01*
X0188913Y0075483D02*
X0188175Y0075600D01*
X0187990Y0075600D01*
X0187990Y0071039D01*
X0187612Y0071039D01*
X0187612Y0075600D01*
X0187427Y0075600D01*
X0186688Y0075483D01*
X0185977Y0075252D01*
X0185311Y0074912D01*
X0184706Y0074473D01*
X0184178Y0073944D01*
X0183738Y0073339D01*
X0183399Y0072673D01*
X0183168Y0071962D01*
X0183051Y0071223D01*
X0183051Y0071039D01*
X0187612Y0071039D01*
X0187612Y0070661D01*
X0183051Y0070661D01*
X0183051Y0070476D01*
X0183168Y0069737D01*
X0183399Y0069026D01*
X0183738Y0068360D01*
X0184178Y0067755D01*
X0184706Y0067227D01*
X0185311Y0066787D01*
X0185977Y0066448D01*
X0186688Y0066217D01*
X0187427Y0066100D01*
X0187612Y0066100D01*
X0187612Y0070661D01*
X0187990Y0070661D01*
X0187990Y0071039D01*
X0192551Y0071039D01*
X0192551Y0071223D01*
X0192434Y0071962D01*
X0192203Y0072673D01*
X0191863Y0073339D01*
X0191424Y0073944D01*
X0190895Y0074473D01*
X0190290Y0074912D01*
X0189624Y0075252D01*
X0188913Y0075483D01*
X0186864Y0077159D02*
X0187244Y0077681D01*
X0187537Y0078256D01*
X0187736Y0078870D01*
X0187837Y0079507D01*
X0187837Y0082130D01*
X0184037Y0082130D01*
X0184037Y0075730D01*
X0184060Y0075730D01*
X0184697Y0075831D01*
X0185311Y0076030D01*
X0185886Y0076323D01*
X0186408Y0076703D01*
X0186864Y0077159D01*
X0185919Y0076347D02*
X0185919Y0075222D01*
X0183437Y0075730D02*
X0183437Y0082130D01*
X0184037Y0082130D01*
X0184037Y0082730D01*
X0187837Y0082730D01*
X0187837Y0085353D01*
X0187736Y0085990D01*
X0187537Y0086604D01*
X0187244Y0087179D01*
X0186864Y0087701D01*
X0186408Y0088157D01*
X0185886Y0088537D01*
X0185311Y0088830D01*
X0184697Y0089029D01*
X0184060Y0089130D01*
X0184037Y0089130D01*
X0184037Y0082730D01*
X0183437Y0082730D01*
X0183437Y0082130D01*
X0179637Y0082130D01*
X0179637Y0079507D01*
X0179738Y0078870D01*
X0179937Y0078256D01*
X0180230Y0077681D01*
X0180610Y0077159D01*
X0181066Y0076703D01*
X0181588Y0076323D01*
X0182163Y0076030D01*
X0182777Y0075831D01*
X0183414Y0075730D01*
X0183437Y0075730D01*
X0182719Y0075850D02*
X0182719Y0063120D01*
X0182594Y0062819D02*
X0180418Y0062819D01*
X0179519Y0064588D02*
X0179519Y0068130D01*
X0180136Y0069219D02*
X0183336Y0069219D01*
X0185919Y0070661D02*
X0185919Y0071039D01*
X0187990Y0070661D02*
X0187990Y0066100D01*
X0188175Y0066100D01*
X0188913Y0066217D01*
X0189624Y0066448D01*
X0190290Y0066787D01*
X0190895Y0067227D01*
X0191424Y0067755D01*
X0191863Y0068360D01*
X0192203Y0069026D01*
X0192434Y0069737D01*
X0192551Y0070476D01*
X0192551Y0070661D01*
X0187990Y0070661D01*
X0189119Y0070661D02*
X0189119Y0071039D01*
X0187990Y0072419D02*
X0187612Y0072419D01*
X0183316Y0072419D02*
X0180584Y0072419D01*
X0179519Y0074588D02*
X0179519Y0088555D01*
X0179399Y0088419D02*
X0181426Y0088419D01*
X0181588Y0088537D02*
X0181066Y0088157D01*
X0180610Y0087701D01*
X0180230Y0087179D01*
X0179937Y0086604D01*
X0179738Y0085990D01*
X0179637Y0085353D01*
X0179637Y0082730D01*
X0183437Y0082730D01*
X0183437Y0089130D01*
X0183414Y0089130D01*
X0182777Y0089029D01*
X0182163Y0088830D01*
X0181588Y0088537D01*
X0182719Y0089010D02*
X0182719Y0092206D01*
X0182204Y0091619D02*
X0237689Y0091619D01*
X0236059Y0088506D02*
X0234553Y0089130D01*
X0232921Y0089130D01*
X0231415Y0088506D01*
X0230261Y0087352D01*
X0229637Y0085846D01*
X0229637Y0079014D01*
X0230261Y0077508D01*
X0231415Y0076354D01*
X0232921Y0075730D01*
X0234553Y0075730D01*
X0236059Y0076354D01*
X0237213Y0077508D01*
X0237837Y0079014D01*
X0237837Y0084614D01*
X0238351Y0084201D01*
X0238861Y0083691D01*
X0238984Y0083691D01*
X0239637Y0083164D01*
X0239637Y0079014D01*
X0240261Y0077508D01*
X0241415Y0076354D01*
X0242921Y0075730D01*
X0244553Y0075730D01*
X0246059Y0076354D01*
X0247213Y0077508D01*
X0247837Y0079014D01*
X0247837Y0085846D01*
X0247213Y0087352D01*
X0246059Y0088506D01*
X0244553Y0089130D01*
X0242921Y0089130D01*
X0241689Y0088620D01*
X0241689Y0100654D01*
X0242063Y0101028D01*
X0242489Y0102057D01*
X0242489Y0103171D01*
X0242063Y0104200D01*
X0241275Y0104988D01*
X0240246Y0105414D01*
X0239132Y0105414D01*
X0238103Y0104988D01*
X0237315Y0104200D01*
X0236889Y0103171D01*
X0236889Y0102057D01*
X0237315Y0101028D01*
X0237689Y0100654D01*
X0237689Y0086396D01*
X0237636Y0086330D01*
X0237213Y0087352D01*
X0236059Y0088506D01*
X0236147Y0088419D02*
X0237689Y0088419D01*
X0237119Y0087446D02*
X0237119Y0101502D01*
X0237236Y0101219D02*
X0220650Y0101219D01*
X0221119Y0101688D02*
X0221119Y0088210D01*
X0221327Y0088419D02*
X0216147Y0088419D01*
X0216059Y0088506D02*
X0214553Y0089130D01*
X0212921Y0089130D01*
X0211415Y0088506D01*
X0210261Y0087352D01*
X0209637Y0085846D01*
X0209637Y0079014D01*
X0210261Y0077508D01*
X0211415Y0076354D01*
X0212921Y0075730D01*
X0214553Y0075730D01*
X0216059Y0076354D01*
X0217213Y0077508D01*
X0217837Y0079014D01*
X0217837Y0085846D01*
X0217213Y0087352D01*
X0216059Y0088506D01*
X0214719Y0089061D02*
X0214719Y0099039D01*
X0217919Y0099039D02*
X0217919Y0075426D01*
X0217454Y0075619D02*
X0234715Y0075619D01*
X0234763Y0075634D02*
X0234051Y0075403D01*
X0233385Y0075064D01*
X0232780Y0074624D01*
X0232252Y0074095D01*
X0231812Y0073491D01*
X0231473Y0072824D01*
X0231242Y0072113D01*
X0231125Y0071375D01*
X0231125Y0071190D01*
X0235686Y0071190D01*
X0235686Y0075751D01*
X0235501Y0075751D01*
X0234763Y0075634D01*
X0233919Y0075730D02*
X0233919Y0075335D01*
X0235686Y0075619D02*
X0236064Y0075619D01*
X0236064Y0075751D02*
X0236249Y0075751D01*
X0236987Y0075634D01*
X0237698Y0075403D01*
X0238364Y0075064D01*
X0238969Y0074624D01*
X0239498Y0074095D01*
X0239937Y0073491D01*
X0240277Y0072824D01*
X0240508Y0072113D01*
X0240625Y0071375D01*
X0240625Y0071190D01*
X0236064Y0071190D01*
X0236064Y0070812D01*
X0240625Y0070812D01*
X0240625Y0070627D01*
X0240508Y0069889D01*
X0240277Y0069178D01*
X0239937Y0068511D01*
X0239498Y0067907D01*
X0238969Y0067378D01*
X0238364Y0066938D01*
X0237698Y0066599D01*
X0236987Y0066368D01*
X0236249Y0066251D01*
X0236064Y0066251D01*
X0236064Y0070812D01*
X0235686Y0070812D01*
X0235686Y0066251D01*
X0235501Y0066251D01*
X0234763Y0066368D01*
X0234051Y0066599D01*
X0233385Y0066938D01*
X0232780Y0067378D01*
X0232252Y0067907D01*
X0231812Y0068511D01*
X0231473Y0069178D01*
X0231242Y0069889D01*
X0231125Y0070627D01*
X0231125Y0070812D01*
X0235686Y0070812D01*
X0235686Y0071190D01*
X0236064Y0071190D01*
X0236064Y0075751D01*
X0237034Y0075619D02*
X0273609Y0075619D01*
X0273609Y0072875D02*
X0273358Y0072770D01*
X0271895Y0071308D01*
X0271103Y0069396D01*
X0271103Y0067328D01*
X0271895Y0065416D01*
X0273358Y0063954D01*
X0274786Y0063362D01*
X0273358Y0062770D01*
X0271895Y0061308D01*
X0271103Y0059396D01*
X0271103Y0057328D01*
X0271895Y0055416D01*
X0273358Y0053954D01*
X0275269Y0053162D01*
X0277337Y0053162D01*
X0279249Y0053954D01*
X0280711Y0055416D01*
X0281503Y0057328D01*
X0281503Y0059396D01*
X0280711Y0061308D01*
X0279249Y0062770D01*
X0277820Y0063362D01*
X0279249Y0063954D01*
X0280655Y0065360D01*
X0282596Y0065360D01*
X0283904Y0064052D01*
X0285333Y0063460D01*
X0283904Y0062868D01*
X0282441Y0061406D01*
X0281650Y0059494D01*
X0281650Y0057426D01*
X0282441Y0055514D01*
X0283904Y0054052D01*
X0285815Y0053260D01*
X0287884Y0053260D01*
X0289795Y0054052D01*
X0291258Y0055514D01*
X0292050Y0057426D01*
X0292050Y0059494D01*
X0291258Y0061406D01*
X0289795Y0062868D01*
X0288367Y0063460D01*
X0289795Y0064052D01*
X0291258Y0065514D01*
X0292050Y0067426D01*
X0292050Y0069494D01*
X0291258Y0071406D01*
X0289795Y0072868D01*
X0287884Y0073660D01*
X0285815Y0073660D01*
X0283904Y0072868D01*
X0282596Y0071560D01*
X0280459Y0071560D01*
X0279249Y0072770D01*
X0278209Y0073201D01*
X0278209Y0084490D01*
X0278241Y0084521D01*
X0278659Y0085532D01*
X0278659Y0086626D01*
X0278241Y0087636D01*
X0277467Y0088410D01*
X0276456Y0088829D01*
X0275362Y0088829D01*
X0274352Y0088410D01*
X0273578Y0087636D01*
X0273159Y0086626D01*
X0273159Y0085532D01*
X0273578Y0084521D01*
X0273609Y0084490D01*
X0273609Y0072875D01*
X0273006Y0072419D02*
X0240409Y0072419D01*
X0240319Y0072695D02*
X0240319Y0077450D01*
X0239718Y0078819D02*
X0237756Y0078819D01*
X0237119Y0077414D02*
X0237119Y0075591D01*
X0236064Y0072419D02*
X0235686Y0072419D01*
X0237119Y0071190D02*
X0237119Y0070812D01*
X0236064Y0069219D02*
X0235686Y0069219D01*
X0233919Y0070812D02*
X0233919Y0071190D01*
X0231341Y0072419D02*
X0220744Y0072419D01*
X0220940Y0071946D02*
X0220217Y0073692D01*
X0218880Y0075028D01*
X0217135Y0075751D01*
X0215245Y0075751D01*
X0213499Y0075028D01*
X0212163Y0073692D01*
X0211806Y0072831D01*
X0211513Y0073540D01*
X0210176Y0074876D01*
X0208431Y0075600D01*
X0206541Y0075600D01*
X0204795Y0074876D01*
X0203459Y0073540D01*
X0202736Y0071794D01*
X0202736Y0069905D01*
X0203459Y0068159D01*
X0204795Y0066823D01*
X0206541Y0066100D01*
X0208431Y0066100D01*
X0210176Y0066823D01*
X0211513Y0068159D01*
X0211869Y0069020D01*
X0212163Y0068310D01*
X0213499Y0066974D01*
X0215245Y0066251D01*
X0217135Y0066251D01*
X0218880Y0066974D01*
X0220217Y0068310D01*
X0220940Y0070056D01*
X0220940Y0071946D01*
X0220593Y0069219D02*
X0231459Y0069219D01*
X0233919Y0066667D02*
X0233919Y0042892D01*
X0237119Y0043239D02*
X0237119Y0066411D01*
X0240290Y0069219D02*
X0271103Y0069219D01*
X0272319Y0071732D02*
X0272319Y0110144D01*
X0275519Y0110144D02*
X0275519Y0088829D01*
X0274373Y0088419D02*
X0259027Y0088419D01*
X0258621Y0088013D02*
X0262959Y0092351D01*
X0262959Y0098486D01*
X0258621Y0102824D01*
X0252486Y0102824D01*
X0248148Y0098486D01*
X0248148Y0092351D01*
X0252486Y0088013D01*
X0258621Y0088013D01*
X0259519Y0088910D02*
X0259519Y0046829D01*
X0259508Y0046819D02*
X0222824Y0046819D01*
X0222201Y0046561D02*
X0223708Y0047185D01*
X0224861Y0048338D01*
X0225485Y0049845D01*
X0225485Y0051476D01*
X0224861Y0052983D01*
X0223708Y0054136D01*
X0222201Y0054760D01*
X0220570Y0054760D01*
X0219063Y0054136D01*
X0217910Y0052983D01*
X0217285Y0051476D01*
X0217285Y0049845D01*
X0217910Y0048338D01*
X0219063Y0047185D01*
X0220570Y0046561D01*
X0222201Y0046561D01*
X0221119Y0046561D02*
X0221119Y0041503D01*
X0224319Y0041850D02*
X0224319Y0047796D01*
X0225485Y0050019D02*
X0331995Y0050019D01*
X0331661Y0049692D02*
X0331661Y0049692D01*
X0333119Y0050668D02*
X0333119Y0078980D01*
X0333173Y0079086D02*
X0333372Y0079700D01*
X0333473Y0080337D01*
X0333473Y0080360D01*
X0327073Y0080360D01*
X0327073Y0080960D01*
X0326473Y0080960D01*
X0326473Y0084760D01*
X0323850Y0084760D01*
X0323213Y0084659D01*
X0322599Y0084459D01*
X0322024Y0084166D01*
X0321502Y0083787D01*
X0321046Y0083331D01*
X0320667Y0082809D01*
X0320374Y0082234D01*
X0320174Y0081620D01*
X0320073Y0080982D01*
X0320073Y0080960D01*
X0326473Y0080960D01*
X0326473Y0080360D01*
X0320073Y0080360D01*
X0320073Y0080337D01*
X0320174Y0079700D01*
X0320374Y0079086D01*
X0320667Y0078511D01*
X0321046Y0077989D01*
X0321502Y0077532D01*
X0322024Y0077153D01*
X0322599Y0076860D01*
X0323213Y0076661D01*
X0323850Y0076560D01*
X0326473Y0076560D01*
X0326473Y0080360D01*
X0327073Y0080360D01*
X0327073Y0076560D01*
X0329696Y0076560D01*
X0330333Y0076661D01*
X0330947Y0076860D01*
X0331522Y0077153D01*
X0332044Y0077532D01*
X0332500Y0077989D01*
X0332880Y0078511D01*
X0333173Y0079086D01*
X0333037Y0078819D02*
X0349006Y0078819D01*
X0349119Y0078547D02*
X0349119Y0056806D01*
X0346934Y0056875D02*
X0346934Y0056875D01*
X0345919Y0056906D02*
X0345919Y0105326D01*
X0343383Y0104419D02*
X0369040Y0104419D01*
X0368319Y0104996D02*
X0368319Y0052090D01*
X0367140Y0052875D02*
X0367140Y0052875D01*
X0366624Y0053219D02*
X0372338Y0053219D01*
X0372533Y0053764D02*
X0372533Y0053764D01*
X0373504Y0054955D02*
X0373504Y0054955D01*
X0373571Y0054996D02*
X0373571Y0054996D01*
X0374719Y0055694D02*
X0374719Y0103165D01*
X0377919Y0102830D02*
X0377919Y0078798D01*
X0377924Y0078819D02*
X0363252Y0078819D01*
X0363535Y0079500D02*
X0362407Y0076779D01*
X0360324Y0074695D01*
X0357602Y0073568D01*
X0354656Y0073568D01*
X0351934Y0074695D01*
X0349851Y0076779D01*
X0348724Y0079500D01*
X0348724Y0082447D01*
X0349851Y0085168D01*
X0351934Y0087252D01*
X0354656Y0088379D01*
X0357602Y0088379D01*
X0360324Y0087252D01*
X0362407Y0085168D01*
X0363535Y0082447D01*
X0363535Y0079500D01*
X0361919Y0076290D02*
X0361919Y0055009D01*
X0365119Y0053909D02*
X0365119Y0107561D01*
X0365047Y0107619D02*
X0353519Y0107619D01*
X0353563Y0107705D02*
X0353816Y0108483D01*
X0353930Y0109201D01*
X0349244Y0109201D01*
X0349244Y0104515D01*
X0349962Y0104629D01*
X0350740Y0104882D01*
X0351469Y0105253D01*
X0352132Y0105734D01*
X0352710Y0106313D01*
X0353192Y0106975D01*
X0353563Y0107705D01*
X0352319Y0109201D02*
X0352319Y0110201D01*
X0353832Y0110819D02*
X0361054Y0110819D01*
X0361919Y0110125D02*
X0361919Y0085657D01*
X0362357Y0085219D02*
X0380236Y0085219D01*
X0380263Y0085493D02*
X0380263Y0085493D01*
X0380616Y0085956D02*
X0380616Y0085956D01*
X0381119Y0086616D02*
X0381119Y0100527D01*
X0380265Y0101219D02*
X0344146Y0101219D01*
X0344146Y0100508D02*
X0344146Y0102577D01*
X0343354Y0104488D01*
X0341891Y0105951D01*
X0339980Y0106742D01*
X0337911Y0106742D01*
X0336000Y0105951D01*
X0334537Y0104488D01*
X0333746Y0102577D01*
X0333746Y0100508D01*
X0334537Y0098597D01*
X0336000Y0097134D01*
X0337429Y0096542D01*
X0336000Y0095951D01*
X0334537Y0094488D01*
X0333746Y0092577D01*
X0333746Y0090508D01*
X0334537Y0088597D01*
X0336000Y0087134D01*
X0337911Y0086343D01*
X0339980Y0086343D01*
X0341891Y0087134D01*
X0343354Y0088597D01*
X0344146Y0090508D01*
X0344146Y0092577D01*
X0343354Y0094488D01*
X0341891Y0095951D01*
X0340463Y0096542D01*
X0341891Y0097134D01*
X0343354Y0098597D01*
X0344146Y0100508D01*
X0342776Y0098019D02*
X0384214Y0098019D01*
X0384319Y0097934D02*
X0384319Y0091286D01*
X0384473Y0091619D02*
X0344146Y0091619D01*
X0343176Y0088419D02*
X0382493Y0088419D01*
X0381452Y0087054D02*
X0381452Y0087054D01*
X0380017Y0082961D02*
X0380017Y0082961D01*
X0379519Y0082019D02*
X0363535Y0082019D01*
X0358719Y0087917D02*
X0358719Y0113827D01*
X0358609Y0114019D02*
X0351647Y0114019D01*
X0352319Y0113480D02*
X0352319Y0115922D01*
X0353344Y0117219D02*
X0356782Y0117219D01*
X0355519Y0119430D02*
X0355519Y0088379D01*
X0352319Y0087411D02*
X0352319Y0105922D01*
X0349244Y0107619D02*
X0348244Y0107619D01*
X0349119Y0109201D02*
X0349119Y0083400D01*
X0348724Y0082019D02*
X0333243Y0082019D01*
X0333173Y0082234D02*
X0332880Y0082809D01*
X0332500Y0083331D01*
X0332044Y0083787D01*
X0331522Y0084166D01*
X0330947Y0084459D01*
X0330333Y0084659D01*
X0329696Y0084760D01*
X0327073Y0084760D01*
X0327073Y0080960D01*
X0333473Y0080960D01*
X0333473Y0080982D01*
X0333372Y0081620D01*
X0333173Y0082234D01*
X0333119Y0082339D02*
X0333119Y0088989D01*
X0332883Y0088419D02*
X0334716Y0088419D01*
X0332849Y0088337D02*
X0333473Y0089844D01*
X0333473Y0091475D01*
X0332849Y0092982D01*
X0331696Y0094136D01*
X0330189Y0094760D01*
X0323358Y0094760D01*
X0321851Y0094136D01*
X0320697Y0092982D01*
X0320073Y0091475D01*
X0320073Y0089844D01*
X0320697Y0088337D01*
X0321851Y0087184D01*
X0323358Y0086560D01*
X0330189Y0086560D01*
X0331696Y0087184D01*
X0332849Y0088337D01*
X0329919Y0086560D02*
X0329919Y0084724D01*
X0326719Y0086560D02*
X0326719Y0080960D01*
X0326719Y0080360D02*
X0326719Y0065701D01*
X0327145Y0065525D02*
X0324423Y0066652D01*
X0321477Y0066652D01*
X0318755Y0065525D01*
X0316672Y0063442D01*
X0315544Y0060720D01*
X0315544Y0057774D01*
X0316672Y0055052D01*
X0318755Y0052969D01*
X0321477Y0051841D01*
X0324423Y0051841D01*
X0327145Y0052969D01*
X0329228Y0055052D01*
X0330355Y0057774D01*
X0330355Y0060720D01*
X0329228Y0063442D01*
X0327145Y0065525D01*
X0325952Y0066019D02*
X0377179Y0066019D01*
X0377158Y0065900D02*
X0377158Y0065900D01*
X0377919Y0063437D02*
X0377919Y0057639D01*
X0379099Y0059619D02*
X0330355Y0059619D01*
X0329919Y0061773D02*
X0329919Y0076595D01*
X0327073Y0078819D02*
X0326473Y0078819D01*
X0323519Y0080360D02*
X0323519Y0080960D01*
X0326473Y0082019D02*
X0327073Y0082019D01*
X0329919Y0080960D02*
X0329919Y0080360D01*
X0333119Y0080360D02*
X0333119Y0080960D01*
X0336319Y0087002D02*
X0336319Y0052346D01*
X0337985Y0053219D02*
X0327395Y0053219D01*
X0326719Y0052792D02*
X0326719Y0045164D01*
X0328716Y0046819D02*
X0280210Y0046819D01*
X0278719Y0047281D02*
X0278719Y0053734D01*
X0277474Y0053219D02*
X0318505Y0053219D01*
X0317119Y0054604D02*
X0317119Y0042639D01*
X0320319Y0042674D02*
X0320319Y0052321D01*
X0323519Y0051841D02*
X0323519Y0043560D01*
X0323594Y0043619D02*
X0307481Y0043619D01*
X0307519Y0043610D02*
X0307519Y0088633D01*
X0306918Y0088633D02*
X0308544Y0088633D01*
X0311268Y0091357D01*
X0311268Y0092983D01*
X0306918Y0092983D01*
X0306918Y0088633D01*
X0306318Y0088633D02*
X0306318Y0092983D01*
X0306918Y0092983D01*
X0306918Y0093583D01*
X0311268Y0093583D01*
X0311268Y0095209D01*
X0308544Y0097933D01*
X0306918Y0097933D01*
X0306918Y0093583D01*
X0306318Y0093583D01*
X0306318Y0092983D01*
X0301968Y0092983D01*
X0301968Y0091357D01*
X0304692Y0088633D01*
X0306318Y0088633D01*
X0304319Y0089006D02*
X0304319Y0044305D01*
X0304624Y0044239D02*
X0304624Y0044239D01*
X0301119Y0044343D02*
X0301119Y0069136D01*
X0301202Y0069219D02*
X0377750Y0069219D01*
X0377919Y0070168D02*
X0377919Y0070241D01*
X0377003Y0071201D02*
X0377003Y0071201D01*
X0376680Y0072419D02*
X0302522Y0072419D01*
X0302522Y0071658D02*
X0302522Y0073727D01*
X0301730Y0075638D01*
X0300267Y0077101D01*
X0298839Y0077692D01*
X0300267Y0078284D01*
X0301730Y0079747D01*
X0302522Y0081658D01*
X0302522Y0083727D01*
X0301730Y0085638D01*
X0300267Y0087101D01*
X0298356Y0087892D01*
X0296287Y0087892D01*
X0294376Y0087101D01*
X0292913Y0085638D01*
X0292122Y0083727D01*
X0292122Y0081658D01*
X0292913Y0079747D01*
X0294376Y0078284D01*
X0295805Y0077692D01*
X0294376Y0077101D01*
X0292913Y0075638D01*
X0292122Y0073727D01*
X0292122Y0071658D01*
X0292913Y0069747D01*
X0294376Y0068284D01*
X0296287Y0067492D01*
X0298356Y0067492D01*
X0300267Y0068284D01*
X0301730Y0069747D01*
X0302522Y0071658D01*
X0301738Y0075619D02*
X0351011Y0075619D01*
X0352319Y0074536D02*
X0352319Y0056706D01*
X0355519Y0056606D02*
X0355519Y0073568D01*
X0358719Y0074030D02*
X0358719Y0056109D01*
X0357818Y0056419D02*
X0375911Y0056419D01*
X0374750Y0055713D02*
X0374750Y0055713D01*
X0366087Y0053576D02*
X0366087Y0053576D01*
X0371519Y0050928D02*
X0371519Y0103500D01*
X0384620Y0097667D02*
X0384620Y0097667D01*
X0385734Y0094819D02*
X0343023Y0094819D01*
X0342719Y0095123D02*
X0342719Y0097962D01*
X0336319Y0097002D02*
X0336319Y0096083D01*
X0334868Y0094819D02*
X0311268Y0094819D01*
X0310719Y0095759D02*
X0310719Y0101032D01*
X0310796Y0101219D02*
X0320073Y0101219D01*
X0320073Y0101475D02*
X0320073Y0099844D01*
X0320697Y0098337D01*
X0321851Y0097184D01*
X0323358Y0096560D01*
X0330189Y0096560D01*
X0331696Y0097184D01*
X0332849Y0098337D01*
X0333473Y0099844D01*
X0333473Y0101475D01*
X0332849Y0102982D01*
X0331696Y0104136D01*
X0330189Y0104760D01*
X0323358Y0104760D01*
X0321851Y0104136D01*
X0320697Y0102982D01*
X0320073Y0101475D01*
X0320319Y0102068D02*
X0320319Y0115205D01*
X0320953Y0115468D02*
X0323036Y0117551D01*
X0324164Y0120273D01*
X0324164Y0123219D01*
X0323036Y0125941D01*
X0320953Y0128024D01*
X0318231Y0129152D01*
X0315285Y0129152D01*
X0312564Y0128024D01*
X0310480Y0125941D01*
X0309353Y0123219D01*
X0309353Y0120273D01*
X0310480Y0117551D01*
X0312564Y0115468D01*
X0315285Y0114341D01*
X0318231Y0114341D01*
X0320953Y0115468D01*
X0322704Y0117219D02*
X0344144Y0117219D01*
X0345919Y0115242D02*
X0345919Y0114076D01*
X0345841Y0114019D02*
X0342468Y0114019D01*
X0342608Y0113879D02*
X0340206Y0116281D01*
X0336810Y0116281D01*
X0334408Y0113879D01*
X0334408Y0110483D01*
X0336810Y0108081D01*
X0340206Y0108081D01*
X0342608Y0110483D01*
X0342608Y0113879D01*
X0339519Y0116281D02*
X0339519Y0118081D01*
X0340206Y0118081D02*
X0342608Y0120483D01*
X0342608Y0123879D01*
X0340206Y0126281D01*
X0336810Y0126281D01*
X0334408Y0123879D01*
X0334408Y0120483D01*
X0336810Y0118081D01*
X0340206Y0118081D01*
X0342544Y0120419D02*
X0343544Y0120419D01*
X0342608Y0123619D02*
X0345308Y0123619D01*
X0345919Y0124159D02*
X0345919Y0129386D01*
X0345275Y0130019D02*
X0294916Y0130019D01*
X0294719Y0129543D02*
X0294719Y0101372D01*
X0294872Y0101219D02*
X0302440Y0101219D01*
X0302676Y0100649D02*
X0303984Y0099341D01*
X0305693Y0098633D01*
X0307543Y0098633D01*
X0309252Y0099341D01*
X0310560Y0100649D01*
X0311268Y0102358D01*
X0311268Y0104208D01*
X0310560Y0105917D01*
X0309252Y0107225D01*
X0307543Y0107933D01*
X0305693Y0107933D01*
X0303984Y0107225D01*
X0302676Y0105917D01*
X0301968Y0104208D01*
X0301968Y0102358D01*
X0302676Y0100649D01*
X0304319Y0099203D02*
X0304319Y0097560D01*
X0304692Y0097933D02*
X0301968Y0095209D01*
X0301968Y0093583D01*
X0306318Y0093583D01*
X0306318Y0097933D01*
X0304692Y0097933D01*
X0307519Y0097933D02*
X0307519Y0098633D01*
X0306918Y0094819D02*
X0306318Y0094819D01*
X0307519Y0093583D02*
X0307519Y0092983D01*
X0306918Y0091619D02*
X0306318Y0091619D01*
X0304319Y0092983D02*
X0304319Y0093583D01*
X0301968Y0094819D02*
X0297605Y0094819D01*
X0297605Y0092351D02*
X0297605Y0098486D01*
X0293267Y0102824D01*
X0287132Y0102824D01*
X0282794Y0098486D01*
X0282794Y0092351D01*
X0287132Y0088013D01*
X0293267Y0088013D01*
X0297605Y0092351D01*
X0296873Y0091619D02*
X0301968Y0091619D01*
X0297919Y0087892D02*
X0297919Y0139430D01*
X0297311Y0139566D02*
X0297311Y0139566D01*
X0297235Y0139619D02*
X0294495Y0139619D01*
X0294719Y0140159D02*
X0294719Y0133953D01*
X0295023Y0133219D02*
X0337224Y0133219D01*
X0336319Y0133444D02*
X0336319Y0125790D01*
X0334408Y0123619D02*
X0323998Y0123619D01*
X0323519Y0124777D02*
X0323519Y0135576D01*
X0320642Y0135725D02*
X0320642Y0135725D01*
X0320319Y0135856D02*
X0320319Y0128287D01*
X0322159Y0126819D02*
X0348531Y0126819D01*
X0349119Y0126241D02*
X0349119Y0124901D01*
X0353944Y0120419D02*
X0354954Y0120419D01*
X0359152Y0113068D02*
X0359152Y0113068D01*
X0359916Y0111730D02*
X0359916Y0111730D01*
X0345919Y0110201D02*
X0345919Y0109201D01*
X0343969Y0107619D02*
X0308302Y0107619D01*
X0307519Y0107933D02*
X0307519Y0137281D01*
X0310719Y0136565D02*
X0310719Y0126180D01*
X0311358Y0126819D02*
X0291692Y0126819D01*
X0291519Y0126747D02*
X0291519Y0102824D01*
X0288319Y0102824D02*
X0288319Y0126817D01*
X0288316Y0126819D02*
X0287919Y0126819D01*
X0285119Y0128177D02*
X0285119Y0129953D01*
X0285092Y0130019D02*
X0262029Y0130019D01*
X0262719Y0130709D02*
X0262719Y0128177D01*
X0265919Y0128177D02*
X0265919Y0133909D01*
X0265229Y0133219D02*
X0284985Y0133219D01*
X0285119Y0133543D02*
X0285119Y0139809D01*
X0285198Y0139619D02*
X0267592Y0139619D01*
X0267592Y0142819D02*
X0284646Y0142819D01*
X0285119Y0144159D02*
X0285119Y0147734D01*
X0286527Y0146019D02*
X0267592Y0146019D01*
X0266760Y0149219D02*
X0273746Y0149219D01*
X0272319Y0149405D02*
X0272319Y0128177D01*
X0275519Y0128177D02*
X0275519Y0148987D01*
X0278719Y0148570D02*
X0278719Y0128150D01*
X0281919Y0128177D02*
X0281919Y0148152D01*
X0269119Y0149823D02*
X0269119Y0128177D01*
X0282235Y0126819D02*
X0283203Y0126819D01*
X0283203Y0123619D02*
X0282235Y0123619D01*
X0285119Y0123462D02*
X0285119Y0122493D01*
X0283203Y0120419D02*
X0282235Y0120419D01*
X0281919Y0117777D02*
X0281919Y0071560D01*
X0283455Y0072419D02*
X0279600Y0072419D01*
X0278719Y0072990D02*
X0278719Y0110144D01*
X0280624Y0110819D02*
X0334408Y0110819D01*
X0336319Y0108572D02*
X0336319Y0106083D01*
X0334509Y0104419D02*
X0331012Y0104419D01*
X0329919Y0104760D02*
X0329919Y0135038D01*
X0328421Y0135322D02*
X0328421Y0135322D01*
X0326719Y0135410D02*
X0326719Y0104760D01*
X0323519Y0104760D02*
X0323519Y0118716D01*
X0324164Y0120419D02*
X0334472Y0120419D01*
X0336319Y0118572D02*
X0336319Y0115790D01*
X0334547Y0114019D02*
X0281700Y0114019D01*
X0278719Y0116344D02*
X0278719Y0117805D01*
X0275519Y0117777D02*
X0275519Y0116344D01*
X0272319Y0116344D02*
X0272319Y0117777D01*
X0269119Y0117777D02*
X0269119Y0116344D01*
X0265919Y0116344D02*
X0265919Y0117777D01*
X0262719Y0117777D02*
X0262719Y0116344D01*
X0259718Y0117219D02*
X0310813Y0117219D01*
X0310719Y0117313D02*
X0310719Y0105534D01*
X0311181Y0104419D02*
X0322534Y0104419D01*
X0320319Y0099251D02*
X0320319Y0092068D01*
X0320133Y0091619D02*
X0311268Y0091619D01*
X0310719Y0090808D02*
X0310719Y0042915D01*
X0312592Y0042508D02*
X0312592Y0042508D01*
X0313708Y0042493D02*
X0313708Y0042493D01*
X0313919Y0042520D02*
X0313919Y0114907D01*
X0317119Y0114341D02*
X0317119Y0063889D01*
X0316414Y0062819D02*
X0289845Y0062819D01*
X0291519Y0060776D02*
X0291519Y0066144D01*
X0291467Y0066019D02*
X0319947Y0066019D01*
X0320319Y0066173D02*
X0320319Y0079254D01*
X0320510Y0078819D02*
X0300802Y0078819D01*
X0301119Y0079136D02*
X0301119Y0076249D01*
X0294719Y0077243D02*
X0294719Y0078142D01*
X0293842Y0078819D02*
X0278209Y0078819D01*
X0273609Y0078819D02*
X0247756Y0078819D01*
X0246719Y0077014D02*
X0246719Y0063944D01*
X0246890Y0064114D02*
X0244806Y0062031D01*
X0243679Y0059309D01*
X0243679Y0056363D01*
X0244806Y0053642D01*
X0246890Y0051558D01*
X0249611Y0050431D01*
X0252558Y0050431D01*
X0255279Y0051558D01*
X0257363Y0053642D01*
X0258490Y0056363D01*
X0258490Y0059309D01*
X0257363Y0062031D01*
X0255279Y0064114D01*
X0252558Y0065242D01*
X0249611Y0065242D01*
X0246890Y0064114D01*
X0245594Y0062819D02*
X0191272Y0062819D01*
X0190960Y0063572D02*
X0189624Y0064909D01*
X0187878Y0065632D01*
X0185988Y0065632D01*
X0184242Y0064909D01*
X0182906Y0063572D01*
X0182183Y0061827D01*
X0182183Y0059937D01*
X0182906Y0058191D01*
X0184242Y0056855D01*
X0185988Y0056132D01*
X0187878Y0056132D01*
X0189624Y0056855D01*
X0190960Y0058191D01*
X0191683Y0059937D01*
X0191683Y0061827D01*
X0190960Y0063572D01*
X0189119Y0065118D02*
X0189119Y0066283D01*
X0185919Y0066477D02*
X0185919Y0065603D01*
X0187612Y0069219D02*
X0187990Y0069219D01*
X0192265Y0069219D02*
X0203020Y0069219D01*
X0205119Y0066689D02*
X0205119Y0053725D01*
X0205625Y0053219D02*
X0218145Y0053219D01*
X0217919Y0052992D02*
X0217919Y0066576D01*
X0214719Y0066469D02*
X0214719Y0040809D01*
X0217919Y0041156D02*
X0217919Y0048329D01*
X0217285Y0050019D02*
X0206485Y0050019D01*
X0205119Y0047596D02*
X0205119Y0039767D01*
X0208319Y0040114D02*
X0208319Y0066100D01*
X0211519Y0068174D02*
X0211519Y0040462D01*
X0211124Y0040419D02*
X0191619Y0040419D01*
X0191683Y0041386D02*
X0191683Y0041571D01*
X0191566Y0042309D01*
X0191335Y0043020D01*
X0190996Y0043686D01*
X0190556Y0044291D01*
X0190027Y0044820D01*
X0189423Y0045259D01*
X0188756Y0045599D01*
X0188045Y0045830D01*
X0187307Y0045947D01*
X0187122Y0045947D01*
X0187122Y0041386D01*
X0191683Y0041386D01*
X0189119Y0041386D02*
X0189119Y0041008D01*
X0187122Y0041008D02*
X0187122Y0037815D01*
X0186744Y0037774D01*
X0186744Y0041008D01*
X0187122Y0041008D01*
X0187122Y0040419D02*
X0186744Y0040419D01*
X0185919Y0041008D02*
X0185919Y0041386D01*
X0182719Y0041386D02*
X0182719Y0041008D01*
X0182247Y0040419D02*
X0169773Y0040419D01*
X0166719Y0039646D02*
X0166719Y0039046D01*
X0165973Y0040419D02*
X0165373Y0040419D01*
X0163519Y0042990D02*
X0163519Y0045702D01*
X0162403Y0046819D02*
X0142833Y0046819D01*
X0141119Y0044161D02*
X0141119Y0035549D01*
X0144319Y0035427D02*
X0144319Y0055524D01*
X0142960Y0056419D02*
X0142717Y0056419D01*
X0141986Y0053219D02*
X0156072Y0053219D01*
X0156101Y0053199D02*
X0156829Y0052898D01*
X0157602Y0052744D01*
X0157807Y0052744D01*
X0157807Y0059055D01*
X0153996Y0059055D01*
X0153996Y0056350D01*
X0154150Y0055577D01*
X0154451Y0054849D01*
X0154889Y0054194D01*
X0155446Y0053637D01*
X0156101Y0053199D01*
X0157119Y0052840D02*
X0157119Y0046648D01*
X0157807Y0043619D02*
X0158185Y0043619D01*
X0160319Y0046003D02*
X0160319Y0053485D01*
X0160546Y0053637D02*
X0161103Y0054194D01*
X0161541Y0054849D01*
X0161842Y0055577D01*
X0161996Y0056350D01*
X0161996Y0059055D01*
X0158185Y0059055D01*
X0158185Y0059433D01*
X0157807Y0059433D01*
X0157807Y0065744D01*
X0157602Y0065744D01*
X0156829Y0065590D01*
X0156101Y0065289D01*
X0155446Y0064851D01*
X0154889Y0064294D01*
X0154451Y0063639D01*
X0154150Y0062911D01*
X0153996Y0062138D01*
X0153996Y0059433D01*
X0157807Y0059433D01*
X0157807Y0059055D01*
X0158185Y0059055D01*
X0158185Y0052744D01*
X0158390Y0052744D01*
X0159163Y0052898D01*
X0159891Y0053199D01*
X0160546Y0053637D01*
X0159920Y0053219D02*
X0163747Y0053219D01*
X0163519Y0052990D02*
X0163519Y0067051D01*
X0160319Y0068127D02*
X0160319Y0065003D01*
X0160546Y0064851D02*
X0159891Y0065289D01*
X0159163Y0065590D01*
X0158390Y0065744D01*
X0158185Y0065744D01*
X0158185Y0059433D01*
X0161996Y0059433D01*
X0161996Y0062138D01*
X0161842Y0062911D01*
X0161541Y0063639D01*
X0161103Y0064294D01*
X0160546Y0064851D01*
X0161861Y0062819D02*
X0170370Y0062819D01*
X0169919Y0064164D02*
X0169919Y0035949D01*
X0169344Y0037219D02*
X0181625Y0037219D01*
X0182719Y0037337D02*
X0182719Y0039005D01*
X0179519Y0036990D02*
X0179519Y0058130D01*
X0180302Y0059619D02*
X0182315Y0059619D01*
X0182719Y0058643D02*
X0182719Y0043389D01*
X0182836Y0043619D02*
X0161900Y0043619D01*
X0154092Y0043619D02*
X0131585Y0043619D01*
X0131519Y0043931D02*
X0131519Y0055557D01*
X0131681Y0056419D02*
X0137054Y0056419D01*
X0137786Y0053219D02*
X0129605Y0053219D01*
X0128319Y0052792D02*
X0128319Y0046695D01*
X0127870Y0043619D02*
X0127492Y0043619D01*
X0125119Y0045839D02*
X0125119Y0053649D01*
X0125757Y0053219D02*
X0123139Y0053219D01*
X0121919Y0051998D02*
X0121919Y0038923D01*
X0119391Y0040196D02*
X0119391Y0040196D01*
X0118719Y0040184D02*
X0118719Y0051782D01*
X0119704Y0053219D02*
X0120304Y0053219D01*
X0118719Y0055582D02*
X0118719Y0056182D01*
X0119704Y0056419D02*
X0120304Y0056419D01*
X0115904Y0056419D02*
X0111031Y0056419D01*
X0110405Y0053219D02*
X0116869Y0053219D01*
X0109119Y0051698D02*
X0109119Y0042001D01*
X0105919Y0043476D02*
X0105919Y0050564D01*
X0102719Y0051522D02*
X0102719Y0044976D01*
X0105608Y0043619D02*
X0123777Y0043619D01*
X0125119Y0040433D02*
X0125119Y0040055D01*
X0128319Y0040055D02*
X0128319Y0040433D01*
X0131519Y0040433D02*
X0131519Y0040055D01*
X0131655Y0037219D02*
X0154022Y0037219D01*
X0151350Y0035158D02*
X0151350Y0035158D01*
X0150719Y0035182D02*
X0150719Y0060693D01*
X0149791Y0059619D02*
X0153996Y0059619D01*
X0157119Y0059433D02*
X0157119Y0059055D01*
X0157807Y0059619D02*
X0158185Y0059619D01*
X0160319Y0059433D02*
X0160319Y0059055D01*
X0161996Y0059619D02*
X0170487Y0059619D01*
X0173119Y0056673D02*
X0173119Y0036296D01*
X0176319Y0036643D02*
X0176319Y0056159D01*
X0177055Y0056419D02*
X0185295Y0056419D01*
X0185919Y0056160D02*
X0185919Y0045845D01*
X0186744Y0043619D02*
X0187122Y0043619D01*
X0189119Y0045414D02*
X0189119Y0056646D01*
X0188571Y0056419D02*
X0243679Y0056419D01*
X0245229Y0053219D02*
X0224625Y0053219D01*
X0224319Y0053525D02*
X0224319Y0075730D01*
X0224553Y0075730D02*
X0226059Y0076354D01*
X0227213Y0077508D01*
X0227837Y0079014D01*
X0227837Y0085846D01*
X0227213Y0087352D01*
X0226059Y0088506D01*
X0224553Y0089130D01*
X0222921Y0089130D01*
X0221415Y0088506D01*
X0220261Y0087352D01*
X0219637Y0085846D01*
X0219637Y0079014D01*
X0220261Y0077508D01*
X0221415Y0076354D01*
X0222921Y0075730D01*
X0224553Y0075730D01*
X0221119Y0076650D02*
X0221119Y0054760D01*
X0219946Y0046819D02*
X0203824Y0046819D01*
X0201919Y0046561D02*
X0201919Y0039420D01*
X0198719Y0039073D02*
X0198719Y0048798D01*
X0198285Y0050019D02*
X0169773Y0050019D01*
X0168944Y0046819D02*
X0200946Y0046819D01*
X0191030Y0043619D02*
X0240623Y0043619D01*
X0240319Y0043586D02*
X0240319Y0069307D01*
X0240319Y0070812D02*
X0240319Y0071190D01*
X0243519Y0075730D02*
X0243519Y0043933D01*
X0246719Y0044280D02*
X0246719Y0051729D01*
X0249919Y0050431D02*
X0249919Y0044577D01*
X0253119Y0043999D02*
X0253119Y0050663D01*
X0256319Y0052598D02*
X0256319Y0043896D01*
X0256016Y0043619D02*
X0255225Y0043619D01*
X0260341Y0047582D02*
X0260341Y0047582D01*
X0260849Y0048048D02*
X0260849Y0048048D01*
X0262719Y0048723D02*
X0262719Y0092110D01*
X0262227Y0091619D02*
X0283526Y0091619D01*
X0285119Y0090026D02*
X0285119Y0073371D01*
X0288319Y0073480D02*
X0288319Y0088013D01*
X0286726Y0088419D02*
X0277446Y0088419D01*
X0278530Y0085219D02*
X0292740Y0085219D01*
X0292122Y0082019D02*
X0278209Y0082019D01*
X0273609Y0082019D02*
X0247837Y0082019D01*
X0247837Y0085219D02*
X0273289Y0085219D01*
X0256319Y0088013D02*
X0256319Y0063075D01*
X0256575Y0062819D02*
X0273474Y0062819D01*
X0272319Y0061732D02*
X0272319Y0064992D01*
X0271645Y0066019D02*
X0177733Y0066019D01*
X0175394Y0061359D02*
X0165290Y0071857D01*
X0163549Y0072251D01*
X0168749Y0072419D02*
X0170205Y0072419D01*
X0172300Y0075619D02*
X0167535Y0075619D01*
X0166719Y0076435D02*
X0166719Y0077014D01*
X0167756Y0078819D02*
X0169718Y0078819D01*
X0169919Y0078334D02*
X0169919Y0069932D01*
X0170605Y0069219D02*
X0170652Y0069219D01*
X0178489Y0075619D02*
X0214926Y0075619D01*
X0214719Y0075533D02*
X0214719Y0075799D01*
X0211519Y0076311D02*
X0211519Y0073525D01*
X0208319Y0075600D02*
X0208319Y0099039D01*
X0206240Y0098019D02*
X0237689Y0098019D01*
X0237689Y0094819D02*
X0185010Y0094819D01*
X0185919Y0095856D02*
X0185919Y0088513D01*
X0186048Y0088419D02*
X0191327Y0088419D01*
X0192319Y0088880D02*
X0192319Y0103020D01*
X0193613Y0104419D02*
X0218193Y0104419D01*
X0217919Y0104145D02*
X0217919Y0120496D01*
X0217841Y0120419D02*
X0253518Y0120419D01*
X0247213Y0117352D02*
X0246059Y0118506D01*
X0244553Y0119130D01*
X0242921Y0119130D01*
X0241415Y0118506D01*
X0240261Y0117352D01*
X0239637Y0115846D01*
X0239637Y0109014D01*
X0240261Y0107508D01*
X0241415Y0106354D01*
X0242921Y0105730D01*
X0244553Y0105730D01*
X0246059Y0106354D01*
X0247213Y0107508D01*
X0247837Y0109014D01*
X0247837Y0115846D01*
X0247213Y0117352D01*
X0247268Y0117219D02*
X0253518Y0117219D01*
X0253594Y0114019D02*
X0247837Y0114019D01*
X0247837Y0110819D02*
X0256234Y0110819D01*
X0256319Y0110734D02*
X0256319Y0102824D01*
X0253119Y0102824D02*
X0253119Y0127509D01*
X0253518Y0126819D02*
X0251692Y0126819D01*
X0249919Y0126548D02*
X0249919Y0100256D01*
X0250881Y0101219D02*
X0242142Y0101219D01*
X0239689Y0102614D02*
X0239689Y0085691D01*
X0243737Y0082430D01*
X0239637Y0082019D02*
X0237837Y0082019D01*
X0229637Y0082019D02*
X0227837Y0082019D01*
X0227837Y0085219D02*
X0229637Y0085219D01*
X0227519Y0086613D02*
X0227519Y0108247D01*
X0227259Y0107619D02*
X0230215Y0107619D01*
X0230261Y0107508D02*
X0231415Y0106354D01*
X0232921Y0105730D01*
X0234553Y0105730D01*
X0236059Y0106354D01*
X0237213Y0107508D01*
X0237837Y0109014D01*
X0237837Y0115846D01*
X0237213Y0117352D01*
X0236059Y0118506D01*
X0234553Y0119130D01*
X0232921Y0119130D01*
X0231415Y0118506D01*
X0230261Y0117352D01*
X0229637Y0115846D01*
X0229637Y0109014D01*
X0230261Y0107508D01*
X0230719Y0107050D02*
X0230719Y0087810D01*
X0231327Y0088419D02*
X0226147Y0088419D01*
X0224319Y0089130D02*
X0224319Y0105730D01*
X0223935Y0104419D02*
X0237534Y0104419D01*
X0237119Y0103726D02*
X0237119Y0107414D01*
X0237259Y0107619D02*
X0240215Y0107619D01*
X0240319Y0107450D02*
X0240319Y0105384D01*
X0241844Y0104419D02*
X0302055Y0104419D01*
X0304319Y0107364D02*
X0304319Y0137998D01*
X0301119Y0138714D02*
X0301119Y0086249D01*
X0301904Y0085219D02*
X0349902Y0085219D01*
X0342719Y0087962D02*
X0342719Y0055700D01*
X0343419Y0056067D02*
X0343419Y0056067D01*
X0344089Y0056419D02*
X0329794Y0056419D01*
X0329919Y0056721D02*
X0329919Y0047992D01*
X0333318Y0050773D02*
X0333318Y0050773D01*
X0339519Y0054023D02*
X0339519Y0086343D01*
X0333746Y0091619D02*
X0333414Y0091619D01*
X0333119Y0092331D02*
X0333119Y0098989D01*
X0332530Y0098019D02*
X0335116Y0098019D01*
X0329919Y0096560D02*
X0329919Y0094760D01*
X0326719Y0094760D02*
X0326719Y0096560D01*
X0323519Y0096560D02*
X0323519Y0094760D01*
X0321016Y0098019D02*
X0297605Y0098019D01*
X0285527Y0101219D02*
X0260226Y0101219D01*
X0259519Y0101926D02*
X0259519Y0110144D01*
X0262719Y0110144D02*
X0262719Y0098726D01*
X0262959Y0098019D02*
X0282794Y0098019D01*
X0282794Y0094819D02*
X0262959Y0094819D01*
X0249919Y0090580D02*
X0249919Y0065242D01*
X0253119Y0065009D02*
X0253119Y0088013D01*
X0252080Y0088419D02*
X0246147Y0088419D01*
X0246719Y0087846D02*
X0246719Y0107014D01*
X0247259Y0107619D02*
X0304934Y0107619D01*
X0285119Y0100811D02*
X0285119Y0117777D01*
X0287919Y0120419D02*
X0309353Y0120419D01*
X0309518Y0123619D02*
X0287919Y0123619D01*
X0287692Y0136419D02*
X0267592Y0136419D01*
X0261392Y0139619D02*
X0254495Y0139619D01*
X0253119Y0137903D02*
X0253119Y0135987D01*
X0252316Y0136419D02*
X0259661Y0136419D01*
X0259519Y0136277D02*
X0259519Y0151076D01*
X0259817Y0149219D02*
X0240508Y0149219D01*
X0240319Y0149408D02*
X0240319Y0153582D01*
X0243519Y0153165D02*
X0243519Y0119130D01*
X0246719Y0117846D02*
X0246719Y0127679D01*
X0248316Y0126819D02*
X0241431Y0126819D01*
X0240319Y0126642D02*
X0240319Y0125642D01*
X0241062Y0123619D02*
X0253518Y0123619D01*
X0245092Y0130019D02*
X0239708Y0130019D01*
X0240319Y0129408D02*
X0240319Y0133875D01*
X0239662Y0133219D02*
X0244985Y0133219D01*
X0246719Y0135817D02*
X0246719Y0137758D01*
X0247692Y0136419D02*
X0240431Y0136419D01*
X0240319Y0138408D02*
X0240319Y0142875D01*
X0240262Y0142819D02*
X0244646Y0142819D01*
X0245198Y0139619D02*
X0239108Y0139619D01*
X0241431Y0146019D02*
X0246527Y0146019D01*
X0246719Y0146210D02*
X0246719Y0152747D01*
X0249233Y0152419D02*
X0218692Y0152419D01*
X0218692Y0151269D02*
X0215968Y0148545D01*
X0212116Y0148545D01*
X0209392Y0151269D01*
X0209392Y0155122D01*
X0212116Y0157845D01*
X0215968Y0157845D01*
X0218692Y0155122D01*
X0218692Y0151269D01*
X0217919Y0150496D02*
X0217919Y0145895D01*
X0217795Y0146019D02*
X0221031Y0146019D01*
X0221119Y0148383D02*
X0221119Y0156178D01*
X0218439Y0156565D02*
X0218439Y0156565D01*
X0217919Y0156842D02*
X0217919Y0155895D01*
X0218195Y0155619D02*
X0225534Y0155619D01*
X0224319Y0155773D02*
X0224319Y0151342D01*
X0221954Y0149219D02*
X0216641Y0149219D01*
X0214719Y0148545D02*
X0214719Y0147845D01*
X0211519Y0147249D02*
X0211519Y0149142D01*
X0211443Y0149219D02*
X0186641Y0149219D01*
X0185968Y0148545D02*
X0188692Y0151269D01*
X0188692Y0155122D01*
X0185968Y0157845D01*
X0182116Y0157845D01*
X0179392Y0155122D01*
X0179392Y0151269D01*
X0182116Y0148545D01*
X0185968Y0148545D01*
X0185919Y0148545D02*
X0185919Y0147845D01*
X0185968Y0147845D02*
X0182116Y0147845D01*
X0179392Y0145122D01*
X0179392Y0141269D01*
X0182116Y0138545D01*
X0185968Y0138545D01*
X0188692Y0141269D01*
X0188692Y0145122D01*
X0185968Y0147845D01*
X0187795Y0146019D02*
X0210289Y0146019D01*
X0209392Y0142819D02*
X0188692Y0142819D01*
X0187041Y0139619D02*
X0195913Y0139619D01*
X0195519Y0139225D02*
X0195519Y0162047D01*
X0192319Y0162696D02*
X0192319Y0136466D01*
X0192177Y0136419D02*
X0187395Y0136419D01*
X0185919Y0137845D02*
X0185919Y0138545D01*
X0182719Y0138545D02*
X0182719Y0137845D01*
X0181043Y0139619D02*
X0174890Y0139619D01*
X0174524Y0139619D02*
X0174146Y0139619D01*
X0173779Y0139619D02*
X0122014Y0139619D01*
X0121919Y0138729D02*
X0121919Y0126006D01*
X0121106Y0126819D02*
X0124650Y0126819D01*
X0118719Y0127893D02*
X0118719Y0134119D01*
X0116546Y0133219D02*
X0131733Y0133219D01*
X0133305Y0136419D02*
X0120962Y0136419D01*
X0115519Y0133026D02*
X0115519Y0127344D01*
X0122564Y0120419D02*
X0123191Y0120419D01*
X0121919Y0119380D02*
X0121919Y0118715D01*
X0097633Y0110819D02*
X0087185Y0110819D01*
X0083519Y0116798D02*
X0083519Y0128687D01*
X0071797Y0119068D02*
X0071797Y0119068D01*
X0057346Y0101219D02*
X0097467Y0101219D01*
X0077460Y0085219D02*
X0062233Y0085219D01*
X0061791Y0082019D02*
X0077902Y0082019D01*
X0061119Y0080870D02*
X0061119Y0069633D01*
X0057919Y0071552D02*
X0057919Y0078952D01*
X0054719Y0079487D02*
X0054719Y0071016D01*
X0052606Y0069219D02*
X0044809Y0069219D01*
X0045119Y0069558D02*
X0045119Y0062123D01*
X0045493Y0062002D02*
X0044714Y0062255D01*
X0043906Y0062383D01*
X0043087Y0062383D01*
X0042279Y0062255D01*
X0042084Y0062192D01*
X0043727Y0057678D01*
X0048243Y0059321D01*
X0047944Y0059908D01*
X0047463Y0060571D01*
X0046884Y0061149D01*
X0046222Y0061630D01*
X0045493Y0062002D01*
X0043021Y0059619D02*
X0042199Y0059619D01*
X0041919Y0060390D02*
X0041919Y0066058D01*
X0041883Y0066019D02*
X0051846Y0066019D01*
X0053226Y0062819D02*
X0038957Y0062819D01*
X0038719Y0062558D02*
X0038719Y0059260D01*
X0038902Y0059619D02*
X0035817Y0059619D01*
X0035519Y0059410D02*
X0035519Y0058803D01*
X0043364Y0056419D02*
X0044185Y0056419D01*
X0045119Y0057363D02*
X0045119Y0058184D01*
X0048319Y0058528D02*
X0048319Y0073058D01*
X0047735Y0072419D02*
X0128432Y0072419D01*
X0130007Y0075619D02*
X0050348Y0075619D01*
X0050256Y0075341D02*
X0050256Y0075341D01*
X0051401Y0078819D02*
X0098103Y0078819D01*
X0099519Y0077162D02*
X0099519Y0060429D01*
X0100277Y0059619D02*
X0102332Y0059619D01*
X0102719Y0060006D02*
X0102719Y0076154D01*
X0105919Y0077238D02*
X0105919Y0060964D01*
X0115519Y0065245D02*
X0115519Y0040123D01*
X0112634Y0040381D02*
X0112634Y0040381D01*
X0099519Y0046533D02*
X0099519Y0053098D01*
X0099640Y0053219D02*
X0101256Y0053219D01*
X0096319Y0051564D02*
X0096319Y0047829D01*
X0096662Y0047815D02*
X0096662Y0047815D01*
X0096905Y0047805D02*
X0096905Y0047805D01*
X0097124Y0047699D02*
X0097124Y0047699D01*
X0098932Y0046819D02*
X0137333Y0046819D01*
X0137919Y0044983D02*
X0137919Y0035697D01*
X0134719Y0036155D02*
X0134719Y0060792D01*
X0135886Y0059619D02*
X0131681Y0059619D01*
X0131519Y0059433D02*
X0131519Y0059055D01*
X0128319Y0059055D02*
X0128319Y0059433D01*
X0127870Y0059619D02*
X0127492Y0059619D01*
X0125119Y0059433D02*
X0125119Y0059055D01*
X0123681Y0059619D02*
X0122065Y0059619D01*
X0121919Y0059765D02*
X0121919Y0061998D01*
X0122739Y0062819D02*
X0123817Y0062819D01*
X0127492Y0062819D02*
X0127870Y0062819D01*
X0120304Y0059619D02*
X0119704Y0059619D01*
X0127492Y0056419D02*
X0127870Y0056419D01*
X0127870Y0053219D02*
X0127492Y0053219D01*
X0137786Y0050019D02*
X0037710Y0050019D01*
X0038719Y0051326D02*
X0038719Y0043902D01*
X0037759Y0043619D02*
X0029365Y0043619D01*
X0029119Y0044214D02*
X0029119Y0052199D01*
X0028900Y0053219D02*
X0026681Y0053219D01*
X0027861Y0054046D02*
X0027861Y0054046D01*
X0026351Y0050019D02*
X0030490Y0050019D01*
X0032319Y0048872D02*
X0032319Y0042012D01*
X0035519Y0042957D02*
X0035519Y0048722D01*
X0041919Y0052228D02*
X0041919Y0044847D01*
X0045119Y0045792D02*
X0045119Y0053854D01*
X0045350Y0053219D02*
X0044529Y0053219D01*
X0046886Y0053219D02*
X0052022Y0053219D01*
X0051519Y0053852D02*
X0051519Y0047683D01*
X0048594Y0046819D02*
X0024323Y0046819D01*
X0025919Y0046674D02*
X0025919Y0048923D01*
X0039300Y0053219D02*
X0040107Y0053219D01*
X0048319Y0055197D02*
X0048319Y0046737D01*
X0054719Y0048628D02*
X0054719Y0051675D01*
X0055331Y0053219D02*
X0056331Y0053219D01*
X0057919Y0051991D02*
X0057919Y0049412D01*
X0057491Y0049429D02*
X0057491Y0049429D01*
X0061119Y0049280D02*
X0061119Y0053551D01*
X0061256Y0053219D02*
X0059640Y0053219D01*
X0055331Y0056419D02*
X0048640Y0056419D01*
X0051519Y0056264D02*
X0051519Y0057264D01*
X0051478Y0059619D02*
X0048092Y0059619D01*
X0051519Y0059676D02*
X0051519Y0079178D01*
X0054719Y0088816D02*
X0054719Y0088907D01*
X0086991Y0069219D02*
X0087197Y0069219D01*
X0115839Y0066019D02*
X0115904Y0066019D01*
X0092022Y0053219D02*
X0090405Y0053219D01*
X0089919Y0052498D02*
X0089919Y0048093D01*
X0093119Y0047961D02*
X0093119Y0052258D01*
X0086719Y0050564D02*
X0086719Y0048225D01*
X0083519Y0048357D02*
X0083519Y0051093D01*
X0080319Y0048489D02*
X0080319Y0054011D01*
X0079640Y0053219D02*
X0081256Y0053219D01*
X0077119Y0051669D02*
X0077119Y0048620D01*
X0073919Y0048752D02*
X0073919Y0051927D01*
X0072022Y0053219D02*
X0070405Y0053219D01*
X0070719Y0053977D02*
X0070719Y0048884D01*
X0067519Y0049016D02*
X0067519Y0050834D01*
X0064319Y0050761D02*
X0064319Y0049148D01*
X0054719Y0056264D02*
X0054719Y0057264D01*
X0117837Y0082019D02*
X0119637Y0082019D01*
X0119637Y0085219D02*
X0117837Y0085219D01*
X0147519Y0068423D02*
X0147519Y0068027D01*
X0148154Y0069219D02*
X0149227Y0069219D01*
X0150719Y0067795D02*
X0150719Y0067795D01*
X0148964Y0066019D02*
X0148714Y0066019D01*
X0150719Y0064369D02*
X0150719Y0064119D01*
X0152578Y0062819D02*
X0154131Y0062819D01*
X0157807Y0062819D02*
X0158185Y0062819D01*
X0157119Y0065648D02*
X0157119Y0068467D01*
X0157870Y0069219D02*
X0159227Y0069219D01*
X0176319Y0076559D02*
X0176319Y0076614D01*
X0177756Y0078819D02*
X0179755Y0078819D01*
X0183437Y0078819D02*
X0184037Y0078819D01*
X0187719Y0078819D02*
X0189718Y0078819D01*
X0192319Y0075980D02*
X0192319Y0072316D01*
X0192285Y0072419D02*
X0202994Y0072419D01*
X0205119Y0075011D02*
X0205119Y0075965D01*
X0201919Y0076145D02*
X0201919Y0054760D01*
X0191551Y0059619D02*
X0243807Y0059619D01*
X0256940Y0053219D02*
X0275132Y0053219D01*
X0275519Y0053162D02*
X0275519Y0048273D01*
X0275117Y0048398D02*
X0275117Y0048398D01*
X0274932Y0048382D02*
X0274932Y0048382D01*
X0272319Y0048155D02*
X0272319Y0054992D01*
X0271480Y0056419D02*
X0258490Y0056419D01*
X0258362Y0059619D02*
X0271195Y0059619D01*
X0278719Y0062990D02*
X0278719Y0063734D01*
X0279132Y0062819D02*
X0283855Y0062819D01*
X0285119Y0063371D02*
X0285119Y0063549D01*
X0281919Y0065360D02*
X0281919Y0060144D01*
X0281701Y0059619D02*
X0281411Y0059619D01*
X0281919Y0056776D02*
X0281919Y0046289D01*
X0285119Y0045297D02*
X0285119Y0053548D01*
X0288319Y0053440D02*
X0288319Y0044305D01*
X0290532Y0043619D02*
X0292637Y0043619D01*
X0291519Y0043523D02*
X0291519Y0056144D01*
X0291633Y0056419D02*
X0316105Y0056419D01*
X0315544Y0059619D02*
X0291998Y0059619D01*
X0282067Y0056419D02*
X0281127Y0056419D01*
X0269119Y0047878D02*
X0269119Y0110144D01*
X0265919Y0110144D02*
X0265919Y0048171D01*
X0263547Y0048908D02*
X0263547Y0048908D01*
X0290788Y0043539D02*
X0290788Y0043539D01*
X0294719Y0043796D02*
X0294719Y0068142D01*
X0293442Y0069219D02*
X0292050Y0069219D01*
X0291519Y0070776D02*
X0291519Y0088013D01*
X0293673Y0088419D02*
X0320664Y0088419D01*
X0320319Y0089251D02*
X0320319Y0082065D01*
X0320304Y0082019D02*
X0302522Y0082019D01*
X0294719Y0087243D02*
X0294719Y0089465D01*
X0310719Y0092983D02*
X0310719Y0093583D01*
X0323519Y0086560D02*
X0323519Y0084707D01*
X0320319Y0080960D02*
X0320319Y0080360D01*
X0323519Y0076612D02*
X0323519Y0066652D01*
X0329486Y0062819D02*
X0378110Y0062819D01*
X0356084Y0056589D02*
X0356084Y0056588D01*
X0345070Y0056933D02*
X0345070Y0056933D01*
X0344641Y0056708D02*
X0344641Y0056708D01*
X0371512Y0050909D02*
X0371512Y0050909D01*
X0377126Y0075619D02*
X0361248Y0075619D01*
X0377979Y0079041D02*
X0377979Y0079041D01*
X0378313Y0080380D02*
X0378313Y0080380D01*
X0378346Y0080511D02*
X0378346Y0080511D01*
X0379289Y0081863D02*
X0379289Y0081863D01*
X0379289Y0081863D01*
X0333746Y0101219D02*
X0333473Y0101219D01*
X0333119Y0102331D02*
X0333119Y0134241D01*
X0339519Y0132647D02*
X0339519Y0126281D01*
X0342719Y0131850D02*
X0342719Y0105123D01*
X0339519Y0106742D02*
X0339519Y0108081D01*
X0342608Y0110819D02*
X0343656Y0110819D01*
X0313919Y0128586D02*
X0313919Y0135857D01*
X0313902Y0135853D02*
X0313902Y0135853D01*
X0314311Y0135965D02*
X0314311Y0135965D01*
X0315641Y0136331D02*
X0315641Y0136331D01*
X0315962Y0136419D02*
X0318838Y0136419D01*
X0317187Y0136691D02*
X0317187Y0136691D01*
X0317119Y0136702D02*
X0317119Y0129152D01*
X0311373Y0136419D02*
X0292316Y0136419D01*
X0291519Y0136749D02*
X0291519Y0137048D01*
X0288319Y0136988D02*
X0288319Y0136678D01*
X0295327Y0140954D02*
X0295327Y0140954D01*
X0297152Y0139677D02*
X0297152Y0139677D01*
X0265919Y0150059D02*
X0265919Y0150241D01*
X0261192Y0146019D02*
X0253166Y0146019D01*
X0253119Y0146066D02*
X0253119Y0151911D01*
X0256319Y0151494D02*
X0256319Y0133077D01*
X0256461Y0133219D02*
X0255023Y0133219D01*
X0237119Y0126642D02*
X0237119Y0125642D01*
X0236731Y0123619D02*
X0235731Y0123619D01*
X0231401Y0123619D02*
X0231062Y0123619D01*
X0230719Y0123275D02*
X0230719Y0117810D01*
X0230206Y0117219D02*
X0227268Y0117219D01*
X0227519Y0116613D02*
X0227519Y0120942D01*
X0224319Y0120942D02*
X0224319Y0119130D01*
X0227837Y0114019D02*
X0229637Y0114019D01*
X0229637Y0110819D02*
X0227837Y0110819D01*
X0233919Y0105730D02*
X0233919Y0089130D01*
X0241689Y0091619D02*
X0248880Y0091619D01*
X0243519Y0089130D02*
X0243519Y0105730D01*
X0239637Y0110819D02*
X0237837Y0110819D01*
X0237837Y0114019D02*
X0239637Y0114019D01*
X0240206Y0117219D02*
X0237268Y0117219D01*
X0237119Y0117446D02*
X0237119Y0120942D01*
X0233919Y0121100D02*
X0233919Y0119130D01*
X0240319Y0117410D02*
X0240319Y0122875D01*
X0211519Y0119142D02*
X0211519Y0118549D01*
X0210206Y0117219D02*
X0207268Y0117219D01*
X0207837Y0114019D02*
X0209637Y0114019D01*
X0209637Y0110819D02*
X0207837Y0110819D01*
X0207259Y0107619D02*
X0210215Y0107619D01*
X0211519Y0106311D02*
X0211519Y0103039D01*
X0214719Y0103039D02*
X0214719Y0105799D01*
X0208319Y0103039D02*
X0208319Y0159452D01*
X0211441Y0158819D02*
X0176520Y0158819D01*
X0176319Y0158902D02*
X0176319Y0164120D01*
X0179519Y0164881D02*
X0179519Y0155249D01*
X0179889Y0155619D02*
X0179047Y0155619D01*
X0182719Y0157845D02*
X0182719Y0164642D01*
X0180306Y0165068D02*
X0180306Y0165068D01*
X0185919Y0163993D02*
X0185919Y0157845D01*
X0188195Y0155619D02*
X0209889Y0155619D01*
X0211519Y0157249D02*
X0211519Y0158803D01*
X0214719Y0158154D02*
X0214719Y0157845D01*
X0216205Y0157757D02*
X0216205Y0157757D01*
X0209392Y0152419D02*
X0188692Y0152419D01*
X0182719Y0148545D02*
X0182719Y0147845D01*
X0181443Y0149219D02*
X0164668Y0149219D01*
X0164212Y0146019D02*
X0180289Y0146019D01*
X0179519Y0145249D02*
X0179519Y0151142D01*
X0179392Y0152419D02*
X0178580Y0152419D01*
X0176319Y0150263D02*
X0176319Y0139217D01*
X0173119Y0139497D02*
X0173119Y0149945D01*
X0169623Y0155619D02*
X0159657Y0155619D01*
X0160319Y0155345D02*
X0160319Y0164157D01*
X0166719Y0165367D02*
X0166719Y0132549D01*
X0169919Y0132216D02*
X0169919Y0133116D01*
X0169886Y0133219D02*
X0154338Y0133219D01*
X0153919Y0131277D02*
X0153919Y0130773D01*
X0157119Y0132617D02*
X0157119Y0141189D01*
X0160319Y0141845D02*
X0160319Y0132051D01*
X0162468Y0130019D02*
X0163366Y0130019D01*
X0163519Y0130373D02*
X0163519Y0144378D01*
X0161960Y0142819D02*
X0179392Y0142819D01*
X0179519Y0141142D02*
X0179519Y0135249D01*
X0178835Y0136419D02*
X0180689Y0136419D01*
X0179392Y0133219D02*
X0178784Y0133219D01*
X0176319Y0134708D02*
X0176319Y0135086D01*
X0174524Y0136419D02*
X0174146Y0136419D01*
X0173119Y0135086D02*
X0173119Y0134708D01*
X0169919Y0134708D02*
X0169919Y0135086D01*
X0187441Y0130019D02*
X0195761Y0130019D01*
X0195519Y0129776D02*
X0195519Y0133001D01*
X0195589Y0133219D02*
X0198961Y0133219D01*
X0198719Y0132976D02*
X0198719Y0135297D01*
X0198744Y0138047D02*
X0197169Y0138047D01*
X0192839Y0133716D01*
X0190089Y0133219D02*
X0188692Y0133219D01*
X0192319Y0130966D02*
X0192319Y0129811D01*
X0189119Y0129811D02*
X0189119Y0163344D01*
X0169919Y0165368D02*
X0169919Y0156334D01*
X0153919Y0155225D02*
X0153919Y0160912D01*
X0149857Y0149219D02*
X0103210Y0149219D01*
X0142133Y0133219D02*
X0143938Y0133219D01*
X0147519Y0128365D02*
X0147519Y0128264D01*
X0147519Y0123709D02*
X0147519Y0122937D01*
X0150719Y0122937D02*
X0150719Y0123709D01*
X0163519Y0124462D02*
X0163519Y0119130D01*
X0173119Y0119083D02*
X0173119Y0125061D01*
X0173437Y0117219D02*
X0174037Y0117219D01*
X0174037Y0114019D02*
X0173437Y0114019D01*
X0177837Y0110819D02*
X0179637Y0110819D01*
X0187837Y0110819D02*
X0189637Y0110819D01*
X0189637Y0114019D02*
X0187837Y0114019D01*
X0187268Y0117219D02*
X0190206Y0117219D01*
X0192319Y0118880D02*
X0192319Y0125811D01*
X0195519Y0124273D02*
X0195519Y0118730D01*
X0197268Y0117219D02*
X0200206Y0117219D01*
X0199637Y0114019D02*
X0197837Y0114019D01*
X0197837Y0110819D02*
X0199637Y0110819D01*
X0205119Y0105965D02*
X0205119Y0103039D01*
X0211519Y0099039D02*
X0211519Y0088549D01*
X0211327Y0088419D02*
X0206147Y0088419D01*
X0205119Y0088895D02*
X0205119Y0097008D01*
X0201484Y0098019D02*
X0187815Y0098019D01*
X0184037Y0088419D02*
X0183437Y0088419D01*
X0183437Y0085219D02*
X0184037Y0085219D01*
X0182719Y0082730D02*
X0182719Y0082130D01*
X0183437Y0082019D02*
X0184037Y0082019D01*
X0185919Y0082130D02*
X0185919Y0082730D01*
X0187837Y0082019D02*
X0189637Y0082019D01*
X0189637Y0085219D02*
X0187837Y0085219D01*
X0179637Y0085219D02*
X0177837Y0085219D01*
X0177837Y0082019D02*
X0179637Y0082019D01*
X0169637Y0082019D02*
X0167837Y0082019D01*
X0167837Y0085219D02*
X0169637Y0085219D01*
X0163519Y0089130D02*
X0163519Y0105730D01*
X0197837Y0085219D02*
X0199637Y0085219D01*
X0199637Y0082019D02*
X0197837Y0082019D01*
X0197756Y0078819D02*
X0199718Y0078819D01*
X0195519Y0076130D02*
X0195519Y0038726D01*
X0192319Y0038379D02*
X0192319Y0069384D01*
X0192319Y0070661D02*
X0192319Y0071039D01*
X0207756Y0078819D02*
X0209718Y0078819D01*
X0209637Y0082019D02*
X0207837Y0082019D01*
X0207837Y0085219D02*
X0209637Y0085219D01*
X0217837Y0085219D02*
X0219637Y0085219D01*
X0219637Y0082019D02*
X0217837Y0082019D01*
X0217756Y0078819D02*
X0219718Y0078819D01*
X0227519Y0078247D02*
X0227519Y0042197D01*
X0230719Y0042544D02*
X0230719Y0077050D01*
X0229718Y0078819D02*
X0227756Y0078819D01*
X0241689Y0094819D02*
X0248148Y0094819D01*
X0248148Y0098019D02*
X0241689Y0098019D01*
X0278209Y0075619D02*
X0292905Y0075619D01*
X0292122Y0072419D02*
X0290245Y0072419D01*
X0297919Y0067492D02*
X0297919Y0044070D01*
X0173733Y0056419D02*
X0161996Y0056419D01*
X0158185Y0056419D02*
X0157807Y0056419D01*
X0157807Y0053219D02*
X0158185Y0053219D01*
X0153996Y0056419D02*
X0148623Y0056419D01*
X0147519Y0055630D02*
X0147519Y0035304D01*
X0161970Y0037219D02*
X0162003Y0037219D01*
X0163519Y0035702D02*
X0163519Y0034941D01*
X0166719Y0043446D02*
X0166719Y0045246D01*
X0161573Y0050019D02*
X0141986Y0050019D01*
X0255046Y0142819D02*
X0261392Y0142819D01*
X0249919Y0147184D02*
X0249919Y0152329D01*
X0237119Y0151342D02*
X0237119Y0154000D01*
X0233919Y0154418D02*
X0233919Y0151183D01*
X0231954Y0149219D02*
X0230508Y0149219D01*
X0230719Y0149008D02*
X0230719Y0154962D01*
X0227519Y0155367D02*
X0227519Y0151342D01*
D26*
X0262917Y0148677D02*
X0264492Y0147102D01*
X0264492Y0136866D01*
X0256618Y0128992D01*
X0256618Y0114819D01*
X0258193Y0113244D01*
X0278665Y0113244D01*
X0193737Y0112430D02*
X0193626Y0108998D01*
X0187720Y0102614D01*
X0173737Y0086662D01*
X0173737Y0082430D01*
X0276303Y0068362D02*
X0276401Y0068460D01*
X0286850Y0068460D01*
D27*
X0275909Y0086079D03*
X0221185Y0104583D03*
X0203862Y0099464D03*
X0195594Y0127023D03*
X0192839Y0133716D03*
X0198744Y0138047D03*
X0202681Y0133323D03*
X0173154Y0127811D03*
X0262917Y0148677D03*
X0140083Y0046709D03*
D28*
X0278665Y0113244D03*
D29*
X0139886Y0059244D02*
X0139886Y0047299D01*
X0140083Y0046709D01*
D30*
X0239689Y0102614D03*
M02*
