%
M48
M72
T01C0.01300
T02C0.01400
T03C0.02500
T04C0.02756
T05C0.03200
T06C0.03543
T07C0.03937
T08C0.04000
T09C0.07874
%
T01
X262917Y148677
X140083Y46709
X226697Y97496
X212917Y105764
X194413Y99464
X195594Y127023
X187327Y127023
X192839Y133716
X198744Y137653
X202681Y132929
X173547Y127417
X278665Y113244
T02
X214098Y101827
T03
X139886Y59244
X142839Y64244
X148839Y64244
X145791Y59244
X136839Y64244
T04
X100555Y66000
X110555Y66000
X127681Y59244
X157996Y59244
X175516Y59937
X192919Y67306
X202919Y67306
X218788Y67458
X228788Y67458
X173941Y143165
X173941Y133165
X127681Y40244
X157996Y40244
X175516Y69937
X340524Y109548
X348398Y109548
T05
X24571Y41604
X21151Y51001
X97989Y81249
X107989Y81249
X117989Y81249
X127989Y81249
X137989Y81249
X147989Y81249
X157989Y81249
X167989Y81249
X177989Y81249
X187989Y81249
X197989Y81249
X207989Y81249
X217989Y81249
X227989Y81249
X219811Y52235
X200811Y52235
X166067Y52890
X166067Y42890
X119217Y55882
X119217Y65882
X97989Y111249
X107989Y111249
X117989Y111249
X127989Y111249
X137989Y111249
X147989Y111249
X157989Y111249
X167989Y111249
X177989Y111249
X187989Y111249
X197989Y111249
X207989Y111249
X217989Y111249
X227989Y111249
X214042Y122408
X214042Y132408
X214042Y142408
X214042Y152408
X184042Y152408
X184042Y142408
X184042Y132408
X184042Y122408
X166343Y127417
X156343Y127417
X317735Y87183
X327735Y87183
X337735Y87183
X305043Y91709
X305043Y101709
T06
X32525Y52975
X41922Y56396
X86146Y78992
X86146Y88992
X110870Y95855
X150870Y95855
X153312Y72645
X143312Y72645
X133002Y73070
X123002Y73070
X165552Y69784
X165552Y59784
X238508Y71748
X238508Y81748
X276599Y58436
X286599Y58436
X289846Y141984
X290004Y131748
X250004Y131748
X249846Y141984
X147957Y132929
X147957Y122929
X137878Y123086
X127878Y123086
X118035Y123086
X108035Y123086
X297322Y82299
X297322Y72299
T07
X263034Y122977
X272877Y122977
X282719Y122977
T08
X55831Y56764
X65831Y55764
X75831Y56764
X85831Y55764
X95831Y56764
X105831Y55764
X77526Y67137
X59726Y67137
X59726Y92737
X77526Y92737
X236231Y146142
X226231Y146142
X225231Y136142
X235231Y136142
X236231Y126142
X226231Y126142
T09
X79780Y110331
X114609Y140826
X157263Y148595
X255554Y95418
X290199Y95418
X316758Y121746
X362429Y83336
X252266Y57049
X315076Y56491
M30
