G75*
%MOIN*%
%OFA0B0*%
%FSLAX25Y25*%
%IPPOS*%
%LPD*%
%AMOC8*
5,1,8,0,0,1.08239X$1,22.5*
%
%ADD10C,0.03937*%
%ADD11C,0.01600*%
%ADD12C,0.00800*%
%ADD13C,0.01000*%
%ADD14C,0.00600*%
%ADD15C,0.00500*%
%ADD16C,0.00100*%
%ADD17C,0.00050*%
%ADD18C,0.02000*%
D10*
X0010938Y0035616D02*
X0012395Y0036356D01*
X0015428Y0038243D01*
X0016238Y0038353D02*
X0023951Y0036090D01*
X0024515Y0036091D02*
X0057713Y0045895D01*
X0058038Y0045935D02*
X0095830Y0044378D01*
X0096227Y0044278D02*
X0102228Y0041358D01*
X0111809Y0036942D01*
X0112081Y0036861D02*
X0113708Y0036619D01*
X0118351Y0036707D01*
X0118819Y0036601D02*
X0123321Y0034334D01*
X0123629Y0034238D02*
X0137805Y0032210D01*
X0137908Y0032200D02*
X0151907Y0031666D01*
X0152600Y0031348D02*
X0154926Y0028854D01*
X0154927Y0028854D02*
X0154970Y0028811D01*
X0155015Y0028770D01*
X0155063Y0028732D01*
X0155113Y0028697D01*
X0155166Y0028666D01*
X0155220Y0028637D01*
X0155275Y0028612D01*
X0155333Y0028590D01*
X0155391Y0028572D01*
X0155450Y0028558D01*
X0155510Y0028547D01*
X0155571Y0028540D01*
X0155632Y0028536D01*
X0155693Y0028537D01*
X0155754Y0028541D01*
X0155815Y0028548D01*
X0155875Y0028560D01*
X0155934Y0028575D01*
X0155992Y0028593D01*
X0155992Y0028594D02*
X0165462Y0031949D01*
X0165688Y0032001D02*
X0249477Y0041090D01*
X0249763Y0041080D02*
X0256474Y0039869D01*
X0257327Y0040115D02*
X0262684Y0045024D01*
X0263656Y0045242D02*
X0266788Y0044269D01*
X0267172Y0044227D02*
X0274544Y0044867D01*
X0274927Y0044825D02*
X0290420Y0040022D01*
X0290801Y0039981D02*
X0302917Y0041015D01*
X0303214Y0040996D02*
X0312530Y0038973D01*
X0312727Y0038873D02*
X0314828Y0039139D01*
X0314942Y0039147D02*
X0321732Y0039221D01*
X0321986Y0039256D02*
X0324632Y0039981D01*
X0325128Y0040295D02*
X0325370Y0040578D01*
X0325512Y0040714D02*
X0326727Y0041670D01*
X0326726Y0041670D02*
X0326739Y0041640D01*
X0326755Y0041611D01*
X0326775Y0041585D01*
X0326797Y0041561D01*
X0326822Y0041539D01*
X0326849Y0041521D01*
X0326878Y0041506D01*
X0326909Y0041494D01*
X0326940Y0041486D01*
X0326973Y0041481D01*
X0327006Y0041480D01*
X0327038Y0041483D01*
X0327071Y0041490D01*
X0328395Y0041840D01*
X0328838Y0042091D02*
X0334083Y0047210D01*
X0334318Y0047380D02*
X0345641Y0053316D01*
X0346136Y0053430D02*
X0356666Y0053100D01*
X0356959Y0053046D02*
X0364414Y0050483D01*
X0364644Y0050370D02*
X0373362Y0044565D01*
X0373363Y0044565D02*
X0373415Y0044532D01*
X0373469Y0044503D01*
X0373524Y0044477D01*
X0373581Y0044455D01*
X0373639Y0044436D01*
X0373699Y0044421D01*
X0373759Y0044410D01*
X0373820Y0044402D01*
X0373881Y0044398D01*
X0373942Y0044397D01*
X0374003Y0044401D01*
X0374064Y0044408D01*
X0374124Y0044419D01*
X0374184Y0044433D01*
X0374242Y0044451D01*
X0374299Y0044473D01*
X0374355Y0044498D01*
X0374409Y0044527D01*
X0374462Y0044558D01*
X0374512Y0044593D01*
X0374560Y0044631D01*
X0374606Y0044672D01*
X0374649Y0044715D01*
X0374689Y0044761D01*
X0374727Y0044810D01*
X0374761Y0044861D01*
X0374792Y0044913D01*
X0374820Y0044968D01*
X0374845Y0045024D01*
X0374866Y0045081D01*
X0374883Y0045140D01*
X0374993Y0045555D01*
X0375008Y0046005D02*
X0374506Y0048562D01*
X0374546Y0049091D02*
X0375540Y0051873D01*
X0375963Y0052391D02*
X0382873Y0056592D01*
X0382924Y0056624D01*
X0382972Y0056660D01*
X0383018Y0056699D01*
X0383062Y0056740D01*
X0383103Y0056784D01*
X0383142Y0056830D01*
X0383178Y0056879D01*
X0383210Y0056929D01*
X0383240Y0056982D01*
X0383266Y0057036D01*
X0383289Y0057091D01*
X0383309Y0057148D01*
X0383325Y0057206D01*
X0383338Y0057265D01*
X0383347Y0057325D01*
X0383352Y0057385D01*
X0383354Y0057445D01*
X0383352Y0057505D01*
X0383347Y0057565D01*
X0383338Y0057624D01*
X0383325Y0057683D01*
X0383309Y0057741D01*
X0383309Y0057742D02*
X0380792Y0065888D01*
X0380763Y0066359D02*
X0381702Y0071624D01*
X0381701Y0071623D02*
X0381711Y0071686D01*
X0381716Y0071748D01*
X0381717Y0071811D01*
X0381714Y0071873D01*
X0381708Y0071936D01*
X0381697Y0071998D01*
X0381683Y0072059D01*
X0381665Y0072119D01*
X0381643Y0072177D01*
X0381617Y0072235D01*
X0381588Y0072290D01*
X0381555Y0072344D01*
X0381520Y0072395D01*
X0381481Y0072445D01*
X0381439Y0072491D01*
X0381394Y0072535D01*
X0381346Y0072576D01*
X0381296Y0072614D01*
X0381244Y0072649D01*
X0381190Y0072680D01*
X0381134Y0072708D01*
X0381076Y0072732D01*
X0381017Y0072753D01*
X0380956Y0072770D01*
X0380895Y0072783D01*
X0380833Y0072792D01*
X0380770Y0072798D01*
X0380708Y0072799D01*
X0380645Y0072796D01*
X0380583Y0072790D01*
X0380521Y0072780D01*
X0380521Y0072779D02*
X0380486Y0072774D01*
X0380450Y0072772D01*
X0380414Y0072774D01*
X0380378Y0072780D01*
X0380343Y0072789D01*
X0380309Y0072801D01*
X0380277Y0072817D01*
X0380246Y0072836D01*
X0380217Y0072858D01*
X0380191Y0072883D01*
X0380168Y0072911D01*
X0380147Y0072940D01*
X0380129Y0072972D01*
X0380115Y0073005D01*
X0380104Y0073039D01*
X0380096Y0073074D01*
X0380093Y0073110D01*
X0380092Y0073146D01*
X0380096Y0073182D01*
X0380103Y0073218D01*
X0381512Y0078872D01*
X0381920Y0079457D02*
X0383965Y0080846D01*
X0384015Y0080882D01*
X0384063Y0080922D01*
X0384109Y0080964D01*
X0384151Y0081010D01*
X0384191Y0081058D01*
X0384228Y0081108D01*
X0384262Y0081160D01*
X0384292Y0081215D01*
X0384319Y0081271D01*
X0384342Y0081329D01*
X0384361Y0081388D01*
X0384377Y0081448D01*
X0384389Y0081509D01*
X0384398Y0081571D01*
X0384402Y0081633D01*
X0384403Y0081695D01*
X0384399Y0081757D01*
X0384392Y0081819D01*
X0384381Y0081880D01*
X0384366Y0081941D01*
X0384348Y0082000D01*
X0384326Y0082058D01*
X0384300Y0082115D01*
X0383690Y0083353D01*
X0383665Y0083409D01*
X0383642Y0083467D01*
X0383624Y0083525D01*
X0383609Y0083585D01*
X0383598Y0083646D01*
X0383591Y0083707D01*
X0383587Y0083769D01*
X0383588Y0083830D01*
X0383592Y0083892D01*
X0383600Y0083953D01*
X0383611Y0084013D01*
X0383626Y0084073D01*
X0383645Y0084132D01*
X0383668Y0084189D01*
X0383694Y0084245D01*
X0383723Y0084299D01*
X0383756Y0084351D01*
X0383792Y0084401D01*
X0383792Y0084402D02*
X0386748Y0088278D01*
X0389425Y0094058D01*
X0389449Y0094843D02*
X0387598Y0099573D01*
X0387297Y0099985D02*
X0379945Y0105943D01*
X0379419Y0106160D02*
X0371652Y0106974D01*
X0371131Y0107188D02*
X0362749Y0113905D01*
X0362506Y0114189D02*
X0357684Y0122633D01*
X0357516Y0122850D02*
X0345598Y0134565D01*
X0345139Y0134822D02*
X0329479Y0138722D01*
X0329289Y0138750D02*
X0321570Y0139150D01*
X0321247Y0139222D02*
X0319932Y0139754D01*
X0317071Y0140226D01*
X0316643Y0140203D02*
X0314057Y0139492D01*
X0313573Y0139481D02*
X0298931Y0142758D01*
X0298575Y0142914D02*
X0297882Y0143400D01*
X0297493Y0143948D02*
X0296622Y0147036D01*
X0296621Y0147036D02*
X0296603Y0147094D01*
X0296582Y0147151D01*
X0296557Y0147206D01*
X0296528Y0147259D01*
X0296497Y0147311D01*
X0296462Y0147361D01*
X0296425Y0147408D01*
X0296384Y0147454D01*
X0296341Y0147496D01*
X0296296Y0147536D01*
X0296248Y0147573D01*
X0296198Y0147607D01*
X0296146Y0147639D01*
X0296092Y0147666D01*
X0296037Y0147691D01*
X0295980Y0147712D01*
X0295922Y0147730D01*
X0295863Y0147744D01*
X0295803Y0147755D01*
X0295743Y0147761D01*
X0295683Y0147765D01*
X0291046Y0147874D01*
X0290492Y0148057D02*
X0289356Y0148861D01*
X0287648Y0150674D01*
X0287050Y0150980D02*
X0234996Y0157775D01*
X0233808Y0158022D01*
X0233356Y0158114D01*
X0233111Y0158155D01*
X0219808Y0159840D01*
X0219463Y0159950D02*
X0217229Y0161142D01*
X0216957Y0161240D02*
X0180604Y0168610D01*
X0180174Y0168602D02*
X0174831Y0167331D01*
X0174832Y0167331D02*
X0174772Y0167319D01*
X0174711Y0167310D01*
X0174651Y0167305D01*
X0174590Y0167304D01*
X0174529Y0167307D01*
X0174468Y0167313D01*
X0174408Y0167323D01*
X0174349Y0167336D01*
X0174290Y0167353D01*
X0174233Y0167374D01*
X0174177Y0167398D01*
X0174122Y0167426D01*
X0174070Y0167456D01*
X0174019Y0167490D01*
X0173970Y0167527D01*
X0173924Y0167567D01*
X0173881Y0167609D01*
X0173840Y0167655D01*
X0173801Y0167702D01*
X0173766Y0167752D01*
X0173734Y0167804D01*
X0173705Y0167857D01*
X0173680Y0167913D01*
X0173658Y0167970D01*
X0173639Y0168028D01*
X0173639Y0168027D02*
X0173614Y0168114D01*
X0173613Y0168114D02*
X0173594Y0168173D01*
X0173572Y0168230D01*
X0173546Y0168286D01*
X0173517Y0168340D01*
X0173484Y0168392D01*
X0173449Y0168442D01*
X0173410Y0168490D01*
X0173369Y0168536D01*
X0173324Y0168578D01*
X0173278Y0168618D01*
X0173228Y0168655D01*
X0173177Y0168689D01*
X0173124Y0168720D01*
X0173069Y0168747D01*
X0173012Y0168771D01*
X0172954Y0168791D01*
X0172895Y0168808D01*
X0172835Y0168821D01*
X0172774Y0168831D01*
X0172713Y0168836D01*
X0172652Y0168838D01*
X0162111Y0168833D01*
X0161659Y0168725D02*
X0146351Y0160964D01*
X0145955Y0160858D02*
X0144207Y0160760D01*
X0142460Y0159653D01*
X0141901Y0159498D02*
X0140845Y0159522D01*
X0139613Y0159608D01*
X0136227Y0159336D01*
X0135930Y0159265D02*
X0132861Y0158014D01*
X0132429Y0157941D02*
X0122974Y0158455D01*
X0122177Y0158127D02*
X0121550Y0157432D01*
X0121193Y0157505D01*
X0120890Y0157519D02*
X0116351Y0157047D01*
X0113221Y0157191D01*
X0112639Y0157036D02*
X0111724Y0156454D01*
X0110759Y0155660D01*
X0110737Y0155642D02*
X0109907Y0154999D01*
X0109907Y0154998D02*
X0109904Y0154997D01*
X0109900Y0154997D01*
X0109901Y0154998D02*
X0109233Y0154928D01*
X0105362Y0155130D01*
X0104906Y0155046D02*
X0102773Y0154104D01*
X0102577Y0154041D02*
X0101480Y0153807D01*
X0101421Y0153793D01*
X0101364Y0153775D01*
X0101308Y0153754D01*
X0101253Y0153730D01*
X0101200Y0153702D01*
X0101149Y0153671D01*
X0101100Y0153638D01*
X0101052Y0153601D01*
X0101007Y0153561D01*
X0100965Y0153519D01*
X0100924Y0153475D01*
X0100887Y0153428D01*
X0100853Y0153379D01*
X0100821Y0153328D01*
X0100793Y0153275D01*
X0100768Y0153221D01*
X0100746Y0153165D01*
X0100728Y0153108D01*
X0098596Y0145773D01*
X0098270Y0145280D02*
X0069063Y0121311D01*
X0068767Y0121143D02*
X0064550Y0119627D01*
X0064058Y0119243D02*
X0054898Y0105600D01*
X0054764Y0105306D02*
X0053811Y0101814D01*
X0053792Y0101370D02*
X0054468Y0097687D01*
X0054201Y0096808D02*
X0053556Y0096147D01*
X0053322Y0095761D02*
X0047177Y0077080D01*
X0046965Y0076717D02*
X0034186Y0062741D01*
X0034022Y0062597D02*
X0025306Y0056490D01*
X0024781Y0056311D02*
X0017594Y0055963D01*
X0017087Y0055796D02*
X0006467Y0048693D01*
X0006417Y0048657D01*
X0006369Y0048618D01*
X0006323Y0048576D01*
X0006280Y0048531D01*
X0006240Y0048484D01*
X0006203Y0048435D01*
X0006169Y0048383D01*
X0006139Y0048329D01*
X0006111Y0048273D01*
X0006088Y0048216D01*
X0006068Y0048157D01*
X0006051Y0048098D01*
X0006038Y0048037D01*
X0006029Y0047976D01*
X0006024Y0047914D01*
X0006023Y0047852D01*
X0006026Y0047790D01*
X0006032Y0047729D01*
X0006042Y0047667D01*
X0006056Y0047607D01*
X0006074Y0047548D01*
X0006095Y0047490D01*
X0006120Y0047433D01*
X0006148Y0047378D01*
X0006180Y0047325D01*
X0006215Y0047273D01*
X0006253Y0047224D01*
X0006294Y0047178D01*
X0006337Y0047134D01*
X0006384Y0047093D01*
X0006433Y0047055D01*
X0006484Y0047020D01*
X0006537Y0046988D01*
X0006592Y0046960D01*
X0006649Y0046935D01*
X0006707Y0046913D01*
X0006766Y0046896D01*
X0006826Y0046882D01*
X0006887Y0046871D01*
X0010068Y0046436D01*
X0010126Y0046426D01*
X0010185Y0046413D01*
X0010242Y0046396D01*
X0010298Y0046376D01*
X0010353Y0046352D01*
X0010406Y0046325D01*
X0010458Y0046296D01*
X0010508Y0046263D01*
X0010555Y0046227D01*
X0010601Y0046188D01*
X0010644Y0046147D01*
X0010685Y0046103D01*
X0010723Y0046057D01*
X0010758Y0046009D01*
X0010790Y0045959D01*
X0010819Y0045907D01*
X0010845Y0045853D01*
X0010868Y0045798D01*
X0011232Y0044830D01*
X0011292Y0044375D02*
X0010967Y0041214D01*
X0010921Y0041002D02*
X0009536Y0036822D01*
X0009518Y0036762D01*
X0009504Y0036702D01*
X0009494Y0036640D01*
X0009488Y0036579D01*
X0009485Y0036517D01*
X0009486Y0036454D01*
X0009492Y0036393D01*
X0009501Y0036331D01*
X0009513Y0036270D01*
X0009530Y0036210D01*
X0009550Y0036152D01*
X0009574Y0036094D01*
X0009601Y0036039D01*
X0009632Y0035985D01*
X0009666Y0035933D01*
X0009704Y0035883D01*
X0009744Y0035836D01*
X0009787Y0035791D01*
X0009833Y0035749D01*
X0009881Y0035710D01*
X0009932Y0035674D01*
X0009985Y0035641D01*
X0010039Y0035612D01*
X0010096Y0035586D01*
X0010154Y0035564D01*
X0010213Y0035545D01*
X0010273Y0035530D01*
X0010334Y0035518D01*
X0010396Y0035511D01*
X0010458Y0035507D01*
X0010520Y0035508D01*
X0010582Y0035512D01*
X0010644Y0035520D01*
X0010705Y0035531D01*
X0010765Y0035547D01*
X0010824Y0035566D01*
X0010882Y0035589D01*
X0010938Y0035615D01*
X0015428Y0038243D02*
X0015480Y0038273D01*
X0015533Y0038300D01*
X0015589Y0038324D01*
X0015645Y0038344D01*
X0015703Y0038361D01*
X0015762Y0038375D01*
X0015821Y0038385D01*
X0015881Y0038391D01*
X0015941Y0038394D01*
X0016001Y0038393D01*
X0016061Y0038388D01*
X0016120Y0038380D01*
X0016179Y0038369D01*
X0016238Y0038354D01*
X0010921Y0041002D02*
X0010937Y0041054D01*
X0010950Y0041107D01*
X0010960Y0041161D01*
X0010967Y0041215D01*
X0011292Y0044376D02*
X0011296Y0044434D01*
X0011297Y0044491D01*
X0011294Y0044549D01*
X0011289Y0044607D01*
X0011280Y0044664D01*
X0011267Y0044720D01*
X0011252Y0044776D01*
X0011233Y0044831D01*
X0023950Y0036090D02*
X0024006Y0036076D01*
X0024062Y0036065D01*
X0024119Y0036056D01*
X0024176Y0036052D01*
X0024233Y0036050D01*
X0024290Y0036052D01*
X0024347Y0036057D01*
X0024404Y0036065D01*
X0024460Y0036076D01*
X0024515Y0036091D01*
X0057713Y0045895D02*
X0057766Y0045909D01*
X0057819Y0045920D01*
X0057873Y0045928D01*
X0057928Y0045934D01*
X0057982Y0045936D01*
X0058037Y0045935D01*
X0025306Y0056490D02*
X0025253Y0056456D01*
X0025199Y0056425D01*
X0025143Y0056397D01*
X0025085Y0056373D01*
X0025026Y0056353D01*
X0024966Y0056337D01*
X0024904Y0056324D01*
X0024843Y0056315D01*
X0024780Y0056310D01*
X0017595Y0055964D02*
X0017535Y0055959D01*
X0017475Y0055951D01*
X0017416Y0055939D01*
X0017358Y0055924D01*
X0017301Y0055905D01*
X0017245Y0055882D01*
X0017191Y0055857D01*
X0017138Y0055828D01*
X0017087Y0055796D01*
X0034022Y0062597D02*
X0034066Y0062630D01*
X0034108Y0062665D01*
X0034148Y0062702D01*
X0034186Y0062741D01*
X0046965Y0076717D02*
X0047004Y0076763D01*
X0047041Y0076811D01*
X0047075Y0076861D01*
X0047105Y0076913D01*
X0047132Y0076967D01*
X0047156Y0077023D01*
X0047177Y0077080D01*
X0053322Y0095761D02*
X0053341Y0095815D01*
X0053364Y0095867D01*
X0053389Y0095918D01*
X0053417Y0095968D01*
X0053448Y0096015D01*
X0053481Y0096061D01*
X0053517Y0096105D01*
X0053556Y0096147D01*
X0054201Y0096808D02*
X0054241Y0096852D01*
X0054279Y0096898D01*
X0054314Y0096946D01*
X0054346Y0096997D01*
X0054375Y0097049D01*
X0054400Y0097103D01*
X0054423Y0097158D01*
X0054442Y0097215D01*
X0054457Y0097272D01*
X0054470Y0097331D01*
X0054478Y0097390D01*
X0054483Y0097449D01*
X0054485Y0097509D01*
X0054483Y0097568D01*
X0054478Y0097628D01*
X0054469Y0097687D01*
X0053791Y0101370D02*
X0053783Y0101426D01*
X0053777Y0101481D01*
X0053775Y0101537D01*
X0053776Y0101593D01*
X0053780Y0101649D01*
X0053787Y0101705D01*
X0053797Y0101760D01*
X0053810Y0101814D01*
X0054764Y0105305D02*
X0054780Y0105357D01*
X0054798Y0105408D01*
X0054820Y0105458D01*
X0054843Y0105506D01*
X0054870Y0105554D01*
X0054899Y0105599D01*
X0064058Y0119243D02*
X0064091Y0119290D01*
X0064127Y0119335D01*
X0064166Y0119378D01*
X0064207Y0119418D01*
X0064251Y0119456D01*
X0064296Y0119492D01*
X0064343Y0119525D01*
X0064393Y0119555D01*
X0064444Y0119582D01*
X0064496Y0119606D01*
X0064550Y0119627D01*
X0068767Y0121143D02*
X0068820Y0121164D01*
X0068872Y0121188D01*
X0068923Y0121214D01*
X0068971Y0121244D01*
X0069018Y0121276D01*
X0069063Y0121311D01*
X0098270Y0145280D02*
X0098316Y0145319D01*
X0098358Y0145362D01*
X0098399Y0145406D01*
X0098436Y0145453D01*
X0098471Y0145502D01*
X0098502Y0145553D01*
X0098531Y0145606D01*
X0098556Y0145661D01*
X0098578Y0145717D01*
X0098596Y0145774D01*
X0102577Y0154041D02*
X0102627Y0154053D01*
X0102677Y0154068D01*
X0102725Y0154085D01*
X0102773Y0154104D01*
X0104906Y0155046D02*
X0104960Y0155068D01*
X0105015Y0155087D01*
X0105072Y0155102D01*
X0105129Y0155115D01*
X0105187Y0155123D01*
X0105245Y0155129D01*
X0105304Y0155131D01*
X0105362Y0155130D01*
X0110737Y0155643D02*
X0110759Y0155661D01*
X0112638Y0157036D02*
X0112691Y0157067D01*
X0112746Y0157095D01*
X0112802Y0157120D01*
X0112859Y0157141D01*
X0112918Y0157158D01*
X0112977Y0157172D01*
X0113038Y0157183D01*
X0113099Y0157189D01*
X0113160Y0157192D01*
X0113221Y0157191D01*
X0120890Y0157520D02*
X0120950Y0157524D01*
X0121011Y0157525D01*
X0121072Y0157522D01*
X0121132Y0157515D01*
X0121192Y0157505D01*
X0122177Y0158127D02*
X0122219Y0158170D01*
X0122262Y0158210D01*
X0122308Y0158248D01*
X0122356Y0158283D01*
X0122406Y0158315D01*
X0122458Y0158344D01*
X0122511Y0158370D01*
X0122566Y0158392D01*
X0122622Y0158412D01*
X0122680Y0158428D01*
X0122738Y0158440D01*
X0122796Y0158449D01*
X0122856Y0158455D01*
X0122915Y0158457D01*
X0122974Y0158456D01*
X0132430Y0157941D02*
X0132485Y0157940D01*
X0132540Y0157942D01*
X0132595Y0157946D01*
X0132650Y0157954D01*
X0132704Y0157964D01*
X0132757Y0157978D01*
X0132810Y0157995D01*
X0132862Y0158014D01*
X0135929Y0159266D02*
X0135987Y0159287D01*
X0136046Y0159305D01*
X0136105Y0159319D01*
X0136166Y0159330D01*
X0136227Y0159337D01*
X0141902Y0159498D02*
X0141961Y0159499D01*
X0142019Y0159502D01*
X0142078Y0159510D01*
X0142136Y0159520D01*
X0142193Y0159534D01*
X0142249Y0159552D01*
X0142304Y0159573D01*
X0142358Y0159596D01*
X0142410Y0159623D01*
X0142460Y0159653D01*
X0145955Y0160858D02*
X0146013Y0160863D01*
X0146072Y0160871D01*
X0146130Y0160883D01*
X0146187Y0160898D01*
X0146243Y0160917D01*
X0146298Y0160939D01*
X0146351Y0160964D01*
X0161659Y0168725D02*
X0161712Y0168750D01*
X0161766Y0168772D01*
X0161822Y0168790D01*
X0161878Y0168806D01*
X0161936Y0168818D01*
X0161994Y0168826D01*
X0162052Y0168831D01*
X0162111Y0168833D01*
X0180174Y0168603D02*
X0180235Y0168615D01*
X0180296Y0168624D01*
X0180358Y0168629D01*
X0180420Y0168630D01*
X0180482Y0168627D01*
X0180544Y0168620D01*
X0180605Y0168610D01*
X0216957Y0161240D02*
X0217013Y0161227D01*
X0217069Y0161210D01*
X0217123Y0161191D01*
X0217177Y0161168D01*
X0217229Y0161142D01*
X0219462Y0159950D02*
X0219517Y0159923D01*
X0219573Y0159899D01*
X0219630Y0159879D01*
X0219688Y0159862D01*
X0219747Y0159849D01*
X0219807Y0159840D01*
X0287049Y0150980D02*
X0287111Y0150970D01*
X0287172Y0150956D01*
X0287232Y0150938D01*
X0287290Y0150917D01*
X0287347Y0150892D01*
X0287403Y0150864D01*
X0287456Y0150832D01*
X0287508Y0150797D01*
X0287557Y0150759D01*
X0287604Y0150718D01*
X0287648Y0150674D01*
X0290491Y0148058D02*
X0290541Y0148025D01*
X0290592Y0147995D01*
X0290645Y0147968D01*
X0290699Y0147945D01*
X0290755Y0147925D01*
X0290812Y0147908D01*
X0290869Y0147894D01*
X0290927Y0147884D01*
X0290986Y0147877D01*
X0291045Y0147874D01*
X0297493Y0143948D02*
X0297511Y0143888D01*
X0297534Y0143830D01*
X0297560Y0143774D01*
X0297589Y0143719D01*
X0297622Y0143666D01*
X0297658Y0143615D01*
X0297697Y0143566D01*
X0297739Y0143521D01*
X0297784Y0143477D01*
X0297832Y0143437D01*
X0297882Y0143400D01*
X0298576Y0142915D02*
X0298622Y0142884D01*
X0298670Y0142856D01*
X0298720Y0142831D01*
X0298771Y0142808D01*
X0298823Y0142789D01*
X0298877Y0142772D01*
X0298931Y0142758D01*
X0313574Y0139480D02*
X0313634Y0139469D01*
X0313694Y0139461D01*
X0313755Y0139457D01*
X0313816Y0139456D01*
X0313877Y0139460D01*
X0313938Y0139467D01*
X0313998Y0139477D01*
X0314057Y0139492D01*
X0316643Y0140203D02*
X0316703Y0140218D01*
X0316764Y0140229D01*
X0316825Y0140236D01*
X0316886Y0140239D01*
X0316948Y0140238D01*
X0317010Y0140234D01*
X0317071Y0140226D01*
X0321247Y0139222D02*
X0321299Y0139203D01*
X0321352Y0139186D01*
X0321406Y0139173D01*
X0321460Y0139162D01*
X0321515Y0139155D01*
X0321570Y0139150D01*
X0329290Y0138751D02*
X0329338Y0138747D01*
X0329385Y0138741D01*
X0329433Y0138733D01*
X0329480Y0138722D01*
X0345139Y0134822D02*
X0345196Y0134806D01*
X0345252Y0134787D01*
X0345306Y0134764D01*
X0345360Y0134739D01*
X0345411Y0134710D01*
X0345461Y0134678D01*
X0345509Y0134643D01*
X0345555Y0134605D01*
X0345598Y0134565D01*
X0357516Y0122850D02*
X0357554Y0122811D01*
X0357590Y0122769D01*
X0357624Y0122725D01*
X0357655Y0122680D01*
X0357683Y0122633D01*
X0362507Y0114189D02*
X0362539Y0114136D01*
X0362576Y0114084D01*
X0362615Y0114035D01*
X0362657Y0113989D01*
X0362702Y0113945D01*
X0362750Y0113905D01*
X0371131Y0107188D02*
X0371176Y0107153D01*
X0371224Y0107121D01*
X0371273Y0107092D01*
X0371324Y0107066D01*
X0371376Y0107043D01*
X0371429Y0107023D01*
X0371484Y0107006D01*
X0371539Y0106992D01*
X0371595Y0106981D01*
X0371652Y0106973D01*
X0379419Y0106161D02*
X0379476Y0106153D01*
X0379533Y0106142D01*
X0379589Y0106128D01*
X0379644Y0106110D01*
X0379698Y0106090D01*
X0379750Y0106066D01*
X0379801Y0106040D01*
X0379851Y0106010D01*
X0379899Y0105978D01*
X0379945Y0105943D01*
X0387297Y0099985D02*
X0387340Y0099948D01*
X0387381Y0099908D01*
X0387420Y0099865D01*
X0387457Y0099821D01*
X0387491Y0099775D01*
X0387522Y0099727D01*
X0387550Y0099677D01*
X0387576Y0099625D01*
X0387598Y0099572D01*
X0389449Y0094842D02*
X0389470Y0094784D01*
X0389487Y0094724D01*
X0389501Y0094664D01*
X0389510Y0094602D01*
X0389516Y0094541D01*
X0389518Y0094479D01*
X0389516Y0094417D01*
X0389510Y0094355D01*
X0389501Y0094294D01*
X0389488Y0094233D01*
X0389470Y0094173D01*
X0389450Y0094115D01*
X0389425Y0094058D01*
X0381920Y0079457D02*
X0381871Y0079422D01*
X0381824Y0079383D01*
X0381779Y0079342D01*
X0381737Y0079298D01*
X0381698Y0079251D01*
X0381662Y0079202D01*
X0381629Y0079151D01*
X0381599Y0079098D01*
X0381572Y0079044D01*
X0381548Y0078988D01*
X0381528Y0078930D01*
X0381512Y0078872D01*
X0380763Y0066359D02*
X0380754Y0066300D01*
X0380749Y0066240D01*
X0380747Y0066181D01*
X0380749Y0066121D01*
X0380754Y0066062D01*
X0380763Y0066003D01*
X0380776Y0065945D01*
X0380792Y0065888D01*
X0375963Y0052390D02*
X0375911Y0052357D01*
X0375861Y0052320D01*
X0375814Y0052280D01*
X0375769Y0052237D01*
X0375727Y0052192D01*
X0375688Y0052144D01*
X0375652Y0052093D01*
X0375619Y0052041D01*
X0375589Y0051986D01*
X0375563Y0051930D01*
X0375540Y0051873D01*
X0374545Y0049091D02*
X0374527Y0049034D01*
X0374512Y0048976D01*
X0374500Y0048918D01*
X0374492Y0048858D01*
X0374488Y0048799D01*
X0374487Y0048739D01*
X0374490Y0048680D01*
X0374496Y0048620D01*
X0374506Y0048561D01*
X0375008Y0046005D02*
X0375018Y0045949D01*
X0375024Y0045892D01*
X0375027Y0045836D01*
X0375026Y0045779D01*
X0375023Y0045722D01*
X0375016Y0045666D01*
X0375006Y0045610D01*
X0374993Y0045555D01*
X0364643Y0050370D02*
X0364600Y0050398D01*
X0364555Y0050423D01*
X0364509Y0050445D01*
X0364462Y0050466D01*
X0364414Y0050484D01*
X0356959Y0053047D02*
X0356902Y0053064D01*
X0356844Y0053079D01*
X0356785Y0053090D01*
X0356725Y0053097D01*
X0356665Y0053101D01*
X0346136Y0053430D02*
X0346079Y0053430D01*
X0346022Y0053427D01*
X0345965Y0053420D01*
X0345909Y0053411D01*
X0345853Y0053398D01*
X0345799Y0053382D01*
X0345745Y0053363D01*
X0345692Y0053341D01*
X0345641Y0053316D01*
X0334318Y0047381D02*
X0334267Y0047352D01*
X0334218Y0047321D01*
X0334171Y0047287D01*
X0334126Y0047250D01*
X0334084Y0047211D01*
X0328838Y0042091D02*
X0328796Y0042053D01*
X0328752Y0042016D01*
X0328706Y0041983D01*
X0328658Y0041952D01*
X0328608Y0041923D01*
X0328557Y0041898D01*
X0328504Y0041876D01*
X0328450Y0041856D01*
X0328395Y0041840D01*
X0325512Y0040714D02*
X0325474Y0040683D01*
X0325438Y0040650D01*
X0325403Y0040615D01*
X0325370Y0040578D01*
X0325128Y0040295D02*
X0325088Y0040251D01*
X0325045Y0040209D01*
X0325000Y0040170D01*
X0324953Y0040134D01*
X0324903Y0040100D01*
X0324852Y0040070D01*
X0324799Y0040043D01*
X0324745Y0040019D01*
X0324689Y0039998D01*
X0324632Y0039980D01*
X0321985Y0039256D02*
X0321935Y0039244D01*
X0321885Y0039235D01*
X0321834Y0039227D01*
X0321783Y0039223D01*
X0321732Y0039221D01*
X0314942Y0039147D02*
X0314885Y0039145D01*
X0314828Y0039139D01*
X0312727Y0038874D02*
X0312698Y0038897D01*
X0312668Y0038918D01*
X0312635Y0038936D01*
X0312602Y0038951D01*
X0312567Y0038964D01*
X0312531Y0038973D01*
X0303214Y0040996D02*
X0303155Y0041007D01*
X0303096Y0041015D01*
X0303036Y0041018D01*
X0302977Y0041019D01*
X0302917Y0041015D01*
X0290801Y0039981D02*
X0290746Y0039977D01*
X0290691Y0039977D01*
X0290636Y0039980D01*
X0290581Y0039986D01*
X0290527Y0039995D01*
X0290473Y0040007D01*
X0290420Y0040022D01*
X0274927Y0044825D02*
X0274874Y0044840D01*
X0274820Y0044852D01*
X0274765Y0044861D01*
X0274710Y0044867D01*
X0274655Y0044870D01*
X0274600Y0044870D01*
X0274545Y0044866D01*
X0267171Y0044228D02*
X0267116Y0044224D01*
X0267061Y0044224D01*
X0267005Y0044227D01*
X0266950Y0044233D01*
X0266896Y0044242D01*
X0266842Y0044254D01*
X0266788Y0044269D01*
X0263656Y0045242D02*
X0263597Y0045258D01*
X0263537Y0045271D01*
X0263476Y0045280D01*
X0263415Y0045285D01*
X0263354Y0045287D01*
X0263292Y0045285D01*
X0263231Y0045279D01*
X0263171Y0045269D01*
X0263111Y0045256D01*
X0263052Y0045239D01*
X0262994Y0045218D01*
X0262938Y0045194D01*
X0262883Y0045166D01*
X0262830Y0045135D01*
X0262779Y0045101D01*
X0262730Y0045064D01*
X0262683Y0045024D01*
X0257327Y0040116D02*
X0257280Y0040076D01*
X0257231Y0040039D01*
X0257180Y0040005D01*
X0257127Y0039974D01*
X0257072Y0039946D01*
X0257016Y0039922D01*
X0256958Y0039901D01*
X0256899Y0039884D01*
X0256839Y0039871D01*
X0256779Y0039861D01*
X0256718Y0039855D01*
X0256656Y0039853D01*
X0256595Y0039855D01*
X0256534Y0039860D01*
X0256473Y0039869D01*
X0249763Y0041080D02*
X0249706Y0041089D01*
X0249649Y0041094D01*
X0249592Y0041096D01*
X0249534Y0041095D01*
X0249477Y0041090D01*
X0165688Y0032001D02*
X0165631Y0031993D01*
X0165574Y0031982D01*
X0165517Y0031967D01*
X0165462Y0031950D01*
X0152600Y0031348D02*
X0152558Y0031391D01*
X0152513Y0031431D01*
X0152466Y0031468D01*
X0152417Y0031503D01*
X0152365Y0031534D01*
X0152312Y0031562D01*
X0152258Y0031587D01*
X0152202Y0031609D01*
X0152144Y0031627D01*
X0152086Y0031642D01*
X0152027Y0031653D01*
X0151967Y0031661D01*
X0151907Y0031665D01*
X0137908Y0032201D02*
X0137856Y0032204D01*
X0137804Y0032210D01*
X0123629Y0034237D02*
X0123576Y0034246D01*
X0123523Y0034258D01*
X0123471Y0034273D01*
X0123420Y0034291D01*
X0123370Y0034311D01*
X0123321Y0034334D01*
X0118820Y0036601D02*
X0118765Y0036627D01*
X0118708Y0036649D01*
X0118651Y0036668D01*
X0118592Y0036683D01*
X0118532Y0036695D01*
X0118472Y0036703D01*
X0118412Y0036707D01*
X0118351Y0036708D01*
X0112080Y0036861D02*
X0112024Y0036871D01*
X0111969Y0036884D01*
X0111914Y0036900D01*
X0111861Y0036919D01*
X0111808Y0036942D01*
X0096227Y0044278D02*
X0096173Y0044302D01*
X0096118Y0044323D01*
X0096062Y0044341D01*
X0096005Y0044355D01*
X0095947Y0044366D01*
X0095889Y0044374D01*
X0095830Y0044378D01*
D11*
X0200385Y0041661D02*
X0223385Y0041661D01*
X0223604Y0041664D01*
X0223823Y0041672D01*
X0224042Y0041685D01*
X0224260Y0041704D01*
X0224478Y0041728D01*
X0224695Y0041757D01*
X0224912Y0041791D01*
X0225127Y0041831D01*
X0225342Y0041876D01*
X0225555Y0041927D01*
X0225767Y0041982D01*
X0225978Y0042043D01*
X0226187Y0042108D01*
X0226394Y0042179D01*
X0226600Y0042255D01*
X0226804Y0042336D01*
X0227006Y0042421D01*
X0227205Y0042512D01*
X0227402Y0042607D01*
X0227597Y0042708D01*
X0227790Y0042813D01*
X0227980Y0042922D01*
X0228167Y0043036D01*
X0228351Y0043155D01*
X0228532Y0043278D01*
X0228710Y0043406D01*
X0228886Y0043538D01*
X0229057Y0043674D01*
X0229226Y0043814D01*
X0229391Y0043958D01*
X0229552Y0044106D01*
X0229710Y0044258D01*
X0229864Y0044414D01*
X0230014Y0044574D01*
X0230161Y0044737D01*
X0230303Y0044904D01*
X0230441Y0045074D01*
X0230575Y0045248D01*
X0230705Y0045424D01*
X0230830Y0045604D01*
X0230951Y0045787D01*
X0231067Y0045973D01*
X0231179Y0046161D01*
X0231286Y0046352D01*
X0231389Y0046546D01*
X0231487Y0046742D01*
X0231580Y0046940D01*
X0231668Y0047141D01*
X0231751Y0047344D01*
X0231830Y0047549D01*
X0231903Y0047755D01*
X0231971Y0047963D01*
X0232034Y0048173D01*
X0232092Y0048385D01*
X0232145Y0048597D01*
X0232193Y0048811D01*
X0232235Y0049026D01*
X0232272Y0049242D01*
X0232304Y0049459D01*
X0232331Y0049677D01*
X0232352Y0049895D01*
X0232368Y0050113D01*
X0232379Y0050332D01*
X0232384Y0050551D01*
X0232384Y0050771D01*
X0232379Y0050990D01*
X0232368Y0051209D01*
X0232352Y0051427D01*
X0232331Y0051645D01*
X0232304Y0051863D01*
X0232272Y0052080D01*
X0232235Y0052296D01*
X0232193Y0052511D01*
X0232145Y0052725D01*
X0232092Y0052937D01*
X0232034Y0053149D01*
X0231971Y0053359D01*
X0231903Y0053567D01*
X0231830Y0053773D01*
X0231751Y0053978D01*
X0231668Y0054181D01*
X0231580Y0054382D01*
X0231487Y0054580D01*
X0231389Y0054776D01*
X0231286Y0054970D01*
X0231179Y0055161D01*
X0231067Y0055349D01*
X0230951Y0055535D01*
X0230830Y0055718D01*
X0230705Y0055898D01*
X0230575Y0056074D01*
X0230441Y0056248D01*
X0230303Y0056418D01*
X0230161Y0056585D01*
X0230014Y0056748D01*
X0229864Y0056908D01*
X0229710Y0057064D01*
X0229552Y0057216D01*
X0229391Y0057364D01*
X0229226Y0057508D01*
X0229057Y0057648D01*
X0228886Y0057784D01*
X0228710Y0057916D01*
X0228532Y0058044D01*
X0228351Y0058167D01*
X0228167Y0058286D01*
X0227980Y0058400D01*
X0227790Y0058509D01*
X0227597Y0058614D01*
X0227402Y0058715D01*
X0227205Y0058810D01*
X0227006Y0058901D01*
X0226804Y0058986D01*
X0226600Y0059067D01*
X0226394Y0059143D01*
X0226187Y0059214D01*
X0225978Y0059279D01*
X0225767Y0059340D01*
X0225555Y0059395D01*
X0225342Y0059446D01*
X0225127Y0059491D01*
X0224912Y0059531D01*
X0224695Y0059565D01*
X0224478Y0059594D01*
X0224260Y0059618D01*
X0224042Y0059637D01*
X0223823Y0059650D01*
X0223604Y0059658D01*
X0223385Y0059661D01*
X0200385Y0059661D01*
X0200166Y0059658D01*
X0199947Y0059650D01*
X0199728Y0059637D01*
X0199510Y0059618D01*
X0199292Y0059594D01*
X0199075Y0059565D01*
X0198858Y0059531D01*
X0198643Y0059491D01*
X0198428Y0059446D01*
X0198215Y0059395D01*
X0198003Y0059340D01*
X0197792Y0059279D01*
X0197583Y0059214D01*
X0197376Y0059143D01*
X0197170Y0059067D01*
X0196966Y0058986D01*
X0196764Y0058901D01*
X0196565Y0058810D01*
X0196368Y0058715D01*
X0196173Y0058614D01*
X0195980Y0058509D01*
X0195790Y0058400D01*
X0195603Y0058286D01*
X0195419Y0058167D01*
X0195238Y0058044D01*
X0195060Y0057916D01*
X0194884Y0057784D01*
X0194713Y0057648D01*
X0194544Y0057508D01*
X0194379Y0057364D01*
X0194218Y0057216D01*
X0194060Y0057064D01*
X0193906Y0056908D01*
X0193756Y0056748D01*
X0193609Y0056585D01*
X0193467Y0056418D01*
X0193329Y0056248D01*
X0193195Y0056074D01*
X0193065Y0055898D01*
X0192940Y0055718D01*
X0192819Y0055535D01*
X0192703Y0055349D01*
X0192591Y0055161D01*
X0192484Y0054970D01*
X0192381Y0054776D01*
X0192283Y0054580D01*
X0192190Y0054382D01*
X0192102Y0054181D01*
X0192019Y0053978D01*
X0191940Y0053773D01*
X0191867Y0053567D01*
X0191799Y0053359D01*
X0191736Y0053149D01*
X0191678Y0052937D01*
X0191625Y0052725D01*
X0191577Y0052511D01*
X0191535Y0052296D01*
X0191498Y0052080D01*
X0191466Y0051863D01*
X0191439Y0051645D01*
X0191418Y0051427D01*
X0191402Y0051209D01*
X0191391Y0050990D01*
X0191386Y0050771D01*
X0191386Y0050551D01*
X0191391Y0050332D01*
X0191402Y0050113D01*
X0191418Y0049895D01*
X0191439Y0049677D01*
X0191466Y0049459D01*
X0191498Y0049242D01*
X0191535Y0049026D01*
X0191577Y0048811D01*
X0191625Y0048597D01*
X0191678Y0048385D01*
X0191736Y0048173D01*
X0191799Y0047963D01*
X0191867Y0047755D01*
X0191940Y0047549D01*
X0192019Y0047344D01*
X0192102Y0047141D01*
X0192190Y0046940D01*
X0192283Y0046742D01*
X0192381Y0046546D01*
X0192484Y0046352D01*
X0192591Y0046161D01*
X0192703Y0045973D01*
X0192819Y0045787D01*
X0192940Y0045604D01*
X0193065Y0045424D01*
X0193195Y0045248D01*
X0193329Y0045074D01*
X0193467Y0044904D01*
X0193609Y0044737D01*
X0193756Y0044574D01*
X0193906Y0044414D01*
X0194060Y0044258D01*
X0194218Y0044106D01*
X0194379Y0043958D01*
X0194544Y0043814D01*
X0194713Y0043674D01*
X0194884Y0043538D01*
X0195060Y0043406D01*
X0195238Y0043278D01*
X0195419Y0043155D01*
X0195603Y0043036D01*
X0195790Y0042922D01*
X0195980Y0042813D01*
X0196173Y0042708D01*
X0196368Y0042607D01*
X0196565Y0042512D01*
X0196764Y0042421D01*
X0196966Y0042336D01*
X0197170Y0042255D01*
X0197376Y0042179D01*
X0197583Y0042108D01*
X0197792Y0042043D01*
X0198003Y0041982D01*
X0198215Y0041927D01*
X0198428Y0041876D01*
X0198643Y0041831D01*
X0198858Y0041791D01*
X0199075Y0041757D01*
X0199292Y0041728D01*
X0199510Y0041704D01*
X0199728Y0041685D01*
X0199947Y0041672D01*
X0200166Y0041664D01*
X0200385Y0041661D01*
X0099926Y0151433D02*
X0099952Y0151562D01*
X0099981Y0151690D01*
X0100015Y0151817D01*
X0100052Y0151943D01*
X0100093Y0152068D01*
X0100138Y0152192D01*
X0100186Y0152315D01*
X0100238Y0152435D01*
X0100293Y0152555D01*
X0100352Y0152672D01*
X0100415Y0152788D01*
X0100481Y0152902D01*
X0100550Y0153014D01*
X0100623Y0153124D01*
X0100698Y0153231D01*
X0100777Y0153337D01*
X0100859Y0153439D01*
X0100944Y0153540D01*
X0101032Y0153638D01*
X0101123Y0153733D01*
X0101217Y0153825D01*
X0101313Y0153915D01*
X0101412Y0154002D01*
X0101514Y0154085D01*
X0101618Y0154166D01*
X0101724Y0154243D01*
X0101833Y0154318D01*
X0101943Y0154389D01*
X0102056Y0154457D01*
X0102171Y0154521D01*
X0102288Y0154582D01*
D12*
X0134183Y0152673D02*
X0134183Y0149471D01*
X0137386Y0149471D02*
X0137386Y0152673D01*
X0135785Y0154275D01*
X0134183Y0152673D01*
X0134183Y0151873D02*
X0137386Y0151873D01*
X0139340Y0153474D02*
X0140141Y0154275D01*
X0141742Y0154275D01*
X0142543Y0153474D01*
X0142543Y0152673D01*
X0139340Y0149471D01*
X0142543Y0149471D01*
X0166861Y0136912D02*
X0170063Y0136912D01*
X0168462Y0138513D02*
X0168462Y0135311D01*
X0152138Y0128323D02*
X0149138Y0128323D01*
X0149138Y0129323D01*
X0149138Y0128323D02*
X0149138Y0127323D01*
X0149138Y0128323D02*
X0146138Y0128323D01*
X0139933Y0127693D02*
X0136933Y0127693D01*
X0136933Y0126693D01*
X0136933Y0127693D02*
X0136933Y0128693D01*
X0136933Y0127693D02*
X0133933Y0127693D01*
X0123878Y0122693D02*
X0122878Y0122693D01*
X0121878Y0122693D01*
X0122878Y0122693D02*
X0122878Y0119693D01*
X0122878Y0122693D02*
X0122878Y0125693D01*
X0101204Y0133763D02*
X0098001Y0133763D01*
X0100403Y0136165D01*
X0100403Y0131360D01*
X0096048Y0131360D02*
X0096048Y0134563D01*
X0094446Y0136165D01*
X0092845Y0134563D01*
X0092845Y0131360D01*
X0092845Y0133763D02*
X0096048Y0133763D01*
X0102615Y0108378D02*
X0102615Y0107378D01*
X0102615Y0106378D01*
X0102615Y0107378D02*
X0099615Y0107378D01*
X0102615Y0107378D02*
X0105615Y0107378D01*
X0108737Y0109430D02*
X0109737Y0109430D01*
X0108737Y0109430D02*
X0108737Y0102430D01*
X0108877Y0102428D01*
X0109017Y0102422D01*
X0109157Y0102412D01*
X0109297Y0102399D01*
X0109436Y0102381D01*
X0109575Y0102359D01*
X0109712Y0102334D01*
X0109850Y0102305D01*
X0109986Y0102272D01*
X0110121Y0102235D01*
X0110255Y0102194D01*
X0110388Y0102149D01*
X0110520Y0102101D01*
X0110650Y0102049D01*
X0110779Y0101994D01*
X0110906Y0101935D01*
X0111032Y0101872D01*
X0111156Y0101806D01*
X0111277Y0101737D01*
X0111397Y0101664D01*
X0111515Y0101587D01*
X0111630Y0101508D01*
X0111744Y0101425D01*
X0111854Y0101339D01*
X0111963Y0101250D01*
X0112069Y0101158D01*
X0112172Y0101063D01*
X0112273Y0100966D01*
X0112370Y0100865D01*
X0112465Y0100762D01*
X0112557Y0100656D01*
X0112646Y0100547D01*
X0112732Y0100437D01*
X0112815Y0100323D01*
X0112894Y0100208D01*
X0112971Y0100090D01*
X0113044Y0099970D01*
X0113113Y0099849D01*
X0113179Y0099725D01*
X0113242Y0099599D01*
X0113301Y0099472D01*
X0113356Y0099343D01*
X0113408Y0099213D01*
X0113456Y0099081D01*
X0113501Y0098948D01*
X0113542Y0098814D01*
X0113579Y0098679D01*
X0113612Y0098543D01*
X0113641Y0098405D01*
X0113666Y0098268D01*
X0113688Y0098129D01*
X0113706Y0097990D01*
X0113719Y0097850D01*
X0113729Y0097710D01*
X0113735Y0097570D01*
X0113737Y0097430D01*
X0113735Y0097290D01*
X0113729Y0097150D01*
X0113719Y0097010D01*
X0113706Y0096870D01*
X0113688Y0096731D01*
X0113666Y0096592D01*
X0113641Y0096455D01*
X0113612Y0096317D01*
X0113579Y0096181D01*
X0113542Y0096046D01*
X0113501Y0095912D01*
X0113456Y0095779D01*
X0113408Y0095647D01*
X0113356Y0095517D01*
X0113301Y0095388D01*
X0113242Y0095261D01*
X0113179Y0095135D01*
X0113113Y0095011D01*
X0113044Y0094890D01*
X0112971Y0094770D01*
X0112894Y0094652D01*
X0112815Y0094537D01*
X0112732Y0094423D01*
X0112646Y0094313D01*
X0112557Y0094204D01*
X0112465Y0094098D01*
X0112370Y0093995D01*
X0112273Y0093894D01*
X0112172Y0093797D01*
X0112069Y0093702D01*
X0111963Y0093610D01*
X0111854Y0093521D01*
X0111744Y0093435D01*
X0111630Y0093352D01*
X0111515Y0093273D01*
X0111397Y0093196D01*
X0111277Y0093123D01*
X0111156Y0093054D01*
X0111032Y0092988D01*
X0110906Y0092925D01*
X0110779Y0092866D01*
X0110650Y0092811D01*
X0110520Y0092759D01*
X0110388Y0092711D01*
X0110255Y0092666D01*
X0110121Y0092625D01*
X0109986Y0092588D01*
X0109850Y0092555D01*
X0109712Y0092526D01*
X0109575Y0092501D01*
X0109436Y0092479D01*
X0109297Y0092461D01*
X0109157Y0092448D01*
X0109017Y0092438D01*
X0108877Y0092432D01*
X0108737Y0092430D01*
X0108737Y0085430D01*
X0109737Y0085430D01*
X0105681Y0086354D02*
X0102681Y0086354D01*
X0102681Y0085354D01*
X0102681Y0086354D02*
X0102681Y0087354D01*
X0102681Y0086354D02*
X0099681Y0086354D01*
X0083421Y0086732D02*
X0083421Y0078685D01*
X0064421Y0082732D02*
X0064423Y0082904D01*
X0064429Y0083075D01*
X0064440Y0083247D01*
X0064455Y0083418D01*
X0064474Y0083589D01*
X0064497Y0083759D01*
X0064524Y0083929D01*
X0064556Y0084098D01*
X0064591Y0084266D01*
X0064631Y0084433D01*
X0064675Y0084599D01*
X0064722Y0084764D01*
X0064774Y0084928D01*
X0064830Y0085090D01*
X0064890Y0085251D01*
X0064954Y0085411D01*
X0065022Y0085569D01*
X0065093Y0085725D01*
X0065168Y0085879D01*
X0065248Y0086032D01*
X0065330Y0086182D01*
X0065417Y0086331D01*
X0065507Y0086477D01*
X0065601Y0086621D01*
X0065698Y0086763D01*
X0065799Y0086902D01*
X0065903Y0087039D01*
X0066010Y0087173D01*
X0066121Y0087304D01*
X0066234Y0087433D01*
X0066351Y0087559D01*
X0066471Y0087682D01*
X0066594Y0087802D01*
X0066720Y0087919D01*
X0066849Y0088032D01*
X0066980Y0088143D01*
X0067114Y0088250D01*
X0067251Y0088354D01*
X0067390Y0088455D01*
X0067532Y0088552D01*
X0067676Y0088646D01*
X0067822Y0088736D01*
X0067971Y0088823D01*
X0068121Y0088905D01*
X0068274Y0088985D01*
X0068428Y0089060D01*
X0068584Y0089131D01*
X0068742Y0089199D01*
X0068902Y0089263D01*
X0069063Y0089323D01*
X0069225Y0089379D01*
X0069389Y0089431D01*
X0069554Y0089478D01*
X0069720Y0089522D01*
X0069887Y0089562D01*
X0070055Y0089597D01*
X0070224Y0089629D01*
X0070394Y0089656D01*
X0070564Y0089679D01*
X0070735Y0089698D01*
X0070906Y0089713D01*
X0071078Y0089724D01*
X0071249Y0089730D01*
X0071421Y0089732D01*
X0071593Y0089730D01*
X0071764Y0089724D01*
X0071936Y0089713D01*
X0072107Y0089698D01*
X0072278Y0089679D01*
X0072448Y0089656D01*
X0072618Y0089629D01*
X0072787Y0089597D01*
X0072955Y0089562D01*
X0073122Y0089522D01*
X0073288Y0089478D01*
X0073453Y0089431D01*
X0073617Y0089379D01*
X0073779Y0089323D01*
X0073940Y0089263D01*
X0074100Y0089199D01*
X0074258Y0089131D01*
X0074414Y0089060D01*
X0074568Y0088985D01*
X0074721Y0088905D01*
X0074871Y0088823D01*
X0075020Y0088736D01*
X0075166Y0088646D01*
X0075310Y0088552D01*
X0075452Y0088455D01*
X0075591Y0088354D01*
X0075728Y0088250D01*
X0075862Y0088143D01*
X0075993Y0088032D01*
X0076122Y0087919D01*
X0076248Y0087802D01*
X0076371Y0087682D01*
X0076491Y0087559D01*
X0076608Y0087433D01*
X0076721Y0087304D01*
X0076832Y0087173D01*
X0076939Y0087039D01*
X0077043Y0086902D01*
X0077144Y0086763D01*
X0077241Y0086621D01*
X0077335Y0086477D01*
X0077425Y0086331D01*
X0077512Y0086182D01*
X0077594Y0086032D01*
X0077674Y0085879D01*
X0077749Y0085725D01*
X0077820Y0085569D01*
X0077888Y0085411D01*
X0077952Y0085251D01*
X0078012Y0085090D01*
X0078068Y0084928D01*
X0078120Y0084764D01*
X0078167Y0084599D01*
X0078211Y0084433D01*
X0078251Y0084266D01*
X0078286Y0084098D01*
X0078318Y0083929D01*
X0078345Y0083759D01*
X0078368Y0083589D01*
X0078387Y0083418D01*
X0078402Y0083247D01*
X0078413Y0083075D01*
X0078419Y0082904D01*
X0078421Y0082732D01*
X0078419Y0082560D01*
X0078413Y0082389D01*
X0078402Y0082217D01*
X0078387Y0082046D01*
X0078368Y0081875D01*
X0078345Y0081705D01*
X0078318Y0081535D01*
X0078286Y0081366D01*
X0078251Y0081198D01*
X0078211Y0081031D01*
X0078167Y0080865D01*
X0078120Y0080700D01*
X0078068Y0080536D01*
X0078012Y0080374D01*
X0077952Y0080213D01*
X0077888Y0080053D01*
X0077820Y0079895D01*
X0077749Y0079739D01*
X0077674Y0079585D01*
X0077594Y0079432D01*
X0077512Y0079282D01*
X0077425Y0079133D01*
X0077335Y0078987D01*
X0077241Y0078843D01*
X0077144Y0078701D01*
X0077043Y0078562D01*
X0076939Y0078425D01*
X0076832Y0078291D01*
X0076721Y0078160D01*
X0076608Y0078031D01*
X0076491Y0077905D01*
X0076371Y0077782D01*
X0076248Y0077662D01*
X0076122Y0077545D01*
X0075993Y0077432D01*
X0075862Y0077321D01*
X0075728Y0077214D01*
X0075591Y0077110D01*
X0075452Y0077009D01*
X0075310Y0076912D01*
X0075166Y0076818D01*
X0075020Y0076728D01*
X0074871Y0076641D01*
X0074721Y0076559D01*
X0074568Y0076479D01*
X0074414Y0076404D01*
X0074258Y0076333D01*
X0074100Y0076265D01*
X0073940Y0076201D01*
X0073779Y0076141D01*
X0073617Y0076085D01*
X0073453Y0076033D01*
X0073288Y0075986D01*
X0073122Y0075942D01*
X0072955Y0075902D01*
X0072787Y0075867D01*
X0072618Y0075835D01*
X0072448Y0075808D01*
X0072278Y0075785D01*
X0072107Y0075766D01*
X0071936Y0075751D01*
X0071764Y0075740D01*
X0071593Y0075734D01*
X0071421Y0075732D01*
X0071249Y0075734D01*
X0071078Y0075740D01*
X0070906Y0075751D01*
X0070735Y0075766D01*
X0070564Y0075785D01*
X0070394Y0075808D01*
X0070224Y0075835D01*
X0070055Y0075867D01*
X0069887Y0075902D01*
X0069720Y0075942D01*
X0069554Y0075986D01*
X0069389Y0076033D01*
X0069225Y0076085D01*
X0069063Y0076141D01*
X0068902Y0076201D01*
X0068742Y0076265D01*
X0068584Y0076333D01*
X0068428Y0076404D01*
X0068274Y0076479D01*
X0068121Y0076559D01*
X0067971Y0076641D01*
X0067822Y0076728D01*
X0067676Y0076818D01*
X0067532Y0076912D01*
X0067390Y0077009D01*
X0067251Y0077110D01*
X0067114Y0077214D01*
X0066980Y0077321D01*
X0066849Y0077432D01*
X0066720Y0077545D01*
X0066594Y0077662D01*
X0066471Y0077782D01*
X0066351Y0077905D01*
X0066234Y0078031D01*
X0066121Y0078160D01*
X0066010Y0078291D01*
X0065903Y0078425D01*
X0065799Y0078562D01*
X0065698Y0078701D01*
X0065601Y0078843D01*
X0065507Y0078987D01*
X0065417Y0079133D01*
X0065330Y0079282D01*
X0065248Y0079432D01*
X0065168Y0079585D01*
X0065093Y0079739D01*
X0065022Y0079895D01*
X0064954Y0080053D01*
X0064890Y0080213D01*
X0064830Y0080374D01*
X0064774Y0080536D01*
X0064722Y0080700D01*
X0064675Y0080865D01*
X0064631Y0081031D01*
X0064591Y0081198D01*
X0064556Y0081366D01*
X0064524Y0081535D01*
X0064497Y0081705D01*
X0064474Y0081875D01*
X0064455Y0082046D01*
X0064440Y0082217D01*
X0064429Y0082389D01*
X0064423Y0082560D01*
X0064421Y0082732D01*
X0059421Y0078803D02*
X0059421Y0086732D01*
X0062921Y0094732D02*
X0079921Y0094732D01*
X0066952Y0100271D02*
X0066151Y0099471D01*
X0064550Y0099471D01*
X0063749Y0100271D01*
X0063749Y0101873D02*
X0065351Y0102673D01*
X0066151Y0102673D01*
X0066952Y0101873D01*
X0066952Y0100271D01*
X0063749Y0101873D02*
X0063749Y0104275D01*
X0066952Y0104275D01*
X0061796Y0102673D02*
X0061796Y0099471D01*
X0061796Y0101873D02*
X0058593Y0101873D01*
X0058593Y0102673D02*
X0058593Y0099471D01*
X0058593Y0102673D02*
X0060194Y0104275D01*
X0061796Y0102673D01*
X0062921Y0070732D02*
X0079921Y0070732D01*
X0078331Y0061264D02*
X0073331Y0061264D01*
X0070831Y0058764D01*
X0070831Y0053764D01*
X0068331Y0051264D01*
X0063331Y0051264D01*
X0060831Y0053764D01*
X0060831Y0058764D01*
X0063331Y0061264D01*
X0068331Y0061264D01*
X0070831Y0058764D01*
X0078331Y0061264D02*
X0080831Y0058764D01*
X0080831Y0053764D01*
X0078331Y0051264D01*
X0073331Y0051264D01*
X0070831Y0053764D01*
X0080831Y0053764D02*
X0083331Y0051264D01*
X0088331Y0051264D01*
X0090831Y0053764D01*
X0090831Y0058764D01*
X0093331Y0061264D01*
X0098331Y0061264D01*
X0100831Y0058764D01*
X0100831Y0053764D01*
X0098331Y0051264D01*
X0093331Y0051264D01*
X0090831Y0053764D01*
X0090831Y0058764D02*
X0088331Y0061264D01*
X0083331Y0061264D01*
X0080831Y0058764D01*
X0100831Y0058764D02*
X0103331Y0061264D01*
X0108331Y0061264D01*
X0110831Y0058764D01*
X0110831Y0053764D01*
X0108331Y0051264D01*
X0103331Y0051264D01*
X0100831Y0053764D01*
X0101106Y0065075D02*
X0101106Y0070075D01*
X0137632Y0071889D02*
X0138632Y0071889D01*
X0139632Y0071889D01*
X0138632Y0071889D02*
X0138632Y0068889D01*
X0138632Y0071889D02*
X0138632Y0074889D01*
X0157549Y0072251D02*
X0158549Y0072251D01*
X0159549Y0072251D01*
X0158549Y0072251D02*
X0158549Y0075251D01*
X0158549Y0072251D02*
X0158549Y0069251D01*
X0172394Y0066359D02*
X0175394Y0066359D01*
X0175394Y0065359D01*
X0175394Y0066359D02*
X0175394Y0067359D01*
X0175394Y0066359D02*
X0178394Y0066359D01*
X0197643Y0068350D02*
X0197643Y0073350D01*
X0226032Y0073501D02*
X0226032Y0068501D01*
X0247737Y0085430D02*
X0248737Y0085430D01*
X0248737Y0109430D01*
X0247737Y0109430D01*
X0238731Y0121142D02*
X0223731Y0121142D01*
X0221231Y0123642D01*
X0221231Y0128642D01*
X0223731Y0131142D01*
X0238731Y0131142D01*
X0241231Y0128642D01*
X0241231Y0123642D01*
X0238731Y0121142D01*
X0238731Y0131142D02*
X0241231Y0133642D01*
X0241231Y0138642D01*
X0238731Y0141142D01*
X0223731Y0141142D01*
X0221231Y0138642D01*
X0221231Y0133642D01*
X0223731Y0131142D01*
X0223731Y0141142D02*
X0221231Y0143642D01*
X0221231Y0148642D01*
X0223731Y0151142D01*
X0238731Y0151142D01*
X0241231Y0148642D01*
X0241231Y0143642D01*
X0238731Y0141142D01*
X0219913Y0143642D02*
X0219913Y0148642D01*
X0209042Y0158195D02*
X0203042Y0158195D01*
X0176835Y0144740D02*
X0171835Y0144740D01*
X0260594Y0141197D02*
X0260594Y0131748D01*
X0285398Y0131748D01*
X0285398Y0141197D01*
X0260594Y0141197D01*
X0294026Y0123960D02*
X0296428Y0123960D01*
X0297229Y0123159D01*
X0297229Y0119956D01*
X0296428Y0119156D01*
X0294026Y0119156D01*
X0294026Y0123960D01*
X0299182Y0123159D02*
X0299182Y0122358D01*
X0299983Y0121558D01*
X0301584Y0121558D01*
X0302385Y0120757D01*
X0302385Y0119956D01*
X0301584Y0119156D01*
X0299983Y0119156D01*
X0299182Y0119956D01*
X0299182Y0120757D01*
X0299983Y0121558D01*
X0301584Y0121558D02*
X0302385Y0122358D01*
X0302385Y0123159D01*
X0301584Y0123960D01*
X0299983Y0123960D01*
X0299182Y0123159D01*
X0339959Y0125744D02*
X0342224Y0128009D01*
X0339959Y0128009D02*
X0342224Y0125744D01*
X0344630Y0126012D02*
X0341094Y0122476D01*
X0341094Y0118941D01*
X0344630Y0115405D01*
X0348165Y0115405D01*
X0348165Y0111870D01*
X0351701Y0108334D01*
X0355236Y0108334D01*
X0358772Y0111870D01*
X0358772Y0115405D01*
X0355236Y0118941D01*
X0351701Y0118941D01*
X0351701Y0122476D01*
X0348165Y0126012D01*
X0344630Y0126012D01*
X0345226Y0113098D02*
X0346925Y0111399D01*
X0346925Y0110267D01*
X0346359Y0109701D01*
X0345226Y0109701D01*
X0343528Y0111399D01*
X0345226Y0109701D02*
X0345226Y0108568D01*
X0344660Y0108002D01*
X0343528Y0108002D01*
X0341829Y0109701D01*
X0345226Y0113098D01*
X0348306Y0107753D02*
X0349439Y0106621D01*
X0349439Y0105488D01*
X0347740Y0103790D01*
X0346042Y0105488D01*
X0346042Y0106621D01*
X0347174Y0106621D01*
X0348873Y0104922D01*
X0351386Y0104673D02*
X0352519Y0103541D01*
X0352519Y0104673D02*
X0350254Y0102408D01*
X0350254Y0101276D01*
X0358489Y0109431D02*
X0360753Y0107166D01*
X0329154Y0098677D02*
X0328154Y0098677D01*
X0327154Y0098677D01*
X0328154Y0098677D02*
X0328154Y0101677D01*
X0328154Y0098677D02*
X0328154Y0095677D01*
X0297322Y0078692D02*
X0297322Y0077692D01*
X0297322Y0076692D01*
X0297322Y0077692D02*
X0294322Y0077692D01*
X0297322Y0077692D02*
X0300322Y0077692D01*
X0286850Y0064460D02*
X0286850Y0063460D01*
X0286850Y0062460D01*
X0286850Y0063460D02*
X0289850Y0063460D01*
X0286850Y0063460D02*
X0283850Y0063460D01*
X0279303Y0063362D02*
X0276303Y0063362D01*
X0276303Y0064362D01*
X0276303Y0063362D02*
X0276303Y0062362D01*
X0276303Y0063362D02*
X0273303Y0063362D01*
X0272070Y0053881D02*
X0268867Y0053881D01*
X0266914Y0053080D02*
X0266113Y0053881D01*
X0263711Y0053881D01*
X0263711Y0049077D01*
X0266113Y0049077D01*
X0266914Y0049878D01*
X0266914Y0053080D01*
X0268867Y0049878D02*
X0272070Y0053080D01*
X0272070Y0053881D01*
X0268867Y0049878D02*
X0268867Y0049077D01*
X0299461Y0048201D02*
X0301863Y0048201D01*
X0302664Y0049002D01*
X0302664Y0052205D01*
X0301863Y0053006D01*
X0299461Y0053006D01*
X0299461Y0048201D01*
X0304618Y0049002D02*
X0305418Y0048201D01*
X0307020Y0048201D01*
X0307820Y0049002D01*
X0307820Y0049803D01*
X0307020Y0050603D01*
X0304618Y0050603D01*
X0304618Y0049002D01*
X0304618Y0050603D02*
X0306219Y0052205D01*
X0307820Y0053006D01*
X0351823Y0064737D02*
X0354225Y0064737D01*
X0355026Y0065538D01*
X0355026Y0068740D01*
X0354225Y0069541D01*
X0351823Y0069541D01*
X0351823Y0064737D01*
X0356980Y0065538D02*
X0357780Y0064737D01*
X0359382Y0064737D01*
X0360183Y0065538D01*
X0360183Y0067139D01*
X0359382Y0067940D01*
X0358581Y0067940D01*
X0356980Y0067139D01*
X0356980Y0069541D01*
X0360183Y0069541D01*
X0189433Y0051039D02*
X0184433Y0051039D01*
X0060831Y0053764D02*
X0058331Y0051264D01*
X0053331Y0051264D01*
X0050831Y0053764D01*
X0050831Y0058764D01*
X0053331Y0061264D01*
X0058331Y0061264D01*
X0060831Y0058764D01*
X0039738Y0055815D02*
X0038798Y0055473D01*
X0037858Y0055131D01*
X0038798Y0055473D02*
X0037772Y0058292D01*
X0038798Y0055473D02*
X0039824Y0052654D01*
X0034604Y0046388D02*
X0034604Y0043185D01*
X0033002Y0044786D02*
X0036205Y0044786D01*
D13*
X0017828Y0051068D02*
X0015948Y0050384D01*
X0023842Y0053257D02*
X0025533Y0053873D01*
X0113705Y0060094D02*
X0115673Y0062850D01*
X0115673Y0066000D01*
X0115673Y0062850D02*
X0113705Y0062850D01*
X0115673Y0062850D02*
X0118035Y0062850D01*
X0115673Y0062850D02*
X0118035Y0060094D01*
X0115673Y0060094D01*
X0115673Y0056945D01*
X0115673Y0060094D02*
X0113705Y0060094D01*
X0168429Y0046315D02*
X0170398Y0046315D01*
X0170398Y0049464D01*
X0170398Y0046315D02*
X0172760Y0046315D01*
X0170398Y0046315D02*
X0172760Y0043559D01*
X0170398Y0043559D01*
X0170398Y0040409D01*
X0170398Y0043559D02*
X0168429Y0043559D01*
X0170398Y0046315D01*
X0156717Y0122317D02*
X0156717Y0124317D01*
X0156717Y0130717D02*
X0156717Y0132517D01*
X0337720Y0115606D02*
X0340083Y0112850D01*
X0340083Y0109701D01*
X0340083Y0112850D02*
X0342051Y0112850D01*
X0340083Y0112850D02*
X0342051Y0115606D01*
X0340083Y0115606D01*
X0340083Y0118756D01*
X0340083Y0115606D02*
X0337720Y0115606D01*
X0337720Y0112850D02*
X0340083Y0112850D01*
D14*
X0340356Y0112448D02*
X0338752Y0114052D01*
X0339554Y0113250D02*
X0341960Y0115656D01*
X0341960Y0114052D01*
X0342559Y0112651D02*
X0342559Y0111849D01*
X0343762Y0110646D01*
X0342960Y0109844D02*
X0345366Y0112250D01*
X0344163Y0113453D01*
X0343361Y0113453D01*
X0342559Y0112651D01*
X0346367Y0111250D02*
X0347169Y0110448D01*
X0346768Y0110849D02*
X0344762Y0108844D01*
X0344762Y0108041D01*
X0345163Y0107640D01*
X0345966Y0107640D01*
X0313799Y0104177D02*
X0312799Y0104177D01*
X0312799Y0103177D01*
X0312799Y0104177D02*
X0311799Y0104177D01*
X0312799Y0104177D02*
X0312799Y0105177D01*
X0304653Y0109489D02*
X0302385Y0109489D01*
X0303519Y0109489D02*
X0303519Y0112892D01*
X0302385Y0111757D01*
X0300970Y0112325D02*
X0300403Y0112892D01*
X0299269Y0112892D01*
X0298702Y0112325D01*
X0298702Y0110056D01*
X0299269Y0109489D01*
X0300403Y0109489D01*
X0300970Y0110056D01*
X0297799Y0098677D02*
X0297802Y0098922D01*
X0297811Y0099168D01*
X0297826Y0099413D01*
X0297847Y0099657D01*
X0297874Y0099901D01*
X0297907Y0100144D01*
X0297946Y0100387D01*
X0297991Y0100628D01*
X0298042Y0100868D01*
X0298099Y0101107D01*
X0298161Y0101344D01*
X0298230Y0101580D01*
X0298304Y0101814D01*
X0298384Y0102046D01*
X0298469Y0102276D01*
X0298560Y0102504D01*
X0298657Y0102729D01*
X0298759Y0102953D01*
X0298867Y0103173D01*
X0298980Y0103391D01*
X0299098Y0103606D01*
X0299222Y0103818D01*
X0299350Y0104027D01*
X0299484Y0104233D01*
X0299623Y0104435D01*
X0299767Y0104634D01*
X0299916Y0104829D01*
X0300069Y0105021D01*
X0300227Y0105209D01*
X0300389Y0105393D01*
X0300557Y0105572D01*
X0300728Y0105748D01*
X0300904Y0105919D01*
X0301083Y0106087D01*
X0301267Y0106249D01*
X0301455Y0106407D01*
X0301647Y0106560D01*
X0301842Y0106709D01*
X0302041Y0106853D01*
X0302243Y0106992D01*
X0302449Y0107126D01*
X0302658Y0107254D01*
X0302870Y0107378D01*
X0303085Y0107496D01*
X0303303Y0107609D01*
X0303523Y0107717D01*
X0303747Y0107819D01*
X0303972Y0107916D01*
X0304200Y0108007D01*
X0304430Y0108092D01*
X0304662Y0108172D01*
X0304896Y0108246D01*
X0305132Y0108315D01*
X0305369Y0108377D01*
X0305608Y0108434D01*
X0305848Y0108485D01*
X0306089Y0108530D01*
X0306332Y0108569D01*
X0306575Y0108602D01*
X0306819Y0108629D01*
X0307063Y0108650D01*
X0307308Y0108665D01*
X0307554Y0108674D01*
X0307799Y0108677D01*
X0308044Y0108674D01*
X0308290Y0108665D01*
X0308535Y0108650D01*
X0308779Y0108629D01*
X0309023Y0108602D01*
X0309266Y0108569D01*
X0309509Y0108530D01*
X0309750Y0108485D01*
X0309990Y0108434D01*
X0310229Y0108377D01*
X0310466Y0108315D01*
X0310702Y0108246D01*
X0310936Y0108172D01*
X0311168Y0108092D01*
X0311398Y0108007D01*
X0311626Y0107916D01*
X0311851Y0107819D01*
X0312075Y0107717D01*
X0312295Y0107609D01*
X0312513Y0107496D01*
X0312728Y0107378D01*
X0312940Y0107254D01*
X0313149Y0107126D01*
X0313355Y0106992D01*
X0313557Y0106853D01*
X0313756Y0106709D01*
X0313951Y0106560D01*
X0314143Y0106407D01*
X0314331Y0106249D01*
X0314515Y0106087D01*
X0314694Y0105919D01*
X0314870Y0105748D01*
X0315041Y0105572D01*
X0315209Y0105393D01*
X0315371Y0105209D01*
X0315529Y0105021D01*
X0315682Y0104829D01*
X0315831Y0104634D01*
X0315975Y0104435D01*
X0316114Y0104233D01*
X0316248Y0104027D01*
X0316376Y0103818D01*
X0316500Y0103606D01*
X0316618Y0103391D01*
X0316731Y0103173D01*
X0316839Y0102953D01*
X0316941Y0102729D01*
X0317038Y0102504D01*
X0317129Y0102276D01*
X0317214Y0102046D01*
X0317294Y0101814D01*
X0317368Y0101580D01*
X0317437Y0101344D01*
X0317499Y0101107D01*
X0317556Y0100868D01*
X0317607Y0100628D01*
X0317652Y0100387D01*
X0317691Y0100144D01*
X0317724Y0099901D01*
X0317751Y0099657D01*
X0317772Y0099413D01*
X0317787Y0099168D01*
X0317796Y0098922D01*
X0317799Y0098677D01*
X0317796Y0098432D01*
X0317787Y0098186D01*
X0317772Y0097941D01*
X0317751Y0097697D01*
X0317724Y0097453D01*
X0317691Y0097210D01*
X0317652Y0096967D01*
X0317607Y0096726D01*
X0317556Y0096486D01*
X0317499Y0096247D01*
X0317437Y0096010D01*
X0317368Y0095774D01*
X0317294Y0095540D01*
X0317214Y0095308D01*
X0317129Y0095078D01*
X0317038Y0094850D01*
X0316941Y0094625D01*
X0316839Y0094401D01*
X0316731Y0094181D01*
X0316618Y0093963D01*
X0316500Y0093748D01*
X0316376Y0093536D01*
X0316248Y0093327D01*
X0316114Y0093121D01*
X0315975Y0092919D01*
X0315831Y0092720D01*
X0315682Y0092525D01*
X0315529Y0092333D01*
X0315371Y0092145D01*
X0315209Y0091961D01*
X0315041Y0091782D01*
X0314870Y0091606D01*
X0314694Y0091435D01*
X0314515Y0091267D01*
X0314331Y0091105D01*
X0314143Y0090947D01*
X0313951Y0090794D01*
X0313756Y0090645D01*
X0313557Y0090501D01*
X0313355Y0090362D01*
X0313149Y0090228D01*
X0312940Y0090100D01*
X0312728Y0089976D01*
X0312513Y0089858D01*
X0312295Y0089745D01*
X0312075Y0089637D01*
X0311851Y0089535D01*
X0311626Y0089438D01*
X0311398Y0089347D01*
X0311168Y0089262D01*
X0310936Y0089182D01*
X0310702Y0089108D01*
X0310466Y0089039D01*
X0310229Y0088977D01*
X0309990Y0088920D01*
X0309750Y0088869D01*
X0309509Y0088824D01*
X0309266Y0088785D01*
X0309023Y0088752D01*
X0308779Y0088725D01*
X0308535Y0088704D01*
X0308290Y0088689D01*
X0308044Y0088680D01*
X0307799Y0088677D01*
X0307554Y0088680D01*
X0307308Y0088689D01*
X0307063Y0088704D01*
X0306819Y0088725D01*
X0306575Y0088752D01*
X0306332Y0088785D01*
X0306089Y0088824D01*
X0305848Y0088869D01*
X0305608Y0088920D01*
X0305369Y0088977D01*
X0305132Y0089039D01*
X0304896Y0089108D01*
X0304662Y0089182D01*
X0304430Y0089262D01*
X0304200Y0089347D01*
X0303972Y0089438D01*
X0303747Y0089535D01*
X0303523Y0089637D01*
X0303303Y0089745D01*
X0303085Y0089858D01*
X0302870Y0089976D01*
X0302658Y0090100D01*
X0302449Y0090228D01*
X0302243Y0090362D01*
X0302041Y0090501D01*
X0301842Y0090645D01*
X0301647Y0090794D01*
X0301455Y0090947D01*
X0301267Y0091105D01*
X0301083Y0091267D01*
X0300904Y0091435D01*
X0300728Y0091606D01*
X0300557Y0091782D01*
X0300389Y0091961D01*
X0300227Y0092145D01*
X0300069Y0092333D01*
X0299916Y0092525D01*
X0299767Y0092720D01*
X0299623Y0092919D01*
X0299484Y0093121D01*
X0299350Y0093327D01*
X0299222Y0093536D01*
X0299098Y0093748D01*
X0298980Y0093963D01*
X0298867Y0094181D01*
X0298759Y0094401D01*
X0298657Y0094625D01*
X0298560Y0094850D01*
X0298469Y0095078D01*
X0298384Y0095308D01*
X0298304Y0095540D01*
X0298230Y0095774D01*
X0298161Y0096010D01*
X0298099Y0096247D01*
X0298042Y0096486D01*
X0297991Y0096726D01*
X0297946Y0096967D01*
X0297907Y0097210D01*
X0297874Y0097453D01*
X0297847Y0097697D01*
X0297826Y0097941D01*
X0297811Y0098186D01*
X0297802Y0098432D01*
X0297799Y0098677D01*
X0302613Y0085893D02*
X0303180Y0084759D01*
X0304315Y0083624D01*
X0304315Y0085326D01*
X0304882Y0085893D01*
X0305449Y0085893D01*
X0306016Y0085326D01*
X0306016Y0084191D01*
X0305449Y0083624D01*
X0304315Y0083624D01*
X0306016Y0082210D02*
X0306016Y0079941D01*
X0306016Y0081075D02*
X0302613Y0081075D01*
X0303748Y0079941D01*
X0303180Y0078527D02*
X0304315Y0078527D01*
X0304882Y0077959D01*
X0304882Y0076258D01*
X0306016Y0076258D02*
X0302613Y0076258D01*
X0302613Y0077959D01*
X0303180Y0078527D01*
X0304882Y0077392D02*
X0306016Y0078527D01*
X0305996Y0074334D02*
X0302593Y0074334D01*
X0303728Y0073200D01*
X0302593Y0072066D01*
X0305996Y0072066D01*
X0305996Y0070651D02*
X0305996Y0068383D01*
X0305996Y0069517D02*
X0302593Y0069517D01*
X0303728Y0068383D01*
X0295278Y0068419D02*
X0295278Y0067285D01*
X0294711Y0066718D01*
X0293577Y0066718D02*
X0293010Y0067852D01*
X0293010Y0068419D01*
X0293577Y0068987D01*
X0294711Y0068987D01*
X0295278Y0068419D01*
X0293577Y0066718D02*
X0291876Y0066718D01*
X0291876Y0068987D01*
X0292443Y0065303D02*
X0293577Y0065303D01*
X0294144Y0064736D01*
X0294144Y0063035D01*
X0294144Y0064169D02*
X0295278Y0065303D01*
X0295278Y0063035D02*
X0291876Y0063035D01*
X0291876Y0064736D01*
X0292443Y0065303D01*
X0292033Y0060259D02*
X0295436Y0060259D01*
X0295436Y0057990D02*
X0292033Y0057990D01*
X0293167Y0059125D01*
X0292033Y0060259D01*
X0292033Y0055441D02*
X0295436Y0055441D01*
X0295436Y0054307D02*
X0295436Y0056576D01*
X0293167Y0054307D02*
X0292033Y0055441D01*
X0271503Y0058146D02*
X0271503Y0060415D01*
X0271503Y0059280D02*
X0268100Y0059280D01*
X0269235Y0058146D01*
X0268100Y0061829D02*
X0269235Y0062964D01*
X0268100Y0064098D01*
X0271503Y0064098D01*
X0271503Y0061829D02*
X0268100Y0061829D01*
X0268214Y0066808D02*
X0268214Y0068509D01*
X0268782Y0069076D01*
X0269916Y0069076D01*
X0270483Y0068509D01*
X0270483Y0066808D01*
X0270483Y0067942D02*
X0271617Y0069076D01*
X0271050Y0070491D02*
X0270483Y0070491D01*
X0269916Y0071058D01*
X0269916Y0072192D01*
X0270483Y0072759D01*
X0271050Y0072759D01*
X0271617Y0072192D01*
X0271617Y0071058D01*
X0271050Y0070491D01*
X0269916Y0071058D02*
X0269349Y0070491D01*
X0268782Y0070491D01*
X0268214Y0071058D01*
X0268214Y0072192D01*
X0268782Y0072759D01*
X0269349Y0072759D01*
X0269916Y0072192D01*
X0271617Y0066808D02*
X0268214Y0066808D01*
X0238393Y0066159D02*
X0237826Y0065592D01*
X0237826Y0062757D01*
X0237259Y0064458D02*
X0238393Y0064458D01*
X0235844Y0064458D02*
X0235844Y0063324D01*
X0235277Y0062757D01*
X0233576Y0062757D01*
X0233576Y0061622D02*
X0233576Y0065025D01*
X0235277Y0065025D01*
X0235844Y0064458D01*
X0232161Y0065025D02*
X0229893Y0062757D01*
X0232161Y0062757D01*
X0232161Y0065025D02*
X0232161Y0065592D01*
X0231594Y0066159D01*
X0230460Y0066159D01*
X0229893Y0065592D01*
X0228478Y0065592D02*
X0227911Y0066159D01*
X0226777Y0066159D01*
X0226209Y0065592D01*
X0224185Y0065658D02*
X0221916Y0063389D01*
X0222484Y0062822D01*
X0223618Y0062822D01*
X0224185Y0063389D01*
X0224185Y0065658D01*
X0223618Y0066225D01*
X0222484Y0066225D01*
X0221916Y0065658D01*
X0221916Y0063389D01*
X0220502Y0062822D02*
X0218233Y0062822D01*
X0219368Y0062822D02*
X0219368Y0066225D01*
X0218233Y0065091D01*
X0216819Y0065658D02*
X0216252Y0066225D01*
X0215117Y0066225D01*
X0214550Y0065658D01*
X0214550Y0063389D01*
X0215117Y0062822D01*
X0216252Y0062822D01*
X0216819Y0063389D01*
X0211228Y0064458D02*
X0210094Y0064458D01*
X0210661Y0065592D02*
X0211228Y0066159D01*
X0210661Y0065592D02*
X0210661Y0062757D01*
X0208679Y0063324D02*
X0208112Y0062757D01*
X0206410Y0062757D01*
X0206410Y0061622D02*
X0206410Y0065025D01*
X0208112Y0065025D01*
X0208679Y0064458D01*
X0208679Y0063324D01*
X0204996Y0062757D02*
X0202727Y0062757D01*
X0204996Y0065025D01*
X0204996Y0065592D01*
X0204429Y0066159D01*
X0203294Y0066159D01*
X0202727Y0065592D01*
X0201313Y0065592D02*
X0200746Y0066159D01*
X0199611Y0066159D01*
X0199044Y0065592D01*
X0196805Y0065664D02*
X0196805Y0065097D01*
X0196238Y0064529D01*
X0195103Y0064529D01*
X0194536Y0065097D01*
X0194536Y0065664D01*
X0195103Y0066231D01*
X0196238Y0066231D01*
X0196805Y0065664D01*
X0196238Y0064529D02*
X0196805Y0063962D01*
X0196805Y0063395D01*
X0196238Y0062828D01*
X0195103Y0062828D01*
X0194536Y0063395D01*
X0194536Y0063962D01*
X0195103Y0064529D01*
X0193122Y0063395D02*
X0192555Y0062828D01*
X0191420Y0062828D01*
X0190853Y0063395D01*
X0190853Y0065664D01*
X0191420Y0066231D01*
X0192555Y0066231D01*
X0193122Y0065664D01*
X0199044Y0062757D02*
X0201313Y0065025D01*
X0201313Y0065592D01*
X0201313Y0062757D02*
X0199044Y0062757D01*
X0200385Y0057661D02*
X0223385Y0057661D01*
X0214385Y0054161D02*
X0214385Y0050661D01*
X0216885Y0050661D01*
X0214385Y0050661D02*
X0214385Y0047161D01*
X0212885Y0047161D02*
X0212885Y0054161D01*
X0210885Y0054161D01*
X0210885Y0047161D01*
X0212885Y0047161D01*
X0209385Y0047161D02*
X0209385Y0050661D01*
X0206885Y0050661D01*
X0209385Y0050661D02*
X0209385Y0054161D01*
X0200385Y0057661D02*
X0200215Y0057659D01*
X0200044Y0057653D01*
X0199874Y0057642D01*
X0199704Y0057628D01*
X0199535Y0057609D01*
X0199366Y0057586D01*
X0199197Y0057560D01*
X0199030Y0057529D01*
X0198863Y0057494D01*
X0198697Y0057454D01*
X0198532Y0057411D01*
X0198368Y0057364D01*
X0198206Y0057313D01*
X0198044Y0057258D01*
X0197884Y0057199D01*
X0197726Y0057136D01*
X0197569Y0057070D01*
X0197414Y0056999D01*
X0197260Y0056925D01*
X0197109Y0056847D01*
X0196959Y0056765D01*
X0196811Y0056680D01*
X0196666Y0056591D01*
X0196523Y0056499D01*
X0196382Y0056403D01*
X0196243Y0056304D01*
X0196107Y0056201D01*
X0195973Y0056096D01*
X0195842Y0055987D01*
X0195714Y0055874D01*
X0195588Y0055759D01*
X0195465Y0055641D01*
X0195346Y0055520D01*
X0195229Y0055395D01*
X0195115Y0055268D01*
X0195004Y0055139D01*
X0194897Y0055006D01*
X0194793Y0054871D01*
X0194692Y0054734D01*
X0194594Y0054594D01*
X0194500Y0054452D01*
X0194410Y0054308D01*
X0194323Y0054161D01*
X0194239Y0054012D01*
X0194160Y0053862D01*
X0194084Y0053709D01*
X0194011Y0053555D01*
X0193943Y0053399D01*
X0193878Y0053241D01*
X0193817Y0053082D01*
X0193760Y0052921D01*
X0193707Y0052759D01*
X0193658Y0052596D01*
X0193613Y0052432D01*
X0193572Y0052266D01*
X0193534Y0052100D01*
X0193501Y0051932D01*
X0193473Y0051764D01*
X0193448Y0051596D01*
X0193427Y0051427D01*
X0193410Y0051257D01*
X0193398Y0051087D01*
X0193390Y0050917D01*
X0193386Y0050746D01*
X0193386Y0050576D01*
X0193390Y0050405D01*
X0193398Y0050235D01*
X0193410Y0050065D01*
X0193427Y0049895D01*
X0193448Y0049726D01*
X0193473Y0049558D01*
X0193501Y0049390D01*
X0193534Y0049222D01*
X0193572Y0049056D01*
X0193613Y0048890D01*
X0193658Y0048726D01*
X0193707Y0048563D01*
X0193760Y0048401D01*
X0193817Y0048240D01*
X0193878Y0048081D01*
X0193943Y0047923D01*
X0194011Y0047767D01*
X0194084Y0047613D01*
X0194160Y0047460D01*
X0194239Y0047310D01*
X0194323Y0047161D01*
X0194410Y0047014D01*
X0194500Y0046870D01*
X0194594Y0046728D01*
X0194692Y0046588D01*
X0194793Y0046451D01*
X0194897Y0046316D01*
X0195004Y0046183D01*
X0195115Y0046054D01*
X0195229Y0045927D01*
X0195346Y0045802D01*
X0195465Y0045681D01*
X0195588Y0045563D01*
X0195714Y0045448D01*
X0195842Y0045335D01*
X0195973Y0045226D01*
X0196107Y0045121D01*
X0196243Y0045018D01*
X0196382Y0044919D01*
X0196523Y0044823D01*
X0196666Y0044731D01*
X0196811Y0044642D01*
X0196959Y0044557D01*
X0197109Y0044475D01*
X0197260Y0044397D01*
X0197414Y0044323D01*
X0197569Y0044252D01*
X0197726Y0044186D01*
X0197884Y0044123D01*
X0198044Y0044064D01*
X0198206Y0044009D01*
X0198368Y0043958D01*
X0198532Y0043911D01*
X0198697Y0043868D01*
X0198863Y0043828D01*
X0199030Y0043793D01*
X0199197Y0043762D01*
X0199366Y0043736D01*
X0199535Y0043713D01*
X0199704Y0043694D01*
X0199874Y0043680D01*
X0200044Y0043669D01*
X0200215Y0043663D01*
X0200385Y0043661D01*
X0223385Y0043661D01*
X0223555Y0043663D01*
X0223726Y0043669D01*
X0223896Y0043680D01*
X0224066Y0043694D01*
X0224235Y0043713D01*
X0224404Y0043736D01*
X0224573Y0043762D01*
X0224740Y0043793D01*
X0224907Y0043828D01*
X0225073Y0043868D01*
X0225238Y0043911D01*
X0225402Y0043958D01*
X0225564Y0044009D01*
X0225726Y0044064D01*
X0225886Y0044123D01*
X0226044Y0044186D01*
X0226201Y0044252D01*
X0226356Y0044323D01*
X0226510Y0044397D01*
X0226661Y0044475D01*
X0226811Y0044557D01*
X0226959Y0044642D01*
X0227104Y0044731D01*
X0227247Y0044823D01*
X0227388Y0044919D01*
X0227527Y0045018D01*
X0227663Y0045121D01*
X0227797Y0045226D01*
X0227928Y0045335D01*
X0228056Y0045448D01*
X0228182Y0045563D01*
X0228305Y0045681D01*
X0228424Y0045802D01*
X0228541Y0045927D01*
X0228655Y0046054D01*
X0228766Y0046183D01*
X0228873Y0046316D01*
X0228977Y0046451D01*
X0229078Y0046588D01*
X0229176Y0046728D01*
X0229270Y0046870D01*
X0229360Y0047014D01*
X0229447Y0047161D01*
X0229531Y0047310D01*
X0229610Y0047460D01*
X0229686Y0047613D01*
X0229759Y0047767D01*
X0229827Y0047923D01*
X0229892Y0048081D01*
X0229953Y0048240D01*
X0230010Y0048401D01*
X0230063Y0048563D01*
X0230112Y0048726D01*
X0230157Y0048890D01*
X0230198Y0049056D01*
X0230236Y0049222D01*
X0230269Y0049390D01*
X0230297Y0049558D01*
X0230322Y0049726D01*
X0230343Y0049895D01*
X0230360Y0050065D01*
X0230372Y0050235D01*
X0230380Y0050405D01*
X0230384Y0050576D01*
X0230384Y0050746D01*
X0230380Y0050917D01*
X0230372Y0051087D01*
X0230360Y0051257D01*
X0230343Y0051427D01*
X0230322Y0051596D01*
X0230297Y0051764D01*
X0230269Y0051932D01*
X0230236Y0052100D01*
X0230198Y0052266D01*
X0230157Y0052432D01*
X0230112Y0052596D01*
X0230063Y0052759D01*
X0230010Y0052921D01*
X0229953Y0053082D01*
X0229892Y0053241D01*
X0229827Y0053399D01*
X0229759Y0053555D01*
X0229686Y0053709D01*
X0229610Y0053862D01*
X0229531Y0054012D01*
X0229447Y0054161D01*
X0229360Y0054308D01*
X0229270Y0054452D01*
X0229176Y0054594D01*
X0229078Y0054734D01*
X0228977Y0054871D01*
X0228873Y0055006D01*
X0228766Y0055139D01*
X0228655Y0055268D01*
X0228541Y0055395D01*
X0228424Y0055520D01*
X0228305Y0055641D01*
X0228182Y0055759D01*
X0228056Y0055874D01*
X0227928Y0055987D01*
X0227797Y0056096D01*
X0227663Y0056201D01*
X0227527Y0056304D01*
X0227388Y0056403D01*
X0227247Y0056499D01*
X0227104Y0056591D01*
X0226959Y0056680D01*
X0226811Y0056765D01*
X0226661Y0056847D01*
X0226510Y0056925D01*
X0226356Y0056999D01*
X0226201Y0057070D01*
X0226044Y0057136D01*
X0225886Y0057199D01*
X0225726Y0057258D01*
X0225564Y0057313D01*
X0225402Y0057364D01*
X0225238Y0057411D01*
X0225073Y0057454D01*
X0224907Y0057494D01*
X0224740Y0057529D01*
X0224573Y0057560D01*
X0224404Y0057586D01*
X0224235Y0057609D01*
X0224066Y0057628D01*
X0223896Y0057642D01*
X0223726Y0057653D01*
X0223555Y0057659D01*
X0223385Y0057661D01*
X0226209Y0062757D02*
X0228478Y0065025D01*
X0228478Y0065592D01*
X0228478Y0062757D02*
X0226209Y0062757D01*
X0233908Y0046955D02*
X0233908Y0046388D01*
X0235042Y0045254D01*
X0235042Y0043553D01*
X0235042Y0045254D02*
X0236177Y0046388D01*
X0236177Y0046955D01*
X0237591Y0046388D02*
X0238158Y0046955D01*
X0239293Y0046955D01*
X0239860Y0046388D01*
X0239860Y0045821D01*
X0237591Y0043553D01*
X0239860Y0043553D01*
X0181467Y0046899D02*
X0181467Y0049168D01*
X0181467Y0048033D02*
X0178064Y0048033D01*
X0179199Y0046899D01*
X0179637Y0044561D02*
X0179070Y0043994D01*
X0179637Y0044561D02*
X0180771Y0044561D01*
X0181338Y0043994D01*
X0181338Y0043427D01*
X0179070Y0041158D01*
X0181338Y0041158D01*
X0177655Y0041725D02*
X0177088Y0041158D01*
X0175954Y0041158D01*
X0175386Y0041725D01*
X0175386Y0043994D01*
X0175954Y0044561D01*
X0177088Y0044561D01*
X0177655Y0043994D01*
X0176756Y0047266D02*
X0173353Y0047266D01*
X0173353Y0048967D01*
X0173920Y0049534D01*
X0175054Y0049534D01*
X0175621Y0048967D01*
X0175621Y0047266D01*
X0175621Y0048400D02*
X0176756Y0049534D01*
X0176756Y0050949D02*
X0176756Y0053218D01*
X0176756Y0052083D02*
X0173353Y0052083D01*
X0174487Y0050949D01*
X0178064Y0050582D02*
X0181467Y0050582D01*
X0180333Y0050582D02*
X0178064Y0052851D01*
X0178064Y0054265D02*
X0179766Y0054265D01*
X0179199Y0055400D01*
X0179199Y0055967D01*
X0179766Y0056534D01*
X0180900Y0056534D01*
X0181467Y0055967D01*
X0181467Y0054832D01*
X0180900Y0054265D01*
X0181467Y0052851D02*
X0179766Y0051149D01*
X0178064Y0054265D02*
X0178064Y0056534D01*
X0176756Y0056901D02*
X0176756Y0054632D01*
X0176756Y0055766D02*
X0173353Y0055766D01*
X0174487Y0054632D01*
X0162348Y0051867D02*
X0162348Y0050733D01*
X0161781Y0050166D01*
X0160647Y0050166D02*
X0160079Y0051300D01*
X0160079Y0051867D01*
X0160647Y0052434D01*
X0161781Y0052434D01*
X0162348Y0051867D01*
X0160647Y0050166D02*
X0158945Y0050166D01*
X0158945Y0052434D01*
X0159512Y0048751D02*
X0158945Y0048184D01*
X0158945Y0046483D01*
X0162348Y0046483D01*
X0162348Y0048184D01*
X0161781Y0048751D01*
X0159512Y0048751D01*
X0146008Y0039990D02*
X0145441Y0040557D01*
X0144306Y0040557D01*
X0143739Y0039990D01*
X0142325Y0040557D02*
X0141190Y0040557D01*
X0141757Y0040557D02*
X0141757Y0037721D01*
X0141190Y0037154D01*
X0140623Y0037154D01*
X0140056Y0037721D01*
X0143739Y0037154D02*
X0146008Y0039423D01*
X0146008Y0039990D01*
X0146008Y0037154D02*
X0143739Y0037154D01*
X0121611Y0045286D02*
X0121611Y0046988D01*
X0121044Y0047555D01*
X0118775Y0047555D01*
X0118208Y0046988D01*
X0118208Y0045286D01*
X0121611Y0045286D01*
X0121611Y0048969D02*
X0119342Y0051238D01*
X0118775Y0051238D01*
X0118208Y0050671D01*
X0118208Y0049537D01*
X0118775Y0048969D01*
X0116070Y0048356D02*
X0114936Y0048356D01*
X0115503Y0048356D02*
X0115503Y0044953D01*
X0114936Y0044953D02*
X0116070Y0044953D01*
X0113522Y0045521D02*
X0112954Y0044953D01*
X0111253Y0044953D01*
X0111253Y0048356D01*
X0112954Y0048356D01*
X0113522Y0047789D01*
X0113522Y0045521D01*
X0109838Y0048356D02*
X0107570Y0048356D01*
X0108704Y0048356D02*
X0108704Y0044953D01*
X0105021Y0046655D02*
X0103887Y0046655D01*
X0103887Y0048356D02*
X0103887Y0044953D01*
X0103887Y0048356D02*
X0106155Y0048356D01*
X0121611Y0048969D02*
X0121611Y0051238D01*
X0124140Y0065666D02*
X0125275Y0065666D01*
X0125842Y0066233D01*
X0125842Y0066800D01*
X0125275Y0067367D01*
X0123573Y0067367D01*
X0123573Y0066233D01*
X0124140Y0065666D01*
X0123573Y0067367D02*
X0124707Y0068501D01*
X0125842Y0069068D01*
X0125054Y0070276D02*
X0122786Y0070276D01*
X0123920Y0070276D02*
X0123920Y0073679D01*
X0122786Y0072544D01*
X0121371Y0073112D02*
X0121371Y0071977D01*
X0120804Y0071410D01*
X0119103Y0071410D01*
X0120237Y0071410D02*
X0121371Y0070276D01*
X0119103Y0070276D02*
X0119103Y0073679D01*
X0120804Y0073679D01*
X0121371Y0073112D01*
X0126469Y0073112D02*
X0127036Y0073679D01*
X0128170Y0073679D01*
X0128737Y0073112D01*
X0128737Y0072544D01*
X0128170Y0071977D01*
X0128737Y0071410D01*
X0128737Y0070843D01*
X0128170Y0070276D01*
X0127036Y0070276D01*
X0126469Y0070843D01*
X0127603Y0071977D02*
X0128170Y0071977D01*
X0127823Y0069068D02*
X0128958Y0069068D01*
X0129525Y0068501D01*
X0129525Y0067934D01*
X0128958Y0067367D01*
X0127823Y0067367D01*
X0127256Y0067934D01*
X0127256Y0068501D01*
X0127823Y0069068D01*
X0127823Y0067367D02*
X0127256Y0066800D01*
X0127256Y0066233D01*
X0127823Y0065666D01*
X0128958Y0065666D01*
X0129525Y0066233D01*
X0129525Y0066800D01*
X0128958Y0067367D01*
X0100411Y0073907D02*
X0098143Y0073907D01*
X0099844Y0075608D01*
X0099844Y0072205D01*
X0096728Y0072773D02*
X0096728Y0075041D01*
X0094460Y0072773D01*
X0095027Y0072205D01*
X0096161Y0072205D01*
X0096728Y0072773D01*
X0096728Y0075041D02*
X0096161Y0075608D01*
X0095027Y0075608D01*
X0094460Y0075041D01*
X0094460Y0072773D01*
X0093045Y0072205D02*
X0090776Y0072205D01*
X0091911Y0072205D02*
X0091911Y0075608D01*
X0090776Y0074474D01*
X0090963Y0077271D02*
X0092097Y0077271D01*
X0092664Y0077838D01*
X0094079Y0077838D02*
X0094646Y0077271D01*
X0095780Y0077271D01*
X0096348Y0077838D01*
X0096348Y0078972D01*
X0095780Y0079539D01*
X0095213Y0079539D01*
X0094079Y0078972D01*
X0094079Y0080674D01*
X0096348Y0080674D01*
X0092664Y0080106D02*
X0092097Y0080674D01*
X0090963Y0080674D01*
X0090396Y0080106D01*
X0090396Y0077838D01*
X0090963Y0077271D01*
X0081801Y0068285D02*
X0081801Y0066017D01*
X0082369Y0065449D01*
X0082369Y0067718D02*
X0081234Y0067718D01*
X0079820Y0067151D02*
X0079820Y0066584D01*
X0077551Y0066584D01*
X0077551Y0067151D02*
X0078118Y0067718D01*
X0079253Y0067718D01*
X0079820Y0067151D01*
X0079253Y0065449D02*
X0078118Y0065449D01*
X0077551Y0066017D01*
X0077551Y0067151D01*
X0076137Y0067718D02*
X0074435Y0067718D01*
X0073868Y0067151D01*
X0074435Y0066584D01*
X0075569Y0066584D01*
X0076137Y0066017D01*
X0075569Y0065449D01*
X0073868Y0065449D01*
X0072453Y0066584D02*
X0070185Y0066584D01*
X0070185Y0067151D02*
X0070752Y0067718D01*
X0071886Y0067718D01*
X0072453Y0067151D01*
X0072453Y0066584D01*
X0071886Y0065449D02*
X0070752Y0065449D01*
X0070185Y0066017D01*
X0070185Y0067151D01*
X0068770Y0067151D02*
X0068203Y0066584D01*
X0066502Y0066584D01*
X0067636Y0066584D02*
X0068770Y0065449D01*
X0068770Y0067151D02*
X0068770Y0068285D01*
X0068203Y0068852D01*
X0066502Y0068852D01*
X0066502Y0065449D01*
X0063836Y0065584D02*
X0061568Y0065584D01*
X0062702Y0065584D02*
X0062702Y0068987D01*
X0061568Y0067853D01*
X0060153Y0068420D02*
X0059586Y0068987D01*
X0058452Y0068987D01*
X0057885Y0068420D01*
X0057885Y0067853D01*
X0058452Y0067286D01*
X0059586Y0067286D01*
X0060153Y0066719D01*
X0060153Y0066152D01*
X0059586Y0065584D01*
X0058452Y0065584D01*
X0057885Y0066152D01*
X0052739Y0065343D02*
X0051963Y0067474D01*
X0050607Y0064567D01*
X0051334Y0064228D01*
X0052400Y0064616D01*
X0052739Y0065343D01*
X0051963Y0067474D02*
X0051236Y0067813D01*
X0050170Y0067425D01*
X0049831Y0066698D01*
X0050607Y0064567D01*
X0049472Y0063550D02*
X0047340Y0062774D01*
X0048696Y0065682D01*
X0048502Y0066215D01*
X0047775Y0066554D01*
X0046709Y0066166D01*
X0046370Y0065439D01*
X0045041Y0064955D02*
X0045235Y0064422D01*
X0043879Y0061514D01*
X0046011Y0062290D01*
X0042909Y0064179D02*
X0043248Y0064906D01*
X0044314Y0065294D01*
X0045041Y0064955D01*
X0046264Y0067444D02*
X0045100Y0070641D01*
X0046699Y0071223D01*
X0047425Y0070884D01*
X0047813Y0069818D01*
X0047474Y0069092D01*
X0045876Y0068510D01*
X0046942Y0068898D02*
X0048395Y0068220D01*
X0051323Y0069285D02*
X0050160Y0072483D01*
X0049143Y0070302D01*
X0051274Y0071078D01*
X0089656Y0086334D02*
X0089656Y0088035D01*
X0090224Y0088602D01*
X0091358Y0088602D01*
X0091925Y0088035D01*
X0091925Y0086334D01*
X0091925Y0087468D02*
X0093059Y0088602D01*
X0092492Y0090017D02*
X0091358Y0090017D01*
X0091358Y0091718D01*
X0091925Y0092285D01*
X0092492Y0092285D01*
X0093059Y0091718D01*
X0093059Y0090584D01*
X0092492Y0090017D01*
X0091358Y0090017D02*
X0090224Y0091151D01*
X0089656Y0092285D01*
X0094486Y0091763D02*
X0094486Y0090629D01*
X0095053Y0090062D01*
X0097322Y0090062D01*
X0095053Y0092330D01*
X0097322Y0092330D01*
X0097889Y0091763D01*
X0097889Y0090629D01*
X0097322Y0090062D01*
X0097889Y0088647D02*
X0097889Y0086379D01*
X0097889Y0087513D02*
X0094486Y0087513D01*
X0095620Y0086379D01*
X0093059Y0086334D02*
X0089656Y0086334D01*
X0094486Y0091763D02*
X0095053Y0092330D01*
X0094486Y0093745D02*
X0097889Y0093745D01*
X0096755Y0093745D02*
X0095620Y0095446D01*
X0096755Y0093745D02*
X0097889Y0095446D01*
X0105851Y0118044D02*
X0108120Y0118044D01*
X0106985Y0118044D02*
X0106985Y0121447D01*
X0105851Y0120313D01*
X0106169Y0122709D02*
X0108438Y0122709D01*
X0107304Y0122709D02*
X0107304Y0126112D01*
X0106169Y0124978D01*
X0104755Y0125545D02*
X0104755Y0124411D01*
X0104188Y0123844D01*
X0102486Y0123844D01*
X0103621Y0123844D02*
X0104755Y0122709D01*
X0102486Y0122709D02*
X0102486Y0126112D01*
X0104188Y0126112D01*
X0104755Y0125545D01*
X0109853Y0125545D02*
X0109853Y0123277D01*
X0112121Y0125545D01*
X0112121Y0123277D01*
X0111554Y0122709D01*
X0110420Y0122709D01*
X0109853Y0123277D01*
X0109534Y0121447D02*
X0110668Y0120313D01*
X0111803Y0121447D01*
X0111803Y0118044D01*
X0109534Y0118044D02*
X0109534Y0121447D01*
X0109853Y0125545D02*
X0110420Y0126112D01*
X0111554Y0126112D01*
X0112121Y0125545D01*
X0128858Y0127712D02*
X0128858Y0129413D01*
X0129425Y0129980D01*
X0130559Y0129980D01*
X0131126Y0129413D01*
X0131126Y0127712D01*
X0131126Y0128846D02*
X0132261Y0129980D01*
X0132261Y0131395D02*
X0132261Y0133664D01*
X0132261Y0132529D02*
X0128858Y0132529D01*
X0129992Y0131395D01*
X0130559Y0135078D02*
X0128858Y0135078D01*
X0128858Y0137347D01*
X0129992Y0136780D02*
X0129992Y0136212D01*
X0130559Y0135078D01*
X0131694Y0135078D02*
X0132261Y0135645D01*
X0132261Y0136780D01*
X0131694Y0137347D01*
X0130559Y0137347D01*
X0129992Y0136780D01*
X0129872Y0139528D02*
X0128738Y0140663D01*
X0132141Y0140663D01*
X0132141Y0141797D02*
X0132141Y0139528D01*
X0132141Y0143211D02*
X0128738Y0143211D01*
X0129872Y0144346D01*
X0128738Y0145480D01*
X0132141Y0145480D01*
X0140943Y0145053D02*
X0140943Y0143918D01*
X0141510Y0143351D01*
X0143779Y0143351D01*
X0141510Y0145620D01*
X0143779Y0145620D01*
X0144346Y0145053D01*
X0144346Y0143918D01*
X0143779Y0143351D01*
X0144346Y0141937D02*
X0144346Y0139668D01*
X0142077Y0141937D01*
X0141510Y0141937D01*
X0140943Y0141370D01*
X0140943Y0140235D01*
X0141510Y0139668D01*
X0141510Y0138254D02*
X0140943Y0137686D01*
X0140943Y0136552D01*
X0141510Y0135985D01*
X0141510Y0138254D02*
X0142077Y0138254D01*
X0144346Y0135985D01*
X0144346Y0138254D01*
X0144011Y0133406D02*
X0144578Y0132839D01*
X0144578Y0131705D01*
X0144011Y0131138D01*
X0144578Y0129723D02*
X0143444Y0128589D01*
X0143444Y0129156D02*
X0143444Y0127454D01*
X0144578Y0127454D02*
X0141175Y0127454D01*
X0141175Y0129156D01*
X0141742Y0129723D01*
X0142876Y0129723D01*
X0143444Y0129156D01*
X0141742Y0131138D02*
X0141175Y0131705D01*
X0141175Y0132839D01*
X0141742Y0133406D01*
X0142309Y0133406D01*
X0142876Y0132839D01*
X0143444Y0133406D01*
X0144011Y0133406D01*
X0142876Y0132839D02*
X0142876Y0132272D01*
X0132261Y0127712D02*
X0128858Y0127712D01*
X0140943Y0145053D02*
X0141510Y0145620D01*
X0164893Y0160830D02*
X0165460Y0160263D01*
X0166594Y0160263D01*
X0167161Y0160830D01*
X0168576Y0160263D02*
X0170844Y0160263D01*
X0169710Y0160263D02*
X0169710Y0163666D01*
X0168576Y0162531D01*
X0167161Y0163098D02*
X0166594Y0163666D01*
X0165460Y0163666D01*
X0164893Y0163098D01*
X0164893Y0160830D01*
X0172259Y0160830D02*
X0172826Y0160263D01*
X0173960Y0160263D01*
X0174527Y0160830D01*
X0174527Y0161397D01*
X0173960Y0161964D01*
X0173393Y0161964D01*
X0173960Y0161964D02*
X0174527Y0162531D01*
X0174527Y0163098D01*
X0173960Y0163666D01*
X0172826Y0163666D01*
X0172259Y0163098D01*
X0177365Y0162600D02*
X0178499Y0163734D01*
X0178499Y0160331D01*
X0177365Y0160331D02*
X0179633Y0160331D01*
X0181048Y0160898D02*
X0183316Y0163167D01*
X0183316Y0160898D01*
X0182749Y0160331D01*
X0181615Y0160331D01*
X0181048Y0160898D01*
X0181048Y0163167D01*
X0181615Y0163734D01*
X0182749Y0163734D01*
X0183316Y0163167D01*
X0184731Y0162033D02*
X0186432Y0163734D01*
X0186432Y0160331D01*
X0187000Y0162033D02*
X0184731Y0162033D01*
X0189042Y0158195D02*
X0179042Y0158195D01*
X0179042Y0118195D01*
X0189042Y0118195D01*
X0189042Y0158195D01*
X0195042Y0158195D01*
X0195044Y0158069D01*
X0195050Y0157944D01*
X0195060Y0157819D01*
X0195074Y0157694D01*
X0195091Y0157569D01*
X0195113Y0157445D01*
X0195138Y0157322D01*
X0195168Y0157200D01*
X0195201Y0157079D01*
X0195238Y0156959D01*
X0195278Y0156840D01*
X0195323Y0156723D01*
X0195371Y0156606D01*
X0195423Y0156492D01*
X0195478Y0156379D01*
X0195537Y0156268D01*
X0195599Y0156159D01*
X0195665Y0156052D01*
X0195734Y0155947D01*
X0195806Y0155844D01*
X0195881Y0155743D01*
X0195960Y0155645D01*
X0196042Y0155550D01*
X0196126Y0155457D01*
X0196214Y0155367D01*
X0196304Y0155279D01*
X0196397Y0155195D01*
X0196492Y0155113D01*
X0196590Y0155034D01*
X0196691Y0154959D01*
X0196794Y0154887D01*
X0196899Y0154818D01*
X0197006Y0154752D01*
X0197115Y0154690D01*
X0197226Y0154631D01*
X0197339Y0154576D01*
X0197453Y0154524D01*
X0197570Y0154476D01*
X0197687Y0154431D01*
X0197806Y0154391D01*
X0197926Y0154354D01*
X0198047Y0154321D01*
X0198169Y0154291D01*
X0198292Y0154266D01*
X0198416Y0154244D01*
X0198541Y0154227D01*
X0198666Y0154213D01*
X0198791Y0154203D01*
X0198916Y0154197D01*
X0199042Y0154195D01*
X0199168Y0154197D01*
X0199293Y0154203D01*
X0199418Y0154213D01*
X0199543Y0154227D01*
X0199668Y0154244D01*
X0199792Y0154266D01*
X0199915Y0154291D01*
X0200037Y0154321D01*
X0200158Y0154354D01*
X0200278Y0154391D01*
X0200397Y0154431D01*
X0200514Y0154476D01*
X0200631Y0154524D01*
X0200745Y0154576D01*
X0200858Y0154631D01*
X0200969Y0154690D01*
X0201078Y0154752D01*
X0201185Y0154818D01*
X0201290Y0154887D01*
X0201393Y0154959D01*
X0201494Y0155034D01*
X0201592Y0155113D01*
X0201687Y0155195D01*
X0201780Y0155279D01*
X0201870Y0155367D01*
X0201958Y0155457D01*
X0202042Y0155550D01*
X0202124Y0155645D01*
X0202203Y0155743D01*
X0202278Y0155844D01*
X0202350Y0155947D01*
X0202419Y0156052D01*
X0202485Y0156159D01*
X0202547Y0156268D01*
X0202606Y0156379D01*
X0202661Y0156492D01*
X0202713Y0156606D01*
X0202761Y0156723D01*
X0202806Y0156840D01*
X0202846Y0156959D01*
X0202883Y0157079D01*
X0202916Y0157200D01*
X0202946Y0157322D01*
X0202971Y0157445D01*
X0202993Y0157569D01*
X0203010Y0157694D01*
X0203024Y0157819D01*
X0203034Y0157944D01*
X0203040Y0158069D01*
X0203042Y0158195D01*
X0209042Y0158195D02*
X0209042Y0118195D01*
X0189042Y0118195D01*
X0176744Y0119461D02*
X0174475Y0119461D01*
X0175609Y0119461D02*
X0175609Y0122864D01*
X0174475Y0121730D01*
X0173061Y0122297D02*
X0172493Y0122864D01*
X0170792Y0122864D01*
X0170792Y0119461D01*
X0172493Y0119461D01*
X0173061Y0120028D01*
X0173061Y0122297D01*
X0209042Y0118195D02*
X0219042Y0118195D01*
X0219042Y0158195D01*
X0209042Y0158195D01*
X0222279Y0152944D02*
X0222846Y0152377D01*
X0223413Y0152377D01*
X0223981Y0152944D01*
X0223981Y0155780D01*
X0224548Y0155780D02*
X0223413Y0155780D01*
X0225962Y0154646D02*
X0227097Y0155780D01*
X0227097Y0152377D01*
X0228231Y0152377D02*
X0225962Y0152377D01*
X0201864Y0151241D02*
X0201864Y0148972D01*
X0199596Y0151241D01*
X0199028Y0151241D01*
X0198461Y0150674D01*
X0198461Y0149540D01*
X0199028Y0148972D01*
X0198461Y0147558D02*
X0201297Y0147558D01*
X0201864Y0146991D01*
X0201864Y0145856D01*
X0201297Y0145289D01*
X0198461Y0145289D01*
X0262646Y0138572D02*
X0262646Y0135169D01*
X0262646Y0136303D02*
X0264348Y0136303D01*
X0264915Y0136871D01*
X0264915Y0138005D01*
X0264348Y0138572D01*
X0262646Y0138572D01*
X0266330Y0137438D02*
X0267464Y0138572D01*
X0267464Y0135169D01*
X0266330Y0135169D02*
X0268598Y0135169D01*
X0270013Y0136871D02*
X0272281Y0136871D01*
X0271714Y0135169D02*
X0271714Y0138572D01*
X0270013Y0136871D01*
X0264915Y0135169D02*
X0263781Y0136303D01*
X0278020Y0135359D02*
X0280289Y0135359D01*
X0279155Y0135359D02*
X0279155Y0138762D01*
X0278020Y0137627D01*
X0281704Y0138762D02*
X0281704Y0135359D01*
X0283972Y0135359D02*
X0283972Y0138762D01*
X0282838Y0137627D01*
X0281704Y0138762D01*
X0180769Y0098702D02*
X0180769Y0095299D01*
X0179635Y0095299D02*
X0181903Y0095299D01*
X0179635Y0097568D02*
X0180769Y0098702D01*
X0178220Y0098702D02*
X0178220Y0095866D01*
X0177653Y0095299D01*
X0176519Y0095299D01*
X0175951Y0095866D01*
X0175951Y0098702D01*
X0169609Y0067962D02*
X0168475Y0067962D01*
X0167908Y0067395D01*
X0169609Y0067962D02*
X0170177Y0067395D01*
X0170177Y0066828D01*
X0167908Y0064559D01*
X0170177Y0064559D01*
X0169076Y0063123D02*
X0169643Y0062556D01*
X0169643Y0061989D01*
X0169076Y0061422D01*
X0167942Y0061422D01*
X0167374Y0061989D01*
X0167374Y0062556D01*
X0167942Y0063123D01*
X0169076Y0063123D01*
X0169076Y0061422D02*
X0169643Y0060855D01*
X0169643Y0060288D01*
X0169076Y0059720D01*
X0167942Y0059720D01*
X0167374Y0060288D01*
X0167374Y0060855D01*
X0167942Y0061422D01*
X0165960Y0060855D02*
X0165960Y0060288D01*
X0165393Y0059720D01*
X0164258Y0059720D01*
X0163691Y0060288D01*
X0163691Y0061422D01*
X0165393Y0061422D01*
X0165960Y0060855D01*
X0164826Y0062556D02*
X0163691Y0061422D01*
X0164826Y0062556D02*
X0165960Y0063123D01*
X0166493Y0064559D02*
X0164225Y0064559D01*
X0165359Y0064559D02*
X0165359Y0067962D01*
X0164225Y0066828D01*
X0162810Y0067395D02*
X0162810Y0066260D01*
X0162243Y0065693D01*
X0160542Y0065693D01*
X0161676Y0065693D02*
X0162810Y0064559D01*
X0160542Y0064559D02*
X0160542Y0067962D01*
X0162243Y0067962D01*
X0162810Y0067395D01*
X0044252Y0048591D02*
X0042120Y0047815D01*
X0043137Y0049996D01*
X0044301Y0046798D01*
X0041179Y0046265D02*
X0040403Y0048397D01*
X0039676Y0048736D01*
X0038077Y0048154D01*
X0039241Y0044956D01*
X0040840Y0045538D01*
X0041179Y0046265D01*
X0339737Y0079863D02*
X0339737Y0080997D01*
X0339737Y0080430D02*
X0342573Y0080430D01*
X0343140Y0079863D01*
X0343140Y0079296D01*
X0342573Y0078729D01*
X0342006Y0082412D02*
X0342006Y0084113D01*
X0341439Y0084680D01*
X0340304Y0084680D01*
X0339737Y0084113D01*
X0339737Y0082412D01*
X0343140Y0082412D01*
X0342573Y0086095D02*
X0343140Y0086662D01*
X0343140Y0087796D01*
X0342573Y0088364D01*
X0342006Y0088364D01*
X0341439Y0087796D01*
X0341439Y0087229D01*
X0341439Y0087796D02*
X0340872Y0088364D01*
X0340304Y0088364D01*
X0339737Y0087796D01*
X0339737Y0086662D01*
X0340304Y0086095D01*
D15*
X0330900Y0083140D02*
X0329845Y0083140D01*
X0320900Y0083140D02*
X0319845Y0083140D01*
X0317124Y0077140D02*
X0333620Y0077140D01*
X0325339Y0102632D02*
X0324438Y0102632D01*
X0323988Y0103082D01*
X0325789Y0104884D01*
X0325789Y0103082D01*
X0325339Y0102632D01*
X0323988Y0103082D02*
X0323988Y0104884D01*
X0324438Y0105334D01*
X0325339Y0105334D01*
X0325789Y0104884D01*
X0325818Y0106109D02*
X0324017Y0106109D01*
X0324918Y0106109D02*
X0324918Y0108811D01*
X0324017Y0107910D01*
X0322872Y0107460D02*
X0322421Y0107010D01*
X0321070Y0107010D01*
X0321971Y0107010D02*
X0322872Y0106109D01*
X0321942Y0105334D02*
X0321942Y0102632D01*
X0321041Y0102632D02*
X0322843Y0102632D01*
X0321041Y0104433D02*
X0321942Y0105334D01*
X0321070Y0106109D02*
X0321070Y0108811D01*
X0322421Y0108811D01*
X0322872Y0108361D01*
X0322872Y0107460D01*
X0332326Y0123212D02*
X0333678Y0123212D01*
X0334128Y0123662D01*
X0334128Y0125464D01*
X0333678Y0125914D01*
X0332326Y0125914D01*
X0332326Y0123212D01*
X0335273Y0123662D02*
X0335723Y0123212D01*
X0336624Y0123212D01*
X0337074Y0123662D01*
X0337074Y0124113D01*
X0336624Y0124563D01*
X0336174Y0124563D01*
X0336624Y0124563D02*
X0337074Y0125014D01*
X0337074Y0125464D01*
X0336624Y0125914D01*
X0335723Y0125914D01*
X0335273Y0125464D01*
X0157996Y0063854D02*
X0157996Y0027634D01*
X0127681Y0027634D01*
X0127681Y0063854D01*
X0157996Y0063854D01*
X0097566Y0101109D02*
X0097566Y0102910D01*
X0097566Y0102009D02*
X0094864Y0102009D01*
X0095764Y0101109D01*
X0094864Y0104055D02*
X0095764Y0104956D01*
X0094864Y0105857D01*
X0097566Y0105857D01*
X0097566Y0104055D02*
X0094864Y0104055D01*
X0094919Y0108238D02*
X0094919Y0109590D01*
X0095369Y0110040D01*
X0096270Y0110040D01*
X0096720Y0109590D01*
X0096720Y0108238D01*
X0097621Y0108238D02*
X0094919Y0108238D01*
X0096720Y0109139D02*
X0097621Y0110040D01*
X0097171Y0111185D02*
X0097621Y0111635D01*
X0097621Y0112536D01*
X0097171Y0112987D01*
X0095369Y0112987D01*
X0094919Y0112536D01*
X0094919Y0111635D01*
X0095369Y0111185D01*
X0095820Y0111185D01*
X0096270Y0111635D01*
X0096270Y0112987D01*
D16*
X0162967Y0118968D02*
X0162967Y0119868D01*
X0162967Y0119867D02*
X0163150Y0119871D01*
X0163333Y0119878D01*
X0163516Y0119891D01*
X0163699Y0119908D01*
X0163881Y0119929D01*
X0164062Y0119954D01*
X0164243Y0119984D01*
X0164423Y0120019D01*
X0164602Y0120057D01*
X0164780Y0120100D01*
X0164957Y0120148D01*
X0165132Y0120199D01*
X0165307Y0120255D01*
X0165480Y0120315D01*
X0165651Y0120380D01*
X0165821Y0120448D01*
X0165990Y0120520D01*
X0166156Y0120597D01*
X0166320Y0120678D01*
X0166483Y0120762D01*
X0166643Y0120851D01*
X0166802Y0120943D01*
X0166958Y0121039D01*
X0167111Y0121139D01*
X0167262Y0121243D01*
X0167411Y0121350D01*
X0167557Y0121461D01*
X0167700Y0121575D01*
X0167840Y0121693D01*
X0167977Y0121814D01*
X0168112Y0121938D01*
X0168243Y0122066D01*
X0168372Y0122197D01*
X0168497Y0122331D01*
X0168618Y0122467D01*
X0168737Y0122607D01*
X0168852Y0122750D01*
X0168963Y0122895D01*
X0169071Y0123043D01*
X0169175Y0123194D01*
X0169276Y0123347D01*
X0169373Y0123502D01*
X0169466Y0123660D01*
X0169555Y0123820D01*
X0170349Y0123397D01*
X0170249Y0123217D01*
X0170145Y0123040D01*
X0170037Y0122866D01*
X0169924Y0122694D01*
X0169807Y0122526D01*
X0169686Y0122360D01*
X0169562Y0122197D01*
X0169433Y0122037D01*
X0169300Y0121880D01*
X0169164Y0121727D01*
X0169024Y0121577D01*
X0168880Y0121430D01*
X0168733Y0121287D01*
X0168582Y0121147D01*
X0168428Y0121012D01*
X0168271Y0120880D01*
X0168111Y0120752D01*
X0167947Y0120627D01*
X0167781Y0120507D01*
X0167611Y0120391D01*
X0167439Y0120279D01*
X0167265Y0120171D01*
X0167087Y0120068D01*
X0166908Y0119969D01*
X0166725Y0119874D01*
X0166541Y0119784D01*
X0166355Y0119698D01*
X0166166Y0119617D01*
X0165976Y0119540D01*
X0165783Y0119468D01*
X0165589Y0119401D01*
X0165394Y0119338D01*
X0165197Y0119280D01*
X0164999Y0119227D01*
X0164799Y0119179D01*
X0164598Y0119136D01*
X0164397Y0119098D01*
X0164194Y0119064D01*
X0163991Y0119036D01*
X0163787Y0119012D01*
X0163582Y0118993D01*
X0163378Y0118980D01*
X0163173Y0118971D01*
X0162967Y0118967D01*
X0162967Y0119061D01*
X0163170Y0119065D01*
X0163373Y0119073D01*
X0163576Y0119087D01*
X0163778Y0119105D01*
X0163979Y0119129D01*
X0164180Y0119157D01*
X0164381Y0119190D01*
X0164580Y0119228D01*
X0164778Y0119271D01*
X0164976Y0119319D01*
X0165172Y0119371D01*
X0165367Y0119428D01*
X0165560Y0119490D01*
X0165752Y0119557D01*
X0165942Y0119628D01*
X0166130Y0119703D01*
X0166316Y0119784D01*
X0166501Y0119869D01*
X0166683Y0119958D01*
X0166863Y0120052D01*
X0167041Y0120150D01*
X0167216Y0120252D01*
X0167389Y0120358D01*
X0167559Y0120469D01*
X0167727Y0120584D01*
X0167891Y0120703D01*
X0168053Y0120826D01*
X0168211Y0120952D01*
X0168367Y0121083D01*
X0168519Y0121217D01*
X0168668Y0121355D01*
X0168814Y0121496D01*
X0168956Y0121641D01*
X0169094Y0121790D01*
X0169229Y0121941D01*
X0169360Y0122096D01*
X0169487Y0122254D01*
X0169611Y0122416D01*
X0169730Y0122580D01*
X0169846Y0122747D01*
X0169957Y0122916D01*
X0170065Y0123089D01*
X0170168Y0123264D01*
X0170266Y0123441D01*
X0170183Y0123485D01*
X0170086Y0123310D01*
X0169984Y0123137D01*
X0169878Y0122967D01*
X0169768Y0122799D01*
X0169654Y0122634D01*
X0169535Y0122472D01*
X0169413Y0122312D01*
X0169287Y0122156D01*
X0169158Y0122003D01*
X0169024Y0121853D01*
X0168888Y0121706D01*
X0168747Y0121563D01*
X0168603Y0121423D01*
X0168456Y0121287D01*
X0168305Y0121154D01*
X0168152Y0121025D01*
X0167995Y0120900D01*
X0167835Y0120778D01*
X0167672Y0120661D01*
X0167507Y0120547D01*
X0167339Y0120438D01*
X0167168Y0120332D01*
X0166995Y0120231D01*
X0166819Y0120134D01*
X0166641Y0120042D01*
X0166461Y0119954D01*
X0166278Y0119870D01*
X0166094Y0119790D01*
X0165908Y0119715D01*
X0165720Y0119645D01*
X0165530Y0119579D01*
X0165339Y0119518D01*
X0165147Y0119462D01*
X0164953Y0119410D01*
X0164758Y0119363D01*
X0164562Y0119320D01*
X0164364Y0119283D01*
X0164166Y0119250D01*
X0163968Y0119222D01*
X0163768Y0119199D01*
X0163569Y0119181D01*
X0163368Y0119167D01*
X0163168Y0119159D01*
X0162967Y0119155D01*
X0162967Y0119249D01*
X0163166Y0119253D01*
X0163364Y0119261D01*
X0163562Y0119274D01*
X0163759Y0119293D01*
X0163956Y0119315D01*
X0164153Y0119343D01*
X0164348Y0119375D01*
X0164543Y0119413D01*
X0164737Y0119454D01*
X0164930Y0119501D01*
X0165122Y0119552D01*
X0165312Y0119608D01*
X0165501Y0119668D01*
X0165688Y0119733D01*
X0165874Y0119803D01*
X0166058Y0119877D01*
X0166240Y0119956D01*
X0166420Y0120039D01*
X0166599Y0120126D01*
X0166775Y0120217D01*
X0166948Y0120313D01*
X0167120Y0120413D01*
X0167288Y0120517D01*
X0167455Y0120625D01*
X0167618Y0120738D01*
X0167779Y0120854D01*
X0167937Y0120974D01*
X0168092Y0121098D01*
X0168244Y0121225D01*
X0168393Y0121356D01*
X0168538Y0121491D01*
X0168681Y0121629D01*
X0168819Y0121771D01*
X0168955Y0121916D01*
X0169087Y0122064D01*
X0169215Y0122216D01*
X0169339Y0122370D01*
X0169460Y0122527D01*
X0169577Y0122688D01*
X0169690Y0122851D01*
X0169798Y0123017D01*
X0169903Y0123185D01*
X0170004Y0123356D01*
X0170100Y0123529D01*
X0170018Y0123574D01*
X0169922Y0123402D01*
X0169823Y0123233D01*
X0169719Y0123067D01*
X0169611Y0122903D01*
X0169500Y0122742D01*
X0169384Y0122583D01*
X0169265Y0122428D01*
X0169142Y0122275D01*
X0169015Y0122126D01*
X0168885Y0121979D01*
X0168751Y0121836D01*
X0168614Y0121696D01*
X0168473Y0121559D01*
X0168330Y0121426D01*
X0168183Y0121296D01*
X0168032Y0121170D01*
X0167879Y0121048D01*
X0167723Y0120929D01*
X0167564Y0120814D01*
X0167402Y0120704D01*
X0167238Y0120597D01*
X0167071Y0120494D01*
X0166902Y0120395D01*
X0166730Y0120300D01*
X0166556Y0120210D01*
X0166380Y0120123D01*
X0166202Y0120042D01*
X0166022Y0119964D01*
X0165840Y0119891D01*
X0165657Y0119822D01*
X0165471Y0119758D01*
X0165285Y0119698D01*
X0165097Y0119643D01*
X0164907Y0119592D01*
X0164717Y0119546D01*
X0164525Y0119505D01*
X0164332Y0119468D01*
X0164139Y0119436D01*
X0163945Y0119409D01*
X0163750Y0119386D01*
X0163555Y0119368D01*
X0163359Y0119355D01*
X0163163Y0119347D01*
X0162967Y0119343D01*
X0162967Y0119437D01*
X0163161Y0119441D01*
X0163355Y0119449D01*
X0163548Y0119462D01*
X0163741Y0119480D01*
X0163933Y0119502D01*
X0164125Y0119529D01*
X0164316Y0119561D01*
X0164507Y0119597D01*
X0164696Y0119638D01*
X0164884Y0119683D01*
X0165071Y0119733D01*
X0165257Y0119788D01*
X0165442Y0119847D01*
X0165625Y0119910D01*
X0165806Y0119978D01*
X0165986Y0120051D01*
X0166164Y0120127D01*
X0166340Y0120208D01*
X0166514Y0120294D01*
X0166686Y0120383D01*
X0166856Y0120477D01*
X0167023Y0120574D01*
X0167188Y0120676D01*
X0167350Y0120782D01*
X0167510Y0120891D01*
X0167667Y0121005D01*
X0167821Y0121122D01*
X0167973Y0121243D01*
X0168121Y0121367D01*
X0168266Y0121495D01*
X0168409Y0121627D01*
X0168548Y0121762D01*
X0168683Y0121900D01*
X0168815Y0122042D01*
X0168944Y0122187D01*
X0169069Y0122335D01*
X0169191Y0122486D01*
X0169309Y0122639D01*
X0169423Y0122796D01*
X0169533Y0122955D01*
X0169639Y0123117D01*
X0169742Y0123282D01*
X0169840Y0123449D01*
X0169935Y0123618D01*
X0169852Y0123662D01*
X0169758Y0123495D01*
X0169661Y0123330D01*
X0169560Y0123167D01*
X0169455Y0123007D01*
X0169346Y0122850D01*
X0169233Y0122695D01*
X0169117Y0122543D01*
X0168997Y0122394D01*
X0168873Y0122248D01*
X0168746Y0122105D01*
X0168615Y0121965D01*
X0168481Y0121829D01*
X0168344Y0121695D01*
X0168203Y0121565D01*
X0168060Y0121438D01*
X0167913Y0121315D01*
X0167763Y0121196D01*
X0167611Y0121080D01*
X0167456Y0120968D01*
X0167298Y0120860D01*
X0167137Y0120755D01*
X0166974Y0120655D01*
X0166809Y0120558D01*
X0166642Y0120466D01*
X0166472Y0120378D01*
X0166300Y0120293D01*
X0166126Y0120213D01*
X0165950Y0120138D01*
X0165772Y0120066D01*
X0165593Y0119999D01*
X0165412Y0119936D01*
X0165230Y0119878D01*
X0165046Y0119824D01*
X0164861Y0119774D01*
X0164675Y0119730D01*
X0164488Y0119689D01*
X0164300Y0119653D01*
X0164111Y0119622D01*
X0163922Y0119595D01*
X0163732Y0119573D01*
X0163541Y0119556D01*
X0163350Y0119543D01*
X0163159Y0119535D01*
X0162967Y0119531D01*
X0162967Y0119625D01*
X0163156Y0119629D01*
X0163345Y0119637D01*
X0163534Y0119649D01*
X0163722Y0119667D01*
X0163910Y0119689D01*
X0164097Y0119715D01*
X0164284Y0119746D01*
X0164470Y0119781D01*
X0164655Y0119821D01*
X0164839Y0119866D01*
X0165021Y0119915D01*
X0165203Y0119968D01*
X0165383Y0120025D01*
X0165561Y0120087D01*
X0165739Y0120154D01*
X0165914Y0120224D01*
X0166088Y0120299D01*
X0166260Y0120378D01*
X0166429Y0120462D01*
X0166597Y0120549D01*
X0166763Y0120640D01*
X0166926Y0120736D01*
X0167087Y0120835D01*
X0167246Y0120938D01*
X0167402Y0121045D01*
X0167555Y0121156D01*
X0167706Y0121270D01*
X0167853Y0121388D01*
X0167998Y0121510D01*
X0168140Y0121635D01*
X0168279Y0121763D01*
X0168414Y0121895D01*
X0168547Y0122030D01*
X0168676Y0122168D01*
X0168802Y0122310D01*
X0168924Y0122454D01*
X0169043Y0122601D01*
X0169158Y0122751D01*
X0169269Y0122904D01*
X0169377Y0123060D01*
X0169481Y0123218D01*
X0169581Y0123378D01*
X0169677Y0123541D01*
X0169769Y0123706D01*
X0169686Y0123751D01*
X0169595Y0123587D01*
X0169500Y0123426D01*
X0169401Y0123268D01*
X0169299Y0123112D01*
X0169192Y0122958D01*
X0169082Y0122807D01*
X0168968Y0122659D01*
X0168851Y0122513D01*
X0168730Y0122371D01*
X0168606Y0122231D01*
X0168479Y0122095D01*
X0168348Y0121961D01*
X0168214Y0121831D01*
X0168077Y0121704D01*
X0167937Y0121581D01*
X0167794Y0121461D01*
X0167648Y0121344D01*
X0167499Y0121231D01*
X0167347Y0121122D01*
X0167193Y0121016D01*
X0167037Y0120914D01*
X0166878Y0120816D01*
X0166716Y0120722D01*
X0166553Y0120632D01*
X0166387Y0120545D01*
X0166219Y0120463D01*
X0166050Y0120385D01*
X0165878Y0120311D01*
X0165705Y0120242D01*
X0165530Y0120176D01*
X0165353Y0120115D01*
X0165175Y0120058D01*
X0164996Y0120005D01*
X0164816Y0119957D01*
X0164634Y0119913D01*
X0164451Y0119873D01*
X0164268Y0119838D01*
X0164084Y0119808D01*
X0163899Y0119782D01*
X0163713Y0119760D01*
X0163527Y0119743D01*
X0163341Y0119731D01*
X0163154Y0119723D01*
X0162967Y0119719D01*
X0162967Y0119813D01*
X0163152Y0119817D01*
X0163336Y0119825D01*
X0163520Y0119837D01*
X0163704Y0119854D01*
X0163887Y0119875D01*
X0164070Y0119901D01*
X0164252Y0119931D01*
X0164433Y0119966D01*
X0164613Y0120005D01*
X0164793Y0120048D01*
X0164971Y0120096D01*
X0165148Y0120148D01*
X0165324Y0120204D01*
X0165498Y0120264D01*
X0165671Y0120329D01*
X0165842Y0120398D01*
X0166011Y0120471D01*
X0166179Y0120548D01*
X0166345Y0120629D01*
X0166508Y0120715D01*
X0166670Y0120804D01*
X0166829Y0120897D01*
X0166986Y0120994D01*
X0167141Y0121094D01*
X0167293Y0121199D01*
X0167443Y0121307D01*
X0167590Y0121418D01*
X0167734Y0121533D01*
X0167875Y0121652D01*
X0168014Y0121774D01*
X0168149Y0121899D01*
X0168281Y0122028D01*
X0168411Y0122160D01*
X0168537Y0122294D01*
X0168659Y0122432D01*
X0168778Y0122573D01*
X0168894Y0122717D01*
X0169007Y0122863D01*
X0169115Y0123012D01*
X0169220Y0123164D01*
X0169322Y0123318D01*
X0169419Y0123475D01*
X0169513Y0123634D01*
X0169603Y0123795D01*
X0170229Y0131652D02*
X0169448Y0131206D01*
X0169355Y0131363D01*
X0169258Y0131517D01*
X0169157Y0131669D01*
X0169052Y0131818D01*
X0168944Y0131965D01*
X0168833Y0132110D01*
X0168718Y0132251D01*
X0168599Y0132390D01*
X0168477Y0132525D01*
X0168352Y0132658D01*
X0168224Y0132788D01*
X0168093Y0132914D01*
X0167959Y0133038D01*
X0167822Y0133158D01*
X0167682Y0133275D01*
X0167539Y0133388D01*
X0167393Y0133498D01*
X0167245Y0133604D01*
X0167094Y0133707D01*
X0166941Y0133806D01*
X0166786Y0133901D01*
X0166628Y0133992D01*
X0166468Y0134080D01*
X0166306Y0134164D01*
X0166143Y0134244D01*
X0165977Y0134320D01*
X0165809Y0134391D01*
X0165640Y0134459D01*
X0165469Y0134523D01*
X0165297Y0134582D01*
X0165123Y0134638D01*
X0164948Y0134689D01*
X0164772Y0134736D01*
X0164595Y0134778D01*
X0164416Y0134817D01*
X0164237Y0134851D01*
X0164057Y0134881D01*
X0163877Y0134906D01*
X0163696Y0134927D01*
X0163514Y0134943D01*
X0163332Y0134956D01*
X0163150Y0134963D01*
X0162968Y0134967D01*
X0162967Y0135866D01*
X0162968Y0135867D01*
X0163172Y0135863D01*
X0163376Y0135855D01*
X0163580Y0135841D01*
X0163784Y0135823D01*
X0163987Y0135799D01*
X0164189Y0135771D01*
X0164391Y0135738D01*
X0164591Y0135700D01*
X0164791Y0135657D01*
X0164990Y0135609D01*
X0165187Y0135557D01*
X0165383Y0135499D01*
X0165578Y0135437D01*
X0165771Y0135371D01*
X0165963Y0135299D01*
X0166152Y0135223D01*
X0166340Y0135143D01*
X0166526Y0135058D01*
X0166710Y0134968D01*
X0166891Y0134875D01*
X0167070Y0134776D01*
X0167247Y0134674D01*
X0167421Y0134567D01*
X0167593Y0134456D01*
X0167762Y0134341D01*
X0167928Y0134222D01*
X0168091Y0134099D01*
X0168251Y0133972D01*
X0168408Y0133841D01*
X0168562Y0133706D01*
X0168712Y0133568D01*
X0168859Y0133426D01*
X0169003Y0133281D01*
X0169143Y0133132D01*
X0169279Y0132980D01*
X0169412Y0132824D01*
X0169540Y0132666D01*
X0169665Y0132504D01*
X0169786Y0132339D01*
X0169903Y0132172D01*
X0170016Y0132001D01*
X0170125Y0131828D01*
X0170230Y0131653D01*
X0170148Y0131606D01*
X0170045Y0131780D01*
X0169937Y0131951D01*
X0169825Y0132119D01*
X0169710Y0132285D01*
X0169590Y0132448D01*
X0169466Y0132607D01*
X0169339Y0132764D01*
X0169208Y0132918D01*
X0169073Y0133068D01*
X0168935Y0133216D01*
X0168793Y0133359D01*
X0168647Y0133500D01*
X0168499Y0133636D01*
X0168347Y0133769D01*
X0168191Y0133899D01*
X0168033Y0134024D01*
X0167872Y0134146D01*
X0167708Y0134264D01*
X0167541Y0134378D01*
X0167371Y0134487D01*
X0167199Y0134593D01*
X0167024Y0134694D01*
X0166847Y0134792D01*
X0166668Y0134884D01*
X0166486Y0134973D01*
X0166302Y0135057D01*
X0166117Y0135137D01*
X0165929Y0135212D01*
X0165740Y0135282D01*
X0165549Y0135348D01*
X0165356Y0135409D01*
X0165162Y0135466D01*
X0164967Y0135518D01*
X0164771Y0135565D01*
X0164573Y0135607D01*
X0164375Y0135645D01*
X0164175Y0135678D01*
X0163975Y0135706D01*
X0163774Y0135729D01*
X0163573Y0135747D01*
X0163372Y0135761D01*
X0163170Y0135769D01*
X0162968Y0135773D01*
X0162968Y0135679D01*
X0163167Y0135675D01*
X0163367Y0135667D01*
X0163566Y0135654D01*
X0163765Y0135635D01*
X0163964Y0135613D01*
X0164161Y0135585D01*
X0164359Y0135552D01*
X0164555Y0135515D01*
X0164750Y0135473D01*
X0164944Y0135427D01*
X0165137Y0135375D01*
X0165329Y0135319D01*
X0165519Y0135259D01*
X0165708Y0135194D01*
X0165895Y0135124D01*
X0166081Y0135050D01*
X0166264Y0134971D01*
X0166446Y0134888D01*
X0166626Y0134800D01*
X0166803Y0134709D01*
X0166978Y0134613D01*
X0167151Y0134512D01*
X0167321Y0134408D01*
X0167489Y0134299D01*
X0167654Y0134187D01*
X0167816Y0134071D01*
X0167975Y0133950D01*
X0168132Y0133826D01*
X0168285Y0133698D01*
X0168436Y0133567D01*
X0168583Y0133431D01*
X0168726Y0133293D01*
X0168867Y0133151D01*
X0169004Y0133005D01*
X0169137Y0132856D01*
X0169267Y0132704D01*
X0169393Y0132549D01*
X0169515Y0132391D01*
X0169633Y0132230D01*
X0169747Y0132067D01*
X0169858Y0131900D01*
X0169964Y0131731D01*
X0170066Y0131560D01*
X0169985Y0131513D01*
X0169884Y0131683D01*
X0169779Y0131850D01*
X0169669Y0132014D01*
X0169556Y0132176D01*
X0169439Y0132335D01*
X0169319Y0132491D01*
X0169194Y0132645D01*
X0169066Y0132795D01*
X0168934Y0132942D01*
X0168799Y0133086D01*
X0168660Y0133226D01*
X0168518Y0133363D01*
X0168373Y0133497D01*
X0168224Y0133627D01*
X0168072Y0133753D01*
X0167918Y0133876D01*
X0167760Y0133995D01*
X0167600Y0134110D01*
X0167437Y0134221D01*
X0167271Y0134328D01*
X0167103Y0134432D01*
X0166932Y0134531D01*
X0166759Y0134626D01*
X0166583Y0134716D01*
X0166406Y0134803D01*
X0166226Y0134885D01*
X0166045Y0134963D01*
X0165862Y0135036D01*
X0165677Y0135105D01*
X0165490Y0135169D01*
X0165302Y0135229D01*
X0165112Y0135285D01*
X0164922Y0135335D01*
X0164730Y0135382D01*
X0164537Y0135423D01*
X0164343Y0135460D01*
X0164148Y0135492D01*
X0163952Y0135519D01*
X0163756Y0135542D01*
X0163559Y0135560D01*
X0163362Y0135573D01*
X0163165Y0135581D01*
X0162968Y0135585D01*
X0162968Y0135491D01*
X0163163Y0135487D01*
X0163358Y0135479D01*
X0163553Y0135466D01*
X0163747Y0135448D01*
X0163941Y0135426D01*
X0164134Y0135399D01*
X0164327Y0135367D01*
X0164518Y0135331D01*
X0164709Y0135290D01*
X0164899Y0135244D01*
X0165087Y0135194D01*
X0165275Y0135139D01*
X0165461Y0135080D01*
X0165645Y0135017D01*
X0165828Y0134948D01*
X0166009Y0134876D01*
X0166188Y0134799D01*
X0166366Y0134718D01*
X0166541Y0134632D01*
X0166715Y0134543D01*
X0166886Y0134449D01*
X0167054Y0134351D01*
X0167221Y0134249D01*
X0167385Y0134143D01*
X0167546Y0134033D01*
X0167704Y0133919D01*
X0167860Y0133802D01*
X0168013Y0133680D01*
X0168163Y0133555D01*
X0168310Y0133427D01*
X0168453Y0133295D01*
X0168594Y0133159D01*
X0168731Y0133020D01*
X0168865Y0132878D01*
X0168995Y0132733D01*
X0169122Y0132585D01*
X0169245Y0132433D01*
X0169364Y0132279D01*
X0169480Y0132122D01*
X0169591Y0131962D01*
X0169699Y0131799D01*
X0169803Y0131634D01*
X0169903Y0131466D01*
X0169822Y0131420D01*
X0169723Y0131585D01*
X0169620Y0131749D01*
X0169513Y0131909D01*
X0169403Y0132067D01*
X0169289Y0132223D01*
X0169171Y0132375D01*
X0169049Y0132525D01*
X0168924Y0132671D01*
X0168795Y0132815D01*
X0168663Y0132955D01*
X0168528Y0133093D01*
X0168389Y0133227D01*
X0168247Y0133357D01*
X0168102Y0133484D01*
X0167954Y0133608D01*
X0167803Y0133727D01*
X0167649Y0133844D01*
X0167492Y0133956D01*
X0167333Y0134065D01*
X0167171Y0134169D01*
X0167006Y0134270D01*
X0166840Y0134367D01*
X0166670Y0134460D01*
X0166499Y0134548D01*
X0166326Y0134633D01*
X0166150Y0134713D01*
X0165973Y0134789D01*
X0165794Y0134861D01*
X0165613Y0134928D01*
X0165431Y0134991D01*
X0165247Y0135049D01*
X0165062Y0135103D01*
X0164876Y0135153D01*
X0164688Y0135198D01*
X0164500Y0135239D01*
X0164311Y0135275D01*
X0164120Y0135306D01*
X0163929Y0135333D01*
X0163738Y0135355D01*
X0163546Y0135372D01*
X0163353Y0135385D01*
X0163161Y0135393D01*
X0162968Y0135397D01*
X0162968Y0135303D01*
X0163158Y0135299D01*
X0163349Y0135291D01*
X0163539Y0135279D01*
X0163729Y0135261D01*
X0163918Y0135239D01*
X0164106Y0135213D01*
X0164294Y0135182D01*
X0164482Y0135146D01*
X0164668Y0135106D01*
X0164853Y0135062D01*
X0165037Y0135013D01*
X0165220Y0134959D01*
X0165402Y0134902D01*
X0165582Y0134839D01*
X0165760Y0134773D01*
X0165937Y0134702D01*
X0166112Y0134627D01*
X0166286Y0134548D01*
X0166457Y0134464D01*
X0166626Y0134377D01*
X0166793Y0134285D01*
X0166958Y0134189D01*
X0167121Y0134090D01*
X0167281Y0133986D01*
X0167438Y0133879D01*
X0167593Y0133768D01*
X0167745Y0133653D01*
X0167894Y0133535D01*
X0168040Y0133413D01*
X0168184Y0133287D01*
X0168324Y0133158D01*
X0168461Y0133026D01*
X0168595Y0132890D01*
X0168726Y0132752D01*
X0168853Y0132610D01*
X0168977Y0132465D01*
X0169097Y0132317D01*
X0169213Y0132166D01*
X0169326Y0132013D01*
X0169435Y0131857D01*
X0169541Y0131698D01*
X0169642Y0131537D01*
X0169740Y0131373D01*
X0169658Y0131326D01*
X0169562Y0131488D01*
X0169462Y0131647D01*
X0169358Y0131804D01*
X0169250Y0131959D01*
X0169138Y0132110D01*
X0169023Y0132259D01*
X0168904Y0132405D01*
X0168782Y0132548D01*
X0168656Y0132688D01*
X0168527Y0132825D01*
X0168395Y0132959D01*
X0168259Y0133090D01*
X0168121Y0133217D01*
X0167979Y0133341D01*
X0167835Y0133462D01*
X0167687Y0133579D01*
X0167537Y0133692D01*
X0167384Y0133802D01*
X0167228Y0133908D01*
X0167070Y0134010D01*
X0166910Y0134109D01*
X0166747Y0134203D01*
X0166582Y0134294D01*
X0166415Y0134380D01*
X0166246Y0134463D01*
X0166075Y0134541D01*
X0165902Y0134615D01*
X0165727Y0134685D01*
X0165550Y0134751D01*
X0165372Y0134812D01*
X0165193Y0134869D01*
X0165012Y0134922D01*
X0164830Y0134971D01*
X0164647Y0135015D01*
X0164463Y0135054D01*
X0164278Y0135089D01*
X0164093Y0135120D01*
X0163906Y0135146D01*
X0163719Y0135168D01*
X0163532Y0135185D01*
X0163344Y0135197D01*
X0163156Y0135205D01*
X0162968Y0135209D01*
X0162968Y0135115D01*
X0163154Y0135111D01*
X0163339Y0135103D01*
X0163525Y0135091D01*
X0163710Y0135074D01*
X0163895Y0135053D01*
X0164079Y0135027D01*
X0164262Y0134997D01*
X0164445Y0134962D01*
X0164627Y0134923D01*
X0164808Y0134879D01*
X0164987Y0134832D01*
X0165166Y0134779D01*
X0165343Y0134723D01*
X0165519Y0134662D01*
X0165693Y0134597D01*
X0165866Y0134528D01*
X0166037Y0134455D01*
X0166206Y0134378D01*
X0166373Y0134296D01*
X0166538Y0134211D01*
X0166701Y0134121D01*
X0166862Y0134028D01*
X0167020Y0133931D01*
X0167176Y0133830D01*
X0167330Y0133725D01*
X0167481Y0133617D01*
X0167630Y0133505D01*
X0167775Y0133389D01*
X0167918Y0133270D01*
X0168058Y0133148D01*
X0168195Y0133022D01*
X0168329Y0132893D01*
X0168459Y0132760D01*
X0168587Y0132625D01*
X0168711Y0132487D01*
X0168832Y0132345D01*
X0168949Y0132201D01*
X0169063Y0132054D01*
X0169173Y0131904D01*
X0169280Y0131752D01*
X0169382Y0131597D01*
X0169481Y0131439D01*
X0169577Y0131280D01*
X0169495Y0131233D01*
X0169401Y0131391D01*
X0169303Y0131546D01*
X0169202Y0131699D01*
X0169096Y0131850D01*
X0168987Y0131998D01*
X0168875Y0132143D01*
X0168759Y0132285D01*
X0168640Y0132425D01*
X0168517Y0132562D01*
X0168391Y0132695D01*
X0168262Y0132826D01*
X0168130Y0132954D01*
X0167995Y0133078D01*
X0167857Y0133199D01*
X0167716Y0133316D01*
X0167572Y0133430D01*
X0167425Y0133541D01*
X0167276Y0133648D01*
X0167124Y0133752D01*
X0166970Y0133851D01*
X0166814Y0133947D01*
X0166655Y0134039D01*
X0166494Y0134128D01*
X0166331Y0134212D01*
X0166166Y0134293D01*
X0165999Y0134369D01*
X0165830Y0134441D01*
X0165659Y0134510D01*
X0165487Y0134574D01*
X0165314Y0134634D01*
X0165139Y0134690D01*
X0164962Y0134741D01*
X0164785Y0134788D01*
X0164606Y0134831D01*
X0164427Y0134870D01*
X0164246Y0134904D01*
X0164065Y0134934D01*
X0163883Y0134959D01*
X0163701Y0134981D01*
X0163518Y0134997D01*
X0163335Y0135010D01*
X0163151Y0135017D01*
X0162968Y0135021D01*
X0162868Y0135866D02*
X0162868Y0134966D01*
X0162867Y0134967D02*
X0162683Y0134963D01*
X0162498Y0134955D01*
X0162314Y0134943D01*
X0162131Y0134926D01*
X0161947Y0134904D01*
X0161765Y0134879D01*
X0161583Y0134848D01*
X0161402Y0134813D01*
X0161221Y0134774D01*
X0161042Y0134730D01*
X0160864Y0134682D01*
X0160687Y0134630D01*
X0160511Y0134573D01*
X0160337Y0134513D01*
X0160165Y0134447D01*
X0159994Y0134378D01*
X0159824Y0134305D01*
X0159657Y0134227D01*
X0159492Y0134145D01*
X0159328Y0134060D01*
X0159167Y0133970D01*
X0159008Y0133876D01*
X0158851Y0133779D01*
X0158697Y0133678D01*
X0158545Y0133573D01*
X0158396Y0133464D01*
X0158250Y0133352D01*
X0158106Y0133236D01*
X0157966Y0133117D01*
X0157828Y0132994D01*
X0157693Y0132868D01*
X0157561Y0132739D01*
X0157433Y0132606D01*
X0157308Y0132471D01*
X0157186Y0132332D01*
X0156499Y0132913D01*
X0156635Y0133069D01*
X0156776Y0133221D01*
X0156920Y0133370D01*
X0157067Y0133515D01*
X0157218Y0133656D01*
X0157372Y0133793D01*
X0157530Y0133927D01*
X0157691Y0134057D01*
X0157855Y0134183D01*
X0158022Y0134305D01*
X0158192Y0134423D01*
X0158365Y0134536D01*
X0158541Y0134645D01*
X0158719Y0134750D01*
X0158900Y0134851D01*
X0159083Y0134947D01*
X0159268Y0135039D01*
X0159456Y0135126D01*
X0159646Y0135208D01*
X0159837Y0135286D01*
X0160031Y0135359D01*
X0160226Y0135427D01*
X0160423Y0135491D01*
X0160621Y0135549D01*
X0160821Y0135603D01*
X0161022Y0135652D01*
X0161224Y0135696D01*
X0161427Y0135735D01*
X0161631Y0135769D01*
X0161836Y0135798D01*
X0162041Y0135822D01*
X0162247Y0135840D01*
X0162454Y0135854D01*
X0162660Y0135863D01*
X0162867Y0135867D01*
X0162867Y0135773D01*
X0162663Y0135769D01*
X0162458Y0135760D01*
X0162254Y0135747D01*
X0162051Y0135728D01*
X0161848Y0135704D01*
X0161645Y0135676D01*
X0161443Y0135642D01*
X0161243Y0135604D01*
X0161043Y0135560D01*
X0160844Y0135512D01*
X0160647Y0135459D01*
X0160450Y0135401D01*
X0160256Y0135338D01*
X0160063Y0135270D01*
X0159871Y0135198D01*
X0159682Y0135121D01*
X0159494Y0135040D01*
X0159309Y0134954D01*
X0159126Y0134863D01*
X0158944Y0134768D01*
X0158766Y0134669D01*
X0158590Y0134565D01*
X0158416Y0134457D01*
X0158245Y0134345D01*
X0158077Y0134228D01*
X0157912Y0134108D01*
X0157749Y0133983D01*
X0157590Y0133855D01*
X0157434Y0133723D01*
X0157282Y0133587D01*
X0157132Y0133447D01*
X0156987Y0133304D01*
X0156844Y0133157D01*
X0156706Y0133006D01*
X0156571Y0132853D01*
X0156642Y0132792D01*
X0156776Y0132944D01*
X0156913Y0133093D01*
X0157054Y0133238D01*
X0157198Y0133379D01*
X0157345Y0133518D01*
X0157496Y0133652D01*
X0157650Y0133783D01*
X0157808Y0133910D01*
X0157968Y0134033D01*
X0158132Y0134152D01*
X0158298Y0134267D01*
X0158467Y0134378D01*
X0158638Y0134485D01*
X0158813Y0134587D01*
X0158989Y0134686D01*
X0159168Y0134780D01*
X0159350Y0134869D01*
X0159533Y0134954D01*
X0159718Y0135035D01*
X0159906Y0135111D01*
X0160095Y0135182D01*
X0160286Y0135249D01*
X0160478Y0135311D01*
X0160672Y0135368D01*
X0160867Y0135421D01*
X0161064Y0135468D01*
X0161261Y0135511D01*
X0161460Y0135549D01*
X0161659Y0135583D01*
X0161859Y0135611D01*
X0162060Y0135634D01*
X0162261Y0135653D01*
X0162463Y0135667D01*
X0162665Y0135675D01*
X0162867Y0135679D01*
X0162867Y0135585D01*
X0162667Y0135581D01*
X0162468Y0135573D01*
X0162268Y0135559D01*
X0162069Y0135541D01*
X0161871Y0135518D01*
X0161673Y0135490D01*
X0161476Y0135457D01*
X0161280Y0135419D01*
X0161084Y0135377D01*
X0160890Y0135330D01*
X0160697Y0135278D01*
X0160506Y0135221D01*
X0160315Y0135160D01*
X0160127Y0135094D01*
X0159940Y0135023D01*
X0159755Y0134948D01*
X0159571Y0134868D01*
X0159390Y0134784D01*
X0159211Y0134696D01*
X0159034Y0134603D01*
X0158859Y0134506D01*
X0158687Y0134404D01*
X0158518Y0134299D01*
X0158350Y0134189D01*
X0158186Y0134075D01*
X0158025Y0133958D01*
X0157866Y0133836D01*
X0157711Y0133711D01*
X0157558Y0133581D01*
X0157409Y0133448D01*
X0157263Y0133312D01*
X0157121Y0133172D01*
X0156982Y0133028D01*
X0156846Y0132881D01*
X0156714Y0132731D01*
X0156786Y0132671D01*
X0156916Y0132819D01*
X0157050Y0132964D01*
X0157188Y0133106D01*
X0157329Y0133244D01*
X0157473Y0133379D01*
X0157620Y0133511D01*
X0157771Y0133638D01*
X0157925Y0133762D01*
X0158081Y0133883D01*
X0158241Y0133999D01*
X0158403Y0134111D01*
X0158568Y0134220D01*
X0158736Y0134324D01*
X0158906Y0134424D01*
X0159079Y0134520D01*
X0159254Y0134612D01*
X0159431Y0134700D01*
X0159610Y0134783D01*
X0159791Y0134861D01*
X0159974Y0134936D01*
X0160159Y0135005D01*
X0160345Y0135070D01*
X0160533Y0135131D01*
X0160723Y0135187D01*
X0160913Y0135238D01*
X0161105Y0135285D01*
X0161298Y0135327D01*
X0161492Y0135364D01*
X0161687Y0135397D01*
X0161883Y0135424D01*
X0162079Y0135447D01*
X0162275Y0135465D01*
X0162472Y0135479D01*
X0162670Y0135487D01*
X0162867Y0135491D01*
X0162867Y0135397D01*
X0162672Y0135393D01*
X0162477Y0135385D01*
X0162282Y0135372D01*
X0162088Y0135354D01*
X0161894Y0135331D01*
X0161701Y0135304D01*
X0161508Y0135272D01*
X0161317Y0135235D01*
X0161126Y0135193D01*
X0160936Y0135147D01*
X0160748Y0135097D01*
X0160561Y0135041D01*
X0160375Y0134981D01*
X0160191Y0134917D01*
X0160008Y0134848D01*
X0159827Y0134775D01*
X0159648Y0134697D01*
X0159471Y0134615D01*
X0159296Y0134528D01*
X0159124Y0134438D01*
X0158953Y0134343D01*
X0158785Y0134244D01*
X0158619Y0134141D01*
X0158456Y0134034D01*
X0158295Y0133923D01*
X0158138Y0133808D01*
X0157983Y0133689D01*
X0157831Y0133566D01*
X0157682Y0133440D01*
X0157536Y0133310D01*
X0157394Y0133177D01*
X0157255Y0133040D01*
X0157119Y0132900D01*
X0156987Y0132756D01*
X0156858Y0132610D01*
X0156930Y0132549D01*
X0157057Y0132694D01*
X0157188Y0132836D01*
X0157322Y0132974D01*
X0157459Y0133109D01*
X0157600Y0133241D01*
X0157744Y0133369D01*
X0157891Y0133494D01*
X0158041Y0133615D01*
X0158194Y0133732D01*
X0158350Y0133846D01*
X0158509Y0133956D01*
X0158670Y0134062D01*
X0158834Y0134163D01*
X0159000Y0134261D01*
X0159168Y0134355D01*
X0159339Y0134445D01*
X0159512Y0134530D01*
X0159687Y0134611D01*
X0159864Y0134688D01*
X0160042Y0134760D01*
X0160223Y0134829D01*
X0160405Y0134892D01*
X0160588Y0134951D01*
X0160773Y0135006D01*
X0160959Y0135056D01*
X0161147Y0135102D01*
X0161335Y0135143D01*
X0161525Y0135179D01*
X0161715Y0135211D01*
X0161906Y0135238D01*
X0162097Y0135260D01*
X0162289Y0135278D01*
X0162482Y0135291D01*
X0162674Y0135299D01*
X0162867Y0135303D01*
X0162867Y0135209D01*
X0162677Y0135205D01*
X0162486Y0135197D01*
X0162296Y0135184D01*
X0162107Y0135167D01*
X0161917Y0135145D01*
X0161729Y0135118D01*
X0161541Y0135087D01*
X0161354Y0135051D01*
X0161168Y0135010D01*
X0160983Y0134965D01*
X0160799Y0134916D01*
X0160616Y0134861D01*
X0160435Y0134803D01*
X0160255Y0134740D01*
X0160077Y0134673D01*
X0159900Y0134601D01*
X0159725Y0134525D01*
X0159553Y0134445D01*
X0159382Y0134361D01*
X0159213Y0134272D01*
X0159047Y0134180D01*
X0158882Y0134083D01*
X0158721Y0133983D01*
X0158561Y0133878D01*
X0158405Y0133770D01*
X0158251Y0133657D01*
X0158100Y0133541D01*
X0157951Y0133422D01*
X0157806Y0133299D01*
X0157664Y0133172D01*
X0157525Y0133042D01*
X0157389Y0132908D01*
X0157256Y0132772D01*
X0157127Y0132632D01*
X0157001Y0132488D01*
X0157073Y0132428D01*
X0157197Y0132569D01*
X0157325Y0132707D01*
X0157456Y0132842D01*
X0157590Y0132974D01*
X0157727Y0133103D01*
X0157868Y0133228D01*
X0158012Y0133350D01*
X0158158Y0133468D01*
X0158307Y0133582D01*
X0158459Y0133693D01*
X0158614Y0133800D01*
X0158771Y0133903D01*
X0158931Y0134003D01*
X0159093Y0134098D01*
X0159258Y0134190D01*
X0159424Y0134277D01*
X0159593Y0134360D01*
X0159764Y0134440D01*
X0159936Y0134515D01*
X0160111Y0134585D01*
X0160287Y0134652D01*
X0160464Y0134714D01*
X0160644Y0134772D01*
X0160824Y0134825D01*
X0161006Y0134874D01*
X0161188Y0134918D01*
X0161372Y0134958D01*
X0161557Y0134994D01*
X0161743Y0135025D01*
X0161929Y0135051D01*
X0162116Y0135073D01*
X0162303Y0135090D01*
X0162491Y0135103D01*
X0162679Y0135111D01*
X0162867Y0135115D01*
X0162867Y0135021D01*
X0162681Y0135017D01*
X0162496Y0135009D01*
X0162310Y0134997D01*
X0162125Y0134980D01*
X0161941Y0134958D01*
X0161757Y0134932D01*
X0161573Y0134901D01*
X0161391Y0134866D01*
X0161209Y0134827D01*
X0161029Y0134783D01*
X0160849Y0134734D01*
X0160671Y0134682D01*
X0160494Y0134625D01*
X0160319Y0134563D01*
X0160145Y0134498D01*
X0159973Y0134428D01*
X0159802Y0134354D01*
X0159634Y0134276D01*
X0159467Y0134193D01*
X0159303Y0134107D01*
X0159140Y0134017D01*
X0158980Y0133922D01*
X0158822Y0133824D01*
X0158667Y0133722D01*
X0158514Y0133617D01*
X0158364Y0133507D01*
X0158216Y0133394D01*
X0158072Y0133277D01*
X0157930Y0133157D01*
X0157791Y0133034D01*
X0157655Y0132907D01*
X0157523Y0132777D01*
X0157394Y0132643D01*
X0157267Y0132507D01*
X0157145Y0132367D01*
X0156458Y0121969D02*
X0157150Y0122546D01*
X0157149Y0122545D02*
X0157268Y0122408D01*
X0157389Y0122274D01*
X0157514Y0122143D01*
X0157642Y0122015D01*
X0157773Y0121891D01*
X0157907Y0121769D01*
X0158044Y0121650D01*
X0158183Y0121535D01*
X0158326Y0121424D01*
X0158471Y0121315D01*
X0158618Y0121210D01*
X0158768Y0121109D01*
X0158920Y0121012D01*
X0159075Y0120918D01*
X0159232Y0120827D01*
X0159391Y0120741D01*
X0159552Y0120658D01*
X0159715Y0120580D01*
X0159880Y0120505D01*
X0160046Y0120434D01*
X0160214Y0120367D01*
X0160384Y0120305D01*
X0160555Y0120246D01*
X0160728Y0120191D01*
X0160901Y0120141D01*
X0161076Y0120095D01*
X0161252Y0120053D01*
X0161429Y0120015D01*
X0161607Y0119982D01*
X0161786Y0119952D01*
X0161965Y0119927D01*
X0162145Y0119907D01*
X0162325Y0119890D01*
X0162505Y0119878D01*
X0162686Y0119871D01*
X0162867Y0119867D01*
X0162868Y0118968D01*
X0162867Y0118967D01*
X0162664Y0118971D01*
X0162462Y0118979D01*
X0162259Y0118993D01*
X0162057Y0119011D01*
X0161856Y0119034D01*
X0161655Y0119062D01*
X0161455Y0119095D01*
X0161255Y0119132D01*
X0161057Y0119174D01*
X0160859Y0119221D01*
X0160663Y0119273D01*
X0160469Y0119330D01*
X0160275Y0119391D01*
X0160083Y0119456D01*
X0159893Y0119527D01*
X0159704Y0119602D01*
X0159518Y0119681D01*
X0159333Y0119765D01*
X0159150Y0119853D01*
X0158970Y0119946D01*
X0158792Y0120042D01*
X0158616Y0120144D01*
X0158443Y0120249D01*
X0158272Y0120358D01*
X0158104Y0120472D01*
X0157938Y0120589D01*
X0157776Y0120711D01*
X0157616Y0120836D01*
X0157460Y0120965D01*
X0157307Y0121098D01*
X0157157Y0121235D01*
X0157010Y0121375D01*
X0156867Y0121518D01*
X0156727Y0121665D01*
X0156590Y0121815D01*
X0156458Y0121969D01*
X0156530Y0122029D01*
X0156661Y0121877D01*
X0156796Y0121729D01*
X0156934Y0121584D01*
X0157076Y0121442D01*
X0157221Y0121303D01*
X0157369Y0121168D01*
X0157521Y0121037D01*
X0157676Y0120909D01*
X0157833Y0120785D01*
X0157994Y0120665D01*
X0158157Y0120549D01*
X0158324Y0120437D01*
X0158492Y0120329D01*
X0158664Y0120224D01*
X0158838Y0120124D01*
X0159014Y0120029D01*
X0159192Y0119937D01*
X0159373Y0119850D01*
X0159556Y0119767D01*
X0159740Y0119688D01*
X0159926Y0119614D01*
X0160115Y0119545D01*
X0160304Y0119480D01*
X0160496Y0119420D01*
X0160688Y0119364D01*
X0160882Y0119313D01*
X0161077Y0119266D01*
X0161273Y0119224D01*
X0161470Y0119187D01*
X0161668Y0119155D01*
X0161867Y0119127D01*
X0162066Y0119104D01*
X0162266Y0119086D01*
X0162466Y0119073D01*
X0162667Y0119065D01*
X0162867Y0119061D01*
X0162867Y0119155D01*
X0162669Y0119159D01*
X0162471Y0119167D01*
X0162273Y0119180D01*
X0162075Y0119198D01*
X0161878Y0119221D01*
X0161682Y0119248D01*
X0161486Y0119280D01*
X0161292Y0119316D01*
X0161098Y0119358D01*
X0160905Y0119404D01*
X0160713Y0119454D01*
X0160523Y0119510D01*
X0160334Y0119569D01*
X0160146Y0119634D01*
X0159960Y0119702D01*
X0159776Y0119775D01*
X0159593Y0119853D01*
X0159413Y0119935D01*
X0159234Y0120021D01*
X0159058Y0120112D01*
X0158884Y0120206D01*
X0158712Y0120305D01*
X0158542Y0120408D01*
X0158375Y0120515D01*
X0158211Y0120626D01*
X0158050Y0120741D01*
X0157891Y0120860D01*
X0157735Y0120982D01*
X0157582Y0121108D01*
X0157432Y0121238D01*
X0157285Y0121372D01*
X0157142Y0121509D01*
X0157002Y0121649D01*
X0156865Y0121792D01*
X0156732Y0121939D01*
X0156602Y0122089D01*
X0156674Y0122149D01*
X0156803Y0122001D01*
X0156934Y0121856D01*
X0157069Y0121714D01*
X0157208Y0121576D01*
X0157350Y0121440D01*
X0157495Y0121308D01*
X0157643Y0121180D01*
X0157794Y0121055D01*
X0157948Y0120934D01*
X0158105Y0120817D01*
X0158265Y0120703D01*
X0158427Y0120594D01*
X0158592Y0120488D01*
X0158760Y0120386D01*
X0158930Y0120288D01*
X0159102Y0120195D01*
X0159276Y0120105D01*
X0159453Y0120020D01*
X0159631Y0119939D01*
X0159811Y0119862D01*
X0159994Y0119790D01*
X0160177Y0119722D01*
X0160363Y0119659D01*
X0160550Y0119600D01*
X0160738Y0119545D01*
X0160927Y0119495D01*
X0161118Y0119450D01*
X0161310Y0119409D01*
X0161502Y0119372D01*
X0161696Y0119341D01*
X0161890Y0119314D01*
X0162085Y0119292D01*
X0162280Y0119274D01*
X0162475Y0119261D01*
X0162671Y0119253D01*
X0162867Y0119249D01*
X0162867Y0119343D01*
X0162673Y0119347D01*
X0162480Y0119355D01*
X0162287Y0119368D01*
X0162094Y0119385D01*
X0161901Y0119407D01*
X0161709Y0119434D01*
X0161518Y0119465D01*
X0161328Y0119501D01*
X0161138Y0119541D01*
X0160950Y0119586D01*
X0160763Y0119636D01*
X0160577Y0119690D01*
X0160392Y0119748D01*
X0160209Y0119811D01*
X0160027Y0119878D01*
X0159847Y0119949D01*
X0159669Y0120025D01*
X0159492Y0120105D01*
X0159318Y0120189D01*
X0159146Y0120278D01*
X0158976Y0120370D01*
X0158808Y0120467D01*
X0158642Y0120568D01*
X0158479Y0120672D01*
X0158319Y0120780D01*
X0158161Y0120893D01*
X0158006Y0121009D01*
X0157853Y0121128D01*
X0157704Y0121252D01*
X0157557Y0121378D01*
X0157414Y0121509D01*
X0157274Y0121642D01*
X0157137Y0121779D01*
X0157004Y0121920D01*
X0156873Y0122063D01*
X0156747Y0122210D01*
X0156819Y0122270D01*
X0156944Y0122125D01*
X0157073Y0121983D01*
X0157205Y0121845D01*
X0157340Y0121709D01*
X0157479Y0121577D01*
X0157620Y0121448D01*
X0157765Y0121323D01*
X0157912Y0121201D01*
X0158063Y0121083D01*
X0158216Y0120968D01*
X0158372Y0120858D01*
X0158531Y0120750D01*
X0158692Y0120647D01*
X0158856Y0120548D01*
X0159022Y0120452D01*
X0159190Y0120361D01*
X0159360Y0120274D01*
X0159532Y0120190D01*
X0159707Y0120111D01*
X0159883Y0120036D01*
X0160061Y0119966D01*
X0160240Y0119899D01*
X0160421Y0119837D01*
X0160604Y0119780D01*
X0160788Y0119726D01*
X0160973Y0119677D01*
X0161159Y0119633D01*
X0161346Y0119593D01*
X0161534Y0119558D01*
X0161723Y0119527D01*
X0161913Y0119500D01*
X0162103Y0119479D01*
X0162293Y0119461D01*
X0162484Y0119449D01*
X0162676Y0119441D01*
X0162867Y0119437D01*
X0162867Y0119531D01*
X0162678Y0119535D01*
X0162489Y0119543D01*
X0162300Y0119555D01*
X0162112Y0119572D01*
X0161924Y0119594D01*
X0161737Y0119620D01*
X0161550Y0119650D01*
X0161364Y0119685D01*
X0161179Y0119725D01*
X0160995Y0119769D01*
X0160813Y0119817D01*
X0160631Y0119870D01*
X0160451Y0119927D01*
X0160272Y0119988D01*
X0160094Y0120054D01*
X0159918Y0120123D01*
X0159744Y0120197D01*
X0159572Y0120275D01*
X0159402Y0120358D01*
X0159234Y0120444D01*
X0159068Y0120534D01*
X0158904Y0120629D01*
X0158742Y0120727D01*
X0158583Y0120829D01*
X0158426Y0120935D01*
X0158272Y0121044D01*
X0158120Y0121158D01*
X0157972Y0121274D01*
X0157826Y0121395D01*
X0157683Y0121518D01*
X0157543Y0121646D01*
X0157406Y0121776D01*
X0157272Y0121910D01*
X0157142Y0122047D01*
X0157015Y0122187D01*
X0156891Y0122330D01*
X0156963Y0122390D01*
X0157086Y0122249D01*
X0157211Y0122111D01*
X0157340Y0121975D01*
X0157472Y0121843D01*
X0157607Y0121714D01*
X0157746Y0121589D01*
X0157887Y0121466D01*
X0158031Y0121347D01*
X0158178Y0121232D01*
X0158327Y0121120D01*
X0158480Y0121012D01*
X0158635Y0120907D01*
X0158792Y0120807D01*
X0158952Y0120710D01*
X0159113Y0120616D01*
X0159278Y0120527D01*
X0159444Y0120442D01*
X0159612Y0120361D01*
X0159782Y0120283D01*
X0159954Y0120210D01*
X0160128Y0120141D01*
X0160303Y0120077D01*
X0160480Y0120016D01*
X0160658Y0119960D01*
X0160837Y0119908D01*
X0161018Y0119860D01*
X0161200Y0119817D01*
X0161382Y0119778D01*
X0161566Y0119743D01*
X0161750Y0119713D01*
X0161935Y0119687D01*
X0162121Y0119666D01*
X0162307Y0119649D01*
X0162494Y0119637D01*
X0162680Y0119629D01*
X0162867Y0119625D01*
X0162867Y0119719D01*
X0162683Y0119723D01*
X0162498Y0119730D01*
X0162314Y0119743D01*
X0162130Y0119759D01*
X0161947Y0119780D01*
X0161764Y0119806D01*
X0161582Y0119836D01*
X0161401Y0119870D01*
X0161220Y0119908D01*
X0161041Y0119951D01*
X0160862Y0119998D01*
X0160685Y0120050D01*
X0160509Y0120105D01*
X0160334Y0120165D01*
X0160161Y0120229D01*
X0159990Y0120297D01*
X0159820Y0120369D01*
X0159652Y0120446D01*
X0159486Y0120526D01*
X0159322Y0120610D01*
X0159159Y0120698D01*
X0158999Y0120790D01*
X0158842Y0120886D01*
X0158686Y0120986D01*
X0158533Y0121089D01*
X0158383Y0121196D01*
X0158235Y0121306D01*
X0158090Y0121420D01*
X0157948Y0121538D01*
X0157808Y0121659D01*
X0157672Y0121783D01*
X0157538Y0121910D01*
X0157408Y0122041D01*
X0157280Y0122174D01*
X0157156Y0122311D01*
X0157036Y0122450D01*
X0157108Y0122511D01*
X0157227Y0122373D01*
X0157350Y0122238D01*
X0157475Y0122106D01*
X0157604Y0121977D01*
X0157736Y0121851D01*
X0157871Y0121729D01*
X0158009Y0121609D01*
X0158149Y0121493D01*
X0158293Y0121381D01*
X0158439Y0121272D01*
X0158587Y0121166D01*
X0158738Y0121064D01*
X0158892Y0120966D01*
X0159047Y0120871D01*
X0159205Y0120780D01*
X0159366Y0120693D01*
X0159528Y0120610D01*
X0159692Y0120531D01*
X0159858Y0120456D01*
X0160026Y0120384D01*
X0160195Y0120317D01*
X0160366Y0120254D01*
X0160538Y0120195D01*
X0160712Y0120140D01*
X0160887Y0120089D01*
X0161063Y0120042D01*
X0161241Y0120000D01*
X0161419Y0119962D01*
X0161598Y0119928D01*
X0161778Y0119899D01*
X0161958Y0119874D01*
X0162139Y0119853D01*
X0162321Y0119836D01*
X0162503Y0119824D01*
X0162685Y0119817D01*
X0162867Y0119813D01*
X0030784Y0049239D02*
X0029938Y0048932D01*
X0029872Y0049104D01*
X0029802Y0049275D01*
X0029727Y0049443D01*
X0029648Y0049610D01*
X0029565Y0049775D01*
X0029478Y0049938D01*
X0029388Y0050098D01*
X0029293Y0050257D01*
X0029194Y0050413D01*
X0029092Y0050566D01*
X0028986Y0050717D01*
X0028876Y0050866D01*
X0028763Y0051011D01*
X0028646Y0051154D01*
X0028526Y0051294D01*
X0028402Y0051431D01*
X0028275Y0051565D01*
X0028145Y0051695D01*
X0028012Y0051823D01*
X0027876Y0051947D01*
X0027736Y0052068D01*
X0027594Y0052185D01*
X0027449Y0052299D01*
X0027301Y0052410D01*
X0027150Y0052516D01*
X0026997Y0052619D01*
X0026842Y0052718D01*
X0026684Y0052814D01*
X0026523Y0052905D01*
X0026361Y0052993D01*
X0026196Y0053076D01*
X0026030Y0053156D01*
X0025862Y0053231D01*
X0025691Y0053302D01*
X0025520Y0053369D01*
X0025830Y0054213D01*
X0025831Y0054214D01*
X0026024Y0054139D01*
X0026214Y0054059D01*
X0026403Y0053975D01*
X0026590Y0053886D01*
X0026774Y0053792D01*
X0026957Y0053694D01*
X0027136Y0053592D01*
X0027313Y0053485D01*
X0027488Y0053374D01*
X0027659Y0053258D01*
X0027828Y0053139D01*
X0027994Y0053015D01*
X0028157Y0052888D01*
X0028316Y0052756D01*
X0028473Y0052621D01*
X0028626Y0052481D01*
X0028775Y0052338D01*
X0028921Y0052192D01*
X0029063Y0052042D01*
X0029202Y0051888D01*
X0029337Y0051731D01*
X0029468Y0051571D01*
X0029595Y0051408D01*
X0029718Y0051242D01*
X0029836Y0051072D01*
X0029951Y0050900D01*
X0030061Y0050725D01*
X0030167Y0050548D01*
X0030269Y0050368D01*
X0030366Y0050185D01*
X0030459Y0050000D01*
X0030547Y0049813D01*
X0030631Y0049624D01*
X0030710Y0049433D01*
X0030784Y0049240D01*
X0030696Y0049208D01*
X0030622Y0049399D01*
X0030544Y0049588D01*
X0030462Y0049775D01*
X0030374Y0049960D01*
X0030283Y0050142D01*
X0030187Y0050323D01*
X0030086Y0050501D01*
X0029981Y0050676D01*
X0029872Y0050849D01*
X0029759Y0051020D01*
X0029641Y0051187D01*
X0029520Y0051351D01*
X0029394Y0051513D01*
X0029265Y0051671D01*
X0029131Y0051826D01*
X0028994Y0051978D01*
X0028854Y0052126D01*
X0028709Y0052271D01*
X0028562Y0052413D01*
X0028410Y0052550D01*
X0028256Y0052684D01*
X0028098Y0052814D01*
X0027937Y0052940D01*
X0027773Y0053063D01*
X0027606Y0053181D01*
X0027437Y0053295D01*
X0027264Y0053405D01*
X0027089Y0053510D01*
X0026911Y0053612D01*
X0026731Y0053709D01*
X0026549Y0053801D01*
X0026364Y0053889D01*
X0026178Y0053973D01*
X0025989Y0054051D01*
X0025798Y0054126D01*
X0025766Y0054037D01*
X0025954Y0053964D01*
X0026141Y0053886D01*
X0026325Y0053804D01*
X0026508Y0053717D01*
X0026688Y0053625D01*
X0026866Y0053529D01*
X0027042Y0053429D01*
X0027215Y0053325D01*
X0027385Y0053216D01*
X0027553Y0053103D01*
X0027718Y0052987D01*
X0027880Y0052866D01*
X0028039Y0052741D01*
X0028195Y0052612D01*
X0028348Y0052480D01*
X0028497Y0052344D01*
X0028644Y0052204D01*
X0028786Y0052061D01*
X0028925Y0051914D01*
X0029061Y0051764D01*
X0029193Y0051611D01*
X0029320Y0051454D01*
X0029445Y0051295D01*
X0029565Y0051132D01*
X0029681Y0050967D01*
X0029793Y0050798D01*
X0029901Y0050627D01*
X0030005Y0050454D01*
X0030104Y0050278D01*
X0030199Y0050099D01*
X0030290Y0049919D01*
X0030376Y0049736D01*
X0030458Y0049551D01*
X0030535Y0049364D01*
X0030608Y0049176D01*
X0030519Y0049143D01*
X0030447Y0049330D01*
X0030371Y0049515D01*
X0030290Y0049697D01*
X0030205Y0049878D01*
X0030115Y0050057D01*
X0030021Y0050233D01*
X0029923Y0050407D01*
X0029821Y0050579D01*
X0029714Y0050747D01*
X0029603Y0050914D01*
X0029488Y0051077D01*
X0029370Y0051238D01*
X0029247Y0051396D01*
X0029120Y0051550D01*
X0028990Y0051702D01*
X0028856Y0051850D01*
X0028719Y0051995D01*
X0028578Y0052137D01*
X0028433Y0052275D01*
X0028286Y0052410D01*
X0028135Y0052540D01*
X0027980Y0052668D01*
X0027823Y0052791D01*
X0027663Y0052910D01*
X0027500Y0053026D01*
X0027334Y0053137D01*
X0027166Y0053245D01*
X0026994Y0053348D01*
X0026821Y0053447D01*
X0026645Y0053542D01*
X0026467Y0053632D01*
X0026286Y0053718D01*
X0026104Y0053800D01*
X0025920Y0053877D01*
X0025733Y0053949D01*
X0025701Y0053861D01*
X0025885Y0053789D01*
X0026067Y0053713D01*
X0026247Y0053633D01*
X0026426Y0053548D01*
X0026602Y0053458D01*
X0026776Y0053365D01*
X0026947Y0053267D01*
X0027116Y0053165D01*
X0027283Y0053059D01*
X0027447Y0052948D01*
X0027608Y0052834D01*
X0027766Y0052716D01*
X0027922Y0052594D01*
X0028074Y0052469D01*
X0028223Y0052339D01*
X0028369Y0052206D01*
X0028512Y0052070D01*
X0028651Y0051930D01*
X0028787Y0051787D01*
X0028920Y0051640D01*
X0029048Y0051490D01*
X0029173Y0051337D01*
X0029295Y0051181D01*
X0029412Y0051023D01*
X0029525Y0050861D01*
X0029635Y0050697D01*
X0029740Y0050530D01*
X0029842Y0050360D01*
X0029939Y0050188D01*
X0030032Y0050014D01*
X0030120Y0049837D01*
X0030205Y0049659D01*
X0030284Y0049478D01*
X0030360Y0049296D01*
X0030431Y0049111D01*
X0030343Y0049079D01*
X0030272Y0049261D01*
X0030198Y0049442D01*
X0030119Y0049620D01*
X0030036Y0049797D01*
X0029948Y0049971D01*
X0029856Y0050143D01*
X0029760Y0050313D01*
X0029660Y0050481D01*
X0029556Y0050646D01*
X0029448Y0050808D01*
X0029336Y0050968D01*
X0029220Y0051125D01*
X0029100Y0051279D01*
X0028976Y0051430D01*
X0028849Y0051578D01*
X0028718Y0051723D01*
X0028584Y0051864D01*
X0028446Y0052003D01*
X0028305Y0052138D01*
X0028161Y0052269D01*
X0028013Y0052397D01*
X0027863Y0052521D01*
X0027709Y0052641D01*
X0027553Y0052758D01*
X0027394Y0052871D01*
X0027232Y0052980D01*
X0027067Y0053085D01*
X0026900Y0053185D01*
X0026730Y0053282D01*
X0026559Y0053375D01*
X0026384Y0053463D01*
X0026208Y0053547D01*
X0026030Y0053627D01*
X0025850Y0053702D01*
X0025668Y0053773D01*
X0025636Y0053685D01*
X0025815Y0053615D01*
X0025993Y0053540D01*
X0026169Y0053461D01*
X0026343Y0053378D01*
X0026515Y0053291D01*
X0026685Y0053200D01*
X0026853Y0053104D01*
X0027018Y0053005D01*
X0027180Y0052901D01*
X0027340Y0052793D01*
X0027498Y0052682D01*
X0027652Y0052567D01*
X0027804Y0052448D01*
X0027953Y0052325D01*
X0028098Y0052199D01*
X0028241Y0052069D01*
X0028380Y0051936D01*
X0028516Y0051799D01*
X0028649Y0051659D01*
X0028778Y0051516D01*
X0028904Y0051370D01*
X0029026Y0051220D01*
X0029145Y0051068D01*
X0029259Y0050913D01*
X0029370Y0050755D01*
X0029477Y0050595D01*
X0029580Y0050432D01*
X0029679Y0050266D01*
X0029774Y0050098D01*
X0029864Y0049928D01*
X0029951Y0049756D01*
X0030033Y0049581D01*
X0030111Y0049405D01*
X0030185Y0049227D01*
X0030254Y0049047D01*
X0030166Y0049015D01*
X0030097Y0049193D01*
X0030025Y0049369D01*
X0029948Y0049543D01*
X0029866Y0049715D01*
X0029781Y0049885D01*
X0029691Y0050053D01*
X0029597Y0050219D01*
X0029500Y0050383D01*
X0029398Y0050544D01*
X0029292Y0050702D01*
X0029183Y0050858D01*
X0029070Y0051011D01*
X0028953Y0051162D01*
X0028832Y0051309D01*
X0028708Y0051454D01*
X0028580Y0051595D01*
X0028449Y0051733D01*
X0028315Y0051868D01*
X0028177Y0052000D01*
X0028036Y0052128D01*
X0027892Y0052253D01*
X0027745Y0052374D01*
X0027595Y0052492D01*
X0027443Y0052606D01*
X0027287Y0052716D01*
X0027129Y0052822D01*
X0026968Y0052925D01*
X0026805Y0053023D01*
X0026640Y0053117D01*
X0026472Y0053208D01*
X0026302Y0053294D01*
X0026130Y0053376D01*
X0025956Y0053454D01*
X0025781Y0053527D01*
X0025603Y0053597D01*
X0025571Y0053508D01*
X0025746Y0053440D01*
X0025920Y0053367D01*
X0026091Y0053290D01*
X0026261Y0053209D01*
X0026429Y0053124D01*
X0026595Y0053035D01*
X0026758Y0052942D01*
X0026919Y0052844D01*
X0027078Y0052743D01*
X0027234Y0052638D01*
X0027388Y0052530D01*
X0027538Y0052417D01*
X0027686Y0052301D01*
X0027832Y0052181D01*
X0027974Y0052058D01*
X0028113Y0051931D01*
X0028249Y0051801D01*
X0028382Y0051668D01*
X0028511Y0051531D01*
X0028637Y0051392D01*
X0028760Y0051249D01*
X0028879Y0051103D01*
X0028995Y0050955D01*
X0029106Y0050803D01*
X0029215Y0050650D01*
X0029319Y0050493D01*
X0029419Y0050334D01*
X0029516Y0050172D01*
X0029608Y0050009D01*
X0029697Y0049842D01*
X0029781Y0049674D01*
X0029862Y0049504D01*
X0029938Y0049332D01*
X0030010Y0049158D01*
X0030078Y0048983D01*
X0029989Y0048951D01*
X0029922Y0049124D01*
X0029851Y0049296D01*
X0029776Y0049466D01*
X0029697Y0049634D01*
X0029613Y0049800D01*
X0029526Y0049964D01*
X0029434Y0050125D01*
X0029339Y0050285D01*
X0029240Y0050442D01*
X0029137Y0050597D01*
X0029030Y0050749D01*
X0028919Y0050898D01*
X0028805Y0051045D01*
X0028688Y0051189D01*
X0028567Y0051330D01*
X0028442Y0051468D01*
X0028314Y0051602D01*
X0028183Y0051734D01*
X0028049Y0051862D01*
X0027911Y0051988D01*
X0027771Y0052109D01*
X0027628Y0052228D01*
X0027481Y0052342D01*
X0027332Y0052453D01*
X0027181Y0052561D01*
X0027027Y0052665D01*
X0026870Y0052764D01*
X0026711Y0052860D01*
X0026549Y0052953D01*
X0026386Y0053041D01*
X0026220Y0053125D01*
X0026052Y0053205D01*
X0025883Y0053281D01*
X0025711Y0053353D01*
X0025538Y0053420D01*
X0014938Y0043366D02*
X0015784Y0043674D01*
X0015850Y0043503D01*
X0015920Y0043333D01*
X0015994Y0043166D01*
X0016072Y0043000D01*
X0016154Y0042836D01*
X0016240Y0042675D01*
X0016330Y0042515D01*
X0016424Y0042358D01*
X0016521Y0042203D01*
X0016623Y0042050D01*
X0016728Y0041900D01*
X0016836Y0041753D01*
X0016948Y0041608D01*
X0017064Y0041466D01*
X0017183Y0041327D01*
X0017306Y0041190D01*
X0017431Y0041057D01*
X0017560Y0040927D01*
X0017692Y0040800D01*
X0017827Y0040676D01*
X0017965Y0040556D01*
X0018106Y0040438D01*
X0018250Y0040325D01*
X0018396Y0040215D01*
X0018545Y0040108D01*
X0018697Y0040005D01*
X0018851Y0039906D01*
X0019007Y0039811D01*
X0019166Y0039719D01*
X0019327Y0039631D01*
X0019489Y0039548D01*
X0019654Y0039468D01*
X0019821Y0039392D01*
X0019990Y0039320D01*
X0020160Y0039253D01*
X0020332Y0039189D01*
X0020505Y0039130D01*
X0020680Y0039075D01*
X0020856Y0039024D01*
X0021033Y0038978D01*
X0021211Y0038935D01*
X0021391Y0038898D01*
X0021571Y0038864D01*
X0021751Y0038835D01*
X0021626Y0037944D01*
X0021625Y0037944D01*
X0021422Y0037976D01*
X0021221Y0038014D01*
X0021020Y0038056D01*
X0020820Y0038103D01*
X0020621Y0038155D01*
X0020424Y0038212D01*
X0020228Y0038274D01*
X0020034Y0038340D01*
X0019841Y0038411D01*
X0019650Y0038487D01*
X0019461Y0038567D01*
X0019275Y0038652D01*
X0019090Y0038741D01*
X0018907Y0038835D01*
X0018727Y0038933D01*
X0018549Y0039036D01*
X0018374Y0039143D01*
X0018201Y0039254D01*
X0018031Y0039369D01*
X0017864Y0039489D01*
X0017700Y0039612D01*
X0017539Y0039739D01*
X0017381Y0039871D01*
X0017227Y0040006D01*
X0017075Y0040144D01*
X0016928Y0040287D01*
X0016783Y0040433D01*
X0016642Y0040582D01*
X0016505Y0040735D01*
X0016372Y0040891D01*
X0016242Y0041050D01*
X0016117Y0041212D01*
X0015995Y0041378D01*
X0015877Y0041546D01*
X0015764Y0041717D01*
X0015654Y0041891D01*
X0015549Y0042067D01*
X0015449Y0042246D01*
X0015352Y0042427D01*
X0015260Y0042611D01*
X0015173Y0042797D01*
X0015090Y0042984D01*
X0015012Y0043174D01*
X0014938Y0043366D01*
X0015026Y0043398D01*
X0015099Y0043208D01*
X0015177Y0043021D01*
X0015259Y0042835D01*
X0015345Y0042652D01*
X0015436Y0042470D01*
X0015531Y0042291D01*
X0015631Y0042114D01*
X0015735Y0041940D01*
X0015843Y0041768D01*
X0015955Y0041599D01*
X0016071Y0041432D01*
X0016192Y0041269D01*
X0016316Y0041108D01*
X0016444Y0040951D01*
X0016576Y0040797D01*
X0016712Y0040646D01*
X0016851Y0040498D01*
X0016994Y0040354D01*
X0017140Y0040213D01*
X0017289Y0040076D01*
X0017442Y0039942D01*
X0017598Y0039812D01*
X0017758Y0039686D01*
X0017920Y0039564D01*
X0018085Y0039446D01*
X0018253Y0039332D01*
X0018424Y0039223D01*
X0018597Y0039117D01*
X0018773Y0039015D01*
X0018951Y0038918D01*
X0019132Y0038825D01*
X0019314Y0038737D01*
X0019499Y0038653D01*
X0019686Y0038574D01*
X0019875Y0038499D01*
X0020065Y0038429D01*
X0020257Y0038363D01*
X0020451Y0038302D01*
X0020646Y0038246D01*
X0020842Y0038195D01*
X0021040Y0038148D01*
X0021238Y0038106D01*
X0021438Y0038069D01*
X0021638Y0038037D01*
X0021651Y0038130D01*
X0021453Y0038162D01*
X0021256Y0038198D01*
X0021060Y0038240D01*
X0020864Y0038286D01*
X0020670Y0038337D01*
X0020477Y0038392D01*
X0020286Y0038453D01*
X0020096Y0038517D01*
X0019908Y0038587D01*
X0019721Y0038661D01*
X0019537Y0038739D01*
X0019354Y0038822D01*
X0019173Y0038910D01*
X0018995Y0039001D01*
X0018819Y0039097D01*
X0018645Y0039198D01*
X0018473Y0039302D01*
X0018305Y0039411D01*
X0018139Y0039524D01*
X0017975Y0039640D01*
X0017815Y0039761D01*
X0017658Y0039885D01*
X0017503Y0040014D01*
X0017352Y0040146D01*
X0017204Y0040281D01*
X0017060Y0040420D01*
X0016918Y0040563D01*
X0016781Y0040709D01*
X0016647Y0040858D01*
X0016516Y0041011D01*
X0016390Y0041167D01*
X0016267Y0041325D01*
X0016148Y0041487D01*
X0016033Y0041651D01*
X0015922Y0041819D01*
X0015815Y0041988D01*
X0015712Y0042161D01*
X0015614Y0042336D01*
X0015520Y0042513D01*
X0015430Y0042692D01*
X0015344Y0042874D01*
X0015263Y0043057D01*
X0015187Y0043243D01*
X0015115Y0043430D01*
X0015203Y0043462D01*
X0015274Y0043277D01*
X0015350Y0043094D01*
X0015430Y0042912D01*
X0015515Y0042733D01*
X0015603Y0042555D01*
X0015697Y0042380D01*
X0015794Y0042208D01*
X0015895Y0042037D01*
X0016001Y0041869D01*
X0016111Y0041704D01*
X0016224Y0041541D01*
X0016342Y0041382D01*
X0016463Y0041225D01*
X0016589Y0041071D01*
X0016718Y0040920D01*
X0016850Y0040773D01*
X0016986Y0040628D01*
X0017126Y0040487D01*
X0017269Y0040350D01*
X0017415Y0040216D01*
X0017564Y0040085D01*
X0017717Y0039958D01*
X0017872Y0039835D01*
X0018031Y0039716D01*
X0018192Y0039601D01*
X0018356Y0039489D01*
X0018523Y0039382D01*
X0018693Y0039279D01*
X0018864Y0039180D01*
X0019039Y0039085D01*
X0019215Y0038994D01*
X0019394Y0038908D01*
X0019574Y0038825D01*
X0019757Y0038748D01*
X0019941Y0038675D01*
X0020127Y0038606D01*
X0020315Y0038542D01*
X0020504Y0038482D01*
X0020695Y0038427D01*
X0020887Y0038377D01*
X0021080Y0038332D01*
X0021274Y0038291D01*
X0021469Y0038255D01*
X0021665Y0038223D01*
X0021678Y0038316D01*
X0021484Y0038347D01*
X0021292Y0038383D01*
X0021100Y0038423D01*
X0020909Y0038469D01*
X0020719Y0038518D01*
X0020531Y0038573D01*
X0020344Y0038631D01*
X0020158Y0038695D01*
X0019974Y0038763D01*
X0019792Y0038835D01*
X0019612Y0038912D01*
X0019433Y0038993D01*
X0019257Y0039078D01*
X0019082Y0039168D01*
X0018910Y0039262D01*
X0018740Y0039360D01*
X0018573Y0039462D01*
X0018408Y0039568D01*
X0018246Y0039678D01*
X0018087Y0039792D01*
X0017930Y0039910D01*
X0017776Y0040031D01*
X0017625Y0040157D01*
X0017478Y0040286D01*
X0017333Y0040418D01*
X0017192Y0040554D01*
X0017054Y0040693D01*
X0016919Y0040836D01*
X0016788Y0040982D01*
X0016661Y0041131D01*
X0016537Y0041283D01*
X0016417Y0041438D01*
X0016301Y0041596D01*
X0016189Y0041757D01*
X0016080Y0041920D01*
X0015976Y0042086D01*
X0015875Y0042254D01*
X0015779Y0042425D01*
X0015687Y0042598D01*
X0015599Y0042774D01*
X0015516Y0042951D01*
X0015437Y0043130D01*
X0015362Y0043311D01*
X0015291Y0043494D01*
X0015380Y0043527D01*
X0015449Y0043346D01*
X0015523Y0043167D01*
X0015601Y0042989D01*
X0015684Y0042814D01*
X0015771Y0042641D01*
X0015862Y0042470D01*
X0015957Y0042301D01*
X0016056Y0042135D01*
X0016159Y0041971D01*
X0016267Y0041809D01*
X0016378Y0041651D01*
X0016492Y0041495D01*
X0016611Y0041341D01*
X0016733Y0041191D01*
X0016859Y0041044D01*
X0016989Y0040900D01*
X0017122Y0040759D01*
X0017258Y0040621D01*
X0017397Y0040487D01*
X0017540Y0040356D01*
X0017686Y0040228D01*
X0017835Y0040104D01*
X0017987Y0039984D01*
X0018142Y0039868D01*
X0018300Y0039755D01*
X0018460Y0039646D01*
X0018623Y0039541D01*
X0018788Y0039441D01*
X0018956Y0039344D01*
X0019126Y0039251D01*
X0019298Y0039162D01*
X0019473Y0039078D01*
X0019649Y0038998D01*
X0019828Y0038922D01*
X0020008Y0038851D01*
X0020189Y0038783D01*
X0020373Y0038721D01*
X0020558Y0038663D01*
X0020744Y0038609D01*
X0020931Y0038560D01*
X0021120Y0038515D01*
X0021309Y0038475D01*
X0021500Y0038440D01*
X0021691Y0038409D01*
X0021704Y0038502D01*
X0021515Y0038533D01*
X0021327Y0038568D01*
X0021140Y0038607D01*
X0020953Y0038651D01*
X0020768Y0038700D01*
X0020584Y0038753D01*
X0020402Y0038810D01*
X0020221Y0038872D01*
X0020041Y0038938D01*
X0019863Y0039009D01*
X0019687Y0039084D01*
X0019513Y0039163D01*
X0019340Y0039247D01*
X0019170Y0039334D01*
X0019002Y0039426D01*
X0018836Y0039521D01*
X0018673Y0039621D01*
X0018512Y0039725D01*
X0018353Y0039832D01*
X0018198Y0039944D01*
X0018045Y0040059D01*
X0017894Y0040177D01*
X0017747Y0040300D01*
X0017603Y0040426D01*
X0017462Y0040555D01*
X0017324Y0040688D01*
X0017189Y0040824D01*
X0017058Y0040963D01*
X0016930Y0041106D01*
X0016806Y0041251D01*
X0016685Y0041400D01*
X0016568Y0041551D01*
X0016454Y0041705D01*
X0016344Y0041862D01*
X0016239Y0042021D01*
X0016137Y0042183D01*
X0016039Y0042348D01*
X0015945Y0042515D01*
X0015855Y0042684D01*
X0015769Y0042855D01*
X0015687Y0043028D01*
X0015610Y0043203D01*
X0015537Y0043380D01*
X0015468Y0043559D01*
X0015556Y0043591D01*
X0015624Y0043414D01*
X0015696Y0043240D01*
X0015773Y0043067D01*
X0015854Y0042895D01*
X0015938Y0042726D01*
X0016027Y0042559D01*
X0016120Y0042395D01*
X0016217Y0042232D01*
X0016318Y0042072D01*
X0016422Y0041915D01*
X0016531Y0041760D01*
X0016643Y0041607D01*
X0016759Y0041458D01*
X0016878Y0041311D01*
X0017001Y0041167D01*
X0017127Y0041027D01*
X0017257Y0040889D01*
X0017390Y0040755D01*
X0017526Y0040624D01*
X0017666Y0040496D01*
X0017808Y0040371D01*
X0017954Y0040250D01*
X0018102Y0040133D01*
X0018253Y0040019D01*
X0018407Y0039909D01*
X0018563Y0039803D01*
X0018723Y0039701D01*
X0018884Y0039602D01*
X0019048Y0039508D01*
X0019214Y0039417D01*
X0019382Y0039331D01*
X0019552Y0039248D01*
X0019724Y0039170D01*
X0019898Y0039096D01*
X0020074Y0039026D01*
X0020252Y0038961D01*
X0020431Y0038900D01*
X0020611Y0038843D01*
X0020793Y0038791D01*
X0020976Y0038743D01*
X0021160Y0038699D01*
X0021345Y0038660D01*
X0021531Y0038625D01*
X0021717Y0038595D01*
X0021731Y0038688D01*
X0021546Y0038718D01*
X0021363Y0038752D01*
X0021180Y0038791D01*
X0020998Y0038834D01*
X0020817Y0038881D01*
X0020638Y0038933D01*
X0020460Y0038989D01*
X0020283Y0039050D01*
X0020108Y0039114D01*
X0019934Y0039183D01*
X0019762Y0039256D01*
X0019592Y0039334D01*
X0019424Y0039415D01*
X0019258Y0039500D01*
X0019094Y0039590D01*
X0018932Y0039683D01*
X0018772Y0039781D01*
X0018615Y0039882D01*
X0018461Y0039987D01*
X0018309Y0040095D01*
X0018159Y0040208D01*
X0018013Y0040323D01*
X0017869Y0040443D01*
X0017728Y0040566D01*
X0017591Y0040692D01*
X0017456Y0040822D01*
X0017325Y0040954D01*
X0017197Y0041090D01*
X0017072Y0041229D01*
X0016950Y0041371D01*
X0016832Y0041516D01*
X0016718Y0041664D01*
X0016607Y0041814D01*
X0016500Y0041967D01*
X0016397Y0042123D01*
X0016297Y0042281D01*
X0016202Y0042442D01*
X0016110Y0042604D01*
X0016022Y0042769D01*
X0015938Y0042936D01*
X0015859Y0043105D01*
X0015783Y0043276D01*
X0015712Y0043449D01*
X0015645Y0043623D01*
X0015733Y0043655D01*
X0015799Y0043483D01*
X0015870Y0043312D01*
X0015944Y0043144D01*
X0016023Y0042977D01*
X0016106Y0042812D01*
X0016192Y0042649D01*
X0016283Y0042488D01*
X0016378Y0042330D01*
X0016476Y0042174D01*
X0016578Y0042020D01*
X0016684Y0041869D01*
X0016793Y0041720D01*
X0016906Y0041574D01*
X0017023Y0041431D01*
X0017143Y0041291D01*
X0017266Y0041154D01*
X0017392Y0041020D01*
X0017522Y0040888D01*
X0017655Y0040760D01*
X0017791Y0040636D01*
X0017930Y0040514D01*
X0018072Y0040396D01*
X0018217Y0040282D01*
X0018364Y0040171D01*
X0018514Y0040064D01*
X0018667Y0039960D01*
X0018822Y0039860D01*
X0018980Y0039764D01*
X0019139Y0039672D01*
X0019301Y0039584D01*
X0019465Y0039499D01*
X0019632Y0039419D01*
X0019800Y0039343D01*
X0019969Y0039270D01*
X0020141Y0039202D01*
X0020314Y0039138D01*
X0020488Y0039079D01*
X0020664Y0039023D01*
X0020842Y0038972D01*
X0021020Y0038925D01*
X0021200Y0038883D01*
X0021380Y0038845D01*
X0021562Y0038811D01*
X0021744Y0038782D01*
X0029342Y0040881D02*
X0028655Y0041462D01*
X0028770Y0041603D01*
X0028882Y0041747D01*
X0028990Y0041894D01*
X0029095Y0042043D01*
X0029196Y0042195D01*
X0029293Y0042349D01*
X0029387Y0042505D01*
X0029477Y0042664D01*
X0029563Y0042825D01*
X0029645Y0042988D01*
X0029723Y0043153D01*
X0029797Y0043319D01*
X0029867Y0043488D01*
X0029933Y0043658D01*
X0029995Y0043829D01*
X0030052Y0044002D01*
X0030106Y0044176D01*
X0030155Y0044352D01*
X0030200Y0044529D01*
X0030240Y0044706D01*
X0030277Y0044885D01*
X0030309Y0045064D01*
X0030337Y0045245D01*
X0030360Y0045425D01*
X0030379Y0045607D01*
X0030394Y0045789D01*
X0030404Y0045971D01*
X0030410Y0046153D01*
X0030411Y0046335D01*
X0030408Y0046517D01*
X0030401Y0046700D01*
X0030389Y0046882D01*
X0030373Y0047063D01*
X0030352Y0047244D01*
X0030327Y0047425D01*
X0030298Y0047605D01*
X0030264Y0047784D01*
X0030226Y0047962D01*
X0030184Y0048140D01*
X0030137Y0048316D01*
X0030087Y0048491D01*
X0030032Y0048665D01*
X0029973Y0048837D01*
X0030818Y0049145D01*
X0030885Y0048952D01*
X0030946Y0048757D01*
X0031003Y0048561D01*
X0031056Y0048363D01*
X0031103Y0048165D01*
X0031146Y0047965D01*
X0031184Y0047764D01*
X0031216Y0047562D01*
X0031245Y0047360D01*
X0031268Y0047157D01*
X0031286Y0046953D01*
X0031299Y0046750D01*
X0031307Y0046545D01*
X0031311Y0046341D01*
X0031309Y0046137D01*
X0031303Y0045933D01*
X0031292Y0045729D01*
X0031275Y0045525D01*
X0031254Y0045322D01*
X0031228Y0045119D01*
X0031197Y0044917D01*
X0031161Y0044716D01*
X0031120Y0044516D01*
X0031074Y0044317D01*
X0031024Y0044118D01*
X0030969Y0043922D01*
X0030909Y0043726D01*
X0030844Y0043533D01*
X0030775Y0043340D01*
X0030701Y0043150D01*
X0030623Y0042961D01*
X0030539Y0042775D01*
X0030452Y0042590D01*
X0030360Y0042407D01*
X0030264Y0042227D01*
X0030163Y0042049D01*
X0030058Y0041874D01*
X0029949Y0041701D01*
X0029835Y0041531D01*
X0029718Y0041364D01*
X0029597Y0041200D01*
X0029471Y0041038D01*
X0029342Y0040880D01*
X0029270Y0040941D01*
X0029398Y0041097D01*
X0029522Y0041257D01*
X0029642Y0041419D01*
X0029758Y0041585D01*
X0029870Y0041753D01*
X0029978Y0041924D01*
X0030082Y0042097D01*
X0030181Y0042273D01*
X0030277Y0042451D01*
X0030368Y0042631D01*
X0030454Y0042814D01*
X0030536Y0042999D01*
X0030614Y0043185D01*
X0030687Y0043373D01*
X0030756Y0043564D01*
X0030819Y0043755D01*
X0030879Y0043948D01*
X0030933Y0044143D01*
X0030983Y0044339D01*
X0031028Y0044536D01*
X0031068Y0044734D01*
X0031104Y0044932D01*
X0031135Y0045132D01*
X0031161Y0045333D01*
X0031182Y0045533D01*
X0031198Y0045735D01*
X0031209Y0045937D01*
X0031215Y0046138D01*
X0031217Y0046341D01*
X0031214Y0046543D01*
X0031205Y0046744D01*
X0031192Y0046946D01*
X0031174Y0047147D01*
X0031151Y0047348D01*
X0031124Y0047548D01*
X0031091Y0047747D01*
X0031054Y0047946D01*
X0031012Y0048144D01*
X0030965Y0048340D01*
X0030913Y0048535D01*
X0030857Y0048729D01*
X0030796Y0048922D01*
X0030730Y0049113D01*
X0030642Y0049081D01*
X0030707Y0048892D01*
X0030767Y0048702D01*
X0030823Y0048510D01*
X0030874Y0048317D01*
X0030920Y0048122D01*
X0030962Y0047927D01*
X0030999Y0047731D01*
X0031031Y0047534D01*
X0031058Y0047336D01*
X0031081Y0047137D01*
X0031098Y0046938D01*
X0031111Y0046739D01*
X0031120Y0046540D01*
X0031123Y0046340D01*
X0031121Y0046140D01*
X0031115Y0045941D01*
X0031104Y0045741D01*
X0031088Y0045542D01*
X0031067Y0045343D01*
X0031042Y0045145D01*
X0031011Y0044948D01*
X0030976Y0044751D01*
X0030936Y0044556D01*
X0030892Y0044361D01*
X0030842Y0044167D01*
X0030789Y0043975D01*
X0030730Y0043784D01*
X0030667Y0043594D01*
X0030599Y0043407D01*
X0030527Y0043220D01*
X0030450Y0043036D01*
X0030369Y0042853D01*
X0030283Y0042673D01*
X0030193Y0042495D01*
X0030099Y0042319D01*
X0030001Y0042145D01*
X0029898Y0041973D01*
X0029792Y0041804D01*
X0029681Y0041638D01*
X0029566Y0041475D01*
X0029447Y0041314D01*
X0029325Y0041156D01*
X0029199Y0041002D01*
X0029127Y0041062D01*
X0029252Y0041215D01*
X0029373Y0041371D01*
X0029490Y0041530D01*
X0029604Y0041692D01*
X0029713Y0041856D01*
X0029818Y0042023D01*
X0029920Y0042192D01*
X0030017Y0042364D01*
X0030110Y0042538D01*
X0030199Y0042715D01*
X0030284Y0042893D01*
X0030364Y0043073D01*
X0030440Y0043256D01*
X0030511Y0043440D01*
X0030578Y0043625D01*
X0030640Y0043813D01*
X0030698Y0044002D01*
X0030752Y0044192D01*
X0030800Y0044383D01*
X0030844Y0044575D01*
X0030884Y0044769D01*
X0030919Y0044963D01*
X0030949Y0045158D01*
X0030974Y0045354D01*
X0030994Y0045551D01*
X0031010Y0045747D01*
X0031021Y0045944D01*
X0031027Y0046142D01*
X0031029Y0046339D01*
X0031026Y0046537D01*
X0031018Y0046734D01*
X0031005Y0046931D01*
X0030987Y0047128D01*
X0030965Y0047324D01*
X0030938Y0047519D01*
X0030906Y0047714D01*
X0030870Y0047908D01*
X0030828Y0048101D01*
X0030783Y0048293D01*
X0030732Y0048484D01*
X0030677Y0048674D01*
X0030617Y0048862D01*
X0030553Y0049049D01*
X0030465Y0049017D01*
X0030528Y0048832D01*
X0030587Y0048646D01*
X0030642Y0048459D01*
X0030691Y0048270D01*
X0030737Y0048080D01*
X0030777Y0047889D01*
X0030813Y0047698D01*
X0030845Y0047505D01*
X0030872Y0047312D01*
X0030894Y0047118D01*
X0030911Y0046923D01*
X0030924Y0046729D01*
X0030932Y0046534D01*
X0030935Y0046339D01*
X0030933Y0046143D01*
X0030927Y0045948D01*
X0030916Y0045754D01*
X0030901Y0045559D01*
X0030880Y0045365D01*
X0030855Y0045171D01*
X0030826Y0044979D01*
X0030792Y0044787D01*
X0030753Y0044595D01*
X0030709Y0044405D01*
X0030661Y0044216D01*
X0030608Y0044028D01*
X0030551Y0043842D01*
X0030489Y0043656D01*
X0030423Y0043473D01*
X0030353Y0043291D01*
X0030278Y0043111D01*
X0030198Y0042932D01*
X0030115Y0042756D01*
X0030027Y0042582D01*
X0029935Y0042410D01*
X0029839Y0042240D01*
X0029739Y0042073D01*
X0029634Y0041908D01*
X0029526Y0041745D01*
X0029414Y0041585D01*
X0029298Y0041428D01*
X0029179Y0041274D01*
X0029055Y0041123D01*
X0028983Y0041184D01*
X0029105Y0041333D01*
X0029224Y0041486D01*
X0029338Y0041641D01*
X0029449Y0041799D01*
X0029556Y0041959D01*
X0029659Y0042122D01*
X0029758Y0042288D01*
X0029853Y0042455D01*
X0029944Y0042625D01*
X0030030Y0042798D01*
X0030113Y0042972D01*
X0030191Y0043148D01*
X0030265Y0043326D01*
X0030335Y0043506D01*
X0030401Y0043687D01*
X0030461Y0043870D01*
X0030518Y0044055D01*
X0030570Y0044240D01*
X0030618Y0044427D01*
X0030661Y0044615D01*
X0030699Y0044804D01*
X0030733Y0044994D01*
X0030762Y0045185D01*
X0030787Y0045376D01*
X0030807Y0045568D01*
X0030823Y0045760D01*
X0030833Y0045952D01*
X0030839Y0046145D01*
X0030841Y0046338D01*
X0030838Y0046531D01*
X0030830Y0046723D01*
X0030817Y0046916D01*
X0030800Y0047108D01*
X0030778Y0047300D01*
X0030752Y0047491D01*
X0030721Y0047681D01*
X0030685Y0047870D01*
X0030645Y0048059D01*
X0030600Y0048247D01*
X0030551Y0048433D01*
X0030497Y0048618D01*
X0030439Y0048802D01*
X0030377Y0048984D01*
X0030288Y0048952D01*
X0030350Y0048772D01*
X0030408Y0048590D01*
X0030461Y0048407D01*
X0030509Y0048223D01*
X0030554Y0048038D01*
X0030593Y0047852D01*
X0030628Y0047664D01*
X0030659Y0047476D01*
X0030685Y0047287D01*
X0030707Y0047098D01*
X0030724Y0046908D01*
X0030736Y0046718D01*
X0030744Y0046528D01*
X0030747Y0046337D01*
X0030745Y0046147D01*
X0030739Y0045956D01*
X0030729Y0045766D01*
X0030714Y0045576D01*
X0030694Y0045387D01*
X0030669Y0045198D01*
X0030640Y0045009D01*
X0030607Y0044822D01*
X0030569Y0044635D01*
X0030526Y0044449D01*
X0030479Y0044265D01*
X0030428Y0044081D01*
X0030372Y0043899D01*
X0030312Y0043718D01*
X0030247Y0043539D01*
X0030178Y0043361D01*
X0030105Y0043186D01*
X0030028Y0043011D01*
X0029946Y0042839D01*
X0029860Y0042669D01*
X0029771Y0042501D01*
X0029677Y0042335D01*
X0029579Y0042172D01*
X0029477Y0042011D01*
X0029372Y0041852D01*
X0029262Y0041696D01*
X0029149Y0041543D01*
X0029032Y0041392D01*
X0028912Y0041245D01*
X0028840Y0041305D01*
X0028959Y0041451D01*
X0029074Y0041600D01*
X0029186Y0041751D01*
X0029294Y0041905D01*
X0029399Y0042062D01*
X0029499Y0042221D01*
X0029596Y0042383D01*
X0029688Y0042547D01*
X0029777Y0042713D01*
X0029862Y0042881D01*
X0029942Y0043051D01*
X0030019Y0043223D01*
X0030091Y0043397D01*
X0030159Y0043572D01*
X0030223Y0043749D01*
X0030283Y0043928D01*
X0030338Y0044108D01*
X0030389Y0044289D01*
X0030435Y0044472D01*
X0030477Y0044655D01*
X0030515Y0044840D01*
X0030548Y0045025D01*
X0030576Y0045211D01*
X0030600Y0045398D01*
X0030620Y0045585D01*
X0030635Y0045772D01*
X0030646Y0045960D01*
X0030651Y0046148D01*
X0030653Y0046337D01*
X0030650Y0046525D01*
X0030642Y0046713D01*
X0030630Y0046901D01*
X0030613Y0047088D01*
X0030592Y0047275D01*
X0030566Y0047462D01*
X0030536Y0047648D01*
X0030501Y0047833D01*
X0030462Y0048017D01*
X0030418Y0048200D01*
X0030370Y0048382D01*
X0030318Y0048563D01*
X0030261Y0048742D01*
X0030200Y0048920D01*
X0030112Y0048888D01*
X0030172Y0048712D01*
X0030228Y0048535D01*
X0030280Y0048356D01*
X0030327Y0048177D01*
X0030370Y0047996D01*
X0030409Y0047814D01*
X0030443Y0047631D01*
X0030473Y0047447D01*
X0030499Y0047263D01*
X0030520Y0047079D01*
X0030536Y0046893D01*
X0030548Y0046708D01*
X0030556Y0046522D01*
X0030559Y0046336D01*
X0030558Y0046150D01*
X0030552Y0045964D01*
X0030541Y0045779D01*
X0030526Y0045593D01*
X0030507Y0045408D01*
X0030483Y0045224D01*
X0030455Y0045040D01*
X0030422Y0044857D01*
X0030385Y0044675D01*
X0030344Y0044494D01*
X0030298Y0044314D01*
X0030248Y0044134D01*
X0030193Y0043957D01*
X0030134Y0043780D01*
X0030071Y0043605D01*
X0030004Y0043432D01*
X0029933Y0043260D01*
X0029857Y0043090D01*
X0029777Y0042922D01*
X0029694Y0042756D01*
X0029606Y0042592D01*
X0029515Y0042430D01*
X0029419Y0042271D01*
X0029320Y0042114D01*
X0029217Y0041959D01*
X0029110Y0041807D01*
X0029000Y0041657D01*
X0028886Y0041510D01*
X0028768Y0041366D01*
X0028696Y0041427D01*
X0028813Y0041569D01*
X0028925Y0041714D01*
X0029034Y0041862D01*
X0029140Y0042012D01*
X0029241Y0042165D01*
X0029339Y0042321D01*
X0029434Y0042478D01*
X0029524Y0042638D01*
X0029611Y0042800D01*
X0029693Y0042964D01*
X0029772Y0043130D01*
X0029846Y0043298D01*
X0029917Y0043467D01*
X0029983Y0043638D01*
X0030046Y0043811D01*
X0030104Y0043985D01*
X0030157Y0044161D01*
X0030207Y0044338D01*
X0030252Y0044516D01*
X0030293Y0044695D01*
X0030330Y0044875D01*
X0030362Y0045056D01*
X0030390Y0045237D01*
X0030414Y0045419D01*
X0030433Y0045602D01*
X0030447Y0045785D01*
X0030458Y0045968D01*
X0030464Y0046152D01*
X0030465Y0046335D01*
X0030462Y0046519D01*
X0030454Y0046703D01*
X0030443Y0046886D01*
X0030426Y0047069D01*
X0030406Y0047251D01*
X0030380Y0047433D01*
X0030351Y0047614D01*
X0030317Y0047795D01*
X0030279Y0047974D01*
X0030236Y0048153D01*
X0030189Y0048331D01*
X0030138Y0048507D01*
X0030083Y0048682D01*
X0030023Y0048856D01*
X0015533Y0050509D02*
X0016311Y0050056D01*
X0016310Y0050057D02*
X0016222Y0049899D01*
X0016138Y0049738D01*
X0016058Y0049576D01*
X0015981Y0049412D01*
X0015908Y0049247D01*
X0015840Y0049079D01*
X0015775Y0048910D01*
X0015715Y0048740D01*
X0015659Y0048568D01*
X0015606Y0048394D01*
X0015558Y0048220D01*
X0015515Y0048044D01*
X0015475Y0047868D01*
X0015440Y0047690D01*
X0015408Y0047512D01*
X0015382Y0047333D01*
X0015359Y0047154D01*
X0015341Y0046974D01*
X0015327Y0046793D01*
X0015317Y0046613D01*
X0015312Y0046432D01*
X0015311Y0046251D01*
X0015315Y0046070D01*
X0015322Y0045889D01*
X0015334Y0045709D01*
X0015351Y0045528D01*
X0015372Y0045349D01*
X0015397Y0045169D01*
X0015426Y0044991D01*
X0015459Y0044813D01*
X0015497Y0044636D01*
X0015539Y0044460D01*
X0015586Y0044285D01*
X0015636Y0044111D01*
X0015691Y0043939D01*
X0015749Y0043768D01*
X0014904Y0043460D01*
X0014838Y0043652D01*
X0014776Y0043845D01*
X0014720Y0044040D01*
X0014668Y0044236D01*
X0014620Y0044433D01*
X0014578Y0044632D01*
X0014540Y0044831D01*
X0014507Y0045031D01*
X0014479Y0045232D01*
X0014456Y0045433D01*
X0014437Y0045635D01*
X0014424Y0045838D01*
X0014415Y0046040D01*
X0014411Y0046243D01*
X0014412Y0046446D01*
X0014418Y0046649D01*
X0014429Y0046851D01*
X0014444Y0047054D01*
X0014465Y0047255D01*
X0014490Y0047457D01*
X0014520Y0047657D01*
X0014555Y0047857D01*
X0014595Y0048056D01*
X0014639Y0048254D01*
X0014688Y0048451D01*
X0014742Y0048646D01*
X0014801Y0048840D01*
X0014864Y0049033D01*
X0014932Y0049224D01*
X0015004Y0049414D01*
X0015081Y0049602D01*
X0015163Y0049787D01*
X0015249Y0049971D01*
X0015339Y0050153D01*
X0015433Y0050332D01*
X0015532Y0050509D01*
X0015614Y0050462D01*
X0015516Y0050287D01*
X0015422Y0050109D01*
X0015333Y0049930D01*
X0015248Y0049748D01*
X0015168Y0049564D01*
X0015092Y0049379D01*
X0015020Y0049192D01*
X0014953Y0049003D01*
X0014891Y0048812D01*
X0014833Y0048620D01*
X0014779Y0048427D01*
X0014731Y0048232D01*
X0014687Y0048036D01*
X0014648Y0047840D01*
X0014613Y0047642D01*
X0014583Y0047444D01*
X0014558Y0047245D01*
X0014538Y0047045D01*
X0014523Y0046845D01*
X0014512Y0046645D01*
X0014506Y0046445D01*
X0014505Y0046244D01*
X0014509Y0046043D01*
X0014518Y0045843D01*
X0014531Y0045643D01*
X0014549Y0045443D01*
X0014572Y0045244D01*
X0014600Y0045045D01*
X0014633Y0044848D01*
X0014670Y0044650D01*
X0014712Y0044454D01*
X0014759Y0044259D01*
X0014810Y0044065D01*
X0014866Y0043873D01*
X0014927Y0043682D01*
X0014992Y0043492D01*
X0015080Y0043524D01*
X0015016Y0043712D01*
X0014956Y0043901D01*
X0014901Y0044091D01*
X0014850Y0044283D01*
X0014804Y0044476D01*
X0014762Y0044669D01*
X0014725Y0044864D01*
X0014693Y0045060D01*
X0014666Y0045256D01*
X0014643Y0045453D01*
X0014625Y0045651D01*
X0014612Y0045848D01*
X0014603Y0046047D01*
X0014599Y0046245D01*
X0014600Y0046443D01*
X0014606Y0046641D01*
X0014616Y0046839D01*
X0014632Y0047037D01*
X0014652Y0047234D01*
X0014676Y0047431D01*
X0014706Y0047627D01*
X0014740Y0047822D01*
X0014779Y0048017D01*
X0014822Y0048210D01*
X0014870Y0048402D01*
X0014923Y0048594D01*
X0014980Y0048783D01*
X0015042Y0048972D01*
X0015108Y0049159D01*
X0015179Y0049344D01*
X0015254Y0049527D01*
X0015334Y0049709D01*
X0015418Y0049889D01*
X0015506Y0050066D01*
X0015598Y0050242D01*
X0015695Y0050415D01*
X0015776Y0050367D01*
X0015681Y0050196D01*
X0015589Y0050023D01*
X0015502Y0049847D01*
X0015419Y0049670D01*
X0015341Y0049490D01*
X0015266Y0049309D01*
X0015196Y0049126D01*
X0015131Y0048941D01*
X0015070Y0048755D01*
X0015013Y0048567D01*
X0014961Y0048378D01*
X0014914Y0048188D01*
X0014871Y0047997D01*
X0014832Y0047805D01*
X0014799Y0047612D01*
X0014769Y0047418D01*
X0014745Y0047224D01*
X0014725Y0047029D01*
X0014710Y0046833D01*
X0014700Y0046637D01*
X0014694Y0046442D01*
X0014693Y0046246D01*
X0014697Y0046050D01*
X0014705Y0045854D01*
X0014718Y0045658D01*
X0014736Y0045463D01*
X0014759Y0045268D01*
X0014786Y0045074D01*
X0014818Y0044881D01*
X0014854Y0044688D01*
X0014895Y0044497D01*
X0014941Y0044306D01*
X0014991Y0044117D01*
X0015046Y0043929D01*
X0015105Y0043742D01*
X0015169Y0043556D01*
X0015257Y0043589D01*
X0015194Y0043772D01*
X0015136Y0043956D01*
X0015081Y0044142D01*
X0015032Y0044330D01*
X0014987Y0044518D01*
X0014946Y0044707D01*
X0014910Y0044898D01*
X0014879Y0045089D01*
X0014852Y0045281D01*
X0014830Y0045473D01*
X0014812Y0045666D01*
X0014799Y0045859D01*
X0014791Y0046053D01*
X0014787Y0046246D01*
X0014788Y0046440D01*
X0014794Y0046634D01*
X0014804Y0046827D01*
X0014819Y0047020D01*
X0014838Y0047213D01*
X0014863Y0047405D01*
X0014891Y0047597D01*
X0014925Y0047787D01*
X0014963Y0047977D01*
X0015005Y0048166D01*
X0015052Y0048354D01*
X0015103Y0048541D01*
X0015159Y0048726D01*
X0015220Y0048911D01*
X0015284Y0049093D01*
X0015354Y0049274D01*
X0015427Y0049453D01*
X0015505Y0049631D01*
X0015587Y0049806D01*
X0015673Y0049980D01*
X0015763Y0050151D01*
X0015857Y0050320D01*
X0015939Y0050273D01*
X0015845Y0050106D01*
X0015756Y0049936D01*
X0015671Y0049765D01*
X0015590Y0049592D01*
X0015513Y0049416D01*
X0015441Y0049239D01*
X0015372Y0049060D01*
X0015309Y0048880D01*
X0015249Y0048698D01*
X0015194Y0048515D01*
X0015143Y0048330D01*
X0015096Y0048144D01*
X0015054Y0047958D01*
X0015017Y0047770D01*
X0014984Y0047581D01*
X0014956Y0047392D01*
X0014932Y0047202D01*
X0014913Y0047012D01*
X0014898Y0046821D01*
X0014888Y0046630D01*
X0014882Y0046439D01*
X0014881Y0046247D01*
X0014885Y0046056D01*
X0014893Y0045865D01*
X0014906Y0045674D01*
X0014923Y0045483D01*
X0014945Y0045293D01*
X0014972Y0045103D01*
X0015003Y0044914D01*
X0015038Y0044726D01*
X0015078Y0044539D01*
X0015123Y0044353D01*
X0015172Y0044168D01*
X0015225Y0043984D01*
X0015283Y0043802D01*
X0015345Y0043621D01*
X0015434Y0043653D01*
X0015372Y0043832D01*
X0015315Y0044012D01*
X0015262Y0044194D01*
X0015214Y0044376D01*
X0015170Y0044560D01*
X0015130Y0044745D01*
X0015095Y0044931D01*
X0015065Y0045118D01*
X0015038Y0045305D01*
X0015017Y0045493D01*
X0015000Y0045681D01*
X0014987Y0045870D01*
X0014979Y0046059D01*
X0014975Y0046248D01*
X0014976Y0046437D01*
X0014982Y0046626D01*
X0014992Y0046815D01*
X0015006Y0047003D01*
X0015025Y0047192D01*
X0015049Y0047379D01*
X0015077Y0047566D01*
X0015109Y0047753D01*
X0015146Y0047938D01*
X0015188Y0048123D01*
X0015234Y0048306D01*
X0015284Y0048488D01*
X0015338Y0048669D01*
X0015397Y0048849D01*
X0015461Y0049027D01*
X0015528Y0049204D01*
X0015600Y0049379D01*
X0015676Y0049552D01*
X0015756Y0049724D01*
X0015840Y0049893D01*
X0015928Y0050060D01*
X0016020Y0050226D01*
X0016101Y0050178D01*
X0016010Y0050015D01*
X0015923Y0049850D01*
X0015840Y0049683D01*
X0015761Y0049513D01*
X0015686Y0049342D01*
X0015615Y0049169D01*
X0015549Y0048995D01*
X0015486Y0048819D01*
X0015428Y0048641D01*
X0015374Y0048462D01*
X0015324Y0048282D01*
X0015279Y0048101D01*
X0015238Y0047918D01*
X0015202Y0047735D01*
X0015170Y0047551D01*
X0015142Y0047366D01*
X0015119Y0047181D01*
X0015100Y0046995D01*
X0015085Y0046809D01*
X0015076Y0046622D01*
X0015070Y0046436D01*
X0015069Y0046249D01*
X0015073Y0046062D01*
X0015081Y0045875D01*
X0015093Y0045689D01*
X0015110Y0045503D01*
X0015132Y0045317D01*
X0015157Y0045132D01*
X0015188Y0044948D01*
X0015222Y0044764D01*
X0015262Y0044582D01*
X0015305Y0044400D01*
X0015353Y0044219D01*
X0015405Y0044040D01*
X0015461Y0043862D01*
X0015522Y0043685D01*
X0015610Y0043717D01*
X0015550Y0043892D01*
X0015495Y0044068D01*
X0015443Y0044245D01*
X0015396Y0044423D01*
X0015353Y0044603D01*
X0015315Y0044783D01*
X0015280Y0044965D01*
X0015250Y0045147D01*
X0015225Y0045329D01*
X0015204Y0045513D01*
X0015187Y0045696D01*
X0015175Y0045881D01*
X0015167Y0046065D01*
X0015163Y0046250D01*
X0015164Y0046434D01*
X0015169Y0046619D01*
X0015179Y0046803D01*
X0015193Y0046987D01*
X0015212Y0047170D01*
X0015235Y0047354D01*
X0015262Y0047536D01*
X0015294Y0047718D01*
X0015330Y0047899D01*
X0015371Y0048079D01*
X0015415Y0048258D01*
X0015464Y0048436D01*
X0015518Y0048613D01*
X0015575Y0048788D01*
X0015637Y0048962D01*
X0015703Y0049134D01*
X0015772Y0049305D01*
X0015846Y0049474D01*
X0015925Y0049641D01*
X0016007Y0049807D01*
X0016092Y0049970D01*
X0016182Y0050131D01*
X0016264Y0050084D01*
X0016175Y0049925D01*
X0016090Y0049763D01*
X0016009Y0049600D01*
X0015932Y0049435D01*
X0015859Y0049268D01*
X0015790Y0049099D01*
X0015725Y0048929D01*
X0015664Y0048757D01*
X0015607Y0048584D01*
X0015555Y0048410D01*
X0015506Y0048234D01*
X0015462Y0048057D01*
X0015422Y0047879D01*
X0015387Y0047700D01*
X0015355Y0047521D01*
X0015328Y0047341D01*
X0015305Y0047160D01*
X0015287Y0046978D01*
X0015273Y0046797D01*
X0015263Y0046615D01*
X0015258Y0046433D01*
X0015257Y0046250D01*
X0015261Y0046068D01*
X0015268Y0045886D01*
X0015281Y0045704D01*
X0015297Y0045523D01*
X0015318Y0045342D01*
X0015343Y0045161D01*
X0015373Y0044981D01*
X0015407Y0044802D01*
X0015445Y0044624D01*
X0015487Y0044447D01*
X0015534Y0044270D01*
X0015585Y0044095D01*
X0015639Y0043922D01*
X0015699Y0043749D01*
D17*
X0315678Y0079050D02*
X0316085Y0079241D01*
X0316084Y0079241D02*
X0316185Y0079035D01*
X0316289Y0078832D01*
X0316399Y0078631D01*
X0316513Y0078432D01*
X0316631Y0078236D01*
X0316753Y0078043D01*
X0316880Y0077853D01*
X0317011Y0077665D01*
X0317146Y0077480D01*
X0317285Y0077299D01*
X0316932Y0077021D01*
X0316932Y0077020D01*
X0316786Y0077210D01*
X0316645Y0077403D01*
X0316508Y0077599D01*
X0316376Y0077798D01*
X0316248Y0078000D01*
X0316125Y0078204D01*
X0316006Y0078412D01*
X0315891Y0078622D01*
X0315782Y0078834D01*
X0315677Y0079049D01*
X0315720Y0079069D01*
X0315824Y0078855D01*
X0315933Y0078644D01*
X0316047Y0078435D01*
X0316165Y0078228D01*
X0316288Y0078024D01*
X0316415Y0077823D01*
X0316547Y0077625D01*
X0316683Y0077430D01*
X0316824Y0077238D01*
X0316969Y0077049D01*
X0317006Y0077078D01*
X0316862Y0077266D01*
X0316722Y0077457D01*
X0316586Y0077652D01*
X0316455Y0077849D01*
X0316328Y0078049D01*
X0316206Y0078252D01*
X0316088Y0078457D01*
X0315975Y0078666D01*
X0315866Y0078876D01*
X0315762Y0079089D01*
X0315805Y0079109D01*
X0315908Y0078897D01*
X0316016Y0078688D01*
X0316129Y0078480D01*
X0316246Y0078276D01*
X0316368Y0078074D01*
X0316494Y0077875D01*
X0316625Y0077678D01*
X0316760Y0077485D01*
X0316899Y0077295D01*
X0317043Y0077107D01*
X0317080Y0077136D01*
X0316937Y0077323D01*
X0316798Y0077512D01*
X0316664Y0077705D01*
X0316534Y0077900D01*
X0316408Y0078098D01*
X0316287Y0078300D01*
X0316170Y0078503D01*
X0316058Y0078709D01*
X0315950Y0078918D01*
X0315847Y0079129D01*
X0315890Y0079149D01*
X0315992Y0078939D01*
X0316099Y0078731D01*
X0316211Y0078526D01*
X0316327Y0078323D01*
X0316448Y0078123D01*
X0316573Y0077926D01*
X0316702Y0077731D01*
X0316836Y0077540D01*
X0316974Y0077351D01*
X0317116Y0077166D01*
X0317153Y0077195D01*
X0317012Y0077379D01*
X0316874Y0077567D01*
X0316741Y0077758D01*
X0316612Y0077951D01*
X0316488Y0078148D01*
X0316368Y0078347D01*
X0316252Y0078549D01*
X0316141Y0078753D01*
X0316034Y0078960D01*
X0315932Y0079169D01*
X0315975Y0079189D01*
X0316076Y0078981D01*
X0316182Y0078775D01*
X0316293Y0078572D01*
X0316408Y0078371D01*
X0316528Y0078173D01*
X0316652Y0077977D01*
X0316780Y0077784D01*
X0316913Y0077594D01*
X0317049Y0077407D01*
X0317190Y0077224D01*
X0317227Y0077253D01*
X0317087Y0077436D01*
X0316951Y0077622D01*
X0316819Y0077811D01*
X0316691Y0078003D01*
X0316568Y0078197D01*
X0316449Y0078395D01*
X0316334Y0078595D01*
X0316224Y0078797D01*
X0316118Y0079002D01*
X0316017Y0079209D01*
X0316060Y0079229D01*
X0316160Y0079023D01*
X0316266Y0078819D01*
X0316375Y0078618D01*
X0316489Y0078419D01*
X0316608Y0078222D01*
X0316731Y0078028D01*
X0316858Y0077837D01*
X0316989Y0077649D01*
X0317125Y0077464D01*
X0317264Y0077282D01*
X0335064Y0088230D02*
X0334657Y0088038D01*
X0334658Y0088039D02*
X0334547Y0088265D01*
X0334431Y0088489D01*
X0334309Y0088710D01*
X0334182Y0088927D01*
X0334050Y0089142D01*
X0333912Y0089353D01*
X0333770Y0089561D01*
X0333622Y0089765D01*
X0333469Y0089966D01*
X0333312Y0090162D01*
X0333149Y0090355D01*
X0332982Y0090544D01*
X0332811Y0090728D01*
X0332634Y0090909D01*
X0332454Y0091085D01*
X0332269Y0091256D01*
X0332080Y0091423D01*
X0331887Y0091585D01*
X0331691Y0091743D01*
X0331490Y0091895D01*
X0331286Y0092043D01*
X0331078Y0092185D01*
X0330866Y0092323D01*
X0330652Y0092455D01*
X0330434Y0092582D01*
X0330213Y0092703D01*
X0329989Y0092819D01*
X0329763Y0092930D01*
X0329534Y0093034D01*
X0329302Y0093134D01*
X0329068Y0093227D01*
X0328832Y0093315D01*
X0328593Y0093397D01*
X0328353Y0093473D01*
X0328111Y0093543D01*
X0327867Y0093607D01*
X0327622Y0093666D01*
X0327375Y0093718D01*
X0327128Y0093764D01*
X0326879Y0093804D01*
X0326629Y0093838D01*
X0326379Y0093866D01*
X0326127Y0093887D01*
X0325876Y0093903D01*
X0325624Y0093912D01*
X0325372Y0093915D01*
X0325120Y0093912D01*
X0324868Y0093903D01*
X0324617Y0093887D01*
X0324365Y0093866D01*
X0324115Y0093838D01*
X0323865Y0093804D01*
X0323616Y0093764D01*
X0323369Y0093718D01*
X0323122Y0093666D01*
X0322877Y0093607D01*
X0322633Y0093543D01*
X0322391Y0093473D01*
X0322151Y0093397D01*
X0321912Y0093315D01*
X0321676Y0093227D01*
X0321442Y0093134D01*
X0321210Y0093034D01*
X0320981Y0092930D01*
X0320755Y0092819D01*
X0320531Y0092703D01*
X0320310Y0092582D01*
X0320092Y0092455D01*
X0319878Y0092323D01*
X0319666Y0092185D01*
X0319458Y0092043D01*
X0319254Y0091895D01*
X0319053Y0091743D01*
X0318857Y0091585D01*
X0318664Y0091423D01*
X0318475Y0091256D01*
X0318290Y0091085D01*
X0318110Y0090909D01*
X0317933Y0090728D01*
X0317762Y0090544D01*
X0317595Y0090355D01*
X0317432Y0090162D01*
X0317275Y0089966D01*
X0317122Y0089765D01*
X0316974Y0089561D01*
X0316832Y0089353D01*
X0316694Y0089142D01*
X0316562Y0088927D01*
X0316435Y0088710D01*
X0316313Y0088489D01*
X0316197Y0088265D01*
X0316086Y0088039D01*
X0315680Y0088230D01*
X0315679Y0088230D01*
X0315795Y0088467D01*
X0315916Y0088700D01*
X0316043Y0088931D01*
X0316175Y0089158D01*
X0316314Y0089382D01*
X0316457Y0089602D01*
X0316606Y0089819D01*
X0316760Y0090033D01*
X0316920Y0090242D01*
X0317084Y0090447D01*
X0317254Y0090648D01*
X0317428Y0090845D01*
X0317607Y0091038D01*
X0317791Y0091226D01*
X0317979Y0091410D01*
X0318172Y0091589D01*
X0318369Y0091763D01*
X0318571Y0091933D01*
X0318776Y0092097D01*
X0318986Y0092256D01*
X0319199Y0092410D01*
X0319416Y0092559D01*
X0319636Y0092703D01*
X0319861Y0092840D01*
X0320088Y0092973D01*
X0320318Y0093100D01*
X0320552Y0093221D01*
X0320788Y0093336D01*
X0321028Y0093446D01*
X0321269Y0093549D01*
X0321514Y0093647D01*
X0321760Y0093739D01*
X0322009Y0093824D01*
X0322260Y0093904D01*
X0322513Y0093977D01*
X0322767Y0094044D01*
X0323023Y0094105D01*
X0323281Y0094159D01*
X0323539Y0094207D01*
X0323799Y0094249D01*
X0324060Y0094284D01*
X0324321Y0094313D01*
X0324583Y0094336D01*
X0324846Y0094352D01*
X0325109Y0094362D01*
X0325372Y0094365D01*
X0325635Y0094362D01*
X0325898Y0094352D01*
X0326161Y0094336D01*
X0326423Y0094313D01*
X0326684Y0094284D01*
X0326945Y0094249D01*
X0327205Y0094207D01*
X0327463Y0094159D01*
X0327721Y0094105D01*
X0327977Y0094044D01*
X0328231Y0093977D01*
X0328484Y0093904D01*
X0328735Y0093824D01*
X0328984Y0093739D01*
X0329230Y0093647D01*
X0329475Y0093549D01*
X0329716Y0093446D01*
X0329956Y0093336D01*
X0330192Y0093221D01*
X0330426Y0093100D01*
X0330656Y0092973D01*
X0330883Y0092840D01*
X0331108Y0092703D01*
X0331328Y0092559D01*
X0331545Y0092410D01*
X0331758Y0092256D01*
X0331968Y0092097D01*
X0332173Y0091933D01*
X0332375Y0091763D01*
X0332572Y0091589D01*
X0332765Y0091410D01*
X0332953Y0091226D01*
X0333137Y0091038D01*
X0333316Y0090845D01*
X0333490Y0090648D01*
X0333660Y0090447D01*
X0333824Y0090242D01*
X0333984Y0090033D01*
X0334138Y0089819D01*
X0334287Y0089602D01*
X0334430Y0089382D01*
X0334569Y0089158D01*
X0334701Y0088931D01*
X0334828Y0088700D01*
X0334949Y0088467D01*
X0335065Y0088230D01*
X0335022Y0088210D01*
X0334907Y0088446D01*
X0334787Y0088678D01*
X0334660Y0088908D01*
X0334528Y0089134D01*
X0334391Y0089357D01*
X0334248Y0089576D01*
X0334099Y0089792D01*
X0333946Y0090005D01*
X0333787Y0090213D01*
X0333623Y0090417D01*
X0333455Y0090618D01*
X0333281Y0090814D01*
X0333103Y0091006D01*
X0332920Y0091193D01*
X0332732Y0091376D01*
X0332540Y0091554D01*
X0332344Y0091728D01*
X0332143Y0091896D01*
X0331939Y0092060D01*
X0331730Y0092219D01*
X0331518Y0092372D01*
X0331302Y0092520D01*
X0331082Y0092663D01*
X0330859Y0092800D01*
X0330633Y0092932D01*
X0330403Y0093058D01*
X0330171Y0093179D01*
X0329935Y0093294D01*
X0329697Y0093403D01*
X0329456Y0093506D01*
X0329213Y0093603D01*
X0328968Y0093694D01*
X0328720Y0093780D01*
X0328470Y0093859D01*
X0328219Y0093932D01*
X0327965Y0093998D01*
X0327710Y0094059D01*
X0327454Y0094113D01*
X0327197Y0094161D01*
X0326938Y0094203D01*
X0326678Y0094238D01*
X0326418Y0094267D01*
X0326157Y0094289D01*
X0325896Y0094305D01*
X0325634Y0094315D01*
X0325372Y0094318D01*
X0325110Y0094315D01*
X0324848Y0094305D01*
X0324587Y0094289D01*
X0324326Y0094267D01*
X0324066Y0094238D01*
X0323806Y0094203D01*
X0323547Y0094161D01*
X0323290Y0094113D01*
X0323034Y0094059D01*
X0322779Y0093998D01*
X0322525Y0093932D01*
X0322274Y0093859D01*
X0322024Y0093780D01*
X0321776Y0093694D01*
X0321531Y0093603D01*
X0321288Y0093506D01*
X0321047Y0093403D01*
X0320809Y0093294D01*
X0320573Y0093179D01*
X0320341Y0093058D01*
X0320111Y0092932D01*
X0319885Y0092800D01*
X0319662Y0092663D01*
X0319442Y0092520D01*
X0319226Y0092372D01*
X0319014Y0092219D01*
X0318805Y0092060D01*
X0318601Y0091896D01*
X0318400Y0091728D01*
X0318204Y0091554D01*
X0318012Y0091376D01*
X0317824Y0091193D01*
X0317641Y0091006D01*
X0317463Y0090814D01*
X0317289Y0090618D01*
X0317121Y0090417D01*
X0316957Y0090213D01*
X0316798Y0090005D01*
X0316645Y0089792D01*
X0316496Y0089576D01*
X0316353Y0089357D01*
X0316216Y0089134D01*
X0316084Y0088908D01*
X0315957Y0088678D01*
X0315837Y0088446D01*
X0315722Y0088210D01*
X0315764Y0088190D01*
X0315879Y0088425D01*
X0315999Y0088656D01*
X0316125Y0088885D01*
X0316256Y0089110D01*
X0316393Y0089332D01*
X0316535Y0089550D01*
X0316683Y0089765D01*
X0316836Y0089977D01*
X0316994Y0090184D01*
X0317157Y0090388D01*
X0317325Y0090587D01*
X0317498Y0090782D01*
X0317675Y0090973D01*
X0317858Y0091160D01*
X0318044Y0091342D01*
X0318235Y0091520D01*
X0318431Y0091692D01*
X0318630Y0091860D01*
X0318834Y0092023D01*
X0319042Y0092181D01*
X0319253Y0092334D01*
X0319468Y0092481D01*
X0319687Y0092623D01*
X0319909Y0092760D01*
X0320134Y0092891D01*
X0320363Y0093017D01*
X0320594Y0093137D01*
X0320829Y0093251D01*
X0321066Y0093360D01*
X0321306Y0093463D01*
X0321548Y0093559D01*
X0321792Y0093650D01*
X0322039Y0093735D01*
X0322287Y0093814D01*
X0322538Y0093886D01*
X0322790Y0093953D01*
X0323044Y0094013D01*
X0323299Y0094067D01*
X0323555Y0094115D01*
X0323813Y0094156D01*
X0324071Y0094191D01*
X0324330Y0094220D01*
X0324590Y0094242D01*
X0324851Y0094258D01*
X0325111Y0094268D01*
X0325372Y0094271D01*
X0325633Y0094268D01*
X0325893Y0094258D01*
X0326154Y0094242D01*
X0326414Y0094220D01*
X0326673Y0094191D01*
X0326931Y0094156D01*
X0327189Y0094115D01*
X0327445Y0094067D01*
X0327700Y0094013D01*
X0327954Y0093953D01*
X0328206Y0093886D01*
X0328457Y0093814D01*
X0328705Y0093735D01*
X0328952Y0093650D01*
X0329196Y0093559D01*
X0329438Y0093463D01*
X0329678Y0093360D01*
X0329915Y0093251D01*
X0330150Y0093137D01*
X0330381Y0093017D01*
X0330610Y0092891D01*
X0330835Y0092760D01*
X0331057Y0092623D01*
X0331276Y0092481D01*
X0331491Y0092334D01*
X0331702Y0092181D01*
X0331910Y0092023D01*
X0332114Y0091860D01*
X0332313Y0091692D01*
X0332509Y0091520D01*
X0332700Y0091342D01*
X0332886Y0091160D01*
X0333069Y0090973D01*
X0333246Y0090782D01*
X0333419Y0090587D01*
X0333587Y0090388D01*
X0333750Y0090184D01*
X0333908Y0089977D01*
X0334061Y0089765D01*
X0334209Y0089550D01*
X0334351Y0089332D01*
X0334488Y0089110D01*
X0334619Y0088885D01*
X0334745Y0088656D01*
X0334865Y0088425D01*
X0334980Y0088190D01*
X0334937Y0088170D01*
X0334823Y0088404D01*
X0334704Y0088634D01*
X0334578Y0088862D01*
X0334447Y0089086D01*
X0334311Y0089307D01*
X0334169Y0089524D01*
X0334023Y0089738D01*
X0333870Y0089949D01*
X0333713Y0090155D01*
X0333551Y0090358D01*
X0333383Y0090556D01*
X0333211Y0090751D01*
X0333035Y0090941D01*
X0332853Y0091127D01*
X0332667Y0091308D01*
X0332477Y0091485D01*
X0332282Y0091657D01*
X0332084Y0091824D01*
X0331881Y0091986D01*
X0331674Y0092143D01*
X0331464Y0092295D01*
X0331250Y0092442D01*
X0331032Y0092583D01*
X0330811Y0092720D01*
X0330587Y0092850D01*
X0330359Y0092975D01*
X0330129Y0093095D01*
X0329895Y0093209D01*
X0329659Y0093317D01*
X0329420Y0093419D01*
X0329179Y0093515D01*
X0328936Y0093606D01*
X0328690Y0093690D01*
X0328443Y0093769D01*
X0328194Y0093841D01*
X0327942Y0093907D01*
X0327690Y0093967D01*
X0327436Y0094021D01*
X0327181Y0094068D01*
X0326924Y0094110D01*
X0326667Y0094144D01*
X0326409Y0094173D01*
X0326150Y0094195D01*
X0325891Y0094211D01*
X0325632Y0094221D01*
X0325372Y0094224D01*
X0325112Y0094221D01*
X0324853Y0094211D01*
X0324594Y0094195D01*
X0324335Y0094173D01*
X0324077Y0094144D01*
X0323820Y0094110D01*
X0323563Y0094068D01*
X0323308Y0094021D01*
X0323054Y0093967D01*
X0322802Y0093907D01*
X0322550Y0093841D01*
X0322301Y0093769D01*
X0322054Y0093690D01*
X0321808Y0093606D01*
X0321565Y0093515D01*
X0321324Y0093419D01*
X0321085Y0093317D01*
X0320849Y0093209D01*
X0320615Y0093095D01*
X0320385Y0092975D01*
X0320157Y0092850D01*
X0319933Y0092720D01*
X0319712Y0092583D01*
X0319494Y0092442D01*
X0319280Y0092295D01*
X0319070Y0092143D01*
X0318863Y0091986D01*
X0318660Y0091824D01*
X0318462Y0091657D01*
X0318267Y0091485D01*
X0318077Y0091308D01*
X0317891Y0091127D01*
X0317709Y0090941D01*
X0317533Y0090751D01*
X0317361Y0090556D01*
X0317193Y0090358D01*
X0317031Y0090155D01*
X0316874Y0089949D01*
X0316721Y0089738D01*
X0316575Y0089524D01*
X0316433Y0089307D01*
X0316297Y0089086D01*
X0316166Y0088862D01*
X0316040Y0088634D01*
X0315921Y0088404D01*
X0315807Y0088170D01*
X0315849Y0088150D01*
X0315963Y0088383D01*
X0316082Y0088612D01*
X0316207Y0088838D01*
X0316337Y0089062D01*
X0316473Y0089282D01*
X0316614Y0089498D01*
X0316760Y0089711D01*
X0316911Y0089921D01*
X0317068Y0090126D01*
X0317230Y0090328D01*
X0317396Y0090526D01*
X0317567Y0090719D01*
X0317743Y0090909D01*
X0317924Y0091094D01*
X0318109Y0091274D01*
X0318299Y0091450D01*
X0318492Y0091621D01*
X0318690Y0091787D01*
X0318892Y0091949D01*
X0319098Y0092105D01*
X0319307Y0092257D01*
X0319520Y0092403D01*
X0319737Y0092544D01*
X0319957Y0092679D01*
X0320181Y0092809D01*
X0320407Y0092934D01*
X0320637Y0093053D01*
X0320869Y0093166D01*
X0321104Y0093274D01*
X0321342Y0093376D01*
X0321582Y0093472D01*
X0321824Y0093562D01*
X0322068Y0093646D01*
X0322315Y0093724D01*
X0322563Y0093796D01*
X0322813Y0093862D01*
X0323064Y0093921D01*
X0323317Y0093975D01*
X0323571Y0094022D01*
X0323827Y0094063D01*
X0324083Y0094098D01*
X0324340Y0094126D01*
X0324597Y0094148D01*
X0324855Y0094164D01*
X0325114Y0094174D01*
X0325372Y0094177D01*
X0325630Y0094174D01*
X0325889Y0094164D01*
X0326147Y0094148D01*
X0326404Y0094126D01*
X0326661Y0094098D01*
X0326917Y0094063D01*
X0327173Y0094022D01*
X0327427Y0093975D01*
X0327680Y0093921D01*
X0327931Y0093862D01*
X0328181Y0093796D01*
X0328429Y0093724D01*
X0328676Y0093646D01*
X0328920Y0093562D01*
X0329162Y0093472D01*
X0329402Y0093376D01*
X0329640Y0093274D01*
X0329875Y0093166D01*
X0330107Y0093053D01*
X0330337Y0092934D01*
X0330563Y0092809D01*
X0330787Y0092679D01*
X0331007Y0092544D01*
X0331224Y0092403D01*
X0331437Y0092257D01*
X0331646Y0092105D01*
X0331852Y0091949D01*
X0332054Y0091787D01*
X0332252Y0091621D01*
X0332445Y0091450D01*
X0332635Y0091274D01*
X0332820Y0091094D01*
X0333001Y0090909D01*
X0333177Y0090719D01*
X0333348Y0090526D01*
X0333514Y0090328D01*
X0333676Y0090126D01*
X0333833Y0089921D01*
X0333984Y0089711D01*
X0334130Y0089498D01*
X0334271Y0089282D01*
X0334407Y0089062D01*
X0334537Y0088838D01*
X0334662Y0088612D01*
X0334781Y0088383D01*
X0334895Y0088150D01*
X0334852Y0088130D01*
X0334739Y0088362D01*
X0334621Y0088590D01*
X0334496Y0088815D01*
X0334367Y0089038D01*
X0334232Y0089257D01*
X0334091Y0089472D01*
X0333946Y0089684D01*
X0333795Y0089893D01*
X0333639Y0090098D01*
X0333478Y0090298D01*
X0333312Y0090495D01*
X0333142Y0090688D01*
X0332966Y0090876D01*
X0332787Y0091060D01*
X0332602Y0091240D01*
X0332414Y0091415D01*
X0332221Y0091586D01*
X0332024Y0091751D01*
X0331823Y0091912D01*
X0331618Y0092068D01*
X0331410Y0092218D01*
X0331197Y0092364D01*
X0330982Y0092504D01*
X0330763Y0092639D01*
X0330540Y0092769D01*
X0330315Y0092893D01*
X0330086Y0093011D01*
X0329855Y0093124D01*
X0329621Y0093231D01*
X0329384Y0093332D01*
X0329145Y0093428D01*
X0328904Y0093517D01*
X0328661Y0093601D01*
X0328416Y0093679D01*
X0328168Y0093750D01*
X0327920Y0093816D01*
X0327669Y0093875D01*
X0327417Y0093929D01*
X0327165Y0093976D01*
X0326910Y0094017D01*
X0326655Y0094051D01*
X0326400Y0094080D01*
X0326143Y0094102D01*
X0325886Y0094117D01*
X0325629Y0094127D01*
X0325372Y0094130D01*
X0325115Y0094127D01*
X0324858Y0094117D01*
X0324601Y0094102D01*
X0324344Y0094080D01*
X0324089Y0094051D01*
X0323834Y0094017D01*
X0323579Y0093976D01*
X0323327Y0093929D01*
X0323075Y0093875D01*
X0322824Y0093816D01*
X0322576Y0093750D01*
X0322328Y0093679D01*
X0322083Y0093601D01*
X0321840Y0093517D01*
X0321599Y0093428D01*
X0321360Y0093332D01*
X0321123Y0093231D01*
X0320889Y0093124D01*
X0320658Y0093011D01*
X0320429Y0092893D01*
X0320204Y0092769D01*
X0319981Y0092639D01*
X0319762Y0092504D01*
X0319547Y0092364D01*
X0319334Y0092218D01*
X0319126Y0092068D01*
X0318921Y0091912D01*
X0318720Y0091751D01*
X0318523Y0091586D01*
X0318330Y0091415D01*
X0318142Y0091240D01*
X0317957Y0091060D01*
X0317778Y0090876D01*
X0317602Y0090688D01*
X0317432Y0090495D01*
X0317266Y0090298D01*
X0317105Y0090098D01*
X0316949Y0089893D01*
X0316798Y0089684D01*
X0316653Y0089472D01*
X0316512Y0089257D01*
X0316377Y0089038D01*
X0316248Y0088815D01*
X0316123Y0088590D01*
X0316005Y0088362D01*
X0315892Y0088130D01*
X0315934Y0088110D01*
X0316047Y0088341D01*
X0316165Y0088568D01*
X0316288Y0088792D01*
X0316418Y0089013D01*
X0316552Y0089232D01*
X0316692Y0089446D01*
X0316837Y0089657D01*
X0316987Y0089865D01*
X0317142Y0090069D01*
X0317302Y0090269D01*
X0317467Y0090465D01*
X0317637Y0090656D01*
X0317812Y0090844D01*
X0317991Y0091027D01*
X0318174Y0091206D01*
X0318362Y0091380D01*
X0318554Y0091550D01*
X0318750Y0091715D01*
X0318950Y0091875D01*
X0319154Y0092030D01*
X0319362Y0092180D01*
X0319573Y0092325D01*
X0319788Y0092464D01*
X0320006Y0092599D01*
X0320227Y0092728D01*
X0320452Y0092851D01*
X0320679Y0092969D01*
X0320909Y0093081D01*
X0321142Y0093188D01*
X0321378Y0093289D01*
X0321615Y0093384D01*
X0321856Y0093473D01*
X0322098Y0093556D01*
X0322342Y0093634D01*
X0322588Y0093705D01*
X0322836Y0093770D01*
X0323085Y0093830D01*
X0323336Y0093883D01*
X0323588Y0093929D01*
X0323840Y0093970D01*
X0324094Y0094005D01*
X0324349Y0094033D01*
X0324604Y0094055D01*
X0324860Y0094070D01*
X0325116Y0094080D01*
X0325372Y0094083D01*
X0325628Y0094080D01*
X0325884Y0094070D01*
X0326140Y0094055D01*
X0326395Y0094033D01*
X0326650Y0094005D01*
X0326904Y0093970D01*
X0327156Y0093929D01*
X0327408Y0093883D01*
X0327659Y0093830D01*
X0327908Y0093770D01*
X0328156Y0093705D01*
X0328402Y0093634D01*
X0328646Y0093556D01*
X0328888Y0093473D01*
X0329129Y0093384D01*
X0329366Y0093289D01*
X0329602Y0093188D01*
X0329835Y0093081D01*
X0330065Y0092969D01*
X0330292Y0092851D01*
X0330517Y0092728D01*
X0330738Y0092599D01*
X0330956Y0092464D01*
X0331171Y0092325D01*
X0331382Y0092180D01*
X0331590Y0092030D01*
X0331794Y0091875D01*
X0331994Y0091715D01*
X0332190Y0091550D01*
X0332382Y0091380D01*
X0332570Y0091206D01*
X0332753Y0091027D01*
X0332932Y0090844D01*
X0333107Y0090656D01*
X0333277Y0090465D01*
X0333442Y0090269D01*
X0333602Y0090069D01*
X0333757Y0089865D01*
X0333907Y0089657D01*
X0334052Y0089446D01*
X0334192Y0089232D01*
X0334326Y0089013D01*
X0334456Y0088792D01*
X0334579Y0088568D01*
X0334697Y0088341D01*
X0334810Y0088110D01*
X0334767Y0088090D01*
X0334655Y0088319D01*
X0334538Y0088546D01*
X0334415Y0088769D01*
X0334286Y0088989D01*
X0334152Y0089206D01*
X0334013Y0089420D01*
X0333869Y0089630D01*
X0333719Y0089837D01*
X0333565Y0090040D01*
X0333405Y0090239D01*
X0333241Y0090434D01*
X0333072Y0090625D01*
X0332898Y0090812D01*
X0332720Y0090994D01*
X0332537Y0091172D01*
X0332351Y0091346D01*
X0332159Y0091514D01*
X0331964Y0091679D01*
X0331765Y0091838D01*
X0331562Y0091992D01*
X0331355Y0092142D01*
X0331145Y0092286D01*
X0330931Y0092425D01*
X0330714Y0092558D01*
X0330494Y0092687D01*
X0330270Y0092810D01*
X0330044Y0092927D01*
X0329815Y0093039D01*
X0329583Y0093145D01*
X0329348Y0093245D01*
X0329112Y0093340D01*
X0328873Y0093429D01*
X0328631Y0093512D01*
X0328388Y0093589D01*
X0328143Y0093660D01*
X0327897Y0093725D01*
X0327649Y0093784D01*
X0327399Y0093836D01*
X0327148Y0093883D01*
X0326897Y0093924D01*
X0326644Y0093958D01*
X0326390Y0093986D01*
X0326136Y0094008D01*
X0325882Y0094023D01*
X0325627Y0094033D01*
X0325372Y0094036D01*
X0325117Y0094033D01*
X0324862Y0094023D01*
X0324608Y0094008D01*
X0324354Y0093986D01*
X0324100Y0093958D01*
X0323847Y0093924D01*
X0323596Y0093883D01*
X0323345Y0093836D01*
X0323095Y0093784D01*
X0322847Y0093725D01*
X0322601Y0093660D01*
X0322356Y0093589D01*
X0322113Y0093512D01*
X0321871Y0093429D01*
X0321632Y0093340D01*
X0321396Y0093245D01*
X0321161Y0093145D01*
X0320929Y0093039D01*
X0320700Y0092927D01*
X0320474Y0092810D01*
X0320250Y0092687D01*
X0320030Y0092558D01*
X0319813Y0092425D01*
X0319599Y0092286D01*
X0319389Y0092142D01*
X0319182Y0091992D01*
X0318979Y0091838D01*
X0318780Y0091679D01*
X0318585Y0091514D01*
X0318393Y0091346D01*
X0318207Y0091172D01*
X0318024Y0090994D01*
X0317846Y0090812D01*
X0317672Y0090625D01*
X0317503Y0090434D01*
X0317339Y0090239D01*
X0317179Y0090040D01*
X0317025Y0089837D01*
X0316875Y0089630D01*
X0316731Y0089420D01*
X0316592Y0089206D01*
X0316458Y0088989D01*
X0316329Y0088769D01*
X0316206Y0088546D01*
X0316089Y0088319D01*
X0315977Y0088090D01*
X0316019Y0088070D01*
X0316131Y0088298D01*
X0316248Y0088524D01*
X0316370Y0088746D01*
X0316498Y0088965D01*
X0316632Y0089181D01*
X0316770Y0089394D01*
X0316914Y0089603D01*
X0317063Y0089809D01*
X0317216Y0090011D01*
X0317375Y0090209D01*
X0317539Y0090403D01*
X0317707Y0090593D01*
X0317880Y0090779D01*
X0318057Y0090961D01*
X0318239Y0091138D01*
X0318425Y0091311D01*
X0318615Y0091479D01*
X0318810Y0091642D01*
X0319008Y0091801D01*
X0319210Y0091954D01*
X0319416Y0092103D01*
X0319625Y0092247D01*
X0319838Y0092385D01*
X0320054Y0092518D01*
X0320273Y0092646D01*
X0320496Y0092768D01*
X0320721Y0092885D01*
X0320949Y0092996D01*
X0321180Y0093102D01*
X0321414Y0093202D01*
X0321649Y0093296D01*
X0321887Y0093385D01*
X0322127Y0093467D01*
X0322369Y0093544D01*
X0322613Y0093615D01*
X0322859Y0093679D01*
X0323106Y0093738D01*
X0323354Y0093790D01*
X0323604Y0093837D01*
X0323854Y0093877D01*
X0324106Y0093911D01*
X0324358Y0093939D01*
X0324611Y0093961D01*
X0324864Y0093977D01*
X0325118Y0093986D01*
X0325372Y0093989D01*
X0325626Y0093986D01*
X0325880Y0093977D01*
X0326133Y0093961D01*
X0326386Y0093939D01*
X0326638Y0093911D01*
X0326890Y0093877D01*
X0327140Y0093837D01*
X0327390Y0093790D01*
X0327638Y0093738D01*
X0327885Y0093679D01*
X0328131Y0093615D01*
X0328375Y0093544D01*
X0328617Y0093467D01*
X0328857Y0093385D01*
X0329095Y0093296D01*
X0329330Y0093202D01*
X0329564Y0093102D01*
X0329795Y0092996D01*
X0330023Y0092885D01*
X0330248Y0092768D01*
X0330471Y0092646D01*
X0330690Y0092518D01*
X0330906Y0092385D01*
X0331119Y0092247D01*
X0331328Y0092103D01*
X0331534Y0091954D01*
X0331736Y0091801D01*
X0331934Y0091642D01*
X0332129Y0091479D01*
X0332319Y0091311D01*
X0332505Y0091138D01*
X0332687Y0090961D01*
X0332864Y0090779D01*
X0333037Y0090593D01*
X0333205Y0090403D01*
X0333369Y0090209D01*
X0333528Y0090011D01*
X0333681Y0089809D01*
X0333830Y0089603D01*
X0333974Y0089394D01*
X0334112Y0089181D01*
X0334246Y0088965D01*
X0334374Y0088746D01*
X0334496Y0088524D01*
X0334613Y0088298D01*
X0334725Y0088070D01*
X0334682Y0088050D01*
X0334571Y0088277D01*
X0334455Y0088502D01*
X0334333Y0088723D01*
X0334205Y0088941D01*
X0334073Y0089156D01*
X0333935Y0089368D01*
X0333792Y0089576D01*
X0333644Y0089781D01*
X0333490Y0089982D01*
X0333332Y0090179D01*
X0333170Y0090373D01*
X0333002Y0090562D01*
X0332830Y0090747D01*
X0332654Y0090928D01*
X0332473Y0091104D01*
X0332287Y0091276D01*
X0332098Y0091443D01*
X0331905Y0091606D01*
X0331707Y0091764D01*
X0331506Y0091917D01*
X0331301Y0092065D01*
X0331093Y0092208D01*
X0330881Y0092345D01*
X0330666Y0092478D01*
X0330447Y0092605D01*
X0330226Y0092727D01*
X0330002Y0092843D01*
X0329774Y0092954D01*
X0329545Y0093059D01*
X0329312Y0093159D01*
X0329078Y0093252D01*
X0328841Y0093340D01*
X0328602Y0093423D01*
X0328361Y0093499D01*
X0328118Y0093569D01*
X0327874Y0093634D01*
X0327628Y0093692D01*
X0327381Y0093744D01*
X0327132Y0093790D01*
X0326883Y0093831D01*
X0326632Y0093865D01*
X0326381Y0093892D01*
X0326129Y0093914D01*
X0325877Y0093930D01*
X0325625Y0093939D01*
X0325372Y0093942D01*
X0325119Y0093939D01*
X0324867Y0093930D01*
X0324615Y0093914D01*
X0324363Y0093892D01*
X0324112Y0093865D01*
X0323861Y0093831D01*
X0323612Y0093790D01*
X0323363Y0093744D01*
X0323116Y0093692D01*
X0322870Y0093634D01*
X0322626Y0093569D01*
X0322383Y0093499D01*
X0322142Y0093423D01*
X0321903Y0093340D01*
X0321666Y0093252D01*
X0321432Y0093159D01*
X0321199Y0093059D01*
X0320970Y0092954D01*
X0320742Y0092843D01*
X0320518Y0092727D01*
X0320297Y0092605D01*
X0320078Y0092478D01*
X0319863Y0092345D01*
X0319651Y0092208D01*
X0319443Y0092065D01*
X0319238Y0091917D01*
X0319037Y0091764D01*
X0318839Y0091606D01*
X0318646Y0091443D01*
X0318457Y0091276D01*
X0318271Y0091104D01*
X0318090Y0090928D01*
X0317914Y0090747D01*
X0317742Y0090562D01*
X0317574Y0090373D01*
X0317412Y0090179D01*
X0317254Y0089982D01*
X0317100Y0089781D01*
X0316952Y0089576D01*
X0316809Y0089368D01*
X0316671Y0089156D01*
X0316539Y0088941D01*
X0316411Y0088723D01*
X0316289Y0088502D01*
X0316173Y0088277D01*
X0316062Y0088050D01*
X0333812Y0077021D02*
X0333458Y0077299D01*
X0333459Y0077299D02*
X0333604Y0077488D01*
X0333745Y0077682D01*
X0333881Y0077878D01*
X0334013Y0078077D01*
X0334140Y0078280D01*
X0334262Y0078485D01*
X0334380Y0078693D01*
X0334493Y0078904D01*
X0334600Y0079118D01*
X0334703Y0079334D01*
X0335112Y0079146D01*
X0335005Y0078920D01*
X0334892Y0078697D01*
X0334775Y0078477D01*
X0334652Y0078260D01*
X0334524Y0078045D01*
X0334391Y0077834D01*
X0334254Y0077625D01*
X0334111Y0077420D01*
X0333964Y0077218D01*
X0333812Y0077020D01*
X0333775Y0077049D01*
X0333926Y0077247D01*
X0334073Y0077447D01*
X0334215Y0077652D01*
X0334352Y0077859D01*
X0334484Y0078070D01*
X0334611Y0078283D01*
X0334733Y0078500D01*
X0334851Y0078719D01*
X0334963Y0078941D01*
X0335069Y0079166D01*
X0335027Y0079185D01*
X0334920Y0078962D01*
X0334809Y0078741D01*
X0334692Y0078522D01*
X0334570Y0078307D01*
X0334444Y0078094D01*
X0334312Y0077885D01*
X0334176Y0077678D01*
X0334035Y0077475D01*
X0333889Y0077275D01*
X0333738Y0077078D01*
X0333701Y0077107D01*
X0333851Y0077303D01*
X0333996Y0077502D01*
X0334137Y0077704D01*
X0334273Y0077910D01*
X0334404Y0078119D01*
X0334530Y0078330D01*
X0334651Y0078545D01*
X0334767Y0078762D01*
X0334878Y0078982D01*
X0334984Y0079205D01*
X0334941Y0079224D01*
X0334836Y0079003D01*
X0334725Y0078784D01*
X0334610Y0078568D01*
X0334489Y0078354D01*
X0334364Y0078143D01*
X0334233Y0077935D01*
X0334098Y0077731D01*
X0333958Y0077529D01*
X0333814Y0077331D01*
X0333664Y0077136D01*
X0333628Y0077166D01*
X0333776Y0077359D01*
X0333920Y0077557D01*
X0334059Y0077757D01*
X0334194Y0077961D01*
X0334324Y0078168D01*
X0334448Y0078377D01*
X0334568Y0078590D01*
X0334684Y0078805D01*
X0334794Y0079023D01*
X0334898Y0079244D01*
X0334856Y0079264D01*
X0334751Y0079044D01*
X0334642Y0078827D01*
X0334527Y0078613D01*
X0334408Y0078401D01*
X0334283Y0078192D01*
X0334154Y0077986D01*
X0334020Y0077784D01*
X0333882Y0077584D01*
X0333738Y0077388D01*
X0333591Y0077195D01*
X0333554Y0077224D01*
X0333701Y0077416D01*
X0333843Y0077611D01*
X0333981Y0077810D01*
X0334115Y0078012D01*
X0334243Y0078217D01*
X0334367Y0078425D01*
X0334486Y0078635D01*
X0334600Y0078849D01*
X0334709Y0079065D01*
X0334813Y0079283D01*
X0334770Y0079303D01*
X0334667Y0079085D01*
X0334558Y0078870D01*
X0334445Y0078658D01*
X0334326Y0078448D01*
X0334203Y0078241D01*
X0334075Y0078037D01*
X0333943Y0077836D01*
X0333805Y0077639D01*
X0333663Y0077444D01*
X0333517Y0077253D01*
X0333480Y0077282D01*
X0333626Y0077472D01*
X0333767Y0077666D01*
X0333904Y0077863D01*
X0334036Y0078063D01*
X0334163Y0078266D01*
X0334286Y0078472D01*
X0334404Y0078680D01*
X0334517Y0078892D01*
X0334625Y0079106D01*
X0334728Y0079322D01*
D18*
X0334571Y0113531D02*
X0334571Y0114531D01*
X0165673Y0044846D02*
X0165673Y0043846D01*
X0120004Y0060382D02*
X0120004Y0061382D01*
M02*
